  0
SECTION
  2
HEADER
  9
$ACADVER
  1
AC1014
  9
$HANDSEED
  5
FFFF
  9
$INSUNITS
 70
     0
  9
$MEASUREMENT
 70
     1
  0
ENDSEC
  0
SECTION
  2
TABLES
  0
TABLE
  2
VPORT
  5
8
330
0
100
AcDbSymbolTable
 70
     4
  0
VPORT
  5
2E
330
8
100
AcDbSymbolTableRecord
100
AcDbViewportTableRecord
  2
*ACTIVE
 70
     0
 10
0.0
 20
0.0
 11
1.0
 21
1.0
 12
210.0
 22
148.5
 13
0.0
 23
0.0
 14
10.0
 24
10.0
 15
10.0
 25
10.0
 16
0.0
 26
0.0
 36
1.0
 17
0.0
 27
0.0
 37
0.0
 40
341.0
 41
1.24
 42
50.0
 43
0.0
 44
0.0
 50
0.0
 51
0.0
 71
     0
 72
   100
 73
     1
 74
     3
 75
     0
 76
     0
 77
     0
 78
     0
  0
ENDTAB
  0
TABLE
  2
LTYPE
  5
5
330
0
100
AcDbSymbolTable
 70
     1
  0
LTYPE
  5
14
330
5
100
AcDbSymbolTableRecord
100
AcDbLinetypeTableRecord
  2
BYBLOCK
 70
     0
  3

 72
    65
 73
     0
 40
0.0
  0
LTYPE
  5
15
330
5
100
AcDbSymbolTableRecord
100
AcDbLinetypeTableRecord
  2
BYLAYER
 70
     0
  3

 72
    65
 73
     0
 40
0.0
  0
LTYPE
  5
16
330
5
100
AcDbSymbolTableRecord
100
AcDbLinetypeTableRecord
  2
CONTINUOUS
 70
     0
  3
Solid line
 72
    65
 73
     0
 40
0.0
  0
ENDTAB
  0
TABLE
  2
LAYER
  5
2
100
AcDbSymbolTable
 70
2
  0
LAYER
  5
50
100
AcDbSymbolTableRecord
100
AcDbLayerTableRecord
  2
0
 70
0
  6
CONTINUOUS
  0
LAYER
  5
51
100
AcDbSymbolTableRecord
100
AcDbLayerTableRecord
  2
Layer_1
 70
0
  6
CONTINUOUS
  0
ENDTAB
  0
TABLE
  2
STYLE
  5
3
330
0
100
AcDbSymbolTable
 70
     1
  0
STYLE
  5
11
330
3
100
AcDbSymbolTableRecord
100
AcDbTextStyleTableRecord
  2
STANDARD
 70
     0
 40
0.0
 41
1.0
 50
0.0
 71
     0
 42
2.5
  3
txt
  4

  0
ENDTAB
  0
TABLE
  2
VIEW
  5
6
330
0
100
AcDbSymbolTable
 70
     0
  0
ENDTAB
  0
TABLE
  2
UCS
  5
7
330
0
100
AcDbSymbolTable
 70
     0
  0
ENDTAB
  0
TABLE
  2
APPID
  5
9
330
0
100
AcDbSymbolTable
 70
     2
  0
APPID
  5
12
330
9
100
AcDbSymbolTableRecord
100
AcDbRegAppTableRecord
  2
ACAD
 70
     0
  0
ENDTAB
  0
TABLE
  2
DIMSTYLE
  5
A
330
0
100
AcDbSymbolTable
 70
     1
  0
DIMSTYLE
105
27
330
A
100
AcDbSymbolTableRecord
100
AcDbDimStyleTableRecord
  2
ISO-25
 70
     0
  3

  4

  5

  6

  7

 40
1.0
 41
2.5
 42
0.625
 43
3.75
 44
1.25
 45
0.0
 46
0.0
 47
0.0
 48
0.0
140
2.5
141
2.5
142
0.0
143
0.03937007874016
144
1.0
145
0.0
146
1.0
147
0.625
 71
     0
 72
     0
 73
     0
 74
     0
 75
     0
 76
     0
 77
     1
 78
     8
170
     0
171
     3
172
     1
173
     0
174
     0
175
     0
176
     0
177
     0
178
     0
270
     2
271
     2
272
     2
273
     2
274
     3
340
11
275
     0
280
     0
281
     0
282
     0
283
     0
284
     8
285
     0
286
     0
287
     3
288
     0
  0
ENDTAB
  0
TABLE
  2
BLOCK_RECORD
  5
1
330
0
100
AcDbSymbolTable
 70
     1
  0
BLOCK_RECORD
  5
1F
330
1
100
AcDbSymbolTableRecord
100
AcDbBlockTableRecord
  2
*MODEL_SPACE
  0
BLOCK_RECORD
  5
1B
330
1
100
AcDbSymbolTableRecord
100
AcDbBlockTableRecord
  2
*PAPER_SPACE
  0
ENDTAB
  0
ENDSEC
  0
SECTION
  2
BLOCKS
  0
BLOCK
  5
20
330
1F
100
AcDbEntity
  8
0
100
AcDbBlockBegin
  2
*MODEL_SPACE
 70
     0
 10
0.0
 20
0.0
 30
0.0
  3
*MODEL_SPACE
  1

  0
ENDBLK
  5
21
330
1F
100
AcDbEntity
  8
0
100
AcDbBlockEnd
  0
BLOCK
  5
1C
330
1B
100
AcDbEntity
 67
     1
  8
0
100
AcDbBlockBegin
  2
*PAPER_SPACE
  1

  0
ENDBLK
  5
1D
330
1B
100
AcDbEntity
 67
     1
  8
0
100
AcDbBlockEnd
  0
ENDSEC
  0
SECTION
  2
ENTITIES
  0
LINE
  5
100
100
AcDbEntity
  8
Layer_1
 62
1
100
AcDbLine
 10
240.459633
 20
218.021719
 30
0.0
 11
-35.290013
 21
218.021719
 31
0.0
  0
SPLINE
  5
101
100
AcDbEntity
  8
Layer_1
 62
1
100
AcDbSpline
 70
8
 71
3
 72
8
 73
4
 74
0
 40
0
 40
0
 40
0
 40
0
 40
1
 40
1
 40
1
 40
1
 10
244.459633
 20
214.021724
 30
0.0
 10
244.459633
 20
215.082623
 30
0.0
 10
244.038234
 20
216.100021
 30
0.0
 10
243.288025
 20
216.850119
 30
0.0
  0
SPLINE
  5
102
100
AcDbEntity
  8
Layer_1
 62
1
100
AcDbSpline
 70
8
 71
3
 72
8
 73
4
 74
0
 40
0
 40
0
 40
0
 40
0
 40
1
 40
1
 40
1
 40
1
 10
243.288025
 20
216.850119
 30
0.0
 10
242.537932
 20
217.600318
 30
0.0
 10
241.520531
 20
218.021719
 30
0.0
 10
240.459633
 20
218.021719
 30
0.0
  0
LINE
  5
103
100
AcDbEntity
  8
Layer_1
 62
1
100
AcDbLine
 10
244.459633
 20
98.197369
 30
0.0
 11
244.459633
 21
214.022224
 31
0.0
  0
SPLINE
  5
104
100
AcDbEntity
  8
Layer_1
 62
1
100
AcDbSpline
 70
8
 71
3
 72
8
 73
4
 74
0
 40
0
 40
0
 40
0
 40
0
 40
1
 40
1
 40
1
 40
1
 10
-39.290006
 20
98.197869
 30
0.0
 10
-39.290006
 20
97.136970
 30
0.0
 10
-38.868604
 20
96.119572
 30
0.0
 10
-38.118406
 20
95.369473
 30
0.0
  0
SPLINE
  5
105
100
AcDbEntity
  8
Layer_1
 62
1
100
AcDbSpline
 70
8
 71
3
 72
8
 73
4
 74
0
 40
0
 40
0
 40
0
 40
0
 40
1
 40
1
 40
1
 40
1
 10
-38.118406
 20
95.369473
 30
0.0
 10
-37.368313
 20
94.619274
 30
0.0
 10
-36.350912
 20
94.197874
 30
0.0
 10
-35.290013
 20
94.197874
 30
0.0
  0
LINE
  5
106
100
AcDbEntity
  8
Layer_1
 62
1
100
AcDbLine
 10
-35.290013
 20
94.197874
 30
0.0
 11
240.459633
 21
94.197874
 31
0.0
  0
SPLINE
  5
107
100
AcDbEntity
  8
Layer_1
 62
1
100
AcDbSpline
 70
8
 71
3
 72
8
 73
4
 74
0
 40
0
 40
0
 40
0
 40
0
 40
1
 40
1
 40
1
 40
1
 10
240.459633
 20
94.197874
 30
0.0
 10
241.520531
 20
94.197874
 30
0.0
 10
242.537932
 20
94.619274
 30
0.0
 10
243.288025
 20
95.369473
 30
0.0
  0
SPLINE
  5
108
100
AcDbEntity
  8
Layer_1
 62
1
100
AcDbSpline
 70
8
 71
3
 72
8
 73
4
 74
0
 40
0
 40
0
 40
0
 40
0
 40
1
 40
1
 40
1
 40
1
 10
243.288025
 20
95.369473
 30
0.0
 10
244.038234
 20
96.119572
 30
0.0
 10
244.459633
 20
97.136970
 30
0.0
 10
244.459633
 20
98.197869
 30
0.0
  0
LINE
  5
109
100
AcDbEntity
  8
Layer_1
 62
1
100
AcDbLine
 10
-39.290006
 20
214.022724
 30
0.0
 11
-39.290006
 21
98.197869
 31
0.0
  0
SPLINE
  5
10a
100
AcDbEntity
  8
Layer_1
 62
1
100
AcDbSpline
 70
8
 71
3
 72
8
 73
4
 74
0
 40
0
 40
0
 40
0
 40
0
 40
1
 40
1
 40
1
 40
1
 10
-35.290013
 20
218.021719
 30
0.0
 10
-36.350912
 20
218.021719
 30
0.0
 10
-37.368313
 20
217.600318
 30
0.0
 10
-38.118406
 20
216.850119
 30
0.0
  0
SPLINE
  5
10b
100
AcDbEntity
  8
Layer_1
 62
1
100
AcDbSpline
 70
8
 71
3
 72
8
 73
4
 74
0
 40
0
 40
0
 40
0
 40
0
 40
1
 40
1
 40
1
 40
1
 10
-38.118406
 20
216.850119
 30
0.0
 10
-38.868604
 20
216.100021
 30
0.0
 10
-39.290006
 20
215.082623
 30
0.0
 10
-39.290006
 20
214.021724
 30
0.0
  0
LINE
  5
10c
100
AcDbEntity
  8
Layer_1
 62
1
100
AcDbLine
 10
169.759430
 20
118.535344
 30
0.0
 11
169.759430
 21
100.435366
 31
0.0
  0
SPLINE
  5
10d
100
AcDbEntity
  8
Layer_1
 62
1
100
AcDbSpline
 70
8
 71
3
 72
8
 73
4
 74
0
 40
0
 40
0
 40
0
 40
0
 40
1
 40
1
 40
1
 40
1
 10
168.759439
 20
99.435368
 30
0.0
 10
169.024736
 20
99.435368
 30
0.0
 10
169.279027
 20
99.540767
 30
0.0
 10
169.466616
 20
99.728267
 30
0.0
  0
SPLINE
  5
10e
100
AcDbEntity
  8
Layer_1
 62
1
100
AcDbSpline
 70
8
 71
3
 72
8
 73
4
 74
0
 40
0
 40
0
 40
0
 40
0
 40
1
 40
1
 40
1
 40
1
 10
169.466616
 20
99.728267
 30
0.0
 10
169.654126
 20
99.915767
 30
0.0
 10
169.759430
 20
100.170167
 30
0.0
 10
169.759430
 20
100.435366
 30
0.0
  0
LINE
  5
10f
100
AcDbEntity
  8
Layer_1
 62
1
100
AcDbLine
 10
35.410083
 20
100.435366
 30
0.0
 11
35.410083
 21
118.535344
 31
0.0
  0
SPLINE
  5
110
100
AcDbEntity
  8
Layer_1
 62
1
100
AcDbSpline
 70
8
 71
3
 72
8
 73
4
 74
0
 40
0
 40
0
 40
0
 40
0
 40
1
 40
1
 40
1
 40
1
 10
35.410083
 20
100.435366
 30
0.0
 10
35.410083
 20
100.170167
 30
0.0
 10
35.515493
 20
99.915767
 30
0.0
 10
35.703003
 20
99.728267
 30
0.0
  0
SPLINE
  5
111
100
AcDbEntity
  8
Layer_1
 62
1
100
AcDbSpline
 70
8
 71
3
 72
8
 73
4
 74
0
 40
0
 40
0
 40
0
 40
0
 40
1
 40
1
 40
1
 40
1
 10
35.703003
 20
99.728267
 30
0.0
 10
35.890592
 20
99.540767
 30
0.0
 10
36.144883
 20
99.435368
 30
0.0
 10
36.410101
 20
99.435368
 30
0.0
  0
LINE
  5
112
100
AcDbEntity
  8
Layer_1
 62
1
100
AcDbLine
 10
168.759439
 20
99.435368
 30
0.0
 11
36.410101
 21
99.435368
 31
0.0
  0
SPLINE
  5
113
100
AcDbEntity
  8
Layer_1
 62
1
100
AcDbSpline
 70
8
 71
3
 72
8
 73
4
 74
0
 40
0
 40
0
 40
0
 40
0
 40
1
 40
1
 40
1
 40
1
 10
169.759430
 20
118.535344
 30
0.0
 10
169.759430
 20
118.800543
 30
0.0
 10
169.654126
 20
119.054943
 30
0.0
 10
169.466616
 20
119.242442
 30
0.0
  0
SPLINE
  5
114
100
AcDbEntity
  8
Layer_1
 62
1
100
AcDbSpline
 70
8
 71
3
 72
8
 73
4
 74
0
 40
0
 40
0
 40
0
 40
0
 40
1
 40
1
 40
1
 40
1
 10
169.466616
 20
119.242442
 30
0.0
 10
169.279027
 20
119.429941
 30
0.0
 10
169.024736
 20
119.535343
 30
0.0
 10
168.759439
 20
119.535343
 30
0.0
  0
LINE
  5
115
100
AcDbEntity
  8
Layer_1
 62
1
100
AcDbLine
 10
36.410101
 20
119.535343
 30
0.0
 11
168.759439
 21
119.535343
 31
0.0
  0
SPLINE
  5
116
100
AcDbEntity
  8
Layer_1
 62
1
100
AcDbSpline
 70
8
 71
3
 72
8
 73
4
 74
0
 40
0
 40
0
 40
0
 40
0
 40
1
 40
1
 40
1
 40
1
 10
36.410101
 20
119.535343
 30
0.0
 10
36.144883
 20
119.535343
 30
0.0
 10
35.890592
 20
119.429941
 30
0.0
 10
35.703003
 20
119.242442
 30
0.0
  0
SPLINE
  5
117
100
AcDbEntity
  8
Layer_1
 62
1
100
AcDbSpline
 70
8
 71
3
 72
8
 73
4
 74
0
 40
0
 40
0
 40
0
 40
0
 40
1
 40
1
 40
1
 40
1
 10
35.703003
 20
119.242442
 30
0.0
 10
35.515493
 20
119.054943
 30
0.0
 10
35.410083
 20
118.800543
 30
0.0
 10
35.410083
 20
118.535344
 30
0.0
  0
LINE
  5
118
100
AcDbEntity
  8
Layer_1
 62
1
100
AcDbLine
 10
55.468023
 20
208.996938
 30
0.0
 11
55.468023
 21
190.896961
 31
0.0
  0
SPLINE
  5
119
100
AcDbEntity
  8
Layer_1
 62
1
100
AcDbSpline
 70
8
 71
3
 72
8
 73
4
 74
0
 40
0
 40
0
 40
0
 40
0
 40
1
 40
1
 40
1
 40
1
 10
54.468032
 20
189.896961
 30
0.0
 10
54.733329
 20
189.896961
 30
0.0
 10
54.987620
 20
190.002361
 30
0.0
 10
55.175209
 20
190.189860
 30
0.0
  0
SPLINE
  5
11a
100
AcDbEntity
  8
Layer_1
 62
1
100
AcDbSpline
 70
8
 71
3
 72
8
 73
4
 74
0
 40
0
 40
0
 40
0
 40
0
 40
1
 40
1
 40
1
 40
1
 10
55.175209
 20
190.189860
 30
0.0
 10
55.362719
 20
190.377362
 30
0.0
 10
55.468023
 20
190.631761
 30
0.0
 10
55.468023
 20
190.896961
 30
0.0
  0
LINE
  5
11b
100
AcDbEntity
  8
Layer_1
 62
1
100
AcDbLine
 10
-21.731396
 20
190.896961
 30
0.0
 11
-21.731396
 21
208.996938
 31
0.0
  0
SPLINE
  5
11c
100
AcDbEntity
  8
Layer_1
 62
1
100
AcDbSpline
 70
8
 71
3
 72
8
 73
4
 74
0
 40
0
 40
0
 40
0
 40
0
 40
1
 40
1
 40
1
 40
1
 10
-21.731396
 20
190.896961
 30
0.0
 10
-21.731396
 20
190.631761
 30
0.0
 10
-21.625986
 20
190.377362
 30
0.0
 10
-21.438476
 20
190.189860
 30
0.0
  0
SPLINE
  5
11d
100
AcDbEntity
  8
Layer_1
 62
1
100
AcDbSpline
 70
8
 71
3
 72
8
 73
4
 74
0
 40
0
 40
0
 40
0
 40
0
 40
1
 40
1
 40
1
 40
1
 10
-21.438476
 20
190.189860
 30
0.0
 10
-21.250887
 20
190.002361
 30
0.0
 10
-20.996596
 20
189.896961
 30
0.0
 10
-20.731378
 20
189.896961
 30
0.0
  0
LINE
  5
11e
100
AcDbEntity
  8
Layer_1
 62
1
100
AcDbLine
 10
54.468270
 20
189.896961
 30
0.0
 11
-20.731616
 21
189.896961
 31
0.0
  0
SPLINE
  5
11f
100
AcDbEntity
  8
Layer_1
 62
1
100
AcDbSpline
 70
8
 71
3
 72
8
 73
4
 74
0
 40
0
 40
0
 40
0
 40
0
 40
1
 40
1
 40
1
 40
1
 10
55.468023
 20
208.996938
 30
0.0
 10
55.468023
 20
209.262138
 30
0.0
 10
55.362719
 20
209.516537
 30
0.0
 10
55.175209
 20
209.704036
 30
0.0
  0
SPLINE
  5
120
100
AcDbEntity
  8
Layer_1
 62
1
100
AcDbSpline
 70
8
 71
3
 72
8
 73
4
 74
0
 40
0
 40
0
 40
0
 40
0
 40
1
 40
1
 40
1
 40
1
 10
55.175209
 20
209.704036
 30
0.0
 10
54.987620
 20
209.891536
 30
0.0
 10
54.733329
 20
209.996938
 30
0.0
 10
54.468032
 20
209.996938
 30
0.0
  0
LINE
  5
121
100
AcDbEntity
  8
Layer_1
 62
1
100
AcDbLine
 10
-20.731616
 20
209.996938
 30
0.0
 11
54.468270
 21
209.996938
 31
0.0
  0
SPLINE
  5
122
100
AcDbEntity
  8
Layer_1
 62
1
100
AcDbSpline
 70
8
 71
3
 72
8
 73
4
 74
0
 40
0
 40
0
 40
0
 40
0
 40
1
 40
1
 40
1
 40
1
 10
-20.731378
 20
209.996938
 30
0.0
 10
-20.996596
 20
209.996938
 30
0.0
 10
-21.250887
 20
209.891536
 30
0.0
 10
-21.438476
 20
209.704036
 30
0.0
  0
SPLINE
  5
123
100
AcDbEntity
  8
Layer_1
 62
1
100
AcDbSpline
 70
8
 71
3
 72
8
 73
4
 74
0
 40
0
 40
0
 40
0
 40
0
 40
1
 40
1
 40
1
 40
1
 10
-21.438476
 20
209.704036
 30
0.0
 10
-21.625986
 20
209.516537
 30
0.0
 10
-21.731396
 20
209.262138
 30
0.0
 10
-21.731396
 20
208.996938
 30
0.0
  0
LINE
  5
124
100
AcDbEntity
  8
Layer_1
 62
1
100
AcDbLine
 10
226.918023
 20
208.996938
 30
0.0
 11
226.918023
 21
190.896961
 31
0.0
  0
SPLINE
  5
125
100
AcDbEntity
  8
Layer_1
 62
1
100
AcDbSpline
 70
8
 71
3
 72
8
 73
4
 74
0
 40
0
 40
0
 40
0
 40
0
 40
1
 40
1
 40
1
 40
1
 10
225.918032
 20
189.896961
 30
0.0
 10
226.183329
 20
189.896961
 30
0.0
 10
226.437620
 20
190.002361
 30
0.0
 10
226.625209
 20
190.189860
 30
0.0
  0
SPLINE
  5
126
100
AcDbEntity
  8
Layer_1
 62
1
100
AcDbSpline
 70
8
 71
3
 72
8
 73
4
 74
0
 40
0
 40
0
 40
0
 40
0
 40
1
 40
1
 40
1
 40
1
 10
226.625209
 20
190.189860
 30
0.0
 10
226.812719
 20
190.377362
 30
0.0
 10
226.918023
 20
190.631761
 30
0.0
 10
226.918023
 20
190.896961
 30
0.0
  0
LINE
  5
127
100
AcDbEntity
  8
Layer_1
 62
1
100
AcDbLine
 10
149.718604
 20
190.896961
 30
0.0
 11
149.718604
 21
208.996938
 31
0.0
  0
SPLINE
  5
128
100
AcDbEntity
  8
Layer_1
 62
1
100
AcDbSpline
 70
8
 71
3
 72
8
 73
4
 74
0
 40
0
 40
0
 40
0
 40
0
 40
1
 40
1
 40
1
 40
1
 10
149.718604
 20
190.896961
 30
0.0
 10
149.718604
 20
190.631761
 30
0.0
 10
149.824014
 20
190.377362
 30
0.0
 10
150.011524
 20
190.189860
 30
0.0
  0
SPLINE
  5
129
100
AcDbEntity
  8
Layer_1
 62
1
100
AcDbSpline
 70
8
 71
3
 72
8
 73
4
 74
0
 40
0
 40
0
 40
0
 40
0
 40
1
 40
1
 40
1
 40
1
 10
150.011524
 20
190.189860
 30
0.0
 10
150.199113
 20
190.002361
 30
0.0
 10
150.453404
 20
189.896961
 30
0.0
 10
150.718622
 20
189.896961
 30
0.0
  0
LINE
  5
12a
100
AcDbEntity
  8
Layer_1
 62
1
100
AcDbLine
 10
225.918270
 20
189.896961
 30
0.0
 11
150.718384
 21
189.896961
 31
0.0
  0
SPLINE
  5
12b
100
AcDbEntity
  8
Layer_1
 62
1
100
AcDbSpline
 70
8
 71
3
 72
8
 73
4
 74
0
 40
0
 40
0
 40
0
 40
0
 40
1
 40
1
 40
1
 40
1
 10
226.918023
 20
208.996938
 30
0.0
 10
226.918023
 20
209.262138
 30
0.0
 10
226.812719
 20
209.516537
 30
0.0
 10
226.625209
 20
209.704036
 30
0.0
  0
SPLINE
  5
12c
100
AcDbEntity
  8
Layer_1
 62
1
100
AcDbSpline
 70
8
 71
3
 72
8
 73
4
 74
0
 40
0
 40
0
 40
0
 40
0
 40
1
 40
1
 40
1
 40
1
 10
226.625209
 20
209.704036
 30
0.0
 10
226.437620
 20
209.891536
 30
0.0
 10
226.183329
 20
209.996938
 30
0.0
 10
225.918032
 20
209.996938
 30
0.0
  0
LINE
  5
12d
100
AcDbEntity
  8
Layer_1
 62
1
100
AcDbLine
 10
150.718384
 20
209.996938
 30
0.0
 11
225.918270
 21
209.996938
 31
0.0
  0
SPLINE
  5
12e
100
AcDbEntity
  8
Layer_1
 62
1
100
AcDbSpline
 70
8
 71
3
 72
8
 73
4
 74
0
 40
0
 40
0
 40
0
 40
0
 40
1
 40
1
 40
1
 40
1
 10
150.718622
 20
209.996938
 30
0.0
 10
150.453404
 20
209.996938
 30
0.0
 10
150.199113
 20
209.891536
 30
0.0
 10
150.011524
 20
209.704036
 30
0.0
  0
SPLINE
  5
12f
100
AcDbEntity
  8
Layer_1
 62
1
100
AcDbSpline
 70
8
 71
3
 72
8
 73
4
 74
0
 40
0
 40
0
 40
0
 40
0
 40
1
 40
1
 40
1
 40
1
 10
150.011524
 20
209.704036
 30
0.0
 10
149.824014
 20
209.516537
 30
0.0
 10
149.718604
 20
209.262138
 30
0.0
 10
149.718604
 20
208.996938
 30
0.0
  0
LINE
  5
130
100
AcDbEntity
  8
Layer_1
 62
1
100
AcDbLine
 10
141.193023
 20
208.996938
 30
0.0
 11
141.193023
 21
190.896961
 31
0.0
  0
SPLINE
  5
131
100
AcDbEntity
  8
Layer_1
 62
1
100
AcDbSpline
 70
8
 71
3
 72
8
 73
4
 74
0
 40
0
 40
0
 40
0
 40
0
 40
1
 40
1
 40
1
 40
1
 10
140.193032
 20
189.896961
 30
0.0
 10
140.458329
 20
189.896961
 30
0.0
 10
140.712620
 20
190.002361
 30
0.0
 10
140.900209
 20
190.189860
 30
0.0
  0
SPLINE
  5
132
100
AcDbEntity
  8
Layer_1
 62
1
100
AcDbSpline
 70
8
 71
3
 72
8
 73
4
 74
0
 40
0
 40
0
 40
0
 40
0
 40
1
 40
1
 40
1
 40
1
 10
140.900209
 20
190.189860
 30
0.0
 10
141.087719
 20
190.377362
 30
0.0
 10
141.193023
 20
190.631761
 30
0.0
 10
141.193023
 20
190.896961
 30
0.0
  0
LINE
  5
133
100
AcDbEntity
  8
Layer_1
 62
1
100
AcDbLine
 10
63.993604
 20
190.896961
 30
0.0
 11
63.993604
 21
208.996938
 31
0.0
  0
SPLINE
  5
134
100
AcDbEntity
  8
Layer_1
 62
1
100
AcDbSpline
 70
8
 71
3
 72
8
 73
4
 74
0
 40
0
 40
0
 40
0
 40
0
 40
1
 40
1
 40
1
 40
1
 10
63.993604
 20
190.896961
 30
0.0
 10
63.993604
 20
190.631761
 30
0.0
 10
64.099014
 20
190.377362
 30
0.0
 10
64.286524
 20
190.189860
 30
0.0
  0
SPLINE
  5
135
100
AcDbEntity
  8
Layer_1
 62
1
100
AcDbSpline
 70
8
 71
3
 72
8
 73
4
 74
0
 40
0
 40
0
 40
0
 40
0
 40
1
 40
1
 40
1
 40
1
 10
64.286524
 20
190.189860
 30
0.0
 10
64.474113
 20
190.002361
 30
0.0
 10
64.728404
 20
189.896961
 30
0.0
 10
64.993622
 20
189.896961
 30
0.0
  0
LINE
  5
136
100
AcDbEntity
  8
Layer_1
 62
1
100
AcDbLine
 10
140.193270
 20
189.896961
 30
0.0
 11
64.993384
 21
189.896961
 31
0.0
  0
SPLINE
  5
137
100
AcDbEntity
  8
Layer_1
 62
1
100
AcDbSpline
 70
8
 71
3
 72
8
 73
4
 74
0
 40
0
 40
0
 40
0
 40
0
 40
1
 40
1
 40
1
 40
1
 10
141.193023
 20
208.996938
 30
0.0
 10
141.193023
 20
209.262138
 30
0.0
 10
141.087719
 20
209.516537
 30
0.0
 10
140.900209
 20
209.704036
 30
0.0
  0
SPLINE
  5
138
100
AcDbEntity
  8
Layer_1
 62
1
100
AcDbSpline
 70
8
 71
3
 72
8
 73
4
 74
0
 40
0
 40
0
 40
0
 40
0
 40
1
 40
1
 40
1
 40
1
 10
140.900209
 20
209.704036
 30
0.0
 10
140.712620
 20
209.891536
 30
0.0
 10
140.458329
 20
209.996938
 30
0.0
 10
140.193032
 20
209.996938
 30
0.0
  0
LINE
  5
139
100
AcDbEntity
  8
Layer_1
 62
1
100
AcDbLine
 10
64.993384
 20
209.996938
 30
0.0
 11
140.193270
 21
209.996938
 31
0.0
  0
SPLINE
  5
13a
100
AcDbEntity
  8
Layer_1
 62
1
100
AcDbSpline
 70
8
 71
3
 72
8
 73
4
 74
0
 40
0
 40
0
 40
0
 40
0
 40
1
 40
1
 40
1
 40
1
 10
64.993622
 20
209.996938
 30
0.0
 10
64.728404
 20
209.996938
 30
0.0
 10
64.474113
 20
209.891536
 30
0.0
 10
64.286524
 20
209.704036
 30
0.0
  0
SPLINE
  5
13b
100
AcDbEntity
  8
Layer_1
 62
1
100
AcDbSpline
 70
8
 71
3
 72
8
 73
4
 74
0
 40
0
 40
0
 40
0
 40
0
 40
1
 40
1
 40
1
 40
1
 10
64.286524
 20
209.704036
 30
0.0
 10
64.099014
 20
209.516537
 30
0.0
 10
63.993604
 20
209.262138
 30
0.0
 10
63.993604
 20
208.996938
 30
0.0
  0
LINE
  5
13c
100
AcDbEntity
  8
Layer_1
 62
1
100
AcDbLine
 10
30.672407
 20
104.197861
 30
0.0
 11
-25.527536
 21
104.197861
 31
0.0
  0
SPLINE
  5
13d
100
AcDbEntity
  8
Layer_1
 62
1
100
AcDbSpline
 70
8
 71
3
 72
8
 73
4
 74
0
 40
0
 40
0
 40
0
 40
0
 40
1
 40
1
 40
1
 40
1
 10
-26.527527
 20
105.197860
 30
0.0
 10
-26.527527
 20
104.932661
 30
0.0
 10
-26.422117
 20
104.678262
 30
0.0
 10
-26.234634
 20
104.490762
 30
0.0
  0
SPLINE
  5
13e
100
AcDbEntity
  8
Layer_1
 62
1
100
AcDbSpline
 70
8
 71
3
 72
8
 73
4
 74
0
 40
0
 40
0
 40
0
 40
0
 40
1
 40
1
 40
1
 40
1
 10
-26.234634
 20
104.490762
 30
0.0
 10
-26.047124
 20
104.303260
 30
0.0
 10
-25.792727
 20
104.197861
 30
0.0
 10
-25.527536
 20
104.197861
 30
0.0
  0
LINE
  5
13f
100
AcDbEntity
  8
Layer_1
 62
1
100
AcDbLine
 10
-26.527527
 20
105.197860
 30
0.0
 11
-26.527527
 21
122.247838
 31
0.0
  0
SPLINE
  5
140
100
AcDbEntity
  8
Layer_1
 62
1
100
AcDbSpline
 70
8
 71
3
 72
8
 73
4
 74
0
 40
0
 40
0
 40
0
 40
0
 40
1
 40
1
 40
1
 40
1
 10
-26.527527
 20
122.247838
 30
0.0
 10
-26.527527
 20
122.513037
 30
0.0
 10
-26.632937
 20
122.767439
 30
0.0
 10
-26.820421
 20
122.954938
 30
0.0
  0
SPLINE
  5
141
100
AcDbEntity
  8
Layer_1
 62
1
100
AcDbSpline
 70
8
 71
3
 72
8
 73
4
 74
0
 40
0
 40
0
 40
0
 40
0
 40
1
 40
1
 40
1
 40
1
 10
-26.820421
 20
122.954938
 30
0.0
 10
-27.007931
 20
123.142438
 30
0.0
 10
-27.262327
 20
123.247837
 30
0.0
 10
-27.527519
 20
123.247837
 30
0.0
  0
LINE
  5
142
100
AcDbEntity
  8
Layer_1
 62
1
100
AcDbLine
 10
-27.527519
 20
123.247837
 30
0.0
 11
-30.290030
 21
123.247837
 31
0.0
  0
SPLINE
  5
143
100
AcDbEntity
  8
Layer_1
 62
1
100
AcDbSpline
 70
8
 71
3
 72
8
 73
4
 74
0
 40
0
 40
0
 40
0
 40
0
 40
1
 40
1
 40
1
 40
1
 10
-31.290021
 20
124.247836
 30
0.0
 10
-31.290021
 20
123.982637
 30
0.0
 10
-31.184611
 20
123.728238
 30
0.0
 10
-30.997128
 20
123.540738
 30
0.0
  0
SPLINE
  5
144
100
AcDbEntity
  8
Layer_1
 62
1
100
AcDbSpline
 70
8
 71
3
 72
8
 73
4
 74
0
 40
0
 40
0
 40
0
 40
0
 40
1
 40
1
 40
1
 40
1
 10
-30.997128
 20
123.540738
 30
0.0
 10
-30.809618
 20
123.353236
 30
0.0
 10
-30.555221
 20
123.247837
 30
0.0
 10
-30.290030
 20
123.247837
 30
0.0
  0
LINE
  5
145
100
AcDbEntity
  8
Layer_1
 62
1
100
AcDbLine
 10
-31.290021
 20
124.247836
 30
0.0
 11
-31.290021
 21
180.447766
 31
0.0
  0
SPLINE
  5
146
100
AcDbEntity
  8
Layer_1
 62
1
100
AcDbSpline
 70
8
 71
3
 72
8
 73
4
 74
0
 40
0
 40
0
 40
0
 40
0
 40
1
 40
1
 40
1
 40
1
 10
-30.290030
 20
181.447765
 30
0.0
 10
-30.555221
 20
181.447765
 30
0.0
 10
-30.809618
 20
181.342363
 30
0.0
 10
-30.997128
 20
181.154864
 30
0.0
  0
SPLINE
  5
147
100
AcDbEntity
  8
Layer_1
 62
1
100
AcDbSpline
 70
8
 71
3
 72
8
 73
4
 74
0
 40
0
 40
0
 40
0
 40
0
 40
1
 40
1
 40
1
 40
1
 10
-30.997128
 20
181.154864
 30
0.0
 10
-31.184611
 20
180.967365
 30
0.0
 10
-31.290021
 20
180.712965
 30
0.0
 10
-31.290021
 20
180.447766
 30
0.0
  0
LINE
  5
148
100
AcDbEntity
  8
Layer_1
 62
1
100
AcDbLine
 10
-30.290030
 20
181.447765
 30
0.0
 11
83.059841
 21
181.447765
 31
0.0
  0
SPLINE
  5
149
100
AcDbEntity
  8
Layer_1
 62
1
100
AcDbSpline
 70
8
 71
3
 72
8
 73
4
 74
0
 40
0
 40
0
 40
0
 40
0
 40
1
 40
1
 40
1
 40
1
 10
84.059832
 20
180.447766
 30
0.0
 10
84.059832
 20
180.712965
 30
0.0
 10
83.954423
 20
180.967365
 30
0.0
 10
83.766939
 20
181.154864
 30
0.0
  0
SPLINE
  5
14a
100
AcDbEntity
  8
Layer_1
 62
1
100
AcDbSpline
 70
8
 71
3
 72
8
 73
4
 74
0
 40
0
 40
0
 40
0
 40
0
 40
1
 40
1
 40
1
 40
1
 10
83.766939
 20
181.154864
 30
0.0
 10
83.579429
 20
181.342363
 30
0.0
 10
83.325032
 20
181.447765
 30
0.0
 10
83.059841
 20
181.447765
 30
0.0
  0
LINE
  5
14b
100
AcDbEntity
  8
Layer_1
 62
1
100
AcDbLine
 10
84.059832
 20
180.447766
 30
0.0
 11
84.059832
 21
163.397786
 31
0.0
  0
SPLINE
  5
14c
100
AcDbEntity
  8
Layer_1
 62
1
100
AcDbSpline
 70
8
 71
3
 72
8
 73
4
 74
0
 40
0
 40
0
 40
0
 40
0
 40
1
 40
1
 40
1
 40
1
 10
84.059832
 20
163.397786
 30
0.0
 10
84.059832
 20
163.132587
 30
0.0
 10
84.165242
 20
162.878187
 30
0.0
 10
84.352726
 20
162.690688
 30
0.0
  0
SPLINE
  5
14d
100
AcDbEntity
  8
Layer_1
 62
1
100
AcDbSpline
 70
8
 71
3
 72
8
 73
4
 74
0
 40
0
 40
0
 40
0
 40
0
 40
1
 40
1
 40
1
 40
1
 10
84.352726
 20
162.690688
 30
0.0
 10
84.540236
 20
162.503189
 30
0.0
 10
84.794632
 20
162.397789
 30
0.0
 10
85.059824
 20
162.397789
 30
0.0
  0
LINE
  5
14e
100
AcDbEntity
  8
Layer_1
 62
1
100
AcDbLine
 10
85.059824
 20
162.397789
 30
0.0
 11
87.822335
 21
162.397789
 31
0.0
  0
SPLINE
  5
14f
100
AcDbEntity
  8
Layer_1
 62
1
100
AcDbSpline
 70
8
 71
3
 72
8
 73
4
 74
0
 40
0
 40
0
 40
0
 40
0
 40
1
 40
1
 40
1
 40
1
 10
88.822326
 20
161.397790
 30
0.0
 10
88.822326
 20
161.662989
 30
0.0
 10
88.716917
 20
161.917389
 30
0.0
 10
88.529433
 20
162.104888
 30
0.0
  0
SPLINE
  5
150
100
AcDbEntity
  8
Layer_1
 62
1
100
AcDbSpline
 70
8
 71
3
 72
8
 73
4
 74
0
 40
0
 40
0
 40
0
 40
0
 40
1
 40
1
 40
1
 40
1
 10
88.529433
 20
162.104888
 30
0.0
 10
88.341923
 20
162.292387
 30
0.0
 10
88.087526
 20
162.397789
 30
0.0
 10
87.822335
 20
162.397789
 30
0.0
  0
LINE
  5
151
100
AcDbEntity
  8
Layer_1
 62
1
100
AcDbLine
 10
88.822326
 20
161.397790
 30
0.0
 11
88.822326
 21
144.347810
 31
0.0
  0
SPLINE
  5
152
100
AcDbEntity
  8
Layer_1
 62
1
100
AcDbSpline
 70
8
 71
3
 72
8
 73
4
 74
0
 40
0
 40
0
 40
0
 40
0
 40
1
 40
1
 40
1
 40
1
 10
88.822326
 20
144.347810
 30
0.0
 10
88.822326
 20
144.082611
 30
0.0
 10
88.927736
 20
143.828211
 30
0.0
 10
89.115220
 20
143.640712
 30
0.0
  0
SPLINE
  5
153
100
AcDbEntity
  8
Layer_1
 62
1
100
AcDbSpline
 70
8
 71
3
 72
8
 73
4
 74
0
 40
0
 40
0
 40
0
 40
0
 40
1
 40
1
 40
1
 40
1
 10
89.115220
 20
143.640712
 30
0.0
 10
89.302730
 20
143.453213
 30
0.0
 10
89.557126
 20
143.347813
 30
0.0
 10
89.822318
 20
143.347813
 30
0.0
  0
LINE
  5
154
100
AcDbEntity
  8
Layer_1
 62
1
100
AcDbLine
 10
89.822318
 20
143.347813
 30
0.0
 11
97.347323
 21
143.347813
 31
0.0
  0
SPLINE
  5
155
100
AcDbEntity
  8
Layer_1
 62
1
100
AcDbSpline
 70
8
 71
3
 72
8
 73
4
 74
0
 40
0
 40
0
 40
0
 40
0
 40
1
 40
1
 40
1
 40
1
 10
98.347314
 20
142.347814
 30
0.0
 10
98.347314
 20
142.613013
 30
0.0
 10
98.241905
 20
142.867413
 30
0.0
 10
98.054421
 20
143.054912
 30
0.0
  0
SPLINE
  5
156
100
AcDbEntity
  8
Layer_1
 62
1
100
AcDbSpline
 70
8
 71
3
 72
8
 73
4
 74
0
 40
0
 40
0
 40
0
 40
0
 40
1
 40
1
 40
1
 40
1
 10
98.054421
 20
143.054912
 30
0.0
 10
97.866911
 20
143.242411
 30
0.0
 10
97.612514
 20
143.347813
 30
0.0
 10
97.347323
 20
143.347813
 30
0.0
  0
LINE
  5
157
100
AcDbEntity
  8
Layer_1
 62
1
100
AcDbLine
 10
98.347314
 20
142.347814
 30
0.0
 11
98.347314
 21
124.247836
 31
0.0
  0
SPLINE
  5
158
100
AcDbEntity
  8
Layer_1
 62
1
100
AcDbSpline
 70
8
 71
3
 72
8
 73
4
 74
0
 40
0
 40
0
 40
0
 40
0
 40
1
 40
1
 40
1
 40
1
 10
97.347323
 20
123.247837
 30
0.0
 10
97.612514
 20
123.247837
 30
0.0
 10
97.866911
 20
123.353236
 30
0.0
 10
98.054421
 20
123.540738
 30
0.0
  0
SPLINE
  5
159
100
AcDbEntity
  8
Layer_1
 62
1
100
AcDbSpline
 70
8
 71
3
 72
8
 73
4
 74
0
 40
0
 40
0
 40
0
 40
0
 40
1
 40
1
 40
1
 40
1
 10
98.054421
 20
123.540738
 30
0.0
 10
98.241905
 20
123.728238
 30
0.0
 10
98.347314
 20
123.982637
 30
0.0
 10
98.347314
 20
124.247836
 30
0.0
  0
LINE
  5
15a
100
AcDbEntity
  8
Layer_1
 62
1
100
AcDbLine
 10
97.347323
 20
123.247837
 30
0.0
 11
32.672390
 21
123.247837
 31
0.0
  0
SPLINE
  5
15b
100
AcDbEntity
  8
Layer_1
 62
1
100
AcDbSpline
 70
8
 71
3
 72
8
 73
4
 74
0
 40
0
 40
0
 40
0
 40
0
 40
1
 40
1
 40
1
 40
1
 10
32.672390
 20
123.247837
 30
0.0
 10
32.407198
 20
123.247837
 30
0.0
 10
32.152802
 20
123.142438
 30
0.0
 10
31.965292
 20
122.954938
 30
0.0
  0
SPLINE
  5
15c
100
AcDbEntity
  8
Layer_1
 62
1
100
AcDbSpline
 70
8
 71
3
 72
8
 73
4
 74
0
 40
0
 40
0
 40
0
 40
0
 40
1
 40
1
 40
1
 40
1
 10
31.965292
 20
122.954938
 30
0.0
 10
31.777808
 20
122.767439
 30
0.0
 10
31.672398
 20
122.513037
 30
0.0
 10
31.672398
 20
122.247838
 30
0.0
  0
LINE
  5
15d
100
AcDbEntity
  8
Layer_1
 62
1
100
AcDbLine
 10
31.672398
 20
122.247838
 30
0.0
 11
31.672398
 21
105.197860
 31
0.0
  0
SPLINE
  5
15e
100
AcDbEntity
  8
Layer_1
 62
1
100
AcDbSpline
 70
8
 71
3
 72
8
 73
4
 74
0
 40
0
 40
0
 40
0
 40
0
 40
1
 40
1
 40
1
 40
1
 10
30.672407
 20
104.197861
 30
0.0
 10
30.937598
 20
104.197861
 30
0.0
 10
31.191995
 20
104.303260
 30
0.0
 10
31.379505
 20
104.490762
 30
0.0
  0
SPLINE
  5
15f
100
AcDbEntity
  8
Layer_1
 62
1
100
AcDbSpline
 70
8
 71
3
 72
8
 73
4
 74
0
 40
0
 40
0
 40
0
 40
0
 40
1
 40
1
 40
1
 40
1
 10
31.379505
 20
104.490762
 30
0.0
 10
31.566989
 20
104.678262
 30
0.0
 10
31.672398
 20
104.932661
 30
0.0
 10
31.672398
 20
105.197860
 30
0.0
  0
LINE
  5
160
100
AcDbEntity
  8
Layer_1
 62
1
100
AcDbLine
 10
103.059802
 20
181.447765
 30
0.0
 11
235.459649
 21
181.447765
 31
0.0
  0
SPLINE
  5
161
100
AcDbEntity
  8
Layer_1
 62
1
100
AcDbSpline
 70
8
 71
3
 72
8
 73
4
 74
0
 40
0
 40
0
 40
0
 40
0
 40
1
 40
1
 40
1
 40
1
 10
236.459640
 20
180.447766
 30
0.0
 10
236.459640
 20
180.712965
 30
0.0
 10
236.354231
 20
180.967365
 30
0.0
 10
236.166747
 20
181.154864
 30
0.0
  0
SPLINE
  5
162
100
AcDbEntity
  8
Layer_1
 62
1
100
AcDbSpline
 70
8
 71
3
 72
8
 73
4
 74
0
 40
0
 40
0
 40
0
 40
0
 40
1
 40
1
 40
1
 40
1
 10
236.166747
 20
181.154864
 30
0.0
 10
235.979237
 20
181.342363
 30
0.0
 10
235.724840
 20
181.447765
 30
0.0
 10
235.459649
 20
181.447765
 30
0.0
  0
LINE
  5
163
100
AcDbEntity
  8
Layer_1
 62
1
100
AcDbLine
 10
236.459640
 20
180.447766
 30
0.0
 11
236.459640
 21
124.247836
 31
0.0
  0
SPLINE
  5
164
100
AcDbEntity
  8
Layer_1
 62
1
100
AcDbSpline
 70
8
 71
3
 72
8
 73
4
 74
0
 40
0
 40
0
 40
0
 40
0
 40
1
 40
1
 40
1
 40
1
 10
235.459649
 20
123.247837
 30
0.0
 10
235.724840
 20
123.247837
 30
0.0
 10
235.979237
 20
123.353236
 30
0.0
 10
236.166747
 20
123.540738
 30
0.0
  0
SPLINE
  5
165
100
AcDbEntity
  8
Layer_1
 62
1
100
AcDbSpline
 70
8
 71
3
 72
8
 73
4
 74
0
 40
0
 40
0
 40
0
 40
0
 40
1
 40
1
 40
1
 40
1
 10
236.166747
 20
123.540738
 30
0.0
 10
236.354231
 20
123.728238
 30
0.0
 10
236.459640
 20
123.982637
 30
0.0
 10
236.459640
 20
124.247836
 30
0.0
  0
LINE
  5
166
100
AcDbEntity
  8
Layer_1
 62
1
100
AcDbLine
 10
235.459649
 20
123.247837
 30
0.0
 11
232.697138
 21
123.247837
 31
0.0
  0
SPLINE
  5
167
100
AcDbEntity
  8
Layer_1
 62
1
100
AcDbSpline
 70
8
 71
3
 72
8
 73
4
 74
0
 40
0
 40
0
 40
0
 40
0
 40
1
 40
1
 40
1
 40
1
 10
232.697138
 20
123.247837
 30
0.0
 10
232.431946
 20
123.247837
 30
0.0
 10
232.177550
 20
123.142438
 30
0.0
 10
231.990040
 20
122.954938
 30
0.0
  0
SPLINE
  5
168
100
AcDbEntity
  8
Layer_1
 62
1
100
AcDbSpline
 70
8
 71
3
 72
8
 73
4
 74
0
 40
0
 40
0
 40
0
 40
0
 40
1
 40
1
 40
1
 40
1
 10
231.990040
 20
122.954938
 30
0.0
 10
231.802556
 20
122.767439
 30
0.0
 10
231.697146
 20
122.513037
 30
0.0
 10
231.697146
 20
122.247838
 30
0.0
  0
LINE
  5
169
100
AcDbEntity
  8
Layer_1
 62
1
100
AcDbLine
 10
231.697146
 20
122.247838
 30
0.0
 11
231.697146
 21
105.197860
 31
0.0
  0
SPLINE
  5
16a
100
AcDbEntity
  8
Layer_1
 62
1
100
AcDbSpline
 70
8
 71
3
 72
8
 73
4
 74
0
 40
0
 40
0
 40
0
 40
0
 40
1
 40
1
 40
1
 40
1
 10
230.697155
 20
104.197861
 30
0.0
 10
230.962346
 20
104.197861
 30
0.0
 10
231.216743
 20
104.303260
 30
0.0
 10
231.404253
 20
104.490762
 30
0.0
  0
SPLINE
  5
16b
100
AcDbEntity
  8
Layer_1
 62
1
100
AcDbSpline
 70
8
 71
3
 72
8
 73
4
 74
0
 40
0
 40
0
 40
0
 40
0
 40
1
 40
1
 40
1
 40
1
 10
231.404253
 20
104.490762
 30
0.0
 10
231.591737
 20
104.678262
 30
0.0
 10
231.697146
 20
104.932661
 30
0.0
 10
231.697146
 20
105.197860
 30
0.0
  0
LINE
  5
16c
100
AcDbEntity
  8
Layer_1
 62
1
100
AcDbLine
 10
230.697155
 20
104.197861
 30
0.0
 11
174.497212
 21
104.197861
 31
0.0
  0
SPLINE
  5
16d
100
AcDbEntity
  8
Layer_1
 62
1
100
AcDbSpline
 70
8
 71
3
 72
8
 73
4
 74
0
 40
0
 40
0
 40
0
 40
0
 40
1
 40
1
 40
1
 40
1
 10
173.497221
 20
105.197860
 30
0.0
 10
173.497221
 20
104.932661
 30
0.0
 10
173.602631
 20
104.678262
 30
0.0
 10
173.790114
 20
104.490762
 30
0.0
  0
SPLINE
  5
16e
100
AcDbEntity
  8
Layer_1
 62
1
100
AcDbSpline
 70
8
 71
3
 72
8
 73
4
 74
0
 40
0
 40
0
 40
0
 40
0
 40
1
 40
1
 40
1
 40
1
 10
173.790114
 20
104.490762
 30
0.0
 10
173.977624
 20
104.303260
 30
0.0
 10
174.232021
 20
104.197861
 30
0.0
 10
174.497212
 20
104.197861
 30
0.0
  0
LINE
  5
16f
100
AcDbEntity
  8
Layer_1
 62
1
100
AcDbLine
 10
173.497221
 20
105.197860
 30
0.0
 11
173.497221
 21
122.247838
 31
0.0
  0
SPLINE
  5
170
100
AcDbEntity
  8
Layer_1
 62
1
100
AcDbSpline
 70
8
 71
3
 72
8
 73
4
 74
0
 40
0
 40
0
 40
0
 40
0
 40
1
 40
1
 40
1
 40
1
 10
173.497221
 20
122.247838
 30
0.0
 10
173.497221
 20
122.513037
 30
0.0
 10
173.391811
 20
122.767439
 30
0.0
 10
173.204327
 20
122.954938
 30
0.0
  0
SPLINE
  5
171
100
AcDbEntity
  8
Layer_1
 62
1
100
AcDbSpline
 70
8
 71
3
 72
8
 73
4
 74
0
 40
0
 40
0
 40
0
 40
0
 40
1
 40
1
 40
1
 40
1
 10
173.204327
 20
122.954938
 30
0.0
 10
173.016817
 20
123.142438
 30
0.0
 10
172.762421
 20
123.247837
 30
0.0
 10
172.497229
 20
123.247837
 30
0.0
  0
LINE
  5
172
100
AcDbEntity
  8
Layer_1
 62
1
100
AcDbLine
 10
172.497229
 20
123.247837
 30
0.0
 11
117.347284
 21
123.247837
 31
0.0
  0
SPLINE
  5
173
100
AcDbEntity
  8
Layer_1
 62
1
100
AcDbSpline
 70
8
 71
3
 72
8
 73
4
 74
0
 40
0
 40
0
 40
0
 40
0
 40
1
 40
1
 40
1
 40
1
 10
116.347293
 20
124.247836
 30
0.0
 10
116.347293
 20
123.982637
 30
0.0
 10
116.452703
 20
123.728238
 30
0.0
 10
116.640186
 20
123.540738
 30
0.0
  0
SPLINE
  5
174
100
AcDbEntity
  8
Layer_1
 62
1
100
AcDbSpline
 70
8
 71
3
 72
8
 73
4
 74
0
 40
0
 40
0
 40
0
 40
0
 40
1
 40
1
 40
1
 40
1
 10
116.640186
 20
123.540738
 30
0.0
 10
116.827696
 20
123.353236
 30
0.0
 10
117.082093
 20
123.247837
 30
0.0
 10
117.347284
 20
123.247837
 30
0.0
  0
LINE
  5
175
100
AcDbEntity
  8
Layer_1
 62
1
100
AcDbLine
 10
116.347293
 20
124.247836
 30
0.0
 11
116.347293
 21
141.297814
 31
0.0
  0
SPLINE
  5
176
100
AcDbEntity
  8
Layer_1
 62
1
100
AcDbSpline
 70
8
 71
3
 72
8
 73
4
 74
0
 40
0
 40
0
 40
0
 40
0
 40
1
 40
1
 40
1
 40
1
 10
116.347293
 20
141.297814
 30
0.0
 10
116.347293
 20
141.563016
 30
0.0
 10
116.241883
 20
141.817415
 30
0.0
 10
116.054399
 20
142.004914
 30
0.0
  0
SPLINE
  5
177
100
AcDbEntity
  8
Layer_1
 62
1
100
AcDbSpline
 70
8
 71
3
 72
8
 73
4
 74
0
 40
0
 40
0
 40
0
 40
0
 40
1
 40
1
 40
1
 40
1
 10
116.054399
 20
142.004914
 30
0.0
 10
115.866889
 20
142.192414
 30
0.0
 10
115.612493
 20
142.297813
 30
0.0
 10
115.347301
 20
142.297813
 30
0.0
  0
LINE
  5
178
100
AcDbEntity
  8
Layer_1
 62
1
100
AcDbLine
 10
115.347301
 20
142.297813
 30
0.0
 11
107.822296
 21
142.297813
 31
0.0
  0
SPLINE
  5
179
100
AcDbEntity
  8
Layer_1
 62
1
100
AcDbSpline
 70
8
 71
3
 72
8
 73
4
 74
0
 40
0
 40
0
 40
0
 40
0
 40
1
 40
1
 40
1
 40
1
 10
106.822305
 20
143.297812
 30
0.0
 10
106.822305
 20
143.032613
 30
0.0
 10
106.927715
 20
142.778214
 30
0.0
 10
107.115198
 20
142.590714
 30
0.0
  0
SPLINE
  5
17a
100
AcDbEntity
  8
Layer_1
 62
1
100
AcDbSpline
 70
8
 71
3
 72
8
 73
4
 74
0
 40
0
 40
0
 40
0
 40
0
 40
1
 40
1
 40
1
 40
1
 10
107.115198
 20
142.590714
 30
0.0
 10
107.302708
 20
142.403212
 30
0.0
 10
107.557105
 20
142.297813
 30
0.0
 10
107.822296
 20
142.297813
 30
0.0
  0
LINE
  5
17b
100
AcDbEntity
  8
Layer_1
 62
1
100
AcDbLine
 10
106.822305
 20
143.297812
 30
0.0
 11
106.822305
 21
160.347790
 31
0.0
  0
SPLINE
  5
17c
100
AcDbEntity
  8
Layer_1
 62
1
100
AcDbSpline
 70
8
 71
3
 72
8
 73
4
 74
0
 40
0
 40
0
 40
0
 40
0
 40
1
 40
1
 40
1
 40
1
 10
106.822305
 20
160.347790
 30
0.0
 10
106.822305
 20
160.612992
 30
0.0
 10
106.716895
 20
160.867391
 30
0.0
 10
106.529411
 20
161.054890
 30
0.0
  0
SPLINE
  5
17d
100
AcDbEntity
  8
Layer_1
 62
1
100
AcDbSpline
 70
8
 71
3
 72
8
 73
4
 74
0
 40
0
 40
0
 40
0
 40
0
 40
1
 40
1
 40
1
 40
1
 10
106.529411
 20
161.054890
 30
0.0
 10
106.341901
 20
161.242390
 30
0.0
 10
106.087505
 20
161.347789
 30
0.0
 10
105.822313
 20
161.347789
 30
0.0
  0
LINE
  5
17e
100
AcDbEntity
  8
Layer_1
 62
1
100
AcDbLine
 10
105.822313
 20
161.347789
 30
0.0
 11
103.059802
 21
161.347789
 31
0.0
  0
SPLINE
  5
17f
100
AcDbEntity
  8
Layer_1
 62
1
100
AcDbSpline
 70
8
 71
3
 72
8
 73
4
 74
0
 40
0
 40
0
 40
0
 40
0
 40
1
 40
1
 40
1
 40
1
 10
102.059811
 20
162.347788
 30
0.0
 10
102.059811
 20
162.082589
 30
0.0
 10
102.165221
 20
161.828190
 30
0.0
 10
102.352704
 20
161.640690
 30
0.0
  0
SPLINE
  5
180
100
AcDbEntity
  8
Layer_1
 62
1
100
AcDbSpline
 70
8
 71
3
 72
8
 73
4
 74
0
 40
0
 40
0
 40
0
 40
0
 40
1
 40
1
 40
1
 40
1
 10
102.352704
 20
161.640690
 30
0.0
 10
102.540214
 20
161.453188
 30
0.0
 10
102.794611
 20
161.347789
 30
0.0
 10
103.059802
 20
161.347789
 30
0.0
  0
LINE
  5
181
100
AcDbEntity
  8
Layer_1
 62
1
100
AcDbLine
 10
102.059811
 20
162.347788
 30
0.0
 11
102.059811
 21
180.447766
 31
0.0
  0
SPLINE
  5
182
100
AcDbEntity
  8
Layer_1
 62
1
100
AcDbSpline
 70
8
 71
3
 72
8
 73
4
 74
0
 40
0
 40
0
 40
0
 40
0
 40
1
 40
1
 40
1
 40
1
 10
103.059802
 20
181.447765
 30
0.0
 10
102.794611
 20
181.447765
 30
0.0
 10
102.540214
 20
181.342363
 30
0.0
 10
102.352704
 20
181.154864
 30
0.0
  0
SPLINE
  5
183
100
AcDbEntity
  8
Layer_1
 62
1
100
AcDbSpline
 70
8
 71
3
 72
8
 73
4
 74
0
 40
0
 40
0
 40
0
 40
0
 40
1
 40
1
 40
1
 40
1
 10
102.352704
 20
181.154864
 30
0.0
 10
102.165221
 20
180.967365
 30
0.0
 10
102.059811
 20
180.712965
 30
0.0
 10
102.059811
 20
180.447766
 30
0.0
  0
SPLINE
  5
184
100
AcDbEntity
  8
Layer_1
 62
1
100
AcDbSpline
 70
8
 71
3
 72
8
 73
4
 74
0
 40
0
 40
0
 40
0
 40
0
 40
1
 40
1
 40
1
 40
1
 10
103.580306
 20
214.032732
 30
0.0
 10
103.580306
 20
214.557432
 30
0.0
 10
103.154988
 20
214.982731
 30
0.0
 10
102.630294
 20
214.982731
 30
0.0
  0
SPLINE
  5
185
100
AcDbEntity
  8
Layer_1
 62
1
100
AcDbSpline
 70
8
 71
3
 72
8
 73
4
 74
0
 40
0
 40
0
 40
0
 40
0
 40
1
 40
1
 40
1
 40
1
 10
102.630294
 20
214.982731
 30
0.0
 10
102.105599
 20
214.982731
 30
0.0
 10
101.680309
 20
214.557432
 30
0.0
 10
101.680309
 20
214.032732
 30
0.0
  0
SPLINE
  5
186
100
AcDbEntity
  8
Layer_1
 62
1
100
AcDbSpline
 70
8
 71
3
 72
8
 73
4
 74
0
 40
0
 40
0
 40
0
 40
0
 40
1
 40
1
 40
1
 40
1
 10
101.680309
 20
214.032732
 30
0.0
 10
101.680309
 20
213.508032
 30
0.0
 10
102.105599
 20
213.082734
 30
0.0
 10
102.630294
 20
213.082734
 30
0.0
  0
SPLINE
  5
187
100
AcDbEntity
  8
Layer_1
 62
1
100
AcDbSpline
 70
8
 71
3
 72
8
 73
4
 74
0
 40
0
 40
0
 40
0
 40
0
 40
1
 40
1
 40
1
 40
1
 10
102.630294
 20
213.082734
 30
0.0
 10
103.154988
 20
213.082734
 30
0.0
 10
103.580306
 20
213.508032
 30
0.0
 10
103.580306
 20
214.032732
 30
0.0
  0
LINE
  5
188
100
AcDbEntity
  8
Layer_1
 62
1
100
AcDbLine
 10
103.580306
 20
214.032732
 30
0.0
 11
103.580306
 21
214.032732
 31
0.0
  0
SPLINE
  5
189
100
AcDbEntity
  8
Layer_1
 62
1
100
AcDbSpline
 70
8
 71
3
 72
8
 73
4
 74
0
 40
0
 40
0
 40
0
 40
0
 40
1
 40
1
 40
1
 40
1
 10
241.455123
 20
98.207878
 30
0.0
 10
241.455123
 20
98.732578
 30
0.0
 10
241.029822
 20
99.157876
 30
0.0
 10
240.505125
 20
99.157876
 30
0.0
  0
SPLINE
  5
18a
100
AcDbEntity
  8
Layer_1
 62
1
100
AcDbSpline
 70
8
 71
3
 72
8
 73
4
 74
0
 40
0
 40
0
 40
0
 40
0
 40
1
 40
1
 40
1
 40
1
 10
240.505125
 20
99.157876
 30
0.0
 10
239.980425
 20
99.157876
 30
0.0
 10
239.555126
 20
98.732578
 30
0.0
 10
239.555126
 20
98.207878
 30
0.0
  0
SPLINE
  5
18b
100
AcDbEntity
  8
Layer_1
 62
1
100
AcDbSpline
 70
8
 71
3
 72
8
 73
4
 74
0
 40
0
 40
0
 40
0
 40
0
 40
1
 40
1
 40
1
 40
1
 10
239.555126
 20
98.207878
 30
0.0
 10
239.555126
 20
97.683178
 30
0.0
 10
239.980425
 20
97.257879
 30
0.0
 10
240.505125
 20
97.257879
 30
0.0
  0
SPLINE
  5
18c
100
AcDbEntity
  8
Layer_1
 62
1
100
AcDbSpline
 70
8
 71
3
 72
8
 73
4
 74
0
 40
0
 40
0
 40
0
 40
0
 40
1
 40
1
 40
1
 40
1
 10
240.505125
 20
97.257879
 30
0.0
 10
241.029822
 20
97.257879
 30
0.0
 10
241.455123
 20
97.683178
 30
0.0
 10
241.455123
 20
98.207878
 30
0.0
  0
LINE
  5
18d
100
AcDbEntity
  8
Layer_1
 62
1
100
AcDbLine
 10
241.455123
 20
98.207878
 30
0.0
 11
241.455123
 21
98.207878
 31
0.0
  0
SPLINE
  5
18e
100
AcDbEntity
  8
Layer_1
 62
1
100
AcDbSpline
 70
8
 71
3
 72
8
 73
4
 74
0
 40
0
 40
0
 40
0
 40
0
 40
1
 40
1
 40
1
 40
1
 10
-34.294531
 20
98.207878
 30
0.0
 10
-34.294531
 20
98.732578
 30
0.0
 10
-34.719821
 20
99.157876
 30
0.0
 10
-35.244516
 20
99.157876
 30
0.0
  0
SPLINE
  5
18f
100
AcDbEntity
  8
Layer_1
 62
1
100
AcDbSpline
 70
8
 71
3
 72
8
 73
4
 74
0
 40
0
 40
0
 40
0
 40
0
 40
1
 40
1
 40
1
 40
1
 10
-35.244516
 20
99.157876
 30
0.0
 10
-35.769237
 20
99.157876
 30
0.0
 10
-36.194528
 20
98.732578
 30
0.0
 10
-36.194528
 20
98.207878
 30
0.0
  0
SPLINE
  5
190
100
AcDbEntity
  8
Layer_1
 62
1
100
AcDbSpline
 70
8
 71
3
 72
8
 73
4
 74
0
 40
0
 40
0
 40
0
 40
0
 40
1
 40
1
 40
1
 40
1
 10
-36.194528
 20
98.207878
 30
0.0
 10
-36.194528
 20
97.683178
 30
0.0
 10
-35.769237
 20
97.257879
 30
0.0
 10
-35.244516
 20
97.257879
 30
0.0
  0
SPLINE
  5
191
100
AcDbEntity
  8
Layer_1
 62
1
100
AcDbSpline
 70
8
 71
3
 72
8
 73
4
 74
0
 40
0
 40
0
 40
0
 40
0
 40
1
 40
1
 40
1
 40
1
 10
-35.244516
 20
97.257879
 30
0.0
 10
-34.719821
 20
97.257879
 30
0.0
 10
-34.294531
 20
97.683178
 30
0.0
 10
-34.294531
 20
98.207878
 30
0.0
  0
LINE
  5
192
100
AcDbEntity
  8
Layer_1
 62
1
100
AcDbLine
 10
-34.294531
 20
98.207878
 30
0.0
 11
-34.294531
 21
98.207878
 31
0.0
  0
SPLINE
  5
193
100
AcDbEntity
  8
Layer_1
 62
1
100
AcDbSpline
 70
8
 71
3
 72
8
 73
4
 74
0
 40
0
 40
0
 40
0
 40
0
 40
1
 40
1
 40
1
 40
1
 10
241.455123
 20
214.032732
 30
0.0
 10
241.455123
 20
214.557432
 30
0.0
 10
241.029822
 20
214.982731
 30
0.0
 10
240.505125
 20
214.982731
 30
0.0
  0
SPLINE
  5
194
100
AcDbEntity
  8
Layer_1
 62
1
100
AcDbSpline
 70
8
 71
3
 72
8
 73
4
 74
0
 40
0
 40
0
 40
0
 40
0
 40
1
 40
1
 40
1
 40
1
 10
240.505125
 20
214.982731
 30
0.0
 10
239.980425
 20
214.982731
 30
0.0
 10
239.555126
 20
214.557432
 30
0.0
 10
239.555126
 20
214.032732
 30
0.0
  0
SPLINE
  5
195
100
AcDbEntity
  8
Layer_1
 62
1
100
AcDbSpline
 70
8
 71
3
 72
8
 73
4
 74
0
 40
0
 40
0
 40
0
 40
0
 40
1
 40
1
 40
1
 40
1
 10
239.555126
 20
214.032732
 30
0.0
 10
239.555126
 20
213.508032
 30
0.0
 10
239.980425
 20
213.082734
 30
0.0
 10
240.505125
 20
213.082734
 30
0.0
  0
SPLINE
  5
196
100
AcDbEntity
  8
Layer_1
 62
1
100
AcDbSpline
 70
8
 71
3
 72
8
 73
4
 74
0
 40
0
 40
0
 40
0
 40
0
 40
1
 40
1
 40
1
 40
1
 10
240.505125
 20
213.082734
 30
0.0
 10
241.029822
 20
213.082734
 30
0.0
 10
241.455123
 20
213.508032
 30
0.0
 10
241.455123
 20
214.032732
 30
0.0
  0
LINE
  5
197
100
AcDbEntity
  8
Layer_1
 62
1
100
AcDbLine
 10
241.455123
 20
214.032732
 30
0.0
 11
241.455123
 21
214.032732
 31
0.0
  0
SPLINE
  5
198
100
AcDbEntity
  8
Layer_1
 62
1
100
AcDbSpline
 70
8
 71
3
 72
8
 73
4
 74
0
 40
0
 40
0
 40
0
 40
0
 40
1
 40
1
 40
1
 40
1
 10
-34.294531
 20
214.032732
 30
0.0
 10
-34.294531
 20
214.557432
 30
0.0
 10
-34.719821
 20
214.982731
 30
0.0
 10
-35.244516
 20
214.982731
 30
0.0
  0
SPLINE
  5
199
100
AcDbEntity
  8
Layer_1
 62
1
100
AcDbSpline
 70
8
 71
3
 72
8
 73
4
 74
0
 40
0
 40
0
 40
0
 40
0
 40
1
 40
1
 40
1
 40
1
 10
-35.244516
 20
214.982731
 30
0.0
 10
-35.769237
 20
214.982731
 30
0.0
 10
-36.194528
 20
214.557432
 30
0.0
 10
-36.194528
 20
214.032732
 30
0.0
  0
SPLINE
  5
19a
100
AcDbEntity
  8
Layer_1
 62
1
100
AcDbSpline
 70
8
 71
3
 72
8
 73
4
 74
0
 40
0
 40
0
 40
0
 40
0
 40
1
 40
1
 40
1
 40
1
 10
-36.194528
 20
214.032732
 30
0.0
 10
-36.194528
 20
213.508032
 30
0.0
 10
-35.769237
 20
213.082734
 30
0.0
 10
-35.244516
 20
213.082734
 30
0.0
  0
SPLINE
  5
19b
100
AcDbEntity
  8
Layer_1
 62
1
100
AcDbSpline
 70
8
 71
3
 72
8
 73
4
 74
0
 40
0
 40
0
 40
0
 40
0
 40
1
 40
1
 40
1
 40
1
 10
-35.244516
 20
213.082734
 30
0.0
 10
-34.719821
 20
213.082734
 30
0.0
 10
-34.294531
 20
213.508032
 30
0.0
 10
-34.294531
 20
214.032732
 30
0.0
  0
LINE
  5
19c
100
AcDbEntity
  8
Layer_1
 62
1
100
AcDbLine
 10
-34.294531
 20
214.032732
 30
0.0
 11
-34.294531
 21
214.032732
 31
0.0
  0
SPLINE
  5
19d
100
AcDbEntity
  8
Layer_1
 62
1
100
AcDbSpline
 70
8
 71
3
 72
8
 73
4
 74
0
 40
0
 40
0
 40
0
 40
0
 40
1
 40
1
 40
1
 40
1
 10
32.855074
 20
98.207878
 30
0.0
 10
32.855074
 20
98.732578
 30
0.0
 10
32.429783
 20
99.157876
 30
0.0
 10
31.905088
 20
99.157876
 30
0.0
  0
SPLINE
  5
19e
100
AcDbEntity
  8
Layer_1
 62
1
100
AcDbSpline
 70
8
 71
3
 72
8
 73
4
 74
0
 40
0
 40
0
 40
0
 40
0
 40
1
 40
1
 40
1
 40
1
 10
31.905088
 20
99.157876
 30
0.0
 10
31.380500
 20
99.157876
 30
0.0
 10
30.955077
 20
98.732578
 30
0.0
 10
30.955077
 20
98.207878
 30
0.0
  0
SPLINE
  5
19f
100
AcDbEntity
  8
Layer_1
 62
1
100
AcDbSpline
 70
8
 71
3
 72
8
 73
4
 74
0
 40
0
 40
0
 40
0
 40
0
 40
1
 40
1
 40
1
 40
1
 10
30.955077
 20
98.207878
 30
0.0
 10
30.955077
 20
97.683178
 30
0.0
 10
31.380500
 20
97.257879
 30
0.0
 10
31.905088
 20
97.257879
 30
0.0
  0
SPLINE
  5
1a0
100
AcDbEntity
  8
Layer_1
 62
1
100
AcDbSpline
 70
8
 71
3
 72
8
 73
4
 74
0
 40
0
 40
0
 40
0
 40
0
 40
1
 40
1
 40
1
 40
1
 10
31.905088
 20
97.257879
 30
0.0
 10
32.429783
 20
97.257879
 30
0.0
 10
32.855074
 20
97.683178
 30
0.0
 10
32.855074
 20
98.207878
 30
0.0
  0
LINE
  5
1a1
100
AcDbEntity
  8
Layer_1
 62
1
100
AcDbLine
 10
32.855074
 20
98.207878
 30
0.0
 11
32.855074
 21
98.207878
 31
0.0
  0
SPLINE
  5
1a2
100
AcDbEntity
  8
Layer_1
 62
1
100
AcDbSpline
 70
8
 71
3
 72
8
 73
4
 74
0
 40
0
 40
0
 40
0
 40
0
 40
1
 40
1
 40
1
 40
1
 10
174.292202
 20
98.207878
 30
0.0
 10
174.292202
 20
98.732578
 30
0.0
 10
173.866912
 20
99.157876
 30
0.0
 10
173.342217
 20
99.157876
 30
0.0
  0
SPLINE
  5
1a3
100
AcDbEntity
  8
Layer_1
 62
1
100
AcDbSpline
 70
8
 71
3
 72
8
 73
4
 74
0
 40
0
 40
0
 40
0
 40
0
 40
1
 40
1
 40
1
 40
1
 10
173.342217
 20
99.157876
 30
0.0
 10
172.817602
 20
99.157876
 30
0.0
 10
172.392206
 20
98.732578
 30
0.0
 10
172.392206
 20
98.207878
 30
0.0
  0
SPLINE
  5
1a4
100
AcDbEntity
  8
Layer_1
 62
1
100
AcDbSpline
 70
8
 71
3
 72
8
 73
4
 74
0
 40
0
 40
0
 40
0
 40
0
 40
1
 40
1
 40
1
 40
1
 10
172.392206
 20
98.207878
 30
0.0
 10
172.392206
 20
97.683178
 30
0.0
 10
172.817602
 20
97.257879
 30
0.0
 10
173.342217
 20
97.257879
 30
0.0
  0
SPLINE
  5
1a5
100
AcDbEntity
  8
Layer_1
 62
1
100
AcDbSpline
 70
8
 71
3
 72
8
 73
4
 74
0
 40
0
 40
0
 40
0
 40
0
 40
1
 40
1
 40
1
 40
1
 10
173.342217
 20
97.257879
 30
0.0
 10
173.866912
 20
97.257879
 30
0.0
 10
174.292202
 20
97.683178
 30
0.0
 10
174.292202
 20
98.207878
 30
0.0
  0
LINE
  5
1a6
100
AcDbEntity
  8
Layer_1
 62
1
100
AcDbLine
 10
174.292202
 20
98.207878
 30
0.0
 11
174.292202
 21
98.207878
 31
0.0
  0
SPLINE
  5
1a7
100
AcDbEntity
  8
Layer_1
 62
1
100
AcDbSpline
 70
8
 71
3
 72
8
 73
4
 74
0
 40
0
 40
0
 40
0
 40
0
 40
1
 40
1
 40
1
 40
1
 10
-34.294531
 20
185.532767
 30
0.0
 10
-34.294531
 20
186.057467
 30
0.0
 10
-34.719821
 20
186.482765
 30
0.0
 10
-35.244516
 20
186.482765
 30
0.0
  0
SPLINE
  5
1a8
100
AcDbEntity
  8
Layer_1
 62
1
100
AcDbSpline
 70
8
 71
3
 72
8
 73
4
 74
0
 40
0
 40
0
 40
0
 40
0
 40
1
 40
1
 40
1
 40
1
 10
-35.244516
 20
186.482765
 30
0.0
 10
-35.769237
 20
186.482765
 30
0.0
 10
-36.194528
 20
186.057467
 30
0.0
 10
-36.194528
 20
185.532767
 30
0.0
  0
SPLINE
  5
1a9
100
AcDbEntity
  8
Layer_1
 62
1
100
AcDbSpline
 70
8
 71
3
 72
8
 73
4
 74
0
 40
0
 40
0
 40
0
 40
0
 40
1
 40
1
 40
1
 40
1
 10
-36.194528
 20
185.532767
 30
0.0
 10
-36.194528
 20
185.008067
 30
0.0
 10
-35.769237
 20
184.582768
 30
0.0
 10
-35.244516
 20
184.582768
 30
0.0
  0
SPLINE
  5
1aa
100
AcDbEntity
  8
Layer_1
 62
1
100
AcDbSpline
 70
8
 71
3
 72
8
 73
4
 74
0
 40
0
 40
0
 40
0
 40
0
 40
1
 40
1
 40
1
 40
1
 10
-35.244516
 20
184.582768
 30
0.0
 10
-34.719821
 20
184.582768
 30
0.0
 10
-34.294531
 20
185.008067
 30
0.0
 10
-34.294531
 20
185.532767
 30
0.0
  0
LINE
  5
1ab
100
AcDbEntity
  8
Layer_1
 62
1
100
AcDbLine
 10
-34.294531
 20
185.532767
 30
0.0
 11
-34.294531
 21
185.532767
 31
0.0
  0
SPLINE
  5
1ac
100
AcDbEntity
  8
Layer_1
 62
1
100
AcDbSpline
 70
8
 71
3
 72
8
 73
4
 74
0
 40
0
 40
0
 40
0
 40
0
 40
1
 40
1
 40
1
 40
1
 10
241.455123
 20
185.532767
 30
0.0
 10
241.455123
 20
186.057467
 30
0.0
 10
241.029822
 20
186.482765
 30
0.0
 10
240.505125
 20
186.482765
 30
0.0
  0
SPLINE
  5
1ad
100
AcDbEntity
  8
Layer_1
 62
1
100
AcDbSpline
 70
8
 71
3
 72
8
 73
4
 74
0
 40
0
 40
0
 40
0
 40
0
 40
1
 40
1
 40
1
 40
1
 10
240.505125
 20
186.482765
 30
0.0
 10
239.980425
 20
186.482765
 30
0.0
 10
239.555126
 20
186.057467
 30
0.0
 10
239.555126
 20
185.532767
 30
0.0
  0
SPLINE
  5
1ae
100
AcDbEntity
  8
Layer_1
 62
1
100
AcDbSpline
 70
8
 71
3
 72
8
 73
4
 74
0
 40
0
 40
0
 40
0
 40
0
 40
1
 40
1
 40
1
 40
1
 10
239.555126
 20
185.532767
 30
0.0
 10
239.555126
 20
185.008067
 30
0.0
 10
239.980425
 20
184.582768
 30
0.0
 10
240.505125
 20
184.582768
 30
0.0
  0
SPLINE
  5
1af
100
AcDbEntity
  8
Layer_1
 62
1
100
AcDbSpline
 70
8
 71
3
 72
8
 73
4
 74
0
 40
0
 40
0
 40
0
 40
0
 40
1
 40
1
 40
1
 40
1
 10
240.505125
 20
184.582768
 30
0.0
 10
241.029822
 20
184.582768
 30
0.0
 10
241.455123
 20
185.008067
 30
0.0
 10
241.455123
 20
185.532767
 30
0.0
  0
LINE
  5
1b0
100
AcDbEntity
  8
Layer_1
 62
1
100
AcDbLine
 10
241.455123
 20
185.532767
 30
0.0
 11
241.455123
 21
185.532767
 31
0.0
  0
SPLINE
  5
1b1
100
AcDbEntity
  8
Layer_1
 62
1
100
AcDbSpline
 70
8
 71
3
 72
8
 73
4
 74
0
 40
0
 40
0
 40
0
 40
0
 40
1
 40
1
 40
1
 40
1
 10
-34.294531
 20
98.207878
 30
0.0
 10
-34.294531
 20
98.732578
 30
0.0
 10
-34.719821
 20
99.157876
 30
0.0
 10
-35.244516
 20
99.157876
 30
0.0
  0
SPLINE
  5
1b2
100
AcDbEntity
  8
Layer_1
 62
1
100
AcDbSpline
 70
8
 71
3
 72
8
 73
4
 74
0
 40
0
 40
0
 40
0
 40
0
 40
1
 40
1
 40
1
 40
1
 10
-35.244516
 20
99.157876
 30
0.0
 10
-35.769237
 20
99.157876
 30
0.0
 10
-36.194528
 20
98.732578
 30
0.0
 10
-36.194528
 20
98.207878
 30
0.0
  0
SPLINE
  5
1b3
100
AcDbEntity
  8
Layer_1
 62
1
100
AcDbSpline
 70
8
 71
3
 72
8
 73
4
 74
0
 40
0
 40
0
 40
0
 40
0
 40
1
 40
1
 40
1
 40
1
 10
-36.194528
 20
98.207878
 30
0.0
 10
-36.194528
 20
97.683178
 30
0.0
 10
-35.769237
 20
97.257879
 30
0.0
 10
-35.244516
 20
97.257879
 30
0.0
  0
SPLINE
  5
1b4
100
AcDbEntity
  8
Layer_1
 62
1
100
AcDbSpline
 70
8
 71
3
 72
8
 73
4
 74
0
 40
0
 40
0
 40
0
 40
0
 40
1
 40
1
 40
1
 40
1
 10
-35.244516
 20
97.257879
 30
0.0
 10
-34.719821
 20
97.257879
 30
0.0
 10
-34.294531
 20
97.683178
 30
0.0
 10
-34.294531
 20
98.207878
 30
0.0
  0
LINE
  5
1b5
100
AcDbEntity
  8
Layer_1
 62
1
100
AcDbLine
 10
-34.294531
 20
98.207878
 30
0.0
 11
-34.294531
 21
98.207878
 31
0.0
  0
SPLINE
  5
1b6
100
AcDbEntity
  8
Layer_1
 62
1
100
AcDbSpline
 70
8
 71
3
 72
8
 73
4
 74
0
 40
0
 40
0
 40
0
 40
0
 40
1
 40
1
 40
1
 40
1
 10
-26.484326
 20
189.931338
 30
0.0
 10
-26.219028
 20
189.931338
 30
0.0
 10
-25.964737
 20
190.036737
 30
0.0
 10
-25.777148
 20
190.224236
 30
0.0
  0
SPLINE
  5
1b7
100
AcDbEntity
  8
Layer_1
 62
1
100
AcDbSpline
 70
8
 71
3
 72
8
 73
4
 74
0
 40
0
 40
0
 40
0
 40
0
 40
1
 40
1
 40
1
 40
1
 10
-25.777148
 20
190.224236
 30
0.0
 10
-25.589638
 20
190.411738
 30
0.0
 10
-25.484334
 20
190.666137
 30
0.0
 10
-25.484334
 20
190.931337
 30
0.0
  0
SPLINE
  5
1b8
100
AcDbEntity
  8
Layer_1
 62
1
100
AcDbSpline
 70
8
 71
3
 72
8
 73
4
 74
0
 40
0
 40
0
 40
0
 40
0
 40
1
 40
1
 40
1
 40
1
 10
-31.245867
 20
190.931337
 30
0.0
 10
-31.245867
 20
190.666137
 30
0.0
 10
-31.140457
 20
190.411738
 30
0.0
 10
-30.952947
 20
190.224236
 30
0.0
  0
SPLINE
  5
1b9
100
AcDbEntity
  8
Layer_1
 62
1
100
AcDbSpline
 70
8
 71
3
 72
8
 73
4
 74
0
 40
0
 40
0
 40
0
 40
0
 40
1
 40
1
 40
1
 40
1
 10
-30.952947
 20
190.224236
 30
0.0
 10
-30.765358
 20
190.036737
 30
0.0
 10
-30.511067
 20
189.931338
 30
0.0
 10
-30.245849
 20
189.931338
 30
0.0
  0
LINE
  5
1ba
100
AcDbEntity
  8
Layer_1
 62
1
100
AcDbLine
 10
-26.483585
 20
189.931338
 30
0.0
 11
-30.246590
 21
189.931338
 31
0.0
  0
SPLINE
  5
1bb
100
AcDbEntity
  8
Layer_1
 62
1
100
AcDbSpline
 70
8
 71
3
 72
8
 73
4
 74
0
 40
0
 40
0
 40
0
 40
0
 40
1
 40
1
 40
1
 40
1
 10
-26.484326
 20
189.931338
 30
0.0
 10
-26.219028
 20
189.931338
 30
0.0
 10
-25.964737
 20
190.036737
 30
0.0
 10
-25.777148
 20
190.224236
 30
0.0
  0
SPLINE
  5
1bc
100
AcDbEntity
  8
Layer_1
 62
1
100
AcDbSpline
 70
8
 71
3
 72
8
 73
4
 74
0
 40
0
 40
0
 40
0
 40
0
 40
1
 40
1
 40
1
 40
1
 10
-25.777148
 20
190.224236
 30
0.0
 10
-25.589638
 20
190.411738
 30
0.0
 10
-25.484334
 20
190.666137
 30
0.0
 10
-25.484334
 20
190.931337
 30
0.0
  0
SPLINE
  5
1bd
100
AcDbEntity
  8
Layer_1
 62
1
100
AcDbSpline
 70
8
 71
3
 72
8
 73
4
 74
0
 40
0
 40
0
 40
0
 40
0
 40
1
 40
1
 40
1
 40
1
 10
-31.245867
 20
190.931337
 30
0.0
 10
-31.245867
 20
190.666137
 30
0.0
 10
-31.140457
 20
190.411738
 30
0.0
 10
-30.952947
 20
190.224236
 30
0.0
  0
SPLINE
  5
1be
100
AcDbEntity
  8
Layer_1
 62
1
100
AcDbSpline
 70
8
 71
3
 72
8
 73
4
 74
0
 40
0
 40
0
 40
0
 40
0
 40
1
 40
1
 40
1
 40
1
 10
-30.952947
 20
190.224236
 30
0.0
 10
-30.765358
 20
190.036737
 30
0.0
 10
-30.511067
 20
189.931338
 30
0.0
 10
-30.245849
 20
189.931338
 30
0.0
  0
LINE
  5
1bf
100
AcDbEntity
  8
Layer_1
 62
1
100
AcDbLine
 10
-26.483585
 20
189.931338
 30
0.0
 11
-30.246590
 21
189.931338
 31
0.0
  0
SPLINE
  5
1c0
100
AcDbEntity
  8
Layer_1
 62
1
100
AcDbSpline
 70
8
 71
3
 72
8
 73
4
 74
0
 40
0
 40
0
 40
0
 40
0
 40
1
 40
1
 40
1
 40
1
 10
-26.484326
 20
191.929971
 30
0.0
 10
-26.219028
 20
191.929971
 30
0.0
 10
-25.964737
 20
191.824572
 30
0.0
 10
-25.777148
 20
191.637072
 30
0.0
  0
SPLINE
  5
1c1
100
AcDbEntity
  8
Layer_1
 62
1
100
AcDbSpline
 70
8
 71
3
 72
8
 73
4
 74
0
 40
0
 40
0
 40
0
 40
0
 40
1
 40
1
 40
1
 40
1
 10
-25.777148
 20
191.637072
 30
0.0
 10
-25.589638
 20
191.449570
 30
0.0
 10
-25.484334
 20
191.195171
 30
0.0
 10
-25.484334
 20
190.929972
 30
0.0
  0
SPLINE
  5
1c2
100
AcDbEntity
  8
Layer_1
 62
1
100
AcDbSpline
 70
8
 71
3
 72
8
 73
4
 74
0
 40
0
 40
0
 40
0
 40
0
 40
1
 40
1
 40
1
 40
1
 10
-31.245867
 20
190.929972
 30
0.0
 10
-31.245867
 20
191.195171
 30
0.0
 10
-31.140457
 20
191.449570
 30
0.0
 10
-30.952947
 20
191.637072
 30
0.0
  0
SPLINE
  5
1c3
100
AcDbEntity
  8
Layer_1
 62
1
100
AcDbSpline
 70
8
 71
3
 72
8
 73
4
 74
0
 40
0
 40
0
 40
0
 40
0
 40
1
 40
1
 40
1
 40
1
 10
-30.952947
 20
191.637072
 30
0.0
 10
-30.765358
 20
191.824572
 30
0.0
 10
-30.511067
 20
191.929971
 30
0.0
 10
-30.245849
 20
191.929971
 30
0.0
  0
LINE
  5
1c4
100
AcDbEntity
  8
Layer_1
 62
1
100
AcDbLine
 10
-26.483585
 20
191.929971
 30
0.0
 11
-30.246590
 21
191.929971
 31
0.0
  0
SPLINE
  5
1c5
100
AcDbEntity
  8
Layer_1
 62
1
100
AcDbSpline
 70
8
 71
3
 72
8
 73
4
 74
0
 40
0
 40
0
 40
0
 40
0
 40
1
 40
1
 40
1
 40
1
 10
-25.484334
 20
209.031314
 30
0.0
 10
-25.484334
 20
209.296514
 30
0.0
 10
-25.589638
 20
209.550913
 30
0.0
 10
-25.777148
 20
209.738412
 30
0.0
  0
SPLINE
  5
1c6
100
AcDbEntity
  8
Layer_1
 62
1
100
AcDbSpline
 70
8
 71
3
 72
8
 73
4
 74
0
 40
0
 40
0
 40
0
 40
0
 40
1
 40
1
 40
1
 40
1
 10
-25.777148
 20
209.738412
 30
0.0
 10
-25.964737
 20
209.925912
 30
0.0
 10
-26.219028
 20
210.031314
 30
0.0
 10
-26.484326
 20
210.031314
 30
0.0
  0
LINE
  5
1c7
100
AcDbEntity
  8
Layer_1
 62
1
100
AcDbLine
 10
-30.246325
 20
210.031314
 30
0.0
 11
-26.483849
 21
210.031314
 31
0.0
  0
SPLINE
  5
1c8
100
AcDbEntity
  8
Layer_1
 62
1
100
AcDbSpline
 70
8
 71
3
 72
8
 73
4
 74
0
 40
0
 40
0
 40
0
 40
0
 40
1
 40
1
 40
1
 40
1
 10
-30.245849
 20
210.031314
 30
0.0
 10
-30.511067
 20
210.031314
 30
0.0
 10
-30.765358
 20
209.925912
 30
0.0
 10
-30.952947
 20
209.738412
 30
0.0
  0
SPLINE
  5
1c9
100
AcDbEntity
  8
Layer_1
 62
1
100
AcDbSpline
 70
8
 71
3
 72
8
 73
4
 74
0
 40
0
 40
0
 40
0
 40
0
 40
1
 40
1
 40
1
 40
1
 10
-30.952947
 20
209.738412
 30
0.0
 10
-31.140457
 20
209.550913
 30
0.0
 10
-31.245867
 20
209.296514
 30
0.0
 10
-31.245867
 20
209.031314
 30
0.0
  0
SPLINE
  5
1ca
100
AcDbEntity
  8
Layer_1
 62
1
100
AcDbSpline
 70
8
 71
3
 72
8
 73
4
 74
0
 40
0
 40
0
 40
0
 40
0
 40
1
 40
1
 40
1
 40
1
 10
-25.484334
 20
209.031299
 30
0.0
 10
-25.484334
 20
208.766099
 30
0.0
 10
-25.589638
 20
208.511700
 30
0.0
 10
-25.777148
 20
208.324200
 30
0.0
  0
SPLINE
  5
1cb
100
AcDbEntity
  8
Layer_1
 62
1
100
AcDbSpline
 70
8
 71
3
 72
8
 73
4
 74
0
 40
0
 40
0
 40
0
 40
0
 40
1
 40
1
 40
1
 40
1
 10
-25.777148
 20
208.324200
 30
0.0
 10
-25.964737
 20
208.136701
 30
0.0
 10
-26.219028
 20
208.031299
 30
0.0
 10
-26.484326
 20
208.031299
 30
0.0
  0
LINE
  5
1cc
100
AcDbEntity
  8
Layer_1
 62
1
100
AcDbLine
 10
-30.246325
 20
208.031299
 30
0.0
 11
-26.483849
 21
208.031299
 31
0.0
  0
SPLINE
  5
1cd
100
AcDbEntity
  8
Layer_1
 62
1
100
AcDbSpline
 70
8
 71
3
 72
8
 73
4
 74
0
 40
0
 40
0
 40
0
 40
0
 40
1
 40
1
 40
1
 40
1
 10
-30.245849
 20
208.031299
 30
0.0
 10
-30.511067
 20
208.031299
 30
0.0
 10
-30.765358
 20
208.136701
 30
0.0
 10
-30.952947
 20
208.324200
 30
0.0
  0
SPLINE
  5
1ce
100
AcDbEntity
  8
Layer_1
 62
1
100
AcDbSpline
 70
8
 71
3
 72
8
 73
4
 74
0
 40
0
 40
0
 40
0
 40
0
 40
1
 40
1
 40
1
 40
1
 10
-30.952947
 20
208.324200
 30
0.0
 10
-31.140457
 20
208.511700
 30
0.0
 10
-31.245867
 20
208.766099
 30
0.0
 10
-31.245867
 20
209.031299
 30
0.0
  0
SPLINE
  5
1cf
100
AcDbEntity
  8
Layer_1
 62
1
100
AcDbSpline
 70
8
 71
3
 72
8
 73
4
 74
0
 40
0
 40
0
 40
0
 40
0
 40
1
 40
1
 40
1
 40
1
 10
-25.484334
 20
205.511329
 30
0.0
 10
-25.484334
 20
205.776528
 30
0.0
 10
-25.589638
 20
206.030927
 30
0.0
 10
-25.777148
 20
206.218427
 30
0.0
  0
SPLINE
  5
1d0
100
AcDbEntity
  8
Layer_1
 62
1
100
AcDbSpline
 70
8
 71
3
 72
8
 73
4
 74
0
 40
0
 40
0
 40
0
 40
0
 40
1
 40
1
 40
1
 40
1
 10
-25.777148
 20
206.218427
 30
0.0
 10
-25.964737
 20
206.405926
 30
0.0
 10
-26.219028
 20
206.511328
 30
0.0
 10
-26.484326
 20
206.511328
 30
0.0
  0
LINE
  5
1d1
100
AcDbEntity
  8
Layer_1
 62
1
100
AcDbLine
 10
-30.246325
 20
206.511328
 30
0.0
 11
-26.483849
 21
206.511328
 31
0.0
  0
SPLINE
  5
1d2
100
AcDbEntity
  8
Layer_1
 62
1
100
AcDbSpline
 70
8
 71
3
 72
8
 73
4
 74
0
 40
0
 40
0
 40
0
 40
0
 40
1
 40
1
 40
1
 40
1
 10
-30.245849
 20
206.511328
 30
0.0
 10
-30.511067
 20
206.511328
 30
0.0
 10
-30.765358
 20
206.405926
 30
0.0
 10
-30.952947
 20
206.218427
 30
0.0
  0
SPLINE
  5
1d3
100
AcDbEntity
  8
Layer_1
 62
1
100
AcDbSpline
 70
8
 71
3
 72
8
 73
4
 74
0
 40
0
 40
0
 40
0
 40
0
 40
1
 40
1
 40
1
 40
1
 10
-30.952947
 20
206.218427
 30
0.0
 10
-31.140457
 20
206.030927
 30
0.0
 10
-31.245867
 20
205.776528
 30
0.0
 10
-31.245867
 20
205.511329
 30
0.0
  0
SPLINE
  5
1d4
100
AcDbEntity
  8
Layer_1
 62
1
100
AcDbSpline
 70
8
 71
3
 72
8
 73
4
 74
0
 40
0
 40
0
 40
0
 40
0
 40
1
 40
1
 40
1
 40
1
 10
-25.484334
 20
205.511313
 30
0.0
 10
-25.484334
 20
205.246113
 30
0.0
 10
-25.589638
 20
204.991714
 30
0.0
 10
-25.777148
 20
204.804215
 30
0.0
  0
SPLINE
  5
1d5
100
AcDbEntity
  8
Layer_1
 62
1
100
AcDbSpline
 70
8
 71
3
 72
8
 73
4
 74
0
 40
0
 40
0
 40
0
 40
0
 40
1
 40
1
 40
1
 40
1
 10
-25.777148
 20
204.804215
 30
0.0
 10
-25.964737
 20
204.616715
 30
0.0
 10
-26.219028
 20
204.511313
 30
0.0
 10
-26.484326
 20
204.511313
 30
0.0
  0
LINE
  5
1d6
100
AcDbEntity
  8
Layer_1
 62
1
100
AcDbLine
 10
-30.246325
 20
204.511313
 30
0.0
 11
-26.483849
 21
204.511313
 31
0.0
  0
SPLINE
  5
1d7
100
AcDbEntity
  8
Layer_1
 62
1
100
AcDbSpline
 70
8
 71
3
 72
8
 73
4
 74
0
 40
0
 40
0
 40
0
 40
0
 40
1
 40
1
 40
1
 40
1
 10
-30.245849
 20
204.511313
 30
0.0
 10
-30.511067
 20
204.511313
 30
0.0
 10
-30.765358
 20
204.616715
 30
0.0
 10
-30.952947
 20
204.804215
 30
0.0
  0
SPLINE
  5
1d8
100
AcDbEntity
  8
Layer_1
 62
1
100
AcDbSpline
 70
8
 71
3
 72
8
 73
4
 74
0
 40
0
 40
0
 40
0
 40
0
 40
1
 40
1
 40
1
 40
1
 10
-30.952947
 20
204.804215
 30
0.0
 10
-31.140457
 20
204.991714
 30
0.0
 10
-31.245867
 20
205.246113
 30
0.0
 10
-31.245867
 20
205.511313
 30
0.0
  0
SPLINE
  5
1d9
100
AcDbEntity
  8
Layer_1
 62
1
100
AcDbSpline
 70
8
 71
3
 72
8
 73
4
 74
0
 40
0
 40
0
 40
0
 40
0
 40
1
 40
1
 40
1
 40
1
 10
-25.484334
 20
201.991316
 30
0.0
 10
-25.484334
 20
202.256516
 30
0.0
 10
-25.589638
 20
202.510915
 30
0.0
 10
-25.777148
 20
202.698414
 30
0.0
  0
SPLINE
  5
1da
100
AcDbEntity
  8
Layer_1
 62
1
100
AcDbSpline
 70
8
 71
3
 72
8
 73
4
 74
0
 40
0
 40
0
 40
0
 40
0
 40
1
 40
1
 40
1
 40
1
 10
-25.777148
 20
202.698414
 30
0.0
 10
-25.964737
 20
202.885914
 30
0.0
 10
-26.219028
 20
202.991316
 30
0.0
 10
-26.484326
 20
202.991316
 30
0.0
  0
LINE
  5
1db
100
AcDbEntity
  8
Layer_1
 62
1
100
AcDbLine
 10
-30.246325
 20
202.991316
 30
0.0
 11
-26.483849
 21
202.991316
 31
0.0
  0
SPLINE
  5
1dc
100
AcDbEntity
  8
Layer_1
 62
1
100
AcDbSpline
 70
8
 71
3
 72
8
 73
4
 74
0
 40
0
 40
0
 40
0
 40
0
 40
1
 40
1
 40
1
 40
1
 10
-30.245849
 20
202.991316
 30
0.0
 10
-30.511067
 20
202.991316
 30
0.0
 10
-30.765358
 20
202.885914
 30
0.0
 10
-30.952947
 20
202.698414
 30
0.0
  0
SPLINE
  5
1dd
100
AcDbEntity
  8
Layer_1
 62
1
100
AcDbSpline
 70
8
 71
3
 72
8
 73
4
 74
0
 40
0
 40
0
 40
0
 40
0
 40
1
 40
1
 40
1
 40
1
 10
-30.952947
 20
202.698414
 30
0.0
 10
-31.140457
 20
202.510915
 30
0.0
 10
-31.245867
 20
202.256516
 30
0.0
 10
-31.245867
 20
201.991316
 30
0.0
  0
SPLINE
  5
1de
100
AcDbEntity
  8
Layer_1
 62
1
100
AcDbSpline
 70
8
 71
3
 72
8
 73
4
 74
0
 40
0
 40
0
 40
0
 40
0
 40
1
 40
1
 40
1
 40
1
 10
-25.484334
 20
201.991301
 30
0.0
 10
-25.484334
 20
201.726101
 30
0.0
 10
-25.589638
 20
201.471702
 30
0.0
 10
-25.777148
 20
201.284202
 30
0.0
  0
SPLINE
  5
1df
100
AcDbEntity
  8
Layer_1
 62
1
100
AcDbSpline
 70
8
 71
3
 72
8
 73
4
 74
0
 40
0
 40
0
 40
0
 40
0
 40
1
 40
1
 40
1
 40
1
 10
-25.777148
 20
201.284202
 30
0.0
 10
-25.964737
 20
201.096703
 30
0.0
 10
-26.219028
 20
200.991301
 30
0.0
 10
-26.484326
 20
200.991301
 30
0.0
  0
LINE
  5
1e0
100
AcDbEntity
  8
Layer_1
 62
1
100
AcDbLine
 10
-30.246325
 20
200.991301
 30
0.0
 11
-26.483849
 21
200.991301
 31
0.0
  0
SPLINE
  5
1e1
100
AcDbEntity
  8
Layer_1
 62
1
100
AcDbSpline
 70
8
 71
3
 72
8
 73
4
 74
0
 40
0
 40
0
 40
0
 40
0
 40
1
 40
1
 40
1
 40
1
 10
-30.245849
 20
200.991301
 30
0.0
 10
-30.511067
 20
200.991301
 30
0.0
 10
-30.765358
 20
201.096703
 30
0.0
 10
-30.952947
 20
201.284202
 30
0.0
  0
SPLINE
  5
1e2
100
AcDbEntity
  8
Layer_1
 62
1
100
AcDbSpline
 70
8
 71
3
 72
8
 73
4
 74
0
 40
0
 40
0
 40
0
 40
0
 40
1
 40
1
 40
1
 40
1
 10
-30.952947
 20
201.284202
 30
0.0
 10
-31.140457
 20
201.471702
 30
0.0
 10
-31.245867
 20
201.726101
 30
0.0
 10
-31.245867
 20
201.991301
 30
0.0
  0
SPLINE
  5
1e3
100
AcDbEntity
  8
Layer_1
 62
1
100
AcDbSpline
 70
8
 71
3
 72
8
 73
4
 74
0
 40
0
 40
0
 40
0
 40
0
 40
1
 40
1
 40
1
 40
1
 10
-25.484334
 20
198.471331
 30
0.0
 10
-25.484334
 20
198.736530
 30
0.0
 10
-25.589638
 20
198.990929
 30
0.0
 10
-25.777148
 20
199.178429
 30
0.0
  0
SPLINE
  5
1e4
100
AcDbEntity
  8
Layer_1
 62
1
100
AcDbSpline
 70
8
 71
3
 72
8
 73
4
 74
0
 40
0
 40
0
 40
0
 40
0
 40
1
 40
1
 40
1
 40
1
 10
-25.777148
 20
199.178429
 30
0.0
 10
-25.964737
 20
199.365928
 30
0.0
 10
-26.219028
 20
199.471330
 30
0.0
 10
-26.484326
 20
199.471330
 30
0.0
  0
LINE
  5
1e5
100
AcDbEntity
  8
Layer_1
 62
1
100
AcDbLine
 10
-30.246325
 20
199.471330
 30
0.0
 11
-26.483849
 21
199.471330
 31
0.0
  0
SPLINE
  5
1e6
100
AcDbEntity
  8
Layer_1
 62
1
100
AcDbSpline
 70
8
 71
3
 72
8
 73
4
 74
0
 40
0
 40
0
 40
0
 40
0
 40
1
 40
1
 40
1
 40
1
 10
-30.245849
 20
199.471330
 30
0.0
 10
-30.511067
 20
199.471330
 30
0.0
 10
-30.765358
 20
199.365928
 30
0.0
 10
-30.952947
 20
199.178429
 30
0.0
  0
SPLINE
  5
1e7
100
AcDbEntity
  8
Layer_1
 62
1
100
AcDbSpline
 70
8
 71
3
 72
8
 73
4
 74
0
 40
0
 40
0
 40
0
 40
0
 40
1
 40
1
 40
1
 40
1
 10
-30.952947
 20
199.178429
 30
0.0
 10
-31.140457
 20
198.990929
 30
0.0
 10
-31.245867
 20
198.736530
 30
0.0
 10
-31.245867
 20
198.471331
 30
0.0
  0
SPLINE
  5
1e8
100
AcDbEntity
  8
Layer_1
 62
1
100
AcDbSpline
 70
8
 71
3
 72
8
 73
4
 74
0
 40
0
 40
0
 40
0
 40
0
 40
1
 40
1
 40
1
 40
1
 10
-25.484334
 20
198.471315
 30
0.0
 10
-25.484334
 20
198.206115
 30
0.0
 10
-25.589638
 20
197.951716
 30
0.0
 10
-25.777148
 20
197.764217
 30
0.0
  0
SPLINE
  5
1e9
100
AcDbEntity
  8
Layer_1
 62
1
100
AcDbSpline
 70
8
 71
3
 72
8
 73
4
 74
0
 40
0
 40
0
 40
0
 40
0
 40
1
 40
1
 40
1
 40
1
 10
-25.777148
 20
197.764217
 30
0.0
 10
-25.964737
 20
197.576717
 30
0.0
 10
-26.219028
 20
197.471315
 30
0.0
 10
-26.484326
 20
197.471315
 30
0.0
  0
LINE
  5
1ea
100
AcDbEntity
  8
Layer_1
 62
1
100
AcDbLine
 10
-30.246325
 20
197.471315
 30
0.0
 11
-26.483849
 21
197.471315
 31
0.0
  0
SPLINE
  5
1eb
100
AcDbEntity
  8
Layer_1
 62
1
100
AcDbSpline
 70
8
 71
3
 72
8
 73
4
 74
0
 40
0
 40
0
 40
0
 40
0
 40
1
 40
1
 40
1
 40
1
 10
-30.245849
 20
197.471315
 30
0.0
 10
-30.511067
 20
197.471315
 30
0.0
 10
-30.765358
 20
197.576717
 30
0.0
 10
-30.952947
 20
197.764217
 30
0.0
  0
SPLINE
  5
1ec
100
AcDbEntity
  8
Layer_1
 62
1
100
AcDbSpline
 70
8
 71
3
 72
8
 73
4
 74
0
 40
0
 40
0
 40
0
 40
0
 40
1
 40
1
 40
1
 40
1
 10
-30.952947
 20
197.764217
 30
0.0
 10
-31.140457
 20
197.951716
 30
0.0
 10
-31.245867
 20
198.206115
 30
0.0
 10
-31.245867
 20
198.471315
 30
0.0
  0
SPLINE
  5
1ed
100
AcDbEntity
  8
Layer_1
 62
1
100
AcDbSpline
 70
8
 71
3
 72
8
 73
4
 74
0
 40
0
 40
0
 40
0
 40
0
 40
1
 40
1
 40
1
 40
1
 10
-25.484334
 20
194.951345
 30
0.0
 10
-25.484334
 20
195.216544
 30
0.0
 10
-25.589638
 20
195.470944
 30
0.0
 10
-25.777148
 20
195.658443
 30
0.0
  0
SPLINE
  5
1ee
100
AcDbEntity
  8
Layer_1
 62
1
100
AcDbSpline
 70
8
 71
3
 72
8
 73
4
 74
0
 40
0
 40
0
 40
0
 40
0
 40
1
 40
1
 40
1
 40
1
 10
-25.777148
 20
195.658443
 30
0.0
 10
-25.964737
 20
195.845942
 30
0.0
 10
-26.219028
 20
195.951344
 30
0.0
 10
-26.484326
 20
195.951344
 30
0.0
  0
LINE
  5
1ef
100
AcDbEntity
  8
Layer_1
 62
1
100
AcDbLine
 10
-30.246325
 20
195.951344
 30
0.0
 11
-26.483849
 21
195.951344
 31
0.0
  0
SPLINE
  5
1f0
100
AcDbEntity
  8
Layer_1
 62
1
100
AcDbSpline
 70
8
 71
3
 72
8
 73
4
 74
0
 40
0
 40
0
 40
0
 40
0
 40
1
 40
1
 40
1
 40
1
 10
-30.245849
 20
195.951344
 30
0.0
 10
-30.511067
 20
195.951344
 30
0.0
 10
-30.765358
 20
195.845942
 30
0.0
 10
-30.952947
 20
195.658443
 30
0.0
  0
SPLINE
  5
1f1
100
AcDbEntity
  8
Layer_1
 62
1
100
AcDbSpline
 70
8
 71
3
 72
8
 73
4
 74
0
 40
0
 40
0
 40
0
 40
0
 40
1
 40
1
 40
1
 40
1
 10
-30.952947
 20
195.658443
 30
0.0
 10
-31.140457
 20
195.470944
 30
0.0
 10
-31.245867
 20
195.216544
 30
0.0
 10
-31.245867
 20
194.951345
 30
0.0
  0
SPLINE
  5
1f2
100
AcDbEntity
  8
Layer_1
 62
1
100
AcDbSpline
 70
8
 71
3
 72
8
 73
4
 74
0
 40
0
 40
0
 40
0
 40
0
 40
1
 40
1
 40
1
 40
1
 10
-25.484334
 20
194.951329
 30
0.0
 10
-25.484334
 20
194.686129
 30
0.0
 10
-25.589638
 20
194.431730
 30
0.0
 10
-25.777148
 20
194.244231
 30
0.0
  0
SPLINE
  5
1f3
100
AcDbEntity
  8
Layer_1
 62
1
100
AcDbSpline
 70
8
 71
3
 72
8
 73
4
 74
0
 40
0
 40
0
 40
0
 40
0
 40
1
 40
1
 40
1
 40
1
 10
-25.777148
 20
194.244231
 30
0.0
 10
-25.964737
 20
194.056732
 30
0.0
 10
-26.219028
 20
193.951330
 30
0.0
 10
-26.484326
 20
193.951330
 30
0.0
  0
LINE
  5
1f4
100
AcDbEntity
  8
Layer_1
 62
1
100
AcDbLine
 10
-30.246325
 20
193.951330
 30
0.0
 11
-26.483849
 21
193.951330
 31
0.0
  0
SPLINE
  5
1f5
100
AcDbEntity
  8
Layer_1
 62
1
100
AcDbSpline
 70
8
 71
3
 72
8
 73
4
 74
0
 40
0
 40
0
 40
0
 40
0
 40
1
 40
1
 40
1
 40
1
 10
-30.245849
 20
193.951330
 30
0.0
 10
-30.511067
 20
193.951330
 30
0.0
 10
-30.765358
 20
194.056732
 30
0.0
 10
-30.952947
 20
194.244231
 30
0.0
  0
SPLINE
  5
1f6
100
AcDbEntity
  8
Layer_1
 62
1
100
AcDbSpline
 70
8
 71
3
 72
8
 73
4
 74
0
 40
0
 40
0
 40
0
 40
0
 40
1
 40
1
 40
1
 40
1
 10
-30.952947
 20
194.244231
 30
0.0
 10
-31.140457
 20
194.431730
 30
0.0
 10
-31.245867
 20
194.686129
 30
0.0
 10
-31.245867
 20
194.951329
 30
0.0
  0
SPLINE
  5
1f7
100
AcDbEntity
  8
Layer_1
 62
1
100
AcDbSpline
 70
8
 71
3
 72
8
 73
4
 74
0
 40
0
 40
0
 40
0
 40
0
 40
1
 40
1
 40
1
 40
1
 10
235.498565
 20
189.931349
 30
0.0
 10
235.763863
 20
189.931349
 30
0.0
 10
236.018154
 20
190.036748
 30
0.0
 10
236.205743
 20
190.224247
 30
0.0
  0
SPLINE
  5
1f8
100
AcDbEntity
  8
Layer_1
 62
1
100
AcDbSpline
 70
8
 71
3
 72
8
 73
4
 74
0
 40
0
 40
0
 40
0
 40
0
 40
1
 40
1
 40
1
 40
1
 10
236.205743
 20
190.224247
 30
0.0
 10
236.393253
 20
190.411749
 30
0.0
 10
236.498557
 20
190.666149
 30
0.0
 10
236.498557
 20
190.931348
 30
0.0
  0
SPLINE
  5
1f9
100
AcDbEntity
  8
Layer_1
 62
1
100
AcDbSpline
 70
8
 71
3
 72
8
 73
4
 74
0
 40
0
 40
0
 40
0
 40
0
 40
1
 40
1
 40
1
 40
1
 10
230.737024
 20
190.931348
 30
0.0
 10
230.737024
 20
190.666149
 30
0.0
 10
230.842434
 20
190.411749
 30
0.0
 10
231.029944
 20
190.224247
 30
0.0
  0
SPLINE
  5
1fa
100
AcDbEntity
  8
Layer_1
 62
1
100
AcDbSpline
 70
8
 71
3
 72
8
 73
4
 74
0
 40
0
 40
0
 40
0
 40
0
 40
1
 40
1
 40
1
 40
1
 10
231.029944
 20
190.224247
 30
0.0
 10
231.217533
 20
190.036748
 30
0.0
 10
231.471824
 20
189.931349
 30
0.0
 10
231.737042
 20
189.931349
 30
0.0
  0
LINE
  5
1fb
100
AcDbEntity
  8
Layer_1
 62
1
100
AcDbLine
 10
235.499306
 20
189.931349
 30
0.0
 11
231.736301
 21
189.931349
 31
0.0
  0
SPLINE
  5
1fc
100
AcDbEntity
  8
Layer_1
 62
1
100
AcDbSpline
 70
8
 71
3
 72
8
 73
4
 74
0
 40
0
 40
0
 40
0
 40
0
 40
1
 40
1
 40
1
 40
1
 10
235.498565
 20
189.931349
 30
0.0
 10
235.763863
 20
189.931349
 30
0.0
 10
236.018154
 20
190.036748
 30
0.0
 10
236.205743
 20
190.224247
 30
0.0
  0
SPLINE
  5
1fd
100
AcDbEntity
  8
Layer_1
 62
1
100
AcDbSpline
 70
8
 71
3
 72
8
 73
4
 74
0
 40
0
 40
0
 40
0
 40
0
 40
1
 40
1
 40
1
 40
1
 10
236.205743
 20
190.224247
 30
0.0
 10
236.393253
 20
190.411749
 30
0.0
 10
236.498557
 20
190.666149
 30
0.0
 10
236.498557
 20
190.931348
 30
0.0
  0
SPLINE
  5
1fe
100
AcDbEntity
  8
Layer_1
 62
1
100
AcDbSpline
 70
8
 71
3
 72
8
 73
4
 74
0
 40
0
 40
0
 40
0
 40
0
 40
1
 40
1
 40
1
 40
1
 10
230.737024
 20
190.931348
 30
0.0
 10
230.737024
 20
190.666149
 30
0.0
 10
230.842434
 20
190.411749
 30
0.0
 10
231.029944
 20
190.224247
 30
0.0
  0
SPLINE
  5
1ff
100
AcDbEntity
  8
Layer_1
 62
1
100
AcDbSpline
 70
8
 71
3
 72
8
 73
4
 74
0
 40
0
 40
0
 40
0
 40
0
 40
1
 40
1
 40
1
 40
1
 10
231.029944
 20
190.224247
 30
0.0
 10
231.217533
 20
190.036748
 30
0.0
 10
231.471824
 20
189.931349
 30
0.0
 10
231.737042
 20
189.931349
 30
0.0
  0
LINE
  5
200
100
AcDbEntity
  8
Layer_1
 62
1
100
AcDbLine
 10
235.499306
 20
189.931349
 30
0.0
 11
231.736301
 21
189.931349
 31
0.0
  0
SPLINE
  5
201
100
AcDbEntity
  8
Layer_1
 62
1
100
AcDbSpline
 70
8
 71
3
 72
8
 73
4
 74
0
 40
0
 40
0
 40
0
 40
0
 40
1
 40
1
 40
1
 40
1
 10
235.498565
 20
191.929982
 30
0.0
 10
235.763863
 20
191.929982
 30
0.0
 10
236.018154
 20
191.824583
 30
0.0
 10
236.205743
 20
191.637083
 30
0.0
  0
SPLINE
  5
202
100
AcDbEntity
  8
Layer_1
 62
1
100
AcDbSpline
 70
8
 71
3
 72
8
 73
4
 74
0
 40
0
 40
0
 40
0
 40
0
 40
1
 40
1
 40
1
 40
1
 10
236.205743
 20
191.637083
 30
0.0
 10
236.393253
 20
191.449581
 30
0.0
 10
236.498557
 20
191.195182
 30
0.0
 10
236.498557
 20
190.929983
 30
0.0
  0
SPLINE
  5
203
100
AcDbEntity
  8
Layer_1
 62
1
100
AcDbSpline
 70
8
 71
3
 72
8
 73
4
 74
0
 40
0
 40
0
 40
0
 40
0
 40
1
 40
1
 40
1
 40
1
 10
230.737024
 20
190.929983
 30
0.0
 10
230.737024
 20
191.195182
 30
0.0
 10
230.842434
 20
191.449581
 30
0.0
 10
231.029944
 20
191.637083
 30
0.0
  0
SPLINE
  5
204
100
AcDbEntity
  8
Layer_1
 62
1
100
AcDbSpline
 70
8
 71
3
 72
8
 73
4
 74
0
 40
0
 40
0
 40
0
 40
0
 40
1
 40
1
 40
1
 40
1
 10
231.029944
 20
191.637083
 30
0.0
 10
231.217533
 20
191.824583
 30
0.0
 10
231.471824
 20
191.929982
 30
0.0
 10
231.737042
 20
191.929982
 30
0.0
  0
LINE
  5
205
100
AcDbEntity
  8
Layer_1
 62
1
100
AcDbLine
 10
235.499306
 20
191.929982
 30
0.0
 11
231.736301
 21
191.929982
 31
0.0
  0
SPLINE
  5
206
100
AcDbEntity
  8
Layer_1
 62
1
100
AcDbSpline
 70
8
 71
3
 72
8
 73
4
 74
0
 40
0
 40
0
 40
0
 40
0
 40
1
 40
1
 40
1
 40
1
 10
236.498557
 20
209.031326
 30
0.0
 10
236.498557
 20
209.296525
 30
0.0
 10
236.393253
 20
209.550924
 30
0.0
 10
236.205743
 20
209.738424
 30
0.0
  0
SPLINE
  5
207
100
AcDbEntity
  8
Layer_1
 62
1
100
AcDbSpline
 70
8
 71
3
 72
8
 73
4
 74
0
 40
0
 40
0
 40
0
 40
0
 40
1
 40
1
 40
1
 40
1
 10
236.205743
 20
209.738424
 30
0.0
 10
236.018154
 20
209.925923
 30
0.0
 10
235.763863
 20
210.031325
 30
0.0
 10
235.498565
 20
210.031325
 30
0.0
  0
LINE
  5
208
100
AcDbEntity
  8
Layer_1
 62
1
100
AcDbLine
 10
231.736566
 20
210.031325
 30
0.0
 11
235.499042
 21
210.031325
 31
0.0
  0
SPLINE
  5
209
100
AcDbEntity
  8
Layer_1
 62
1
100
AcDbSpline
 70
8
 71
3
 72
8
 73
4
 74
0
 40
0
 40
0
 40
0
 40
0
 40
1
 40
1
 40
1
 40
1
 10
231.737042
 20
210.031325
 30
0.0
 10
231.471824
 20
210.031325
 30
0.0
 10
231.217533
 20
209.925923
 30
0.0
 10
231.029944
 20
209.738424
 30
0.0
  0
SPLINE
  5
20a
100
AcDbEntity
  8
Layer_1
 62
1
100
AcDbSpline
 70
8
 71
3
 72
8
 73
4
 74
0
 40
0
 40
0
 40
0
 40
0
 40
1
 40
1
 40
1
 40
1
 10
231.029944
 20
209.738424
 30
0.0
 10
230.842434
 20
209.550924
 30
0.0
 10
230.737024
 20
209.296525
 30
0.0
 10
230.737024
 20
209.031326
 30
0.0
  0
SPLINE
  5
20b
100
AcDbEntity
  8
Layer_1
 62
1
100
AcDbSpline
 70
8
 71
3
 72
8
 73
4
 74
0
 40
0
 40
0
 40
0
 40
0
 40
1
 40
1
 40
1
 40
1
 10
236.498557
 20
209.031310
 30
0.0
 10
236.498557
 20
208.766110
 30
0.0
 10
236.393253
 20
208.511711
 30
0.0
 10
236.205743
 20
208.324212
 30
0.0
  0
SPLINE
  5
20c
100
AcDbEntity
  8
Layer_1
 62
1
100
AcDbSpline
 70
8
 71
3
 72
8
 73
4
 74
0
 40
0
 40
0
 40
0
 40
0
 40
1
 40
1
 40
1
 40
1
 10
236.205743
 20
208.324212
 30
0.0
 10
236.018154
 20
208.136712
 30
0.0
 10
235.763863
 20
208.031310
 30
0.0
 10
235.498565
 20
208.031310
 30
0.0
  0
LINE
  5
20d
100
AcDbEntity
  8
Layer_1
 62
1
100
AcDbLine
 10
231.736566
 20
208.031310
 30
0.0
 11
235.499042
 21
208.031310
 31
0.0
  0
SPLINE
  5
20e
100
AcDbEntity
  8
Layer_1
 62
1
100
AcDbSpline
 70
8
 71
3
 72
8
 73
4
 74
0
 40
0
 40
0
 40
0
 40
0
 40
1
 40
1
 40
1
 40
1
 10
231.737042
 20
208.031310
 30
0.0
 10
231.471824
 20
208.031310
 30
0.0
 10
231.217533
 20
208.136712
 30
0.0
 10
231.029944
 20
208.324212
 30
0.0
  0
SPLINE
  5
20f
100
AcDbEntity
  8
Layer_1
 62
1
100
AcDbSpline
 70
8
 71
3
 72
8
 73
4
 74
0
 40
0
 40
0
 40
0
 40
0
 40
1
 40
1
 40
1
 40
1
 10
231.029944
 20
208.324212
 30
0.0
 10
230.842434
 20
208.511711
 30
0.0
 10
230.737024
 20
208.766110
 30
0.0
 10
230.737024
 20
209.031310
 30
0.0
  0
SPLINE
  5
210
100
AcDbEntity
  8
Layer_1
 62
1
100
AcDbSpline
 70
8
 71
3
 72
8
 73
4
 74
0
 40
0
 40
0
 40
0
 40
0
 40
1
 40
1
 40
1
 40
1
 10
236.498557
 20
205.511317
 30
0.0
 10
236.498557
 20
205.776516
 30
0.0
 10
236.393253
 20
206.030915
 30
0.0
 10
236.205743
 20
206.218415
 30
0.0
  0
SPLINE
  5
211
100
AcDbEntity
  8
Layer_1
 62
1
100
AcDbSpline
 70
8
 71
3
 72
8
 73
4
 74
0
 40
0
 40
0
 40
0
 40
0
 40
1
 40
1
 40
1
 40
1
 10
236.205743
 20
206.218415
 30
0.0
 10
236.018154
 20
206.405914
 30
0.0
 10
235.763863
 20
206.511316
 30
0.0
 10
235.498565
 20
206.511316
 30
0.0
  0
LINE
  5
212
100
AcDbEntity
  8
Layer_1
 62
1
100
AcDbLine
 10
231.736566
 20
206.511316
 30
0.0
 11
235.499042
 21
206.511316
 31
0.0
  0
SPLINE
  5
213
100
AcDbEntity
  8
Layer_1
 62
1
100
AcDbSpline
 70
8
 71
3
 72
8
 73
4
 74
0
 40
0
 40
0
 40
0
 40
0
 40
1
 40
1
 40
1
 40
1
 10
231.737042
 20
206.511316
 30
0.0
 10
231.471824
 20
206.511316
 30
0.0
 10
231.217533
 20
206.405914
 30
0.0
 10
231.029944
 20
206.218415
 30
0.0
  0
SPLINE
  5
214
100
AcDbEntity
  8
Layer_1
 62
1
100
AcDbSpline
 70
8
 71
3
 72
8
 73
4
 74
0
 40
0
 40
0
 40
0
 40
0
 40
1
 40
1
 40
1
 40
1
 10
231.029944
 20
206.218415
 30
0.0
 10
230.842434
 20
206.030915
 30
0.0
 10
230.737024
 20
205.776516
 30
0.0
 10
230.737024
 20
205.511317
 30
0.0
  0
SPLINE
  5
215
100
AcDbEntity
  8
Layer_1
 62
1
100
AcDbSpline
 70
8
 71
3
 72
8
 73
4
 74
0
 40
0
 40
0
 40
0
 40
0
 40
1
 40
1
 40
1
 40
1
 10
236.498557
 20
205.511301
 30
0.0
 10
236.498557
 20
205.246101
 30
0.0
 10
236.393253
 20
204.991702
 30
0.0
 10
236.205743
 20
204.804203
 30
0.0
  0
SPLINE
  5
216
100
AcDbEntity
  8
Layer_1
 62
1
100
AcDbSpline
 70
8
 71
3
 72
8
 73
4
 74
0
 40
0
 40
0
 40
0
 40
0
 40
1
 40
1
 40
1
 40
1
 10
236.205743
 20
204.804203
 30
0.0
 10
236.018154
 20
204.616703
 30
0.0
 10
235.763863
 20
204.511301
 30
0.0
 10
235.498565
 20
204.511301
 30
0.0
  0
LINE
  5
217
100
AcDbEntity
  8
Layer_1
 62
1
100
AcDbLine
 10
231.736566
 20
204.511301
 30
0.0
 11
235.499042
 21
204.511301
 31
0.0
  0
SPLINE
  5
218
100
AcDbEntity
  8
Layer_1
 62
1
100
AcDbSpline
 70
8
 71
3
 72
8
 73
4
 74
0
 40
0
 40
0
 40
0
 40
0
 40
1
 40
1
 40
1
 40
1
 10
231.737042
 20
204.511301
 30
0.0
 10
231.471824
 20
204.511301
 30
0.0
 10
231.217533
 20
204.616703
 30
0.0
 10
231.029944
 20
204.804203
 30
0.0
  0
SPLINE
  5
219
100
AcDbEntity
  8
Layer_1
 62
1
100
AcDbSpline
 70
8
 71
3
 72
8
 73
4
 74
0
 40
0
 40
0
 40
0
 40
0
 40
1
 40
1
 40
1
 40
1
 10
231.029944
 20
204.804203
 30
0.0
 10
230.842434
 20
204.991702
 30
0.0
 10
230.737024
 20
205.246101
 30
0.0
 10
230.737024
 20
205.511301
 30
0.0
  0
SPLINE
  5
21a
100
AcDbEntity
  8
Layer_1
 62
1
100
AcDbSpline
 70
8
 71
3
 72
8
 73
4
 74
0
 40
0
 40
0
 40
0
 40
0
 40
1
 40
1
 40
1
 40
1
 10
236.498557
 20
201.991331
 30
0.0
 10
236.498557
 20
202.256530
 30
0.0
 10
236.393253
 20
202.510929
 30
0.0
 10
236.205743
 20
202.698429
 30
0.0
  0
SPLINE
  5
21b
100
AcDbEntity
  8
Layer_1
 62
1
100
AcDbSpline
 70
8
 71
3
 72
8
 73
4
 74
0
 40
0
 40
0
 40
0
 40
0
 40
1
 40
1
 40
1
 40
1
 10
236.205743
 20
202.698429
 30
0.0
 10
236.018154
 20
202.885928
 30
0.0
 10
235.763863
 20
202.991330
 30
0.0
 10
235.498565
 20
202.991330
 30
0.0
  0
LINE
  5
21c
100
AcDbEntity
  8
Layer_1
 62
1
100
AcDbLine
 10
231.736566
 20
202.991330
 30
0.0
 11
235.499042
 21
202.991330
 31
0.0
  0
SPLINE
  5
21d
100
AcDbEntity
  8
Layer_1
 62
1
100
AcDbSpline
 70
8
 71
3
 72
8
 73
4
 74
0
 40
0
 40
0
 40
0
 40
0
 40
1
 40
1
 40
1
 40
1
 10
231.737042
 20
202.991330
 30
0.0
 10
231.471824
 20
202.991330
 30
0.0
 10
231.217533
 20
202.885928
 30
0.0
 10
231.029944
 20
202.698429
 30
0.0
  0
SPLINE
  5
21e
100
AcDbEntity
  8
Layer_1
 62
1
100
AcDbSpline
 70
8
 71
3
 72
8
 73
4
 74
0
 40
0
 40
0
 40
0
 40
0
 40
1
 40
1
 40
1
 40
1
 10
231.029944
 20
202.698429
 30
0.0
 10
230.842434
 20
202.510929
 30
0.0
 10
230.737024
 20
202.256530
 30
0.0
 10
230.737024
 20
201.991331
 30
0.0
  0
SPLINE
  5
21f
100
AcDbEntity
  8
Layer_1
 62
1
100
AcDbSpline
 70
8
 71
3
 72
8
 73
4
 74
0
 40
0
 40
0
 40
0
 40
0
 40
1
 40
1
 40
1
 40
1
 10
236.498557
 20
201.991315
 30
0.0
 10
236.498557
 20
201.726115
 30
0.0
 10
236.393253
 20
201.471716
 30
0.0
 10
236.205743
 20
201.284217
 30
0.0
  0
SPLINE
  5
220
100
AcDbEntity
  8
Layer_1
 62
1
100
AcDbSpline
 70
8
 71
3
 72
8
 73
4
 74
0
 40
0
 40
0
 40
0
 40
0
 40
1
 40
1
 40
1
 40
1
 10
236.205743
 20
201.284217
 30
0.0
 10
236.018154
 20
201.096717
 30
0.0
 10
235.763863
 20
200.991316
 30
0.0
 10
235.498565
 20
200.991316
 30
0.0
  0
LINE
  5
221
100
AcDbEntity
  8
Layer_1
 62
1
100
AcDbLine
 10
231.736566
 20
200.991316
 30
0.0
 11
235.499042
 21
200.991316
 31
0.0
  0
SPLINE
  5
222
100
AcDbEntity
  8
Layer_1
 62
1
100
AcDbSpline
 70
8
 71
3
 72
8
 73
4
 74
0
 40
0
 40
0
 40
0
 40
0
 40
1
 40
1
 40
1
 40
1
 10
231.737042
 20
200.991316
 30
0.0
 10
231.471824
 20
200.991316
 30
0.0
 10
231.217533
 20
201.096717
 30
0.0
 10
231.029944
 20
201.284217
 30
0.0
  0
SPLINE
  5
223
100
AcDbEntity
  8
Layer_1
 62
1
100
AcDbSpline
 70
8
 71
3
 72
8
 73
4
 74
0
 40
0
 40
0
 40
0
 40
0
 40
1
 40
1
 40
1
 40
1
 10
231.029944
 20
201.284217
 30
0.0
 10
230.842434
 20
201.471716
 30
0.0
 10
230.737024
 20
201.726115
 30
0.0
 10
230.737024
 20
201.991315
 30
0.0
  0
SPLINE
  5
224
100
AcDbEntity
  8
Layer_1
 62
1
100
AcDbSpline
 70
8
 71
3
 72
8
 73
4
 74
0
 40
0
 40
0
 40
0
 40
0
 40
1
 40
1
 40
1
 40
1
 10
236.498557
 20
198.471345
 30
0.0
 10
236.498557
 20
198.736544
 30
0.0
 10
236.393253
 20
198.990944
 30
0.0
 10
236.205743
 20
199.178443
 30
0.0
  0
SPLINE
  5
225
100
AcDbEntity
  8
Layer_1
 62
1
100
AcDbSpline
 70
8
 71
3
 72
8
 73
4
 74
0
 40
0
 40
0
 40
0
 40
0
 40
1
 40
1
 40
1
 40
1
 10
236.205743
 20
199.178443
 30
0.0
 10
236.018154
 20
199.365942
 30
0.0
 10
235.763863
 20
199.471344
 30
0.0
 10
235.498565
 20
199.471344
 30
0.0
  0
LINE
  5
226
100
AcDbEntity
  8
Layer_1
 62
1
100
AcDbLine
 10
231.736566
 20
199.471344
 30
0.0
 11
235.499042
 21
199.471344
 31
0.0
  0
SPLINE
  5
227
100
AcDbEntity
  8
Layer_1
 62
1
100
AcDbSpline
 70
8
 71
3
 72
8
 73
4
 74
0
 40
0
 40
0
 40
0
 40
0
 40
1
 40
1
 40
1
 40
1
 10
231.737042
 20
199.471344
 30
0.0
 10
231.471824
 20
199.471344
 30
0.0
 10
231.217533
 20
199.365942
 30
0.0
 10
231.029944
 20
199.178443
 30
0.0
  0
SPLINE
  5
228
100
AcDbEntity
  8
Layer_1
 62
1
100
AcDbSpline
 70
8
 71
3
 72
8
 73
4
 74
0
 40
0
 40
0
 40
0
 40
0
 40
1
 40
1
 40
1
 40
1
 10
231.029944
 20
199.178443
 30
0.0
 10
230.842434
 20
198.990944
 30
0.0
 10
230.737024
 20
198.736544
 30
0.0
 10
230.737024
 20
198.471345
 30
0.0
  0
SPLINE
  5
229
100
AcDbEntity
  8
Layer_1
 62
1
100
AcDbSpline
 70
8
 71
3
 72
8
 73
4
 74
0
 40
0
 40
0
 40
0
 40
0
 40
1
 40
1
 40
1
 40
1
 10
236.498557
 20
198.471329
 30
0.0
 10
236.498557
 20
198.206130
 30
0.0
 10
236.393253
 20
197.951730
 30
0.0
 10
236.205743
 20
197.764231
 30
0.0
  0
SPLINE
  5
22a
100
AcDbEntity
  8
Layer_1
 62
1
100
AcDbSpline
 70
8
 71
3
 72
8
 73
4
 74
0
 40
0
 40
0
 40
0
 40
0
 40
1
 40
1
 40
1
 40
1
 10
236.205743
 20
197.764231
 30
0.0
 10
236.018154
 20
197.576732
 30
0.0
 10
235.763863
 20
197.471330
 30
0.0
 10
235.498565
 20
197.471330
 30
0.0
  0
LINE
  5
22b
100
AcDbEntity
  8
Layer_1
 62
1
100
AcDbLine
 10
231.736566
 20
197.471330
 30
0.0
 11
235.499042
 21
197.471330
 31
0.0
  0
SPLINE
  5
22c
100
AcDbEntity
  8
Layer_1
 62
1
100
AcDbSpline
 70
8
 71
3
 72
8
 73
4
 74
0
 40
0
 40
0
 40
0
 40
0
 40
1
 40
1
 40
1
 40
1
 10
231.737042
 20
197.471330
 30
0.0
 10
231.471824
 20
197.471330
 30
0.0
 10
231.217533
 20
197.576732
 30
0.0
 10
231.029944
 20
197.764231
 30
0.0
  0
SPLINE
  5
22d
100
AcDbEntity
  8
Layer_1
 62
1
100
AcDbSpline
 70
8
 71
3
 72
8
 73
4
 74
0
 40
0
 40
0
 40
0
 40
0
 40
1
 40
1
 40
1
 40
1
 10
231.029944
 20
197.764231
 30
0.0
 10
230.842434
 20
197.951730
 30
0.0
 10
230.737024
 20
198.206130
 30
0.0
 10
230.737024
 20
198.471329
 30
0.0
  0
SPLINE
  5
22e
100
AcDbEntity
  8
Layer_1
 62
1
100
AcDbSpline
 70
8
 71
3
 72
8
 73
4
 74
0
 40
0
 40
0
 40
0
 40
0
 40
1
 40
1
 40
1
 40
1
 10
236.498557
 20
194.951333
 30
0.0
 10
236.498557
 20
195.216532
 30
0.0
 10
236.393253
 20
195.470931
 30
0.0
 10
236.205743
 20
195.658431
 30
0.0
  0
SPLINE
  5
22f
100
AcDbEntity
  8
Layer_1
 62
1
100
AcDbSpline
 70
8
 71
3
 72
8
 73
4
 74
0
 40
0
 40
0
 40
0
 40
0
 40
1
 40
1
 40
1
 40
1
 10
236.205743
 20
195.658431
 30
0.0
 10
236.018154
 20
195.845930
 30
0.0
 10
235.763863
 20
195.951332
 30
0.0
 10
235.498565
 20
195.951332
 30
0.0
  0
LINE
  5
230
100
AcDbEntity
  8
Layer_1
 62
1
100
AcDbLine
 10
231.736566
 20
195.951332
 30
0.0
 11
235.499042
 21
195.951332
 31
0.0
  0
SPLINE
  5
231
100
AcDbEntity
  8
Layer_1
 62
1
100
AcDbSpline
 70
8
 71
3
 72
8
 73
4
 74
0
 40
0
 40
0
 40
0
 40
0
 40
1
 40
1
 40
1
 40
1
 10
231.737042
 20
195.951332
 30
0.0
 10
231.471824
 20
195.951332
 30
0.0
 10
231.217533
 20
195.845930
 30
0.0
 10
231.029944
 20
195.658431
 30
0.0
  0
SPLINE
  5
232
100
AcDbEntity
  8
Layer_1
 62
1
100
AcDbSpline
 70
8
 71
3
 72
8
 73
4
 74
0
 40
0
 40
0
 40
0
 40
0
 40
1
 40
1
 40
1
 40
1
 10
231.029944
 20
195.658431
 30
0.0
 10
230.842434
 20
195.470931
 30
0.0
 10
230.737024
 20
195.216532
 30
0.0
 10
230.737024
 20
194.951333
 30
0.0
  0
SPLINE
  5
233
100
AcDbEntity
  8
Layer_1
 62
1
100
AcDbSpline
 70
8
 71
3
 72
8
 73
4
 74
0
 40
0
 40
0
 40
0
 40
0
 40
1
 40
1
 40
1
 40
1
 10
236.498557
 20
194.951317
 30
0.0
 10
236.498557
 20
194.686117
 30
0.0
 10
236.393253
 20
194.431718
 30
0.0
 10
236.205743
 20
194.244219
 30
0.0
  0
SPLINE
  5
234
100
AcDbEntity
  8
Layer_1
 62
1
100
AcDbSpline
 70
8
 71
3
 72
8
 73
4
 74
0
 40
0
 40
0
 40
0
 40
0
 40
1
 40
1
 40
1
 40
1
 10
236.205743
 20
194.244219
 30
0.0
 10
236.018154
 20
194.056719
 30
0.0
 10
235.763863
 20
193.951318
 30
0.0
 10
235.498565
 20
193.951318
 30
0.0
  0
LINE
  5
235
100
AcDbEntity
  8
Layer_1
 62
1
100
AcDbLine
 10
231.736566
 20
193.951318
 30
0.0
 11
235.499042
 21
193.951318
 31
0.0
  0
SPLINE
  5
236
100
AcDbEntity
  8
Layer_1
 62
1
100
AcDbSpline
 70
8
 71
3
 72
8
 73
4
 74
0
 40
0
 40
0
 40
0
 40
0
 40
1
 40
1
 40
1
 40
1
 10
231.737042
 20
193.951318
 30
0.0
 10
231.471824
 20
193.951318
 30
0.0
 10
231.217533
 20
194.056719
 30
0.0
 10
231.029944
 20
194.244219
 30
0.0
  0
SPLINE
  5
237
100
AcDbEntity
  8
Layer_1
 62
1
100
AcDbSpline
 70
8
 71
3
 72
8
 73
4
 74
0
 40
0
 40
0
 40
0
 40
0
 40
1
 40
1
 40
1
 40
1
 10
231.029944
 20
194.244219
 30
0.0
 10
230.842434
 20
194.431718
 30
0.0
 10
230.737024
 20
194.686117
 30
0.0
 10
230.737024
 20
194.951317
 30
0.0
  0
ENDSEC
  0
SECTION
  2
OBJECTS
  0
DICTIONARY
  5
C
330
0
100
AcDbDictionary
  3
ACAD_GROUP
350
D
  3
ACAD_MLINESTYLE
350
17
  0
DICTIONARY
  5
D
330
C
100
AcDbDictionary
  0
DICTIONARY
  5
1A
330
C
100
AcDbDictionary
  0
DICTIONARY
  5
17
330
C
100
AcDbDictionary
  3
STANDARD
350
18
  0
DICTIONARY
  5
19
330
C
100
AcDbDictionary
  0
ENDSEC
  0
EOF
