  0
SECTION
  2
HEADER
  9
$ACADVER
  1
AC1014
  9
$HANDSEED
  5
FFFF
  9
$INSUNITS
 70
     4
  9
$MEASUREMENT
 70
     1
  0
ENDSEC
  0
SECTION
  2
TABLES
  0
TABLE
  2
VPORT
  5
8
330
0
100
AcDbSymbolTable
 70
     4
  0
VPORT
  5
2E
330
8
100
AcDbSymbolTableRecord
100
AcDbViewportTableRecord
  2
*ACTIVE
 70
     0
 10
0.0
 20
0.0
 11
1.0
 21
1.0
 12
210.0
 22
148.5
 13
0.0
 23
0.0
 14
10.0
 24
10.0
 15
10.0
 25
10.0
 16
0.0
 26
0.0
 36
1.0
 17
0.0
 27
0.0
 37
0.0
 40
341.0
 41
1.24
 42
50.0
 43
0.0
 44
0.0
 50
0.0
 51
0.0
 71
     0
 72
   100
 73
     1
 74
     3
 75
     0
 76
     0
 77
     0
 78
     0
  0
ENDTAB
  0
TABLE
  2
LTYPE
  5
5
330
0
100
AcDbSymbolTable
 70
     1
  0
LTYPE
  5
14
330
5
100
AcDbSymbolTableRecord
100
AcDbLinetypeTableRecord
  2
BYBLOCK
 70
     0
  3

 72
    65
 73
     0
 40
0.0
  0
LTYPE
  5
15
330
5
100
AcDbSymbolTableRecord
100
AcDbLinetypeTableRecord
  2
BYLAYER
 70
     0
  3

 72
    65
 73
     0
 40
0.0
  0
LTYPE
  5
16
330
5
100
AcDbSymbolTableRecord
100
AcDbLinetypeTableRecord
  2
CONTINUOUS
 70
     0
  3
Solid line
 72
    65
 73
     0
 40
0.0
  0
ENDTAB
  0
TABLE
  2
LAYER
  5
2
100
AcDbSymbolTable
 70
4
  0
LAYER
  5
50
100
AcDbSymbolTableRecord
100
AcDbLayerTableRecord
  2
0
 70
0
  6
CONTINUOUS
  0
LAYER
  5
51
100
AcDbSymbolTableRecord
100
AcDbLayerTableRecord
  2
Layer_1
 70
0
  6
CONTINUOUS
  0
LAYER
  5
52
100
AcDbSymbolTableRecord
100
AcDbLayerTableRecord
  2
Accent_Left_Cint
 70
0
  6
CONTINUOUS
  0
LAYER
  5
53
100
AcDbSymbolTableRecord
100
AcDbLayerTableRecord
  2
Accent_Right_Cint
 70
0
  6
CONTINUOUS
  0
ENDTAB
  0
TABLE
  2
STYLE
  5
3
330
0
100
AcDbSymbolTable
 70
     1
  0
STYLE
  5
11
330
3
100
AcDbSymbolTableRecord
100
AcDbTextStyleTableRecord
  2
STANDARD
 70
     0
 40
0.0
 41
1.0
 50
0.0
 71
     0
 42
2.5
  3
txt
  4

  0
ENDTAB
  0
TABLE
  2
VIEW
  5
6
330
0
100
AcDbSymbolTable
 70
     0
  0
ENDTAB
  0
TABLE
  2
UCS
  5
7
330
0
100
AcDbSymbolTable
 70
     0
  0
ENDTAB
  0
TABLE
  2
APPID
  5
9
330
0
100
AcDbSymbolTable
 70
     2
  0
APPID
  5
12
330
9
100
AcDbSymbolTableRecord
100
AcDbRegAppTableRecord
  2
ACAD
 70
     0
  0
ENDTAB
  0
TABLE
  2
DIMSTYLE
  5
A
330
0
100
AcDbSymbolTable
 70
     1
  0
DIMSTYLE
105
27
330
A
100
AcDbSymbolTableRecord
100
AcDbDimStyleTableRecord
  2
ISO-25
 70
     0
  3

  4

  5

  6

  7

 40
1.0
 41
2.5
 42
0.625
 43
3.75
 44
1.25
 45
0.0
 46
0.0
 47
0.0
 48
0.0
140
2.5
141
2.5
142
0.0
143
0.03937007874016
144
1.0
145
0.0
146
1.0
147
0.625
 71
     0
 72
     0
 73
     0
 74
     0
 75
     0
 76
     0
 77
     1
 78
     8
170
     0
171
     3
172
     1
173
     0
174
     0
175
     0
176
     0
177
     0
178
     0
270
     2
271
     2
272
     2
273
     2
274
     3
340
11
275
     0
280
     0
281
     0
282
     0
283
     0
284
     8
285
     0
286
     0
287
     3
288
     0
  0
ENDTAB
  0
TABLE
  2
BLOCK_RECORD
  5
1
330
0
100
AcDbSymbolTable
 70
     1
  0
BLOCK_RECORD
  5
1F
330
1
100
AcDbSymbolTableRecord
100
AcDbBlockTableRecord
  2
*MODEL_SPACE
  0
BLOCK_RECORD
  5
1B
330
1
100
AcDbSymbolTableRecord
100
AcDbBlockTableRecord
  2
*PAPER_SPACE
  0
ENDTAB
  0
ENDSEC
  0
SECTION
  2
BLOCKS
  0
BLOCK
  5
20
330
1F
100
AcDbEntity
  8
0
100
AcDbBlockBegin
  2
*MODEL_SPACE
 70
     0
 10
0.0
 20
0.0
 30
0.0
  3
*MODEL_SPACE
  1

  0
ENDBLK
  5
21
330
1F
100
AcDbEntity
  8
0
100
AcDbBlockEnd
  0
BLOCK
  5
1C
330
1B
100
AcDbEntity
 67
     1
  8
0
100
AcDbBlockBegin
  2
*PAPER_SPACE
  1

  0
ENDBLK
  5
1D
330
1B
100
AcDbEntity
 67
     1
  8
0
100
AcDbBlockEnd
  0
ENDSEC
  0
SECTION
  2
ENTITIES
  0
LINE
  5
100
100
AcDbEntity
  8
Layer_1
 62
1
100
AcDbLine
 10
375.989633
 20
213.485719
 30
0.0
 11
100.239987
 21
213.485719
 31
0.0
  0
LINE
  5
101
100
AcDbEntity
  8
Layer_1
 62
1
100
AcDbLine
 10
379.989633
 20
93.661369
 30
0.0
 11
379.989633
 21
209.486224
 31
0.0
  0
SPLINE
  5
102
100
AcDbEntity
  8
Layer_1
 62
1
100
AcDbSpline
 70
0
 71
3
 72
13
 73
9
 74
7
 40
0.000000
 40
0.000000
 40
0.000000
 40
0.000000
 40
1.047115
 40
2.085540
 40
3.132633
 40
4.179719
 40
5.218143
 40
6.265259
 40
6.265259
 40
6.265259
 40
6.265259
 10
379.989633
 20
209.485724
 30
0.0
 10
379.962970
 20
209.835782
 30
0.0
 10
379.909866
 20
210.532992
 30
0.0
 10
379.490174
 20
211.508370
 30
0.0
 10
378.851566
 20
212.347657
 30
0.0
 10
378.012277
 20
212.986262
 30
0.0
 10
377.036900
 20
213.405951
 30
0.0
 10
376.339691
 20
213.459056
 30
0.0
 10
375.989633
 20
213.485719
 30
0.0
 11
379.989633
 21
209.485724
 31
0.0
 11
379.852596
 21
210.523834
 31
0.0
 11
379.455201
 21
211.483210
 31
0.0
 11
378.818025
 21
212.314119
 31
0.0
 11
377.987119
 21
212.951289
 31
0.0
 11
377.027743
 21
213.348682
 31
0.0
 11
375.989633
 21
213.485719
 31
0.0
  0
LINE
  5
103
100
AcDbEntity
  8
Layer_1
 62
1
100
AcDbLine
 10
100.239987
 20
89.661874
 30
0.0
 11
375.989633
 21
89.661874
 31
0.0
  0
SPLINE
  5
104
100
AcDbEntity
  8
Layer_1
 62
1
100
AcDbSpline
 70
0
 71
3
 72
13
 73
9
 74
7
 40
0.000000
 40
0.000000
 40
0.000000
 40
0.000000
 40
1.047116
 40
2.085540
 40
3.132629
 40
4.179716
 40
5.218139
 40
6.265255
 40
6.265255
 40
6.265255
 40
6.265255
 10
96.239994
 20
93.661869
 30
0.0
 10
96.266657
 20
93.311811
 30
0.0
 10
96.319762
 20
92.614601
 30
0.0
 10
96.739452
 20
91.639224
 30
0.0
 10
97.378053
 20
90.799933
 30
0.0
 10
98.217342
 20
90.161330
 30
0.0
 10
99.192719
 20
89.741642
 30
0.0
 10
99.889929
 20
89.688537
 30
0.0
 10
100.239987
 20
89.661874
 30
0.0
 11
96.239994
 21
93.661869
 31
0.0
 11
96.377032
 21
92.623759
 31
0.0
 11
96.774424
 21
91.664383
 31
0.0
 11
97.411594
 21
90.833473
 31
0.0
 11
98.242501
 21
90.196303
 31
0.0
 11
99.201876
 21
89.798911
 31
0.0
 11
100.239987
 21
89.661874
 31
0.0
  0
LINE
  5
105
100
AcDbEntity
  8
Layer_1
 62
1
100
AcDbLine
 10
96.239994
 20
209.486724
 30
0.0
 11
96.239994
 21
93.661869
 31
0.0
  0
SPLINE
  5
106
100
AcDbEntity
  8
Layer_1
 62
1
100
AcDbSpline
 70
0
 71
3
 72
13
 73
9
 74
7
 40
0.000000
 40
0.000000
 40
0.000000
 40
0.000000
 40
1.047116
 40
2.085539
 40
3.132626
 40
4.179719
 40
5.218144
 40
6.265260
 40
6.265260
 40
6.265260
 40
6.265260
 10
375.989633
 20
89.661874
 30
0.0
 10
376.339691
 20
89.688537
 30
0.0
 10
377.036900
 20
89.741642
 30
0.0
 10
378.012277
 20
90.161330
 30
0.0
 10
378.851566
 20
90.799935
 30
0.0
 10
379.490174
 20
91.639222
 30
0.0
 10
379.909866
 20
92.614601
 30
0.0
 10
379.962970
 20
93.311811
 30
0.0
 10
379.989633
 20
93.661869
 30
0.0
 11
375.989633
 21
89.661874
 31
0.0
 11
377.027743
 21
89.798911
 31
0.0
 11
377.987119
 21
90.196303
 31
0.0
 11
378.818025
 21
90.833473
 31
0.0
 11
379.455201
 21
91.664383
 31
0.0
 11
379.852596
 21
92.623759
 31
0.0
 11
379.989633
 21
93.661869
 31
0.0
  0
LINE
  5
107
100
AcDbEntity
  8
Layer_1
 62
1
100
AcDbLine
 10
305.289430
 20
113.999344
 30
0.0
 11
305.289430
 21
95.899366
 31
0.0
  0
SPLINE
  5
108
100
AcDbEntity
  8
Layer_1
 62
1
100
AcDbSpline
 70
0
 71
3
 72
13
 73
9
 74
7
 40
0.000000
 40
0.000000
 40
0.000000
 40
0.000000
 40
1.047116
 40
2.085539
 40
3.132626
 40
4.179715
 40
5.218139
 40
6.265254
 40
6.265254
 40
6.265254
 40
6.265254
 10
100.239987
 20
213.485719
 30
0.0
 10
99.889929
 20
213.459056
 30
0.0
 10
99.192719
 20
213.405951
 30
0.0
 10
98.217343
 20
212.986262
 30
0.0
 10
97.378053
 20
212.347659
 30
0.0
 10
96.739452
 20
211.508368
 30
0.0
 10
96.319762
 20
210.532992
 30
0.0
 10
96.266657
 20
209.835782
 30
0.0
 10
96.239994
 20
209.485724
 30
0.0
 11
100.239987
 21
213.485719
 31
0.0
 11
99.201876
 21
213.348682
 31
0.0
 11
98.242501
 21
212.951289
 31
0.0
 11
97.411594
 21
212.314119
 31
0.0
 11
96.774424
 21
211.483210
 31
0.0
 11
96.377032
 21
210.523834
 31
0.0
 11
96.239994
 21
209.485724
 31
0.0
  0
LINE
  5
109
100
AcDbEntity
  8
Layer_1
 62
1
100
AcDbLine
 10
170.940083
 20
95.899366
 30
0.0
 11
170.940083
 21
113.999344
 31
0.0
  0
SPLINE
  5
10a
100
AcDbEntity
  8
Layer_1
 62
1
100
AcDbSpline
 70
0
 71
3
 72
13
 73
9
 74
7
 40
0.000000
 40
0.000000
 40
0.000000
 40
0.000000
 40
0.261818
 40
0.521435
 40
0.783220
 40
1.044964
 40
1.304568
 40
1.566339
 40
1.566339
 40
1.566339
 40
1.566339
 10
304.289439
 20
94.899368
 30
0.0
 10
304.376967
 20
94.906035
 30
0.0
 10
304.551288
 20
94.919313
 30
0.0
 10
304.795135
 20
95.024268
 30
0.0
 10
305.005006
 20
95.183856
 30
0.0
 10
305.164616
 20
95.393712
 30
0.0
 10
305.269496
 20
95.637555
 30
0.0
 10
305.282767
 20
95.811854
 30
0.0
 10
305.289430
 20
95.899366
 30
0.0
 11
304.289439
 21
94.899368
 31
0.0
 11
304.549005
 21
94.933638
 31
0.0
 11
304.788856
 21
95.032997
 31
0.0
 11
304.996616
 21
95.192267
 31
0.0
 11
305.155869
 21
95.399989
 31
0.0
 11
305.255184
 21
95.639845
 31
0.0
 11
305.289430
 21
95.899366
 31
0.0
  0
LINE
  5
10b
100
AcDbEntity
  8
Layer_1
 62
1
100
AcDbLine
 10
304.289439
 20
94.899368
 30
0.0
 11
171.940101
 21
94.899368
 31
0.0
  0
SPLINE
  5
10c
100
AcDbEntity
  8
Layer_1
 62
1
100
AcDbSpline
 70
0
 71
3
 72
13
 73
9
 74
7
 40
0.000000
 40
0.000000
 40
0.000000
 40
0.000000
 40
0.261775
 40
0.521399
 40
0.783159
 40
1.044942
 40
1.304539
 40
1.566302
 40
1.566302
 40
1.566302
 40
1.566302
 10
170.940083
 20
95.899366
 30
0.0
 10
170.946753
 20
95.811853
 30
0.0
 10
170.960039
 20
95.637546
 30
0.0
 10
171.064982
 20
95.393714
 30
0.0
 10
171.224611
 20
95.183863
 30
0.0
 10
171.434476
 20
95.024272
 30
0.0
 10
171.678295
 20
94.919318
 30
0.0
 10
171.852591
 20
94.906036
 30
0.0
 10
171.940101
 20
94.899368
 30
0.0
 11
170.940083
 21
95.899366
 31
0.0
 11
170.974356
 21
95.639845
 31
0.0
 11
171.073723
 21
95.399989
 31
0.0
 11
171.233003
 21
95.192267
 31
0.0
 11
171.440760
 21
95.032997
 31
0.0
 11
171.680591
 21
94.933638
 31
0.0
 11
171.940101
 21
94.899368
 31
0.0
  0
LINE
  5
10d
100
AcDbEntity
  8
Layer_1
 62
1
100
AcDbLine
 10
171.940101
 20
114.999343
 30
0.0
 11
304.289439
 21
114.999343
 31
0.0
  0
SPLINE
  5
10e
100
AcDbEntity
  8
Layer_1
 62
1
100
AcDbSpline
 70
0
 71
3
 72
13
 73
9
 74
7
 40
0.000000
 40
0.000000
 40
0.000000
 40
0.000000
 40
0.261771
 40
0.521375
 40
0.783118
 40
1.044903
 40
1.304521
 40
1.566339
 40
1.566339
 40
1.566339
 40
1.566339
 10
305.289430
 20
113.999344
 30
0.0
 10
305.282767
 20
114.086856
 30
0.0
 10
305.269496
 20
114.261155
 30
0.0
 10
305.164616
 20
114.504998
 30
0.0
 10
305.005006
 20
114.714853
 30
0.0
 10
304.795135
 20
114.874441
 30
0.0
 10
304.551289
 20
114.979397
 30
0.0
 10
304.376967
 20
114.992676
 30
0.0
 10
304.289439
 20
114.999343
 30
0.0
 11
305.289430
 21
113.999344
 31
0.0
 11
305.255184
 21
114.258866
 31
0.0
 11
305.155869
 21
114.498720
 31
0.0
 11
304.996616
 21
114.706442
 31
0.0
 11
304.788856
 21
114.865712
 31
0.0
 11
304.549005
 21
114.965072
 31
0.0
 11
304.289439
 21
114.999343
 31
0.0
  0
LINE
  5
10f
100
AcDbEntity
  8
Layer_1
 62
1
100
AcDbLine
 10
190.999023
 20
204.461938
 30
0.0
 11
190.999023
 21
186.361961
 31
0.0
  0
SPLINE
  5
110
100
AcDbEntity
  8
Layer_1
 62
1
100
AcDbSpline
 70
0
 71
3
 72
13
 73
9
 74
7
 40
0.000000
 40
0.000000
 40
0.000000
 40
0.000000
 40
0.261763
 40
0.521361
 40
0.783144
 40
1.044904
 40
1.304527
 40
1.566302
 40
1.566302
 40
1.566302
 40
1.566302
 10
171.940101
 20
114.999343
 30
0.0
 10
171.852591
 20
114.992675
 30
0.0
 10
171.678295
 20
114.979393
 30
0.0
 10
171.434476
 20
114.874437
 30
0.0
 10
171.224612
 20
114.714846
 30
0.0
 10
171.064982
 20
114.504996
 30
0.0
 10
170.960039
 20
114.261164
 30
0.0
 10
170.946753
 20
114.086857
 30
0.0
 10
170.940083
 20
113.999344
 30
0.0
 11
171.940101
 21
114.999343
 31
0.0
 11
171.680591
 21
114.965072
 31
0.0
 11
171.440760
 21
114.865712
 31
0.0
 11
171.233003
 21
114.706442
 31
0.0
 11
171.073723
 21
114.498720
 31
0.0
 11
170.974356
 21
114.258866
 31
0.0
 11
170.940083
 21
113.999344
 31
0.0
  0
LINE
  5
111
100
AcDbEntity
  8
Layer_1
 62
1
100
AcDbLine
 10
113.799604
 20
186.361961
 30
0.0
 11
113.799604
 21
204.461938
 31
0.0
  0
SPLINE
  5
112
100
AcDbEntity
  8
Layer_1
 62
1
100
AcDbSpline
 70
0
 71
3
 72
13
 73
9
 74
7
 40
0.000000
 40
0.000000
 40
0.000000
 40
0.000000
 40
0.261818
 40
0.521435
 40
0.783220
 40
1.044965
 40
1.304569
 40
1.566340
 40
1.566340
 40
1.566340
 40
1.566340
 10
189.999032
 20
185.361961
 30
0.0
 10
190.086560
 20
185.368629
 30
0.0
 10
190.260881
 20
185.381907
 30
0.0
 10
190.504728
 20
185.486861
 30
0.0
 10
190.714599
 20
185.646449
 30
0.0
 10
190.874209
 20
185.856306
 30
0.0
 10
190.979089
 20
186.100150
 30
0.0
 10
190.992360
 20
186.274449
 30
0.0
 10
190.999023
 20
186.361961
 30
0.0
 11
189.999032
 21
185.361961
 31
0.0
 11
190.258598
 21
185.396232
 31
0.0
 11
190.498449
 21
185.495590
 31
0.0
 11
190.706209
 21
185.654860
 31
0.0
 11
190.865462
 21
185.862584
 31
0.0
 11
190.964777
 21
186.102439
 31
0.0
 11
190.999023
 21
186.361961
 31
0.0
  0
LINE
  5
113
100
AcDbEntity
  8
Layer_1
 62
1
100
AcDbLine
 10
189.999270
 20
185.361961
 30
0.0
 11
114.799384
 21
185.361961
 31
0.0
  0
SPLINE
  5
114
100
AcDbEntity
  8
Layer_1
 62
1
100
AcDbSpline
 70
0
 71
3
 72
13
 73
9
 74
7
 40
0.000000
 40
0.000000
 40
0.000000
 40
0.000000
 40
0.261775
 40
0.521399
 40
0.783160
 40
1.044943
 40
1.304540
 40
1.566303
 40
1.566303
 40
1.566303
 40
1.566303
 10
113.799604
 20
186.361961
 30
0.0
 10
113.806274
 20
186.274448
 30
0.0
 10
113.819560
 20
186.100140
 30
0.0
 10
113.924504
 20
185.856308
 30
0.0
 10
114.084132
 20
185.646456
 30
0.0
 10
114.293997
 20
185.486866
 30
0.0
 10
114.537817
 20
185.381911
 30
0.0
 10
114.712112
 20
185.368630
 30
0.0
 10
114.799622
 20
185.361961
 30
0.0
 11
113.799604
 21
186.361961
 31
0.0
 11
113.833877
 21
186.102439
 31
0.0
 11
113.933244
 21
185.862584
 31
0.0
 11
114.092524
 21
185.654860
 31
0.0
 11
114.300281
 21
185.495590
 31
0.0
 11
114.540112
 21
185.396232
 31
0.0
 11
114.799622
 21
185.361961
 31
0.0
  0
LINE
  5
115
100
AcDbEntity
  8
Layer_1
 62
1
100
AcDbLine
 10
114.799384
 20
205.461938
 30
0.0
 11
189.999270
 21
205.461938
 31
0.0
  0
SPLINE
  5
116
100
AcDbEntity
  8
Layer_1
 62
1
100
AcDbSpline
 70
0
 71
3
 72
13
 73
9
 74
7
 40
0.000000
 40
0.000000
 40
0.000000
 40
0.000000
 40
0.261771
 40
0.521375
 40
0.783118
 40
1.044903
 40
1.304521
 40
1.566339
 40
1.566339
 40
1.566339
 40
1.566339
 10
190.999023
 20
204.461938
 30
0.0
 10
190.992360
 20
204.549450
 30
0.0
 10
190.979089
 20
204.723749
 30
0.0
 10
190.874209
 20
204.967592
 30
0.0
 10
190.714599
 20
205.177448
 30
0.0
 10
190.504728
 20
205.337036
 30
0.0
 10
190.260882
 20
205.441992
 30
0.0
 10
190.086560
 20
205.455270
 30
0.0
 10
189.999032
 20
205.461938
 30
0.0
 11
190.999023
 21
204.461938
 31
0.0
 11
190.964777
 21
204.721460
 31
0.0
 11
190.865462
 21
204.961315
 31
0.0
 11
190.706209
 21
205.169036
 31
0.0
 11
190.498449
 21
205.328307
 31
0.0
 11
190.258598
 21
205.427667
 31
0.0
 11
189.999032
 21
205.461938
 31
0.0
  0
LINE
  5
117
100
AcDbEntity
  8
Layer_1
 62
1
100
AcDbLine
 10
362.449023
 20
204.461938
 30
0.0
 11
362.449023
 21
186.361961
 31
0.0
  0
SPLINE
  5
118
100
AcDbEntity
  8
Layer_1
 62
1
100
AcDbSpline
 70
0
 71
3
 72
13
 73
9
 74
7
 40
0.000000
 40
0.000000
 40
0.000000
 40
0.000000
 40
0.261763
 40
0.521361
 40
0.783144
 40
1.044904
 40
1.304527
 40
1.566302
 40
1.566302
 40
1.566302
 40
1.566302
 10
114.799622
 20
205.461938
 30
0.0
 10
114.712112
 20
205.455269
 30
0.0
 10
114.537816
 20
205.441987
 30
0.0
 10
114.293997
 20
205.337032
 30
0.0
 10
114.084133
 20
205.177440
 30
0.0
 10
113.924503
 20
204.967590
 30
0.0
 10
113.819560
 20
204.723759
 30
0.0
 10
113.806274
 20
204.549452
 30
0.0
 10
113.799604
 20
204.461938
 30
0.0
 11
114.799622
 21
205.461938
 31
0.0
 11
114.540112
 21
205.427667
 31
0.0
 11
114.300281
 21
205.328307
 31
0.0
 11
114.092524
 21
205.169036
 31
0.0
 11
113.933244
 21
204.961315
 31
0.0
 11
113.833877
 21
204.721460
 31
0.0
 11
113.799604
 21
204.461938
 31
0.0
  0
LINE
  5
119
100
AcDbEntity
  8
Layer_1
 62
1
100
AcDbLine
 10
285.249604
 20
186.361961
 30
0.0
 11
285.249604
 21
204.461938
 31
0.0
  0
SPLINE
  5
11a
100
AcDbEntity
  8
Layer_1
 62
1
100
AcDbSpline
 70
0
 71
3
 72
13
 73
9
 74
7
 40
0.000000
 40
0.000000
 40
0.000000
 40
0.000000
 40
0.261818
 40
0.521435
 40
0.783220
 40
1.044965
 40
1.304569
 40
1.566340
 40
1.566340
 40
1.566340
 40
1.566340
 10
361.449032
 20
185.361961
 30
0.0
 10
361.536560
 20
185.368629
 30
0.0
 10
361.710881
 20
185.381907
 30
0.0
 10
361.954728
 20
185.486861
 30
0.0
 10
362.164599
 20
185.646449
 30
0.0
 10
362.324209
 20
185.856306
 30
0.0
 10
362.429089
 20
186.100150
 30
0.0
 10
362.442360
 20
186.274449
 30
0.0
 10
362.449023
 20
186.361961
 30
0.0
 11
361.449032
 21
185.361961
 31
0.0
 11
361.708598
 21
185.396232
 31
0.0
 11
361.948449
 21
185.495590
 31
0.0
 11
362.156209
 21
185.654860
 31
0.0
 11
362.315462
 21
185.862584
 31
0.0
 11
362.414777
 21
186.102439
 31
0.0
 11
362.449023
 21
186.361961
 31
0.0
  0
LINE
  5
11b
100
AcDbEntity
  8
Layer_1
 62
1
100
AcDbLine
 10
361.449270
 20
185.361961
 30
0.0
 11
286.249384
 21
185.361961
 31
0.0
  0
SPLINE
  5
11c
100
AcDbEntity
  8
Layer_1
 62
1
100
AcDbSpline
 70
0
 71
3
 72
13
 73
9
 74
7
 40
0.000000
 40
0.000000
 40
0.000000
 40
0.000000
 40
0.261775
 40
0.521399
 40
0.783160
 40
1.044943
 40
1.304540
 40
1.566303
 40
1.566303
 40
1.566303
 40
1.566303
 10
285.249604
 20
186.361961
 30
0.0
 10
285.256274
 20
186.274448
 30
0.0
 10
285.269560
 20
186.100140
 30
0.0
 10
285.374504
 20
185.856308
 30
0.0
 10
285.534132
 20
185.646456
 30
0.0
 10
285.743997
 20
185.486866
 30
0.0
 10
285.987817
 20
185.381911
 30
0.0
 10
286.162112
 20
185.368630
 30
0.0
 10
286.249622
 20
185.361961
 30
0.0
 11
285.249604
 21
186.361961
 31
0.0
 11
285.283877
 21
186.102439
 31
0.0
 11
285.383244
 21
185.862584
 31
0.0
 11
285.542524
 21
185.654860
 31
0.0
 11
285.750281
 21
185.495590
 31
0.0
 11
285.990112
 21
185.396232
 31
0.0
 11
286.249622
 21
185.361961
 31
0.0
  0
LINE
  5
11d
100
AcDbEntity
  8
Layer_1
 62
1
100
AcDbLine
 10
286.249384
 20
205.461938
 30
0.0
 11
361.449270
 21
205.461938
 31
0.0
  0
SPLINE
  5
11e
100
AcDbEntity
  8
Layer_1
 62
1
100
AcDbSpline
 70
0
 71
3
 72
13
 73
9
 74
7
 40
0.000000
 40
0.000000
 40
0.000000
 40
0.000000
 40
0.261771
 40
0.521375
 40
0.783118
 40
1.044903
 40
1.304521
 40
1.566339
 40
1.566339
 40
1.566339
 40
1.566339
 10
362.449023
 20
204.461938
 30
0.0
 10
362.442360
 20
204.549450
 30
0.0
 10
362.429089
 20
204.723749
 30
0.0
 10
362.324209
 20
204.967592
 30
0.0
 10
362.164599
 20
205.177448
 30
0.0
 10
361.954728
 20
205.337036
 30
0.0
 10
361.710882
 20
205.441992
 30
0.0
 10
361.536560
 20
205.455270
 30
0.0
 10
361.449032
 20
205.461938
 30
0.0
 11
362.449023
 21
204.461938
 31
0.0
 11
362.414777
 21
204.721460
 31
0.0
 11
362.315462
 21
204.961315
 31
0.0
 11
362.156209
 21
205.169036
 31
0.0
 11
361.948449
 21
205.328307
 31
0.0
 11
361.708598
 21
205.427667
 31
0.0
 11
361.449032
 21
205.461938
 31
0.0
  0
LINE
  5
11f
100
AcDbEntity
  8
Layer_1
 62
1
100
AcDbLine
 10
276.723023
 20
204.461938
 30
0.0
 11
276.723023
 21
186.361961
 31
0.0
  0
SPLINE
  5
120
100
AcDbEntity
  8
Layer_1
 62
1
100
AcDbSpline
 70
0
 71
3
 72
13
 73
9
 74
7
 40
0.000000
 40
0.000000
 40
0.000000
 40
0.000000
 40
0.261763
 40
0.521361
 40
0.783144
 40
1.044904
 40
1.304527
 40
1.566302
 40
1.566302
 40
1.566302
 40
1.566302
 10
286.249622
 20
205.461938
 30
0.0
 10
286.162112
 20
205.455269
 30
0.0
 10
285.987816
 20
205.441987
 30
0.0
 10
285.743997
 20
205.337032
 30
0.0
 10
285.534133
 20
205.177440
 30
0.0
 10
285.374503
 20
204.967590
 30
0.0
 10
285.269560
 20
204.723759
 30
0.0
 10
285.256274
 20
204.549452
 30
0.0
 10
285.249604
 20
204.461938
 30
0.0
 11
286.249622
 21
205.461938
 31
0.0
 11
285.990112
 21
205.427667
 31
0.0
 11
285.750281
 21
205.328307
 31
0.0
 11
285.542524
 21
205.169036
 31
0.0
 11
285.383244
 21
204.961315
 31
0.0
 11
285.283877
 21
204.721460
 31
0.0
 11
285.249604
 21
204.461938
 31
0.0
  0
LINE
  5
121
100
AcDbEntity
  8
Layer_1
 62
1
100
AcDbLine
 10
199.523604
 20
186.361961
 30
0.0
 11
199.523604
 21
204.461938
 31
0.0
  0
SPLINE
  5
122
100
AcDbEntity
  8
Layer_1
 62
1
100
AcDbSpline
 70
0
 71
3
 72
13
 73
9
 74
7
 40
0.000000
 40
0.000000
 40
0.000000
 40
0.000000
 40
0.261818
 40
0.521435
 40
0.783220
 40
1.044965
 40
1.304569
 40
1.566340
 40
1.566340
 40
1.566340
 40
1.566340
 10
275.723032
 20
185.361961
 30
0.0
 10
275.810560
 20
185.368629
 30
0.0
 10
275.984881
 20
185.381907
 30
0.0
 10
276.228728
 20
185.486861
 30
0.0
 10
276.438599
 20
185.646449
 30
0.0
 10
276.598209
 20
185.856306
 30
0.0
 10
276.703089
 20
186.100150
 30
0.0
 10
276.716360
 20
186.274449
 30
0.0
 10
276.723023
 20
186.361961
 30
0.0
 11
275.723032
 21
185.361961
 31
0.0
 11
275.982598
 21
185.396232
 31
0.0
 11
276.222449
 21
185.495590
 31
0.0
 11
276.430209
 21
185.654860
 31
0.0
 11
276.589462
 21
185.862584
 31
0.0
 11
276.688777
 21
186.102439
 31
0.0
 11
276.723023
 21
186.361961
 31
0.0
  0
LINE
  5
123
100
AcDbEntity
  8
Layer_1
 62
1
100
AcDbLine
 10
275.723270
 20
185.361961
 30
0.0
 11
200.523384
 21
185.361961
 31
0.0
  0
SPLINE
  5
124
100
AcDbEntity
  8
Layer_1
 62
1
100
AcDbSpline
 70
0
 71
3
 72
13
 73
9
 74
7
 40
0.000000
 40
0.000000
 40
0.000000
 40
0.000000
 40
0.261775
 40
0.521399
 40
0.783160
 40
1.044943
 40
1.304540
 40
1.566303
 40
1.566303
 40
1.566303
 40
1.566303
 10
199.523604
 20
186.361961
 30
0.0
 10
199.530274
 20
186.274448
 30
0.0
 10
199.543560
 20
186.100140
 30
0.0
 10
199.648504
 20
185.856308
 30
0.0
 10
199.808132
 20
185.646456
 30
0.0
 10
200.017997
 20
185.486866
 30
0.0
 10
200.261817
 20
185.381911
 30
0.0
 10
200.436112
 20
185.368630
 30
0.0
 10
200.523622
 20
185.361961
 30
0.0
 11
199.523604
 21
186.361961
 31
0.0
 11
199.557877
 21
186.102439
 31
0.0
 11
199.657244
 21
185.862584
 31
0.0
 11
199.816524
 21
185.654860
 31
0.0
 11
200.024281
 21
185.495590
 31
0.0
 11
200.264112
 21
185.396232
 31
0.0
 11
200.523622
 21
185.361961
 31
0.0
  0
LINE
  5
125
100
AcDbEntity
  8
Layer_1
 62
1
100
AcDbLine
 10
200.523384
 20
205.461938
 30
0.0
 11
275.723270
 21
205.461938
 31
0.0
  0
SPLINE
  5
126
100
AcDbEntity
  8
Layer_1
 62
1
100
AcDbSpline
 70
0
 71
3
 72
13
 73
9
 74
7
 40
0.000000
 40
0.000000
 40
0.000000
 40
0.000000
 40
0.261771
 40
0.521375
 40
0.783118
 40
1.044903
 40
1.304521
 40
1.566339
 40
1.566339
 40
1.566339
 40
1.566339
 10
276.723023
 20
204.461938
 30
0.0
 10
276.716360
 20
204.549450
 30
0.0
 10
276.703089
 20
204.723749
 30
0.0
 10
276.598209
 20
204.967592
 30
0.0
 10
276.438599
 20
205.177448
 30
0.0
 10
276.228728
 20
205.337036
 30
0.0
 10
275.984882
 20
205.441992
 30
0.0
 10
275.810560
 20
205.455270
 30
0.0
 10
275.723032
 20
205.461938
 30
0.0
 11
276.723023
 21
204.461938
 31
0.0
 11
276.688777
 21
204.721460
 31
0.0
 11
276.589462
 21
204.961315
 31
0.0
 11
276.430209
 21
205.169036
 31
0.0
 11
276.222449
 21
205.328307
 31
0.0
 11
275.982598
 21
205.427667
 31
0.0
 11
275.723032
 21
205.461938
 31
0.0
  0
LINE
  5
127
100
AcDbEntity
  8
Layer_1
 62
1
100
AcDbLine
 10
166.202407
 20
99.661861
 30
0.0
 11
110.002464
 21
99.661861
 31
0.0
  0
SPLINE
  5
128
100
AcDbEntity
  8
Layer_1
 62
1
100
AcDbSpline
 70
0
 71
3
 72
13
 73
9
 74
7
 40
0.000000
 40
0.000000
 40
0.000000
 40
0.000000
 40
0.261763
 40
0.521361
 40
0.783144
 40
1.044904
 40
1.304527
 40
1.566302
 40
1.566302
 40
1.566302
 40
1.566302
 10
200.523622
 20
205.461938
 30
0.0
 10
200.436112
 20
205.455269
 30
0.0
 10
200.261816
 20
205.441987
 30
0.0
 10
200.017997
 20
205.337032
 30
0.0
 10
199.808133
 20
205.177440
 30
0.0
 10
199.648503
 20
204.967590
 30
0.0
 10
199.543560
 20
204.723759
 30
0.0
 10
199.530274
 20
204.549452
 30
0.0
 10
199.523604
 20
204.461938
 30
0.0
 11
200.523622
 21
205.461938
 31
0.0
 11
200.264112
 21
205.427667
 31
0.0
 11
200.024281
 21
205.328307
 31
0.0
 11
199.816524
 21
205.169036
 31
0.0
 11
199.657244
 21
204.961315
 31
0.0
 11
199.557877
 21
204.721460
 31
0.0
 11
199.523604
 21
204.461938
 31
0.0
  0
LINE
  5
129
100
AcDbEntity
  8
Layer_1
 62
1
100
AcDbLine
 10
109.002473
 20
100.661860
 30
0.0
 11
109.002473
 21
117.711838
 31
0.0
  0
SPLINE
  5
12a
100
AcDbEntity
  8
Layer_1
 62
1
100
AcDbSpline
 70
0
 71
3
 72
13
 73
9
 74
7
 40
0.000000
 40
0.000000
 40
0.000000
 40
0.000000
 40
0.261775
 40
0.521395
 40
0.783144
 40
1.044904
 40
1.304524
 40
1.566293
 40
1.566293
 40
1.566293
 40
1.566293
 10
109.002473
 20
100.661860
 30
0.0
 10
109.009143
 20
100.574347
 30
0.0
 10
109.022429
 20
100.400041
 30
0.0
 10
109.127364
 20
100.156212
 30
0.0
 10
109.286973
 20
99.946364
 30
0.0
 10
109.496818
 20
99.786751
 30
0.0
 10
109.740649
 20
99.681815
 30
0.0
 10
109.914953
 20
99.668531
 30
0.0
 10
110.002464
 20
99.661861
 30
0.0
 11
109.002473
 21
100.661860
 31
0.0
 11
109.036745
 21
100.402339
 31
0.0
 11
109.136105
 21
100.162484
 31
0.0
 11
109.295366
 21
99.954762
 31
0.0
 11
109.503094
 21
99.795491
 31
0.0
 11
109.742948
 21
99.696131
 31
0.0
 11
110.002464
 21
99.661861
 31
0.0
  0
LINE
  5
12b
100
AcDbEntity
  8
Layer_1
 62
1
100
AcDbLine
 10
108.002481
 20
118.711837
 30
0.0
 11
105.239970
 21
118.711837
 31
0.0
  0
SPLINE
  5
12c
100
AcDbEntity
  8
Layer_1
 62
1
100
AcDbSpline
 70
0
 71
3
 72
13
 73
9
 74
7
 40
0.000000
 40
0.000000
 40
0.000000
 40
0.000000
 40
0.261776
 40
0.521397
 40
0.783146
 40
1.044905
 40
1.304525
 40
1.566294
 40
1.566294
 40
1.566294
 40
1.566294
 10
109.002473
 20
117.711838
 30
0.0
 10
108.995802
 20
117.799351
 30
0.0
 10
108.982517
 20
117.973657
 30
0.0
 10
108.877582
 20
118.217487
 30
0.0
 10
108.717973
 20
118.427336
 30
0.0
 10
108.508127
 20
118.586948
 30
0.0
 10
108.264296
 20
118.691883
 30
0.0
 10
108.089992
 20
118.705167
 30
0.0
 10
108.002481
 20
118.711837
 30
0.0
 11
109.002473
 21
117.711838
 31
0.0
 11
108.968200
 21
117.971360
 31
0.0
 11
108.868841
 21
118.211216
 31
0.0
 11
108.709579
 21
118.418938
 31
0.0
 11
108.501851
 21
118.578208
 31
0.0
 11
108.261997
 21
118.677567
 31
0.0
 11
108.002481
 21
118.711837
 31
0.0
  0
LINE
  5
12d
100
AcDbEntity
  8
Layer_1
 62
1
100
AcDbLine
 10
104.239979
 20
119.711836
 30
0.0
 11
104.239979
 21
175.911766
 31
0.0
  0
SPLINE
  5
12e
100
AcDbEntity
  8
Layer_1
 62
1
100
AcDbSpline
 70
0
 71
3
 72
13
 73
9
 74
7
 40
0.000000
 40
0.000000
 40
0.000000
 40
0.000000
 40
0.261775
 40
0.521395
 40
0.783144
 40
1.044904
 40
1.304524
 40
1.566293
 40
1.566293
 40
1.566293
 40
1.566293
 10
104.239979
 20
119.711836
 30
0.0
 10
104.246649
 20
119.624323
 30
0.0
 10
104.259935
 20
119.450017
 30
0.0
 10
104.364870
 20
119.206188
 30
0.0
 10
104.524479
 20
118.996340
 30
0.0
 10
104.734324
 20
118.836727
 30
0.0
 10
104.978155
 20
118.731791
 30
0.0
 10
105.152459
 20
118.718507
 30
0.0
 10
105.239970
 20
118.711837
 30
0.0
 11
104.239979
 21
119.711836
 31
0.0
 11
104.274251
 21
119.452315
 31
0.0
 11
104.373611
 21
119.212460
 31
0.0
 11
104.532872
 21
119.004738
 31
0.0
 11
104.740600
 21
118.845467
 31
0.0
 11
104.980454
 21
118.746107
 31
0.0
 11
105.239970
 21
118.711837
 31
0.0
  0
LINE
  5
12f
100
AcDbEntity
  8
Layer_1
 62
1
100
AcDbLine
 10
105.239970
 20
176.911765
 30
0.0
 11
218.589841
 21
176.911765
 31
0.0
  0
SPLINE
  5
130
100
AcDbEntity
  8
Layer_1
 62
1
100
AcDbSpline
 70
0
 71
3
 72
13
 73
9
 74
7
 40
0.000000
 40
0.000000
 40
0.000000
 40
0.000000
 40
0.261769
 40
0.521389
 40
0.783148
 40
1.044897
 40
1.304517
 40
1.566292
 40
1.566292
 40
1.566292
 40
1.566292
 10
105.239970
 20
176.911765
 30
0.0
 10
105.152459
 20
176.905095
 30
0.0
 10
104.978155
 20
176.891810
 30
0.0
 10
104.734325
 20
176.786874
 30
0.0
 10
104.524479
 20
176.627262
 30
0.0
 10
104.364870
 20
176.417414
 30
0.0
 10
104.259935
 20
176.173585
 30
0.0
 10
104.246649
 20
175.999279
 30
0.0
 10
104.239979
 20
175.911766
 30
0.0
 11
105.239970
 21
176.911765
 31
0.0
 11
104.980454
 21
176.877494
 31
0.0
 11
104.740600
 21
176.778134
 31
0.0
 11
104.532872
 21
176.618864
 31
0.0
 11
104.373611
 21
176.411142
 31
0.0
 11
104.274251
 21
176.171288
 31
0.0
 11
104.239979
 21
175.911766
 31
0.0
  0
LINE
  5
131
100
AcDbEntity
  8
Layer_1
 62
1
100
AcDbLine
 10
219.589832
 20
175.911766
 30
0.0
 11
219.589832
 21
158.861786
 31
0.0
  0
SPLINE
  5
132
100
AcDbEntity
  8
Layer_1
 62
1
100
AcDbSpline
 70
0
 71
3
 72
13
 73
9
 74
7
 40
0.000000
 40
0.000000
 40
0.000000
 40
0.000000
 40
0.261775
 40
0.521395
 40
0.783144
 40
1.044903
 40
1.304523
 40
1.566292
 40
1.566292
 40
1.566292
 40
1.566292
 10
219.589832
 20
175.911766
 30
0.0
 10
219.583162
 20
175.999279
 30
0.0
 10
219.569876
 20
176.173585
 30
0.0
 10
219.464941
 20
176.417414
 30
0.0
 10
219.305332
 20
176.627262
 30
0.0
 10
219.095486
 20
176.786874
 30
0.0
 10
218.851656
 20
176.891810
 30
0.0
 10
218.677352
 20
176.905095
 30
0.0
 10
218.589841
 20
176.911765
 30
0.0
 11
219.589832
 21
175.911766
 31
0.0
 11
219.555560
 21
176.171288
 31
0.0
 11
219.456200
 21
176.411142
 31
0.0
 11
219.296939
 21
176.618864
 31
0.0
 11
219.089211
 21
176.778134
 31
0.0
 11
218.849357
 21
176.877494
 31
0.0
 11
218.589841
 21
176.911765
 31
0.0
  0
LINE
  5
133
100
AcDbEntity
  8
Layer_1
 62
1
100
AcDbLine
 10
220.589824
 20
157.861789
 30
0.0
 11
223.352335
 21
157.861789
 31
0.0
  0
SPLINE
  5
134
100
AcDbEntity
  8
Layer_1
 62
1
100
AcDbSpline
 70
0
 71
3
 72
13
 73
9
 74
7
 40
0.000000
 40
0.000000
 40
0.000000
 40
0.000000
 40
0.261775
 40
0.521395
 40
0.783144
 40
1.044903
 40
1.304522
 40
1.566291
 40
1.566291
 40
1.566291
 40
1.566291
 10
219.589832
 20
158.861786
 30
0.0
 10
219.596503
 20
158.774273
 30
0.0
 10
219.609788
 20
158.599967
 30
0.0
 10
219.714724
 20
158.356138
 30
0.0
 10
219.874332
 20
158.146290
 30
0.0
 10
220.084179
 20
157.986679
 30
0.0
 10
220.328009
 20
157.881744
 30
0.0
 10
220.502313
 20
157.868459
 30
0.0
 10
220.589824
 20
157.861789
 30
0.0
 11
219.589832
 21
158.861786
 31
0.0
 11
219.624105
 21
158.602264
 31
0.0
 11
219.723464
 21
158.362410
 31
0.0
 11
219.882726
 21
158.154688
 31
0.0
 11
220.090454
 21
157.995418
 31
0.0
 11
220.330308
 21
157.896059
 31
0.0
 11
220.589824
 21
157.861789
 31
0.0
  0
LINE
  5
135
100
AcDbEntity
  8
Layer_1
 62
1
100
AcDbLine
 10
224.352326
 20
156.861790
 30
0.0
 11
224.352326
 21
139.811810
 31
0.0
  0
SPLINE
  5
136
100
AcDbEntity
  8
Layer_1
 62
1
100
AcDbSpline
 70
0
 71
3
 72
13
 73
9
 74
7
 40
0.000000
 40
0.000000
 40
0.000000
 40
0.000000
 40
0.261775
 40
0.521395
 40
0.783144
 40
1.044903
 40
1.304523
 40
1.566292
 40
1.566292
 40
1.566292
 40
1.566292
 10
224.352326
 20
156.861790
 30
0.0
 10
224.345656
 20
156.949303
 30
0.0
 10
224.332370
 20
157.123609
 30
0.0
 10
224.227435
 20
157.367438
 30
0.0
 10
224.067826
 20
157.577286
 30
0.0
 10
223.857980
 20
157.736898
 30
0.0
 10
223.614150
 20
157.841834
 30
0.0
 10
223.439846
 20
157.855119
 30
0.0
 10
223.352335
 20
157.861789
 30
0.0
 11
224.352326
 21
156.861790
 31
0.0
 11
224.318054
 21
157.121312
 31
0.0
 11
224.218694
 21
157.361166
 31
0.0
 11
224.059433
 21
157.568888
 31
0.0
 11
223.851705
 21
157.728158
 31
0.0
 11
223.611851
 21
157.827518
 31
0.0
 11
223.352335
 21
157.861789
 31
0.0
  0
LINE
  5
137
100
AcDbEntity
  8
Layer_1
 62
1
100
AcDbLine
 10
225.352318
 20
138.811813
 30
0.0
 11
232.877323
 21
138.811813
 31
0.0
  0
SPLINE
  5
138
100
AcDbEntity
  8
Layer_1
 62
1
100
AcDbSpline
 70
0
 71
3
 72
13
 73
9
 74
7
 40
0.000000
 40
0.000000
 40
0.000000
 40
0.000000
 40
0.261775
 40
0.521395
 40
0.783144
 40
1.044903
 40
1.304522
 40
1.566291
 40
1.566291
 40
1.566291
 40
1.566291
 10
224.352326
 20
139.811810
 30
0.0
 10
224.358997
 20
139.724297
 30
0.0
 10
224.372282
 20
139.549991
 30
0.0
 10
224.477218
 20
139.306162
 30
0.0
 10
224.636826
 20
139.096314
 30
0.0
 10
224.846673
 20
138.936703
 30
0.0
 10
225.090503
 20
138.831768
 30
0.0
 10
225.264807
 20
138.818483
 30
0.0
 10
225.352318
 20
138.811813
 30
0.0
 11
224.352326
 21
139.811810
 31
0.0
 11
224.386599
 21
139.552288
 31
0.0
 11
224.485958
 21
139.312434
 31
0.0
 11
224.645220
 21
139.104712
 31
0.0
 11
224.852948
 21
138.945442
 31
0.0
 11
225.092802
 21
138.846083
 31
0.0
 11
225.352318
 21
138.811813
 31
0.0
  0
LINE
  5
139
100
AcDbEntity
  8
Layer_1
 62
1
100
AcDbLine
 10
233.877314
 20
137.811814
 30
0.0
 11
233.877314
 21
119.711836
 31
0.0
  0
SPLINE
  5
13a
100
AcDbEntity
  8
Layer_1
 62
1
100
AcDbSpline
 70
0
 71
3
 72
13
 73
9
 74
7
 40
0.000000
 40
0.000000
 40
0.000000
 40
0.000000
 40
0.261775
 40
0.521395
 40
0.783144
 40
1.044903
 40
1.304523
 40
1.566292
 40
1.566292
 40
1.566292
 40
1.566292
 10
233.877314
 20
137.811814
 30
0.0
 10
233.870644
 20
137.899327
 30
0.0
 10
233.857358
 20
138.073633
 30
0.0
 10
233.752423
 20
138.317462
 30
0.0
 10
233.592814
 20
138.527310
 30
0.0
 10
233.382968
 20
138.686922
 30
0.0
 10
233.139138
 20
138.791858
 30
0.0
 10
232.964834
 20
138.805143
 30
0.0
 10
232.877323
 20
138.811813
 30
0.0
 11
233.877314
 21
137.811814
 31
0.0
 11
233.843042
 21
138.071336
 31
0.0
 11
233.743682
 21
138.311190
 31
0.0
 11
233.584421
 21
138.518912
 31
0.0
 11
233.376693
 21
138.678182
 31
0.0
 11
233.136839
 21
138.777542
 31
0.0
 11
232.877323
 21
138.811813
 31
0.0
  0
LINE
  5
13b
100
AcDbEntity
  8
Layer_1
 62
1
100
AcDbLine
 10
232.877323
 20
118.711837
 30
0.0
 11
168.202390
 21
118.711837
 31
0.0
  0
SPLINE
  5
13c
100
AcDbEntity
  8
Layer_1
 62
1
100
AcDbSpline
 70
0
 71
3
 72
13
 73
9
 74
7
 40
0.000000
 40
0.000000
 40
0.000000
 40
0.000000
 40
0.261769
 40
0.521388
 40
0.783149
 40
1.044897
 40
1.304518
 40
1.566293
 40
1.566293
 40
1.566293
 40
1.566293
 10
232.877323
 20
118.711837
 30
0.0
 10
232.964834
 20
118.718507
 30
0.0
 10
233.139138
 20
118.731791
 30
0.0
 10
233.382969
 20
118.836727
 30
0.0
 10
233.592814
 20
118.996340
 30
0.0
 10
233.752423
 20
119.206188
 30
0.0
 10
233.857358
 20
119.450017
 30
0.0
 10
233.870644
 20
119.624323
 30
0.0
 10
233.877314
 20
119.711836
 30
0.0
 11
232.877323
 21
118.711837
 31
0.0
 11
233.136839
 21
118.746107
 31
0.0
 11
233.376693
 21
118.845467
 31
0.0
 11
233.584421
 21
119.004738
 31
0.0
 11
233.743682
 21
119.212460
 31
0.0
 11
233.843042
 21
119.452315
 31
0.0
 11
233.877314
 21
119.711836
 31
0.0
  0
LINE
  5
13d
100
AcDbEntity
  8
Layer_1
 62
1
100
AcDbLine
 10
167.202398
 20
117.711838
 30
0.0
 11
167.202398
 21
100.661860
 31
0.0
  0
SPLINE
  5
13e
100
AcDbEntity
  8
Layer_1
 62
1
100
AcDbSpline
 70
0
 71
3
 72
13
 73
9
 74
7
 40
0.000000
 40
0.000000
 40
0.000000
 40
0.000000
 40
0.261769
 40
0.521388
 40
0.783147
 40
1.044896
 40
1.304518
 40
1.566294
 40
1.566294
 40
1.566294
 40
1.566294
 10
168.202390
 20
118.711837
 30
0.0
 10
168.114879
 20
118.705167
 30
0.0
 10
167.940575
 20
118.691883
 30
0.0
 10
167.696745
 20
118.586948
 30
0.0
 10
167.486898
 20
118.427336
 30
0.0
 10
167.327290
 20
118.217487
 30
0.0
 10
167.222354
 20
117.973657
 30
0.0
 10
167.209069
 20
117.799351
 30
0.0
 10
167.202398
 20
117.711838
 30
0.0
 11
168.202390
 21
118.711837
 31
0.0
 11
167.942874
 21
118.677567
 31
0.0
 11
167.703020
 21
118.578208
 31
0.0
 11
167.495292
 21
118.418938
 31
0.0
 11
167.336030
 21
118.211216
 31
0.0
 11
167.236671
 21
117.971360
 31
0.0
 11
167.202398
 21
117.711838
 31
0.0
  0
LINE
  5
13f
100
AcDbEntity
  8
Layer_1
 62
1
100
AcDbLine
 10
238.589802
 20
176.911765
 30
0.0
 11
370.989649
 21
176.911765
 31
0.0
  0
SPLINE
  5
140
100
AcDbEntity
  8
Layer_1
 62
1
100
AcDbSpline
 70
0
 71
3
 72
13
 73
9
 74
7
 40
0.000000
 40
0.000000
 40
0.000000
 40
0.000000
 40
0.261769
 40
0.521388
 40
0.783149
 40
1.044897
 40
1.304518
 40
1.566293
 40
1.566293
 40
1.566293
 40
1.566293
 10
166.202407
 20
99.661861
 30
0.0
 10
166.289918
 20
99.668531
 30
0.0
 10
166.464222
 20
99.681815
 30
0.0
 10
166.708053
 20
99.786751
 30
0.0
 10
166.917898
 20
99.946364
 30
0.0
 10
167.077507
 20
100.156212
 30
0.0
 10
167.182442
 20
100.400041
 30
0.0
 10
167.195728
 20
100.574347
 30
0.0
 10
167.202398
 20
100.661860
 30
0.0
 11
166.202407
 21
99.661861
 31
0.0
 11
166.461923
 21
99.696131
 31
0.0
 11
166.701777
 21
99.795491
 31
0.0
 11
166.909505
 21
99.954762
 31
0.0
 11
167.068766
 21
100.162484
 31
0.0
 11
167.168126
 21
100.402339
 31
0.0
 11
167.202398
 21
100.661860
 31
0.0
  0
LINE
  5
141
100
AcDbEntity
  8
Layer_1
 62
1
100
AcDbLine
 10
371.989640
 20
175.911766
 30
0.0
 11
371.989640
 21
119.711836
 31
0.0
  0
SPLINE
  5
142
100
AcDbEntity
  8
Layer_1
 62
1
100
AcDbSpline
 70
0
 71
3
 72
13
 73
9
 74
7
 40
0.000000
 40
0.000000
 40
0.000000
 40
0.000000
 40
0.261775
 40
0.521395
 40
0.783144
 40
1.044903
 40
1.304523
 40
1.566292
 40
1.566292
 40
1.566292
 40
1.566292
 10
371.989640
 20
175.911766
 30
0.0
 10
371.982970
 20
175.999279
 30
0.0
 10
371.969684
 20
176.173585
 30
0.0
 10
371.864749
 20
176.417414
 30
0.0
 10
371.705140
 20
176.627262
 30
0.0
 10
371.495294
 20
176.786874
 30
0.0
 10
371.251464
 20
176.891810
 30
0.0
 10
371.077160
 20
176.905095
 30
0.0
 10
370.989649
 20
176.911765
 30
0.0
 11
371.989640
 21
175.911766
 31
0.0
 11
371.955368
 21
176.171288
 31
0.0
 11
371.856008
 21
176.411142
 31
0.0
 11
371.696747
 21
176.618864
 31
0.0
 11
371.489019
 21
176.778134
 31
0.0
 11
371.249165
 21
176.877494
 31
0.0
 11
370.989649
 21
176.911765
 31
0.0
  0
LINE
  5
143
100
AcDbEntity
  8
Layer_1
 62
1
100
AcDbLine
 10
370.989649
 20
118.711837
 30
0.0
 11
368.227138
 21
118.711837
 31
0.0
  0
SPLINE
  5
144
100
AcDbEntity
  8
Layer_1
 62
1
100
AcDbSpline
 70
0
 71
3
 72
13
 73
9
 74
7
 40
0.000000
 40
0.000000
 40
0.000000
 40
0.000000
 40
0.261769
 40
0.521388
 40
0.783149
 40
1.044897
 40
1.304518
 40
1.566293
 40
1.566293
 40
1.566293
 40
1.566293
 10
370.989649
 20
118.711837
 30
0.0
 10
371.077160
 20
118.718507
 30
0.0
 10
371.251464
 20
118.731791
 30
0.0
 10
371.495295
 20
118.836727
 30
0.0
 10
371.705140
 20
118.996340
 30
0.0
 10
371.864749
 20
119.206188
 30
0.0
 10
371.969684
 20
119.450017
 30
0.0
 10
371.982970
 20
119.624323
 30
0.0
 10
371.989640
 20
119.711836
 30
0.0
 11
370.989649
 21
118.711837
 31
0.0
 11
371.249165
 21
118.746107
 31
0.0
 11
371.489019
 21
118.845467
 31
0.0
 11
371.696747
 21
119.004738
 31
0.0
 11
371.856008
 21
119.212460
 31
0.0
 11
371.955368
 21
119.452315
 31
0.0
 11
371.989640
 21
119.711836
 31
0.0
  0
LINE
  5
145
100
AcDbEntity
  8
Layer_1
 62
1
100
AcDbLine
 10
367.227146
 20
117.711838
 30
0.0
 11
367.227146
 21
100.661860
 31
0.0
  0
SPLINE
  5
146
100
AcDbEntity
  8
Layer_1
 62
1
100
AcDbSpline
 70
0
 71
3
 72
13
 73
9
 74
7
 40
0.000000
 40
0.000000
 40
0.000000
 40
0.000000
 40
0.261769
 40
0.521388
 40
0.783147
 40
1.044896
 40
1.304518
 40
1.566294
 40
1.566294
 40
1.566294
 40
1.566294
 10
368.227138
 20
118.711837
 30
0.0
 10
368.139627
 20
118.705167
 30
0.0
 10
367.965323
 20
118.691883
 30
0.0
 10
367.721493
 20
118.586948
 30
0.0
 10
367.511646
 20
118.427336
 30
0.0
 10
367.352038
 20
118.217487
 30
0.0
 10
367.247102
 20
117.973657
 30
0.0
 10
367.233817
 20
117.799351
 30
0.0
 10
367.227146
 20
117.711838
 30
0.0
 11
368.227138
 21
118.711837
 31
0.0
 11
367.967622
 21
118.677567
 31
0.0
 11
367.727768
 21
118.578208
 31
0.0
 11
367.520040
 21
118.418938
 31
0.0
 11
367.360778
 21
118.211216
 31
0.0
 11
367.261419
 21
117.971360
 31
0.0
 11
367.227146
 21
117.711838
 31
0.0
  0
LINE
  5
147
100
AcDbEntity
  8
Layer_1
 62
1
100
AcDbLine
 10
366.227155
 20
99.661861
 30
0.0
 11
310.027212
 21
99.661861
 31
0.0
  0
SPLINE
  5
148
100
AcDbEntity
  8
Layer_1
 62
1
100
AcDbSpline
 70
0
 71
3
 72
13
 73
9
 74
7
 40
0.000000
 40
0.000000
 40
0.000000
 40
0.000000
 40
0.261769
 40
0.521388
 40
0.783149
 40
1.044897
 40
1.304518
 40
1.566293
 40
1.566293
 40
1.566293
 40
1.566293
 10
366.227155
 20
99.661861
 30
0.0
 10
366.314666
 20
99.668531
 30
0.0
 10
366.488970
 20
99.681815
 30
0.0
 10
366.732801
 20
99.786751
 30
0.0
 10
366.942646
 20
99.946364
 30
0.0
 10
367.102255
 20
100.156212
 30
0.0
 10
367.207190
 20
100.400041
 30
0.0
 10
367.220476
 20
100.574347
 30
0.0
 10
367.227146
 20
100.661860
 30
0.0
 11
366.227155
 21
99.661861
 31
0.0
 11
366.486671
 21
99.696131
 31
0.0
 11
366.726525
 21
99.795491
 31
0.0
 11
366.934253
 21
99.954762
 31
0.0
 11
367.093514
 21
100.162484
 31
0.0
 11
367.192874
 21
100.402339
 31
0.0
 11
367.227146
 21
100.661860
 31
0.0
  0
LINE
  5
149
100
AcDbEntity
  8
Layer_1
 62
1
100
AcDbLine
 10
309.027221
 20
100.661860
 30
0.0
 11
309.027221
 21
117.711838
 31
0.0
  0
SPLINE
  5
14a
100
AcDbEntity
  8
Layer_1
 62
1
100
AcDbSpline
 70
0
 71
3
 72
13
 73
9
 74
7
 40
0.000000
 40
0.000000
 40
0.000000
 40
0.000000
 40
0.261775
 40
0.521395
 40
0.783144
 40
1.044904
 40
1.304524
 40
1.566293
 40
1.566293
 40
1.566293
 40
1.566293
 10
309.027221
 20
100.661860
 30
0.0
 10
309.033891
 20
100.574347
 30
0.0
 10
309.047177
 20
100.400041
 30
0.0
 10
309.152112
 20
100.156212
 30
0.0
 10
309.311721
 20
99.946364
 30
0.0
 10
309.521566
 20
99.786751
 30
0.0
 10
309.765397
 20
99.681815
 30
0.0
 10
309.939701
 20
99.668531
 30
0.0
 10
310.027212
 20
99.661861
 30
0.0
 11
309.027221
 21
100.661860
 31
0.0
 11
309.061493
 21
100.402339
 31
0.0
 11
309.160853
 21
100.162484
 31
0.0
 11
309.320114
 21
99.954762
 31
0.0
 11
309.527842
 21
99.795491
 31
0.0
 11
309.767696
 21
99.696131
 31
0.0
 11
310.027212
 21
99.661861
 31
0.0
  0
LINE
  5
14b
100
AcDbEntity
  8
Layer_1
 62
1
100
AcDbLine
 10
308.027229
 20
118.711837
 30
0.0
 11
252.877284
 21
118.711837
 31
0.0
  0
SPLINE
  5
14c
100
AcDbEntity
  8
Layer_1
 62
1
100
AcDbSpline
 70
0
 71
3
 72
13
 73
9
 74
7
 40
0.000000
 40
0.000000
 40
0.000000
 40
0.000000
 40
0.261776
 40
0.521397
 40
0.783146
 40
1.044905
 40
1.304525
 40
1.566294
 40
1.566294
 40
1.566294
 40
1.566294
 10
309.027221
 20
117.711838
 30
0.0
 10
309.020550
 20
117.799351
 30
0.0
 10
309.007265
 20
117.973657
 30
0.0
 10
308.902330
 20
118.217487
 30
0.0
 10
308.742721
 20
118.427336
 30
0.0
 10
308.532875
 20
118.586948
 30
0.0
 10
308.289044
 20
118.691883
 30
0.0
 10
308.114740
 20
118.705167
 30
0.0
 10
308.027229
 20
118.711837
 30
0.0
 11
309.027221
 21
117.711838
 31
0.0
 11
308.992948
 21
117.971360
 31
0.0
 11
308.893589
 21
118.211216
 31
0.0
 11
308.734327
 21
118.418938
 31
0.0
 11
308.526599
 21
118.578208
 31
0.0
 11
308.286745
 21
118.677567
 31
0.0
 11
308.027229
 21
118.711837
 31
0.0
  0
LINE
  5
14d
100
AcDbEntity
  8
Layer_1
 62
1
100
AcDbLine
 10
251.877293
 20
119.711836
 30
0.0
 11
251.877293
 21
136.761814
 31
0.0
  0
SPLINE
  5
14e
100
AcDbEntity
  8
Layer_1
 62
1
100
AcDbSpline
 70
0
 71
3
 72
13
 73
9
 74
7
 40
0.000000
 40
0.000000
 40
0.000000
 40
0.000000
 40
0.261775
 40
0.521395
 40
0.783144
 40
1.044904
 40
1.304524
 40
1.566293
 40
1.566293
 40
1.566293
 40
1.566293
 10
251.877293
 20
119.711836
 30
0.0
 10
251.883963
 20
119.624323
 30
0.0
 10
251.897249
 20
119.450017
 30
0.0
 10
252.002184
 20
119.206188
 30
0.0
 10
252.161793
 20
118.996340
 30
0.0
 10
252.371638
 20
118.836727
 30
0.0
 10
252.615469
 20
118.731791
 30
0.0
 10
252.789773
 20
118.718507
 30
0.0
 10
252.877284
 20
118.711837
 30
0.0
 11
251.877293
 21
119.711836
 31
0.0
 11
251.911565
 21
119.452315
 31
0.0
 11
252.010925
 21
119.212460
 31
0.0
 11
252.170186
 21
119.004738
 31
0.0
 11
252.377914
 21
118.845467
 31
0.0
 11
252.617768
 21
118.746107
 31
0.0
 11
252.877284
 21
118.711837
 31
0.0
  0
LINE
  5
14f
100
AcDbEntity
  8
Layer_1
 62
1
100
AcDbLine
 10
250.877301
 20
137.761813
 30
0.0
 11
243.352296
 21
137.761813
 31
0.0
  0
SPLINE
  5
150
100
AcDbEntity
  8
Layer_1
 62
1
100
AcDbSpline
 70
0
 71
3
 72
13
 73
9
 74
7
 40
0.000000
 40
0.000000
 40
0.000000
 40
0.000000
 40
0.261777
 40
0.521398
 40
0.783147
 40
1.044906
 40
1.304525
 40
1.566294
 40
1.566294
 40
1.566294
 40
1.566294
 10
251.877293
 20
136.761814
 30
0.0
 10
251.870623
 20
136.849327
 30
0.0
 10
251.857337
 20
137.023634
 30
0.0
 10
251.752402
 20
137.267464
 30
0.0
 10
251.592793
 20
137.477312
 30
0.0
 10
251.382947
 20
137.636924
 30
0.0
 10
251.139116
 20
137.741859
 30
0.0
 10
250.964812
 20
137.755143
 30
0.0
 10
250.877301
 20
137.761813
 30
0.0
 11
251.877293
 21
136.761814
 31
0.0
 11
251.843020
 21
137.021337
 31
0.0
 11
251.743661
 21
137.261193
 31
0.0
 11
251.584399
 21
137.468914
 31
0.0
 11
251.376671
 21
137.628184
 31
0.0
 11
251.136817
 21
137.727543
 31
0.0
 11
250.877301
 21
137.761813
 31
0.0
  0
LINE
  5
151
100
AcDbEntity
  8
Layer_1
 62
1
100
AcDbLine
 10
242.352305
 20
138.761812
 30
0.0
 11
242.352305
 21
155.811790
 31
0.0
  0
SPLINE
  5
152
100
AcDbEntity
  8
Layer_1
 62
1
100
AcDbSpline
 70
0
 71
3
 72
13
 73
9
 74
7
 40
0.000000
 40
0.000000
 40
0.000000
 40
0.000000
 40
0.261775
 40
0.521395
 40
0.783144
 40
1.044904
 40
1.304524
 40
1.566293
 40
1.566293
 40
1.566293
 40
1.566293
 10
242.352305
 20
138.761812
 30
0.0
 10
242.358975
 20
138.674299
 30
0.0
 10
242.372261
 20
138.499993
 30
0.0
 10
242.477196
 20
138.256164
 30
0.0
 10
242.636805
 20
138.046316
 30
0.0
 10
242.846650
 20
137.886703
 30
0.0
 10
243.090481
 20
137.781767
 30
0.0
 10
243.264785
 20
137.768483
 30
0.0
 10
243.352296
 20
137.761813
 30
0.0
 11
242.352305
 21
138.761812
 31
0.0
 11
242.386577
 21
138.502291
 31
0.0
 11
242.485937
 21
138.262436
 31
0.0
 11
242.645198
 21
138.054714
 31
0.0
 11
242.852926
 21
137.895443
 31
0.0
 11
243.092780
 21
137.796083
 31
0.0
 11
243.352296
 21
137.761813
 31
0.0
  0
LINE
  5
153
100
AcDbEntity
  8
Layer_1
 62
1
100
AcDbLine
 10
241.352313
 20
156.811789
 30
0.0
 11
238.589802
 21
156.811789
 31
0.0
  0
SPLINE
  5
154
100
AcDbEntity
  8
Layer_1
 62
1
100
AcDbSpline
 70
0
 71
3
 72
13
 73
9
 74
7
 40
0.000000
 40
0.000000
 40
0.000000
 40
0.000000
 40
0.261777
 40
0.521398
 40
0.783147
 40
1.044906
 40
1.304525
 40
1.566294
 40
1.566294
 40
1.566294
 40
1.566294
 10
242.352305
 20
155.811790
 30
0.0
 10
242.345635
 20
155.899303
 30
0.0
 10
242.332349
 20
156.073610
 30
0.0
 10
242.227414
 20
156.317440
 30
0.0
 10
242.067805
 20
156.527288
 30
0.0
 10
241.857959
 20
156.686900
 30
0.0
 10
241.614128
 20
156.791835
 30
0.0
 10
241.439824
 20
156.805119
 30
0.0
 10
241.352313
 20
156.811789
 30
0.0
 11
242.352305
 21
155.811790
 31
0.0
 11
242.318032
 21
156.071313
 31
0.0
 11
242.218673
 21
156.311169
 31
0.0
 11
242.059411
 21
156.518890
 31
0.0
 11
241.851683
 21
156.678160
 31
0.0
 11
241.611829
 21
156.777519
 31
0.0
 11
241.352313
 21
156.811789
 31
0.0
  0
LINE
  5
155
100
AcDbEntity
  8
Layer_1
 62
1
100
AcDbLine
 10
237.589811
 20
157.811788
 30
0.0
 11
237.589811
 21
175.911766
 31
0.0
  0
SPLINE
  5
156
100
AcDbEntity
  8
Layer_1
 62
1
100
AcDbSpline
 70
0
 71
3
 72
13
 73
9
 74
7
 40
0.000000
 40
0.000000
 40
0.000000
 40
0.000000
 40
0.261775
 40
0.521395
 40
0.783144
 40
1.044904
 40
1.304524
 40
1.566293
 40
1.566293
 40
1.566293
 40
1.566293
 10
237.589811
 20
157.811788
 30
0.0
 10
237.596481
 20
157.724275
 30
0.0
 10
237.609767
 20
157.549969
 30
0.0
 10
237.714702
 20
157.306140
 30
0.0
 10
237.874311
 20
157.096292
 30
0.0
 10
238.084156
 20
156.936679
 30
0.0
 10
238.327987
 20
156.831743
 30
0.0
 10
238.502291
 20
156.818459
 30
0.0
 10
238.589802
 20
156.811789
 30
0.0
 11
237.589811
 21
157.811788
 31
0.0
 11
237.624083
 21
157.552267
 31
0.0
 11
237.723443
 21
157.312412
 31
0.0
 11
237.882704
 21
157.104690
 31
0.0
 11
238.090432
 21
156.945419
 31
0.0
 11
238.330286
 21
156.846059
 31
0.0
 11
238.589802
 21
156.811789
 31
0.0
  0
SPLINE
  5
157
100
AcDbEntity
  8
Layer_1
 62
1
100
AcDbSpline
 70
0
 71
3
 72
13
 73
9
 74
7
 40
0.000000
 40
0.000000
 40
0.000000
 40
0.000000
 40
0.261769
 40
0.521389
 40
0.783148
 40
1.044897
 40
1.304517
 40
1.566292
 40
1.566292
 40
1.566292
 40
1.566292
 10
238.589802
 20
176.911765
 30
0.0
 10
238.502291
 20
176.905095
 30
0.0
 10
238.327987
 20
176.891810
 30
0.0
 10
238.084157
 20
176.786874
 30
0.0
 10
237.874311
 20
176.627262
 30
0.0
 10
237.714702
 20
176.417414
 30
0.0
 10
237.609767
 20
176.173585
 30
0.0
 10
237.596481
 20
175.999279
 30
0.0
 10
237.589811
 20
175.911766
 30
0.0
 11
238.589802
 21
176.911765
 31
0.0
 11
238.330286
 21
176.877494
 31
0.0
 11
238.090432
 21
176.778134
 31
0.0
 11
237.882704
 21
176.618864
 31
0.0
 11
237.723443
 21
176.411142
 31
0.0
 11
237.624083
 21
176.171288
 31
0.0
 11
237.589811
 21
175.911766
 31
0.0
  0
LINE
  5
158
100
AcDbEntity
  8
Layer_1
 62
1
100
AcDbLine
 10
239.110306
 20
209.497232
 30
0.0
 11
239.110306
 21
209.497232
 31
0.0
  0
SPLINE
  5
159
100
AcDbEntity
  8
Layer_1
 62
1
100
AcDbSpline
 70
0
 71
3
 72
19
 73
15
 74
13
 40
0.000000
 40
0.000000
 40
0.000000
 40
0.000000
 40
0.496728
 40
0.978707
 40
1.475434
 40
1.972155
 40
2.454125
 40
2.950851
 40
3.447577
 40
3.929547
 40
4.426268
 40
4.922995
 40
5.404974
 40
5.901702
 40
5.901702
 40
5.901702
 40
5.901702
 10
239.110306
 20
209.497232
 30
0.0
 10
239.084197
 20
209.664706
 30
0.0
 10
239.032756
 20
209.994682
 30
0.0
 10
238.654534
 20
210.357956
 30
0.0
 10
238.161168
 20
210.492540
 30
0.0
 10
237.662625
 20
210.357958
 30
0.0
 10
237.299645
 20
209.994678
 30
0.0
 10
237.164967
 20
209.497232
 30
0.0
 10
237.299645
 20
208.999787
 30
0.0
 10
237.662625
 20
208.636507
 30
0.0
 10
238.161168
 20
208.501924
 30
0.0
 10
238.654534
 20
208.636508
 30
0.0
 10
239.032756
 20
208.999783
 30
0.0
 10
239.084197
 20
209.329758
 30
0.0
 10
239.110306
 20
209.497232
 30
0.0
 11
239.110306
 21
209.497232
 31
0.0
 11
238.980605
 21
209.976728
 31
0.0
 11
238.639791
 21
210.317535
 31
0.0
 11
238.160294
 21
210.447231
 31
0.0
 11
237.680804
 21
210.317535
 31
0.0
 11
237.340002
 21
209.976728
 31
0.0
 11
237.210309
 21
209.497232
 31
0.0
 11
237.340002
 21
209.017736
 31
0.0
 11
237.680804
 21
208.676930
 31
0.0
 11
238.160294
 21
208.547234
 31
0.0
 11
238.639791
 21
208.676930
 31
0.0
 11
238.980605
 21
209.017736
 31
0.0
 11
239.110306
 21
209.497232
 31
0.0
  0
LINE
  5
15a
100
AcDbEntity
  8
Layer_1
 62
1
100
AcDbLine
 10
376.985123
 20
93.672378
 30
0.0
 11
376.985123
 21
93.672378
 31
0.0
  0
SPLINE
  5
15b
100
AcDbEntity
  8
Layer_1
 62
1
100
AcDbSpline
 70
0
 71
3
 72
19
 73
15
 74
13
 40
0.000000
 40
0.000000
 40
0.000000
 40
0.000000
 40
0.496727
 40
0.978701
 40
1.475426
 40
1.972153
 40
2.454126
 40
2.950853
 40
3.447579
 40
3.929553
 40
4.426279
 40
4.923005
 40
5.404979
 40
5.901705
 40
5.901705
 40
5.901705
 40
5.901705
 10
376.985123
 20
93.672378
 30
0.0
 10
376.959016
 20
93.839852
 30
0.0
 10
376.907578
 20
94.169825
 30
0.0
 10
376.529363
 20
94.533103
 30
0.0
 10
376.035996
 20
94.667686
 30
0.0
 10
375.537451
 20
94.533104
 30
0.0
 10
375.174465
 20
94.169825
 30
0.0
 10
375.039784
 20
93.672378
 30
0.0
 10
375.174465
 20
93.174931
 30
0.0
 10
375.537451
 20
92.811652
 30
0.0
 10
376.035996
 20
92.677070
 30
0.0
 10
376.529363
 20
92.811653
 30
0.0
 10
376.907578
 20
93.174931
 30
0.0
 10
376.959016
 20
93.504904
 30
0.0
 10
376.985123
 20
93.672378
 30
0.0
 11
376.985123
 21
93.672378
 31
0.0
 11
376.855427
 21
94.151874
 31
0.0
 11
376.514619
 21
94.492680
 31
0.0
 11
376.035125
 21
94.622376
 31
0.0
 11
375.555629
 21
94.492680
 31
0.0
 11
375.214822
 21
94.151874
 31
0.0
 11
375.085126
 21
93.672378
 31
0.0
 11
375.214822
 21
93.192882
 31
0.0
 11
375.555629
 21
92.852075
 31
0.0
 11
376.035125
 21
92.722379
 31
0.0
 11
376.514619
 21
92.852075
 31
0.0
 11
376.855427
 21
93.192882
 31
0.0
 11
376.985123
 21
93.672378
 31
0.0
  0
LINE
  5
15c
100
AcDbEntity
  8
Layer_1
 62
1
100
AcDbLine
 10
101.235469
 20
93.672378
 30
0.0
 11
101.235469
 21
93.672378
 31
0.0
  0
SPLINE
  5
15d
100
AcDbEntity
  8
Layer_1
 62
1
100
AcDbSpline
 70
0
 71
3
 72
19
 73
15
 74
13
 40
0.000000
 40
0.000000
 40
0.000000
 40
0.000000
 40
0.496726
 40
0.978696
 40
1.475417
 40
1.972156
 40
2.454130
 40
2.950857
 40
3.447583
 40
3.929558
 40
4.426297
 40
4.923018
 40
5.404987
 40
5.901713
 40
5.901713
 40
5.901713
 40
5.901713
 10
101.235469
 20
93.672378
 30
0.0
 10
101.209363
 20
93.839851
 30
0.0
 10
101.157927
 20
94.169823
 30
0.0
 10
100.779718
 20
94.533104
 30
0.0
 10
100.286350
 20
94.667685
 30
0.0
 10
99.787800
 20
94.533107
 30
0.0
 10
99.424809
 20
94.169826
 30
0.0
 10
99.290131
 20
93.672378
 30
0.0
 10
99.424809
 20
93.174930
 30
0.0
 10
99.787800
 20
92.811649
 30
0.0
 10
100.286350
 20
92.677071
 30
0.0
 10
100.779718
 20
92.811652
 30
0.0
 10
101.157927
 20
93.174932
 30
0.0
 10
101.209363
 20
93.504904
 30
0.0
 10
101.235469
 20
93.672378
 30
0.0
 11
101.235469
 21
93.672378
 31
0.0
 11
101.105776
 21
94.151874
 31
0.0
 11
100.764974
 21
94.492680
 31
0.0
 11
100.285484
 21
94.622376
 31
0.0
 11
99.805975
 21
94.492680
 31
0.0
 11
99.465167
 21
94.151874
 31
0.0
 11
99.335472
 21
93.672378
 31
0.0
 11
99.465167
 21
93.192882
 31
0.0
 11
99.805975
 21
92.852075
 31
0.0
 11
100.285484
 21
92.722379
 31
0.0
 11
100.764974
 21
92.852075
 31
0.0
 11
101.105776
 21
93.192882
 31
0.0
 11
101.235469
 21
93.672378
 31
0.0
  0
LINE
  5
15e
100
AcDbEntity
  8
Layer_1
 62
1
100
AcDbLine
 10
376.985123
 20
209.497232
 30
0.0
 11
376.985123
 21
209.497232
 31
0.0
  0
SPLINE
  5
15f
100
AcDbEntity
  8
Layer_1
 62
1
100
AcDbSpline
 70
0
 71
3
 72
19
 73
15
 74
13
 40
0.000000
 40
0.000000
 40
0.000000
 40
0.000000
 40
0.496727
 40
0.978701
 40
1.475426
 40
1.972153
 40
2.454126
 40
2.950853
 40
3.447579
 40
3.929553
 40
4.426279
 40
4.923005
 40
5.404979
 40
5.901705
 40
5.901705
 40
5.901705
 40
5.901705
 10
376.985123
 20
209.497232
 30
0.0
 10
376.959016
 20
209.664706
 30
0.0
 10
376.907578
 20
209.994680
 30
0.0
 10
376.529363
 20
210.357957
 30
0.0
 10
376.035996
 20
210.492540
 30
0.0
 10
375.537451
 20
210.357958
 30
0.0
 10
375.174465
 20
209.994679
 30
0.0
 10
375.039784
 20
209.497232
 30
0.0
 10
375.174465
 20
208.999785
 30
0.0
 10
375.537451
 20
208.636506
 30
0.0
 10
376.035996
 20
208.501924
 30
0.0
 10
376.529363
 20
208.636507
 30
0.0
 10
376.907578
 20
208.999785
 30
0.0
 10
376.959016
 20
209.329758
 30
0.0
 10
376.985123
 20
209.497232
 30
0.0
 11
376.985123
 21
209.497232
 31
0.0
 11
376.855427
 21
209.976728
 31
0.0
 11
376.514619
 21
210.317535
 31
0.0
 11
376.035125
 21
210.447231
 31
0.0
 11
375.555629
 21
210.317535
 31
0.0
 11
375.214822
 21
209.976728
 31
0.0
 11
375.085126
 21
209.497232
 31
0.0
 11
375.214822
 21
209.017736
 31
0.0
 11
375.555629
 21
208.676930
 31
0.0
 11
376.035125
 21
208.547234
 31
0.0
 11
376.514619
 21
208.676930
 31
0.0
 11
376.855427
 21
209.017736
 31
0.0
 11
376.985123
 21
209.497232
 31
0.0
  0
LINE
  5
160
100
AcDbEntity
  8
Layer_1
 62
1
100
AcDbLine
 10
101.235469
 20
209.497232
 30
0.0
 11
101.235469
 21
209.497232
 31
0.0
  0
SPLINE
  5
161
100
AcDbEntity
  8
Layer_1
 62
1
100
AcDbSpline
 70
0
 71
3
 72
19
 73
15
 74
13
 40
0.000000
 40
0.000000
 40
0.000000
 40
0.000000
 40
0.496726
 40
0.978696
 40
1.475417
 40
1.972156
 40
2.454130
 40
2.950857
 40
3.447583
 40
3.929558
 40
4.426297
 40
4.923018
 40
5.404987
 40
5.901713
 40
5.901713
 40
5.901713
 40
5.901713
 10
101.235469
 20
209.497232
 30
0.0
 10
101.209363
 20
209.664706
 30
0.0
 10
101.157927
 20
209.994678
 30
0.0
 10
100.779718
 20
210.357958
 30
0.0
 10
100.286350
 20
210.492539
 30
0.0
 10
99.787800
 20
210.357961
 30
0.0
 10
99.424809
 20
209.994680
 30
0.0
 10
99.290131
 20
209.497232
 30
0.0
 10
99.424809
 20
208.999784
 30
0.0
 10
99.787800
 20
208.636503
 30
0.0
 10
100.286350
 20
208.501925
 30
0.0
 10
100.779718
 20
208.636506
 30
0.0
 10
101.157927
 20
208.999787
 30
0.0
 10
101.209363
 20
209.329759
 30
0.0
 10
101.235469
 20
209.497232
 30
0.0
 11
101.235469
 21
209.497232
 31
0.0
 11
101.105776
 21
209.976728
 31
0.0
 11
100.764974
 21
210.317535
 31
0.0
 11
100.285484
 21
210.447231
 31
0.0
 11
99.805975
 21
210.317535
 31
0.0
 11
99.465167
 21
209.976728
 31
0.0
 11
99.335472
 21
209.497232
 31
0.0
 11
99.465167
 21
209.017736
 31
0.0
 11
99.805975
 21
208.676930
 31
0.0
 11
100.285484
 21
208.547234
 31
0.0
 11
100.764974
 21
208.676930
 31
0.0
 11
101.105776
 21
209.017736
 31
0.0
 11
101.235469
 21
209.497232
 31
0.0
  0
LINE
  5
162
100
AcDbEntity
  8
Layer_1
 62
1
100
AcDbLine
 10
168.385074
 20
93.672378
 30
0.0
 11
168.385074
 21
93.672378
 31
0.0
  0
SPLINE
  5
163
100
AcDbEntity
  8
Layer_1
 62
1
100
AcDbSpline
 70
0
 71
3
 72
19
 73
15
 74
13
 40
0.000000
 40
0.000000
 40
0.000000
 40
0.000000
 40
0.496726
 40
0.978696
 40
1.475417
 40
1.972099
 40
2.454094
 40
2.950828
 40
3.447562
 40
3.929558
 40
4.426240
 40
4.922961
 40
5.404931
 40
5.901657
 40
5.901657
 40
5.901657
 40
5.901657
 10
168.385074
 20
93.672378
 30
0.0
 10
168.358967
 20
93.839852
 30
0.0
 10
168.307531
 20
94.169824
 30
0.0
 10
167.929323
 20
94.533101
 30
0.0
 10
167.435971
 20
94.667690
 30
0.0
 10
166.937445
 20
94.533083
 30
0.0
 10
166.574450
 20
94.169834
 30
0.0
 10
166.439717
 20
93.672378
 30
0.0
 10
166.574450
 20
93.174922
 30
0.0
 10
166.937445
 20
92.811673
 30
0.0
 10
167.435971
 20
92.677066
 30
0.0
 10
167.929323
 20
92.811654
 30
0.0
 10
168.307531
 20
93.174932
 30
0.0
 10
168.358967
 20
93.504904
 30
0.0
 10
168.385074
 20
93.672378
 30
0.0
 11
168.385074
 21
93.672378
 31
0.0
 11
168.255380
 21
94.151874
 31
0.0
 11
167.914578
 21
94.492680
 31
0.0
 11
167.435088
 21
94.622376
 31
0.0
 11
166.955638
 21
94.492680
 31
0.0
 11
166.614801
 21
94.151874
 31
0.0
 11
166.485077
 21
93.672378
 31
0.0
 11
166.614801
 21
93.192882
 31
0.0
 11
166.955638
 21
92.852075
 31
0.0
 11
167.435088
 21
92.722379
 31
0.0
 11
167.914578
 21
92.852075
 31
0.0
 11
168.255380
 21
93.192882
 31
0.0
 11
168.385074
 21
93.672378
 31
0.0
  0
LINE
  5
164
100
AcDbEntity
  8
Layer_1
 62
1
100
AcDbLine
 10
309.822202
 20
93.672378
 30
0.0
 11
309.822202
 21
93.672378
 31
0.0
  0
SPLINE
  5
165
100
AcDbEntity
  8
Layer_1
 62
1
100
AcDbSpline
 70
0
 71
3
 72
19
 73
15
 74
13
 40
0.000000
 40
0.000000
 40
0.000000
 40
0.000000
 40
0.496726
 40
0.978696
 40
1.475417
 40
1.972110
 40
2.454102
 40
2.950834
 40
3.447566
 40
3.929558
 40
4.426251
 40
4.922972
 40
5.404942
 40
5.901668
 40
5.901668
 40
5.901668
 40
5.901668
 10
309.822202
 20
93.672378
 30
0.0
 10
309.796096
 20
93.839852
 30
0.0
 10
309.744660
 20
94.169824
 30
0.0
 10
309.366452
 20
94.533102
 30
0.0
 10
308.873096
 20
94.667689
 30
0.0
 10
308.374566
 20
94.533087
 30
0.0
 10
308.011572
 20
94.169832
 30
0.0
 10
307.876849
 20
93.672378
 30
0.0
 10
308.011572
 20
93.174923
 30
0.0
 10
308.374566
 20
92.811668
 30
0.0
 10
308.873096
 20
92.677067
 30
0.0
 10
309.366452
 20
92.811654
 30
0.0
 10
309.744660
 20
93.174932
 30
0.0
 10
309.796096
 20
93.504904
 30
0.0
 10
309.822202
 20
93.672378
 30
0.0
 11
309.822202
 21
93.672378
 31
0.0
 11
309.692509
 21
94.151874
 31
0.0
 11
309.351707
 21
94.492680
 31
0.0
 11
308.872217
 21
94.622376
 31
0.0
 11
308.392756
 21
94.492680
 31
0.0
 11
308.051924
 21
94.151874
 31
0.0
 11
307.922206
 21
93.672378
 31
0.0
 11
308.051924
 21
93.192882
 31
0.0
 11
308.392756
 21
92.852075
 31
0.0
 11
308.872217
 21
92.722379
 31
0.0
 11
309.351707
 21
92.852075
 31
0.0
 11
309.692509
 21
93.192882
 31
0.0
 11
309.822202
 21
93.672378
 31
0.0
  0
LINE
  5
166
100
AcDbEntity
  8
Layer_1
 62
1
100
AcDbLine
 10
101.235469
 20
180.997267
 30
0.0
 11
101.235469
 21
180.997267
 31
0.0
  0
SPLINE
  5
167
100
AcDbEntity
  8
Layer_1
 62
1
100
AcDbSpline
 70
0
 71
3
 72
19
 73
15
 74
13
 40
0.000000
 40
0.000000
 40
0.000000
 40
0.000000
 40
0.496726
 40
0.978696
 40
1.475417
 40
1.972156
 40
2.454130
 40
2.950857
 40
3.447583
 40
3.929558
 40
4.426297
 40
4.923018
 40
5.404987
 40
5.901713
 40
5.901713
 40
5.901713
 40
5.901713
 10
101.235469
 20
180.997267
 30
0.0
 10
101.209363
 20
181.164740
 30
0.0
 10
101.157927
 20
181.494712
 30
0.0
 10
100.779718
 20
181.857993
 30
0.0
 10
100.286350
 20
181.992574
 30
0.0
 10
99.787800
 20
181.857996
 30
0.0
 10
99.424809
 20
181.494715
 30
0.0
 10
99.290131
 20
180.997267
 30
0.0
 10
99.424809
 20
180.499819
 30
0.0
 10
99.787800
 20
180.136538
 30
0.0
 10
100.286350
 20
180.001960
 30
0.0
 10
100.779718
 20
180.136541
 30
0.0
 10
101.157927
 20
180.499821
 30
0.0
 10
101.209363
 20
180.829793
 30
0.0
 10
101.235469
 20
180.997267
 30
0.0
 11
101.235469
 21
180.997267
 31
0.0
 11
101.105776
 21
181.476763
 31
0.0
 11
100.764974
 21
181.817569
 31
0.0
 11
100.285484
 21
181.947265
 31
0.0
 11
99.805975
 21
181.817569
 31
0.0
 11
99.465167
 21
181.476763
 31
0.0
 11
99.335472
 21
180.997267
 31
0.0
 11
99.465167
 21
180.517771
 31
0.0
 11
99.805975
 21
180.176964
 31
0.0
 11
100.285484
 21
180.047268
 31
0.0
 11
100.764974
 21
180.176964
 31
0.0
 11
101.105776
 21
180.517771
 31
0.0
 11
101.235469
 21
180.997267
 31
0.0
  0
LINE
  5
168
100
AcDbEntity
  8
Layer_1
 62
1
100
AcDbLine
 10
376.985123
 20
180.997267
 30
0.0
 11
376.985123
 21
180.997267
 31
0.0
  0
SPLINE
  5
169
100
AcDbEntity
  8
Layer_1
 62
1
100
AcDbSpline
 70
0
 71
3
 72
19
 73
15
 74
13
 40
0.000000
 40
0.000000
 40
0.000000
 40
0.000000
 40
0.496727
 40
0.978701
 40
1.475426
 40
1.972153
 40
2.454126
 40
2.950853
 40
3.447579
 40
3.929553
 40
4.426279
 40
4.923005
 40
5.404979
 40
5.901705
 40
5.901705
 40
5.901705
 40
5.901705
 10
376.985123
 20
180.997267
 30
0.0
 10
376.959016
 20
181.164741
 30
0.0
 10
376.907578
 20
181.494714
 30
0.0
 10
376.529363
 20
181.857992
 30
0.0
 10
376.035996
 20
181.992575
 30
0.0
 10
375.537451
 20
181.857993
 30
0.0
 10
375.174465
 20
181.494714
 30
0.0
 10
375.039784
 20
180.997267
 30
0.0
 10
375.174465
 20
180.499820
 30
0.0
 10
375.537451
 20
180.136541
 30
0.0
 10
376.035996
 20
180.001959
 30
0.0
 10
376.529363
 20
180.136541
 30
0.0
 10
376.907578
 20
180.499819
 30
0.0
 10
376.959016
 20
180.829793
 30
0.0
 10
376.985123
 20
180.997267
 30
0.0
 11
376.985123
 21
180.997267
 31
0.0
 11
376.855427
 21
181.476763
 31
0.0
 11
376.514619
 21
181.817569
 31
0.0
 11
376.035125
 21
181.947265
 31
0.0
 11
375.555629
 21
181.817569
 31
0.0
 11
375.214822
 21
181.476763
 31
0.0
 11
375.085126
 21
180.997267
 31
0.0
 11
375.214822
 21
180.517771
 31
0.0
 11
375.555629
 21
180.176964
 31
0.0
 11
376.035125
 21
180.047268
 31
0.0
 11
376.514619
 21
180.176964
 31
0.0
 11
376.855427
 21
180.517771
 31
0.0
 11
376.985123
 21
180.997267
 31
0.0
  0
LINE
  5
16a
100
AcDbEntity
  8
Layer_1
 62
1
100
AcDbLine
 10
101.235469
 20
93.672378
 30
0.0
 11
101.235469
 21
93.672378
 31
0.0
  0
SPLINE
  5
16b
100
AcDbEntity
  8
Layer_1
 62
1
100
AcDbSpline
 70
0
 71
3
 72
19
 73
15
 74
13
 40
0.000000
 40
0.000000
 40
0.000000
 40
0.000000
 40
0.496726
 40
0.978696
 40
1.475417
 40
1.972156
 40
2.454130
 40
2.950857
 40
3.447583
 40
3.929558
 40
4.426297
 40
4.923018
 40
5.404987
 40
5.901713
 40
5.901713
 40
5.901713
 40
5.901713
 10
101.235469
 20
93.672378
 30
0.0
 10
101.209363
 20
93.839851
 30
0.0
 10
101.157927
 20
94.169823
 30
0.0
 10
100.779718
 20
94.533104
 30
0.0
 10
100.286350
 20
94.667685
 30
0.0
 10
99.787800
 20
94.533107
 30
0.0
 10
99.424809
 20
94.169826
 30
0.0
 10
99.290131
 20
93.672378
 30
0.0
 10
99.424809
 20
93.174930
 30
0.0
 10
99.787800
 20
92.811649
 30
0.0
 10
100.286350
 20
92.677071
 30
0.0
 10
100.779718
 20
92.811652
 30
0.0
 10
101.157927
 20
93.174932
 30
0.0
 10
101.209363
 20
93.504904
 30
0.0
 10
101.235469
 20
93.672378
 30
0.0
 11
101.235469
 21
93.672378
 31
0.0
 11
101.105776
 21
94.151874
 31
0.0
 11
100.764974
 21
94.492680
 31
0.0
 11
100.285484
 21
94.622376
 31
0.0
 11
99.805975
 21
94.492680
 31
0.0
 11
99.465167
 21
94.151874
 31
0.0
 11
99.335472
 21
93.672378
 31
0.0
 11
99.465167
 21
93.192882
 31
0.0
 11
99.805975
 21
92.852075
 31
0.0
 11
100.285484
 21
92.722379
 31
0.0
 11
100.764974
 21
92.852075
 31
0.0
 11
101.105776
 21
93.192882
 31
0.0
 11
101.235469
 21
93.672378
 31
0.0
  0
SPLINE
  5
16c
100
AcDbEntity
  8
Layer_1
 62
1
100
AcDbSpline
 70
0
 71
3
 72
13
 73
9
 74
7
 40
0.000000
 40
0.000000
 40
0.000000
 40
0.000000
 40
0.261818
 40
0.521435
 40
0.783220
 40
1.044965
 40
1.304569
 40
1.566340
 40
1.566340
 40
1.566340
 40
1.566340
 10
109.046674
 20
185.396338
 30
0.0
 10
109.134203
 20
185.403005
 30
0.0
 10
109.308524
 20
185.416283
 30
0.0
 10
109.552371
 20
185.521237
 30
0.0
 10
109.762242
 20
185.680825
 30
0.0
 10
109.921851
 20
185.890682
 30
0.0
 10
110.026732
 20
186.134526
 30
0.0
 10
110.040003
 20
186.308825
 30
0.0
 10
110.046666
 20
186.396337
 30
0.0
 11
109.046674
 21
185.396338
 31
0.0
 11
109.306240
 21
185.430608
 31
0.0
 11
109.546091
 21
185.529966
 31
0.0
 11
109.753852
 21
185.689236
 31
0.0
 11
109.913104
 21
185.896960
 31
0.0
 11
110.012420
 21
186.136815
 31
0.0
 11
110.046666
 21
186.396337
 31
0.0
  0
LINE
  5
16d
100
AcDbEntity
  8
Layer_1
 62
1
100
AcDbLine
 10
109.047415
 20
185.396338
 30
0.0
 11
105.284410
 21
185.396338
 31
0.0
  0
SPLINE
  5
16e
100
AcDbEntity
  8
Layer_1
 62
1
100
AcDbSpline
 70
0
 71
3
 72
13
 73
9
 74
7
 40
0.000000
 40
0.000000
 40
0.000000
 40
0.000000
 40
0.261775
 40
0.521399
 40
0.783160
 40
1.044943
 40
1.304540
 40
1.566303
 40
1.566303
 40
1.566303
 40
1.566303
 10
104.285133
 20
186.396337
 30
0.0
 10
104.291803
 20
186.308824
 30
0.0
 10
104.305089
 20
186.134516
 30
0.0
 10
104.410033
 20
185.890684
 30
0.0
 10
104.569661
 20
185.680832
 30
0.0
 10
104.779526
 20
185.521242
 30
0.0
 10
105.023345
 20
185.416287
 30
0.0
 10
105.197641
 20
185.403006
 30
0.0
 10
105.285151
 20
185.396338
 30
0.0
 11
104.285133
 21
186.396337
 31
0.0
 11
104.319406
 21
186.136815
 31
0.0
 11
104.418773
 21
185.896960
 31
0.0
 11
104.578053
 21
185.689236
 31
0.0
 11
104.785810
 21
185.529966
 31
0.0
 11
105.025641
 21
185.430608
 31
0.0
 11
105.285151
 21
185.396338
 31
0.0
  0
SPLINE
  5
16f
100
AcDbEntity
  8
Layer_1
 62
1
100
AcDbSpline
 70
0
 71
3
 72
13
 73
9
 74
7
 40
0.000000
 40
0.000000
 40
0.000000
 40
0.000000
 40
0.261818
 40
0.521435
 40
0.783220
 40
1.044965
 40
1.304569
 40
1.566340
 40
1.566340
 40
1.566340
 40
1.566340
 10
109.046674
 20
185.396338
 30
0.0
 10
109.134203
 20
185.403005
 30
0.0
 10
109.308524
 20
185.416283
 30
0.0
 10
109.552371
 20
185.521237
 30
0.0
 10
109.762242
 20
185.680825
 30
0.0
 10
109.921851
 20
185.890682
 30
0.0
 10
110.026732
 20
186.134526
 30
0.0
 10
110.040003
 20
186.308825
 30
0.0
 10
110.046666
 20
186.396337
 30
0.0
 11
109.046674
 21
185.396338
 31
0.0
 11
109.306240
 21
185.430608
 31
0.0
 11
109.546091
 21
185.529966
 31
0.0
 11
109.753852
 21
185.689236
 31
0.0
 11
109.913104
 21
185.896960
 31
0.0
 11
110.012420
 21
186.136815
 31
0.0
 11
110.046666
 21
186.396337
 31
0.0
  0
LINE
  5
170
100
AcDbEntity
  8
Layer_1
 62
1
100
AcDbLine
 10
109.047415
 20
185.396338
 30
0.0
 11
105.284410
 21
185.396338
 31
0.0
  0
SPLINE
  5
171
100
AcDbEntity
  8
Layer_1
 62
1
100
AcDbSpline
 70
0
 71
3
 72
13
 73
9
 74
7
 40
0.000000
 40
0.000000
 40
0.000000
 40
0.000000
 40
0.261775
 40
0.521399
 40
0.783160
 40
1.044943
 40
1.304540
 40
1.566303
 40
1.566303
 40
1.566303
 40
1.566303
 10
104.285133
 20
186.396337
 30
0.0
 10
104.291803
 20
186.308824
 30
0.0
 10
104.305089
 20
186.134516
 30
0.0
 10
104.410033
 20
185.890684
 30
0.0
 10
104.569661
 20
185.680832
 30
0.0
 10
104.779526
 20
185.521242
 30
0.0
 10
105.023345
 20
185.416287
 30
0.0
 10
105.197641
 20
185.403006
 30
0.0
 10
105.285151
 20
185.396338
 30
0.0
 11
104.285133
 21
186.396337
 31
0.0
 11
104.319406
 21
186.136815
 31
0.0
 11
104.418773
 21
185.896960
 31
0.0
 11
104.578053
 21
185.689236
 31
0.0
 11
104.785810
 21
185.529966
 31
0.0
 11
105.025641
 21
185.430608
 31
0.0
 11
105.285151
 21
185.396338
 31
0.0
  0
SPLINE
  5
172
100
AcDbEntity
  8
Layer_1
 62
1
100
AcDbSpline
 70
0
 71
3
 72
13
 73
9
 74
7
 40
0.000000
 40
0.000000
 40
0.000000
 40
0.000000
 40
0.261818
 40
0.521435
 40
0.783220
 40
1.044965
 40
1.304569
 40
1.566340
 40
1.566340
 40
1.566340
 40
1.566340
 10
109.046674
 20
187.394971
 30
0.0
 10
109.134203
 20
187.388304
 30
0.0
 10
109.308524
 20
187.375026
 30
0.0
 10
109.552371
 20
187.270071
 30
0.0
 10
109.762242
 20
187.110484
 30
0.0
 10
109.921851
 20
186.900626
 30
0.0
 10
110.026732
 20
186.656783
 30
0.0
 10
110.040003
 20
186.482484
 30
0.0
 10
110.046666
 20
186.394972
 30
0.0
 11
109.046674
 21
187.394971
 31
0.0
 11
109.306240
 21
187.360701
 31
0.0
 11
109.546091
 21
187.261342
 31
0.0
 11
109.753852
 21
187.102072
 31
0.0
 11
109.913104
 21
186.894349
 31
0.0
 11
110.012420
 21
186.654493
 31
0.0
 11
110.046666
 21
186.394972
 31
0.0
  0
LINE
  5
173
100
AcDbEntity
  8
Layer_1
 62
1
100
AcDbLine
 10
109.047415
 20
187.394971
 30
0.0
 11
105.284410
 21
187.394971
 31
0.0
  0
SPLINE
  5
174
100
AcDbEntity
  8
Layer_1
 62
1
100
AcDbSpline
 70
0
 71
3
 72
13
 73
9
 74
7
 40
0.000000
 40
0.000000
 40
0.000000
 40
0.000000
 40
0.261775
 40
0.521399
 40
0.783160
 40
1.044943
 40
1.304540
 40
1.566303
 40
1.566303
 40
1.566303
 40
1.566303
 10
104.285133
 20
186.394972
 30
0.0
 10
104.291803
 20
186.482485
 30
0.0
 10
104.305089
 20
186.656792
 30
0.0
 10
104.410033
 20
186.900624
 30
0.0
 10
104.569661
 20
187.110476
 30
0.0
 10
104.779526
 20
187.270067
 30
0.0
 10
105.023345
 20
187.375021
 30
0.0
 10
105.197641
 20
187.388303
 30
0.0
 10
105.285151
 20
187.394971
 30
0.0
 11
104.285133
 21
186.394972
 31
0.0
 11
104.319406
 21
186.654493
 31
0.0
 11
104.418773
 21
186.894349
 31
0.0
 11
104.578053
 21
187.102072
 31
0.0
 11
104.785810
 21
187.261342
 31
0.0
 11
105.025641
 21
187.360701
 31
0.0
 11
105.285151
 21
187.394971
 31
0.0
  0
LINE
  5
175
100
AcDbEntity
  8
Layer_1
 62
1
100
AcDbLine
 10
105.284675
 20
205.496314
 30
0.0
 11
109.047151
 21
205.496314
 31
0.0
  0
SPLINE
  5
176
100
AcDbEntity
  8
Layer_1
 62
1
100
AcDbSpline
 70
0
 71
3
 72
13
 73
9
 74
7
 40
0.000000
 40
0.000000
 40
0.000000
 40
0.000000
 40
0.261771
 40
0.521375
 40
0.783118
 40
1.044903
 40
1.304521
 40
1.566339
 40
1.566339
 40
1.566339
 40
1.566339
 10
110.046666
 20
204.496314
 30
0.0
 10
110.040003
 20
204.583826
 30
0.0
 10
110.026732
 20
204.758125
 30
0.0
 10
109.921852
 20
205.001968
 30
0.0
 10
109.762241
 20
205.211824
 30
0.0
 10
109.552371
 20
205.371412
 30
0.0
 10
109.308524
 20
205.476368
 30
0.0
 10
109.134203
 20
205.489646
 30
0.0
 10
109.046674
 20
205.496314
 30
0.0
 11
110.046666
 21
204.496314
 31
0.0
 11
110.012420
 21
204.755836
 31
0.0
 11
109.913104
 21
204.995691
 31
0.0
 11
109.753852
 21
205.203412
 31
0.0
 11
109.546091
 21
205.362683
 31
0.0
 11
109.306240
 21
205.462043
 31
0.0
 11
109.046674
 21
205.496314
 31
0.0
  0
SPLINE
  5
177
100
AcDbEntity
  8
Layer_1
 62
1
100
AcDbSpline
 70
0
 71
3
 72
13
 73
9
 74
7
 40
0.000000
 40
0.000000
 40
0.000000
 40
0.000000
 40
0.261763
 40
0.521361
 40
0.783144
 40
1.044904
 40
1.304527
 40
1.566302
 40
1.566302
 40
1.566302
 40
1.566302
 10
105.285151
 20
205.496314
 30
0.0
 10
105.197641
 20
205.489645
 30
0.0
 10
105.023345
 20
205.476363
 30
0.0
 10
104.779526
 20
205.371408
 30
0.0
 10
104.569661
 20
205.211817
 30
0.0
 10
104.410032
 20
205.001966
 30
0.0
 10
104.305089
 20
204.758135
 30
0.0
 10
104.291803
 20
204.583828
 30
0.0
 10
104.285133
 20
204.496314
 30
0.0
 11
105.285151
 21
205.496314
 31
0.0
 11
105.025641
 21
205.462043
 31
0.0
 11
104.785810
 21
205.362683
 31
0.0
 11
104.578053
 21
205.203412
 31
0.0
 11
104.418773
 21
204.995691
 31
0.0
 11
104.319406
 21
204.755836
 31
0.0
 11
104.285133
 21
204.496314
 31
0.0
  0
LINE
  5
178
100
AcDbEntity
  8
Layer_1
 62
1
100
AcDbLine
 10
105.284675
 20
203.496299
 30
0.0
 11
109.047151
 21
203.496299
 31
0.0
  0
SPLINE
  5
179
100
AcDbEntity
  8
Layer_1
 62
1
100
AcDbSpline
 70
0
 71
3
 72
13
 73
9
 74
7
 40
0.000000
 40
0.000000
 40
0.000000
 40
0.000000
 40
0.261771
 40
0.521375
 40
0.783118
 40
1.044903
 40
1.304521
 40
1.566339
 40
1.566339
 40
1.566339
 40
1.566339
 10
110.046666
 20
204.496299
 30
0.0
 10
110.040003
 20
204.408787
 30
0.0
 10
110.026732
 20
204.234488
 30
0.0
 10
109.921852
 20
203.990645
 30
0.0
 10
109.762241
 20
203.780789
 30
0.0
 10
109.552371
 20
203.621201
 30
0.0
 10
109.308524
 20
203.516245
 30
0.0
 10
109.134203
 20
203.502966
 30
0.0
 10
109.046674
 20
203.496299
 30
0.0
 11
110.046666
 21
204.496299
 31
0.0
 11
110.012420
 21
204.236777
 31
0.0
 11
109.913104
 21
203.996922
 31
0.0
 11
109.753852
 21
203.789200
 31
0.0
 11
109.546091
 21
203.629930
 31
0.0
 11
109.306240
 21
203.530570
 31
0.0
 11
109.046674
 21
203.496299
 31
0.0
  0
SPLINE
  5
17a
100
AcDbEntity
  8
Layer_1
 62
1
100
AcDbSpline
 70
0
 71
3
 72
13
 73
9
 74
7
 40
0.000000
 40
0.000000
 40
0.000000
 40
0.000000
 40
0.261763
 40
0.521361
 40
0.783144
 40
1.044904
 40
1.304527
 40
1.566302
 40
1.566302
 40
1.566302
 40
1.566302
 10
105.285151
 20
203.496299
 30
0.0
 10
105.197641
 20
203.502968
 30
0.0
 10
105.023345
 20
203.516250
 30
0.0
 10
104.779526
 20
203.621205
 30
0.0
 10
104.569661
 20
203.780796
 30
0.0
 10
104.410032
 20
203.990647
 30
0.0
 10
104.305089
 20
204.234478
 30
0.0
 10
104.291803
 20
204.408785
 30
0.0
 10
104.285133
 20
204.496299
 30
0.0
 11
105.285151
 21
203.496299
 31
0.0
 11
105.025641
 21
203.530570
 31
0.0
 11
104.785810
 21
203.629930
 31
0.0
 11
104.578053
 21
203.789200
 31
0.0
 11
104.418773
 21
203.996922
 31
0.0
 11
104.319406
 21
204.236777
 31
0.0
 11
104.285133
 21
204.496299
 31
0.0
  0
LINE
  5
17b
100
AcDbEntity
  8
Layer_1
 62
1
100
AcDbLine
 10
105.284675
 20
201.976328
 30
0.0
 11
109.047151
 21
201.976328
 31
0.0
  0
SPLINE
  5
17c
100
AcDbEntity
  8
Layer_1
 62
1
100
AcDbSpline
 70
0
 71
3
 72
13
 73
9
 74
7
 40
0.000000
 40
0.000000
 40
0.000000
 40
0.000000
 40
0.261771
 40
0.521375
 40
0.783118
 40
1.044903
 40
1.304521
 40
1.566339
 40
1.566339
 40
1.566339
 40
1.566339
 10
110.046666
 20
200.976329
 30
0.0
 10
110.040003
 20
201.063841
 30
0.0
 10
110.026732
 20
201.238140
 30
0.0
 10
109.921852
 20
201.481982
 30
0.0
 10
109.762241
 20
201.691838
 30
0.0
 10
109.552371
 20
201.851426
 30
0.0
 10
109.308524
 20
201.956382
 30
0.0
 10
109.134203
 20
201.969661
 30
0.0
 10
109.046674
 20
201.976328
 30
0.0
 11
110.046666
 21
200.976329
 31
0.0
 11
110.012420
 21
201.235850
 31
0.0
 11
109.913104
 21
201.475705
 31
0.0
 11
109.753852
 21
201.683427
 31
0.0
 11
109.546091
 21
201.842697
 31
0.0
 11
109.306240
 21
201.942057
 31
0.0
 11
109.046674
 21
201.976328
 31
0.0
  0
SPLINE
  5
17d
100
AcDbEntity
  8
Layer_1
 62
1
100
AcDbSpline
 70
0
 71
3
 72
13
 73
9
 74
7
 40
0.000000
 40
0.000000
 40
0.000000
 40
0.000000
 40
0.261763
 40
0.521361
 40
0.783144
 40
1.044904
 40
1.304527
 40
1.566302
 40
1.566302
 40
1.566302
 40
1.566302
 10
105.285151
 20
201.976328
 30
0.0
 10
105.197641
 20
201.969659
 30
0.0
 10
105.023345
 20
201.956378
 30
0.0
 10
104.779526
 20
201.851422
 30
0.0
 10
104.569661
 20
201.691831
 30
0.0
 10
104.410032
 20
201.481980
 30
0.0
 10
104.305089
 20
201.238149
 30
0.0
 10
104.291803
 20
201.063842
 30
0.0
 10
104.285133
 20
200.976329
 30
0.0
 11
105.285151
 21
201.976328
 31
0.0
 11
105.025641
 21
201.942057
 31
0.0
 11
104.785810
 21
201.842697
 31
0.0
 11
104.578053
 21
201.683427
 31
0.0
 11
104.418773
 21
201.475705
 31
0.0
 11
104.319406
 21
201.235850
 31
0.0
 11
104.285133
 21
200.976329
 31
0.0
  0
LINE
  5
17e
100
AcDbEntity
  8
Layer_1
 62
1
100
AcDbLine
 10
105.284675
 20
199.976313
 30
0.0
 11
109.047151
 21
199.976313
 31
0.0
  0
SPLINE
  5
17f
100
AcDbEntity
  8
Layer_1
 62
1
100
AcDbSpline
 70
0
 71
3
 72
13
 73
9
 74
7
 40
0.000000
 40
0.000000
 40
0.000000
 40
0.000000
 40
0.261771
 40
0.521375
 40
0.783118
 40
1.044903
 40
1.304521
 40
1.566339
 40
1.566339
 40
1.566339
 40
1.566339
 10
110.046666
 20
200.976313
 30
0.0
 10
110.040003
 20
200.888801
 30
0.0
 10
110.026732
 20
200.714502
 30
0.0
 10
109.921852
 20
200.470659
 30
0.0
 10
109.762241
 20
200.260803
 30
0.0
 10
109.552371
 20
200.101215
 30
0.0
 10
109.308524
 20
199.996259
 30
0.0
 10
109.134203
 20
199.982981
 30
0.0
 10
109.046674
 20
199.976313
 30
0.0
 11
110.046666
 21
200.976313
 31
0.0
 11
110.012420
 21
200.716791
 31
0.0
 11
109.913104
 21
200.476936
 31
0.0
 11
109.753852
 21
200.269215
 31
0.0
 11
109.546091
 21
200.109944
 31
0.0
 11
109.306240
 21
200.010584
 31
0.0
 11
109.046674
 21
199.976313
 31
0.0
  0
SPLINE
  5
180
100
AcDbEntity
  8
Layer_1
 62
1
100
AcDbSpline
 70
0
 71
3
 72
13
 73
9
 74
7
 40
0.000000
 40
0.000000
 40
0.000000
 40
0.000000
 40
0.261763
 40
0.521361
 40
0.783144
 40
1.044904
 40
1.304527
 40
1.566302
 40
1.566302
 40
1.566302
 40
1.566302
 10
105.285151
 20
199.976313
 30
0.0
 10
105.197641
 20
199.982982
 30
0.0
 10
105.023345
 20
199.996264
 30
0.0
 10
104.779526
 20
200.101220
 30
0.0
 10
104.569661
 20
200.260811
 30
0.0
 10
104.410032
 20
200.470661
 30
0.0
 10
104.305089
 20
200.714493
 30
0.0
 10
104.291803
 20
200.888800
 30
0.0
 10
104.285133
 20
200.976313
 30
0.0
 11
105.285151
 21
199.976313
 31
0.0
 11
105.025641
 21
200.010584
 31
0.0
 11
104.785810
 21
200.109944
 31
0.0
 11
104.578053
 21
200.269215
 31
0.0
 11
104.418773
 21
200.476936
 31
0.0
 11
104.319406
 21
200.716791
 31
0.0
 11
104.285133
 21
200.976313
 31
0.0
  0
LINE
  5
181
100
AcDbEntity
  8
Layer_1
 62
1
100
AcDbLine
 10
105.284675
 20
198.456316
 30
0.0
 11
109.047151
 21
198.456316
 31
0.0
  0
SPLINE
  5
182
100
AcDbEntity
  8
Layer_1
 62
1
100
AcDbSpline
 70
0
 71
3
 72
13
 73
9
 74
7
 40
0.000000
 40
0.000000
 40
0.000000
 40
0.000000
 40
0.261771
 40
0.521375
 40
0.783118
 40
1.044903
 40
1.304521
 40
1.566339
 40
1.566339
 40
1.566339
 40
1.566339
 10
110.046666
 20
197.456316
 30
0.0
 10
110.040003
 20
197.543828
 30
0.0
 10
110.026732
 20
197.718127
 30
0.0
 10
109.921852
 20
197.961970
 30
0.0
 10
109.762241
 20
198.171826
 30
0.0
 10
109.552371
 20
198.331414
 30
0.0
 10
109.308524
 20
198.436370
 30
0.0
 10
109.134203
 20
198.449648
 30
0.0
 10
109.046674
 20
198.456316
 30
0.0
 11
110.046666
 21
197.456316
 31
0.0
 11
110.012420
 21
197.715838
 31
0.0
 11
109.913104
 21
197.955693
 31
0.0
 11
109.753852
 21
198.163414
 31
0.0
 11
109.546091
 21
198.322685
 31
0.0
 11
109.306240
 21
198.422045
 31
0.0
 11
109.046674
 21
198.456316
 31
0.0
  0
SPLINE
  5
183
100
AcDbEntity
  8
Layer_1
 62
1
100
AcDbSpline
 70
0
 71
3
 72
13
 73
9
 74
7
 40
0.000000
 40
0.000000
 40
0.000000
 40
0.000000
 40
0.261763
 40
0.521361
 40
0.783144
 40
1.044904
 40
1.304527
 40
1.566302
 40
1.566302
 40
1.566302
 40
1.566302
 10
105.285151
 20
198.456316
 30
0.0
 10
105.197641
 20
198.449647
 30
0.0
 10
105.023345
 20
198.436365
 30
0.0
 10
104.779526
 20
198.331410
 30
0.0
 10
104.569661
 20
198.171819
 30
0.0
 10
104.410032
 20
197.961968
 30
0.0
 10
104.305089
 20
197.718137
 30
0.0
 10
104.291803
 20
197.543830
 30
0.0
 10
104.285133
 20
197.456316
 30
0.0
 11
105.285151
 21
198.456316
 31
0.0
 11
105.025641
 21
198.422045
 31
0.0
 11
104.785810
 21
198.322685
 31
0.0
 11
104.578053
 21
198.163414
 31
0.0
 11
104.418773
 21
197.955693
 31
0.0
 11
104.319406
 21
197.715838
 31
0.0
 11
104.285133
 21
197.456316
 31
0.0
  0
LINE
  5
184
100
AcDbEntity
  8
Layer_1
 62
1
100
AcDbLine
 10
105.284675
 20
196.456301
 30
0.0
 11
109.047151
 21
196.456301
 31
0.0
  0
SPLINE
  5
185
100
AcDbEntity
  8
Layer_1
 62
1
100
AcDbSpline
 70
0
 71
3
 72
13
 73
9
 74
7
 40
0.000000
 40
0.000000
 40
0.000000
 40
0.000000
 40
0.261771
 40
0.521375
 40
0.783118
 40
1.044903
 40
1.304521
 40
1.566339
 40
1.566339
 40
1.566339
 40
1.566339
 10
110.046666
 20
197.456301
 30
0.0
 10
110.040003
 20
197.368789
 30
0.0
 10
110.026732
 20
197.194490
 30
0.0
 10
109.921852
 20
196.950647
 30
0.0
 10
109.762241
 20
196.740791
 30
0.0
 10
109.552371
 20
196.581203
 30
0.0
 10
109.308524
 20
196.476247
 30
0.0
 10
109.134203
 20
196.462968
 30
0.0
 10
109.046674
 20
196.456301
 30
0.0
 11
110.046666
 21
197.456301
 31
0.0
 11
110.012420
 21
197.196779
 31
0.0
 11
109.913104
 21
196.956924
 31
0.0
 11
109.753852
 21
196.749202
 31
0.0
 11
109.546091
 21
196.589932
 31
0.0
 11
109.306240
 21
196.490572
 31
0.0
 11
109.046674
 21
196.456301
 31
0.0
  0
SPLINE
  5
186
100
AcDbEntity
  8
Layer_1
 62
1
100
AcDbSpline
 70
0
 71
3
 72
13
 73
9
 74
7
 40
0.000000
 40
0.000000
 40
0.000000
 40
0.000000
 40
0.261763
 40
0.521361
 40
0.783144
 40
1.044904
 40
1.304527
 40
1.566302
 40
1.566302
 40
1.566302
 40
1.566302
 10
105.285151
 20
196.456301
 30
0.0
 10
105.197641
 20
196.462970
 30
0.0
 10
105.023345
 20
196.476252
 30
0.0
 10
104.779526
 20
196.581207
 30
0.0
 10
104.569661
 20
196.740798
 30
0.0
 10
104.410032
 20
196.950649
 30
0.0
 10
104.305089
 20
197.194480
 30
0.0
 10
104.291803
 20
197.368787
 30
0.0
 10
104.285133
 20
197.456301
 30
0.0
 11
105.285151
 21
196.456301
 31
0.0
 11
105.025641
 21
196.490572
 31
0.0
 11
104.785810
 21
196.589932
 31
0.0
 11
104.578053
 21
196.749202
 31
0.0
 11
104.418773
 21
196.956924
 31
0.0
 11
104.319406
 21
197.196779
 31
0.0
 11
104.285133
 21
197.456301
 31
0.0
  0
LINE
  5
187
100
AcDbEntity
  8
Layer_1
 62
1
100
AcDbLine
 10
105.284675
 20
194.936330
 30
0.0
 11
109.047151
 21
194.936330
 31
0.0
  0
SPLINE
  5
188
100
AcDbEntity
  8
Layer_1
 62
1
100
AcDbSpline
 70
0
 71
3
 72
13
 73
9
 74
7
 40
0.000000
 40
0.000000
 40
0.000000
 40
0.000000
 40
0.261771
 40
0.521375
 40
0.783118
 40
1.044903
 40
1.304521
 40
1.566339
 40
1.566339
 40
1.566339
 40
1.566339
 10
110.046666
 20
193.936331
 30
0.0
 10
110.040003
 20
194.023842
 30
0.0
 10
110.026732
 20
194.198142
 30
0.0
 10
109.921852
 20
194.441984
 30
0.0
 10
109.762241
 20
194.651840
 30
0.0
 10
109.552371
 20
194.811428
 30
0.0
 10
109.308524
 20
194.916384
 30
0.0
 10
109.134203
 20
194.929663
 30
0.0
 10
109.046674
 20
194.936330
 30
0.0
 11
110.046666
 21
193.936331
 31
0.0
 11
110.012420
 21
194.195852
 31
0.0
 11
109.913104
 21
194.435707
 31
0.0
 11
109.753852
 21
194.643429
 31
0.0
 11
109.546091
 21
194.802699
 31
0.0
 11
109.306240
 21
194.902059
 31
0.0
 11
109.046674
 21
194.936330
 31
0.0
  0
SPLINE
  5
189
100
AcDbEntity
  8
Layer_1
 62
1
100
AcDbSpline
 70
0
 71
3
 72
13
 73
9
 74
7
 40
0.000000
 40
0.000000
 40
0.000000
 40
0.000000
 40
0.261763
 40
0.521361
 40
0.783144
 40
1.044904
 40
1.304527
 40
1.566302
 40
1.566302
 40
1.566302
 40
1.566302
 10
105.285151
 20
194.936330
 30
0.0
 10
105.197641
 20
194.929661
 30
0.0
 10
105.023345
 20
194.916380
 30
0.0
 10
104.779526
 20
194.811424
 30
0.0
 10
104.569661
 20
194.651833
 30
0.0
 10
104.410032
 20
194.441982
 30
0.0
 10
104.305089
 20
194.198151
 30
0.0
 10
104.291803
 20
194.023844
 30
0.0
 10
104.285133
 20
193.936331
 30
0.0
 11
105.285151
 21
194.936330
 31
0.0
 11
105.025641
 21
194.902059
 31
0.0
 11
104.785810
 21
194.802699
 31
0.0
 11
104.578053
 21
194.643429
 31
0.0
 11
104.418773
 21
194.435707
 31
0.0
 11
104.319406
 21
194.195852
 31
0.0
 11
104.285133
 21
193.936331
 31
0.0
  0
LINE
  5
18a
100
AcDbEntity
  8
Layer_1
 62
1
100
AcDbLine
 10
105.284675
 20
192.936315
 30
0.0
 11
109.047151
 21
192.936315
 31
0.0
  0
SPLINE
  5
18b
100
AcDbEntity
  8
Layer_1
 62
1
100
AcDbSpline
 70
0
 71
3
 72
13
 73
9
 74
7
 40
0.000000
 40
0.000000
 40
0.000000
 40
0.000000
 40
0.261771
 40
0.521375
 40
0.783118
 40
1.044903
 40
1.304521
 40
1.566339
 40
1.566339
 40
1.566339
 40
1.566339
 10
110.046666
 20
193.936315
 30
0.0
 10
110.040003
 20
193.848803
 30
0.0
 10
110.026732
 20
193.674504
 30
0.0
 10
109.921852
 20
193.430661
 30
0.0
 10
109.762241
 20
193.220805
 30
0.0
 10
109.552371
 20
193.061217
 30
0.0
 10
109.308524
 20
192.956261
 30
0.0
 10
109.134203
 20
192.942983
 30
0.0
 10
109.046674
 20
192.936315
 30
0.0
 11
110.046666
 21
193.936315
 31
0.0
 11
110.012420
 21
193.676793
 31
0.0
 11
109.913104
 21
193.436938
 31
0.0
 11
109.753852
 21
193.229217
 31
0.0
 11
109.546091
 21
193.069946
 31
0.0
 11
109.306240
 21
192.970586
 31
0.0
 11
109.046674
 21
192.936315
 31
0.0
  0
SPLINE
  5
18c
100
AcDbEntity
  8
Layer_1
 62
1
100
AcDbSpline
 70
0
 71
3
 72
13
 73
9
 74
7
 40
0.000000
 40
0.000000
 40
0.000000
 40
0.000000
 40
0.261763
 40
0.521361
 40
0.783144
 40
1.044904
 40
1.304527
 40
1.566302
 40
1.566302
 40
1.566302
 40
1.566302
 10
105.285151
 20
192.936315
 30
0.0
 10
105.197641
 20
192.942984
 30
0.0
 10
105.023345
 20
192.956266
 30
0.0
 10
104.779526
 20
193.061222
 30
0.0
 10
104.569661
 20
193.220813
 30
0.0
 10
104.410032
 20
193.430663
 30
0.0
 10
104.305089
 20
193.674495
 30
0.0
 10
104.291803
 20
193.848802
 30
0.0
 10
104.285133
 20
193.936315
 30
0.0
 11
105.285151
 21
192.936315
 31
0.0
 11
105.025641
 21
192.970586
 31
0.0
 11
104.785810
 21
193.069946
 31
0.0
 11
104.578053
 21
193.229217
 31
0.0
 11
104.418773
 21
193.436938
 31
0.0
 11
104.319406
 21
193.676793
 31
0.0
 11
104.285133
 21
193.936315
 31
0.0
  0
LINE
  5
18d
100
AcDbEntity
  8
Layer_1
 62
1
100
AcDbLine
 10
105.284675
 20
191.416344
 30
0.0
 11
109.047151
 21
191.416344
 31
0.0
  0
SPLINE
  5
18e
100
AcDbEntity
  8
Layer_1
 62
1
100
AcDbSpline
 70
0
 71
3
 72
13
 73
9
 74
7
 40
0.000000
 40
0.000000
 40
0.000000
 40
0.000000
 40
0.261771
 40
0.521375
 40
0.783118
 40
1.044903
 40
1.304521
 40
1.566339
 40
1.566339
 40
1.566339
 40
1.566339
 10
110.046666
 20
190.416345
 30
0.0
 10
110.040003
 20
190.503857
 30
0.0
 10
110.026732
 20
190.678156
 30
0.0
 10
109.921852
 20
190.921998
 30
0.0
 10
109.762241
 20
191.131854
 30
0.0
 10
109.552371
 20
191.291442
 30
0.0
 10
109.308524
 20
191.396398
 30
0.0
 10
109.134203
 20
191.409677
 30
0.0
 10
109.046674
 20
191.416344
 30
0.0
 11
110.046666
 21
190.416345
 31
0.0
 11
110.012420
 21
190.675866
 31
0.0
 11
109.913104
 21
190.915721
 31
0.0
 11
109.753852
 21
191.123443
 31
0.0
 11
109.546091
 21
191.282713
 31
0.0
 11
109.306240
 21
191.382073
 31
0.0
 11
109.046674
 21
191.416344
 31
0.0
  0
SPLINE
  5
18f
100
AcDbEntity
  8
Layer_1
 62
1
100
AcDbSpline
 70
0
 71
3
 72
13
 73
9
 74
7
 40
0.000000
 40
0.000000
 40
0.000000
 40
0.000000
 40
0.261763
 40
0.521361
 40
0.783144
 40
1.044904
 40
1.304527
 40
1.566302
 40
1.566302
 40
1.566302
 40
1.566302
 10
105.285151
 20
191.416344
 30
0.0
 10
105.197641
 20
191.409676
 30
0.0
 10
105.023345
 20
191.396394
 30
0.0
 10
104.779526
 20
191.291438
 30
0.0
 10
104.569661
 20
191.131847
 30
0.0
 10
104.410032
 20
190.921996
 30
0.0
 10
104.305089
 20
190.678165
 30
0.0
 10
104.291803
 20
190.503858
 30
0.0
 10
104.285133
 20
190.416345
 30
0.0
 11
105.285151
 21
191.416344
 31
0.0
 11
105.025641
 21
191.382073
 31
0.0
 11
104.785810
 21
191.282713
 31
0.0
 11
104.578053
 21
191.123443
 31
0.0
 11
104.418773
 21
190.915721
 31
0.0
 11
104.319406
 21
190.675866
 31
0.0
 11
104.285133
 21
190.416345
 31
0.0
  0
LINE
  5
190
100
AcDbEntity
  8
Layer_1
 62
1
100
AcDbLine
 10
105.284675
 20
189.416330
 30
0.0
 11
109.047151
 21
189.416330
 31
0.0
  0
SPLINE
  5
191
100
AcDbEntity
  8
Layer_1
 62
1
100
AcDbSpline
 70
0
 71
3
 72
13
 73
9
 74
7
 40
0.000000
 40
0.000000
 40
0.000000
 40
0.000000
 40
0.261771
 40
0.521375
 40
0.783118
 40
1.044903
 40
1.304521
 40
1.566339
 40
1.566339
 40
1.566339
 40
1.566339
 10
110.046666
 20
190.416329
 30
0.0
 10
110.040003
 20
190.328817
 30
0.0
 10
110.026732
 20
190.154518
 30
0.0
 10
109.921852
 20
189.910675
 30
0.0
 10
109.762241
 20
189.700819
 30
0.0
 10
109.552371
 20
189.541232
 30
0.0
 10
109.308524
 20
189.436275
 30
0.0
 10
109.134203
 20
189.422997
 30
0.0
 10
109.046674
 20
189.416330
 30
0.0
 11
110.046666
 21
190.416329
 31
0.0
 11
110.012420
 21
190.156807
 31
0.0
 11
109.913104
 21
189.916952
 31
0.0
 11
109.753852
 21
189.709231
 31
0.0
 11
109.546091
 21
189.549960
 31
0.0
 11
109.306240
 21
189.450600
 31
0.0
 11
109.046674
 21
189.416330
 31
0.0
  0
SPLINE
  5
192
100
AcDbEntity
  8
Layer_1
 62
1
100
AcDbSpline
 70
0
 71
3
 72
13
 73
9
 74
7
 40
0.000000
 40
0.000000
 40
0.000000
 40
0.000000
 40
0.261763
 40
0.521361
 40
0.783144
 40
1.044904
 40
1.304527
 40
1.566302
 40
1.566302
 40
1.566302
 40
1.566302
 10
105.285151
 20
189.416330
 30
0.0
 10
105.197641
 20
189.422998
 30
0.0
 10
105.023345
 20
189.436280
 30
0.0
 10
104.779526
 20
189.541236
 30
0.0
 10
104.569661
 20
189.700827
 30
0.0
 10
104.410032
 20
189.910677
 30
0.0
 10
104.305089
 20
190.154509
 30
0.0
 10
104.291803
 20
190.328816
 30
0.0
 10
104.285133
 20
190.416329
 30
0.0
 11
105.285151
 21
189.416330
 31
0.0
 11
105.025641
 21
189.450600
 31
0.0
 11
104.785810
 21
189.549960
 31
0.0
 11
104.578053
 21
189.709231
 31
0.0
 11
104.418773
 21
189.916952
 31
0.0
 11
104.319406
 21
190.156807
 31
0.0
 11
104.285133
 21
190.416329
 31
0.0
  0
SPLINE
  5
193
100
AcDbEntity
  8
Layer_1
 62
1
100
AcDbSpline
 70
0
 71
3
 72
13
 73
9
 74
7
 40
0.000000
 40
0.000000
 40
0.000000
 40
0.000000
 40
0.261818
 40
0.521435
 40
0.783220
 40
1.044965
 40
1.304569
 40
1.566340
 40
1.566340
 40
1.566340
 40
1.566340
 10
371.028565
 20
185.396349
 30
0.0
 10
371.116094
 20
185.403016
 30
0.0
 10
371.290415
 20
185.416294
 30
0.0
 10
371.534262
 20
185.521249
 30
0.0
 10
371.744133
 20
185.680836
 30
0.0
 10
371.903742
 20
185.890694
 30
0.0
 10
372.008623
 20
186.134537
 30
0.0
 10
372.021894
 20
186.308836
 30
0.0
 10
372.028557
 20
186.396348
 30
0.0
 11
371.028565
 21
185.396349
 31
0.0
 11
371.288131
 21
185.430619
 31
0.0
 11
371.527983
 21
185.529978
 31
0.0
 11
371.735743
 21
185.689247
 31
0.0
 11
371.894995
 21
185.896971
 31
0.0
 11
371.994311
 21
186.136826
 31
0.0
 11
372.028557
 21
186.396348
 31
0.0
  0
LINE
  5
194
100
AcDbEntity
  8
Layer_1
 62
1
100
AcDbLine
 10
371.029306
 20
185.396349
 30
0.0
 11
367.266301
 21
185.396349
 31
0.0
  0
SPLINE
  5
195
100
AcDbEntity
  8
Layer_1
 62
1
100
AcDbSpline
 70
0
 71
3
 72
13
 73
9
 74
7
 40
0.000000
 40
0.000000
 40
0.000000
 40
0.000000
 40
0.261775
 40
0.521399
 40
0.783160
 40
1.044943
 40
1.304540
 40
1.566303
 40
1.566303
 40
1.566303
 40
1.566303
 10
366.267024
 20
186.396348
 30
0.0
 10
366.273694
 20
186.308835
 30
0.0
 10
366.286980
 20
186.134528
 30
0.0
 10
366.391924
 20
185.890696
 30
0.0
 10
366.551552
 20
185.680843
 30
0.0
 10
366.761417
 20
185.521253
 30
0.0
 10
367.005236
 20
185.416299
 30
0.0
 10
367.179532
 20
185.403017
 30
0.0
 10
367.267042
 20
185.396349
 30
0.0
 11
366.267024
 21
186.396348
 31
0.0
 11
366.301297
 21
186.136826
 31
0.0
 11
366.400664
 21
185.896971
 31
0.0
 11
366.559944
 21
185.689247
 31
0.0
 11
366.767701
 21
185.529978
 31
0.0
 11
367.007532
 21
185.430619
 31
0.0
 11
367.267042
 21
185.396349
 31
0.0
  0
SPLINE
  5
196
100
AcDbEntity
  8
Layer_1
 62
1
100
AcDbSpline
 70
0
 71
3
 72
13
 73
9
 74
7
 40
0.000000
 40
0.000000
 40
0.000000
 40
0.000000
 40
0.261818
 40
0.521435
 40
0.783220
 40
1.044965
 40
1.304569
 40
1.566340
 40
1.566340
 40
1.566340
 40
1.566340
 10
371.028565
 20
185.396349
 30
0.0
 10
371.116094
 20
185.403016
 30
0.0
 10
371.290415
 20
185.416294
 30
0.0
 10
371.534262
 20
185.521249
 30
0.0
 10
371.744133
 20
185.680836
 30
0.0
 10
371.903742
 20
185.890694
 30
0.0
 10
372.008623
 20
186.134537
 30
0.0
 10
372.021894
 20
186.308836
 30
0.0
 10
372.028557
 20
186.396348
 30
0.0
 11
371.028565
 21
185.396349
 31
0.0
 11
371.288131
 21
185.430619
 31
0.0
 11
371.527983
 21
185.529978
 31
0.0
 11
371.735743
 21
185.689247
 31
0.0
 11
371.894995
 21
185.896971
 31
0.0
 11
371.994311
 21
186.136826
 31
0.0
 11
372.028557
 21
186.396348
 31
0.0
  0
LINE
  5
197
100
AcDbEntity
  8
Layer_1
 62
1
100
AcDbLine
 10
371.029306
 20
185.396349
 30
0.0
 11
367.266301
 21
185.396349
 31
0.0
  0
SPLINE
  5
198
100
AcDbEntity
  8
Layer_1
 62
1
100
AcDbSpline
 70
0
 71
3
 72
13
 73
9
 74
7
 40
0.000000
 40
0.000000
 40
0.000000
 40
0.000000
 40
0.261775
 40
0.521399
 40
0.783160
 40
1.044943
 40
1.304540
 40
1.566303
 40
1.566303
 40
1.566303
 40
1.566303
 10
366.267024
 20
186.396348
 30
0.0
 10
366.273694
 20
186.308835
 30
0.0
 10
366.286980
 20
186.134528
 30
0.0
 10
366.391924
 20
185.890696
 30
0.0
 10
366.551552
 20
185.680843
 30
0.0
 10
366.761417
 20
185.521253
 30
0.0
 10
367.005236
 20
185.416299
 30
0.0
 10
367.179532
 20
185.403017
 30
0.0
 10
367.267042
 20
185.396349
 30
0.0
 11
366.267024
 21
186.396348
 31
0.0
 11
366.301297
 21
186.136826
 31
0.0
 11
366.400664
 21
185.896971
 31
0.0
 11
366.559944
 21
185.689247
 31
0.0
 11
366.767701
 21
185.529978
 31
0.0
 11
367.007532
 21
185.430619
 31
0.0
 11
367.267042
 21
185.396349
 31
0.0
  0
SPLINE
  5
199
100
AcDbEntity
  8
Layer_1
 62
1
100
AcDbSpline
 70
0
 71
3
 72
13
 73
9
 74
7
 40
0.000000
 40
0.000000
 40
0.000000
 40
0.000000
 40
0.261818
 40
0.521435
 40
0.783220
 40
1.044965
 40
1.304569
 40
1.566340
 40
1.566340
 40
1.566340
 40
1.566340
 10
371.028565
 20
187.394982
 30
0.0
 10
371.116094
 20
187.388315
 30
0.0
 10
371.290415
 20
187.375037
 30
0.0
 10
371.534262
 20
187.270082
 30
0.0
 10
371.744133
 20
187.110495
 30
0.0
 10
371.903742
 20
186.900637
 30
0.0
 10
372.008623
 20
186.656794
 30
0.0
 10
372.021894
 20
186.482495
 30
0.0
 10
372.028557
 20
186.394983
 30
0.0
 11
371.028565
 21
187.394982
 31
0.0
 11
371.288131
 21
187.360712
 31
0.0
 11
371.527983
 21
187.261353
 31
0.0
 11
371.735743
 21
187.102083
 31
0.0
 11
371.894995
 21
186.894360
 31
0.0
 11
371.994311
 21
186.654505
 31
0.0
 11
372.028557
 21
186.394983
 31
0.0
  0
LINE
  5
19a
100
AcDbEntity
  8
Layer_1
 62
1
100
AcDbLine
 10
371.029306
 20
187.394982
 30
0.0
 11
367.266301
 21
187.394982
 31
0.0
  0
SPLINE
  5
19b
100
AcDbEntity
  8
Layer_1
 62
1
100
AcDbSpline
 70
0
 71
3
 72
13
 73
9
 74
7
 40
0.000000
 40
0.000000
 40
0.000000
 40
0.000000
 40
0.261775
 40
0.521399
 40
0.783160
 40
1.044943
 40
1.304540
 40
1.566303
 40
1.566303
 40
1.566303
 40
1.566303
 10
366.267024
 20
186.394983
 30
0.0
 10
366.273694
 20
186.482496
 30
0.0
 10
366.286980
 20
186.656803
 30
0.0
 10
366.391924
 20
186.900635
 30
0.0
 10
366.551552
 20
187.110487
 30
0.0
 10
366.761417
 20
187.270078
 30
0.0
 10
367.005236
 20
187.375032
 30
0.0
 10
367.179532
 20
187.388314
 30
0.0
 10
367.267042
 20
187.394982
 30
0.0
 11
366.267024
 21
186.394983
 31
0.0
 11
366.301297
 21
186.654505
 31
0.0
 11
366.400664
 21
186.894360
 31
0.0
 11
366.559944
 21
187.102083
 31
0.0
 11
366.767701
 21
187.261353
 31
0.0
 11
367.007532
 21
187.360712
 31
0.0
 11
367.267042
 21
187.394982
 31
0.0
  0
LINE
  5
19c
100
AcDbEntity
  8
Layer_1
 62
1
100
AcDbLine
 10
367.266566
 20
205.496325
 30
0.0
 11
371.029042
 21
205.496325
 31
0.0
  0
SPLINE
  5
19d
100
AcDbEntity
  8
Layer_1
 62
1
100
AcDbSpline
 70
0
 71
3
 72
13
 73
9
 74
7
 40
0.000000
 40
0.000000
 40
0.000000
 40
0.000000
 40
0.261771
 40
0.521375
 40
0.783118
 40
1.044903
 40
1.304521
 40
1.566339
 40
1.566339
 40
1.566339
 40
1.566339
 10
372.028557
 20
204.496326
 30
0.0
 10
372.021894
 20
204.583837
 30
0.0
 10
372.008623
 20
204.758136
 30
0.0
 10
371.903743
 20
205.001979
 30
0.0
 10
371.744132
 20
205.211835
 30
0.0
 10
371.534262
 20
205.371423
 30
0.0
 10
371.290415
 20
205.476379
 30
0.0
 10
371.116094
 20
205.489658
 30
0.0
 10
371.028565
 20
205.496325
 30
0.0
 11
372.028557
 21
204.496326
 31
0.0
 11
371.994311
 21
204.755847
 31
0.0
 11
371.894995
 21
204.995702
 31
0.0
 11
371.735743
 21
205.203424
 31
0.0
 11
371.527983
 21
205.362694
 31
0.0
 11
371.288131
 21
205.462054
 31
0.0
 11
371.028565
 21
205.496325
 31
0.0
  0
SPLINE
  5
19e
100
AcDbEntity
  8
Layer_1
 62
1
100
AcDbSpline
 70
0
 71
3
 72
13
 73
9
 74
7
 40
0.000000
 40
0.000000
 40
0.000000
 40
0.000000
 40
0.261763
 40
0.521361
 40
0.783144
 40
1.044904
 40
1.304527
 40
1.566302
 40
1.566302
 40
1.566302
 40
1.566302
 10
367.267042
 20
205.496325
 30
0.0
 10
367.179532
 20
205.489656
 30
0.0
 10
367.005236
 20
205.476374
 30
0.0
 10
366.761417
 20
205.371419
 30
0.0
 10
366.551553
 20
205.211828
 30
0.0
 10
366.391923
 20
205.001977
 30
0.0
 10
366.286980
 20
204.758146
 30
0.0
 10
366.273694
 20
204.583839
 30
0.0
 10
366.267024
 20
204.496326
 30
0.0
 11
367.267042
 21
205.496325
 31
0.0
 11
367.007532
 21
205.462054
 31
0.0
 11
366.767701
 21
205.362694
 31
0.0
 11
366.559944
 21
205.203424
 31
0.0
 11
366.400664
 21
204.995702
 31
0.0
 11
366.301297
 21
204.755847
 31
0.0
 11
366.267024
 21
204.496326
 31
0.0
  0
LINE
  5
19f
100
AcDbEntity
  8
Layer_1
 62
1
100
AcDbLine
 10
367.266566
 20
203.496310
 30
0.0
 11
371.029042
 21
203.496310
 31
0.0
  0
SPLINE
  5
1a0
100
AcDbEntity
  8
Layer_1
 62
1
100
AcDbSpline
 70
0
 71
3
 72
13
 73
9
 74
7
 40
0.000000
 40
0.000000
 40
0.000000
 40
0.000000
 40
0.261771
 40
0.521375
 40
0.783118
 40
1.044903
 40
1.304521
 40
1.566339
 40
1.566339
 40
1.566339
 40
1.566339
 10
372.028557
 20
204.496310
 30
0.0
 10
372.021894
 20
204.408798
 30
0.0
 10
372.008623
 20
204.234499
 30
0.0
 10
371.903743
 20
203.990656
 30
0.0
 10
371.744132
 20
203.780800
 30
0.0
 10
371.534262
 20
203.621212
 30
0.0
 10
371.290415
 20
203.516256
 30
0.0
 10
371.116094
 20
203.502978
 30
0.0
 10
371.028565
 20
203.496310
 30
0.0
 11
372.028557
 21
204.496310
 31
0.0
 11
371.994311
 21
204.236788
 31
0.0
 11
371.894995
 21
203.996933
 31
0.0
 11
371.735743
 21
203.789212
 31
0.0
 11
371.527983
 21
203.629941
 31
0.0
 11
371.288131
 21
203.530581
 31
0.0
 11
371.028565
 21
203.496310
 31
0.0
  0
SPLINE
  5
1a1
100
AcDbEntity
  8
Layer_1
 62
1
100
AcDbSpline
 70
0
 71
3
 72
13
 73
9
 74
7
 40
0.000000
 40
0.000000
 40
0.000000
 40
0.000000
 40
0.261763
 40
0.521361
 40
0.783144
 40
1.044904
 40
1.304527
 40
1.566302
 40
1.566302
 40
1.566302
 40
1.566302
 10
367.267042
 20
203.496310
 30
0.0
 10
367.179532
 20
203.502979
 30
0.0
 10
367.005236
 20
203.516261
 30
0.0
 10
366.761417
 20
203.621216
 30
0.0
 10
366.551553
 20
203.780808
 30
0.0
 10
366.391923
 20
203.990658
 30
0.0
 10
366.286980
 20
204.234489
 30
0.0
 10
366.273694
 20
204.408796
 30
0.0
 10
366.267024
 20
204.496310
 30
0.0
 11
367.267042
 21
203.496310
 31
0.0
 11
367.007532
 21
203.530581
 31
0.0
 11
366.767701
 21
203.629941
 31
0.0
 11
366.559944
 21
203.789212
 31
0.0
 11
366.400664
 21
203.996933
 31
0.0
 11
366.301297
 21
204.236788
 31
0.0
 11
366.267024
 21
204.496310
 31
0.0
  0
LINE
  5
1a2
100
AcDbEntity
  8
Layer_1
 62
1
100
AcDbLine
 10
367.266566
 20
201.976316
 30
0.0
 11
371.029042
 21
201.976316
 31
0.0
  0
SPLINE
  5
1a3
100
AcDbEntity
  8
Layer_1
 62
1
100
AcDbSpline
 70
0
 71
3
 72
13
 73
9
 74
7
 40
0.000000
 40
0.000000
 40
0.000000
 40
0.000000
 40
0.261771
 40
0.521375
 40
0.783118
 40
1.044903
 40
1.304521
 40
1.566339
 40
1.566339
 40
1.566339
 40
1.566339
 10
372.028557
 20
200.976317
 30
0.0
 10
372.021894
 20
201.063828
 30
0.0
 10
372.008623
 20
201.238127
 30
0.0
 10
371.903743
 20
201.481970
 30
0.0
 10
371.744132
 20
201.691826
 30
0.0
 10
371.534262
 20
201.851414
 30
0.0
 10
371.290415
 20
201.956370
 30
0.0
 10
371.116094
 20
201.969649
 30
0.0
 10
371.028565
 20
201.976316
 30
0.0
 11
372.028557
 21
200.976317
 31
0.0
 11
371.994311
 21
201.235838
 31
0.0
 11
371.894995
 21
201.475693
 31
0.0
 11
371.735743
 21
201.683415
 31
0.0
 11
371.527983
 21
201.842685
 31
0.0
 11
371.288131
 21
201.942045
 31
0.0
 11
371.028565
 21
201.976316
 31
0.0
  0
SPLINE
  5
1a4
100
AcDbEntity
  8
Layer_1
 62
1
100
AcDbSpline
 70
0
 71
3
 72
13
 73
9
 74
7
 40
0.000000
 40
0.000000
 40
0.000000
 40
0.000000
 40
0.261763
 40
0.521361
 40
0.783144
 40
1.044904
 40
1.304527
 40
1.566302
 40
1.566302
 40
1.566302
 40
1.566302
 10
367.267042
 20
201.976316
 30
0.0
 10
367.179532
 20
201.969647
 30
0.0
 10
367.005236
 20
201.956366
 30
0.0
 10
366.761417
 20
201.851410
 30
0.0
 10
366.551553
 20
201.691819
 30
0.0
 10
366.391923
 20
201.481968
 30
0.0
 10
366.286980
 20
201.238137
 30
0.0
 10
366.273694
 20
201.063830
 30
0.0
 10
366.267024
 20
200.976317
 30
0.0
 11
367.267042
 21
201.976316
 31
0.0
 11
367.007532
 21
201.942045
 31
0.0
 11
366.767701
 21
201.842685
 31
0.0
 11
366.559944
 21
201.683415
 31
0.0
 11
366.400664
 21
201.475693
 31
0.0
 11
366.301297
 21
201.235838
 31
0.0
 11
366.267024
 21
200.976317
 31
0.0
  0
LINE
  5
1a5
100
AcDbEntity
  8
Layer_1
 62
1
100
AcDbLine
 10
367.266566
 20
199.976301
 30
0.0
 11
371.029042
 21
199.976301
 31
0.0
  0
SPLINE
  5
1a6
100
AcDbEntity
  8
Layer_1
 62
1
100
AcDbSpline
 70
0
 71
3
 72
13
 73
9
 74
7
 40
0.000000
 40
0.000000
 40
0.000000
 40
0.000000
 40
0.261771
 40
0.521375
 40
0.783118
 40
1.044903
 40
1.304521
 40
1.566339
 40
1.566339
 40
1.566339
 40
1.566339
 10
372.028557
 20
200.976301
 30
0.0
 10
372.021894
 20
200.888789
 30
0.0
 10
372.008623
 20
200.714490
 30
0.0
 10
371.903743
 20
200.470647
 30
0.0
 10
371.744132
 20
200.260791
 30
0.0
 10
371.534262
 20
200.101203
 30
0.0
 10
371.290415
 20
199.996247
 30
0.0
 10
371.116094
 20
199.982969
 30
0.0
 10
371.028565
 20
199.976301
 30
0.0
 11
372.028557
 21
200.976301
 31
0.0
 11
371.994311
 21
200.716779
 31
0.0
 11
371.894995
 21
200.476924
 31
0.0
 11
371.735743
 21
200.269203
 31
0.0
 11
371.527983
 21
200.109932
 31
0.0
 11
371.288131
 21
200.010572
 31
0.0
 11
371.028565
 21
199.976301
 31
0.0
  0
SPLINE
  5
1a7
100
AcDbEntity
  8
Layer_1
 62
1
100
AcDbSpline
 70
0
 71
3
 72
13
 73
9
 74
7
 40
0.000000
 40
0.000000
 40
0.000000
 40
0.000000
 40
0.261763
 40
0.521361
 40
0.783144
 40
1.044904
 40
1.304527
 40
1.566302
 40
1.566302
 40
1.566302
 40
1.566302
 10
367.267042
 20
199.976301
 30
0.0
 10
367.179532
 20
199.982970
 30
0.0
 10
367.005236
 20
199.996252
 30
0.0
 10
366.761417
 20
200.101207
 30
0.0
 10
366.551553
 20
200.260799
 30
0.0
 10
366.391923
 20
200.470649
 30
0.0
 10
366.286980
 20
200.714480
 30
0.0
 10
366.273694
 20
200.888787
 30
0.0
 10
366.267024
 20
200.976301
 30
0.0
 11
367.267042
 21
199.976301
 31
0.0
 11
367.007532
 21
200.010572
 31
0.0
 11
366.767701
 21
200.109932
 31
0.0
 11
366.559944
 21
200.269203
 31
0.0
 11
366.400664
 21
200.476924
 31
0.0
 11
366.301297
 21
200.716779
 31
0.0
 11
366.267024
 21
200.976301
 31
0.0
  0
LINE
  5
1a8
100
AcDbEntity
  8
Layer_1
 62
1
100
AcDbLine
 10
367.266566
 20
198.456330
 30
0.0
 11
371.029042
 21
198.456330
 31
0.0
  0
SPLINE
  5
1a9
100
AcDbEntity
  8
Layer_1
 62
1
100
AcDbSpline
 70
0
 71
3
 72
13
 73
9
 74
7
 40
0.000000
 40
0.000000
 40
0.000000
 40
0.000000
 40
0.261771
 40
0.521375
 40
0.783118
 40
1.044903
 40
1.304521
 40
1.566339
 40
1.566339
 40
1.566339
 40
1.566339
 10
372.028557
 20
197.456331
 30
0.0
 10
372.021894
 20
197.543843
 30
0.0
 10
372.008623
 20
197.718142
 30
0.0
 10
371.903743
 20
197.961984
 30
0.0
 10
371.744132
 20
198.171840
 30
0.0
 10
371.534262
 20
198.331428
 30
0.0
 10
371.290415
 20
198.436384
 30
0.0
 10
371.116094
 20
198.449663
 30
0.0
 10
371.028565
 20
198.456330
 30
0.0
 11
372.028557
 21
197.456331
 31
0.0
 11
371.994311
 21
197.715852
 31
0.0
 11
371.894995
 21
197.955707
 31
0.0
 11
371.735743
 21
198.163429
 31
0.0
 11
371.527983
 21
198.322699
 31
0.0
 11
371.288131
 21
198.422059
 31
0.0
 11
371.028565
 21
198.456330
 31
0.0
  0
SPLINE
  5
1aa
100
AcDbEntity
  8
Layer_1
 62
1
100
AcDbSpline
 70
0
 71
3
 72
13
 73
9
 74
7
 40
0.000000
 40
0.000000
 40
0.000000
 40
0.000000
 40
0.261763
 40
0.521361
 40
0.783144
 40
1.044904
 40
1.304527
 40
1.566302
 40
1.566302
 40
1.566302
 40
1.566302
 10
367.267042
 20
198.456330
 30
0.0
 10
367.179532
 20
198.449662
 30
0.0
 10
367.005236
 20
198.436380
 30
0.0
 10
366.761417
 20
198.331424
 30
0.0
 10
366.551553
 20
198.171833
 30
0.0
 10
366.391923
 20
197.961982
 30
0.0
 10
366.286980
 20
197.718151
 30
0.0
 10
366.273694
 20
197.543844
 30
0.0
 10
366.267024
 20
197.456331
 30
0.0
 11
367.267042
 21
198.456330
 31
0.0
 11
367.007532
 21
198.422059
 31
0.0
 11
366.767701
 21
198.322699
 31
0.0
 11
366.559944
 21
198.163429
 31
0.0
 11
366.400664
 21
197.955707
 31
0.0
 11
366.301297
 21
197.715852
 31
0.0
 11
366.267024
 21
197.456331
 31
0.0
  0
LINE
  5
1ab
100
AcDbEntity
  8
Layer_1
 62
1
100
AcDbLine
 10
367.266566
 20
196.456316
 30
0.0
 11
371.029042
 21
196.456316
 31
0.0
  0
SPLINE
  5
1ac
100
AcDbEntity
  8
Layer_1
 62
1
100
AcDbSpline
 70
0
 71
3
 72
13
 73
9
 74
7
 40
0.000000
 40
0.000000
 40
0.000000
 40
0.000000
 40
0.261771
 40
0.521375
 40
0.783118
 40
1.044903
 40
1.304521
 40
1.566339
 40
1.566339
 40
1.566339
 40
1.566339
 10
372.028557
 20
197.456315
 30
0.0
 10
372.021894
 20
197.368803
 30
0.0
 10
372.008623
 20
197.194504
 30
0.0
 10
371.903743
 20
196.950661
 30
0.0
 10
371.744132
 20
196.740805
 30
0.0
 10
371.534262
 20
196.581218
 30
0.0
 10
371.290415
 20
196.476261
 30
0.0
 10
371.116094
 20
196.462983
 30
0.0
 10
371.028565
 20
196.456316
 30
0.0
 11
372.028557
 21
197.456315
 31
0.0
 11
371.994311
 21
197.196793
 31
0.0
 11
371.894995
 21
196.956938
 31
0.0
 11
371.735743
 21
196.749217
 31
0.0
 11
371.527983
 21
196.589946
 31
0.0
 11
371.288131
 21
196.490586
 31
0.0
 11
371.028565
 21
196.456316
 31
0.0
  0
SPLINE
  5
1ad
100
AcDbEntity
  8
Layer_1
 62
1
100
AcDbSpline
 70
0
 71
3
 72
13
 73
9
 74
7
 40
0.000000
 40
0.000000
 40
0.000000
 40
0.000000
 40
0.261763
 40
0.521361
 40
0.783144
 40
1.044904
 40
1.304527
 40
1.566302
 40
1.566302
 40
1.566302
 40
1.566302
 10
367.267042
 20
196.456316
 30
0.0
 10
367.179532
 20
196.462984
 30
0.0
 10
367.005236
 20
196.476266
 30
0.0
 10
366.761417
 20
196.581222
 30
0.0
 10
366.551553
 20
196.740813
 30
0.0
 10
366.391923
 20
196.950663
 30
0.0
 10
366.286980
 20
197.194495
 30
0.0
 10
366.273694
 20
197.368802
 30
0.0
 10
366.267024
 20
197.456315
 30
0.0
 11
367.267042
 21
196.456316
 31
0.0
 11
367.007532
 21
196.490586
 31
0.0
 11
366.767701
 21
196.589946
 31
0.0
 11
366.559944
 21
196.749217
 31
0.0
 11
366.400664
 21
196.956938
 31
0.0
 11
366.301297
 21
197.196793
 31
0.0
 11
366.267024
 21
197.456315
 31
0.0
  0
LINE
  5
1ae
100
AcDbEntity
  8
Layer_1
 62
1
100
AcDbLine
 10
367.266566
 20
194.936344
 30
0.0
 11
371.029042
 21
194.936344
 31
0.0
  0
SPLINE
  5
1af
100
AcDbEntity
  8
Layer_1
 62
1
100
AcDbSpline
 70
0
 71
3
 72
13
 73
9
 74
7
 40
0.000000
 40
0.000000
 40
0.000000
 40
0.000000
 40
0.261771
 40
0.521375
 40
0.783118
 40
1.044903
 40
1.304521
 40
1.566339
 40
1.566339
 40
1.566339
 40
1.566339
 10
372.028557
 20
193.936345
 30
0.0
 10
372.021894
 20
194.023857
 30
0.0
 10
372.008623
 20
194.198156
 30
0.0
 10
371.903743
 20
194.441999
 30
0.0
 10
371.744132
 20
194.651854
 30
0.0
 10
371.534262
 20
194.811442
 30
0.0
 10
371.290415
 20
194.916399
 30
0.0
 10
371.116094
 20
194.929677
 30
0.0
 10
371.028565
 20
194.936344
 30
0.0
 11
372.028557
 21
193.936345
 31
0.0
 11
371.994311
 21
194.195867
 31
0.0
 11
371.894995
 21
194.435722
 31
0.0
 11
371.735743
 21
194.643443
 31
0.0
 11
371.527983
 21
194.802714
 31
0.0
 11
371.288131
 21
194.902074
 31
0.0
 11
371.028565
 21
194.936344
 31
0.0
  0
SPLINE
  5
1b0
100
AcDbEntity
  8
Layer_1
 62
1
100
AcDbSpline
 70
0
 71
3
 72
13
 73
9
 74
7
 40
0.000000
 40
0.000000
 40
0.000000
 40
0.000000
 40
0.261763
 40
0.521361
 40
0.783144
 40
1.044904
 40
1.304527
 40
1.566302
 40
1.566302
 40
1.566302
 40
1.566302
 10
367.267042
 20
194.936344
 30
0.0
 10
367.179532
 20
194.929676
 30
0.0
 10
367.005236
 20
194.916394
 30
0.0
 10
366.761417
 20
194.811438
 30
0.0
 10
366.551553
 20
194.651847
 30
0.0
 10
366.391923
 20
194.441997
 30
0.0
 10
366.286980
 20
194.198165
 30
0.0
 10
366.273694
 20
194.023858
 30
0.0
 10
366.267024
 20
193.936345
 30
0.0
 11
367.267042
 21
194.936344
 31
0.0
 11
367.007532
 21
194.902074
 31
0.0
 11
366.767701
 21
194.802714
 31
0.0
 11
366.559944
 21
194.643443
 31
0.0
 11
366.400664
 21
194.435722
 31
0.0
 11
366.301297
 21
194.195867
 31
0.0
 11
366.267024
 21
193.936345
 31
0.0
  0
LINE
  5
1b1
100
AcDbEntity
  8
Layer_1
 62
1
100
AcDbLine
 10
367.266566
 20
192.936330
 30
0.0
 11
371.029042
 21
192.936330
 31
0.0
  0
SPLINE
  5
1b2
100
AcDbEntity
  8
Layer_1
 62
1
100
AcDbSpline
 70
0
 71
3
 72
13
 73
9
 74
7
 40
0.000000
 40
0.000000
 40
0.000000
 40
0.000000
 40
0.261771
 40
0.521375
 40
0.783118
 40
1.044903
 40
1.304521
 40
1.566339
 40
1.566339
 40
1.566339
 40
1.566339
 10
372.028557
 20
193.936329
 30
0.0
 10
372.021894
 20
193.848817
 30
0.0
 10
372.008623
 20
193.674518
 30
0.0
 10
371.903743
 20
193.430676
 30
0.0
 10
371.744132
 20
193.220820
 30
0.0
 10
371.534262
 20
193.061232
 30
0.0
 10
371.290415
 20
192.956276
 30
0.0
 10
371.116094
 20
192.942997
 30
0.0
 10
371.028565
 20
192.936330
 30
0.0
 11
372.028557
 21
193.936329
 31
0.0
 11
371.994311
 21
193.676808
 31
0.0
 11
371.894995
 21
193.436953
 31
0.0
 11
371.735743
 21
193.229231
 31
0.0
 11
371.527983
 21
193.069961
 31
0.0
 11
371.288131
 21
192.970601
 31
0.0
 11
371.028565
 21
192.936330
 31
0.0
  0
SPLINE
  5
1b3
100
AcDbEntity
  8
Layer_1
 62
1
100
AcDbSpline
 70
0
 71
3
 72
13
 73
9
 74
7
 40
0.000000
 40
0.000000
 40
0.000000
 40
0.000000
 40
0.261763
 40
0.521361
 40
0.783144
 40
1.044904
 40
1.304527
 40
1.566302
 40
1.566302
 40
1.566302
 40
1.566302
 10
367.267042
 20
192.936330
 30
0.0
 10
367.179532
 20
192.942998
 30
0.0
 10
367.005236
 20
192.956280
 30
0.0
 10
366.761417
 20
193.061236
 30
0.0
 10
366.551553
 20
193.220827
 30
0.0
 10
366.391923
 20
193.430678
 30
0.0
 10
366.286980
 20
193.674509
 30
0.0
 10
366.273694
 20
193.848816
 30
0.0
 10
366.267024
 20
193.936329
 30
0.0
 11
367.267042
 21
192.936330
 31
0.0
 11
367.007532
 21
192.970601
 31
0.0
 11
366.767701
 21
193.069961
 31
0.0
 11
366.559944
 21
193.229231
 31
0.0
 11
366.400664
 21
193.436953
 31
0.0
 11
366.301297
 21
193.676808
 31
0.0
 11
366.267024
 21
193.936329
 31
0.0
  0
LINE
  5
1b4
100
AcDbEntity
  8
Layer_1
 62
1
100
AcDbLine
 10
367.266566
 20
191.416332
 30
0.0
 11
371.029042
 21
191.416332
 31
0.0
  0
SPLINE
  5
1b5
100
AcDbEntity
  8
Layer_1
 62
1
100
AcDbSpline
 70
0
 71
3
 72
13
 73
9
 74
7
 40
0.000000
 40
0.000000
 40
0.000000
 40
0.000000
 40
0.261771
 40
0.521375
 40
0.783118
 40
1.044903
 40
1.304521
 40
1.566339
 40
1.566339
 40
1.566339
 40
1.566339
 10
372.028557
 20
190.416333
 30
0.0
 10
372.021894
 20
190.503845
 30
0.0
 10
372.008623
 20
190.678144
 30
0.0
 10
371.903743
 20
190.921986
 30
0.0
 10
371.744132
 20
191.131842
 30
0.0
 10
371.534262
 20
191.291430
 30
0.0
 10
371.290415
 20
191.396386
 30
0.0
 10
371.116094
 20
191.409665
 30
0.0
 10
371.028565
 20
191.416332
 30
0.0
 11
372.028557
 21
190.416333
 31
0.0
 11
371.994311
 21
190.675854
 31
0.0
 11
371.894995
 21
190.915709
 31
0.0
 11
371.735743
 21
191.123431
 31
0.0
 11
371.527983
 21
191.282701
 31
0.0
 11
371.288131
 21
191.382061
 31
0.0
 11
371.028565
 21
191.416332
 31
0.0
  0
SPLINE
  5
1b6
100
AcDbEntity
  8
Layer_1
 62
1
100
AcDbSpline
 70
0
 71
3
 72
13
 73
9
 74
7
 40
0.000000
 40
0.000000
 40
0.000000
 40
0.000000
 40
0.261763
 40
0.521361
 40
0.783144
 40
1.044904
 40
1.304527
 40
1.566302
 40
1.566302
 40
1.566302
 40
1.566302
 10
367.267042
 20
191.416332
 30
0.0
 10
367.179532
 20
191.409664
 30
0.0
 10
367.005236
 20
191.396382
 30
0.0
 10
366.761417
 20
191.291426
 30
0.0
 10
366.551553
 20
191.131835
 30
0.0
 10
366.391923
 20
190.921984
 30
0.0
 10
366.286980
 20
190.678153
 30
0.0
 10
366.273694
 20
190.503846
 30
0.0
 10
366.267024
 20
190.416333
 30
0.0
 11
367.267042
 21
191.416332
 31
0.0
 11
367.007532
 21
191.382061
 31
0.0
 11
366.767701
 21
191.282701
 31
0.0
 11
366.559944
 21
191.123431
 31
0.0
 11
366.400664
 21
190.915709
 31
0.0
 11
366.301297
 21
190.675854
 31
0.0
 11
366.267024
 21
190.416333
 31
0.0
  0
LINE
  5
1b7
100
AcDbEntity
  8
Layer_1
 62
1
100
AcDbLine
 10
367.266566
 20
189.416318
 30
0.0
 11
371.029042
 21
189.416318
 31
0.0
  0
SPLINE
  5
1b8
100
AcDbEntity
  8
Layer_1
 62
1
100
AcDbSpline
 70
0
 71
3
 72
13
 73
9
 74
7
 40
0.000000
 40
0.000000
 40
0.000000
 40
0.000000
 40
0.261771
 40
0.521375
 40
0.783118
 40
1.044903
 40
1.304521
 40
1.566339
 40
1.566339
 40
1.566339
 40
1.566339
 10
372.028557
 20
190.416317
 30
0.0
 10
372.021894
 20
190.328805
 30
0.0
 10
372.008623
 20
190.154506
 30
0.0
 10
371.903743
 20
189.910663
 30
0.0
 10
371.744132
 20
189.700807
 30
0.0
 10
371.534262
 20
189.541220
 30
0.0
 10
371.290415
 20
189.436263
 30
0.0
 10
371.116094
 20
189.422985
 30
0.0
 10
371.028565
 20
189.416318
 30
0.0
 11
372.028557
 21
190.416317
 31
0.0
 11
371.994311
 21
190.156795
 31
0.0
 11
371.894995
 21
189.916940
 31
0.0
 11
371.735743
 21
189.709219
 31
0.0
 11
371.527983
 21
189.549948
 31
0.0
 11
371.288131
 21
189.450588
 31
0.0
 11
371.028565
 21
189.416318
 31
0.0
  0
LINE
  5
1b9
100
AcDbEntity
  8
Layer_1
 62
1
100
AcDbLine
 10
110.045666
 20
204.496314
 30
0.0
 11
110.045666
 21
186.396337
 31
0.0
  0
SPLINE
  5
1ba
100
AcDbEntity
  8
Layer_1
 62
1
100
AcDbSpline
 70
0
 71
3
 72
13
 73
9
 74
7
 40
0.000000
 40
0.000000
 40
0.000000
 40
0.000000
 40
0.261763
 40
0.521361
 40
0.783144
 40
1.044904
 40
1.304527
 40
1.566302
 40
1.566302
 40
1.566302
 40
1.566302
 10
367.267042
 20
189.416318
 30
0.0
 10
367.179532
 20
189.422986
 30
0.0
 10
367.005236
 20
189.436268
 30
0.0
 10
366.761417
 20
189.541224
 30
0.0
 10
366.551553
 20
189.700815
 30
0.0
 10
366.391923
 20
189.910665
 30
0.0
 10
366.286980
 20
190.154497
 30
0.0
 10
366.273694
 20
190.328804
 30
0.0
 10
366.267024
 20
190.416317
 30
0.0
 11
367.267042
 21
189.416318
 31
0.0
 11
367.007532
 21
189.450588
 31
0.0
 11
366.767701
 21
189.549948
 31
0.0
 11
366.559944
 21
189.709219
 31
0.0
 11
366.400664
 21
189.916940
 31
0.0
 11
366.301297
 21
190.156795
 31
0.0
 11
366.267024
 21
190.416317
 31
0.0
  0
LINE
  5
1bb
100
AcDbEntity
  8
Layer_1
 62
1
100
AcDbLine
 10
104.284133
 20
186.396337
 30
0.0
 11
104.284133
 21
204.496314
 31
0.0
  0
SPLINE
  5
1bc
100
AcDbEntity
  8
Layer_1
 62
1
100
AcDbSpline
 70
0
 71
3
 72
13
 73
9
 74
7
 40
0.000000
 40
0.000000
 40
0.000000
 40
0.000000
 40
0.261818
 40
0.521435
 40
0.783220
 40
1.044965
 40
1.304569
 40
1.566340
 40
1.566340
 40
1.566340
 40
1.566340
 10
109.045674
 20
185.396338
 30
0.0
 10
109.133203
 20
185.403005
 30
0.0
 10
109.307524
 20
185.416283
 30
0.0
 10
109.551371
 20
185.521237
 30
0.0
 10
109.761242
 20
185.680825
 30
0.0
 10
109.920851
 20
185.890682
 30
0.0
 10
110.025732
 20
186.134526
 30
0.0
 10
110.039003
 20
186.308825
 30
0.0
 10
110.045666
 20
186.396337
 30
0.0
 11
109.045674
 21
185.396338
 31
0.0
 11
109.305240
 21
185.430608
 31
0.0
 11
109.545091
 21
185.529966
 31
0.0
 11
109.752852
 21
185.689236
 31
0.0
 11
109.912104
 21
185.896960
 31
0.0
 11
110.011420
 21
186.136815
 31
0.0
 11
110.045666
 21
186.396337
 31
0.0
  0
LINE
  5
1bd
100
AcDbEntity
  8
Layer_1
 62
1
100
AcDbLine
 10
109.046415
 20
185.396338
 30
0.0
 11
105.283410
 21
185.396338
 31
0.0
  0
SPLINE
  5
1be
100
AcDbEntity
  8
Layer_1
 62
1
100
AcDbSpline
 70
0
 71
3
 72
13
 73
9
 74
7
 40
0.000000
 40
0.000000
 40
0.000000
 40
0.000000
 40
0.261775
 40
0.521399
 40
0.783160
 40
1.044943
 40
1.304540
 40
1.566303
 40
1.566303
 40
1.566303
 40
1.566303
 10
104.284133
 20
186.396337
 30
0.0
 10
104.290803
 20
186.308824
 30
0.0
 10
104.304089
 20
186.134516
 30
0.0
 10
104.409033
 20
185.890684
 30
0.0
 10
104.568661
 20
185.680832
 30
0.0
 10
104.778526
 20
185.521242
 30
0.0
 10
105.022345
 20
185.416287
 30
0.0
 10
105.196641
 20
185.403006
 30
0.0
 10
105.284151
 20
185.396338
 30
0.0
 11
104.284133
 21
186.396337
 31
0.0
 11
104.318406
 21
186.136815
 31
0.0
 11
104.417773
 21
185.896960
 31
0.0
 11
104.577053
 21
185.689236
 31
0.0
 11
104.784810
 21
185.529966
 31
0.0
 11
105.024641
 21
185.430608
 31
0.0
 11
105.284151
 21
185.396338
 31
0.0
  0
LINE
  5
1bf
100
AcDbEntity
  8
Layer_1
 62
1
100
AcDbLine
 10
105.283675
 20
205.496314
 30
0.0
 11
109.046151
 21
205.496314
 31
0.0
  0
SPLINE
  5
1c0
100
AcDbEntity
  8
Layer_1
 62
1
100
AcDbSpline
 70
0
 71
3
 72
13
 73
9
 74
7
 40
0.000000
 40
0.000000
 40
0.000000
 40
0.000000
 40
0.261771
 40
0.521375
 40
0.783118
 40
1.044903
 40
1.304521
 40
1.566339
 40
1.566339
 40
1.566339
 40
1.566339
 10
110.045666
 20
204.496314
 30
0.0
 10
110.039003
 20
204.583826
 30
0.0
 10
110.025732
 20
204.758125
 30
0.0
 10
109.920852
 20
205.001968
 30
0.0
 10
109.761241
 20
205.211824
 30
0.0
 10
109.551371
 20
205.371412
 30
0.0
 10
109.307524
 20
205.476368
 30
0.0
 10
109.133203
 20
205.489646
 30
0.0
 10
109.045674
 20
205.496314
 30
0.0
 11
110.045666
 21
204.496314
 31
0.0
 11
110.011420
 21
204.755836
 31
0.0
 11
109.912104
 21
204.995691
 31
0.0
 11
109.752852
 21
205.203412
 31
0.0
 11
109.545091
 21
205.362683
 31
0.0
 11
109.305240
 21
205.462043
 31
0.0
 11
109.045674
 21
205.496314
 31
0.0
  0
LINE
  5
1c1
100
AcDbEntity
  8
Layer_1
 62
1
100
AcDbLine
 10
372.034666
 20
204.508314
 30
0.0
 11
372.034666
 21
186.408337
 31
0.0
  0
SPLINE
  5
1c2
100
AcDbEntity
  8
Layer_1
 62
1
100
AcDbSpline
 70
0
 71
3
 72
13
 73
9
 74
7
 40
0.000000
 40
0.000000
 40
0.000000
 40
0.000000
 40
0.261763
 40
0.521361
 40
0.783144
 40
1.044904
 40
1.304527
 40
1.566302
 40
1.566302
 40
1.566302
 40
1.566302
 10
105.284151
 20
205.496314
 30
0.0
 10
105.196641
 20
205.489645
 30
0.0
 10
105.022345
 20
205.476363
 30
0.0
 10
104.778526
 20
205.371408
 30
0.0
 10
104.568661
 20
205.211817
 30
0.0
 10
104.409032
 20
205.001966
 30
0.0
 10
104.304089
 20
204.758135
 30
0.0
 10
104.290803
 20
204.583828
 30
0.0
 10
104.284133
 20
204.496314
 30
0.0
 11
105.284151
 21
205.496314
 31
0.0
 11
105.024641
 21
205.462043
 31
0.0
 11
104.784810
 21
205.362683
 31
0.0
 11
104.577053
 21
205.203412
 31
0.0
 11
104.417773
 21
204.995691
 31
0.0
 11
104.318406
 21
204.755836
 31
0.0
 11
104.284133
 21
204.496314
 31
0.0
  0
LINE
  5
1c3
100
AcDbEntity
  8
Layer_1
 62
1
100
AcDbLine
 10
366.273133
 20
186.408337
 30
0.0
 11
366.273133
 21
204.508314
 31
0.0
  0
SPLINE
  5
1c4
100
AcDbEntity
  8
Layer_1
 62
1
100
AcDbSpline
 70
0
 71
3
 72
13
 73
9
 74
7
 40
0.000000
 40
0.000000
 40
0.000000
 40
0.000000
 40
0.261818
 40
0.521435
 40
0.783220
 40
1.044965
 40
1.304569
 40
1.566340
 40
1.566340
 40
1.566340
 40
1.566340
 10
371.034674
 20
185.408338
 30
0.0
 10
371.122203
 20
185.415005
 30
0.0
 10
371.296524
 20
185.428283
 30
0.0
 10
371.540371
 20
185.533237
 30
0.0
 10
371.750242
 20
185.692825
 30
0.0
 10
371.909851
 20
185.902682
 30
0.0
 10
372.014732
 20
186.146526
 30
0.0
 10
372.028003
 20
186.320825
 30
0.0
 10
372.034666
 20
186.408337
 30
0.0
 11
371.034674
 21
185.408338
 31
0.0
 11
371.294240
 21
185.442608
 31
0.0
 11
371.534091
 21
185.541966
 31
0.0
 11
371.741852
 21
185.701236
 31
0.0
 11
371.901104
 21
185.908960
 31
0.0
 11
372.000420
 21
186.148815
 31
0.0
 11
372.034666
 21
186.408337
 31
0.0
  0
LINE
  5
1c5
100
AcDbEntity
  8
Layer_1
 62
1
100
AcDbLine
 10
371.035415
 20
185.408338
 30
0.0
 11
367.272410
 21
185.408338
 31
0.0
  0
SPLINE
  5
1c6
100
AcDbEntity
  8
Layer_1
 62
1
100
AcDbSpline
 70
0
 71
3
 72
13
 73
9
 74
7
 40
0.000000
 40
0.000000
 40
0.000000
 40
0.000000
 40
0.261775
 40
0.521399
 40
0.783160
 40
1.044943
 40
1.304540
 40
1.566303
 40
1.566303
 40
1.566303
 40
1.566303
 10
366.273133
 20
186.408337
 30
0.0
 10
366.279803
 20
186.320824
 30
0.0
 10
366.293089
 20
186.146516
 30
0.0
 10
366.398033
 20
185.902684
 30
0.0
 10
366.557661
 20
185.692832
 30
0.0
 10
366.767526
 20
185.533242
 30
0.0
 10
367.011345
 20
185.428287
 30
0.0
 10
367.185641
 20
185.415006
 30
0.0
 10
367.273151
 20
185.408338
 30
0.0
 11
366.273133
 21
186.408337
 31
0.0
 11
366.307406
 21
186.148815
 31
0.0
 11
366.406773
 21
185.908960
 31
0.0
 11
366.566053
 21
185.701236
 31
0.0
 11
366.773810
 21
185.541966
 31
0.0
 11
367.013641
 21
185.442608
 31
0.0
 11
367.273151
 21
185.408338
 31
0.0
  0
LINE
  5
1c7
100
AcDbEntity
  8
Layer_1
 62
1
100
AcDbLine
 10
367.272675
 20
205.508314
 30
0.0
 11
371.035151
 21
205.508314
 31
0.0
  0
SPLINE
  5
1c8
100
AcDbEntity
  8
Layer_1
 62
1
100
AcDbSpline
 70
0
 71
3
 72
13
 73
9
 74
7
 40
0.000000
 40
0.000000
 40
0.000000
 40
0.000000
 40
0.261771
 40
0.521375
 40
0.783118
 40
1.044903
 40
1.304521
 40
1.566339
 40
1.566339
 40
1.566339
 40
1.566339
 10
372.034666
 20
204.508314
 30
0.0
 10
372.028003
 20
204.595826
 30
0.0
 10
372.014732
 20
204.770125
 30
0.0
 10
371.909852
 20
205.013968
 30
0.0
 10
371.750241
 20
205.223824
 30
0.0
 10
371.540371
 20
205.383412
 30
0.0
 10
371.296524
 20
205.488368
 30
0.0
 10
371.122203
 20
205.501646
 30
0.0
 10
371.034674
 20
205.508314
 30
0.0
 11
372.034666
 21
204.508314
 31
0.0
 11
372.000420
 21
204.767836
 31
0.0
 11
371.901104
 21
205.007691
 31
0.0
 11
371.741852
 21
205.215412
 31
0.0
 11
371.534091
 21
205.374683
 31
0.0
 11
371.294240
 21
205.474043
 31
0.0
 11
371.034674
 21
205.508314
 31
0.0
  0
SPLINE
  5
1c9
100
AcDbEntity
  8
Layer_1
 62
1
100
AcDbSpline
 70
0
 71
3
 72
13
 73
9
 74
7
 40
0.000000
 40
0.000000
 40
0.000000
 40
0.000000
 40
0.261763
 40
0.521361
 40
0.783144
 40
1.044904
 40
1.304527
 40
1.566302
 40
1.566302
 40
1.566302
 40
1.566302
 10
367.273151
 20
205.508314
 30
0.0
 10
367.185641
 20
205.501645
 30
0.0
 10
367.011345
 20
205.488363
 30
0.0
 10
366.767526
 20
205.383408
 30
0.0
 10
366.557661
 20
205.223817
 30
0.0
 10
366.398032
 20
205.013966
 30
0.0
 10
366.293089
 20
204.770135
 30
0.0
 10
366.279803
 20
204.595828
 30
0.0
 10
366.273133
 20
204.508314
 30
0.0
 11
367.273151
 21
205.508314
 31
0.0
 11
367.013641
 21
205.474043
 31
0.0
 11
366.773810
 21
205.374683
 31
0.0
 11
366.566053
 21
205.215412
 31
0.0
 11
366.406773
 21
205.007691
 31
0.0
 11
366.307406
 21
204.767836
 31
0.0
 11
366.273133
 21
204.508314
 31
0.0
  0
ENDSEC
  0
SECTION
  2
OBJECTS
  0
DICTIONARY
  5
C
330
0
100
AcDbDictionary
  3
ACAD_GROUP
350
D
  3
ACAD_MLINESTYLE
350
17
  0
DICTIONARY
  5
D
330
C
100
AcDbDictionary
  0
DICTIONARY
  5
1A
330
C
100
AcDbDictionary
  0
DICTIONARY
  5
17
330
C
100
AcDbDictionary
  3
STANDARD
350
18
  0
DICTIONARY
  5
19
330
C
100
AcDbDictionary
  0
ENDSEC
  0
EOF
