  0
SECTION
  2
HEADER
  9
$ACADVER
  1
AC1014
  9
$HANDSEED
  5
FFFF
  9
$INSUNITS
 70
     4
  9
$MEASUREMENT
 70
     1
  0
ENDSEC
  0
SECTION
  2
TABLES
  0
TABLE
  2
VPORT
  5
8
330
0
100
AcDbSymbolTable
 70
     4
  0
VPORT
  5
2E
330
8
100
AcDbSymbolTableRecord
100
AcDbViewportTableRecord
  2
*ACTIVE
 70
     0
 10
0.0
 20
0.0
 11
1.0
 21
1.0
 12
210.0
 22
148.5
 13
0.0
 23
0.0
 14
10.0
 24
10.0
 15
10.0
 25
10.0
 16
0.0
 26
0.0
 36
1.0
 17
0.0
 27
0.0
 37
0.0
 40
341.0
 41
1.24
 42
50.0
 43
0.0
 44
0.0
 50
0.0
 51
0.0
 71
     0
 72
   100
 73
     1
 74
     3
 75
     0
 76
     0
 77
     0
 78
     0
  0
ENDTAB
  0
TABLE
  2
LTYPE
  5
5
330
0
100
AcDbSymbolTable
 70
     1
  0
LTYPE
  5
14
330
5
100
AcDbSymbolTableRecord
100
AcDbLinetypeTableRecord
  2
BYBLOCK
 70
     0
  3

 72
    65
 73
     0
 40
0.0
  0
LTYPE
  5
15
330
5
100
AcDbSymbolTableRecord
100
AcDbLinetypeTableRecord
  2
BYLAYER
 70
     0
  3

 72
    65
 73
     0
 40
0.0
  0
LTYPE
  5
16
330
5
100
AcDbSymbolTableRecord
100
AcDbLinetypeTableRecord
  2
CONTINUOUS
 70
     0
  3
Solid line
 72
    65
 73
     0
 40
0.0
  0
ENDTAB
  0
TABLE
  2
LAYER
  5
2
100
AcDbSymbolTable
 70
2
  0
LAYER
  5
50
100
AcDbSymbolTableRecord
100
AcDbLayerTableRecord
  2
0
 70
0
  6
CONTINUOUS
  0
LAYER
  5
51
100
AcDbSymbolTableRecord
100
AcDbLayerTableRecord
  2
Layer_1
 70
0
  6
CONTINUOUS
  0
ENDTAB
  0
TABLE
  2
STYLE
  5
3
330
0
100
AcDbSymbolTable
 70
     1
  0
STYLE
  5
11
330
3
100
AcDbSymbolTableRecord
100
AcDbTextStyleTableRecord
  2
STANDARD
 70
     0
 40
0.0
 41
1.0
 50
0.0
 71
     0
 42
2.5
  3
txt
  4

  0
ENDTAB
  0
TABLE
  2
VIEW
  5
6
330
0
100
AcDbSymbolTable
 70
     0
  0
ENDTAB
  0
TABLE
  2
UCS
  5
7
330
0
100
AcDbSymbolTable
 70
     0
  0
ENDTAB
  0
TABLE
  2
APPID
  5
9
330
0
100
AcDbSymbolTable
 70
     2
  0
APPID
  5
12
330
9
100
AcDbSymbolTableRecord
100
AcDbRegAppTableRecord
  2
ACAD
 70
     0
  0
ENDTAB
  0
TABLE
  2
DIMSTYLE
  5
A
330
0
100
AcDbSymbolTable
 70
     1
  0
DIMSTYLE
105
27
330
A
100
AcDbSymbolTableRecord
100
AcDbDimStyleTableRecord
  2
ISO-25
 70
     0
  3

  4

  5

  6

  7

 40
1.0
 41
2.5
 42
0.625
 43
3.75
 44
1.25
 45
0.0
 46
0.0
 47
0.0
 48
0.0
140
2.5
141
2.5
142
0.0
143
0.03937007874016
144
1.0
145
0.0
146
1.0
147
0.625
 71
     0
 72
     0
 73
     0
 74
     0
 75
     0
 76
     0
 77
     1
 78
     8
170
     0
171
     3
172
     1
173
     0
174
     0
175
     0
176
     0
177
     0
178
     0
270
     2
271
     2
272
     2
273
     2
274
     3
340
11
275
     0
280
     0
281
     0
282
     0
283
     0
284
     8
285
     0
286
     0
287
     3
288
     0
  0
ENDTAB
  0
TABLE
  2
BLOCK_RECORD
  5
1
330
0
100
AcDbSymbolTable
 70
     1
  0
BLOCK_RECORD
  5
1F
330
1
100
AcDbSymbolTableRecord
100
AcDbBlockTableRecord
  2
*MODEL_SPACE
  0
BLOCK_RECORD
  5
1B
330
1
100
AcDbSymbolTableRecord
100
AcDbBlockTableRecord
  2
*PAPER_SPACE
  0
ENDTAB
  0
ENDSEC
  0
SECTION
  2
BLOCKS
  0
BLOCK
  5
20
330
1F
100
AcDbEntity
  8
0
100
AcDbBlockBegin
  2
*MODEL_SPACE
 70
     0
 10
0.0
 20
0.0
 30
0.0
  3
*MODEL_SPACE
  1

  0
ENDBLK
  5
21
330
1F
100
AcDbEntity
  8
0
100
AcDbBlockEnd
  0
BLOCK
  5
1C
330
1B
100
AcDbEntity
 67
     1
  8
0
100
AcDbBlockBegin
  2
*PAPER_SPACE
  1

  0
ENDBLK
  5
1D
330
1B
100
AcDbEntity
 67
     1
  8
0
100
AcDbBlockEnd
  0
ENDSEC
  0
SECTION
  2
ENTITIES
  0
SPLINE
  5
100
100
AcDbEntity
  8
Layer_1
 62
2
100
AcDbSpline
 70
0
 71
3
 72
10
 73
6
 74
4
 40
0.000000
 40
0.000000
 40
0.000000
 40
0.000000
 40
2.091435
 40
4.120838
 40
6.212273
 40
6.212273
 40
6.212273
 40
6.212273
 10
96.284425
 20
209.483332
 30
0.0
 10
96.394445
 20
210.184235
 30
0.0
 10
96.611223
 20
211.565252
 30
0.0
 10
98.202501
 20
213.156531
 30
0.0
 10
99.583517
 20
213.373311
 30
0.0
 10
100.284420
 20
213.483332
 30
0.0
 11
96.284425
 21
209.483332
 31
0.0
 11
96.830541
 21
211.502207
 31
0.0
 11
98.265546
 21
212.937213
 31
0.0
 11
100.284420
 21
213.483332
 31
0.0
  0
SPLINE
  5
101
100
AcDbEntity
  8
Layer_1
 62
2
100
AcDbSpline
 70
0
 71
3
 72
10
 73
6
 74
4
 40
0.000000
 40
0.000000
 40
0.000000
 40
0.000000
 40
2.091435
 40
4.120838
 40
6.212273
 40
6.212273
 40
6.212273
 40
6.212273
 10
96.284425
 20
209.483332
 30
0.0
 10
96.394445
 20
210.184235
 30
0.0
 10
96.611223
 20
211.565252
 30
0.0
 10
98.202501
 20
213.156531
 30
0.0
 10
99.583517
 20
213.373311
 30
0.0
 10
100.284420
 20
213.483332
 30
0.0
 11
96.284425
 21
209.483332
 31
0.0
 11
96.830541
 21
211.502207
 31
0.0
 11
98.265546
 21
212.937213
 31
0.0
 11
100.284420
 21
213.483332
 31
0.0
  0
LINE
  5
102
100
AcDbEntity
  8
Layer_1
 62
2
100
AcDbLine
 10
100.284520
 20
213.484362
 30
0.0
 11
376.034320
 21
213.484362
 31
0.0
  0
SPLINE
  5
103
100
AcDbEntity
  8
Layer_1
 62
2
100
AcDbSpline
 70
0
 71
3
 72
10
 73
6
 74
4
 40
0.000000
 40
0.000000
 40
0.000000
 40
0.000000
 40
2.091435
 40
4.120838
 40
6.212273
 40
6.212273
 40
6.212273
 40
6.212273
 10
96.284425
 20
202.475420
 30
0.0
 10
96.394445
 20
201.774517
 30
0.0
 10
96.611223
 20
200.393500
 30
0.0
 10
98.202501
 20
198.802221
 30
0.0
 10
99.583517
 20
198.585441
 30
0.0
 10
100.284420
 20
198.475420
 30
0.0
 11
96.284425
 21
202.475420
 31
0.0
 11
96.830541
 21
200.456545
 31
0.0
 11
98.265546
 21
199.021539
 31
0.0
 11
100.284420
 21
198.475420
 31
0.0
  0
LINE
  5
104
100
AcDbEntity
  8
Layer_1
 62
2
100
AcDbLine
 10
380.034290
 20
209.483862
 30
0.0
 11
380.034290
 21
206.483482
 31
0.0
  0
LINE
  5
105
100
AcDbEntity
  8
Layer_1
 62
2
100
AcDbLine
 10
380.034290
 20
206.483482
 30
0.0
 11
380.034430
 21
202.473477
 31
0.0
  0
SPLINE
  5
106
100
AcDbEntity
  8
Layer_1
 62
2
100
AcDbSpline
 70
0
 71
3
 72
10
 73
6
 74
4
 40
0.000000
 40
0.000000
 40
0.000000
 40
0.000000
 40
2.091437
 40
4.120842
 40
6.212278
 40
6.212278
 40
6.212278
 40
6.212278
 10
376.034420
 20
213.483332
 30
0.0
 10
376.735323
 20
213.373311
 30
0.0
 10
378.116342
 20
213.156533
 30
0.0
 10
379.707621
 20
211.565253
 30
0.0
 10
379.924399
 20
210.184235
 30
0.0
 10
380.034420
 20
209.483332
 30
0.0
 11
376.034420
 21
213.483332
 31
0.0
 11
378.053297
 21
212.937215
 31
0.0
 11
379.488303
 21
211.502209
 31
0.0
 11
380.034420
 21
209.483332
 31
0.0
  0
LINE
  5
107
100
AcDbEntity
  8
Layer_1
 62
2
100
AcDbLine
 10
376.034430
 20
198.473477
 30
0.0
 11
156.674680
 21
198.474977
 31
0.0
  0
LINE
  5
108
100
AcDbEntity
  8
Layer_1
 62
2
100
AcDbLine
 10
156.674680
 20
198.474977
 30
0.0
 11
156.141660
 21
198.471677
 31
0.0
  0
SPLINE
  5
109
100
AcDbEntity
  8
Layer_1
 62
2
100
AcDbSpline
 70
0
 71
3
 72
10
 73
6
 74
4
 40
0.000000
 40
0.000000
 40
0.000000
 40
0.000000
 40
2.091436
 40
4.120841
 40
6.212278
 40
6.212278
 40
6.212278
 40
6.212278
 10
380.034430
 20
202.473477
 30
0.0
 10
379.924409
 20
201.772574
 30
0.0
 10
379.707631
 20
200.391556
 30
0.0
 10
378.116352
 20
198.800276
 30
0.0
 10
376.735333
 20
198.583498
 30
0.0
 10
376.034430
 20
198.473477
 30
0.0
 11
380.034430
 21
202.473477
 31
0.0
 11
379.488313
 21
200.454600
 31
0.0
 11
378.053307
 21
199.019594
 31
0.0
 11
376.034430
 21
198.473477
 31
0.0
  0
LINE
  5
10a
100
AcDbEntity
  8
Layer_1
 62
2
100
AcDbLine
 10
96.284550
 20
209.483769
 30
0.0
 11
96.284550
 21
206.483389
 31
0.0
  0
LINE
  5
10b
100
AcDbEntity
  8
Layer_1
 62
2
100
AcDbLine
 10
96.284550
 20
206.483389
 30
0.0
 11
96.284425
 21
202.475327
 31
0.0
  0
SPLINE
  5
10c
100
AcDbEntity
  8
Layer_1
 62
2
100
AcDbSpline
 70
0
 71
3
 72
10
 73
6
 74
4
 40
0.000000
 40
0.000000
 40
0.000000
 40
0.000000
 40
2.091439
 40
4.120844
 40
6.212279
 40
6.212279
 40
6.212279
 40
6.212279
 10
156.141660
 20
198.471677
 30
0.0
 10
155.440757
 20
198.581700
 30
0.0
 10
154.059739
 20
198.798483
 30
0.0
 10
152.468459
 20
200.389762
 30
0.0
 10
152.251681
 20
201.770780
 30
0.0
 10
152.141660
 20
202.471683
 30
0.0
 11
156.141660
 21
198.471677
 31
0.0
 11
154.122783
 21
199.017801
 31
0.0
 11
152.687777
 21
200.452808
 31
0.0
 11
152.141660
 21
202.471683
 31
0.0
  0
LINE
  5
10d
100
AcDbEntity
  8
Layer_1
 62
2
100
AcDbLine
 10
100.284420
 20
198.475327
 30
0.0
 11
128.886550
 21
198.475130
 31
0.0
  0
LINE
  5
10e
100
AcDbEntity
  8
Layer_1
 62
2
100
AcDbLine
 10
128.886550
 20
198.475130
 30
0.0
 11
129.621920
 21
198.471730
 31
0.0
  0
SPLINE
  5
10f
100
AcDbEntity
  8
Layer_1
 62
2
100
AcDbSpline
 70
0
 71
3
 72
10
 73
6
 74
4
 40
0.000000
 40
0.000000
 40
0.000000
 40
0.000000
 40
2.091435
 40
4.120838
 40
6.212273
 40
6.212273
 40
6.212273
 40
6.212273
 10
96.284425
 20
202.475327
 30
0.0
 10
96.394445
 20
201.774424
 30
0.0
 10
96.611223
 20
200.393407
 30
0.0
 10
98.202501
 20
198.802128
 30
0.0
 10
99.583517
 20
198.585348
 30
0.0
 10
100.284420
 20
198.475327
 30
0.0
 11
96.284425
 21
202.475327
 31
0.0
 11
96.830541
 21
200.456452
 31
0.0
 11
98.265546
 21
199.021446
 31
0.0
 11
100.284420
 21
198.475327
 31
0.0
  0
SPLINE
  5
110
100
AcDbEntity
  8
Layer_1
 62
2
100
AcDbSpline
 70
0
 71
3
 72
10
 73
6
 74
4
 40
0.000000
 40
0.000000
 40
0.000000
 40
0.000000
 40
2.091439
 40
4.120844
 40
6.212279
 40
6.212279
 40
6.212279
 40
6.212279
 10
129.621920
 20
198.471730
 30
0.0
 10
130.322823
 20
198.581753
 30
0.0
 10
131.703841
 20
198.798536
 30
0.0
 10
133.295121
 20
200.389815
 30
0.0
 10
133.511899
 20
201.770833
 30
0.0
 10
133.621920
 20
202.471736
 30
0.0
 11
129.621920
 21
198.471730
 31
0.0
 11
131.640797
 21
199.017854
 31
0.0
 11
133.075803
 21
200.452861
 31
0.0
 11
133.621920
 21
202.471736
 31
0.0
  0
SPLINE
  5
111
100
AcDbEntity
  8
Layer_1
 62
2
100
AcDbSpline
 70
0
 71
3
 72
10
 73
6
 74
4
 40
0.000000
 40
0.000000
 40
0.000000
 40
0.000000
 40
0.976122
 40
1.889569
 40
2.865739
 40
2.865739
 40
2.865739
 40
2.865739
 10
101.234420
 20
209.483332
 30
0.0
 10
101.124838
 20
209.144143
 30
0.0
 10
100.912710
 20
208.487545
 30
0.0
 10
99.656226
 20
208.487563
 30
0.0
 10
99.444040
 20
209.144144
 30
0.0
 10
99.334426
 20
209.483332
 30
0.0
 11
101.234420
 21
209.483332
 31
0.0
 11
100.741194
 21
208.640989
 31
0.0
 11
99.827747
 21
208.640989
 31
0.0
 11
99.334426
 21
209.483332
 31
0.0
  0
LINE
  5
112
100
AcDbEntity
  8
Layer_1
 62
2
100
AcDbLine
 10
101.234420
 20
209.483332
 30
0.0
 11
101.234420
 21
209.483332
 31
0.0
  0
SPLINE
  5
113
100
AcDbEntity
  8
Layer_1
 62
2
100
AcDbSpline
 70
0
 71
3
 72
10
 73
6
 74
4
 40
0.000000
 40
0.000000
 40
0.000000
 40
0.000000
 40
0.976145
 40
1.889570
 40
2.865728
 40
2.865728
 40
2.865728
 40
2.865728
 10
99.334426
 20
209.483332
 30
0.0
 10
99.444023
 20
209.822521
 30
0.0
 10
99.656176
 20
210.479107
 30
0.0
 10
100.912645
 20
210.479101
 30
0.0
 10
101.124814
 20
209.822521
 30
0.0
 10
101.234420
 20
209.483332
 30
0.0
 11
99.334426
 21
209.483332
 31
0.0
 11
99.827697
 21
210.325675
 31
0.0
 11
100.741122
 21
210.325675
 31
0.0
 11
101.234420
 21
209.483332
 31
0.0
  0
LINE
  5
114
100
AcDbEntity
  8
Layer_1
 62
2
100
AcDbLine
 10
239.109420
 20
209.483332
 30
0.0
 11
239.109420
 21
209.483332
 31
0.0
  0
SPLINE
  5
115
100
AcDbEntity
  8
Layer_1
 62
2
100
AcDbSpline
 70
0
 71
3
 72
13
 73
9
 74
7
 40
0.000000
 40
0.000000
 40
0.000000
 40
0.000000
 40
0.977616
 40
1.892431
 40
2.870047
 40
3.847663
 40
4.762478
 40
5.740094
 40
5.740094
 40
5.740094
 40
5.740094
 10
239.109420
 20
209.483332
 30
0.0
 10
238.996100
 20
209.143298
 30
0.0
 10
238.776740
 20
208.485072
 30
0.0
 10
237.576656
 20
208.485072
 30
0.0
 10
237.019709
 20
209.483332
 30
0.0
 10
237.576656
 20
210.481592
 30
0.0
 10
238.776740
 20
210.481592
 30
0.0
 10
238.996100
 20
209.823366
 30
0.0
 10
239.109420
 20
209.483332
 30
0.0
 11
239.109420
 21
209.483332
 31
0.0
 11
238.616827
 21
208.638888
 31
0.0
 11
237.702013
 21
208.638888
 31
0.0
 11
237.209420
 21
209.483332
 31
0.0
 11
237.702013
 21
210.327776
 31
0.0
 11
238.616827
 21
210.327776
 31
0.0
 11
239.109420
 21
209.483332
 31
0.0
  0
LINE
  5
116
100
AcDbEntity
  8
Layer_1
 62
2
100
AcDbLine
 10
376.984420
 20
209.483332
 30
0.0
 11
376.984420
 21
209.483332
 31
0.0
  0
SPLINE
  5
117
100
AcDbEntity
  8
Layer_1
 62
2
100
AcDbSpline
 70
0
 71
3
 72
13
 73
9
 74
7
 40
0.000000
 40
0.000000
 40
0.000000
 40
0.000000
 40
0.977616
 40
1.892431
 40
2.870047
 40
3.847663
 40
4.762478
 40
5.740094
 40
5.740094
 40
5.740094
 40
5.740094
 10
376.984420
 20
209.483332
 30
0.0
 10
376.871100
 20
209.143298
 30
0.0
 10
376.651740
 20
208.485072
 30
0.0
 10
375.451656
 20
208.485072
 30
0.0
 10
374.894709
 20
209.483332
 30
0.0
 10
375.451656
 20
210.481592
 30
0.0
 10
376.651740
 20
210.481592
 30
0.0
 10
376.871100
 20
209.823366
 30
0.0
 10
376.984420
 20
209.483332
 30
0.0
 11
376.984420
 21
209.483332
 31
0.0
 11
376.491827
 21
208.638888
 31
0.0
 11
375.577013
 21
208.638888
 31
0.0
 11
375.084420
 21
209.483332
 31
0.0
 11
375.577013
 21
210.327776
 31
0.0
 11
376.491827
 21
210.327776
 31
0.0
 11
376.984420
 21
209.483332
 31
0.0
  0
LINE
  5
118
100
AcDbEntity
  8
Layer_1
 62
2
100
AcDbLine
 10
149.883960
 20
204.746192
 30
0.0
 11
135.879620
 21
204.746192
 31
0.0
  0
SPLINE
  5
119
100
AcDbEntity
  8
Layer_1
 62
2
100
AcDbSpline
 70
0
 71
3
 72
10
 73
6
 74
4
 40
0.000000
 40
0.000000
 40
0.000000
 40
0.000000
 40
0.619053
 40
1.859770
 40
3.531251
 40
3.531251
 40
3.531251
 40
3.531251
 10
152.141700
 20
202.465063
 30
0.0
 10
152.118751
 20
202.668946
 30
0.0
 10
152.049809
 20
203.281455
 30
0.0
 10
151.480641
 20
204.447224
 30
0.0
 10
150.466205
 20
204.637171
 30
0.0
 10
149.883960
 20
204.746192
 30
0.0
 11
152.141700
 21
202.465063
 31
0.0
 11
152.047280
 21
203.076873
 31
0.0
 11
151.451140
 21
204.164988
 31
0.0
 11
149.883960
 21
204.746192
 31
0.0
  0
SPLINE
  5
11a
100
AcDbEntity
  8
Layer_1
 62
2
100
AcDbSpline
 70
0
 71
3
 72
10
 73
6
 74
4
 40
0.000000
 40
0.000000
 40
0.000000
 40
0.000000
 40
1.671481
 40
2.912197
 40
3.531252
 40
3.531252
 40
3.531252
 40
3.531252
 10
135.879620
 20
204.746192
 30
0.0
 10
135.297375
 20
204.637171
 30
0.0
 10
134.282939
 20
204.447225
 30
0.0
 10
133.713771
 20
203.281456
 30
0.0
 10
133.644829
 20
202.668947
 30
0.0
 10
133.621880
 20
202.465063
 30
0.0
 11
135.879620
 21
204.746192
 31
0.0
 11
134.312440
 21
204.164989
 31
0.0
 11
133.716300
 21
203.076875
 31
0.0
 11
133.621880
 21
202.465063
 31
0.0
  0
ENDSEC
  0
SECTION
  2
OBJECTS
  0
DICTIONARY
  5
C
330
0
100
AcDbDictionary
  3
ACAD_GROUP
350
D
  3
ACAD_MLINESTYLE
350
17
  0
DICTIONARY
  5
D
330
C
100
AcDbDictionary
  0
DICTIONARY
  5
1A
330
C
100
AcDbDictionary
  0
DICTIONARY
  5
17
330
C
100
AcDbDictionary
  3
STANDARD
350
18
  0
DICTIONARY
  5
19
330
C
100
AcDbDictionary
  0
ENDSEC
  0
EOF
