  0
SECTION
  2
HEADER
  9
$ACADVER
  1
AC1014
  9
$HANDSEED
  5
FFFF
  9
$INSUNITS
 70
     4
  9
$MEASUREMENT
 70
     1
  0
ENDSEC
  0
SECTION
  2
TABLES
  0
TABLE
  2
VPORT
  5
8
330
0
100
AcDbSymbolTable
 70
     4
  0
VPORT
  5
2E
330
8
100
AcDbSymbolTableRecord
100
AcDbViewportTableRecord
  2
*ACTIVE
 70
     0
 10
0.0
 20
0.0
 11
1.0
 21
1.0
 12
210.0
 22
148.5
 13
0.0
 23
0.0
 14
10.0
 24
10.0
 15
10.0
 25
10.0
 16
0.0
 26
0.0
 36
1.0
 17
0.0
 27
0.0
 37
0.0
 40
341.0
 41
1.24
 42
50.0
 43
0.0
 44
0.0
 50
0.0
 51
0.0
 71
     0
 72
   100
 73
     1
 74
     3
 75
     0
 76
     0
 77
     0
 78
     0
  0
ENDTAB
  0
TABLE
  2
LTYPE
  5
5
330
0
100
AcDbSymbolTable
 70
     1
  0
LTYPE
  5
14
330
5
100
AcDbSymbolTableRecord
100
AcDbLinetypeTableRecord
  2
BYBLOCK
 70
     0
  3

 72
    65
 73
     0
 40
0.0
  0
LTYPE
  5
15
330
5
100
AcDbSymbolTableRecord
100
AcDbLinetypeTableRecord
  2
BYLAYER
 70
     0
  3

 72
    65
 73
     0
 40
0.0
  0
LTYPE
  5
16
330
5
100
AcDbSymbolTableRecord
100
AcDbLinetypeTableRecord
  2
CONTINUOUS
 70
     0
  3
Solid line
 72
    65
 73
     0
 40
0.0
  0
ENDTAB
  0
TABLE
  2
LAYER
  5
2
100
AcDbSymbolTable
 70
2
  0
LAYER
  5
50
100
AcDbSymbolTableRecord
100
AcDbLayerTableRecord
  2
0
 70
0
  6
CONTINUOUS
  0
LAYER
  5
51
100
AcDbSymbolTableRecord
100
AcDbLayerTableRecord
  2
Layer_1
 70
0
  6
CONTINUOUS
  0
ENDTAB
  0
TABLE
  2
STYLE
  5
3
330
0
100
AcDbSymbolTable
 70
     1
  0
STYLE
  5
11
330
3
100
AcDbSymbolTableRecord
100
AcDbTextStyleTableRecord
  2
STANDARD
 70
     0
 40
0.0
 41
1.0
 50
0.0
 71
     0
 42
2.5
  3
txt
  4

  0
ENDTAB
  0
TABLE
  2
VIEW
  5
6
330
0
100
AcDbSymbolTable
 70
     0
  0
ENDTAB
  0
TABLE
  2
UCS
  5
7
330
0
100
AcDbSymbolTable
 70
     0
  0
ENDTAB
  0
TABLE
  2
APPID
  5
9
330
0
100
AcDbSymbolTable
 70
     2
  0
APPID
  5
12
330
9
100
AcDbSymbolTableRecord
100
AcDbRegAppTableRecord
  2
ACAD
 70
     0
  0
ENDTAB
  0
TABLE
  2
DIMSTYLE
  5
A
330
0
100
AcDbSymbolTable
 70
     1
  0
DIMSTYLE
105
27
330
A
100
AcDbSymbolTableRecord
100
AcDbDimStyleTableRecord
  2
ISO-25
 70
     0
  3

  4

  5

  6

  7

 40
1.0
 41
2.5
 42
0.625
 43
3.75
 44
1.25
 45
0.0
 46
0.0
 47
0.0
 48
0.0
140
2.5
141
2.5
142
0.0
143
0.03937007874016
144
1.0
145
0.0
146
1.0
147
0.625
 71
     0
 72
     0
 73
     0
 74
     0
 75
     0
 76
     0
 77
     1
 78
     8
170
     0
171
     3
172
     1
173
     0
174
     0
175
     0
176
     0
177
     0
178
     0
270
     2
271
     2
272
     2
273
     2
274
     3
340
11
275
     0
280
     0
281
     0
282
     0
283
     0
284
     8
285
     0
286
     0
287
     3
288
     0
  0
ENDTAB
  0
TABLE
  2
BLOCK_RECORD
  5
1
330
0
100
AcDbSymbolTable
 70
     1
  0
BLOCK_RECORD
  5
1F
330
1
100
AcDbSymbolTableRecord
100
AcDbBlockTableRecord
  2
*MODEL_SPACE
  0
BLOCK_RECORD
  5
1B
330
1
100
AcDbSymbolTableRecord
100
AcDbBlockTableRecord
  2
*PAPER_SPACE
  0
ENDTAB
  0
ENDSEC
  0
SECTION
  2
BLOCKS
  0
BLOCK
  5
20
330
1F
100
AcDbEntity
  8
0
100
AcDbBlockBegin
  2
*MODEL_SPACE
 70
     0
 10
0.0
 20
0.0
 30
0.0
  3
*MODEL_SPACE
  1

  0
ENDBLK
  5
21
330
1F
100
AcDbEntity
  8
0
100
AcDbBlockEnd
  0
BLOCK
  5
1C
330
1B
100
AcDbEntity
 67
     1
  8
0
100
AcDbBlockBegin
  2
*PAPER_SPACE
  1

  0
ENDBLK
  5
1D
330
1B
100
AcDbEntity
 67
     1
  8
0
100
AcDbBlockEnd
  0
ENDSEC
  0
SECTION
  2
ENTITIES
  0
LINE
  5
100
100
AcDbEntity
  8
Layer_1
 62
2
100
AcDbLine
 10
310.441404
 20
93.666739
 30
0.0
 11
310.441404
 21
93.666739
 31
0.0
  0
SPLINE
  5
101
100
AcDbEntity
  8
Layer_1
 62
2
100
AcDbSpline
 70
0
 71
3
 72
19
 73
15
 74
13
 40
0.000000
 40
0.000000
 40
0.000000
 40
0.000000
 40
0.819670
 40
1.615033
 40
2.434740
 40
3.254421
 40
4.049805
 40
4.869481
 40
5.689156
 40
6.484541
 40
7.304222
 40
8.123926
 40
8.919278
 40
9.738976
 40
9.738976
 40
9.738976
 40
9.738976
 10
310.441404
 20
93.666739
 30
0.0
 10
310.398321
 20
93.943093
 30
0.0
 10
310.313433
 20
94.487607
 30
0.0
 10
309.689325
 20
95.087099
 30
0.0
 10
308.875170
 20
95.309221
 30
0.0
 10
308.052471
 20
95.087085
 30
0.0
 10
307.453482
 20
94.487615
 30
0.0
 10
307.231175
 20
93.666739
 30
0.0
 10
307.453482
 20
92.845864
 30
0.0
 10
308.052471
 20
92.246393
 30
0.0
 10
308.875168
 20
92.024262
 30
0.0
 10
309.689322
 20
92.246362
 30
0.0
 10
310.313444
 20
92.845851
 30
0.0
 10
310.398324
 20
93.390374
 30
0.0
 10
310.441404
 20
93.666739
 30
0.0
 11
310.441404
 21
93.666739
 31
0.0
 11
310.227385
 21
94.457975
 31
0.0
 11
309.664992
 21
95.020396
 31
0.0
 11
308.873724
 21
95.234438
 31
0.0
 11
308.082483
 21
95.020396
 31
0.0
 11
307.520060
 21
94.457975
 31
0.0
 11
307.306016
 21
93.666739
 31
0.0
 11
307.520060
 21
92.875504
 31
0.0
 11
308.082483
 21
92.313083
 31
0.0
 11
308.873724
 21
92.099040
 31
0.0
 11
309.664992
 21
92.313068
 31
0.0
 11
310.227385
 21
92.875474
 31
0.0
 11
310.441404
 21
93.666739
 31
0.0
  0
LINE
  5
102
100
AcDbEntity
  8
Layer_1
 62
2
100
AcDbLine
 10
169.004302
 20
93.666739
 30
0.0
 11
169.004302
 21
93.666739
 31
0.0
  0
SPLINE
  5
103
100
AcDbEntity
  8
Layer_1
 62
2
100
AcDbSpline
 70
0
 71
3
 72
19
 73
15
 74
13
 40
0.000000
 40
0.000000
 40
0.000000
 40
0.000000
 40
0.819674
 40
1.615050
 40
2.434753
 40
3.254444
 40
4.049824
 40
4.869500
 40
5.689175
 40
6.484555
 40
7.304246
 40
8.123945
 40
8.919310
 40
9.739014
 40
9.739014
 40
9.739014
 40
9.739014
 10
169.004302
 20
93.666739
 30
0.0
 10
168.961215
 20
93.943095
 30
0.0
 10
168.876318
 20
94.487613
 30
0.0
 10
168.252194
 20
95.087094
 30
0.0
 10
167.438037
 20
95.309221
 30
0.0
 10
166.615334
 20
95.087090
 30
0.0
 10
166.016345
 20
94.487614
 30
0.0
 10
165.794049
 20
93.666739
 30
0.0
 10
166.016346
 20
92.845865
 30
0.0
 10
166.615334
 20
92.246388
 30
0.0
 10
167.438035
 20
92.024262
 30
0.0
 10
168.252190
 20
92.246366
 30
0.0
 10
168.876329
 20
92.845844
 30
0.0
 10
168.961218
 20
93.390372
 30
0.0
 10
169.004302
 20
93.666739
 30
0.0
 11
169.004302
 21
93.666739
 31
0.0
 11
168.790270
 21
94.457976
 31
0.0
 11
168.227859
 21
95.020396
 31
0.0
 11
167.436595
 21
95.234438
 31
0.0
 11
166.645343
 21
95.020396
 31
0.0
 11
166.082925
 21
94.457976
 31
0.0
 11
165.868888
 21
93.666739
 31
0.0
 11
166.082925
 21
92.875503
 31
0.0
 11
166.645343
 21
92.313083
 31
0.0
 11
167.436595
 21
92.099040
 31
0.0
 11
168.227859
 21
92.313067
 31
0.0
 11
168.790270
 21
92.875471
 31
0.0
 11
169.004302
 21
93.666739
 31
0.0
  0
LINE
  5
104
100
AcDbEntity
  8
Layer_1
 62
2
100
AcDbLine
 10
349.949150
 20
93.666739
 30
0.0
 11
349.949150
 21
93.666739
 31
0.0
  0
SPLINE
  5
105
100
AcDbEntity
  8
Layer_1
 62
2
100
AcDbSpline
 70
0
 71
3
 72
19
 73
15
 74
13
 40
0.000000
 40
0.000000
 40
0.000000
 40
0.000000
 40
1.176417
 40
2.317967
 40
3.494376
 40
4.670786
 40
5.812336
 40
6.988753
 40
8.165169
 40
9.306718
 40
10.483127
 40
11.659531
 40
12.801065
 40
13.977524
 40
13.977524
 40
13.977524
 40
13.977524
 10
349.949150
 20
93.666739
 30
0.0
 10
349.887304
 20
94.063370
 30
0.0
 10
349.765445
 20
94.844877
 30
0.0
 10
348.869694
 20
95.705246
 30
0.0
 10
347.701227
 20
96.024073
 30
0.0
 10
346.520492
 20
95.705246
 30
0.0
 10
345.660821
 20
94.844877
 30
0.0
 10
345.341760
 20
93.666739
 30
0.0
 10
345.660821
 20
92.488603
 30
0.0
 10
346.520493
 20
91.628233
 30
0.0
 10
347.701224
 20
91.309415
 30
0.0
 10
348.869688
 20
91.628208
 30
0.0
 10
349.765462
 20
92.488571
 30
0.0
 10
349.887308
 20
93.270091
 30
0.0
 10
349.949150
 20
93.666739
 30
0.0
 11
349.949150
 21
93.666739
 31
0.0
 11
349.641950
 21
94.802338
 31
0.0
 11
348.834753
 21
95.609537
 31
0.0
 11
347.699162
 21
95.916737
 31
0.0
 11
346.563571
 21
95.609537
 31
0.0
 11
345.756374
 21
94.802338
 31
0.0
 11
345.449175
 21
93.666739
 31
0.0
 11
345.756374
 21
92.531141
 31
0.0
 11
346.563571
 21
91.723943
 31
0.0
 11
347.699162
 21
91.416744
 31
0.0
 11
348.834753
 21
91.723921
 31
0.0
 11
349.641950
 21
92.531097
 31
0.0
 11
349.949150
 21
93.666739
 31
0.0
  0
LINE
  5
106
100
AcDbEntity
  8
Layer_1
 62
2
100
AcDbLine
 10
239.729507
 20
209.491594
 30
0.0
 11
239.729507
 21
209.491594
 31
0.0
  0
SPLINE
  5
107
100
AcDbEntity
  8
Layer_1
 62
2
100
AcDbSpline
 70
0
 71
3
 72
19
 73
15
 74
13
 40
0.000000
 40
0.000000
 40
0.000000
 40
0.000000
 40
0.819674
 40
1.615055
 40
2.434747
 40
3.254439
 40
4.049820
 40
4.869494
 40
5.689169
 40
6.484549
 40
7.304241
 40
8.123929
 40
8.919299
 40
9.739003
 40
9.739003
 40
9.739003
 40
9.739003
 10
239.729507
 20
209.491594
 30
0.0
 10
239.686418
 20
209.767949
 30
0.0
 10
239.601516
 20
210.312468
 30
0.0
 10
238.977391
 20
210.911944
 30
0.0
 10
238.163239
 20
211.134078
 30
0.0
 10
237.340539
 20
210.911944
 30
0.0
 10
236.741552
 20
210.312468
 30
0.0
 10
236.519255
 20
209.491594
 30
0.0
 10
236.741552
 20
208.670720
 30
0.0
 10
237.340539
 20
208.071243
 30
0.0
 10
238.163237
 20
207.849114
 30
0.0
 10
238.977388
 20
208.071226
 30
0.0
 10
239.601528
 20
208.670698
 30
0.0
 10
239.686421
 20
209.215227
 30
0.0
 10
239.729507
 20
209.491594
 30
0.0
 11
239.729507
 21
209.491594
 31
0.0
 11
239.515470
 21
210.282830
 31
0.0
 11
238.953052
 21
210.845251
 31
0.0
 11
238.161800
 21
211.059294
 31
0.0
 11
237.370548
 21
210.845251
 31
0.0
 11
236.808131
 21
210.282830
 31
0.0
 11
236.594093
 21
209.491594
 31
0.0
 11
236.808131
 21
208.700358
 31
0.0
 11
237.370548
 21
208.137937
 31
0.0
 11
238.161800
 21
207.923894
 31
0.0
 11
238.953052
 21
208.137922
 31
0.0
 11
239.515470
 21
208.700327
 31
0.0
 11
239.729507
 21
209.491594
 31
0.0
  0
LINE
  5
108
100
AcDbEntity
  8
Layer_1
 62
2
100
AcDbLine
 10
126.111932
 20
209.491594
 30
0.0
 11
126.111932
 21
209.491594
 31
0.0
  0
SPLINE
  5
109
100
AcDbEntity
  8
Layer_1
 62
2
100
AcDbSpline
 70
0
 71
3
 72
19
 73
15
 74
13
 40
0.000000
 40
0.000000
 40
0.000000
 40
0.000000
 40
1.176416
 40
2.317967
 40
3.494376
 40
4.670785
 40
5.812335
 40
6.988752
 40
8.165168
 40
9.306718
 40
10.483128
 40
11.659531
 40
12.801066
 40
13.977525
 40
13.977525
 40
13.977525
 40
13.977525
 10
126.111932
 20
209.491594
 30
0.0
 10
126.050086
 20
209.888225
 30
0.0
 10
125.928227
 20
210.669732
 30
0.0
 10
125.032476
 20
211.530100
 30
0.0
 10
123.864009
 20
211.848927
 30
0.0
 10
122.683274
 20
211.530100
 30
0.0
 10
121.823603
 20
210.669732
 30
0.0
 10
121.504542
 20
209.491594
 30
0.0
 10
121.823603
 20
208.313457
 30
0.0
 10
122.683275
 20
207.453086
 30
0.0
 10
123.864006
 20
207.134268
 30
0.0
 10
125.032470
 20
207.453061
 30
0.0
 10
125.928243
 20
208.313426
 30
0.0
 10
126.050090
 20
209.094946
 30
0.0
 10
126.111932
 20
209.491594
 30
0.0
 11
126.111932
 21
209.491594
 31
0.0
 11
125.804732
 21
210.627193
 31
0.0
 11
124.997535
 21
211.434391
 31
0.0
 11
123.861944
 21
211.741591
 31
0.0
 11
122.726353
 21
211.434391
 31
0.0
 11
121.919156
 21
210.627193
 31
0.0
 11
121.611957
 21
209.491594
 31
0.0
 11
121.919156
 21
208.355995
 31
0.0
 11
122.726353
 21
207.548796
 31
0.0
 11
123.861944
 21
207.241597
 31
0.0
 11
124.997535
 21
207.548774
 31
0.0
 11
125.804732
 21
208.355951
 31
0.0
 11
126.111932
 21
209.491594
 31
0.0
  0
LINE
  5
10a
100
AcDbEntity
  8
Layer_1
 62
2
100
AcDbLine
 10
377.604328
 20
93.666739
 30
0.0
 11
377.604328
 21
93.666739
 31
0.0
  0
SPLINE
  5
10b
100
AcDbEntity
  8
Layer_1
 62
2
100
AcDbSpline
 70
0
 71
3
 72
19
 73
15
 74
13
 40
0.000000
 40
0.000000
 40
0.000000
 40
0.000000
 40
0.819677
 40
1.615060
 40
2.434737
 40
3.254412
 40
4.049794
 40
4.869471
 40
5.689148
 40
6.484531
 40
7.304205
 40
8.123878
 40
8.919251
 40
9.738956
 40
9.738956
 40
9.738956
 40
9.738956
 10
377.604328
 20
93.666739
 30
0.0
 10
377.561236
 20
93.943095
 30
0.0
 10
377.476331
 20
94.487616
 30
0.0
 10
376.852206
 20
95.087083
 30
0.0
 10
376.038065
 20
95.309224
 30
0.0
 10
375.215377
 20
95.087083
 30
0.0
 10
374.616392
 20
94.487616
 30
0.0
 10
374.394085
 20
93.666739
 30
0.0
 10
374.616392
 20
92.845864
 30
0.0
 10
375.215377
 20
92.246395
 30
0.0
 10
376.038063
 20
92.024258
 30
0.0
 10
376.852202
 20
92.246378
 30
0.0
 10
377.476342
 20
92.845842
 30
0.0
 10
377.561239
 20
93.390372
 30
0.0
 10
377.604328
 20
93.666739
 30
0.0
 11
377.604328
 21
93.666739
 31
0.0
 11
377.390284
 21
94.457976
 31
0.0
 11
376.827863
 21
95.020396
 31
0.0
 11
376.036626
 21
95.234438
 31
0.0
 11
375.245391
 21
95.020396
 31
0.0
 11
374.682970
 21
94.457976
 31
0.0
 11
374.468927
 21
93.666739
 31
0.0
 11
374.682970
 21
92.875503
 31
0.0
 11
375.245391
 21
92.313083
 31
0.0
 11
376.036626
 21
92.099040
 31
0.0
 11
376.827863
 21
92.313067
 31
0.0
 11
377.390284
 21
92.875473
 31
0.0
 11
377.604328
 21
93.666739
 31
0.0
  0
LINE
  5
10c
100
AcDbEntity
  8
Layer_1
 62
2
100
AcDbLine
 10
130.874426
 20
93.666739
 30
0.0
 11
130.874426
 21
93.666739
 31
0.0
  0
SPLINE
  5
10d
100
AcDbEntity
  8
Layer_1
 62
2
100
AcDbSpline
 70
0
 71
3
 72
19
 73
15
 74
13
 40
0.000000
 40
0.000000
 40
0.000000
 40
0.000000
 40
1.176417
 40
2.317967
 40
3.494376
 40
4.670786
 40
5.812336
 40
6.988753
 40
8.165169
 40
9.306718
 40
10.483127
 40
11.659531
 40
12.801065
 40
13.977524
 40
13.977524
 40
13.977524
 40
13.977524
 10
130.874426
 20
93.666739
 30
0.0
 10
130.812580
 20
94.063370
 30
0.0
 10
130.690721
 20
94.844877
 30
0.0
 10
129.794970
 20
95.705246
 30
0.0
 10
128.626503
 20
96.024073
 30
0.0
 10
127.445768
 20
95.705246
 30
0.0
 10
126.586097
 20
94.844877
 30
0.0
 10
126.267036
 20
93.666739
 30
0.0
 10
126.586097
 20
92.488603
 30
0.0
 10
127.445769
 20
91.628233
 30
0.0
 10
128.626500
 20
91.309415
 30
0.0
 10
129.794964
 20
91.628208
 30
0.0
 10
130.690738
 20
92.488571
 30
0.0
 10
130.812584
 20
93.270091
 30
0.0
 10
130.874426
 20
93.666739
 30
0.0
 11
130.874426
 21
93.666739
 31
0.0
 11
130.567226
 21
94.802338
 31
0.0
 11
129.760029
 21
95.609537
 31
0.0
 11
128.624438
 21
95.916737
 31
0.0
 11
127.488847
 21
95.609537
 31
0.0
 11
126.681650
 21
94.802338
 31
0.0
 11
126.374451
 21
93.666739
 31
0.0
 11
126.681650
 21
92.531141
 31
0.0
 11
127.488847
 21
91.723943
 31
0.0
 11
128.624438
 21
91.416744
 31
0.0
 11
129.760029
 21
91.723921
 31
0.0
 11
130.567226
 21
92.531097
 31
0.0
 11
130.874426
 21
93.666739
 31
0.0
  0
LINE
  5
10e
100
AcDbEntity
  8
Layer_1
 62
2
100
AcDbLine
 10
101.854698
 20
93.666739
 30
0.0
 11
101.854698
 21
93.666739
 31
0.0
  0
SPLINE
  5
10f
100
AcDbEntity
  8
Layer_1
 62
2
100
AcDbSpline
 70
0
 71
3
 72
19
 73
15
 74
13
 40
0.000000
 40
0.000000
 40
0.000000
 40
0.000000
 40
0.819678
 40
1.615067
 40
2.434765
 40
3.254438
 40
4.049813
 40
4.869489
 40
5.689163
 40
6.484538
 40
7.304212
 40
8.123906
 40
8.919284
 40
9.738991
 40
9.738991
 40
9.738991
 40
9.738991
 10
101.854698
 20
93.666739
 30
0.0
 10
101.811606
 20
93.943095
 30
0.0
 10
101.726700
 20
94.487619
 30
0.0
 10
101.102561
 20
95.087087
 30
0.0
 10
100.288411
 20
95.309223
 30
0.0
 10
99.465717
 20
95.087086
 30
0.0
 10
98.866740
 20
94.487612
 30
0.0
 10
98.644445
 20
93.666739
 30
0.0
 10
98.866741
 20
92.845867
 30
0.0
 10
99.465717
 20
92.246392
 30
0.0
 10
100.288409
 20
92.024260
 30
0.0
 10
101.102557
 20
92.246373
 30
0.0
 10
101.726711
 20
92.845839
 30
0.0
 10
101.811609
 20
93.390371
 30
0.0
 10
101.854698
 20
93.666739
 30
0.0
 11
101.854698
 21
93.666739
 31
0.0
 11
101.640653
 21
94.457976
 31
0.0
 11
101.078223
 21
95.020396
 31
0.0
 11
100.286964
 21
95.234438
 31
0.0
 11
99.495730
 21
95.020396
 31
0.0
 11
98.933320
 21
94.457976
 31
0.0
 11
98.719283
 21
93.666739
 31
0.0
 11
98.933320
 21
92.875503
 31
0.0
 11
99.495730
 21
92.313083
 31
0.0
 11
100.286964
 21
92.099040
 31
0.0
 11
101.078223
 21
92.313067
 31
0.0
 11
101.640653
 21
92.875471
 31
0.0
 11
101.854698
 21
93.666739
 31
0.0
  0
LINE
  5
110
100
AcDbEntity
  8
Layer_1
 62
2
100
AcDbLine
 10
354.711644
 20
209.491594
 30
0.0
 11
354.711644
 21
209.491594
 31
0.0
  0
SPLINE
  5
111
100
AcDbEntity
  8
Layer_1
 62
2
100
AcDbSpline
 70
0
 71
3
 72
19
 73
15
 74
13
 40
0.000000
 40
0.000000
 40
0.000000
 40
0.000000
 40
1.176416
 40
2.317967
 40
3.494376
 40
4.670785
 40
5.812335
 40
6.988752
 40
8.165168
 40
9.306718
 40
10.483128
 40
11.659531
 40
12.801066
 40
13.977525
 40
13.977525
 40
13.977525
 40
13.977525
 10
354.711644
 20
209.491594
 30
0.0
 10
354.649798
 20
209.888225
 30
0.0
 10
354.527939
 20
210.669732
 30
0.0
 10
353.632188
 20
211.530100
 30
0.0
 10
352.463721
 20
211.848927
 30
0.0
 10
351.282986
 20
211.530100
 30
0.0
 10
350.423315
 20
210.669732
 30
0.0
 10
350.104254
 20
209.491594
 30
0.0
 10
350.423315
 20
208.313457
 30
0.0
 10
351.282987
 20
207.453086
 30
0.0
 10
352.463718
 20
207.134268
 30
0.0
 10
353.632182
 20
207.453061
 30
0.0
 10
354.527955
 20
208.313426
 30
0.0
 10
354.649802
 20
209.094946
 30
0.0
 10
354.711644
 20
209.491594
 30
0.0
 11
354.711644
 21
209.491594
 31
0.0
 11
354.404444
 21
210.627193
 31
0.0
 11
353.597247
 21
211.434391
 31
0.0
 11
352.461656
 21
211.741591
 31
0.0
 11
351.326065
 21
211.434391
 31
0.0
 11
350.518868
 21
210.627193
 31
0.0
 11
350.211669
 21
209.491594
 31
0.0
 11
350.518868
 21
208.355995
 31
0.0
 11
351.326065
 21
207.548796
 31
0.0
 11
352.461656
 21
207.241597
 31
0.0
 11
353.597247
 21
207.548774
 31
0.0
 11
354.404444
 21
208.355951
 31
0.0
 11
354.711644
 21
209.491594
 31
0.0
  0
LINE
  5
112
100
AcDbEntity
  8
Layer_1
 62
2
100
AcDbLine
 10
101.854671
 20
209.491594
 30
0.0
 11
101.854671
 21
209.491594
 31
0.0
  0
SPLINE
  5
113
100
AcDbEntity
  8
Layer_1
 62
2
100
AcDbSpline
 70
0
 71
3
 72
19
 73
15
 74
13
 40
0.000000
 40
0.000000
 40
0.000000
 40
0.000000
 40
0.819672
 40
1.615049
 40
2.434752
 40
3.254437
 40
4.049809
 40
4.869481
 40
5.689153
 40
6.484525
 40
7.304210
 40
8.123909
 40
8.919275
 40
9.738977
 40
9.738977
 40
9.738977
 40
9.738977
 10
101.854671
 20
209.491594
 30
0.0
 10
101.811584
 20
209.767949
 30
0.0
 10
101.726686
 20
210.312466
 30
0.0
 10
101.102563
 20
210.911948
 30
0.0
 10
100.288409
 20
211.134077
 30
0.0
 10
99.465709
 20
210.911945
 30
0.0
 10
98.866734
 20
210.312464
 30
0.0
 10
98.644449
 20
209.491594
 30
0.0
 10
98.866734
 20
208.670724
 30
0.0
 10
99.465709
 20
208.071241
 30
0.0
 10
100.288407
 20
207.849116
 30
0.0
 10
101.102559
 20
208.071222
 30
0.0
 10
101.726698
 20
208.670700
 30
0.0
 10
101.811587
 20
209.215228
 30
0.0
 10
101.854671
 20
209.491594
 30
0.0
 11
101.854671
 21
209.491594
 31
0.0
 11
101.640639
 21
210.282829
 31
0.0
 11
101.078228
 21
210.845250
 31
0.0
 11
100.286964
 21
211.059294
 31
0.0
 11
99.495719
 21
210.845250
 31
0.0
 11
98.933314
 21
210.282829
 31
0.0
 11
98.719283
 21
209.491594
 31
0.0
 11
98.933314
 21
208.700359
 31
0.0
 11
99.495719
 21
208.137938
 31
0.0
 11
100.286964
 21
207.923894
 31
0.0
 11
101.078228
 21
208.137922
 31
0.0
 11
101.640639
 21
208.700328
 31
0.0
 11
101.854671
 21
209.491594
 31
0.0
  0
LINE
  5
114
100
AcDbEntity
  8
Layer_1
 62
2
100
AcDbLine
 10
377.604328
 20
209.491594
 30
0.0
 11
377.604328
 21
209.491594
 31
0.0
  0
SPLINE
  5
115
100
AcDbEntity
  8
Layer_1
 62
2
100
AcDbSpline
 70
0
 71
3
 72
19
 73
15
 74
13
 40
0.000000
 40
0.000000
 40
0.000000
 40
0.000000
 40
0.819676
 40
1.615060
 40
2.434736
 40
3.254411
 40
4.049795
 40
4.869471
 40
5.689147
 40
6.484530
 40
7.304205
 40
8.123877
 40
8.919250
 40
9.738956
 40
9.738956
 40
9.738956
 40
9.738956
 10
377.604328
 20
209.491594
 30
0.0
 10
377.561236
 20
209.767949
 30
0.0
 10
377.476330
 20
210.312470
 30
0.0
 10
376.852206
 20
210.911937
 30
0.0
 10
376.038065
 20
211.134080
 30
0.0
 10
375.215377
 20
210.911937
 30
0.0
 10
374.616392
 20
210.312469
 30
0.0
 10
374.394085
 20
209.491594
 30
0.0
 10
374.616392
 20
208.670719
 30
0.0
 10
375.215377
 20
208.071250
 30
0.0
 10
376.038063
 20
207.849112
 30
0.0
 10
376.852202
 20
208.071232
 30
0.0
 10
377.476342
 20
208.670697
 30
0.0
 10
377.561239
 20
209.215227
 30
0.0
 10
377.604328
 20
209.491594
 30
0.0
 11
377.604328
 21
209.491594
 31
0.0
 11
377.390284
 21
210.282830
 31
0.0
 11
376.827863
 21
210.845251
 31
0.0
 11
376.036626
 21
211.059294
 31
0.0
 11
375.245391
 21
210.845251
 31
0.0
 11
374.682970
 21
210.282830
 31
0.0
 11
374.468927
 21
209.491594
 31
0.0
 11
374.682970
 21
208.700358
 31
0.0
 11
375.245391
 21
208.137937
 31
0.0
 11
376.036626
 21
207.923894
 31
0.0
 11
376.827863
 21
208.137922
 31
0.0
 11
377.390284
 21
208.700327
 31
0.0
 11
377.604328
 21
209.491594
 31
0.0
  0
LINE
  5
116
100
AcDbEntity
  8
Layer_1
 62
2
100
AcDbLine
 10
377.600737
 20
180.991418
 30
0.0
 11
377.600737
 21
180.991418
 31
0.0
  0
SPLINE
  5
117
100
AcDbEntity
  8
Layer_1
 62
2
100
AcDbSpline
 70
0
 71
3
 72
19
 73
15
 74
13
 40
0.000000
 40
0.000000
 40
0.000000
 40
0.000000
 40
0.819676
 40
1.615060
 40
2.434736
 40
3.254411
 40
4.049795
 40
4.869471
 40
5.689147
 40
6.484530
 40
7.304205
 40
8.123877
 40
8.919250
 40
9.738956
 40
9.738956
 40
9.738956
 40
9.738956
 10
377.600737
 20
180.991418
 30
0.0
 10
377.557646
 20
181.267773
 30
0.0
 10
377.472740
 20
181.812294
 30
0.0
 10
376.848615
 20
182.411761
 30
0.0
 10
376.034475
 20
182.633904
 30
0.0
 10
375.211786
 20
182.411761
 30
0.0
 10
374.612802
 20
181.812294
 30
0.0
 10
374.390494
 20
180.991418
 30
0.0
 10
374.612802
 20
180.170543
 30
0.0
 10
375.211787
 20
179.571074
 30
0.0
 10
376.034473
 20
179.348937
 30
0.0
 10
376.848612
 20
179.571056
 30
0.0
 10
377.472751
 20
180.170521
 30
0.0
 10
377.557649
 20
180.715051
 30
0.0
 10
377.600737
 20
180.991418
 30
0.0
 11
377.600737
 21
180.991418
 31
0.0
 11
377.386694
 21
181.782654
 31
0.0
 11
376.824272
 21
182.345075
 31
0.0
 11
376.033036
 21
182.559118
 31
0.0
 11
375.241801
 21
182.345075
 31
0.0
 11
374.679380
 21
181.782654
 31
0.0
 11
374.465336
 21
180.991418
 31
0.0
 11
374.679380
 21
180.200182
 31
0.0
 11
375.241801
 21
179.637761
 31
0.0
 11
376.033036
 21
179.423718
 31
0.0
 11
376.824272
 21
179.637746
 31
0.0
 11
377.386694
 21
180.200151
 31
0.0
 11
377.600737
 21
180.991418
 31
0.0
  0
LINE
  5
118
100
AcDbEntity
  8
Layer_1
 62
2
100
AcDbLine
 10
101.854671
 20
180.991630
 30
0.0
 11
101.854671
 21
180.991630
 31
0.0
  0
SPLINE
  5
119
100
AcDbEntity
  8
Layer_1
 62
2
100
AcDbSpline
 70
0
 71
3
 72
19
 73
15
 74
13
 40
0.000000
 40
0.000000
 40
0.000000
 40
0.000000
 40
0.819672
 40
1.615049
 40
2.434752
 40
3.254437
 40
4.049809
 40
4.869481
 40
5.689153
 40
6.484525
 40
7.304210
 40
8.123909
 40
8.919275
 40
9.738977
 40
9.738977
 40
9.738977
 40
9.738977
 10
101.854671
 20
180.991630
 30
0.0
 10
101.811584
 20
181.267985
 30
0.0
 10
101.726686
 20
181.812502
 30
0.0
 10
101.102563
 20
182.411984
 30
0.0
 10
100.288409
 20
182.634113
 30
0.0
 10
99.465709
 20
182.411981
 30
0.0
 10
98.866734
 20
181.812500
 30
0.0
 10
98.644449
 20
180.991630
 30
0.0
 10
98.866734
 20
180.170760
 30
0.0
 10
99.465709
 20
179.571277
 30
0.0
 10
100.288407
 20
179.349152
 30
0.0
 10
101.102559
 20
179.571257
 30
0.0
 10
101.726698
 20
180.170736
 30
0.0
 10
101.811587
 20
180.715264
 30
0.0
 10
101.854671
 20
180.991630
 30
0.0
 11
101.854671
 21
180.991630
 31
0.0
 11
101.640639
 21
181.782865
 31
0.0
 11
101.078228
 21
182.345286
 31
0.0
 11
100.286964
 21
182.559330
 31
0.0
 11
99.495719
 21
182.345286
 31
0.0
 11
98.933314
 21
181.782865
 31
0.0
 11
98.719283
 21
180.991630
 31
0.0
 11
98.933314
 21
180.200395
 31
0.0
 11
99.495719
 21
179.637974
 31
0.0
 11
100.286964
 21
179.423930
 31
0.0
 11
101.078228
 21
179.637958
 31
0.0
 11
101.640639
 21
180.200364
 31
0.0
 11
101.854671
 21
180.991630
 31
0.0
  0
LINE
  5
11a
100
AcDbEntity
  8
Layer_1
 62
2
100
AcDbLine
 10
219.636836
 20
175.916635
 30
0.0
 11
219.636836
 21
158.866658
 31
0.0
  0
SPLINE
  5
11b
100
AcDbEntity
  8
Layer_1
 62
2
100
AcDbSpline
 70
0
 71
3
 72
13
 73
9
 74
7
 40
0.000000
 40
0.000000
 40
0.000000
 40
0.000000
 40
0.261776
 40
0.521400
 40
0.783160
 40
1.044905
 40
1.304525
 40
1.566311
 40
1.566311
 40
1.566311
 40
1.566311
 10
219.636836
 20
175.916635
 30
0.0
 10
219.630166
 20
176.004148
 30
0.0
 10
219.616880
 20
176.178456
 30
0.0
 10
219.511939
 20
176.422291
 30
0.0
 10
219.352310
 20
176.632122
 30
0.0
 10
219.142480
 20
176.791751
 30
0.0
 10
218.898644
 20
176.896682
 30
0.0
 10
218.724335
 20
176.909965
 30
0.0
 10
218.636818
 20
176.916634
 30
0.0
 11
219.636836
 21
175.916635
 31
0.0
 11
219.602563
 21
176.176157
 31
0.0
 11
219.503196
 21
176.416014
 31
0.0
 11
219.343916
 21
176.623736
 31
0.0
 11
219.136206
 21
176.783006
 31
0.0
 11
218.896352
 21
176.882364
 31
0.0
 11
218.636818
 21
176.916634
 31
0.0
  0
LINE
  5
11c
100
AcDbEntity
  8
Layer_1
 62
2
100
AcDbLine
 10
220.636828
 20
157.866658
 30
0.0
 11
223.399312
 21
157.866658
 31
0.0
  0
SPLINE
  5
11d
100
AcDbEntity
  8
Layer_1
 62
2
100
AcDbSpline
 70
0
 71
3
 72
13
 73
9
 74
7
 40
0.000000
 40
0.000000
 40
0.000000
 40
0.000000
 40
0.261774
 40
0.521392
 40
0.783148
 40
1.044899
 40
1.304524
 40
1.566299
 40
1.566299
 40
1.566299
 40
1.566299
 10
219.636836
 20
158.866658
 30
0.0
 10
219.643505
 20
158.779145
 30
0.0
 10
219.656787
 20
158.604841
 30
0.0
 10
219.761713
 20
158.361004
 30
0.0
 10
219.921338
 20
158.151170
 30
0.0
 10
220.131172
 20
157.991543
 30
0.0
 10
220.375008
 20
157.886614
 30
0.0
 10
220.549315
 20
157.873329
 30
0.0
 10
220.636828
 20
157.866658
 30
0.0
 11
219.636836
 21
158.866658
 31
0.0
 11
219.671103
 21
158.607136
 31
0.0
 11
219.770457
 21
158.367281
 31
0.0
 11
219.929730
 21
158.159560
 31
0.0
 11
220.137446
 21
158.000288
 31
0.0
 11
220.377306
 21
157.900929
 31
0.0
 11
220.636828
 21
157.866658
 31
0.0
  0
LINE
  5
11e
100
AcDbEntity
  8
Layer_1
 62
2
100
AcDbLine
 10
224.399330
 20
156.866659
 30
0.0
 11
224.399330
 21
139.816682
 31
0.0
  0
SPLINE
  5
11f
100
AcDbEntity
  8
Layer_1
 62
2
100
AcDbSpline
 70
0
 71
3
 72
13
 73
9
 74
7
 40
0.000000
 40
0.000000
 40
0.000000
 40
0.000000
 40
0.261777
 40
0.521400
 40
0.783161
 40
1.044906
 40
1.304525
 40
1.566311
 40
1.566311
 40
1.566311
 40
1.566311
 10
224.399330
 20
156.866659
 30
0.0
 10
224.392660
 20
156.954173
 30
0.0
 10
224.379374
 20
157.128480
 30
0.0
 10
224.274433
 20
157.372315
 30
0.0
 10
224.114804
 20
157.582146
 30
0.0
 10
223.904974
 20
157.741775
 30
0.0
 10
223.661138
 20
157.846706
 30
0.0
 10
223.486829
 20
157.859989
 30
0.0
 10
223.399312
 20
157.866658
 30
0.0
 11
224.399330
 21
156.866659
 31
0.0
 11
224.365057
 21
157.126183
 31
0.0
 11
224.265690
 21
157.366038
 31
0.0
 11
224.106410
 21
157.573760
 31
0.0
 11
223.898700
 21
157.733030
 31
0.0
 11
223.658846
 21
157.832388
 31
0.0
 11
223.399312
 21
157.866658
 31
0.0
  0
LINE
  5
120
100
AcDbEntity
  8
Layer_1
 62
2
100
AcDbLine
 10
225.399322
 20
138.816682
 30
0.0
 11
232.924300
 21
138.816682
 31
0.0
  0
SPLINE
  5
121
100
AcDbEntity
  8
Layer_1
 62
2
100
AcDbSpline
 70
0
 71
3
 72
13
 73
9
 74
7
 40
0.000000
 40
0.000000
 40
0.000000
 40
0.000000
 40
0.261774
 40
0.521392
 40
0.783148
 40
1.044899
 40
1.304524
 40
1.566299
 40
1.566299
 40
1.566299
 40
1.566299
 10
224.399330
 20
139.816682
 30
0.0
 10
224.405999
 20
139.729169
 30
0.0
 10
224.419281
 20
139.554865
 30
0.0
 10
224.524207
 20
139.311028
 30
0.0
 10
224.683832
 20
139.101194
 30
0.0
 10
224.893666
 20
138.941567
 30
0.0
 10
225.137502
 20
138.836638
 30
0.0
 10
225.311809
 20
138.823353
 30
0.0
 10
225.399322
 20
138.816682
 30
0.0
 11
224.399330
 21
139.816682
 31
0.0
 11
224.433597
 21
139.557160
 31
0.0
 11
224.532951
 21
139.317305
 31
0.0
 11
224.692224
 21
139.109584
 31
0.0
 11
224.899940
 21
138.950312
 31
0.0
 11
225.139800
 21
138.850953
 31
0.0
 11
225.399322
 21
138.816682
 31
0.0
  0
LINE
  5
122
100
AcDbEntity
  8
Layer_1
 62
2
100
AcDbLine
 10
233.924318
 20
137.816683
 30
0.0
 11
233.924318
 21
119.716708
 31
0.0
  0
SPLINE
  5
123
100
AcDbEntity
  8
Layer_1
 62
2
100
AcDbSpline
 70
0
 71
3
 72
13
 73
9
 74
7
 40
0.000000
 40
0.000000
 40
0.000000
 40
0.000000
 40
0.261777
 40
0.521400
 40
0.783161
 40
1.044906
 40
1.304525
 40
1.566311
 40
1.566311
 40
1.566311
 40
1.566311
 10
233.924318
 20
137.816683
 30
0.0
 10
233.917648
 20
137.904197
 30
0.0
 10
233.904362
 20
138.078504
 30
0.0
 10
233.799421
 20
138.322339
 30
0.0
 10
233.639792
 20
138.532170
 30
0.0
 10
233.429962
 20
138.691799
 30
0.0
 10
233.186126
 20
138.796730
 30
0.0
 10
233.011817
 20
138.810013
 30
0.0
 10
232.924300
 20
138.816682
 30
0.0
 11
233.924318
 21
137.816683
 31
0.0
 11
233.890045
 21
138.076207
 31
0.0
 11
233.790678
 21
138.316062
 31
0.0
 11
233.631398
 21
138.523784
 31
0.0
 11
233.423688
 21
138.683054
 31
0.0
 11
233.183834
 21
138.782412
 31
0.0
 11
232.924300
 21
138.816682
 31
0.0
  0
LINE
  5
124
100
AcDbEntity
  8
Layer_1
 62
2
100
AcDbLine
 10
232.924300
 20
118.716709
 30
0.0
 11
168.249394
 21
118.716709
 31
0.0
  0
SPLINE
  5
125
100
AcDbEntity
  8
Layer_1
 62
2
100
AcDbSpline
 70
0
 71
3
 72
13
 73
9
 74
7
 40
0.000000
 40
0.000000
 40
0.000000
 40
0.000000
 40
0.261786
 40
0.521406
 40
0.783151
 40
1.044911
 40
1.304535
 40
1.566311
 40
1.566311
 40
1.566311
 40
1.566311
 10
232.924300
 20
118.716709
 30
0.0
 10
233.011817
 20
118.723378
 30
0.0
 10
233.186126
 20
118.736662
 30
0.0
 10
233.429962
 20
118.841592
 30
0.0
 10
233.639792
 20
119.001222
 30
0.0
 10
233.799421
 20
119.211053
 30
0.0
 10
233.904362
 20
119.454888
 30
0.0
 10
233.917648
 20
119.629195
 30
0.0
 10
233.924318
 20
119.716708
 30
0.0
 11
232.924300
 21
118.716709
 31
0.0
 11
233.183834
 21
118.750979
 31
0.0
 11
233.423688
 21
118.850338
 31
0.0
 11
233.631398
 21
119.009608
 31
0.0
 11
233.790678
 21
119.217330
 31
0.0
 11
233.890045
 21
119.457186
 31
0.0
 11
233.924318
 21
119.716708
 31
0.0
  0
LINE
  5
126
100
AcDbEntity
  8
Layer_1
 62
2
100
AcDbLine
 10
167.249402
 20
117.716709
 30
0.0
 11
167.249402
 21
100.666732
 31
0.0
  0
SPLINE
  5
127
100
AcDbEntity
  8
Layer_1
 62
2
100
AcDbSpline
 70
0
 71
3
 72
13
 73
9
 74
7
 40
0.000000
 40
0.000000
 40
0.000000
 40
0.000000
 40
0.261775
 40
0.521400
 40
0.783151
 40
1.044906
 40
1.304525
 40
1.566299
 40
1.566299
 40
1.566299
 40
1.566299
 10
168.249394
 20
118.716709
 30
0.0
 10
168.161881
 20
118.710039
 30
0.0
 10
167.987574
 20
118.696754
 30
0.0
 10
167.743738
 20
118.591825
 30
0.0
 10
167.533904
 20
118.432197
 30
0.0
 10
167.374279
 20
118.222364
 30
0.0
 10
167.269353
 20
117.978527
 30
0.0
 10
167.256071
 20
117.804222
 30
0.0
 10
167.249402
 20
117.716709
 30
0.0
 11
168.249394
 21
118.716709
 31
0.0
 11
167.989872
 21
118.682439
 31
0.0
 11
167.750012
 21
118.583079
 31
0.0
 11
167.542296
 21
118.423808
 31
0.0
 11
167.383023
 21
118.216086
 31
0.0
 11
167.283669
 21
117.976231
 31
0.0
 11
167.249402
 21
117.716709
 31
0.0
  0
LINE
  5
128
100
AcDbEntity
  8
Layer_1
 62
2
100
AcDbLine
 10
166.249384
 20
99.666733
 30
0.0
 11
110.049468
 21
99.666733
 31
0.0
  0
SPLINE
  5
129
100
AcDbEntity
  8
Layer_1
 62
2
100
AcDbSpline
 70
0
 71
3
 72
13
 73
9
 74
7
 40
0.000000
 40
0.000000
 40
0.000000
 40
0.000000
 40
0.261786
 40
0.521406
 40
0.783151
 40
1.044911
 40
1.304535
 40
1.566311
 40
1.566311
 40
1.566311
 40
1.566311
 10
166.249384
 20
99.666733
 30
0.0
 10
166.336901
 20
99.673402
 30
0.0
 10
166.511210
 20
99.686686
 30
0.0
 10
166.755046
 20
99.791616
 30
0.0
 10
166.964876
 20
99.951246
 30
0.0
 10
167.124505
 20
100.161077
 30
0.0
 10
167.229446
 20
100.404912
 30
0.0
 10
167.242732
 20
100.579219
 30
0.0
 10
167.249402
 20
100.666732
 30
0.0
 11
166.249384
 21
99.666733
 31
0.0
 11
166.508918
 21
99.701003
 31
0.0
 11
166.748772
 21
99.800362
 31
0.0
 11
166.956482
 21
99.959632
 31
0.0
 11
167.115762
 21
100.167354
 31
0.0
 11
167.215129
 21
100.407210
 31
0.0
 11
167.249402
 21
100.666732
 31
0.0
  0
LINE
  5
12a
100
AcDbEntity
  8
Layer_1
 62
2
100
AcDbLine
 10
109.049477
 20
100.666732
 30
0.0
 11
109.049477
 21
117.716709
 31
0.0
  0
SPLINE
  5
12b
100
AcDbEntity
  8
Layer_1
 62
2
100
AcDbSpline
 70
0
 71
3
 72
13
 73
9
 74
7
 40
0.000000
 40
0.000000
 40
0.000000
 40
0.000000
 40
0.261775
 40
0.521394
 40
0.783150
 40
1.044896
 40
1.304515
 40
1.566301
 40
1.566301
 40
1.566301
 40
1.566301
 10
109.049477
 20
100.666732
 30
0.0
 10
109.056145
 20
100.579219
 30
0.0
 10
109.069428
 20
100.404914
 30
0.0
 10
109.174353
 20
100.161076
 30
0.0
 10
109.333977
 20
99.951244
 30
0.0
 10
109.543806
 20
99.791616
 30
0.0
 10
109.787642
 20
99.686686
 30
0.0
 10
109.961951
 20
99.673402
 30
0.0
 10
110.049468
 20
99.666733
 30
0.0
 11
109.049477
 21
100.666732
 31
0.0
 11
109.083743
 21
100.407210
 31
0.0
 11
109.183097
 21
100.167354
 31
0.0
 11
109.342370
 21
99.959632
 31
0.0
 11
109.550080
 21
99.800362
 31
0.0
 11
109.789935
 21
99.701003
 31
0.0
 11
110.049468
 21
99.666733
 31
0.0
  0
LINE
  5
12c
100
AcDbEntity
  8
Layer_1
 62
2
100
AcDbLine
 10
108.049459
 20
118.716709
 30
0.0
 11
105.286974
 21
118.716709
 31
0.0
  0
SPLINE
  5
12d
100
AcDbEntity
  8
Layer_1
 62
2
100
AcDbSpline
 70
0
 71
3
 72
13
 73
9
 74
7
 40
0.000000
 40
0.000000
 40
0.000000
 40
0.000000
 40
0.261775
 40
0.521398
 40
0.783158
 40
1.044904
 40
1.304524
 40
1.566310
 40
1.566310
 40
1.566310
 40
1.566310
 10
109.049477
 20
117.716709
 30
0.0
 10
109.042806
 20
117.804222
 30
0.0
 10
109.029520
 20
117.978529
 30
0.0
 10
108.924579
 20
118.222363
 30
0.0
 10
108.764949
 20
118.432193
 30
0.0
 10
108.555121
 20
118.591825
 30
0.0
 10
108.311285
 20
118.696756
 30
0.0
 10
108.136975
 20
118.710039
 30
0.0
 10
108.049459
 20
118.716709
 30
0.0
 11
109.049477
 21
117.716709
 31
0.0
 11
109.015203
 21
117.976231
 31
0.0
 11
108.915837
 21
118.216086
 31
0.0
 11
108.756557
 21
118.423808
 31
0.0
 11
108.548846
 21
118.583079
 31
0.0
 11
108.308992
 21
118.682439
 31
0.0
 11
108.049459
 21
118.716709
 31
0.0
  0
LINE
  5
12e
100
AcDbEntity
  8
Layer_1
 62
2
100
AcDbLine
 10
104.286983
 20
119.716708
 30
0.0
 11
104.286983
 21
175.916635
 31
0.0
  0
SPLINE
  5
12f
100
AcDbEntity
  8
Layer_1
 62
2
100
AcDbSpline
 70
0
 71
3
 72
13
 73
9
 74
7
 40
0.000000
 40
0.000000
 40
0.000000
 40
0.000000
 40
0.261775
 40
0.521394
 40
0.783150
 40
1.044896
 40
1.304515
 40
1.566301
 40
1.566301
 40
1.566301
 40
1.566301
 10
104.286983
 20
119.716708
 30
0.0
 10
104.293651
 20
119.629195
 30
0.0
 10
104.306934
 20
119.454890
 30
0.0
 10
104.411859
 20
119.211052
 30
0.0
 10
104.571483
 20
119.001220
 30
0.0
 10
104.781312
 20
118.841592
 30
0.0
 10
105.025148
 20
118.736662
 30
0.0
 10
105.199457
 20
118.723378
 30
0.0
 10
105.286974
 20
118.716709
 30
0.0
 11
104.286983
 21
119.716708
 31
0.0
 11
104.321249
 21
119.457186
 31
0.0
 11
104.420603
 21
119.217330
 31
0.0
 11
104.579876
 21
119.009608
 31
0.0
 11
104.787586
 21
118.850338
 31
0.0
 11
105.027441
 21
118.750979
 31
0.0
 11
105.286974
 21
118.716709
 31
0.0
  0
LINE
  5
130
100
AcDbEntity
  8
Layer_1
 62
2
100
AcDbLine
 10
105.286974
 20
176.916634
 30
0.0
 11
218.636818
 21
176.916634
 31
0.0
  0
LINE
  5
131
100
AcDbEntity
  8
Layer_1
 62
2
100
AcDbLine
 10
371.036626
 20
118.716709
 30
0.0
 11
368.274142
 21
118.716709
 31
0.0
  0
SPLINE
  5
132
100
AcDbEntity
  8
Layer_1
 62
2
100
AcDbSpline
 70
0
 71
3
 72
13
 73
9
 74
7
 40
0.000000
 40
0.000000
 40
0.000000
 40
0.000000
 40
0.261786
 40
0.521406
 40
0.783151
 40
1.044907
 40
1.304526
 40
1.566301
 40
1.566301
 40
1.566301
 40
1.566301
 10
105.286974
 20
176.916634
 30
0.0
 10
105.199457
 20
176.909965
 30
0.0
 10
105.025148
 20
176.896682
 30
0.0
 10
104.781312
 20
176.791751
 30
0.0
 10
104.571483
 20
176.632123
 30
0.0
 10
104.411859
 20
176.422291
 30
0.0
 10
104.306934
 20
176.178453
 30
0.0
 10
104.293651
 20
176.004148
 30
0.0
 10
104.286983
 20
175.916635
 30
0.0
 11
105.286974
 21
176.916634
 31
0.0
 11
105.027441
 21
176.882364
 31
0.0
 11
104.787586
 21
176.783006
 31
0.0
 11
104.579876
 21
176.623736
 31
0.0
 11
104.420603
 21
176.416014
 31
0.0
 11
104.321249
 21
176.176157
 31
0.0
 11
104.286983
 21
175.916635
 31
0.0
  0
LINE
  5
133
100
AcDbEntity
  8
Layer_1
 62
2
100
AcDbLine
 10
367.274150
 20
117.716709
 30
0.0
 11
367.274150
 21
100.666732
 31
0.0
  0
SPLINE
  5
134
100
AcDbEntity
  8
Layer_1
 62
2
100
AcDbSpline
 70
0
 71
3
 72
13
 73
9
 74
7
 40
0.000000
 40
0.000000
 40
0.000000
 40
0.000000
 40
0.261775
 40
0.521400
 40
0.783151
 40
1.044906
 40
1.304525
 40
1.566299
 40
1.566299
 40
1.566299
 40
1.566299
 10
368.274142
 20
118.716709
 30
0.0
 10
368.186629
 20
118.710039
 30
0.0
 10
368.012322
 20
118.696754
 30
0.0
 10
367.768486
 20
118.591825
 30
0.0
 10
367.558652
 20
118.432197
 30
0.0
 10
367.399027
 20
118.222364
 30
0.0
 10
367.294101
 20
117.978527
 30
0.0
 10
367.280819
 20
117.804222
 30
0.0
 10
367.274150
 20
117.716709
 30
0.0
 11
368.274142
 21
118.716709
 31
0.0
 11
368.014620
 21
118.682439
 31
0.0
 11
367.774760
 21
118.583079
 31
0.0
 11
367.567044
 21
118.423808
 31
0.0
 11
367.407771
 21
118.216086
 31
0.0
 11
367.308417
 21
117.976231
 31
0.0
 11
367.274150
 21
117.716709
 31
0.0
  0
LINE
  5
135
100
AcDbEntity
  8
Layer_1
 62
2
100
AcDbLine
 10
366.274132
 20
99.666733
 30
0.0
 11
310.074216
 21
99.666733
 31
0.0
  0
SPLINE
  5
136
100
AcDbEntity
  8
Layer_1
 62
2
100
AcDbSpline
 70
0
 71
3
 72
13
 73
9
 74
7
 40
0.000000
 40
0.000000
 40
0.000000
 40
0.000000
 40
0.261786
 40
0.521406
 40
0.783151
 40
1.044911
 40
1.304535
 40
1.566311
 40
1.566311
 40
1.566311
 40
1.566311
 10
366.274132
 20
99.666733
 30
0.0
 10
366.361649
 20
99.673402
 30
0.0
 10
366.535958
 20
99.686686
 30
0.0
 10
366.779794
 20
99.791616
 30
0.0
 10
366.989624
 20
99.951246
 30
0.0
 10
367.149253
 20
100.161077
 30
0.0
 10
367.254194
 20
100.404912
 30
0.0
 10
367.267480
 20
100.579219
 30
0.0
 10
367.274150
 20
100.666732
 30
0.0
 11
366.274132
 21
99.666733
 31
0.0
 11
366.533666
 21
99.701003
 31
0.0
 11
366.773520
 21
99.800362
 31
0.0
 11
366.981230
 21
99.959632
 31
0.0
 11
367.140510
 21
100.167354
 31
0.0
 11
367.239877
 21
100.407210
 31
0.0
 11
367.274150
 21
100.666732
 31
0.0
  0
LINE
  5
137
100
AcDbEntity
  8
Layer_1
 62
2
100
AcDbLine
 10
309.074225
 20
100.666732
 30
0.0
 11
309.074225
 21
117.716709
 31
0.0
  0
SPLINE
  5
138
100
AcDbEntity
  8
Layer_1
 62
2
100
AcDbSpline
 70
0
 71
3
 72
13
 73
9
 74
7
 40
0.000000
 40
0.000000
 40
0.000000
 40
0.000000
 40
0.261775
 40
0.521394
 40
0.783150
 40
1.044896
 40
1.304515
 40
1.566301
 40
1.566301
 40
1.566301
 40
1.566301
 10
309.074225
 20
100.666732
 30
0.0
 10
309.080893
 20
100.579219
 30
0.0
 10
309.094176
 20
100.404914
 30
0.0
 10
309.199101
 20
100.161076
 30
0.0
 10
309.358725
 20
99.951244
 30
0.0
 10
309.568554
 20
99.791616
 30
0.0
 10
309.812390
 20
99.686686
 30
0.0
 10
309.986699
 20
99.673402
 30
0.0
 10
310.074216
 20
99.666733
 30
0.0
 11
309.074225
 21
100.666732
 31
0.0
 11
309.108491
 21
100.407210
 31
0.0
 11
309.207845
 21
100.167354
 31
0.0
 11
309.367118
 21
99.959632
 31
0.0
 11
309.574828
 21
99.800362
 31
0.0
 11
309.814683
 21
99.701003
 31
0.0
 11
310.074216
 21
99.666733
 31
0.0
  0
LINE
  5
139
100
AcDbEntity
  8
Layer_1
 62
2
100
AcDbLine
 10
308.074207
 20
118.716709
 30
0.0
 11
252.924288
 21
118.716709
 31
0.0
  0
SPLINE
  5
13a
100
AcDbEntity
  8
Layer_1
 62
2
100
AcDbSpline
 70
0
 71
3
 72
13
 73
9
 74
7
 40
0.000000
 40
0.000000
 40
0.000000
 40
0.000000
 40
0.261775
 40
0.521398
 40
0.783158
 40
1.044904
 40
1.304524
 40
1.566310
 40
1.566310
 40
1.566310
 40
1.566310
 10
309.074225
 20
117.716709
 30
0.0
 10
309.067554
 20
117.804222
 30
0.0
 10
309.054268
 20
117.978529
 30
0.0
 10
308.949327
 20
118.222363
 30
0.0
 10
308.789697
 20
118.432193
 30
0.0
 10
308.579869
 20
118.591825
 30
0.0
 10
308.336033
 20
118.696756
 30
0.0
 10
308.161723
 20
118.710039
 30
0.0
 10
308.074207
 20
118.716709
 30
0.0
 11
309.074225
 21
117.716709
 31
0.0
 11
309.039951
 21
117.976231
 31
0.0
 11
308.940585
 21
118.216086
 31
0.0
 11
308.781305
 21
118.423808
 31
0.0
 11
308.573594
 21
118.583079
 31
0.0
 11
308.333740
 21
118.682439
 31
0.0
 11
308.074207
 21
118.716709
 31
0.0
  0
LINE
  5
13b
100
AcDbEntity
  8
Layer_1
 62
2
100
AcDbLine
 10
251.924297
 20
119.716708
 30
0.0
 11
251.924297
 21
136.766685
 31
0.0
  0
SPLINE
  5
13c
100
AcDbEntity
  8
Layer_1
 62
2
100
AcDbSpline
 70
0
 71
3
 72
13
 73
9
 74
7
 40
0.000000
 40
0.000000
 40
0.000000
 40
0.000000
 40
0.261775
 40
0.521394
 40
0.783150
 40
1.044896
 40
1.304515
 40
1.566301
 40
1.566301
 40
1.566301
 40
1.566301
 10
251.924297
 20
119.716708
 30
0.0
 10
251.930965
 20
119.629195
 30
0.0
 10
251.944248
 20
119.454890
 30
0.0
 10
252.049173
 20
119.211052
 30
0.0
 10
252.208797
 20
119.001220
 30
0.0
 10
252.418626
 20
118.841592
 30
0.0
 10
252.662462
 20
118.736662
 30
0.0
 10
252.836771
 20
118.723378
 30
0.0
 10
252.924288
 20
118.716709
 30
0.0
 11
251.924297
 21
119.716708
 31
0.0
 11
251.958563
 21
119.457186
 31
0.0
 11
252.057917
 21
119.217330
 31
0.0
 11
252.217190
 21
119.009608
 31
0.0
 11
252.424900
 21
118.850338
 31
0.0
 11
252.664755
 21
118.750979
 31
0.0
 11
252.924288
 21
118.716709
 31
0.0
  0
LINE
  5
13d
100
AcDbEntity
  8
Layer_1
 62
2
100
AcDbLine
 10
250.924279
 20
137.766685
 30
0.0
 11
243.399300
 21
137.766685
 31
0.0
  0
SPLINE
  5
13e
100
AcDbEntity
  8
Layer_1
 62
2
100
AcDbSpline
 70
0
 71
3
 72
13
 73
9
 74
7
 40
0.000000
 40
0.000000
 40
0.000000
 40
0.000000
 40
0.261775
 40
0.521398
 40
0.783158
 40
1.044904
 40
1.304524
 40
1.566310
 40
1.566310
 40
1.566310
 40
1.566310
 10
251.924297
 20
136.766685
 30
0.0
 10
251.917626
 20
136.854198
 30
0.0
 10
251.904340
 20
137.028505
 30
0.0
 10
251.799399
 20
137.272339
 30
0.0
 10
251.639769
 20
137.482169
 30
0.0
 10
251.429941
 20
137.641801
 30
0.0
 10
251.186105
 20
137.746732
 30
0.0
 10
251.011795
 20
137.760015
 30
0.0
 10
250.924279
 20
137.766685
 30
0.0
 11
251.924297
 21
136.766685
 31
0.0
 11
251.890023
 21
137.026207
 31
0.0
 11
251.790657
 21
137.266062
 31
0.0
 11
251.631377
 21
137.473784
 31
0.0
 11
251.423666
 21
137.633055
 31
0.0
 11
251.183812
 21
137.732415
 31
0.0
 11
250.924279
 21
137.766685
 31
0.0
  0
LINE
  5
13f
100
AcDbEntity
  8
Layer_1
 62
2
100
AcDbLine
 10
242.399309
 20
138.766684
 30
0.0
 11
242.399309
 21
155.816661
 31
0.0
  0
SPLINE
  5
140
100
AcDbEntity
  8
Layer_1
 62
2
100
AcDbSpline
 70
0
 71
3
 72
13
 73
9
 74
7
 40
0.000000
 40
0.000000
 40
0.000000
 40
0.000000
 40
0.261775
 40
0.521394
 40
0.783150
 40
1.044896
 40
1.304515
 40
1.566301
 40
1.566301
 40
1.566301
 40
1.566301
 10
242.399309
 20
138.766684
 30
0.0
 10
242.405977
 20
138.679171
 30
0.0
 10
242.419260
 20
138.504866
 30
0.0
 10
242.524185
 20
138.261028
 30
0.0
 10
242.683809
 20
138.051196
 30
0.0
 10
242.893638
 20
137.891568
 30
0.0
 10
243.137474
 20
137.786638
 30
0.0
 10
243.311783
 20
137.773354
 30
0.0
 10
243.399300
 20
137.766685
 30
0.0
 11
242.399309
 21
138.766684
 31
0.0
 11
242.433575
 21
138.507162
 31
0.0
 11
242.532929
 21
138.267306
 31
0.0
 11
242.692202
 21
138.059584
 31
0.0
 11
242.899912
 21
137.900314
 31
0.0
 11
243.139767
 21
137.800955
 31
0.0
 11
243.399300
 21
137.766685
 31
0.0
  0
LINE
  5
141
100
AcDbEntity
  8
Layer_1
 62
2
100
AcDbLine
 10
241.399291
 20
156.816661
 30
0.0
 11
238.636806
 21
156.816661
 31
0.0
  0
SPLINE
  5
142
100
AcDbEntity
  8
Layer_1
 62
2
100
AcDbSpline
 70
0
 71
3
 72
13
 73
9
 74
7
 40
0.000000
 40
0.000000
 40
0.000000
 40
0.000000
 40
0.261775
 40
0.521398
 40
0.783158
 40
1.044904
 40
1.304524
 40
1.566310
 40
1.566310
 40
1.566310
 40
1.566310
 10
242.399309
 20
155.816661
 30
0.0
 10
242.392638
 20
155.904174
 30
0.0
 10
242.379352
 20
156.078481
 30
0.0
 10
242.274411
 20
156.322315
 30
0.0
 10
242.114781
 20
156.532145
 30
0.0
 10
241.904953
 20
156.691777
 30
0.0
 10
241.661117
 20
156.796708
 30
0.0
 10
241.486807
 20
156.809991
 30
0.0
 10
241.399291
 20
156.816661
 30
0.0
 11
242.399309
 21
155.816661
 31
0.0
 11
242.365035
 21
156.076183
 31
0.0
 11
242.265669
 21
156.316038
 31
0.0
 11
242.106389
 21
156.523760
 31
0.0
 11
241.898678
 21
156.683031
 31
0.0
 11
241.658824
 21
156.782391
 31
0.0
 11
241.399291
 21
156.816661
 31
0.0
  0
LINE
  5
143
100
AcDbEntity
  8
Layer_1
 62
2
100
AcDbLine
 10
237.636815
 20
157.816660
 30
0.0
 11
237.636815
 21
175.916635
 31
0.0
  0
SPLINE
  5
144
100
AcDbEntity
  8
Layer_1
 62
2
100
AcDbSpline
 70
0
 71
3
 72
13
 73
9
 74
7
 40
0.000000
 40
0.000000
 40
0.000000
 40
0.000000
 40
0.261775
 40
0.521394
 40
0.783150
 40
1.044896
 40
1.304515
 40
1.566301
 40
1.566301
 40
1.566301
 40
1.566301
 10
237.636815
 20
157.816660
 30
0.0
 10
237.643483
 20
157.729147
 30
0.0
 10
237.656766
 20
157.554842
 30
0.0
 10
237.761691
 20
157.311004
 30
0.0
 10
237.921315
 20
157.101172
 30
0.0
 10
238.131144
 20
156.941544
 30
0.0
 10
238.374980
 20
156.836614
 30
0.0
 10
238.549289
 20
156.823330
 30
0.0
 10
238.636806
 20
156.816661
 30
0.0
 11
237.636815
 21
157.816660
 31
0.0
 11
237.671081
 21
157.557138
 31
0.0
 11
237.770435
 21
157.317282
 31
0.0
 11
237.929708
 21
157.109560
 31
0.0
 11
238.137418
 21
156.950290
 31
0.0
 11
238.377273
 21
156.850931
 31
0.0
 11
238.636806
 21
156.816661
 31
0.0
  0
LINE
  5
145
100
AcDbEntity
  8
Layer_1
 62
2
100
AcDbLine
 10
238.636806
 20
176.916634
 30
0.0
 11
371.036626
 21
176.916634
 31
0.0
  0
SPLINE
  5
146
100
AcDbEntity
  8
Layer_1
 62
2
100
AcDbSpline
 70
0
 71
3
 72
13
 73
9
 74
7
 40
0.000000
 40
0.000000
 40
0.000000
 40
0.000000
 40
0.261786
 40
0.521406
 40
0.783151
 40
1.044907
 40
1.304526
 40
1.566301
 40
1.566301
 40
1.566301
 40
1.566301
 10
238.636806
 20
176.916634
 30
0.0
 10
238.549289
 20
176.909965
 30
0.0
 10
238.374980
 20
176.896682
 30
0.0
 10
238.131144
 20
176.791751
 30
0.0
 10
237.921315
 20
176.632123
 30
0.0
 10
237.761691
 20
176.422291
 30
0.0
 10
237.656766
 20
176.178453
 30
0.0
 10
237.643483
 20
176.004148
 30
0.0
 10
237.636815
 20
175.916635
 30
0.0
 11
238.636806
 21
176.916634
 31
0.0
 11
238.377273
 21
176.882364
 31
0.0
 11
238.137418
 21
176.783006
 31
0.0
 11
237.929708
 21
176.623736
 31
0.0
 11
237.770435
 21
176.416014
 31
0.0
 11
237.671081
 21
176.176157
 31
0.0
 11
237.636815
 21
175.916635
 31
0.0
  0
LINE
  5
147
100
AcDbEntity
  8
Layer_1
 62
2
100
AcDbLine
 10
372.036631
 20
175.916635
 30
0.0
 11
372.036631
 21
119.716708
 31
0.0
  0
SPLINE
  5
148
100
AcDbEntity
  8
Layer_1
 62
2
100
AcDbSpline
 70
0
 71
3
 72
13
 73
9
 74
7
 40
0.000000
 40
0.000000
 40
0.000000
 40
0.000000
 40
0.261775
 40
0.521396
 40
0.783151
 40
1.044905
 40
1.304527
 40
1.566307
 40
1.566307
 40
1.566307
 40
1.566307
 10
372.036631
 20
175.916635
 30
0.0
 10
372.029961
 20
176.004148
 30
0.0
 10
372.016677
 20
176.178454
 30
0.0
 10
371.911744
 20
176.422288
 30
0.0
 10
371.752125
 20
176.632129
 30
0.0
 10
371.542285
 20
176.791748
 30
0.0
 10
371.298449
 20
176.896681
 30
0.0
 10
371.124141
 20
176.909965
 30
0.0
 10
371.036626
 20
176.916634
 30
0.0
 11
372.036631
 21
175.916635
 31
0.0
 11
372.002361
 21
176.176157
 31
0.0
 11
371.903002
 21
176.416014
 31
0.0
 11
371.743732
 21
176.623736
 31
0.0
 11
371.536010
 21
176.783006
 31
0.0
 11
371.296154
 21
176.882364
 31
0.0
 11
371.036626
 21
176.916634
 31
0.0
  0
LINE
  5
149
100
AcDbEntity
  8
Layer_1
 62
2
100
AcDbLine
 10
170.987087
 20
95.904238
 30
0.0
 11
170.987087
 21
114.004213
 31
0.0
  0
SPLINE
  5
14a
100
AcDbEntity
  8
Layer_1
 62
2
100
AcDbSpline
 70
0
 71
3
 72
13
 73
9
 74
7
 40
0.000000
 40
0.000000
 40
0.000000
 40
0.000000
 40
0.261780
 40
0.521402
 40
0.783156
 40
1.044911
 40
1.304532
 40
1.566307
 40
1.566307
 40
1.566307
 40
1.566307
 10
371.036626
 20
118.716709
 30
0.0
 10
371.124141
 20
118.723378
 30
0.0
 10
371.298449
 20
118.736662
 30
0.0
 10
371.542285
 20
118.841595
 30
0.0
 10
371.752125
 20
119.001215
 30
0.0
 10
371.911744
 20
119.211055
 30
0.0
 10
372.016677
 20
119.454889
 30
0.0
 10
372.029961
 20
119.629195
 30
0.0
 10
372.036631
 20
119.716708
 30
0.0
 11
371.036626
 21
118.716709
 31
0.0
 11
371.296154
 21
118.750979
 31
0.0
 11
371.536010
 21
118.850338
 31
0.0
 11
371.743732
 21
119.009608
 31
0.0
 11
371.903002
 21
119.217330
 31
0.0
 11
372.002361
 21
119.457186
 31
0.0
 11
372.036631
 21
119.716708
 31
0.0
  0
LINE
  5
14b
100
AcDbEntity
  8
Layer_1
 62
2
100
AcDbLine
 10
171.987078
 20
115.004212
 30
0.0
 11
304.336416
 21
115.004212
 31
0.0
  0
LINE
  5
14c
100
AcDbEntity
  8
Layer_1
 62
2
100
AcDbLine
 10
304.336416
 20
94.904239
 30
0.0
 11
171.987078
 21
94.904239
 31
0.0
  0
SPLINE
  5
14d
100
AcDbEntity
  8
Layer_1
 62
2
100
AcDbSpline
 70
0
 71
3
 72
13
 73
9
 74
7
 40
0.000000
 40
0.000000
 40
0.000000
 40
0.000000
 40
0.261745
 40
0.521343
 40
0.783139
 40
1.044889
 40
1.304510
 40
1.566286
 40
1.566286
 40
1.566286
 40
1.566286
 10
171.987078
 20
115.004212
 30
0.0
 10
171.899574
 20
114.997544
 30
0.0
 10
171.725284
 20
114.984261
 30
0.0
 10
171.481471
 20
114.879302
 30
0.0
 10
171.271588
 20
114.719730
 30
0.0
 10
171.111980
 20
114.509861
 30
0.0
 10
171.007043
 20
114.266033
 30
0.0
 10
170.993757
 20
114.091727
 30
0.0
 10
170.987087
 20
114.004213
 30
0.0
 11
171.987078
 21
115.004212
 31
0.0
 11
171.727586
 21
114.969942
 31
0.0
 11
171.487755
 21
114.870584
 31
0.0
 11
171.279980
 21
114.711314
 31
0.0
 11
171.120719
 21
114.503592
 31
0.0
 11
171.021359
 21
114.263735
 31
0.0
 11
170.987087
 21
114.004213
 31
0.0
  0
SPLINE
  5
14e
100
AcDbEntity
  8
Layer_1
 62
2
100
AcDbSpline
 70
0
 71
3
 72
13
 73
9
 74
7
 40
0.000000
 40
0.000000
 40
0.000000
 40
0.000000
 40
0.261776
 40
0.521397
 40
0.783146
 40
1.044943
 40
1.304540
 40
1.566286
 40
1.566286
 40
1.566286
 40
1.566286
 10
170.987087
 20
95.904238
 30
0.0
 10
170.993757
 20
95.816725
 30
0.0
 10
171.007043
 20
95.642418
 30
0.0
 10
171.111980
 20
95.398591
 30
0.0
 10
171.271588
 20
95.188721
 30
0.0
 10
171.481471
 20
95.029149
 30
0.0
 10
171.725284
 20
94.924190
 30
0.0
 10
171.899574
 20
94.910908
 30
0.0
 10
171.987078
 20
94.904239
 30
0.0
 11
170.987087
 21
95.904238
 31
0.0
 11
171.021359
 21
95.644716
 31
0.0
 11
171.120719
 21
95.404860
 31
0.0
 11
171.279980
 21
95.197138
 31
0.0
 11
171.487755
 21
95.037868
 31
0.0
 11
171.727586
 21
94.938509
 31
0.0
 11
171.987078
 21
94.904239
 31
0.0
  0
LINE
  5
14f
100
AcDbEntity
  8
Layer_1
 62
2
100
AcDbLine
 10
305.336408
 20
114.004213
 30
0.0
 11
305.336408
 21
95.904238
 31
0.0
  0
SPLINE
  5
150
100
AcDbEntity
  8
Layer_1
 62
2
100
AcDbSpline
 70
0
 71
3
 72
13
 73
9
 74
7
 40
0.000000
 40
0.000000
 40
0.000000
 40
0.000000
 40
0.261772
 40
0.521374
 40
0.783107
 40
1.044906
 40
1.304529
 40
1.566348
 40
1.566348
 40
1.566348
 40
1.566348
 10
305.336408
 20
114.004213
 30
0.0
 10
305.329745
 20
114.091725
 30
0.0
 10
305.316474
 20
114.266024
 30
0.0
 10
305.211600
 20
114.509863
 30
0.0
 10
305.052010
 20
114.719737
 30
0.0
 10
304.842120
 20
114.879308
 30
0.0
 10
304.598269
 20
114.984267
 30
0.0
 10
304.423945
 20
114.997545
 30
0.0
 10
304.336416
 20
115.004212
 30
0.0
 11
305.336408
 21
114.004213
 31
0.0
 11
305.302163
 21
114.263735
 31
0.0
 11
305.202854
 21
114.503592
 31
0.0
 11
305.043620
 21
114.711314
 31
0.0
 11
304.835841
 21
114.870584
 31
0.0
 11
304.595983
 21
114.969942
 31
0.0
 11
304.336416
 21
115.004212
 31
0.0
  0
LINE
  5
151
100
AcDbEntity
  8
Layer_1
 62
2
100
AcDbLine
 10
381.510750
 20
93.666739
 30
0.0
 11
381.510750
 21
209.491594
 31
0.0
  0
SPLINE
  5
152
100
AcDbEntity
  8
Layer_1
 62
2
100
AcDbSpline
 70
0
 71
3
 72
13
 73
9
 74
7
 40
0.000000
 40
0.000000
 40
0.000000
 40
0.000000
 40
0.261819
 40
0.521442
 40
0.783242
 40
1.044974
 40
1.304576
 40
1.566348
 40
1.566348
 40
1.566348
 40
1.566348
 10
304.336416
 20
94.904239
 30
0.0
 10
304.423945
 20
94.910906
 30
0.0
 10
304.598269
 20
94.924184
 30
0.0
 10
304.842120
 20
95.029143
 30
0.0
 10
305.052010
 20
95.188714
 30
0.0
 10
305.211600
 20
95.398589
 30
0.0
 10
305.316474
 20
95.642427
 30
0.0
 10
305.329745
 20
95.816726
 30
0.0
 10
305.336408
 20
95.904238
 30
0.0
 11
304.336416
 21
94.904239
 31
0.0
 11
304.595983
 21
94.938509
 31
0.0
 11
304.835841
 21
95.037868
 31
0.0
 11
305.043620
 21
95.197138
 31
0.0
 11
305.202854
 21
95.404860
 31
0.0
 11
305.302163
 21
95.644716
 31
0.0
 11
305.336408
 21
95.904238
 31
0.0
  0
LINE
  5
153
100
AcDbEntity
  8
Layer_1
 62
2
100
AcDbLine
 10
376.036626
 20
214.991587
 30
0.0
 11
100.286964
 21
214.991587
 31
0.0
  0
SPLINE
  5
154
100
AcDbEntity
  8
Layer_1
 62
2
100
AcDbSpline
 70
0
 71
3
 72
13
 73
9
 74
7
 40
0.000000
 40
0.000000
 40
0.000000
 40
0.000000
 40
1.439757
 40
2.867598
 40
4.307361
 40
5.747125
 40
7.174967
 40
8.614725
 40
8.614725
 40
8.614725
 40
8.614725
 10
381.536621
 20
209.491594
 30
0.0
 10
381.499955
 20
209.972916
 30
0.0
 10
381.426927
 20
210.931576
 30
0.0
 10
380.849815
 20
212.272682
 30
0.0
 10
379.971893
 20
213.426859
 30
0.0
 10
378.817715
 20
214.304782
 30
0.0
 10
377.476609
 20
214.881893
 30
0.0
 10
376.517948
 20
214.954921
 30
0.0
 10
376.036626
 20
214.991587
 30
0.0
 11
381.536621
 21
209.491594
 31
0.0
 11
381.348181
 21
210.918966
 31
0.0
 11
380.801763
 21
212.238116
 31
0.0
 11
379.925723
 21
213.380689
 31
0.0
 11
378.783150
 21
214.256729
 31
0.0
 11
377.463999
 21
214.803147
 31
0.0
 11
376.036626
 21
214.991587
 31
0.0
  0
LINE
  5
155
100
AcDbEntity
  8
Layer_1
 62
2
100
AcDbLine
 10
94.812847
 20
209.491594
 30
0.0
 11
94.812847
 21
93.666739
 31
0.0
  0
SPLINE
  5
156
100
AcDbEntity
  8
Layer_1
 62
2
100
AcDbSpline
 70
0
 71
3
 72
13
 73
9
 74
7
 40
0.000000
 40
0.000000
 40
0.000000
 40
0.000000
 40
1.439753
 40
2.867585
 40
4.307347
 40
5.747112
 40
7.174956
 40
8.614714
 40
8.614714
 40
8.614714
 40
8.614714
 10
100.286964
 20
214.991587
 30
0.0
 10
99.805643
 20
214.954921
 30
0.0
 10
98.846987
 20
214.881894
 30
0.0
 10
97.505888
 20
214.304780
 30
0.0
 10
96.351715
 20
213.426857
 30
0.0
 10
95.473790
 20
212.272682
 30
0.0
 10
94.896669
 20
210.931578
 30
0.0
 10
94.823638
 20
209.972916
 30
0.0
 10
94.786971
 20
209.491594
 30
0.0
 11
100.286964
 21
214.991587
 31
0.0
 11
98.859596
 21
214.803147
 31
0.0
 11
97.540455
 21
214.256729
 31
0.0
 11
96.397885
 21
213.380689
 31
0.0
 11
95.521842
 21
212.238116
 31
0.0
 11
94.975416
 21
210.918966
 31
0.0
 11
94.786971
 21
209.491594
 31
0.0
  0
LINE
  5
157
100
AcDbEntity
  8
Layer_1
 62
2
100
AcDbLine
 10
100.286964
 20
88.166747
 30
0.0
 11
376.036626
 21
88.166747
 31
0.0
  0
SPLINE
  5
158
100
AcDbEntity
  8
Layer_1
 62
2
100
AcDbSpline
 70
0
 71
3
 72
13
 73
9
 74
7
 40
0.000000
 40
0.000000
 40
0.000000
 40
0.000000
 40
1.439757
 40
2.867601
 40
4.307367
 40
5.747128
 40
7.174960
 40
8.614713
 40
8.614713
 40
8.614713
 40
8.614713
 10
94.786971
 20
93.666739
 30
0.0
 10
94.823638
 20
93.185417
 30
0.0
 10
94.896669
 20
92.226756
 30
0.0
 10
95.473790
 20
90.885653
 30
0.0
 10
96.351714
 20
89.731476
 30
0.0
 10
97.505888
 20
88.853554
 30
0.0
 10
98.846987
 20
88.276440
 30
0.0
 10
99.805643
 20
88.203412
 30
0.0
 10
100.286964
 20
88.166747
 30
0.0
 11
94.786971
 21
93.666739
 31
0.0
 11
94.975416
 21
92.239368
 31
0.0
 11
95.521842
 21
90.920218
 31
0.0
 11
96.397885
 21
89.777644
 31
0.0
 11
97.540455
 21
88.901605
 31
0.0
 11
98.859596
 21
88.355187
 31
0.0
 11
100.286964
 21
88.166747
 31
0.0
  0
LINE
  5
159
100
AcDbEntity
  8
Layer_1
 62
2
100
AcDbLine
 10
191.045023
 20
204.463938
 30
0.0
 11
191.045023
 21
186.363961
 31
0.0
  0
SPLINE
  5
15a
100
AcDbEntity
  8
Layer_1
 62
2
100
AcDbSpline
 70
0
 71
3
 72
13
 73
9
 74
7
 40
0.000000
 40
0.000000
 40
0.000000
 40
0.000000
 40
1.439758
 40
2.867600
 40
4.307363
 40
5.747127
 40
7.174968
 40
8.614724
 40
8.614724
 40
8.614724
 40
8.614724
 10
376.036626
 20
88.166747
 30
0.0
 10
376.517948
 20
88.203412
 30
0.0
 10
377.476609
 20
88.276441
 30
0.0
 10
378.817715
 20
88.853553
 30
0.0
 10
379.971894
 20
89.731474
 30
0.0
 10
380.849815
 20
90.885652
 30
0.0
 10
381.426927
 20
92.226758
 30
0.0
 10
381.499955
 20
93.185418
 30
0.0
 10
381.536621
 20
93.666739
 30
0.0
 11
376.036626
 21
88.166747
 31
0.0
 11
377.463999
 21
88.355187
 31
0.0
 11
378.783150
 21
88.901605
 31
0.0
 11
379.925723
 21
89.777644
 31
0.0
 11
380.801763
 21
90.920218
 31
0.0
 11
381.348181
 21
92.239368
 31
0.0
 11
381.536621
 21
93.666739
 31
0.0
  0
LINE
  5
15b
100
AcDbEntity
  8
Layer_1
 62
2
100
AcDbLine
 10
113.845604
 20
186.363961
 30
0.0
 11
113.845604
 21
204.463938
 31
0.0
  0
SPLINE
  5
15c
100
AcDbEntity
  8
Layer_1
 62
2
100
AcDbSpline
 70
0
 71
3
 72
13
 73
9
 74
7
 40
0.000000
 40
0.000000
 40
0.000000
 40
0.000000
 40
0.261818
 40
0.521435
 40
0.783220
 40
1.044965
 40
1.304569
 40
1.566340
 40
1.566340
 40
1.566340
 40
1.566340
 10
190.045032
 20
185.363961
 30
0.0
 10
190.132560
 20
185.370629
 30
0.0
 10
190.306881
 20
185.383907
 30
0.0
 10
190.550728
 20
185.488861
 30
0.0
 10
190.760599
 20
185.648449
 30
0.0
 10
190.920209
 20
185.858306
 30
0.0
 10
191.025089
 20
186.102150
 30
0.0
 10
191.038360
 20
186.276449
 30
0.0
 10
191.045023
 20
186.363961
 30
0.0
 11
190.045032
 21
185.363961
 31
0.0
 11
190.304598
 21
185.398232
 31
0.0
 11
190.544449
 21
185.497590
 31
0.0
 11
190.752209
 21
185.656860
 31
0.0
 11
190.911462
 21
185.864584
 31
0.0
 11
191.010777
 21
186.104439
 31
0.0
 11
191.045023
 21
186.363961
 31
0.0
  0
LINE
  5
15d
100
AcDbEntity
  8
Layer_1
 62
2
100
AcDbLine
 10
190.045270
 20
185.363961
 30
0.0
 11
114.845384
 21
185.363961
 31
0.0
  0
SPLINE
  5
15e
100
AcDbEntity
  8
Layer_1
 62
2
100
AcDbSpline
 70
0
 71
3
 72
13
 73
9
 74
7
 40
0.000000
 40
0.000000
 40
0.000000
 40
0.000000
 40
0.261775
 40
0.521399
 40
0.783160
 40
1.044943
 40
1.304540
 40
1.566303
 40
1.566303
 40
1.566303
 40
1.566303
 10
113.845604
 20
186.363961
 30
0.0
 10
113.852274
 20
186.276448
 30
0.0
 10
113.865560
 20
186.102140
 30
0.0
 10
113.970504
 20
185.858308
 30
0.0
 10
114.130132
 20
185.648456
 30
0.0
 10
114.339997
 20
185.488866
 30
0.0
 10
114.583817
 20
185.383911
 30
0.0
 10
114.758112
 20
185.370630
 30
0.0
 10
114.845622
 20
185.363961
 30
0.0
 11
113.845604
 21
186.363961
 31
0.0
 11
113.879877
 21
186.104439
 31
0.0
 11
113.979244
 21
185.864584
 31
0.0
 11
114.138524
 21
185.656860
 31
0.0
 11
114.346281
 21
185.497590
 31
0.0
 11
114.586112
 21
185.398232
 31
0.0
 11
114.845622
 21
185.363961
 31
0.0
  0
LINE
  5
15f
100
AcDbEntity
  8
Layer_1
 62
2
100
AcDbLine
 10
114.845384
 20
205.463938
 30
0.0
 11
190.045270
 21
205.463938
 31
0.0
  0
SPLINE
  5
160
100
AcDbEntity
  8
Layer_1
 62
2
100
AcDbSpline
 70
0
 71
3
 72
13
 73
9
 74
7
 40
0.000000
 40
0.000000
 40
0.000000
 40
0.000000
 40
0.261771
 40
0.521375
 40
0.783118
 40
1.044903
 40
1.304521
 40
1.566339
 40
1.566339
 40
1.566339
 40
1.566339
 10
191.045023
 20
204.463938
 30
0.0
 10
191.038360
 20
204.551450
 30
0.0
 10
191.025089
 20
204.725749
 30
0.0
 10
190.920209
 20
204.969592
 30
0.0
 10
190.760599
 20
205.179448
 30
0.0
 10
190.550728
 20
205.339036
 30
0.0
 10
190.306882
 20
205.443992
 30
0.0
 10
190.132560
 20
205.457270
 30
0.0
 10
190.045032
 20
205.463938
 30
0.0
 11
191.045023
 21
204.463938
 31
0.0
 11
191.010777
 21
204.723460
 31
0.0
 11
190.911462
 21
204.963315
 31
0.0
 11
190.752209
 21
205.171036
 31
0.0
 11
190.544449
 21
205.330307
 31
0.0
 11
190.304598
 21
205.429667
 31
0.0
 11
190.045032
 21
205.463938
 31
0.0
  0
LINE
  5
161
100
AcDbEntity
  8
Layer_1
 62
2
100
AcDbLine
 10
362.491023
 20
204.464938
 30
0.0
 11
362.491023
 21
186.364961
 31
0.0
  0
SPLINE
  5
162
100
AcDbEntity
  8
Layer_1
 62
2
100
AcDbSpline
 70
0
 71
3
 72
13
 73
9
 74
7
 40
0.000000
 40
0.000000
 40
0.000000
 40
0.000000
 40
0.261763
 40
0.521361
 40
0.783144
 40
1.044904
 40
1.304527
 40
1.566302
 40
1.566302
 40
1.566302
 40
1.566302
 10
114.845622
 20
205.463938
 30
0.0
 10
114.758112
 20
205.457269
 30
0.0
 10
114.583816
 20
205.443987
 30
0.0
 10
114.339997
 20
205.339032
 30
0.0
 10
114.130133
 20
205.179440
 30
0.0
 10
113.970503
 20
204.969590
 30
0.0
 10
113.865560
 20
204.725759
 30
0.0
 10
113.852274
 20
204.551452
 30
0.0
 10
113.845604
 20
204.463938
 30
0.0
 11
114.845622
 21
205.463938
 31
0.0
 11
114.586112
 21
205.429667
 31
0.0
 11
114.346281
 21
205.330307
 31
0.0
 11
114.138524
 21
205.171036
 31
0.0
 11
113.979244
 21
204.963315
 31
0.0
 11
113.879877
 21
204.723460
 31
0.0
 11
113.845604
 21
204.463938
 31
0.0
  0
LINE
  5
163
100
AcDbEntity
  8
Layer_1
 62
2
100
AcDbLine
 10
285.291604
 20
186.364961
 30
0.0
 11
285.291604
 21
204.464938
 31
0.0
  0
SPLINE
  5
164
100
AcDbEntity
  8
Layer_1
 62
2
100
AcDbSpline
 70
0
 71
3
 72
13
 73
9
 74
7
 40
0.000000
 40
0.000000
 40
0.000000
 40
0.000000
 40
0.261818
 40
0.521435
 40
0.783220
 40
1.044965
 40
1.304569
 40
1.566340
 40
1.566340
 40
1.566340
 40
1.566340
 10
361.491032
 20
185.364961
 30
0.0
 10
361.578560
 20
185.371629
 30
0.0
 10
361.752881
 20
185.384907
 30
0.0
 10
361.996728
 20
185.489861
 30
0.0
 10
362.206599
 20
185.649449
 30
0.0
 10
362.366209
 20
185.859306
 30
0.0
 10
362.471089
 20
186.103150
 30
0.0
 10
362.484360
 20
186.277449
 30
0.0
 10
362.491023
 20
186.364961
 30
0.0
 11
361.491032
 21
185.364961
 31
0.0
 11
361.750598
 21
185.399232
 31
0.0
 11
361.990449
 21
185.498590
 31
0.0
 11
362.198209
 21
185.657860
 31
0.0
 11
362.357462
 21
185.865584
 31
0.0
 11
362.456777
 21
186.105439
 31
0.0
 11
362.491023
 21
186.364961
 31
0.0
  0
LINE
  5
165
100
AcDbEntity
  8
Layer_1
 62
2
100
AcDbLine
 10
361.491270
 20
185.364961
 30
0.0
 11
286.291384
 21
185.364961
 31
0.0
  0
SPLINE
  5
166
100
AcDbEntity
  8
Layer_1
 62
2
100
AcDbSpline
 70
0
 71
3
 72
13
 73
9
 74
7
 40
0.000000
 40
0.000000
 40
0.000000
 40
0.000000
 40
0.261775
 40
0.521399
 40
0.783160
 40
1.044943
 40
1.304540
 40
1.566303
 40
1.566303
 40
1.566303
 40
1.566303
 10
285.291604
 20
186.364961
 30
0.0
 10
285.298274
 20
186.277448
 30
0.0
 10
285.311560
 20
186.103140
 30
0.0
 10
285.416504
 20
185.859308
 30
0.0
 10
285.576132
 20
185.649456
 30
0.0
 10
285.785997
 20
185.489866
 30
0.0
 10
286.029817
 20
185.384911
 30
0.0
 10
286.204112
 20
185.371630
 30
0.0
 10
286.291622
 20
185.364961
 30
0.0
 11
285.291604
 21
186.364961
 31
0.0
 11
285.325877
 21
186.105439
 31
0.0
 11
285.425244
 21
185.865584
 31
0.0
 11
285.584524
 21
185.657860
 31
0.0
 11
285.792281
 21
185.498590
 31
0.0
 11
286.032112
 21
185.399232
 31
0.0
 11
286.291622
 21
185.364961
 31
0.0
  0
LINE
  5
167
100
AcDbEntity
  8
Layer_1
 62
2
100
AcDbLine
 10
286.291384
 20
205.464938
 30
0.0
 11
361.491270
 21
205.464938
 31
0.0
  0
SPLINE
  5
168
100
AcDbEntity
  8
Layer_1
 62
2
100
AcDbSpline
 70
0
 71
3
 72
13
 73
9
 74
7
 40
0.000000
 40
0.000000
 40
0.000000
 40
0.000000
 40
0.261771
 40
0.521375
 40
0.783118
 40
1.044903
 40
1.304521
 40
1.566339
 40
1.566339
 40
1.566339
 40
1.566339
 10
362.491023
 20
204.464938
 30
0.0
 10
362.484360
 20
204.552450
 30
0.0
 10
362.471089
 20
204.726749
 30
0.0
 10
362.366209
 20
204.970592
 30
0.0
 10
362.206599
 20
205.180448
 30
0.0
 10
361.996728
 20
205.340036
 30
0.0
 10
361.752882
 20
205.444992
 30
0.0
 10
361.578560
 20
205.458270
 30
0.0
 10
361.491032
 20
205.464938
 30
0.0
 11
362.491023
 21
204.464938
 31
0.0
 11
362.456777
 21
204.724460
 31
0.0
 11
362.357462
 21
204.964315
 31
0.0
 11
362.198209
 21
205.172036
 31
0.0
 11
361.990449
 21
205.331307
 31
0.0
 11
361.750598
 21
205.430667
 31
0.0
 11
361.491032
 21
205.464938
 31
0.0
  0
LINE
  5
169
100
AcDbEntity
  8
Layer_1
 62
2
100
AcDbLine
 10
276.701023
 20
204.480938
 30
0.0
 11
276.701023
 21
186.380961
 31
0.0
  0
SPLINE
  5
16a
100
AcDbEntity
  8
Layer_1
 62
2
100
AcDbSpline
 70
0
 71
3
 72
13
 73
9
 74
7
 40
0.000000
 40
0.000000
 40
0.000000
 40
0.000000
 40
0.261763
 40
0.521361
 40
0.783144
 40
1.044904
 40
1.304527
 40
1.566302
 40
1.566302
 40
1.566302
 40
1.566302
 10
286.291622
 20
205.464938
 30
0.0
 10
286.204112
 20
205.458269
 30
0.0
 10
286.029816
 20
205.444987
 30
0.0
 10
285.785997
 20
205.340032
 30
0.0
 10
285.576133
 20
205.180440
 30
0.0
 10
285.416503
 20
204.970590
 30
0.0
 10
285.311560
 20
204.726759
 30
0.0
 10
285.298274
 20
204.552452
 30
0.0
 10
285.291604
 20
204.464938
 30
0.0
 11
286.291622
 21
205.464938
 31
0.0
 11
286.032112
 21
205.430667
 31
0.0
 11
285.792281
 21
205.331307
 31
0.0
 11
285.584524
 21
205.172036
 31
0.0
 11
285.425244
 21
204.964315
 31
0.0
 11
285.325877
 21
204.724460
 31
0.0
 11
285.291604
 21
204.464938
 31
0.0
  0
LINE
  5
16b
100
AcDbEntity
  8
Layer_1
 62
2
100
AcDbLine
 10
199.501604
 20
186.380961
 30
0.0
 11
199.501604
 21
204.480938
 31
0.0
  0
SPLINE
  5
16c
100
AcDbEntity
  8
Layer_1
 62
2
100
AcDbSpline
 70
0
 71
3
 72
13
 73
9
 74
7
 40
0.000000
 40
0.000000
 40
0.000000
 40
0.000000
 40
0.261818
 40
0.521435
 40
0.783220
 40
1.044965
 40
1.304569
 40
1.566340
 40
1.566340
 40
1.566340
 40
1.566340
 10
275.701032
 20
185.380961
 30
0.0
 10
275.788560
 20
185.387629
 30
0.0
 10
275.962881
 20
185.400907
 30
0.0
 10
276.206728
 20
185.505861
 30
0.0
 10
276.416599
 20
185.665449
 30
0.0
 10
276.576209
 20
185.875306
 30
0.0
 10
276.681089
 20
186.119150
 30
0.0
 10
276.694360
 20
186.293449
 30
0.0
 10
276.701023
 20
186.380961
 30
0.0
 11
275.701032
 21
185.380961
 31
0.0
 11
275.960598
 21
185.415232
 31
0.0
 11
276.200449
 21
185.514590
 31
0.0
 11
276.408209
 21
185.673860
 31
0.0
 11
276.567462
 21
185.881584
 31
0.0
 11
276.666777
 21
186.121439
 31
0.0
 11
276.701023
 21
186.380961
 31
0.0
  0
LINE
  5
16d
100
AcDbEntity
  8
Layer_1
 62
2
100
AcDbLine
 10
275.701270
 20
185.380961
 30
0.0
 11
200.501384
 21
185.380961
 31
0.0
  0
SPLINE
  5
16e
100
AcDbEntity
  8
Layer_1
 62
2
100
AcDbSpline
 70
0
 71
3
 72
13
 73
9
 74
7
 40
0.000000
 40
0.000000
 40
0.000000
 40
0.000000
 40
0.261775
 40
0.521399
 40
0.783160
 40
1.044943
 40
1.304540
 40
1.566303
 40
1.566303
 40
1.566303
 40
1.566303
 10
199.501604
 20
186.380961
 30
0.0
 10
199.508274
 20
186.293448
 30
0.0
 10
199.521560
 20
186.119140
 30
0.0
 10
199.626504
 20
185.875308
 30
0.0
 10
199.786132
 20
185.665456
 30
0.0
 10
199.995997
 20
185.505866
 30
0.0
 10
200.239817
 20
185.400911
 30
0.0
 10
200.414112
 20
185.387630
 30
0.0
 10
200.501622
 20
185.380961
 30
0.0
 11
199.501604
 21
186.380961
 31
0.0
 11
199.535877
 21
186.121439
 31
0.0
 11
199.635244
 21
185.881584
 31
0.0
 11
199.794524
 21
185.673860
 31
0.0
 11
200.002281
 21
185.514590
 31
0.0
 11
200.242112
 21
185.415232
 31
0.0
 11
200.501622
 21
185.380961
 31
0.0
  0
LINE
  5
16f
100
AcDbEntity
  8
Layer_1
 62
2
100
AcDbLine
 10
200.501384
 20
205.480938
 30
0.0
 11
275.701270
 21
205.480938
 31
0.0
  0
SPLINE
  5
170
100
AcDbEntity
  8
Layer_1
 62
2
100
AcDbSpline
 70
0
 71
3
 72
13
 73
9
 74
7
 40
0.000000
 40
0.000000
 40
0.000000
 40
0.000000
 40
0.261771
 40
0.521375
 40
0.783118
 40
1.044903
 40
1.304521
 40
1.566339
 40
1.566339
 40
1.566339
 40
1.566339
 10
276.701023
 20
204.480938
 30
0.0
 10
276.694360
 20
204.568450
 30
0.0
 10
276.681089
 20
204.742749
 30
0.0
 10
276.576209
 20
204.986592
 30
0.0
 10
276.416599
 20
205.196448
 30
0.0
 10
276.206728
 20
205.356036
 30
0.0
 10
275.962882
 20
205.460992
 30
0.0
 10
275.788560
 20
205.474270
 30
0.0
 10
275.701032
 20
205.480938
 30
0.0
 11
276.701023
 21
204.480938
 31
0.0
 11
276.666777
 21
204.740460
 31
0.0
 11
276.567462
 21
204.980315
 31
0.0
 11
276.408209
 21
205.188036
 31
0.0
 11
276.200449
 21
205.347307
 31
0.0
 11
275.960598
 21
205.446667
 31
0.0
 11
275.701032
 21
205.480938
 31
0.0
  0
SPLINE
  5
171
100
AcDbEntity
  8
Layer_1
 62
2
100
AcDbSpline
 70
0
 71
3
 72
13
 73
9
 74
7
 40
0.000000
 40
0.000000
 40
0.000000
 40
0.000000
 40
0.261763
 40
0.521361
 40
0.783144
 40
1.044904
 40
1.304527
 40
1.566302
 40
1.566302
 40
1.566302
 40
1.566302
 10
200.501622
 20
205.480938
 30
0.0
 10
200.414112
 20
205.474269
 30
0.0
 10
200.239816
 20
205.460987
 30
0.0
 10
199.995997
 20
205.356032
 30
0.0
 10
199.786133
 20
205.196440
 30
0.0
 10
199.626503
 20
204.986590
 30
0.0
 10
199.521560
 20
204.742759
 30
0.0
 10
199.508274
 20
204.568452
 30
0.0
 10
199.501604
 20
204.480938
 30
0.0
 11
200.501622
 21
205.480938
 31
0.0
 11
200.242112
 21
205.446667
 31
0.0
 11
200.002281
 21
205.347307
 31
0.0
 11
199.794524
 21
205.188036
 31
0.0
 11
199.635244
 21
204.980315
 31
0.0
 11
199.535877
 21
204.740460
 31
0.0
 11
199.501604
 21
204.480938
 31
0.0
  0
ENDSEC
  0
SECTION
  2
OBJECTS
  0
DICTIONARY
  5
C
330
0
100
AcDbDictionary
  3
ACAD_GROUP
350
D
  3
ACAD_MLINESTYLE
350
17
  0
DICTIONARY
  5
D
330
C
100
AcDbDictionary
  0
DICTIONARY
  5
1A
330
C
100
AcDbDictionary
  0
DICTIONARY
  5
17
330
C
100
AcDbDictionary
  3
STANDARD
350
18
  0
DICTIONARY
  5
19
330
C
100
AcDbDictionary
  0
ENDSEC
  0
EOF
