  0
SECTION
  2
HEADER
  9
$ACADVER
  1
AC1014
  9
$HANDSEED
  5
FFFF
  9
$INSUNITS
 70
     4
  9
$MEASUREMENT
 70
     1
  0
ENDSEC
  0
SECTION
  2
TABLES
  0
TABLE
  2
VPORT
  5
8
330
0
100
AcDbSymbolTable
 70
     4
  0
VPORT
  5
2E
330
8
100
AcDbSymbolTableRecord
100
AcDbViewportTableRecord
  2
*ACTIVE
 70
     0
 10
0.0
 20
0.0
 11
1.0
 21
1.0
 12
210.0
 22
148.5
 13
0.0
 23
0.0
 14
10.0
 24
10.0
 15
10.0
 25
10.0
 16
0.0
 26
0.0
 36
1.0
 17
0.0
 27
0.0
 37
0.0
 40
341.0
 41
1.24
 42
50.0
 43
0.0
 44
0.0
 50
0.0
 51
0.0
 71
     0
 72
   100
 73
     1
 74
     3
 75
     0
 76
     0
 77
     0
 78
     0
  0
ENDTAB
  0
TABLE
  2
LTYPE
  5
5
330
0
100
AcDbSymbolTable
 70
     1
  0
LTYPE
  5
14
330
5
100
AcDbSymbolTableRecord
100
AcDbLinetypeTableRecord
  2
BYBLOCK
 70
     0
  3

 72
    65
 73
     0
 40
0.0
  0
LTYPE
  5
15
330
5
100
AcDbSymbolTableRecord
100
AcDbLinetypeTableRecord
  2
BYLAYER
 70
     0
  3

 72
    65
 73
     0
 40
0.0
  0
LTYPE
  5
16
330
5
100
AcDbSymbolTableRecord
100
AcDbLinetypeTableRecord
  2
CONTINUOUS
 70
     0
  3
Solid line
 72
    65
 73
     0
 40
0.0
  0
ENDTAB
  0
TABLE
  2
LAYER
  5
2
100
AcDbSymbolTable
 70
2
  0
LAYER
  5
50
100
AcDbSymbolTableRecord
100
AcDbLayerTableRecord
  2
0
 70
0
  6
CONTINUOUS
  0
LAYER
  5
51
100
AcDbSymbolTableRecord
100
AcDbLayerTableRecord
  2
Layer_1
 70
0
  6
CONTINUOUS
  0
ENDTAB
  0
TABLE
  2
STYLE
  5
3
330
0
100
AcDbSymbolTable
 70
     1
  0
STYLE
  5
11
330
3
100
AcDbSymbolTableRecord
100
AcDbTextStyleTableRecord
  2
STANDARD
 70
     0
 40
0.0
 41
1.0
 50
0.0
 71
     0
 42
2.5
  3
txt
  4

  0
ENDTAB
  0
TABLE
  2
VIEW
  5
6
330
0
100
AcDbSymbolTable
 70
     0
  0
ENDTAB
  0
TABLE
  2
UCS
  5
7
330
0
100
AcDbSymbolTable
 70
     0
  0
ENDTAB
  0
TABLE
  2
APPID
  5
9
330
0
100
AcDbSymbolTable
 70
     2
  0
APPID
  5
12
330
9
100
AcDbSymbolTableRecord
100
AcDbRegAppTableRecord
  2
ACAD
 70
     0
  0
ENDTAB
  0
TABLE
  2
DIMSTYLE
  5
A
330
0
100
AcDbSymbolTable
 70
     1
  0
DIMSTYLE
105
27
330
A
100
AcDbSymbolTableRecord
100
AcDbDimStyleTableRecord
  2
ISO-25
 70
     0
  3

  4

  5

  6

  7

 40
1.0
 41
2.5
 42
0.625
 43
3.75
 44
1.25
 45
0.0
 46
0.0
 47
0.0
 48
0.0
140
2.5
141
2.5
142
0.0
143
0.03937007874016
144
1.0
145
0.0
146
1.0
147
0.625
 71
     0
 72
     0
 73
     0
 74
     0
 75
     0
 76
     0
 77
     1
 78
     8
170
     0
171
     3
172
     1
173
     0
174
     0
175
     0
176
     0
177
     0
178
     0
270
     2
271
     2
272
     2
273
     2
274
     3
340
11
275
     0
280
     0
281
     0
282
     0
283
     0
284
     8
285
     0
286
     0
287
     3
288
     0
  0
ENDTAB
  0
TABLE
  2
BLOCK_RECORD
  5
1
330
0
100
AcDbSymbolTable
 70
     1
  0
BLOCK_RECORD
  5
1F
330
1
100
AcDbSymbolTableRecord
100
AcDbBlockTableRecord
  2
*MODEL_SPACE
  0
BLOCK_RECORD
  5
1B
330
1
100
AcDbSymbolTableRecord
100
AcDbBlockTableRecord
  2
*PAPER_SPACE
  0
ENDTAB
  0
ENDSEC
  0
SECTION
  2
BLOCKS
  0
BLOCK
  5
20
330
1F
100
AcDbEntity
  8
0
100
AcDbBlockBegin
  2
*MODEL_SPACE
 70
     0
 10
0.0
 20
0.0
 30
0.0
  3
*MODEL_SPACE
  1

  0
ENDBLK
  5
21
330
1F
100
AcDbEntity
  8
0
100
AcDbBlockEnd
  0
BLOCK
  5
1C
330
1B
100
AcDbEntity
 67
     1
  8
0
100
AcDbBlockBegin
  2
*PAPER_SPACE
  1

  0
ENDBLK
  5
1D
330
1B
100
AcDbEntity
 67
     1
  8
0
100
AcDbBlockEnd
  0
ENDSEC
  0
SECTION
  2
ENTITIES
  0
LINE
  5
100
100
AcDbEntity
  8
Layer_1
 62
5
100
AcDbLine
 10
239.731001
 20
209.492432
 30
0.0
 11
239.731001
 21
209.492432
 31
0.0
  0
SPLINE
  5
101
100
AcDbEntity
  8
Layer_1
 62
5
100
AcDbSpline
 70
0
 71
3
 72
19
 73
15
 74
13
 40
0.000000
 40
0.000000
 40
0.000000
 40
0.000000
 40
0.819706
 40
1.615065
 40
2.434775
 40
3.254478
 40
4.049828
 40
4.869532
 40
5.689236
 40
6.484587
 40
7.304290
 40
8.123999
 40
8.919359
 40
9.739065
 40
9.739065
 40
9.739065
 40
9.739065
 10
239.731001
 20
209.492432
 30
0.0
 10
239.687919
 20
209.768800
 30
0.0
 10
239.603036
 20
210.313327
 30
0.0
 10
238.978897
 20
210.912814
 30
0.0
 10
238.164735
 20
211.134900
 30
0.0
 10
237.342028
 20
210.912816
 30
0.0
 10
236.743032
 20
210.313323
 30
0.0
 10
236.520792
 20
209.492432
 30
0.0
 10
236.743032
 20
208.671541
 30
0.0
 10
237.342028
 20
208.072048
 30
0.0
 10
238.164735
 20
207.849964
 30
0.0
 10
238.978897
 20
208.072050
 30
0.0
 10
239.603036
 20
208.671537
 30
0.0
 10
239.687919
 20
209.216064
 30
0.0
 10
239.731001
 20
209.492432
 30
0.0
 11
239.731001
 21
209.492432
 31
0.0
 11
239.516975
 21
210.283703
 31
0.0
 11
238.954569
 21
210.846106
 31
0.0
 11
238.163294
 21
211.060131
 31
0.0
 11
237.372025
 21
210.846106
 31
0.0
 11
236.809632
 21
210.283703
 31
0.0
 11
236.595613
 21
209.492432
 31
0.0
 11
236.809632
 21
208.701161
 31
0.0
 11
237.372025
 21
208.138758
 31
0.0
 11
238.163294
 21
207.924733
 31
0.0
 11
238.954569
 21
208.138758
 31
0.0
 11
239.516975
 21
208.701161
 31
0.0
 11
239.731001
 21
209.492432
 31
0.0
  0
LINE
  5
102
100
AcDbEntity
  8
Layer_1
 62
5
100
AcDbLine
 10
377.605829
 20
93.667578
 30
0.0
 11
377.605829
 21
93.667578
 31
0.0
  0
SPLINE
  5
103
100
AcDbEntity
  8
Layer_1
 62
5
100
AcDbSpline
 70
0
 71
3
 72
19
 73
15
 74
13
 40
0.000000
 40
0.000000
 40
0.000000
 40
0.000000
 40
0.819709
 40
1.615072
 40
2.434777
 40
3.254483
 40
4.049846
 40
4.869556
 40
5.689264
 40
6.484627
 40
7.304334
 40
8.124039
 40
8.919402
 40
9.739110
 40
9.739110
 40
9.739110
 40
9.739110
 10
377.605829
 20
93.667578
 30
0.0
 10
377.562747
 20
93.943947
 30
0.0
 10
377.477863
 20
94.488476
 30
0.0
 10
376.853725
 20
95.087965
 30
0.0
 10
376.039563
 20
95.310056
 30
0.0
 10
375.216854
 20
95.087965
 30
0.0
 10
374.617847
 20
94.488476
 30
0.0
 10
374.395592
 20
93.667578
 30
0.0
 10
374.617848
 20
92.846680
 30
0.0
 10
375.216854
 20
92.247192
 30
0.0
 10
376.039563
 20
92.025100
 30
0.0
 10
376.853725
 20
92.247192
 30
0.0
 10
377.477862
 20
92.846681
 30
0.0
 10
377.562747
 20
93.391209
 30
0.0
 10
377.605829
 20
93.667578
 30
0.0
 11
377.605829
 21
93.667578
 31
0.0
 11
377.391802
 21
94.458852
 31
0.0
 11
376.829395
 21
95.021258
 31
0.0
 11
376.038125
 21
95.235285
 31
0.0
 11
375.246853
 21
95.021258
 31
0.0
 11
374.684445
 21
94.458852
 31
0.0
 11
374.470418
 21
93.667578
 31
0.0
 11
374.684445
 21
92.876305
 31
0.0
 11
375.246853
 21
92.313898
 31
0.0
 11
376.038125
 21
92.099871
 31
0.0
 11
376.829395
 21
92.313898
 31
0.0
 11
377.391802
 21
92.876305
 31
0.0
 11
377.605829
 21
93.667578
 31
0.0
  0
LINE
  5
104
100
AcDbEntity
  8
Layer_1
 62
5
100
AcDbLine
 10
101.856165
 20
93.667578
 30
0.0
 11
101.856165
 21
93.667578
 31
0.0
  0
SPLINE
  5
105
100
AcDbEntity
  8
Layer_1
 62
5
100
AcDbSpline
 70
0
 71
3
 72
19
 73
15
 74
13
 40
0.000000
 40
0.000000
 40
0.000000
 40
0.000000
 40
0.819704
 40
1.615054
 40
2.434757
 40
3.254478
 40
4.049834
 40
4.869538
 40
5.689241
 40
6.484597
 40
7.304318
 40
8.124021
 40
8.919372
 40
9.739075
 40
9.739075
 40
9.739075
 40
9.739075
 10
101.856165
 20
93.667578
 30
0.0
 10
101.813085
 20
93.943945
 30
0.0
 10
101.728207
 20
94.488469
 30
0.0
 10
101.104081
 20
95.087962
 30
0.0
 10
100.289917
 20
95.310045
 30
0.0
 10
99.467204
 20
95.087965
 30
0.0
 10
98.868197
 20
94.488471
 30
0.0
 10
98.645955
 20
93.667578
 30
0.0
 10
98.868197
 20
92.846685
 30
0.0
 10
99.467204
 20
92.247192
 30
0.0
 10
100.289917
 20
92.025111
 30
0.0
 10
101.104081
 20
92.247194
 30
0.0
 10
101.728206
 20
92.846688
 30
0.0
 10
101.813085
 20
93.391211
 30
0.0
 10
101.856165
 20
93.667578
 30
0.0
 11
101.856165
 21
93.667578
 31
0.0
 11
101.642145
 21
94.458849
 31
0.0
 11
101.079753
 21
95.021252
 31
0.0
 11
100.288484
 21
95.235277
 31
0.0
 11
99.497197
 21
95.021252
 31
0.0
 11
98.934797
 21
94.458849
 31
0.0
 11
98.720777
 21
93.667578
 31
0.0
 11
98.934797
 21
92.876308
 31
0.0
 11
99.497197
 21
92.313904
 31
0.0
 11
100.288484
 21
92.099879
 31
0.0
 11
101.079753
 21
92.313904
 31
0.0
 11
101.642145
 21
92.876308
 31
0.0
 11
101.856165
 21
93.667578
 31
0.0
  0
LINE
  5
106
100
AcDbEntity
  8
Layer_1
 62
5
100
AcDbLine
 10
377.605829
 20
209.492432
 30
0.0
 11
377.605829
 21
209.492432
 31
0.0
  0
SPLINE
  5
107
100
AcDbEntity
  8
Layer_1
 62
5
100
AcDbSpline
 70
0
 71
3
 72
19
 73
15
 74
13
 40
0.000000
 40
0.000000
 40
0.000000
 40
0.000000
 40
0.819708
 40
1.615070
 40
2.434775
 40
3.254484
 40
4.049844
 40
4.869552
 40
5.689260
 40
6.484621
 40
7.304329
 40
8.124034
 40
8.919396
 40
9.739104
 40
9.739104
 40
9.739104
 40
9.739104
 10
377.605829
 20
209.492432
 30
0.0
 10
377.562747
 20
209.768801
 30
0.0
 10
377.477863
 20
210.313329
 30
0.0
 10
376.853725
 20
210.912818
 30
0.0
 10
376.039563
 20
211.134906
 30
0.0
 10
375.216854
 20
210.912818
 30
0.0
 10
374.617847
 20
210.313329
 30
0.0
 10
374.395595
 20
209.492432
 30
0.0
 10
374.617847
 20
208.671535
 30
0.0
 10
375.216854
 20
208.072046
 30
0.0
 10
376.039563
 20
207.849958
 30
0.0
 10
376.853725
 20
208.072047
 30
0.0
 10
377.477863
 20
208.671535
 30
0.0
 10
377.562747
 20
209.216063
 30
0.0
 10
377.605829
 20
209.492432
 30
0.0
 11
377.605829
 21
209.492432
 31
0.0
 11
377.391802
 21
210.283706
 31
0.0
 11
376.829396
 21
210.846111
 31
0.0
 11
376.038125
 21
211.060137
 31
0.0
 11
375.246851
 21
210.846111
 31
0.0
 11
374.684446
 21
210.283706
 31
0.0
 11
374.470420
 21
209.492432
 31
0.0
 11
374.684446
 21
208.701158
 31
0.0
 11
375.246851
 21
208.138754
 31
0.0
 11
376.038125
 21
207.924728
 31
0.0
 11
376.829396
 21
208.138754
 31
0.0
 11
377.391802
 21
208.701158
 31
0.0
 11
377.605829
 21
209.492432
 31
0.0
  0
LINE
  5
108
100
AcDbEntity
  8
Layer_1
 62
5
100
AcDbLine
 10
101.856165
 20
209.492432
 30
0.0
 11
101.856165
 21
209.492432
 31
0.0
  0
SPLINE
  5
109
100
AcDbEntity
  8
Layer_1
 62
5
100
AcDbSpline
 70
0
 71
3
 72
19
 73
15
 74
13
 40
0.000000
 40
0.000000
 40
0.000000
 40
0.000000
 40
0.819704
 40
1.615054
 40
2.434757
 40
3.254478
 40
4.049834
 40
4.869538
 40
5.689242
 40
6.484597
 40
7.304318
 40
8.124022
 40
8.919372
 40
9.739076
 40
9.739076
 40
9.739076
 40
9.739076
 10
101.856165
 20
209.492432
 30
0.0
 10
101.813085
 20
209.768799
 30
0.0
 10
101.728207
 20
210.313323
 30
0.0
 10
101.104081
 20
210.912817
 30
0.0
 10
100.289917
 20
211.134899
 30
0.0
 10
99.467204
 20
210.912819
 30
0.0
 10
98.868197
 20
210.313326
 30
0.0
 10
98.645956
 20
209.492432
 30
0.0
 10
98.868197
 20
208.671539
 30
0.0
 10
99.467204
 20
208.072045
 30
0.0
 10
100.289917
 20
207.849965
 30
0.0
 10
101.104081
 20
208.072048
 30
0.0
 10
101.728207
 20
208.671541
 30
0.0
 10
101.813085
 20
209.216065
 30
0.0
 10
101.856165
 20
209.492432
 30
0.0
 11
101.856165
 21
209.492432
 31
0.0
 11
101.642145
 21
210.283703
 31
0.0
 11
101.079753
 21
210.846106
 31
0.0
 11
100.288484
 21
211.060131
 31
0.0
 11
99.497197
 21
210.846106
 31
0.0
 11
98.934797
 21
210.283703
 31
0.0
 11
98.720777
 21
209.492432
 31
0.0
 11
98.934797
 21
208.701161
 31
0.0
 11
99.497197
 21
208.138758
 31
0.0
 11
100.288484
 21
207.924733
 31
0.0
 11
101.079753
 21
208.138758
 31
0.0
 11
101.642145
 21
208.701161
 31
0.0
 11
101.856165
 21
209.492432
 31
0.0
  0
LINE
  5
10a
100
AcDbEntity
  8
Layer_1
 62
5
100
AcDbLine
 10
169.005796
 20
93.667578
 30
0.0
 11
169.005796
 21
93.667578
 31
0.0
  0
SPLINE
  5
10b
100
AcDbEntity
  8
Layer_1
 62
5
100
AcDbSpline
 70
0
 71
3
 72
19
 73
15
 74
13
 40
0.000000
 40
0.000000
 40
0.000000
 40
0.000000
 40
0.819704
 40
1.615064
 40
2.434774
 40
3.254416
 40
4.049801
 40
4.869515
 40
5.689227
 40
6.484613
 40
7.304254
 40
8.123964
 40
8.919325
 40
9.739028
 40
9.739028
 40
9.739028
 40
9.739028
 10
169.005796
 20
93.667578
 30
0.0
 10
168.962714
 20
93.943946
 30
0.0
 10
168.877830
 20
94.488473
 30
0.0
 10
168.253692
 20
95.087956
 30
0.0
 10
167.439547
 20
95.310053
 30
0.0
 10
166.616865
 20
95.087931
 30
0.0
 10
166.017854
 20
94.488482
 30
0.0
 10
165.795534
 20
93.667578
 30
0.0
 10
166.017854
 20
92.846675
 30
0.0
 10
166.616865
 20
92.247226
 30
0.0
 10
167.439547
 20
92.025103
 30
0.0
 10
168.253692
 20
92.247200
 30
0.0
 10
168.877829
 20
92.846684
 30
0.0
 10
168.962714
 20
93.391211
 30
0.0
 10
169.005796
 20
93.667578
 30
0.0
 11
169.005796
 21
93.667578
 31
0.0
 11
168.791769
 21
94.458848
 31
0.0
 11
168.229364
 21
95.021251
 31
0.0
 11
167.438088
 21
95.235277
 31
0.0
 11
166.646883
 21
95.021251
 31
0.0
 11
166.084443
 21
94.458848
 31
0.0
 11
165.870381
 21
93.667578
 31
0.0
 11
166.084443
 21
92.876309
 31
0.0
 11
166.646883
 21
92.313905
 31
0.0
 11
167.438088
 21
92.099879
 31
0.0
 11
168.229364
 21
92.313905
 31
0.0
 11
168.791769
 21
92.876309
 31
0.0
 11
169.005796
 21
93.667578
 31
0.0
  0
LINE
  5
10c
100
AcDbEntity
  8
Layer_1
 62
5
100
AcDbLine
 10
310.442924
 20
93.667578
 30
0.0
 11
310.442924
 21
93.667578
 31
0.0
  0
SPLINE
  5
10d
100
AcDbEntity
  8
Layer_1
 62
5
100
AcDbSpline
 70
0
 71
3
 72
19
 73
15
 74
13
 40
0.000000
 40
0.000000
 40
0.000000
 40
0.000000
 40
0.819704
 40
1.615064
 40
2.434774
 40
3.254416
 40
4.049801
 40
4.869515
 40
5.689227
 40
6.484613
 40
7.304254
 40
8.123964
 40
8.919325
 40
9.739028
 40
9.739028
 40
9.739028
 40
9.739028
 10
310.442924
 20
93.667578
 30
0.0
 10
310.399843
 20
93.943946
 30
0.0
 10
310.314959
 20
94.488473
 30
0.0
 10
309.690821
 20
95.087956
 30
0.0
 10
308.876676
 20
95.310053
 30
0.0
 10
308.053994
 20
95.087931
 30
0.0
 10
307.454982
 20
94.488482
 30
0.0
 10
307.232663
 20
93.667578
 30
0.0
 10
307.454983
 20
92.846675
 30
0.0
 10
308.053994
 20
92.247226
 30
0.0
 10
308.876676
 20
92.025103
 30
0.0
 10
309.690821
 20
92.247200
 30
0.0
 10
310.314958
 20
92.846684
 30
0.0
 10
310.399843
 20
93.391211
 30
0.0
 10
310.442924
 20
93.667578
 30
0.0
 11
310.442924
 21
93.667578
 31
0.0
 11
310.228898
 21
94.458848
 31
0.0
 11
309.666493
 21
95.021251
 31
0.0
 11
308.875217
 21
95.235277
 31
0.0
 11
308.084012
 21
95.021251
 31
0.0
 11
307.521571
 21
94.458848
 31
0.0
 11
307.307510
 21
93.667578
 31
0.0
 11
307.521571
 21
92.876309
 31
0.0
 11
308.084012
 21
92.313905
 31
0.0
 11
308.875217
 21
92.099879
 31
0.0
 11
309.666493
 21
92.313905
 31
0.0
 11
310.228898
 21
92.876309
 31
0.0
 11
310.442924
 21
93.667578
 31
0.0
  0
LINE
  5
10e
100
AcDbEntity
  8
Layer_1
 62
5
100
AcDbLine
 10
101.856138
 20
180.997467
 30
0.0
 11
101.856138
 21
180.997467
 31
0.0
  0
SPLINE
  5
10f
100
AcDbEntity
  8
Layer_1
 62
5
100
AcDbSpline
 70
0
 71
3
 72
19
 73
15
 74
13
 40
0.000000
 40
0.000000
 40
0.000000
 40
0.000000
 40
0.819691
 40
1.615027
 40
2.434723
 40
3.254437
 40
4.049778
 40
4.869470
 40
5.689161
 40
6.484502
 40
7.304216
 40
8.123912
 40
8.919248
 40
9.738939
 40
9.738939
 40
9.738939
 40
9.738939
 10
101.856138
 20
180.997467
 30
0.0
 10
101.813061
 20
181.273831
 30
0.0
 10
101.728186
 20
181.818345
 30
0.0
 10
101.104072
 20
182.417835
 30
0.0
 10
100.289917
 20
182.639911
 30
0.0
 10
99.467213
 20
182.417838
 30
0.0
 10
98.868217
 20
181.818348
 30
0.0
 10
98.645985
 20
180.997467
 30
0.0
 10
98.868217
 20
180.176587
 30
0.0
 10
99.467213
 20
179.577097
 30
0.0
 10
100.289917
 20
179.355024
 30
0.0
 10
101.104072
 20
179.577100
 30
0.0
 10
101.728186
 20
180.176590
 30
0.0
 10
101.813061
 20
180.721104
 30
0.0
 10
101.856138
 20
180.997467
 30
0.0
 11
101.856138
 21
180.997467
 31
0.0
 11
101.642126
 21
181.788727
 31
0.0
 11
101.079746
 21
182.351123
 31
0.0
 11
100.288484
 21
182.565146
 31
0.0
 11
99.497203
 21
182.351123
 31
0.0
 11
98.934817
 21
181.788727
 31
0.0
 11
98.720803
 21
180.997467
 31
0.0
 11
98.934817
 21
180.206208
 31
0.0
 11
99.497203
 21
179.643812
 31
0.0
 11
100.288484
 21
179.429789
 31
0.0
 11
101.079746
 21
179.643812
 31
0.0
 11
101.642126
 21
180.206208
 31
0.0
 11
101.856138
 21
180.997467
 31
0.0
  0
LINE
  5
110
100
AcDbEntity
  8
Layer_1
 62
5
100
AcDbLine
 10
377.605829
 20
181.002468
 30
0.0
 11
377.605829
 21
181.002468
 31
0.0
  0
LINE
  5
111
100
AcDbEntity
  8
Layer_1
 62
5
100
AcDbLine
 10
133.551938
 20
96.596774
 30
0.0
 11
133.551938
 21
93.667578
 31
0.0
  0
SPLINE
  5
112
100
AcDbEntity
  8
Layer_1
 62
5
100
AcDbSpline
 70
0
 71
3
 72
19
 73
15
 74
13
 40
0.000000
 40
0.000000
 40
0.000000
 40
0.000000
 40
0.819707
 40
1.615070
 40
2.434774
 40
3.254481
 40
4.049843
 40
4.869550
 40
5.689257
 40
6.484618
 40
7.304325
 40
8.124030
 40
8.919392
 40
9.739100
 40
9.739100
 40
9.739100
 40
9.739100
 10
377.605829
 20
181.002468
 30
0.0
 10
377.562747
 20
181.278836
 30
0.0
 10
377.477862
 20
181.823365
 30
0.0
 10
376.853725
 20
182.422852
 30
0.0
 10
376.039563
 20
182.644943
 30
0.0
 10
375.216854
 20
182.422853
 30
0.0
 10
374.617849
 20
181.823364
 30
0.0
 10
374.395595
 20
181.002468
 30
0.0
 10
374.617849
 20
180.181572
 30
0.0
 10
375.216854
 20
179.582083
 30
0.0
 10
376.039563
 20
179.359993
 30
0.0
 10
376.853725
 20
179.582084
 30
0.0
 10
377.477862
 20
180.181571
 30
0.0
 10
377.562747
 20
180.726100
 30
0.0
 10
377.605829
 20
181.002468
 30
0.0
 11
377.605829
 21
181.002468
 31
0.0
 11
377.391802
 21
181.793741
 31
0.0
 11
376.829395
 21
182.356146
 31
0.0
 11
376.038125
 21
182.570173
 31
0.0
 11
375.246852
 21
182.356146
 31
0.0
 11
374.684447
 21
181.793741
 31
0.0
 11
374.470420
 21
181.002468
 31
0.0
 11
374.684447
 21
180.211195
 31
0.0
 11
375.246852
 21
179.648790
 31
0.0
 11
376.038125
 21
179.434764
 31
0.0
 11
376.829395
 21
179.648790
 31
0.0
 11
377.391802
 21
180.211195
 31
0.0
 11
377.605829
 21
181.002468
 31
0.0
  0
LINE
  5
113
100
AcDbEntity
  8
Layer_1
 62
5
100
AcDbLine
 10
130.625941
 20
90.741581
 30
0.0
 11
126.625949
 21
90.741581
 31
0.0
  0
SPLINE
  5
114
100
AcDbEntity
  8
Layer_1
 62
5
100
AcDbSpline
 70
0
 71
3
 72
13
 73
9
 74
7
 40
0.000000
 40
0.000000
 40
0.000000
 40
0.000000
 40
0.765948
 40
1.525575
 40
2.291508
 40
3.057446
 40
3.817077
 40
4.583028
 40
4.583028
 40
4.583028
 40
4.583028
 10
130.625941
 20
90.741581
 30
0.0
 10
130.882003
 20
90.761089
 30
0.0
 10
131.392013
 20
90.799944
 30
0.0
 10
132.105487
 20
91.106953
 30
0.0
 10
132.719484
 20
91.574027
 30
0.0
 10
133.186553
 20
92.188029
 30
0.0
 10
133.493571
 20
92.901502
 30
0.0
 10
133.532429
 20
93.411515
 30
0.0
 10
133.551938
 20
93.667578
 30
0.0
 11
130.625941
 21
90.741581
 31
0.0
 11
131.385300
 21
90.841833
 31
0.0
 11
132.087104
 21
91.132529
 31
0.0
 11
132.694927
 21
91.598581
 31
0.0
 11
133.160979
 21
92.206410
 31
0.0
 11
133.451682
 21
92.908217
 31
0.0
 11
133.551938
 21
93.667578
 31
0.0
  0
LINE
  5
115
100
AcDbEntity
  8
Layer_1
 62
5
100
AcDbLine
 10
123.699952
 20
93.667578
 30
0.0
 11
123.699952
 21
96.596774
 31
0.0
  0
SPLINE
  5
116
100
AcDbEntity
  8
Layer_1
 62
5
100
AcDbSpline
 70
0
 71
3
 72
13
 73
9
 74
7
 40
0.000000
 40
0.000000
 40
0.000000
 40
0.000000
 40
0.765950
 40
1.525577
 40
2.291510
 40
3.057444
 40
3.817077
 40
4.583044
 40
4.583044
 40
4.583044
 40
4.583044
 10
123.699952
 20
93.667578
 30
0.0
 10
123.719459
 20
93.411516
 30
0.0
 10
123.758313
 20
92.901505
 30
0.0
 10
124.065316
 20
92.188028
 30
0.0
 10
124.532380
 20
91.574025
 30
0.0
 10
125.146379
 20
91.106952
 30
0.0
 10
125.859862
 20
90.799942
 30
0.0
 10
126.369881
 20
90.761089
 30
0.0
 10
126.625949
 20
90.741581
 30
0.0
 11
123.699952
 21
93.667578
 31
0.0
 11
123.800202
 21
92.908217
 31
0.0
 11
124.090892
 21
92.206410
 31
0.0
 11
124.556936
 21
91.598581
 31
0.0
 11
125.164761
 21
91.132529
 31
0.0
 11
125.866571
 21
90.841833
 31
0.0
 11
126.625949
 21
90.741581
 31
0.0
  0
LINE
  5
117
100
AcDbEntity
  8
Layer_1
 62
5
100
AcDbLine
 10
120.766150
 20
99.667572
 30
0.0
 11
110.050962
 21
99.667572
 31
0.0
  0
SPLINE
  5
118
100
AcDbEntity
  8
Layer_1
 62
5
100
AcDbSpline
 70
0
 71
3
 72
10
 73
6
 74
4
 40
0.000000
 40
0.000000
 40
0.000000
 40
0.000000
 40
1.560805
 40
3.077592
 40
4.638424
 40
4.638424
 40
4.638424
 40
4.638424
 10
123.699952
 20
96.596774
 30
0.0
 10
123.620277
 20
97.119610
 30
0.0
 10
123.463173
 20
98.150539
 30
0.0
 10
122.307503
 20
99.360143
 30
0.0
 10
121.284813
 20
99.564122
 30
0.0
 10
120.766150
 20
99.667572
 30
0.0
 11
123.699952
 21
96.596774
 31
0.0
 11
123.304114
 21
98.106550
 31
0.0
 11
122.256321
 21
99.203260
 31
0.0
 11
120.766150
 21
99.667572
 31
0.0
  0
LINE
  5
119
100
AcDbEntity
  8
Layer_1
 62
5
100
AcDbLine
 10
109.971058
 20
99.670770
 30
0.0
 11
105.215258
 21
99.670770
 31
0.0
  0
SPLINE
  5
11a
100
AcDbEntity
  8
Layer_1
 62
5
100
AcDbSpline
 70
0
 71
3
 72
10
 73
6
 74
4
 40
0.000000
 40
0.000000
 40
0.000000
 40
0.000000
 40
0.026660
 40
0.053313
 40
0.079987
 40
0.079987
 40
0.079987
 40
0.079987
 10
109.971058
 20
99.670770
 30
0.0
 10
109.979922
 20
99.670134
 30
0.0
 10
109.997648
 20
99.668861
 30
0.0
 10
110.024294
 20
99.667785
 30
0.0
 10
110.042070
 20
99.667641
 30
0.0
 10
110.050962
 20
99.667569
 30
0.0
 11
109.971058
 21
99.670770
 31
0.0
 11
109.997659
 21
99.669000
 31
0.0
 11
110.024290
 21
99.667929
 31
0.0
 11
110.050962
 21
99.667569
 31
0.0
  0
LINE
  5
11b
100
AcDbEntity
  8
Layer_1
 62
5
100
AcDbLine
 10
104.294959
 20
100.596946
 30
0.0
 11
104.294959
 21
126.885754
 31
0.0
  0
SPLINE
  5
11c
100
AcDbEntity
  8
Layer_1
 62
5
100
AcDbSpline
 70
0
 71
3
 72
13
 73
9
 74
7
 40
0.000000
 40
0.000000
 40
0.000000
 40
0.000000
 40
0.242404
 40
0.482801
 40
0.725199
 40
0.967601
 40
1.207997
 40
1.450393
 40
1.450393
 40
1.450393
 40
1.450393
 10
104.289270
 20
100.596769
 30
0.0
 10
104.295445
 20
100.515730
 30
0.0
 10
104.307744
 20
100.354325
 30
0.0
 10
104.404926
 20
100.128547
 30
0.0
 10
104.552678
 20
99.934180
 30
0.0
 10
104.747043
 20
99.786425
 30
0.0
 10
104.972820
 20
99.689244
 30
0.0
 10
105.134222
 20
99.676945
 30
0.0
 10
105.215258
 20
99.670770
 30
0.0
 11
104.289270
 21
100.596769
 31
0.0
 11
104.321004
 21
100.356451
 31
0.0
 11
104.413005
 21
100.134355
 31
0.0
 11
104.560468
 21
99.941971
 31
0.0
 11
104.752853
 21
99.794504
 31
0.0
 11
104.974948
 21
99.702504
 31
0.0
 11
105.215258
 21
99.670770
 31
0.0
  0
LINE
  5
11d
100
AcDbEntity
  8
Layer_1
 62
5
100
AcDbLine
 10
104.294324
 20
126.940864
 30
0.0
 11
104.294324
 21
204.371111
 31
0.0
  0
SPLINE
  5
11e
100
AcDbEntity
  8
Layer_1
 62
5
100
AcDbSpline
 70
0
 71
3
 72
10
 73
6
 74
4
 40
0.000000
 40
0.000000
 40
0.000000
 40
0.000000
 40
0.018365
 40
0.036752
 40
0.055110
 40
0.055110
 40
0.055110
 40
0.055110
 10
104.294324
 20
126.940864
 30
0.0
 10
104.294338
 20
126.934742
 30
0.0
 10
104.294366
 20
126.922492
 30
0.0
 10
104.294472
 20
126.904121
 30
0.0
 10
104.294373
 20
126.891873
 30
0.0
 10
104.294324
 20
126.885754
 30
0.0
 11
104.294324
 21
126.940864
 31
0.0
 11
104.294376
 21
126.922499
 31
0.0
 11
104.294429
 21
126.904112
 31
0.0
 11
104.294324
 21
126.885754
 31
0.0
  0
SPLINE
  5
11f
100
AcDbEntity
  8
Layer_1
 62
5
100
AcDbSpline
 70
0
 71
3
 72
10
 73
6
 74
4
 40
0.000000
 40
0.000000
 40
0.000000
 40
0.000000
 40
0.143988
 40
0.290064
 40
0.437470
 40
0.437470
 40
0.437470
 40
0.437470
 10
104.334090
 20
204.806209
 30
0.0
 10
104.326133
 20
204.758867
 30
0.0
 10
104.310102
 20
204.663494
 30
0.0
 10
104.296967
 20
204.518076
 30
0.0
 10
104.295207
 20
204.420247
 30
0.0
 10
104.294324
 20
204.371111
 30
0.0
 11
104.334090
 21
204.806209
 31
0.0
 11
104.312021
 21
204.663923
 31
0.0
 11
104.298754
 21
204.518451
 31
0.0
 11
104.294324
 21
204.371111
 31
0.0
  0
LINE
  5
120
100
AcDbEntity
  8
Layer_1
 62
5
100
AcDbLine
 10
105.233673
 20
205.492837
 30
0.0
 11
115.863453
 21
205.492837
 31
0.0
  0
SPLINE
  5
121
100
AcDbEntity
  8
Layer_1
 62
5
100
AcDbSpline
 70
0
 71
3
 72
10
 73
6
 74
4
 40
0.000000
 40
0.000000
 40
0.000000
 40
0.000000
 40
0.403199
 40
0.797684
 40
1.200854
 40
1.200854
 40
1.200854
 40
1.200854
 10
105.233673
 20
205.492837
 30
0.0
 10
105.098850
 20
205.475243
 30
0.0
 10
104.832120
 20
205.440435
 30
0.0
 10
104.494937
 20
205.182227
 30
0.0
 10
104.391802
 20
204.933803
 30
0.0
 10
104.339673
 20
204.808239
 30
0.0
 11
105.233673
 21
205.492837
 31
0.0
 11
104.840129
 21
205.405126
 31
0.0
 11
104.526930
 21
205.165283
 31
0.0
 11
104.339673
 21
204.808239
 31
0.0
  0
LINE
  5
122
100
AcDbEntity
  8
Layer_1
 62
5
100
AcDbLine
 10
118.937458
 20
208.566833
 30
0.0
 11
118.937458
 21
209.492432
 31
0.0
  0
SPLINE
  5
123
100
AcDbEntity
  8
Layer_1
 62
5
100
AcDbSpline
 70
0
 71
3
 72
13
 73
9
 74
7
 40
0.000000
 40
0.000000
 40
0.000000
 40
0.000000
 40
0.804711
 40
1.602752
 40
2.407416
 40
3.212078
 40
4.010113
 40
4.814828
 40
4.814828
 40
4.814828
 40
4.814828
 10
115.863453
 20
205.492837
 30
0.0
 10
116.132473
 20
205.513332
 30
0.0
 10
116.668284
 20
205.554151
 30
0.0
 10
117.417853
 20
205.876695
 30
0.0
 10
118.062827
 20
206.367465
 30
0.0
 10
118.553596
 20
207.012436
 30
0.0
 10
118.876145
 20
207.762002
 30
0.0
 10
118.916963
 20
208.297812
 30
0.0
 10
118.937458
 20
208.566833
 30
0.0
 11
115.863453
 21
205.492837
 31
0.0
 11
116.661242
 21
205.598163
 31
0.0
 11
117.398529
 21
205.903577
 31
0.0
 11
118.037056
 21
206.393237
 31
0.0
 11
118.526715
 21
207.031762
 31
0.0
 11
118.832131
 21
207.769042
 31
0.0
 11
118.937458
 21
208.566833
 31
0.0
  0
LINE
  5
124
100
AcDbEntity
  8
Layer_1
 62
5
100
AcDbLine
 10
121.863455
 20
212.418429
 30
0.0
 11
125.863447
 21
212.418429
 31
0.0
  0
SPLINE
  5
125
100
AcDbEntity
  8
Layer_1
 62
5
100
AcDbSpline
 70
0
 71
3
 72
13
 73
9
 74
7
 40
0.000000
 40
0.000000
 40
0.000000
 40
0.000000
 40
0.765967
 40
1.525600
 40
2.291534
 40
3.057466
 40
3.817093
 40
4.583044
 40
4.583044
 40
4.583044
 40
4.583044
 10
121.863455
 20
212.418429
 30
0.0
 10
121.607387
 20
212.398921
 30
0.0
 10
121.097368
 20
212.360068
 30
0.0
 10
120.383885
 20
212.053059
 30
0.0
 10
119.769887
 20
211.585985
 30
0.0
 10
119.302822
 20
210.971983
 30
0.0
 10
118.995819
 20
210.258506
 30
0.0
 10
118.956965
 20
209.748495
 30
0.0
 10
118.937458
 20
209.492432
 30
0.0
 11
121.863455
 21
212.418429
 31
0.0
 11
121.104077
 21
212.318177
 31
0.0
 11
120.402267
 21
212.027481
 31
0.0
 11
119.794442
 21
211.561429
 31
0.0
 11
119.328398
 21
210.953601
 31
0.0
 11
119.037708
 21
210.251794
 31
0.0
 11
118.937458
 21
209.492432
 31
0.0
  0
LINE
  5
126
100
AcDbEntity
  8
Layer_1
 62
5
100
AcDbLine
 10
128.789444
 20
209.492432
 30
0.0
 11
128.789444
 21
208.566833
 31
0.0
  0
SPLINE
  5
127
100
AcDbEntity
  8
Layer_1
 62
5
100
AcDbSpline
 70
0
 71
3
 72
13
 73
9
 74
7
 40
0.000000
 40
0.000000
 40
0.000000
 40
0.000000
 40
0.765952
 40
1.525584
 40
2.291520
 40
3.057454
 40
3.817080
 40
4.583028
 40
4.583028
 40
4.583028
 40
4.583028
 10
128.789444
 20
209.492432
 30
0.0
 10
128.769935
 20
209.748495
 30
0.0
 10
128.731077
 20
210.258508
 30
0.0
 10
128.424059
 20
210.971982
 30
0.0
 10
127.956989
 20
211.585983
 30
0.0
 10
127.342993
 20
212.053057
 30
0.0
 10
126.629519
 20
212.360066
 30
0.0
 10
126.119509
 20
212.398921
 30
0.0
 10
125.863447
 20
212.418429
 30
0.0
 11
128.789444
 21
209.492432
 31
0.0
 11
128.689188
 21
210.251794
 31
0.0
 11
128.398485
 21
210.953601
 31
0.0
 11
127.932433
 21
211.561429
 31
0.0
 11
127.324610
 21
212.027481
 31
0.0
 11
126.622806
 21
212.318177
 31
0.0
 11
125.863447
 21
212.418429
 31
0.0
  0
LINE
  5
128
100
AcDbEntity
  8
Layer_1
 62
5
100
AcDbLine
 10
131.863422
 20
205.492837
 30
0.0
 11
344.463165
 21
205.492837
 31
0.0
  0
SPLINE
  5
129
100
AcDbEntity
  8
Layer_1
 62
5
100
AcDbSpline
 70
0
 71
3
 72
13
 73
9
 74
7
 40
0.000000
 40
0.000000
 40
0.000000
 40
0.000000
 40
0.804714
 40
1.602750
 40
2.407412
 40
3.212070
 40
4.010100
 40
4.814804
 40
4.814804
 40
4.814804
 40
4.814804
 10
128.789444
 20
208.566833
 30
0.0
 10
128.809939
 20
208.297812
 30
0.0
 10
128.850758
 20
207.762002
 30
0.0
 10
129.173306
 20
207.012436
 30
0.0
 10
129.664075
 20
206.367467
 30
0.0
 10
130.309040
 20
205.876697
 30
0.0
 10
131.058600
 20
205.554150
 30
0.0
 10
131.594405
 20
205.513331
 30
0.0
 10
131.863422
 20
205.492837
 30
0.0
 11
128.789444
 21
208.566833
 31
0.0
 11
128.894771
 21
207.769042
 31
0.0
 11
129.200187
 21
207.031762
 31
0.0
 11
129.689847
 21
206.393237
 31
0.0
 11
130.328367
 21
205.903577
 31
0.0
 11
131.065641
 21
205.598163
 31
0.0
 11
131.863422
 21
205.492837
 31
0.0
  0
LINE
  5
12a
100
AcDbEntity
  8
Layer_1
 62
5
100
AcDbLine
 10
347.537170
 20
208.566833
 30
0.0
 11
347.537170
 21
209.492432
 31
0.0
  0
SPLINE
  5
12b
100
AcDbEntity
  8
Layer_1
 62
5
100
AcDbSpline
 70
0
 71
3
 72
13
 73
9
 74
7
 40
0.000000
 40
0.000000
 40
0.000000
 40
0.000000
 40
0.804711
 40
1.602752
 40
2.407416
 40
3.212078
 40
4.010113
 40
4.814828
 40
4.814828
 40
4.814828
 40
4.814828
 10
344.463165
 20
205.492837
 30
0.0
 10
344.732185
 20
205.513332
 30
0.0
 10
345.267996
 20
205.554151
 30
0.0
 10
346.017565
 20
205.876695
 30
0.0
 10
346.662539
 20
206.367465
 30
0.0
 10
347.153308
 20
207.012436
 30
0.0
 10
347.475857
 20
207.762002
 30
0.0
 10
347.516675
 20
208.297812
 30
0.0
 10
347.537170
 20
208.566833
 30
0.0
 11
344.463165
 21
205.492837
 31
0.0
 11
345.260954
 21
205.598163
 31
0.0
 11
345.998241
 21
205.903577
 31
0.0
 11
346.636768
 21
206.393237
 31
0.0
 11
347.126427
 21
207.031762
 31
0.0
 11
347.431843
 21
207.769042
 31
0.0
 11
347.537170
 21
208.566833
 31
0.0
  0
LINE
  5
12c
100
AcDbEntity
  8
Layer_1
 62
5
100
AcDbLine
 10
350.463167
 20
212.418429
 30
0.0
 11
354.463159
 21
212.418429
 31
0.0
  0
SPLINE
  5
12d
100
AcDbEntity
  8
Layer_1
 62
5
100
AcDbSpline
 70
0
 71
3
 72
13
 73
9
 74
7
 40
0.000000
 40
0.000000
 40
0.000000
 40
0.000000
 40
0.765967
 40
1.525600
 40
2.291534
 40
3.057466
 40
3.817093
 40
4.583044
 40
4.583044
 40
4.583044
 40
4.583044
 10
350.463167
 20
212.418429
 30
0.0
 10
350.207099
 20
212.398921
 30
0.0
 10
349.697080
 20
212.360068
 30
0.0
 10
348.983597
 20
212.053059
 30
0.0
 10
348.369599
 20
211.585985
 30
0.0
 10
347.902534
 20
210.971983
 30
0.0
 10
347.595531
 20
210.258506
 30
0.0
 10
347.556677
 20
209.748495
 30
0.0
 10
347.537170
 20
209.492432
 30
0.0
 11
350.463167
 21
212.418429
 31
0.0
 11
349.703789
 21
212.318177
 31
0.0
 11
349.001979
 21
212.027481
 31
0.0
 11
348.394154
 21
211.561429
 31
0.0
 11
347.928110
 21
210.953601
 31
0.0
 11
347.637420
 21
210.251794
 31
0.0
 11
347.537170
 21
209.492432
 31
0.0
  0
LINE
  5
12e
100
AcDbEntity
  8
Layer_1
 62
5
100
AcDbLine
 10
357.389156
 20
209.492432
 30
0.0
 11
357.389156
 21
208.566833
 31
0.0
  0
SPLINE
  5
12f
100
AcDbEntity
  8
Layer_1
 62
5
100
AcDbSpline
 70
0
 71
3
 72
13
 73
9
 74
7
 40
0.000000
 40
0.000000
 40
0.000000
 40
0.000000
 40
0.765952
 40
1.525584
 40
2.291520
 40
3.057454
 40
3.817080
 40
4.583028
 40
4.583028
 40
4.583028
 40
4.583028
 10
357.389156
 20
209.492432
 30
0.0
 10
357.369647
 20
209.748495
 30
0.0
 10
357.330789
 20
210.258508
 30
0.0
 10
357.023771
 20
210.971982
 30
0.0
 10
356.556701
 20
211.585983
 30
0.0
 10
355.942705
 20
212.053057
 30
0.0
 10
355.229231
 20
212.360066
 30
0.0
 10
354.719221
 20
212.398921
 30
0.0
 10
354.463159
 20
212.418429
 30
0.0
 11
357.389156
 21
209.492432
 31
0.0
 11
357.288900
 21
210.251794
 31
0.0
 11
356.998197
 21
210.953601
 31
0.0
 11
356.532145
 21
211.561429
 31
0.0
 11
355.924322
 21
212.027481
 31
0.0
 11
355.222518
 21
212.318177
 31
0.0
 11
354.463159
 21
212.418429
 31
0.0
  0
LINE
  5
130
100
AcDbEntity
  8
Layer_1
 62
5
100
AcDbLine
 10
360.463134
 20
205.492837
 30
0.0
 11
371.098130
 21
205.492837
 31
0.0
  0
SPLINE
  5
131
100
AcDbEntity
  8
Layer_1
 62
5
100
AcDbSpline
 70
0
 71
3
 72
13
 73
9
 74
7
 40
0.000000
 40
0.000000
 40
0.000000
 40
0.000000
 40
0.804714
 40
1.602750
 40
2.407412
 40
3.212070
 40
4.010100
 40
4.814804
 40
4.814804
 40
4.814804
 40
4.814804
 10
357.389156
 20
208.566833
 30
0.0
 10
357.409651
 20
208.297812
 30
0.0
 10
357.450470
 20
207.762002
 30
0.0
 10
357.773018
 20
207.012436
 30
0.0
 10
358.263787
 20
206.367467
 30
0.0
 10
358.908752
 20
205.876697
 30
0.0
 10
359.658312
 20
205.554150
 30
0.0
 10
360.194117
 20
205.513331
 30
0.0
 10
360.463134
 20
205.492837
 30
0.0
 11
357.389156
 21
208.566833
 31
0.0
 11
357.494483
 21
207.769042
 31
0.0
 11
357.799899
 21
207.031762
 31
0.0
 11
358.289559
 21
206.393237
 31
0.0
 11
358.928079
 21
205.903577
 31
0.0
 11
359.665353
 21
205.598163
 31
0.0
 11
360.463134
 21
205.492837
 31
0.0
  0
SPLINE
  5
132
100
AcDbEntity
  8
Layer_1
 62
5
100
AcDbSpline
 70
0
 71
3
 72
10
 73
6
 74
4
 40
0.000000
 40
0.000000
 40
0.000000
 40
0.000000
 40
0.430538
 40
0.850652
 40
1.281178
 40
1.281178
 40
1.281178
 40
1.281178
 10
372.010029
 20
204.727837
 30
0.0
 10
371.965205
 20
204.866211
 30
0.0
 10
371.876644
 20
205.139609
 30
0.0
 10
371.526806
 20
205.433067
 30
0.0
 10
371.242183
 20
205.472752
 30
0.0
 10
371.098130
 20
205.492837
 30
0.0
 11
372.010029
 21
204.727837
 31
0.0
 11
371.838744
 21
205.122837
 31
0.0
 11
371.516881
 21
205.392837
 31
0.0
 11
371.098130
 21
205.492837
 31
0.0
  0
LINE
  5
133
100
AcDbEntity
  8
Layer_1
 62
5
100
AcDbLine
 10
372.035611
 20
204.447083
 30
0.0
 11
372.035611
 21
126.925068
 31
0.0
  0
SPLINE
  5
134
100
AcDbEntity
  8
Layer_1
 62
5
100
AcDbSpline
 70
0
 71
3
 72
10
 73
6
 74
4
 40
0.000000
 40
0.000000
 40
0.000000
 40
0.000000
 40
0.109198
 40
0.217878
 40
0.325807
 40
0.325807
 40
0.325807
 40
0.325807
 10
372.035611
 20
204.447083
 30
0.0
 10
372.035090
 20
204.483483
 30
0.0
 10
372.034051
 20
204.556110
 30
0.0
 10
372.026274
 20
204.664519
 30
0.0
 10
372.016878
 20
204.736117
 30
0.0
 10
372.012196
 20
204.771793
 30
0.0
 11
372.035611
 21
204.447083
 31
0.0
 11
372.033003
 21
204.556249
 31
0.0
 11
372.025192
 21
204.664649
 31
0.0
 11
372.012196
 21
204.771793
 31
0.0
  0
LINE
  5
135
100
AcDbEntity
  8
Layer_1
 62
5
100
AcDbLine
 10
372.023948
 20
126.695125
 30
0.0
 11
372.023948
 21
100.549927
 31
0.0
  0
SPLINE
  5
136
100
AcDbEntity
  8
Layer_1
 62
5
100
AcDbSpline
 70
0
 71
3
 72
10
 73
6
 74
4
 40
0.000000
 40
0.000000
 40
0.000000
 40
0.000000
 40
0.076472
 40
0.153290
 40
0.230327
 40
0.230327
 40
0.230327
 40
0.230327
 10
372.023948
 20
126.695125
 30
0.0
 10
372.026272
 20
126.720511
 30
0.0
 10
372.030931
 20
126.771398
 30
0.0
 10
372.034831
 20
126.848104
 30
0.0
 10
372.035354
 20
126.899389
 30
0.0
 10
372.035616
 20
126.925068
 30
0.0
 11
372.023948
 21
126.695125
 31
0.0
 11
372.030407
 21
126.771323
 31
0.0
 11
372.034308
 21
126.848043
 31
0.0
 11
372.035616
 21
126.925068
 31
0.0
  0
LINE
  5
137
100
AcDbEntity
  8
Layer_1
 62
5
100
AcDbLine
 10
371.098130
 20
99.670770
 30
0.0
 11
366.355530
 21
99.670770
 31
0.0
  0
SPLINE
  5
138
100
AcDbEntity
  8
Layer_1
 62
5
100
AcDbSpline
 70
0
 71
3
 72
13
 73
9
 74
7
 40
0.000000
 40
0.000000
 40
0.000000
 40
0.000000
 40
0.242404
 40
0.482801
 40
0.725202
 40
0.967603
 40
1.207999
 40
1.450403
 40
1.450403
 40
1.450403
 40
1.450403
 10
371.098130
 20
99.670770
 30
0.0
 10
371.179168
 20
99.676945
 30
0.0
 10
371.340573
 20
99.689244
 30
0.0
 10
371.566353
 20
99.786424
 30
0.0
 10
371.760717
 20
99.934181
 30
0.0
 10
371.908475
 20
100.128546
 30
0.0
 10
372.005655
 20
100.354325
 30
0.0
 10
372.017953
 20
100.515731
 30
0.0
 10
372.024128
 20
100.596769
 30
0.0
 11
371.098130
 21
99.670770
 31
0.0
 11
371.338448
 21
99.702504
 31
0.0
 11
371.560544
 21
99.794504
 31
0.0
 11
371.752928
 21
99.941971
 31
0.0
 11
371.900395
 21
100.134355
 31
0.0
 11
371.992395
 21
100.356451
 31
0.0
 11
372.024128
 21
100.596769
 31
0.0
  0
LINE
  5
139
100
AcDbEntity
  8
Layer_1
 62
5
100
AcDbLine
 10
366.275626
 20
99.667572
 30
0.0
 11
362.535348
 21
99.667572
 31
0.0
  0
LINE
  5
13a
100
AcDbEntity
  8
Layer_1
 62
5
100
AcDbLine
 10
362.535348
 20
99.667572
 30
0.0
 11
355.695243
 21
99.655560
 31
0.0
  0
SPLINE
  5
13b
100
AcDbEntity
  8
Layer_1
 62
5
100
AcDbSpline
 70
0
 71
3
 72
10
 73
6
 74
4
 40
0.000000
 40
0.000000
 40
0.000000
 40
0.000000
 40
0.026686
 40
0.053332
 40
0.079987
 40
0.079987
 40
0.079987
 40
0.079987
 10
366.275626
 20
99.667572
 30
0.0
 10
366.284521
 20
99.667642
 30
0.0
 10
366.302299
 20
99.667783
 30
0.0
 10
366.328946
 20
99.668847
 30
0.0
 10
366.346668
 20
99.670131
 30
0.0
 10
366.355530
 20
99.670773
 30
0.0
 11
366.275626
 21
99.667572
 31
0.0
 11
366.302310
 21
99.667925
 31
0.0
 11
366.328935
 21
99.668991
 31
0.0
 11
366.355530
 21
99.670773
 31
0.0
  0
LINE
  5
13c
100
AcDbEntity
  8
Layer_1
 62
5
100
AcDbLine
 10
352.626662
 20
96.581573
 30
0.0
 11
352.626662
 21
93.667578
 31
0.0
  0
SPLINE
  5
13d
100
AcDbEntity
  8
Layer_1
 62
5
100
AcDbSpline
 70
0
 71
3
 72
10
 73
6
 74
4
 40
0.000000
 40
0.000000
 40
0.000000
 40
0.000000
 40
1.605465
 40
3.163418
 40
4.768891
 40
4.768891
 40
4.768891
 40
4.768891
 10
355.695243
 20
99.655570
 30
0.0
 10
355.157363
 20
99.570260
 30
0.0
 10
354.097522
 20
99.402164
 30
0.0
 10
352.877251
 20
98.179745
 30
0.0
 10
352.711024
 20
97.119605
 30
0.0
 10
352.626662
 20
96.581573
 30
0.0
 11
355.695243
 21
99.655570
 31
0.0
 11
354.146094
 21
99.234079
 31
0.0
 11
353.045424
 21
98.131471
 31
0.0
 11
352.626662
 21
96.581573
 31
0.0
  0
LINE
  5
13e
100
AcDbEntity
  8
Layer_1
 62
5
100
AcDbLine
 10
349.700665
 20
90.741581
 30
0.0
 11
345.700673
 21
90.741581
 31
0.0
  0
SPLINE
  5
13f
100
AcDbEntity
  8
Layer_1
 62
5
100
AcDbSpline
 70
0
 71
3
 72
13
 73
9
 74
7
 40
0.000000
 40
0.000000
 40
0.000000
 40
0.000000
 40
0.765948
 40
1.525575
 40
2.291508
 40
3.057446
 40
3.817077
 40
4.583028
 40
4.583028
 40
4.583028
 40
4.583028
 10
349.700665
 20
90.741581
 30
0.0
 10
349.956727
 20
90.761089
 30
0.0
 10
350.466737
 20
90.799944
 30
0.0
 10
351.180211
 20
91.106953
 30
0.0
 10
351.794208
 20
91.574027
 30
0.0
 10
352.261277
 20
92.188029
 30
0.0
 10
352.568295
 20
92.901502
 30
0.0
 10
352.607153
 20
93.411515
 30
0.0
 10
352.626662
 20
93.667578
 30
0.0
 11
349.700665
 21
90.741581
 31
0.0
 11
350.460024
 21
90.841833
 31
0.0
 11
351.161828
 21
91.132529
 31
0.0
 11
351.769651
 21
91.598581
 31
0.0
 11
352.235703
 21
92.206410
 31
0.0
 11
352.526406
 21
92.908217
 31
0.0
 11
352.626662
 21
93.667578
 31
0.0
  0
LINE
  5
140
100
AcDbEntity
  8
Layer_1
 62
5
100
AcDbLine
 10
342.774676
 20
93.667578
 30
0.0
 11
342.774676
 21
96.553374
 31
0.0
  0
SPLINE
  5
141
100
AcDbEntity
  8
Layer_1
 62
5
100
AcDbSpline
 70
0
 71
3
 72
13
 73
9
 74
7
 40
0.000000
 40
0.000000
 40
0.000000
 40
0.000000
 40
0.765950
 40
1.525577
 40
2.291510
 40
3.057444
 40
3.817077
 40
4.583044
 40
4.583044
 40
4.583044
 40
4.583044
 10
342.774676
 20
93.667578
 30
0.0
 10
342.794183
 20
93.411516
 30
0.0
 10
342.833037
 20
92.901505
 30
0.0
 10
343.140040
 20
92.188028
 30
0.0
 10
343.607104
 20
91.574025
 30
0.0
 10
344.221103
 20
91.106952
 30
0.0
 10
344.934586
 20
90.799942
 30
0.0
 10
345.444605
 20
90.761089
 30
0.0
 10
345.700673
 20
90.741581
 30
0.0
 11
342.774676
 21
93.667578
 31
0.0
 11
342.874926
 21
92.908217
 31
0.0
 11
343.165616
 21
92.206410
 31
0.0
 11
343.631660
 21
91.598581
 31
0.0
 11
344.239485
 21
91.132529
 31
0.0
 11
344.941295
 21
90.841833
 31
0.0
 11
345.700673
 21
90.741581
 31
0.0
  0
LINE
  5
142
100
AcDbEntity
  8
Layer_1
 62
5
100
AcDbLine
 10
339.695274
 20
99.627371
 30
0.0
 11
309.590121
 21
99.574470
 31
0.0
  0
SPLINE
  5
143
100
AcDbEntity
  8
Layer_1
 62
5
100
AcDbSpline
 70
0
 71
3
 72
13
 73
9
 74
7
 40
0.000000
 40
0.000000
 40
0.000000
 40
0.000000
 40
0.805655
 40
1.604585
 40
2.410175
 40
3.215742
 40
4.014654
 40
4.820234
 40
4.820234
 40
4.820234
 40
4.820234
 10
342.774676
 20
96.553374
 30
0.0
 10
342.754138
 20
96.822712
 30
0.0
 10
342.713234
 20
97.359140
 30
0.0
 10
342.389977
 20
98.109450
 30
0.0
 10
341.898192
 20
98.754832
 30
0.0
 10
341.251930
 20
99.245441
 30
0.0
 10
340.501095
 20
99.567380
 30
0.0
 10
339.964624
 20
99.607318
 30
0.0
 10
339.695274
 20
99.627371
 30
0.0
 11
342.774676
 21
96.553374
 31
0.0
 11
342.669120
 21
97.352085
 31
0.0
 11
342.363051
 21
98.090062
 31
0.0
 11
341.872369
 21
98.728971
 31
0.0
 11
341.232595
 21
99.218490
 31
0.0
 11
340.494097
 21
99.523253
 31
0.0
 11
339.695274
 21
99.627371
 31
0.0
  0
LINE
  5
144
100
AcDbEntity
  8
Layer_1
 62
5
100
AcDbLine
 10
307.734521
 20
97.719373
 30
0.0
 11
307.734521
 21
97.021974
 31
0.0
  0
SPLINE
  5
145
100
AcDbEntity
  8
Layer_1
 62
5
100
AcDbSpline
 70
0
 71
3
 72
13
 73
9
 74
7
 40
0.000000
 40
0.000000
 40
0.000000
 40
0.000000
 40
0.485732
 40
0.967429
 40
1.453130
 40
1.938805
 40
2.420466
 40
2.906166
 40
2.906166
 40
2.906166
 40
2.906166
 10
309.590121
 20
99.574470
 30
0.0
 10
309.427734
 20
99.562134
 30
0.0
 10
309.104310
 20
99.537565
 30
0.0
 10
308.651832
 20
99.342966
 30
0.0
 10
308.262434
 20
99.046854
 30
0.0
 10
307.966223
 20
98.657546
 30
0.0
 10
307.771525
 20
98.205143
 30
0.0
 10
307.746890
 20
97.881746
 30
0.0
 10
307.734521
 20
97.719373
 30
0.0
 11
309.590121
 21
99.574470
 31
0.0
 11
309.108554
 21
99.510996
 31
0.0
 11
308.663488
 21
99.326745
 31
0.0
 11
308.278000
 21
99.031271
 31
0.0
 11
307.982441
 21
98.645882
 31
0.0
 11
307.798094
 21
98.200895
 31
0.0
 11
307.734521
 21
97.719373
 31
0.0
  0
LINE
  5
146
100
AcDbEntity
  8
Layer_1
 62
5
100
AcDbLine
 10
304.827415
 20
94.114877
 30
0.0
 11
171.485970
 21
94.114877
 31
0.0
  0
SPLINE
  5
147
100
AcDbEntity
  8
Layer_1
 62
5
100
AcDbSpline
 70
0
 71
3
 72
10
 73
6
 74
4
 40
0.000000
 40
0.000000
 40
0.000000
 40
0.000000
 40
1.519983
 40
2.994922
 40
4.514908
 40
4.514908
 40
4.514908
 40
4.514908
 10
304.827415
 20
94.114877
 30
0.0
 10
305.336805
 20
94.194843
 30
0.0
 10
306.340489
 20
94.352407
 30
0.0
 10
307.496988
 20
95.508898
 30
0.0
 10
307.654553
 20
96.512583
 30
0.0
 10
307.734521
 20
97.021974
 30
0.0
 11
304.827415
 21
94.114877
 31
0.0
 11
306.294660
 21
94.511791
 31
0.0
 11
307.337602
 21
95.554728
 31
0.0
 11
307.734521
 21
97.021974
 31
0.0
  0
LINE
  5
148
100
AcDbEntity
  8
Layer_1
 62
5
100
AcDbLine
 10
168.578891
 20
97.021974
 30
0.0
 11
168.578891
 21
97.815673
 31
0.0
  0
SPLINE
  5
149
100
AcDbEntity
  8
Layer_1
 62
5
100
AcDbSpline
 70
0
 71
3
 72
13
 73
9
 74
7
 40
0.000000
 40
0.000000
 40
0.000000
 40
0.000000
 40
0.760990
 40
1.515685
 40
2.276695
 40
3.037710
 40
3.792409
 40
4.553397
 40
4.553397
 40
4.553397
 40
4.553397
 10
168.578891
 20
97.021974
 30
0.0
 10
168.598270
 20
96.767570
 30
0.0
 10
168.636868
 20
96.260865
 30
0.0
 10
168.941903
 20
95.552005
 30
0.0
 10
169.405982
 20
94.941984
 30
0.0
 10
170.016003
 20
94.477904
 30
0.0
 10
170.724861
 20
94.172858
 30
0.0
 10
171.231566
 20
94.134257
 30
0.0
 10
171.485970
 20
94.114877
 30
0.0
 11
168.578891
 21
97.021974
 31
0.0
 11
168.678490
 21
96.267530
 31
0.0
 11
168.967307
 21
95.570287
 31
0.0
 11
169.430372
 21
94.966376
 31
0.0
 11
170.034284
 21
94.503306
 31
0.0
 11
170.731528
 21
94.214480
 31
0.0
 11
171.485970
 21
94.114877
 31
0.0
  0
LINE
  5
14a
100
AcDbEntity
  8
Layer_1
 62
5
100
AcDbLine
 10
166.723794
 20
99.670770
 30
0.0
 11
166.330782
 21
99.670770
 31
0.0
  0
SPLINE
  5
14b
100
AcDbEntity
  8
Layer_1
 62
5
100
AcDbSpline
 70
0
 71
3
 72
13
 73
9
 74
7
 40
0.000000
 40
0.000000
 40
0.000000
 40
0.000000
 40
0.485627
 40
0.967237
 40
1.452857
 40
1.938481
 40
2.420096
 40
2.905721
 40
2.905721
 40
2.905721
 40
2.905721
 10
168.578891
 20
97.815673
 30
0.0
 10
168.566527
 20
97.978022
 30
0.0
 10
168.541903
 20
98.301376
 30
0.0
 10
168.347291
 20
98.753746
 30
0.0
 10
168.051167
 20
99.143044
 30
0.0
 10
167.661867
 20
99.439166
 30
0.0
 10
167.209496
 20
99.633780
 30
0.0
 10
166.886141
 20
99.658406
 30
0.0
 10
166.723794
 20
99.670770
 30
0.0
 11
168.578891
 21
97.815673
 31
0.0
 11
168.515348
 21
98.297125
 31
0.0
 11
168.331073
 21
98.742087
 31
0.0
 11
168.035596
 21
99.127470
 31
0.0
 11
167.650208
 21
99.422948
 31
0.0
 11
167.205243
 21
99.607226
 31
0.0
 11
166.723794
 21
99.670770
 31
0.0
  0
LINE
  5
14c
100
AcDbEntity
  8
Layer_1
 62
5
100
AcDbLine
 10
166.345228
 20
99.667572
 30
0.0
 11
136.485714
 21
99.667572
 31
0.0
  0
SPLINE
  5
14d
100
AcDbEntity
  8
Layer_1
 62
5
100
AcDbSpline
 70
0
 71
3
 72
10
 73
6
 74
4
 40
0.000000
 40
0.000000
 40
0.000000
 40
0.000000
 40
0.026686
 40
0.053332
 40
0.079987
 40
0.079987
 40
0.079987
 40
0.079987
 10
166.250878
 20
99.667572
 30
0.0
 10
166.259773
 20
99.667642
 30
0.0
 10
166.277551
 20
99.667783
 30
0.0
 10
166.304198
 20
99.668847
 30
0.0
 10
166.321920
 20
99.670131
 30
0.0
 10
166.330782
 20
99.670773
 30
0.0
 11
166.250878
 21
99.667572
 31
0.0
 11
166.277562
 21
99.667925
 31
0.0
 11
166.304187
 21
99.668991
 31
0.0
 11
166.330782
 21
99.670773
 31
0.0
  0
SPLINE
  5
14e
100
AcDbEntity
  8
Layer_1
 62
5
100
AcDbSpline
 70
0
 71
3
 72
10
 73
6
 74
4
 40
0.000000
 40
0.000000
 40
0.000000
 40
0.000000
 40
1.560825
 40
3.077604
 40
4.638407
 40
4.638407
 40
4.638407
 40
4.638407
 10
136.485714
 20
99.667572
 30
0.0
 10
135.967052
 20
99.564123
 30
0.0
 10
134.944366
 20
99.360144
 30
0.0
 10
133.788710
 20
98.150535
 30
0.0
 10
133.631611
 20
97.119610
 30
0.0
 10
133.551938
 20
96.596774
 30
0.0
 11
136.485714
 21
99.667572
 31
0.0
 11
134.995550
 21
99.203260
 31
0.0
 11
133.947769
 21
98.106550
 31
0.0
 11
133.551938
 21
96.596774
 31
0.0
  0
LINE
  5
14f
100
AcDbEntity
  8
Layer_1
 62
5
100
AcDbLine
 10
376.038125
 20
216.492423
 30
0.0
 11
100.288484
 21
216.492423
 31
0.0
  0
SPLINE
  5
150
100
AcDbEntity
  8
Layer_1
 62
5
100
AcDbSpline
 70
0
 71
3
 72
13
 73
9
 74
7
 40
0.000000
 40
0.000000
 40
0.000000
 40
0.000000
 40
1.832415
 40
3.649671
 40
5.482088
 40
7.314502
 40
9.131757
 40
10.964172
 40
10.964172
 40
10.964172
 40
10.964172
 10
383.038115
 20
209.492432
 30
0.0
 10
382.991451
 20
210.105021
 30
0.0
 10
382.898507
 20
211.325131
 30
0.0
 10
382.164031
 20
213.032020
 30
0.0
 10
381.046533
 20
214.500842
 30
0.0
 10
379.577711
 20
215.618340
 30
0.0
 10
377.870824
 20
216.352815
 30
0.0
 10
376.650714
 20
216.445758
 30
0.0
 10
376.038125
 20
216.492423
 30
0.0
 11
383.038115
 21
209.492432
 31
0.0
 11
382.798290
 21
211.309085
 31
0.0
 11
382.102842
 21
212.988005
 31
0.0
 11
380.987817
 21
214.442127
 31
0.0
 11
379.533697
 21
215.557150
 31
0.0
 11
377.854778
 21
216.252597
 31
0.0
 11
376.038125
 21
216.492423
 31
0.0
  0
LINE
  5
151
100
AcDbEntity
  8
Layer_1
 62
5
100
AcDbLine
 10
93.288491
 20
209.492432
 30
0.0
 11
93.288491
 21
93.667578
 31
0.0
  0
SPLINE
  5
152
100
AcDbEntity
  8
Layer_1
 62
5
100
AcDbSpline
 70
0
 71
3
 72
13
 73
9
 74
7
 40
0.000000
 40
0.000000
 40
0.000000
 40
0.000000
 40
1.832420
 40
3.649683
 40
5.482103
 40
7.314512
 40
9.131766
 40
10.964181
 40
10.964181
 40
10.964181
 40
10.964181
 10
100.288484
 20
216.492423
 30
0.0
 10
99.675893
 20
216.445758
 30
0.0
 10
98.455779
 20
216.352815
 30
0.0
 10
96.748885
 20
215.618339
 30
0.0
 10
95.280054
 20
214.500848
 30
0.0
 10
94.162570
 20
213.032016
 30
0.0
 10
93.428098
 20
211.325131
 30
0.0
 10
93.335155
 20
210.105021
 30
0.0
 10
93.288491
 20
209.492432
 30
0.0
 11
100.288484
 21
216.492423
 31
0.0
 11
98.471826
 21
216.252597
 31
0.0
 11
96.792898
 21
215.557150
 31
0.0
 11
95.338771
 21
214.442127
 31
0.0
 11
94.223759
 21
212.988005
 31
0.0
 11
93.528316
 21
211.309085
 31
0.0
 11
93.288491
 21
209.492432
 31
0.0
  0
LINE
  5
153
100
AcDbEntity
  8
Layer_1
 62
5
100
AcDbLine
 10
100.288484
 20
86.667588
 30
0.0
 11
376.038125
 21
86.667588
 31
0.0
  0
SPLINE
  5
154
100
AcDbEntity
  8
Layer_1
 62
5
100
AcDbSpline
 70
0
 71
3
 72
13
 73
9
 74
7
 40
0.000000
 40
0.000000
 40
0.000000
 40
0.000000
 40
1.832415
 40
3.649669
 40
5.482078
 40
7.314498
 40
9.131761
 40
10.964181
 40
10.964181
 40
10.964181
 40
10.964181
 10
93.288491
 20
93.667578
 30
0.0
 10
93.335155
 20
93.054989
 30
0.0
 10
93.428098
 20
91.834879
 30
0.0
 10
94.162570
 20
90.127994
 30
0.0
 10
95.280054
 20
88.659162
 30
0.0
 10
96.748885
 20
87.541671
 30
0.0
 10
98.455779
 20
86.807195
 30
0.0
 10
99.675893
 20
86.714252
 30
0.0
 10
100.288484
 20
86.667588
 30
0.0
 11
93.288491
 21
93.667578
 31
0.0
 11
93.528316
 21
91.850925
 31
0.0
 11
94.223759
 21
90.172005
 31
0.0
 11
95.338771
 21
88.717884
 31
0.0
 11
96.792898
 21
87.602860
 31
0.0
 11
98.471826
 21
86.907413
 31
0.0
 11
100.288484
 21
86.667588
 31
0.0
  0
LINE
  5
155
100
AcDbEntity
  8
Layer_1
 62
5
100
AcDbLine
 10
383.038115
 20
93.667578
 30
0.0
 11
383.038115
 21
209.492432
 31
0.0
  0
SPLINE
  5
156
100
AcDbEntity
  8
Layer_1
 62
5
100
AcDbSpline
 70
0
 71
3
 72
13
 73
9
 74
7
 40
0.000000
 40
0.000000
 40
0.000000
 40
0.000000
 40
1.832415
 40
3.649670
 40
5.482084
 40
7.314501
 40
9.131757
 40
10.964172
 40
10.964172
 40
10.964172
 40
10.964172
 10
376.038125
 20
86.667588
 30
0.0
 10
376.650714
 20
86.714252
 30
0.0
 10
377.870824
 20
86.807195
 30
0.0
 10
379.577711
 20
87.541670
 30
0.0
 10
381.046533
 20
88.659168
 30
0.0
 10
382.164031
 20
90.127990
 30
0.0
 10
382.898507
 20
91.834879
 30
0.0
 10
382.991451
 20
93.054989
 30
0.0
 10
383.038115
 20
93.667578
 30
0.0
 11
376.038125
 21
86.667588
 31
0.0
 11
377.854778
 21
86.907413
 31
0.0
 11
379.533697
 21
87.602860
 31
0.0
 11
380.987817
 21
88.717884
 31
0.0
 11
382.102842
 21
90.172005
 31
0.0
 11
382.798290
 21
91.850925
 31
0.0
 11
383.038115
 21
93.667578
 31
0.0
  0
ENDSEC
  0
SECTION
  2
OBJECTS
  0
DICTIONARY
  5
C
330
0
100
AcDbDictionary
  3
ACAD_GROUP
350
D
  3
ACAD_MLINESTYLE
350
17
  0
DICTIONARY
  5
D
330
C
100
AcDbDictionary
  0
DICTIONARY
  5
1A
330
C
100
AcDbDictionary
  0
DICTIONARY
  5
17
330
C
100
AcDbDictionary
  3
STANDARD
350
18
  0
DICTIONARY
  5
19
330
C
100
AcDbDictionary
  0
ENDSEC
  0
EOF
