  0
SECTION
  2
HEADER
  9
$ACADVER
  1
AC1014
  9
$HANDSEED
  5
FFFF
  9
$INSUNITS
 70
     4
  9
$MEASUREMENT
 70
     1
  0
ENDSEC
  0
SECTION
  2
TABLES
  0
TABLE
  2
VPORT
  5
8
330
0
100
AcDbSymbolTable
 70
     4
  0
VPORT
  5
2E
330
8
100
AcDbSymbolTableRecord
100
AcDbViewportTableRecord
  2
*ACTIVE
 70
     0
 10
0.0
 20
0.0
 11
1.0
 21
1.0
 12
210.0
 22
148.5
 13
0.0
 23
0.0
 14
10.0
 24
10.0
 15
10.0
 25
10.0
 16
0.0
 26
0.0
 36
1.0
 17
0.0
 27
0.0
 37
0.0
 40
341.0
 41
1.24
 42
50.0
 43
0.0
 44
0.0
 50
0.0
 51
0.0
 71
     0
 72
   100
 73
     1
 74
     3
 75
     0
 76
     0
 77
     0
 78
     0
  0
ENDTAB
  0
TABLE
  2
LTYPE
  5
5
330
0
100
AcDbSymbolTable
 70
     1
  0
LTYPE
  5
14
330
5
100
AcDbSymbolTableRecord
100
AcDbLinetypeTableRecord
  2
BYBLOCK
 70
     0
  3

 72
    65
 73
     0
 40
0.0
  0
LTYPE
  5
15
330
5
100
AcDbSymbolTableRecord
100
AcDbLinetypeTableRecord
  2
BYLAYER
 70
     0
  3

 72
    65
 73
     0
 40
0.0
  0
LTYPE
  5
16
330
5
100
AcDbSymbolTableRecord
100
AcDbLinetypeTableRecord
  2
CONTINUOUS
 70
     0
  3
Solid line
 72
    65
 73
     0
 40
0.0
  0
ENDTAB
  0
TABLE
  2
LAYER
  5
2
100
AcDbSymbolTable
 70
2
  0
LAYER
  5
50
100
AcDbSymbolTableRecord
100
AcDbLayerTableRecord
  2
0
 70
0
  6
CONTINUOUS
  0
LAYER
  5
51
100
AcDbSymbolTableRecord
100
AcDbLayerTableRecord
  2
Layer_1
 70
0
  6
CONTINUOUS
  0
ENDTAB
  0
TABLE
  2
STYLE
  5
3
330
0
100
AcDbSymbolTable
 70
     1
  0
STYLE
  5
11
330
3
100
AcDbSymbolTableRecord
100
AcDbTextStyleTableRecord
  2
STANDARD
 70
     0
 40
0.0
 41
1.0
 50
0.0
 71
     0
 42
2.5
  3
txt
  4

  0
ENDTAB
  0
TABLE
  2
VIEW
  5
6
330
0
100
AcDbSymbolTable
 70
     0
  0
ENDTAB
  0
TABLE
  2
UCS
  5
7
330
0
100
AcDbSymbolTable
 70
     0
  0
ENDTAB
  0
TABLE
  2
APPID
  5
9
330
0
100
AcDbSymbolTable
 70
     2
  0
APPID
  5
12
330
9
100
AcDbSymbolTableRecord
100
AcDbRegAppTableRecord
  2
ACAD
 70
     0
  0
ENDTAB
  0
TABLE
  2
DIMSTYLE
  5
A
330
0
100
AcDbSymbolTable
 70
     1
  0
DIMSTYLE
105
27
330
A
100
AcDbSymbolTableRecord
100
AcDbDimStyleTableRecord
  2
ISO-25
 70
     0
  3

  4

  5

  6

  7

 40
1.0
 41
2.5
 42
0.625
 43
3.75
 44
1.25
 45
0.0
 46
0.0
 47
0.0
 48
0.0
140
2.5
141
2.5
142
0.0
143
0.03937007874016
144
1.0
145
0.0
146
1.0
147
0.625
 71
     0
 72
     0
 73
     0
 74
     0
 75
     0
 76
     0
 77
     1
 78
     8
170
     0
171
     3
172
     1
173
     0
174
     0
175
     0
176
     0
177
     0
178
     0
270
     2
271
     2
272
     2
273
     2
274
     3
340
11
275
     0
280
     0
281
     0
282
     0
283
     0
284
     8
285
     0
286
     0
287
     3
288
     0
  0
ENDTAB
  0
TABLE
  2
BLOCK_RECORD
  5
1
330
0
100
AcDbSymbolTable
 70
     1
  0
BLOCK_RECORD
  5
1F
330
1
100
AcDbSymbolTableRecord
100
AcDbBlockTableRecord
  2
*MODEL_SPACE
  0
BLOCK_RECORD
  5
1B
330
1
100
AcDbSymbolTableRecord
100
AcDbBlockTableRecord
  2
*PAPER_SPACE
  0
ENDTAB
  0
ENDSEC
  0
SECTION
  2
BLOCKS
  0
BLOCK
  5
20
330
1F
100
AcDbEntity
  8
0
100
AcDbBlockBegin
  2
*MODEL_SPACE
 70
     0
 10
0.0
 20
0.0
 30
0.0
  3
*MODEL_SPACE
  1

  0
ENDBLK
  5
21
330
1F
100
AcDbEntity
  8
0
100
AcDbBlockEnd
  0
BLOCK
  5
1C
330
1B
100
AcDbEntity
 67
     1
  8
0
100
AcDbBlockBegin
  2
*PAPER_SPACE
  1

  0
ENDBLK
  5
1D
330
1B
100
AcDbEntity
 67
     1
  8
0
100
AcDbBlockEnd
  0
ENDSEC
  0
SECTION
  2
ENTITIES
  0
LINE
  5
100
100
AcDbEntity
  8
Layer_1
 62
6
100
AcDbLine
 10
372.002830
 20
100.605460
 30
0.0
 11
372.002830
 21
126.748820
 31
0.0
  0
SPLINE
  5
101
100
AcDbEntity
  8
Layer_1
 62
6
100
AcDbSpline
 70
0
 71
3
 72
10
 73
6
 74
4
 40
0.000000
 40
0.000000
 40
0.000000
 40
0.000000
 40
0.484168
 40
0.953975
 40
1.438142
 40
1.438142
 40
1.438142
 40
1.438142
 10
372.025980
 20
100.605570
 30
0.0
 10
372.000510
 20
100.443311
 30
0.0
 10
371.950326
 20
100.123605
 30
0.0
 10
371.581945
 20
99.755224
 30
0.0
 10
371.262239
 20
99.705040
 30
0.0
 10
371.099980
 20
99.679570
 30
0.0
 11
372.025980
 21
100.605570
 31
0.0
 11
371.899554
 21
100.138200
 31
0.0
 11
371.567350
 21
99.805996
 31
0.0
 11
371.099980
 21
99.679570
 31
0.0
  0
LINE
  5
102
100
AcDbEntity
  8
Layer_1
 62
6
100
AcDbLine
 10
372.016850
 20
126.978740
 30
0.0
 11
372.016850
 21
204.500449
 31
0.0
  0
SPLINE
  5
103
100
AcDbEntity
  8
Layer_1
 62
6
100
AcDbSpline
 70
0
 71
3
 72
10
 73
6
 74
4
 40
0.000000
 40
0.000000
 40
0.000000
 40
0.000000
 40
0.077006
 40
0.153867
 40
0.230533
 40
0.230533
 40
0.230533
 40
0.230533
 10
372.016910
 20
146.688360
 30
0.0
 10
372.016598
 20
146.662691
 30
0.0
 10
372.015974
 20
146.611401
 30
0.0
 10
372.011308
 20
146.534657
 30
0.0
 10
372.005707
 20
146.483784
 30
0.0
 10
372.002910
 20
146.458380
 30
0.0
 11
372.016910
 21
146.688360
 31
0.0
 11
372.015350
 21
146.611370
 31
0.0
 11
372.010679
 21
146.534650
 31
0.0
 11
372.002910
 21
146.458380
 31
0.0
  0
SPLINE
  5
104
100
AcDbEntity
  8
Layer_1
 62
6
100
AcDbSpline
 70
0
 71
3
 72
10
 73
6
 74
4
 40
0.000000
 40
0.000000
 40
0.000000
 40
0.000000
 40
0.079227
 40
0.158391
 40
0.237618
 40
0.237618
 40
0.237618
 40
0.237618
 10
372.011870
 20
204.736799
 30
0.0
 10
372.017477
 20
204.710983
 30
0.0
 10
372.028686
 20
204.659371
 30
0.0
 10
372.038092
 20
204.580559
 30
0.0
 10
372.039344
 20
204.527759
 30
0.0
 10
372.039970
 20
204.501349
 30
0.0
 11
372.011870
 21
204.736799
 31
0.0
 11
372.027455
 21
204.659120
 31
0.0
 11
372.036836
 21
204.580514
 31
0.0
 11
372.039970
 21
204.501349
 31
0.0
  0
LINE
  5
105
100
AcDbEntity
  8
Layer_1
 62
6
100
AcDbLine
 10
371.099850
 20
205.500439
 30
0.0
 11
153.414450
 21
205.500439
 31
0.0
  0
SPLINE
  5
106
100
AcDbEntity
  8
Layer_1
 62
6
100
AcDbSpline
 70
0
 71
3
 72
10
 73
6
 74
4
 40
0.000000
 40
0.000000
 40
0.000000
 40
0.000000
 40
0.430512
 40
0.850614
 40
1.281126
 40
1.281126
 40
1.281126
 40
1.281126
 10
371.099980
 20
205.501759
 30
0.0
 10
371.244029
 20
205.481673
 30
0.0
 10
371.528644
 20
205.441986
 30
0.0
 10
371.878459
 20
205.148535
 30
0.0
 10
371.967038
 20
204.875160
 30
0.0
 10
372.011870
 20
204.736799
 30
0.0
 11
371.099980
 21
205.501759
 31
0.0
 11
371.518717
 21
205.401757
 31
0.0
 11
371.840569
 21
205.131763
 31
0.0
 11
372.011870
 21
204.736799
 31
0.0
  0
LINE
  5
107
100
AcDbEntity
  8
Layer_1
 62
6
100
AcDbLine
 10
151.340380
 20
207.574769
 30
0.0
 11
151.340380
 21
214.501559
 31
0.0
  0
SPLINE
  5
108
100
AcDbEntity
  8
Layer_1
 62
6
100
AcDbSpline
 70
0
 71
3
 72
10
 73
6
 74
4
 40
0.000000
 40
0.000000
 40
0.000000
 40
0.000000
 40
1.084407
 40
2.136650
 40
3.221057
 40
3.221057
 40
3.221057
 40
3.221057
 10
153.414390
 20
205.501759
 30
0.0
 10
153.050973
 20
205.558804
 30
0.0
 10
152.334917
 20
205.671203
 30
0.0
 10
151.509839
 20
206.496277
 30
0.0
 10
151.397437
 20
207.212332
 30
0.0
 10
151.340390
 20
207.575749
 30
0.0
 11
153.414390
 21
205.501759
 31
0.0
 11
152.367605
 21
205.784919
 31
0.0
 11
151.623555
 21
206.528966
 31
0.0
 11
151.340390
 21
207.575749
 31
0.0
  0
LINE
  5
109
100
AcDbEntity
  8
Layer_1
 62
6
100
AcDbLine
 10
153.340360
 20
216.501809
 30
0.0
 11
376.039890
 21
216.501809
 31
0.0
  0
SPLINE
  5
10a
100
AcDbEntity
  8
Layer_1
 62
6
100
AcDbSpline
 70
0
 71
3
 72
13
 73
9
 74
7
 40
0.000000
 40
0.000000
 40
0.000000
 40
0.000000
 40
0.523551
 40
1.042770
 40
1.566322
 40
2.089873
 40
2.609092
 40
3.132643
 40
3.132643
 40
3.132643
 40
3.132643
 10
151.340390
 20
214.501349
 30
0.0
 10
151.353722
 20
214.676376
 30
0.0
 10
151.380275
 20
215.024982
 30
0.0
 10
151.590124
 20
215.512667
 30
0.0
 10
151.909390
 20
215.932351
 30
0.0
 10
152.329074
 20
216.251620
 30
0.0
 10
152.816757
 20
216.461472
 30
0.0
 10
153.165363
 20
216.488026
 30
0.0
 10
153.340390
 20
216.501359
 30
0.0
 11
151.340390
 21
214.501349
 31
0.0
 11
151.408909
 21
215.020397
 31
0.0
 11
151.607604
 21
215.500094
 31
0.0
 11
151.926173
 21
215.915569
 31
0.0
 11
152.341647
 21
216.234140
 31
0.0
 11
152.821342
 21
216.432838
 31
0.0
 11
153.340390
 21
216.501359
 31
0.0
  0
LINE
  5
10b
100
AcDbEntity
  8
Layer_1
 62
6
100
AcDbLine
 10
383.020630
 20
209.501179
 30
0.0
 11
383.020630
 21
93.676190
 31
0.0
  0
SPLINE
  5
10c
100
AcDbEntity
  8
Layer_1
 62
6
100
AcDbSpline
 70
0
 71
3
 72
13
 73
9
 74
7
 40
0.000000
 40
0.000000
 40
0.000000
 40
0.000000
 40
1.832424
 40
3.649684
 40
5.482109
 40
7.314533
 40
9.131793
 40
10.964217
 40
10.964217
 40
10.964217
 40
10.964217
 10
376.039980
 20
216.501359
 30
0.0
 10
376.652573
 20
216.454695
 30
0.0
 10
377.872689
 20
216.361754
 30
0.0
 10
379.579577
 20
215.627278
 30
0.0
 10
381.048465
 20
214.509844
 30
0.0
 10
382.165899
 20
213.040956
 30
0.0
 10
382.900375
 20
211.334068
 30
0.0
 10
382.993316
 20
210.113952
 30
0.0
 10
383.039980
 20
209.501359
 30
0.0
 11
376.039980
 21
216.501359
 31
0.0
 11
377.856643
 21
216.261535
 31
0.0
 11
379.535572
 21
215.566100
 31
0.0
 11
380.989727
 21
214.451107
 31
0.0
 11
382.104721
 21
212.996951
 31
0.0
 11
382.800156
 21
211.318022
 31
0.0
 11
383.039980
 21
209.501359
 31
0.0
  0
LINE
  5
10d
100
AcDbEntity
  8
Layer_1
 62
6
100
AcDbLine
 10
376.039890
 20
86.676340
 30
0.0
 11
100.290080
 21
86.676340
 31
0.0
  0
SPLINE
  5
10e
100
AcDbEntity
  8
Layer_1
 62
6
100
AcDbSpline
 70
0
 71
3
 72
13
 73
9
 74
7
 40
0.000000
 40
0.000000
 40
0.000000
 40
0.000000
 40
1.832424
 40
3.649684
 40
5.482109
 40
7.314533
 40
9.131793
 40
10.964217
 40
10.964217
 40
10.964217
 40
10.964217
 10
383.039980
 20
93.676370
 30
0.0
 10
382.993316
 20
93.063777
 30
0.0
 10
382.900375
 20
91.843661
 30
0.0
 10
382.165899
 20
90.136773
 30
0.0
 10
381.048465
 20
88.667885
 30
0.0
 10
379.579577
 20
87.550451
 30
0.0
 10
377.872689
 20
86.815975
 30
0.0
 10
376.652573
 20
86.723034
 30
0.0
 10
376.039980
 20
86.676370
 30
0.0
 11
383.039980
 21
93.676370
 31
0.0
 11
382.800156
 21
91.859707
 31
0.0
 11
382.104721
 21
90.180778
 31
0.0
 11
380.989727
 21
88.726622
 31
0.0
 11
379.535572
 21
87.611629
 31
0.0
 11
377.856643
 21
86.916194
 31
0.0
 11
376.039980
 21
86.676370
 31
0.0
  0
LINE
  5
10f
100
AcDbEntity
  8
Layer_1
 62
6
100
AcDbLine
 10
93.309339
 20
93.676190
 30
0.0
 11
93.309339
 21
209.501179
 31
0.0
  0
SPLINE
  5
110
100
AcDbEntity
  8
Layer_1
 62
6
100
AcDbSpline
 70
0
 71
3
 72
13
 73
9
 74
7
 40
0.000000
 40
0.000000
 40
0.000000
 40
0.000000
 40
1.832424
 40
3.649685
 40
5.482109
 40
7.314533
 40
9.131794
 40
10.964218
 40
10.964218
 40
10.964218
 40
10.964218
 10
100.289990
 20
86.676370
 30
0.0
 10
99.677397
 20
86.723034
 30
0.0
 10
98.457281
 20
86.815975
 30
0.0
 10
96.750393
 20
87.550451
 30
0.0
 10
95.281504
 20
88.667884
 30
0.0
 10
94.164071
 20
90.136773
 30
0.0
 10
93.429594
 20
91.843661
 30
0.0
 10
93.336653
 20
93.063777
 30
0.0
 10
93.289989
 20
93.676370
 30
0.0
 11
100.289990
 21
86.676370
 31
0.0
 11
98.473327
 21
86.916193
 31
0.0
 11
96.794398
 21
87.611629
 31
0.0
 11
95.340242
 21
88.726622
 31
0.0
 11
94.225248
 21
90.180778
 31
0.0
 11
93.529813
 21
91.859707
 31
0.0
 11
93.289989
 21
93.676370
 31
0.0
  0
LINE
  5
111
100
AcDbEntity
  8
Layer_1
 62
6
100
AcDbLine
 10
100.290080
 20
216.501809
 30
0.0
 11
132.488280
 21
216.501809
 31
0.0
  0
SPLINE
  5
112
100
AcDbEntity
  8
Layer_1
 62
6
100
AcDbSpline
 70
0
 71
3
 72
13
 73
9
 74
7
 40
0.000000
 40
0.000000
 40
0.000000
 40
0.000000
 40
1.832424
 40
3.649685
 40
5.482109
 40
7.314533
 40
9.131794
 40
10.964218
 40
10.964218
 40
10.964218
 40
10.964218
 10
93.289989
 20
209.501359
 30
0.0
 10
93.336653
 20
210.113952
 30
0.0
 10
93.429594
 20
211.334068
 30
0.0
 10
94.164071
 20
213.040956
 30
0.0
 10
95.281504
 20
214.509845
 30
0.0
 10
96.750393
 20
215.627278
 30
0.0
 10
98.457281
 20
216.361754
 30
0.0
 10
99.677397
 20
216.454695
 30
0.0
 10
100.289990
 20
216.501359
 30
0.0
 11
93.289989
 21
209.501359
 31
0.0
 11
93.529813
 21
211.318022
 31
0.0
 11
94.225248
 21
212.996951
 31
0.0
 11
95.340242
 21
214.451107
 31
0.0
 11
96.794398
 21
215.566100
 31
0.0
 11
98.473327
 21
216.261536
 31
0.0
 11
100.289990
 21
216.501359
 31
0.0
  0
LINE
  5
113
100
AcDbEntity
  8
Layer_1
 62
6
100
AcDbLine
 10
134.488270
 20
214.501559
 30
0.0
 11
134.488270
 21
207.574769
 31
0.0
  0
SPLINE
  5
114
100
AcDbEntity
  8
Layer_1
 62
6
100
AcDbSpline
 70
0
 71
3
 72
13
 73
9
 74
7
 40
0.000000
 40
0.000000
 40
0.000000
 40
0.000000
 40
0.523550
 40
1.042767
 40
1.566317
 40
2.089867
 40
2.609084
 40
3.132633
 40
3.132633
 40
3.132633
 40
3.132633
 10
132.488390
 20
216.501359
 30
0.0
 10
132.663416
 20
216.488026
 30
0.0
 10
133.012021
 20
216.461469
 30
0.0
 10
133.499702
 20
216.251616
 30
0.0
 10
133.919383
 20
215.932348
 30
0.0
 10
134.238648
 20
215.512664
 30
0.0
 10
134.448496
 20
215.024980
 30
0.0
 10
134.475048
 20
214.676376
 30
0.0
 10
134.488380
 20
214.501349
 30
0.0
 11
132.488390
 21
216.501359
 31
0.0
 11
133.007436
 21
216.432835
 31
0.0
 11
133.487129
 21
216.234137
 31
0.0
 11
133.902601
 21
215.915566
 31
0.0
 11
134.221168
 21
215.500091
 31
0.0
 11
134.419862
 21
215.020396
 31
0.0
 11
134.488380
 21
214.501349
 31
0.0
  0
LINE
  5
115
100
AcDbEntity
  8
Layer_1
 62
6
100
AcDbLine
 10
132.414470
 20
205.500439
 30
0.0
 11
105.235140
 21
205.500439
 31
0.0
  0
SPLINE
  5
116
100
AcDbEntity
  8
Layer_1
 62
6
100
AcDbSpline
 70
0
 71
3
 72
10
 73
6
 74
4
 40
0.000000
 40
0.000000
 40
0.000000
 40
0.000000
 40
1.084407
 40
2.136650
 40
3.221057
 40
3.221057
 40
3.221057
 40
3.221057
 10
134.488380
 20
207.575749
 30
0.0
 10
134.431333
 20
207.212332
 30
0.0
 10
134.318931
 20
206.496277
 30
0.0
 10
133.493853
 20
205.671203
 30
0.0
 10
132.777797
 20
205.558804
 30
0.0
 10
132.414380
 20
205.501759
 30
0.0
 11
134.488380
 21
207.575749
 31
0.0
 11
134.205215
 21
206.528966
 31
0.0
 11
133.461165
 21
205.784919
 31
0.0
 11
132.414380
 21
205.501759
 31
0.0
  0
SPLINE
  5
117
100
AcDbEntity
  8
Layer_1
 62
6
100
AcDbSpline
 70
0
 71
3
 72
10
 73
6
 74
4
 40
0.000000
 40
0.000000
 40
0.000000
 40
0.000000
 40
0.403168
 40
0.797664
 40
1.200832
 40
1.200832
 40
1.200832
 40
1.200832
 10
104.341160
 20
204.817149
 30
0.0
 10
104.393293
 20
204.942711
 30
0.0
 10
104.496437
 20
205.191133
 30
0.0
 10
104.833609
 20
205.449340
 30
0.0
 10
105.100330
 20
205.484160
 30
0.0
 10
105.235140
 20
205.501759
 30
0.0
 11
104.341160
 21
204.817149
 31
0.0
 11
104.528425
 21
205.174187
 31
0.0
 11
104.841631
 21
205.414040
 31
0.0
 11
105.235140
 21
205.501759
 31
0.0
  0
LINE
  5
118
100
AcDbEntity
  8
Layer_1
 62
6
100
AcDbLine
 10
104.313120
 20
204.500449
 30
0.0
 11
104.313120
 21
126.978740
 31
0.0
  0
SPLINE
  5
119
100
AcDbEntity
  8
Layer_1
 62
6
100
AcDbSpline
 70
0
 71
3
 72
10
 73
6
 74
4
 40
0.000000
 40
0.000000
 40
0.000000
 40
0.000000
 40
0.107101
 40
0.214049
 40
0.321150
 40
0.321150
 40
0.321150
 40
0.321150
 10
104.289990
 20
204.501349
 30
0.0
 10
104.291140
 20
204.537053
 30
0.0
 10
104.293438
 20
204.608410
 30
0.0
 10
104.310635
 20
204.714483
 30
0.0
 10
104.331000
 20
204.782911
 30
0.0
 10
104.341190
 20
204.817149
 30
0.0
 11
104.289990
 21
204.501349
 31
0.0
 11
104.295734
 21
204.608296
 31
0.0
 11
104.312849
 21
204.713866
 31
0.0
 11
104.341190
 21
204.817149
 31
0.0
  0
LINE
  5
11a
100
AcDbEntity
  8
Layer_1
 62
6
100
AcDbLine
 10
104.313910
 20
126.924000
 30
0.0
 11
104.313910
 21
100.605460
 31
0.0
  0
SPLINE
  5
11b
100
AcDbEntity
  8
Layer_1
 62
6
100
AcDbSpline
 70
0
 71
3
 72
10
 73
6
 74
4
 40
0.000000
 40
0.000000
 40
0.000000
 40
0.000000
 40
0.018400
 40
0.036803
 40
0.055207
 40
0.055207
 40
0.055207
 40
0.055207
 10
104.313850
 20
146.633190
 30
0.0
 10
104.313691
 20
146.639321
 30
0.0
 10
104.313373
 20
146.651585
 30
0.0
 10
104.313110
 20
146.669986
 30
0.0
 10
104.313077
 20
146.682255
 30
0.0
 10
104.313060
 20
146.688390
 30
0.0
 11
104.313850
 21
146.633190
 31
0.0
 11
104.313409
 21
146.651585
 31
0.0
 11
104.313145
 21
146.669986
 31
0.0
 11
104.313060
 21
146.688390
 31
0.0
  0
LINE
  5
11c
100
AcDbEntity
  8
Layer_1
 62
6
100
AcDbLine
 10
105.216890
 20
99.679550
 30
0.0
 11
166.725370
 21
99.679550
 31
0.0
  0
SPLINE
  5
11d
100
AcDbEntity
  8
Layer_1
 62
6
100
AcDbSpline
 70
0
 71
3
 72
10
 73
6
 74
4
 40
0.000000
 40
0.000000
 40
0.000000
 40
0.000000
 40
0.484168
 40
0.953975
 40
1.438142
 40
1.438142
 40
1.438142
 40
1.438142
 10
105.216780
 20
99.679570
 30
0.0
 10
105.054521
 20
99.705040
 30
0.0
 10
104.734815
 20
99.755224
 30
0.0
 10
104.366434
 20
100.123605
 30
0.0
 10
104.316250
 20
100.443311
 30
0.0
 10
104.290780
 20
100.605570
 30
0.0
 11
105.216780
 21
99.679570
 31
0.0
 11
104.749410
 21
99.805996
 31
0.0
 11
104.417206
 21
100.138200
 31
0.0
 11
104.290780
 21
100.605570
 31
0.0
  0
LINE
  5
11e
100
AcDbEntity
  8
Layer_1
 62
6
100
AcDbLine
 10
168.580360
 20
97.824560
 30
0.0
 11
168.580360
 21
97.030810
 31
0.0
  0
SPLINE
  5
11f
100
AcDbEntity
  8
Layer_1
 62
6
100
AcDbSpline
 70
0
 71
3
 72
13
 73
9
 74
7
 40
0.000000
 40
0.000000
 40
0.000000
 40
0.000000
 40
0.485619
 40
0.967220
 40
1.452839
 40
1.938458
 40
2.420059
 40
2.905678
 40
2.905678
 40
2.905678
 40
2.905678
 10
166.725390
 20
99.679570
 30
0.0
 10
166.887736
 20
99.667204
 30
0.0
 10
167.211085
 20
99.642575
 30
0.0
 10
167.663436
 20
99.447929
 30
0.0
 10
168.052713
 20
99.151793
 30
0.0
 10
168.348849
 20
98.762516
 30
0.0
 10
168.543495
 20
98.310165
 30
0.0
 10
168.568124
 20
97.986816
 30
0.0
 10
168.580490
 20
97.824470
 30
0.0
 11
166.725390
 21
99.679570
 31
0.0
 11
167.206833
 21
99.616015
 31
0.0
 11
167.651774
 21
99.431716
 31
0.0
 11
168.037147
 21
99.136227
 31
0.0
 11
168.332636
 21
98.750854
 31
0.0
 11
168.516935
 21
98.305913
 31
0.0
 11
168.580490
 21
97.824470
 31
0.0
  0
LINE
  5
120
100
AcDbEntity
  8
Layer_1
 62
6
100
AcDbLine
 10
171.487610
 20
94.123570
 30
0.0
 11
304.829130
 21
94.123570
 31
0.0
  0
SPLINE
  5
121
100
AcDbEntity
  8
Layer_1
 62
6
100
AcDbSpline
 70
0
 71
3
 72
13
 73
9
 74
7
 40
0.000000
 40
0.000000
 40
0.000000
 40
0.000000
 40
0.761006
 40
1.515715
 40
2.276722
 40
3.037728
 40
3.792437
 40
4.553444
 40
4.553444
 40
4.553444
 40
4.553444
 10
171.487590
 20
94.123670
 30
0.0
 10
171.233180
 20
94.143049
 30
0.0
 10
170.726465
 20
94.181646
 30
0.0
 10
170.017593
 20
94.486673
 30
0.0
 10
169.407563
 20
94.950743
 30
0.0
 10
168.943493
 20
95.560773
 30
0.0
 10
168.638466
 20
96.269645
 30
0.0
 10
168.599869
 20
96.776360
 30
0.0
 10
168.580490
 20
97.030770
 30
0.0
 11
171.487590
 21
94.123670
 31
0.0
 11
170.733129
 21
94.223267
 31
0.0
 11
170.035869
 21
94.512080
 31
0.0
 11
169.431957
 21
94.975137
 31
0.0
 11
168.968900
 21
95.579049
 31
0.0
 11
168.680087
 21
96.276309
 31
0.0
 11
168.580490
 21
97.030770
 31
0.0
  0
LINE
  5
122
100
AcDbEntity
  8
Layer_1
 62
6
100
AcDbLine
 10
307.736380
 20
97.030810
 30
0.0
 11
307.736380
 21
97.728250
 31
0.0
  0
SPLINE
  5
123
100
AcDbEntity
  8
Layer_1
 62
6
100
AcDbSpline
 70
0
 71
3
 72
10
 73
6
 74
4
 40
0.000000
 40
0.000000
 40
0.000000
 40
0.000000
 40
1.520002
 40
2.994922
 40
4.514925
 40
4.514925
 40
4.514925
 40
4.514925
 10
307.736280
 20
97.030770
 30
0.0
 10
307.656318
 20
96.521372
 30
0.0
 10
307.498767
 20
95.517684
 30
0.0
 10
306.342266
 20
94.361183
 30
0.0
 10
305.338578
 20
94.203632
 30
0.0
 10
304.829180
 20
94.123670
 30
0.0
 11
307.736280
 21
97.030770
 31
0.0
 11
307.339373
 21
95.563503
 31
0.0
 11
306.296447
 21
94.520577
 31
0.0
 11
304.829180
 21
94.123670
 31
0.0
  0
LINE
  5
124
100
AcDbEntity
  8
Layer_1
 62
6
100
AcDbLine
 10
309.591900
 20
99.583240
 30
0.0
 11
362.537140
 21
99.676340
 31
0.0
  0
LINE
  5
125
100
AcDbEntity
  8
Layer_1
 62
6
100
AcDbLine
 10
362.537140
 20
99.676380
 30
0.0
 11
366.277550
 21
99.676380
 31
0.0
  0
SPLINE
  5
126
100
AcDbEntity
  8
Layer_1
 62
6
100
AcDbSpline
 70
0
 71
3
 72
13
 73
9
 74
7
 40
0.000000
 40
0.000000
 40
0.000000
 40
0.000000
 40
0.485698
 40
0.967375
 40
1.453072
 40
1.938770
 40
2.420447
 40
2.906144
 40
2.906144
 40
2.906144
 40
2.906144
 10
307.736280
 20
97.728180
 30
0.0
 10
307.748650
 20
97.890552
 30
0.0
 10
307.773287
 20
98.213953
 30
0.0
 10
307.967995
 20
98.666367
 30
0.0
 10
308.264220
 20
99.055676
 30
0.0
 10
308.653605
 20
99.351803
 30
0.0
 10
309.106067
 20
99.546396
 30
0.0
 10
309.429474
 20
99.570951
 30
0.0
 10
309.591850
 20
99.583280
 30
0.0
 11
307.736280
 21
97.728180
 31
0.0
 11
307.799855
 21
98.209699
 31
0.0
 11
307.984212
 21
98.654699
 31
0.0
 11
308.279789
 21
99.040103
 31
0.0
 11
308.665268
 21
99.335583
 31
0.0
 11
309.110315
 21
99.519827
 31
0.0
 11
309.591850
 21
99.583280
 31
0.0
  0
LINE
  5
127
100
AcDbEntity
  8
Layer_1
 62
6
100
AcDbLine
 10
366.357460
 20
99.679550
 30
0.0
 11
371.099850
 21
99.679550
 31
0.0
  0
SPLINE
  5
128
100
AcDbEntity
  8
Layer_1
 62
6
100
AcDbSpline
 70
0
 71
3
 72
10
 73
6
 74
4
 40
0.000000
 40
0.000000
 40
0.000000
 40
0.000000
 40
0.026659
 40
0.053316
 40
0.079975
 40
0.079975
 40
0.079975
 40
0.079975
 10
366.357420
 20
99.679570
 30
0.0
 10
366.348555
 20
99.678953
 30
0.0
 10
366.330825
 20
99.677718
 30
0.0
 10
366.304179
 20
99.676718
 30
0.0
 10
366.286407
 20
99.676619
 30
0.0
 10
366.277520
 20
99.676570
 30
0.0
 11
366.357420
 21
99.679570
 31
0.0
 11
366.330816
 21
99.677860
 31
0.0
 11
366.304178
 21
99.676860
 31
0.0
 11
366.277520
 21
99.676570
 31
0.0
  0
LINE
  5
129
100
AcDbEntity
  8
Layer_1
 62
6
100
AcDbLine
 10
310.441110
 20
93.676370
 30
0.0
 11
310.441110
 21
93.676370
 31
0.0
  0
SPLINE
  5
12a
100
AcDbEntity
  8
Layer_1
 62
6
100
AcDbSpline
 70
0
 71
3
 72
25
 73
21
 74
19
 40
0.000000
 40
0.000000
 40
0.000000
 40
0.000000
 40
0.546000
 40
1.084143
 40
1.630032
 40
2.175863
 40
2.713860
 40
3.259691
 40
3.805580
 40
4.343723
 40
4.889723
 40
5.435723
 40
5.973866
 40
6.519755
 40
7.065586
 40
7.603583
 40
8.149414
 40
8.695303
 40
9.233446
 40
9.779446
 40
9.779446
 40
9.779446
 40
9.779446
 10
310.441110
 20
93.676370
 30
0.0
 10
310.422424
 20
93.493442
 30
0.0
 10
310.385320
 20
93.130219
 30
0.0
 10
310.097443
 20
92.650194
 30
0.0
 10
309.675920
 20
92.293292
 30
0.0
 10
309.153923
 20
92.103995
 30
0.0
 10
308.600017
 20
92.103995
 30
0.0
 10
308.078751
 20
92.293292
 30
0.0
 10
307.654310
 20
92.650194
 30
0.0
 10
307.377277
 20
93.130219
 30
0.0
 10
307.280554
 20
93.676370
 30
0.0
 10
307.377277
 20
94.222521
 30
0.0
 10
307.654310
 20
94.702546
 30
0.0
 10
308.078751
 20
95.059448
 30
0.0
 10
308.600017
 20
95.248745
 30
0.0
 10
309.153923
 20
95.248745
 30
0.0
 10
309.675920
 20
95.059448
 30
0.0
 10
310.097443
 20
94.702546
 30
0.0
 10
310.385320
 20
94.222521
 30
0.0
 10
310.422424
 20
93.859298
 30
0.0
 10
310.441110
 20
93.676370
 30
0.0
 11
310.441110
 21
93.676370
 31
0.0
 11
310.345898
 21
93.138736
 31
0.0
 11
310.076900
 21
92.672648
 31
0.0
 11
309.659070
 21
92.321346
 31
0.0
 11
309.146028
 21
92.135014
 31
0.0
 11
308.608032
 21
92.135014
 31
0.0
 11
308.094990
 21
92.321346
 31
0.0
 11
307.677160
 21
92.672648
 31
0.0
 11
307.408162
 21
93.138736
 31
0.0
 11
307.312950
 21
93.676370
 31
0.0
 11
307.408162
 21
94.214004
 31
0.0
 11
307.677160
 21
94.680092
 31
0.0
 11
308.094990
 21
95.031394
 31
0.0
 11
308.608032
 21
95.217726
 31
0.0
 11
309.146028
 21
95.217726
 31
0.0
 11
309.659070
 21
95.031394
 31
0.0
 11
310.076900
 21
94.680092
 31
0.0
 11
310.345898
 21
94.214004
 31
0.0
 11
310.441110
 21
93.676370
 31
0.0
  0
LINE
  5
12b
100
AcDbEntity
  8
Layer_1
 62
6
100
AcDbLine
 10
169.003810
 20
93.676370
 30
0.0
 11
169.003810
 21
93.676370
 31
0.0
  0
SPLINE
  5
12c
100
AcDbEntity
  8
Layer_1
 62
6
100
AcDbSpline
 70
0
 71
3
 72
25
 73
21
 74
19
 40
0.000000
 40
0.000000
 40
0.000000
 40
0.000000
 40
0.546000
 40
1.084143
 40
1.630032
 40
2.175863
 40
2.713860
 40
3.259691
 40
3.805580
 40
4.343723
 40
4.889723
 40
5.435723
 40
5.973866
 40
6.519755
 40
7.065586
 40
7.603583
 40
8.149414
 40
8.695303
 40
9.233446
 40
9.779446
 40
9.779446
 40
9.779446
 40
9.779446
 10
169.003810
 20
93.676370
 30
0.0
 10
168.985124
 20
93.493442
 30
0.0
 10
168.948020
 20
93.130219
 30
0.0
 10
168.660143
 20
92.650194
 30
0.0
 10
168.238620
 20
92.293292
 30
0.0
 10
167.716623
 20
92.103995
 30
0.0
 10
167.162717
 20
92.103995
 30
0.0
 10
166.641451
 20
92.293292
 30
0.0
 10
166.217010
 20
92.650194
 30
0.0
 10
165.939977
 20
93.130219
 30
0.0
 10
165.843254
 20
93.676370
 30
0.0
 10
165.939977
 20
94.222521
 30
0.0
 10
166.217010
 20
94.702546
 30
0.0
 10
166.641451
 20
95.059448
 30
0.0
 10
167.162717
 20
95.248745
 30
0.0
 10
167.716623
 20
95.248745
 30
0.0
 10
168.238620
 20
95.059448
 30
0.0
 10
168.660143
 20
94.702546
 30
0.0
 10
168.948020
 20
94.222521
 30
0.0
 10
168.985124
 20
93.859298
 30
0.0
 10
169.003810
 20
93.676370
 30
0.0
 11
169.003810
 21
93.676370
 31
0.0
 11
168.908598
 21
93.138736
 31
0.0
 11
168.639600
 21
92.672648
 31
0.0
 11
168.221770
 21
92.321346
 31
0.0
 11
167.708728
 21
92.135014
 31
0.0
 11
167.170732
 21
92.135014
 31
0.0
 11
166.657690
 21
92.321346
 31
0.0
 11
166.239860
 21
92.672648
 31
0.0
 11
165.970862
 21
93.138736
 31
0.0
 11
165.875650
 21
93.676370
 31
0.0
 11
165.970862
 21
94.214004
 31
0.0
 11
166.239860
 21
94.680092
 31
0.0
 11
166.657690
 21
95.031394
 31
0.0
 11
167.170732
 21
95.217726
 31
0.0
 11
167.708728
 21
95.217726
 31
0.0
 11
168.221770
 21
95.031394
 31
0.0
 11
168.639600
 21
94.680092
 31
0.0
 11
168.908598
 21
94.214004
 31
0.0
 11
169.003810
 21
93.676370
 31
0.0
  0
SPLINE
  5
12d
100
AcDbEntity
  8
Layer_1
 62
6
100
AcDbSpline
 70
0
 71
3
 72
13
 73
9
 74
7
 40
0.000000
 40
0.000000
 40
0.000000
 40
0.000000
 40
0.816862
 40
1.609543
 40
2.426404
 40
3.243265
 40
4.035946
 40
4.852808
 40
4.852808
 40
4.852808
 40
4.852808
 10
125.429080
 20
209.501359
 30
0.0
 10
125.385661
 20
209.226037
 30
0.0
 10
125.300107
 20
208.683544
 30
0.0
 10
124.678126
 20
208.086772
 30
0.0
 10
123.864980
 20
207.865673
 30
0.0
 10
123.051834
 20
208.086772
 30
0.0
 10
122.429853
 20
208.683544
 30
0.0
 10
122.344299
 20
209.226037
 30
0.0
 10
122.300880
 20
209.501359
 30
0.0
 11
125.429080
 21
209.501359
 31
0.0
 11
125.214588
 21
208.713161
 31
0.0
 11
124.653567
 21
208.153162
 31
0.0
 11
123.864980
 21
207.940108
 31
0.0
 11
123.076393
 21
208.153162
 31
0.0
 11
122.515372
 21
208.713161
 31
0.0
 11
122.300880
 21
209.501359
 31
0.0
  0
LINE
  5
12e
100
AcDbEntity
  8
Layer_1
 62
6
100
AcDbLine
 10
125.429080
 20
209.501359
 30
0.0
 11
125.429080
 21
209.501359
 31
0.0
  0
SPLINE
  5
12f
100
AcDbEntity
  8
Layer_1
 62
6
100
AcDbSpline
 70
0
 71
3
 72
13
 73
9
 74
7
 40
0.000000
 40
0.000000
 40
0.000000
 40
0.000000
 40
0.816862
 40
1.609543
 40
2.426404
 40
3.243265
 40
4.035946
 40
4.852808
 40
4.852808
 40
4.852808
 40
4.852808
 10
122.300880
 20
209.501359
 30
0.0
 10
122.344299
 20
209.776681
 30
0.0
 10
122.429853
 20
210.319174
 30
0.0
 10
123.051834
 20
210.915946
 30
0.0
 10
123.864980
 20
211.137045
 30
0.0
 10
124.678126
 20
210.915946
 30
0.0
 10
125.300107
 20
210.319174
 30
0.0
 10
125.385661
 20
209.776681
 30
0.0
 10
125.429080
 20
209.501359
 30
0.0
 11
122.300880
 21
209.501359
 31
0.0
 11
122.515372
 21
210.289557
 31
0.0
 11
123.076393
 21
210.849556
 31
0.0
 11
123.864980
 21
211.062610
 31
0.0
 11
124.653567
 21
210.849556
 31
0.0
 11
125.214588
 21
210.289557
 31
0.0
 11
125.429080
 21
209.501359
 31
0.0
  0
LINE
  5
130
100
AcDbEntity
  8
Layer_1
 62
6
100
AcDbLine
 10
349.266560
 20
93.676370
 30
0.0
 11
349.266560
 21
93.676370
 31
0.0
  0
SPLINE
  5
131
100
AcDbEntity
  8
Layer_1
 62
6
100
AcDbSpline
 70
0
 71
3
 72
25
 73
21
 74
19
 40
0.000000
 40
0.000000
 40
0.000000
 40
0.000000
 40
0.546000
 40
1.084143
 40
1.630032
 40
2.175863
 40
2.713860
 40
3.259691
 40
3.805580
 40
4.343723
 40
4.889723
 40
5.435723
 40
5.973866
 40
6.519755
 40
7.065586
 40
7.603583
 40
8.149414
 40
8.695303
 40
9.233446
 40
9.779446
 40
9.779446
 40
9.779446
 40
9.779446
 10
349.266560
 20
93.676370
 30
0.0
 10
349.247874
 20
93.493442
 30
0.0
 10
349.210770
 20
93.130219
 30
0.0
 10
348.922893
 20
92.650194
 30
0.0
 10
348.501370
 20
92.293292
 30
0.0
 10
347.979373
 20
92.103995
 30
0.0
 10
347.425467
 20
92.103995
 30
0.0
 10
346.904201
 20
92.293292
 30
0.0
 10
346.479760
 20
92.650194
 30
0.0
 10
346.202727
 20
93.130219
 30
0.0
 10
346.106004
 20
93.676370
 30
0.0
 10
346.202727
 20
94.222521
 30
0.0
 10
346.479760
 20
94.702546
 30
0.0
 10
346.904201
 20
95.059448
 30
0.0
 10
347.425467
 20
95.248745
 30
0.0
 10
347.979373
 20
95.248745
 30
0.0
 10
348.501370
 20
95.059448
 30
0.0
 10
348.922893
 20
94.702546
 30
0.0
 10
349.210770
 20
94.222521
 30
0.0
 10
349.247874
 20
93.859298
 30
0.0
 10
349.266560
 20
93.676370
 30
0.0
 11
349.266560
 21
93.676370
 31
0.0
 11
349.171348
 21
93.138736
 31
0.0
 11
348.902350
 21
92.672648
 31
0.0
 11
348.484520
 21
92.321346
 31
0.0
 11
347.971478
 21
92.135014
 31
0.0
 11
347.433482
 21
92.135014
 31
0.0
 11
346.920440
 21
92.321346
 31
0.0
 11
346.502610
 21
92.672648
 31
0.0
 11
346.233612
 21
93.138736
 31
0.0
 11
346.138400
 21
93.676370
 31
0.0
 11
346.233612
 21
94.214004
 31
0.0
 11
346.502610
 21
94.680092
 31
0.0
 11
346.920440
 21
95.031394
 31
0.0
 11
347.433482
 21
95.217726
 31
0.0
 11
347.971478
 21
95.217726
 31
0.0
 11
348.484520
 21
95.031394
 31
0.0
 11
348.902350
 21
94.680092
 31
0.0
 11
349.171348
 21
94.214004
 31
0.0
 11
349.266560
 21
93.676370
 31
0.0
  0
LINE
  5
132
100
AcDbEntity
  8
Layer_1
 62
6
100
AcDbLine
 10
130.191560
 20
93.676370
 30
0.0
 11
130.191560
 21
93.676370
 31
0.0
  0
SPLINE
  5
133
100
AcDbEntity
  8
Layer_1
 62
6
100
AcDbSpline
 70
0
 71
3
 72
25
 73
21
 74
19
 40
0.000000
 40
0.000000
 40
0.000000
 40
0.000000
 40
0.546000
 40
1.084143
 40
1.630032
 40
2.175863
 40
2.713860
 40
3.259691
 40
3.805580
 40
4.343723
 40
4.889723
 40
5.435723
 40
5.973866
 40
6.519755
 40
7.065586
 40
7.603583
 40
8.149414
 40
8.695303
 40
9.233446
 40
9.779446
 40
9.779446
 40
9.779446
 40
9.779446
 10
130.191560
 20
93.676370
 30
0.0
 10
130.172874
 20
93.493442
 30
0.0
 10
130.135770
 20
93.130219
 30
0.0
 10
129.847893
 20
92.650194
 30
0.0
 10
129.426370
 20
92.293292
 30
0.0
 10
128.904373
 20
92.103995
 30
0.0
 10
128.350467
 20
92.103995
 30
0.0
 10
127.829201
 20
92.293292
 30
0.0
 10
127.404760
 20
92.650194
 30
0.0
 10
127.127727
 20
93.130219
 30
0.0
 10
127.031004
 20
93.676370
 30
0.0
 10
127.127727
 20
94.222521
 30
0.0
 10
127.404760
 20
94.702546
 30
0.0
 10
127.829201
 20
95.059448
 30
0.0
 10
128.350467
 20
95.248745
 30
0.0
 10
128.904373
 20
95.248745
 30
0.0
 10
129.426370
 20
95.059448
 30
0.0
 10
129.847893
 20
94.702546
 30
0.0
 10
130.135770
 20
94.222521
 30
0.0
 10
130.172874
 20
93.859298
 30
0.0
 10
130.191560
 20
93.676370
 30
0.0
 11
130.191560
 21
93.676370
 31
0.0
 11
130.096348
 21
93.138736
 31
0.0
 11
129.827350
 21
92.672648
 31
0.0
 11
129.409520
 21
92.321346
 31
0.0
 11
128.896478
 21
92.135014
 31
0.0
 11
128.358482
 21
92.135014
 31
0.0
 11
127.845440
 21
92.321346
 31
0.0
 11
127.427610
 21
92.672648
 31
0.0
 11
127.158612
 21
93.138736
 31
0.0
 11
127.063400
 21
93.676370
 31
0.0
 11
127.158612
 21
94.214004
 31
0.0
 11
127.427610
 21
94.680092
 31
0.0
 11
127.845440
 21
95.031394
 31
0.0
 11
128.358482
 21
95.217726
 31
0.0
 11
128.896478
 21
95.217726
 31
0.0
 11
129.409520
 21
95.031394
 31
0.0
 11
129.827350
 21
94.680092
 31
0.0
 11
130.096348
 21
94.214004
 31
0.0
 11
130.191560
 21
93.676370
 31
0.0
  0
LINE
  5
134
100
AcDbEntity
  8
Layer_1
 62
6
100
AcDbLine
 10
354.029060
 20
209.501359
 30
0.0
 11
354.029060
 21
209.501359
 31
0.0
  0
SPLINE
  5
135
100
AcDbEntity
  8
Layer_1
 62
6
100
AcDbSpline
 70
0
 71
3
 72
25
 73
21
 74
19
 40
0.000000
 40
0.000000
 40
0.000000
 40
0.000000
 40
0.546000
 40
1.084143
 40
1.630032
 40
2.175863
 40
2.713860
 40
3.259691
 40
3.805580
 40
4.343723
 40
4.889723
 40
5.435723
 40
5.973866
 40
6.519755
 40
7.065586
 40
7.603583
 40
8.149414
 40
8.695303
 40
9.233446
 40
9.779446
 40
9.779446
 40
9.779446
 40
9.779446
 10
354.029060
 20
209.501359
 30
0.0
 10
354.010374
 20
209.318431
 30
0.0
 10
353.973270
 20
208.955208
 30
0.0
 10
353.685393
 20
208.475183
 30
0.0
 10
353.263870
 20
208.118281
 30
0.0
 10
352.741873
 20
207.928984
 30
0.0
 10
352.187967
 20
207.928984
 30
0.0
 10
351.666701
 20
208.118281
 30
0.0
 10
351.242260
 20
208.475183
 30
0.0
 10
350.965227
 20
208.955208
 30
0.0
 10
350.868504
 20
209.501359
 30
0.0
 10
350.965227
 20
210.047510
 30
0.0
 10
351.242260
 20
210.527535
 30
0.0
 10
351.666701
 20
210.884437
 30
0.0
 10
352.187967
 20
211.073734
 30
0.0
 10
352.741873
 20
211.073734
 30
0.0
 10
353.263870
 20
210.884437
 30
0.0
 10
353.685393
 20
210.527535
 30
0.0
 10
353.973270
 20
210.047510
 30
0.0
 10
354.010374
 20
209.684287
 30
0.0
 10
354.029060
 20
209.501359
 30
0.0
 11
354.029060
 21
209.501359
 31
0.0
 11
353.933848
 21
208.963725
 31
0.0
 11
353.664850
 21
208.497637
 31
0.0
 11
353.247020
 21
208.146335
 31
0.0
 11
352.733978
 21
207.960003
 31
0.0
 11
352.195982
 21
207.960003
 31
0.0
 11
351.682940
 21
208.146335
 31
0.0
 11
351.265110
 21
208.497637
 31
0.0
 11
350.996112
 21
208.963725
 31
0.0
 11
350.900900
 21
209.501359
 31
0.0
 11
350.996112
 21
210.038993
 31
0.0
 11
351.265110
 21
210.505081
 31
0.0
 11
351.682940
 21
210.856383
 31
0.0
 11
352.195982
 21
211.042715
 31
0.0
 11
352.733978
 21
211.042715
 31
0.0
 11
353.247020
 21
210.856383
 31
0.0
 11
353.664850
 21
210.505081
 31
0.0
 11
353.933848
 21
210.038993
 31
0.0
 11
354.029060
 21
209.501359
 31
0.0
  0
SPLINE
  5
136
100
AcDbEntity
  8
Layer_1
 62
6
100
AcDbSpline
 70
0
 71
3
 72
13
 73
9
 74
7
 40
0.000000
 40
0.000000
 40
0.000000
 40
0.000000
 40
0.817192
 40
1.610176
 40
2.427368
 40
3.244559
 40
4.037544
 40
4.854735
 40
4.854735
 40
4.854735
 40
4.854735
 10
101.854090
 20
209.501359
 30
0.0
 10
101.810810
 20
209.225896
 30
0.0
 10
101.725531
 20
208.683130
 30
0.0
 10
101.103462
 20
208.085894
 30
0.0
 10
100.289989
 20
207.864615
 30
0.0
 10
99.476515
 20
208.085894
 30
0.0
 10
98.854446
 20
208.683130
 30
0.0
 10
98.769167
 20
209.225896
 30
0.0
 10
98.725887
 20
209.501359
 30
0.0
 11
101.854090
 21
209.501359
 31
0.0
 11
101.639929
 21
208.712729
 31
0.0
 11
101.078871
 21
208.152337
 31
0.0
 11
100.289989
 21
207.939111
 31
0.0
 11
99.501106
 21
208.152337
 31
0.0
 11
98.940048
 21
208.712729
 31
0.0
 11
98.725887
 21
209.501359
 31
0.0
  0
LINE
  5
137
100
AcDbEntity
  8
Layer_1
 62
6
100
AcDbLine
 10
101.854090
 20
209.501359
 30
0.0
 11
101.854090
 21
209.501359
 31
0.0
  0
SPLINE
  5
138
100
AcDbEntity
  8
Layer_1
 62
6
100
AcDbSpline
 70
0
 71
3
 72
13
 73
9
 74
7
 40
0.000000
 40
0.000000
 40
0.000000
 40
0.000000
 40
0.817192
 40
1.610176
 40
2.427368
 40
3.244559
 40
4.037544
 40
4.854735
 40
4.854735
 40
4.854735
 40
4.854735
 10
98.725887
 20
209.501359
 30
0.0
 10
98.769167
 20
209.776822
 30
0.0
 10
98.854446
 20
210.319588
 30
0.0
 10
99.476515
 20
210.916824
 30
0.0
 10
100.289988
 20
211.138103
 30
0.0
 10
101.103462
 20
210.916824
 30
0.0
 10
101.725531
 20
210.319588
 30
0.0
 10
101.810810
 20
209.776822
 30
0.0
 10
101.854090
 20
209.501359
 30
0.0
 11
98.725887
 21
209.501359
 31
0.0
 11
98.940048
 21
210.289989
 31
0.0
 11
99.501106
 21
210.850381
 31
0.0
 11
100.289989
 21
211.063607
 31
0.0
 11
101.078871
 21
210.850381
 31
0.0
 11
101.639929
 21
210.289989
 31
0.0
 11
101.854090
 21
209.501359
 31
0.0
  0
LINE
  5
139
100
AcDbEntity
  8
Layer_1
 62
6
100
AcDbLine
 10
377.604060
 20
93.676370
 30
0.0
 11
377.604060
 21
93.676370
 31
0.0
  0
SPLINE
  5
13a
100
AcDbEntity
  8
Layer_1
 62
6
100
AcDbSpline
 70
0
 71
3
 72
25
 73
21
 74
19
 40
0.000000
 40
0.000000
 40
0.000000
 40
0.000000
 40
0.546000
 40
1.084143
 40
1.630032
 40
2.175863
 40
2.713860
 40
3.259691
 40
3.805580
 40
4.343723
 40
4.889723
 40
5.435723
 40
5.973866
 40
6.519755
 40
7.065586
 40
7.603583
 40
8.149414
 40
8.695303
 40
9.233446
 40
9.779446
 40
9.779446
 40
9.779446
 40
9.779446
 10
377.604060
 20
93.676370
 30
0.0
 10
377.585374
 20
93.493442
 30
0.0
 10
377.548270
 20
93.130219
 30
0.0
 10
377.260393
 20
92.650194
 30
0.0
 10
376.838870
 20
92.293292
 30
0.0
 10
376.316873
 20
92.103995
 30
0.0
 10
375.762967
 20
92.103995
 30
0.0
 10
375.241701
 20
92.293292
 30
0.0
 10
374.817260
 20
92.650194
 30
0.0
 10
374.540227
 20
93.130219
 30
0.0
 10
374.443504
 20
93.676370
 30
0.0
 10
374.540227
 20
94.222521
 30
0.0
 10
374.817260
 20
94.702546
 30
0.0
 10
375.241701
 20
95.059448
 30
0.0
 10
375.762967
 20
95.248745
 30
0.0
 10
376.316873
 20
95.248745
 30
0.0
 10
376.838870
 20
95.059448
 30
0.0
 10
377.260393
 20
94.702546
 30
0.0
 10
377.548270
 20
94.222521
 30
0.0
 10
377.585374
 20
93.859298
 30
0.0
 10
377.604060
 20
93.676370
 30
0.0
 11
377.604060
 21
93.676370
 31
0.0
 11
377.508848
 21
93.138736
 31
0.0
 11
377.239850
 21
92.672648
 31
0.0
 11
376.822020
 21
92.321346
 31
0.0
 11
376.308978
 21
92.135014
 31
0.0
 11
375.770982
 21
92.135014
 31
0.0
 11
375.257940
 21
92.321346
 31
0.0
 11
374.840110
 21
92.672648
 31
0.0
 11
374.571112
 21
93.138736
 31
0.0
 11
374.475900
 21
93.676370
 31
0.0
 11
374.571112
 21
94.214004
 31
0.0
 11
374.840110
 21
94.680092
 31
0.0
 11
375.257940
 21
95.031394
 31
0.0
 11
375.770982
 21
95.217726
 31
0.0
 11
376.308978
 21
95.217726
 31
0.0
 11
376.822020
 21
95.031394
 31
0.0
 11
377.239850
 21
94.680092
 31
0.0
 11
377.508848
 21
94.214004
 31
0.0
 11
377.604060
 21
93.676370
 31
0.0
  0
SPLINE
  5
13b
100
AcDbEntity
  8
Layer_1
 62
6
100
AcDbSpline
 70
0
 71
3
 72
13
 73
9
 74
7
 40
0.000000
 40
0.000000
 40
0.000000
 40
0.000000
 40
0.817192
 40
1.610176
 40
2.427368
 40
3.244559
 40
4.037544
 40
4.854735
 40
4.854735
 40
4.854735
 40
4.854735
 10
101.854090
 20
93.676370
 30
0.0
 10
101.810810
 20
93.400907
 30
0.0
 10
101.725531
 20
92.858141
 30
0.0
 10
101.103462
 20
92.260905
 30
0.0
 10
100.289988
 20
92.039626
 30
0.0
 10
99.476515
 20
92.260905
 30
0.0
 10
98.854446
 20
92.858141
 30
0.0
 10
98.769167
 20
93.400907
 30
0.0
 10
98.725887
 20
93.676370
 30
0.0
 11
101.854090
 21
93.676370
 31
0.0
 11
101.639929
 21
92.887740
 31
0.0
 11
101.078871
 21
92.327348
 31
0.0
 11
100.289989
 21
92.114122
 31
0.0
 11
99.501106
 21
92.327348
 31
0.0
 11
98.940048
 21
92.887740
 31
0.0
 11
98.725887
 21
93.676370
 31
0.0
  0
LINE
  5
13c
100
AcDbEntity
  8
Layer_1
 62
6
100
AcDbLine
 10
101.854090
 20
93.676370
 30
0.0
 11
101.854090
 21
93.676370
 31
0.0
  0
SPLINE
  5
13d
100
AcDbEntity
  8
Layer_1
 62
6
100
AcDbSpline
 70
0
 71
3
 72
13
 73
9
 74
7
 40
0.000000
 40
0.000000
 40
0.000000
 40
0.000000
 40
0.817192
 40
1.610176
 40
2.427368
 40
3.244559
 40
4.037544
 40
4.854735
 40
4.854735
 40
4.854735
 40
4.854735
 10
98.725887
 20
93.676370
 30
0.0
 10
98.769167
 20
93.951833
 30
0.0
 10
98.854446
 20
94.494599
 30
0.0
 10
99.476515
 20
95.091835
 30
0.0
 10
100.289988
 20
95.313114
 30
0.0
 10
101.103462
 20
95.091835
 30
0.0
 10
101.725531
 20
94.494599
 30
0.0
 10
101.810810
 20
93.951833
 30
0.0
 10
101.854090
 20
93.676370
 30
0.0
 11
98.725887
 21
93.676370
 31
0.0
 11
98.940048
 21
94.465000
 31
0.0
 11
99.501106
 21
95.025392
 31
0.0
 11
100.289989
 21
95.238618
 31
0.0
 11
101.078871
 21
95.025392
 31
0.0
 11
101.639929
 21
94.465000
 31
0.0
 11
101.854090
 21
93.676370
 31
0.0
  0
LINE
  5
13e
100
AcDbEntity
  8
Layer_1
 62
6
100
AcDbLine
 10
377.604060
 20
209.501359
 30
0.0
 11
377.604060
 21
209.501359
 31
0.0
  0
SPLINE
  5
13f
100
AcDbEntity
  8
Layer_1
 62
6
100
AcDbSpline
 70
0
 71
3
 72
25
 73
21
 74
19
 40
0.000000
 40
0.000000
 40
0.000000
 40
0.000000
 40
0.546000
 40
1.084143
 40
1.630032
 40
2.175863
 40
2.713860
 40
3.259691
 40
3.805580
 40
4.343723
 40
4.889723
 40
5.435723
 40
5.973866
 40
6.519755
 40
7.065586
 40
7.603583
 40
8.149414
 40
8.695303
 40
9.233446
 40
9.779446
 40
9.779446
 40
9.779446
 40
9.779446
 10
377.604060
 20
209.501359
 30
0.0
 10
377.585374
 20
209.318431
 30
0.0
 10
377.548270
 20
208.955208
 30
0.0
 10
377.260393
 20
208.475183
 30
0.0
 10
376.838870
 20
208.118281
 30
0.0
 10
376.316873
 20
207.928984
 30
0.0
 10
375.762967
 20
207.928984
 30
0.0
 10
375.241701
 20
208.118281
 30
0.0
 10
374.817260
 20
208.475183
 30
0.0
 10
374.540227
 20
208.955208
 30
0.0
 10
374.443504
 20
209.501359
 30
0.0
 10
374.540227
 20
210.047510
 30
0.0
 10
374.817260
 20
210.527535
 30
0.0
 10
375.241701
 20
210.884437
 30
0.0
 10
375.762967
 20
211.073734
 30
0.0
 10
376.316873
 20
211.073734
 30
0.0
 10
376.838870
 20
210.884437
 30
0.0
 10
377.260393
 20
210.527535
 30
0.0
 10
377.548270
 20
210.047510
 30
0.0
 10
377.585374
 20
209.684287
 30
0.0
 10
377.604060
 20
209.501359
 30
0.0
 11
377.604060
 21
209.501359
 31
0.0
 11
377.508848
 21
208.963725
 31
0.0
 11
377.239850
 21
208.497637
 31
0.0
 11
376.822020
 21
208.146335
 31
0.0
 11
376.308978
 21
207.960003
 31
0.0
 11
375.770982
 21
207.960003
 31
0.0
 11
375.257940
 21
208.146335
 31
0.0
 11
374.840110
 21
208.497637
 31
0.0
 11
374.571112
 21
208.963725
 31
0.0
 11
374.475900
 21
209.501359
 31
0.0
 11
374.571112
 21
210.038993
 31
0.0
 11
374.840110
 21
210.505081
 31
0.0
 11
375.257940
 21
210.856383
 31
0.0
 11
375.770982
 21
211.042715
 31
0.0
 11
376.308978
 21
211.042715
 31
0.0
 11
376.822020
 21
210.856383
 31
0.0
 11
377.239850
 21
210.505081
 31
0.0
 11
377.508848
 21
210.038993
 31
0.0
 11
377.604060
 21
209.501359
 31
0.0
  0
LINE
  5
140
100
AcDbEntity
  8
Layer_1
 62
6
100
AcDbLine
 10
239.729070
 20
209.501359
 30
0.0
 11
239.729070
 21
209.501359
 31
0.0
  0
SPLINE
  5
141
100
AcDbEntity
  8
Layer_1
 62
6
100
AcDbSpline
 70
0
 71
3
 72
25
 73
21
 74
19
 40
0.000000
 40
0.000000
 40
0.000000
 40
0.000000
 40
0.546000
 40
1.084143
 40
1.630032
 40
2.175863
 40
2.713860
 40
3.259691
 40
3.805580
 40
4.343723
 40
4.889723
 40
5.435723
 40
5.973866
 40
6.519755
 40
7.065586
 40
7.603583
 40
8.149414
 40
8.695303
 40
9.233446
 40
9.779446
 40
9.779446
 40
9.779446
 40
9.779446
 10
239.729070
 20
209.501359
 30
0.0
 10
239.710384
 20
209.318431
 30
0.0
 10
239.673280
 20
208.955208
 30
0.0
 10
239.385403
 20
208.475183
 30
0.0
 10
238.963880
 20
208.118281
 30
0.0
 10
238.441883
 20
207.928984
 30
0.0
 10
237.887977
 20
207.928984
 30
0.0
 10
237.366711
 20
208.118281
 30
0.0
 10
236.942270
 20
208.475183
 30
0.0
 10
236.665237
 20
208.955208
 30
0.0
 10
236.568514
 20
209.501359
 30
0.0
 10
236.665237
 20
210.047510
 30
0.0
 10
236.942270
 20
210.527535
 30
0.0
 10
237.366711
 20
210.884437
 30
0.0
 10
237.887977
 20
211.073734
 30
0.0
 10
238.441883
 20
211.073734
 30
0.0
 10
238.963880
 20
210.884437
 30
0.0
 10
239.385403
 20
210.527535
 30
0.0
 10
239.673280
 20
210.047510
 30
0.0
 10
239.710384
 20
209.684287
 30
0.0
 10
239.729070
 20
209.501359
 30
0.0
 11
239.729070
 21
209.501359
 31
0.0
 11
239.633858
 21
208.963725
 31
0.0
 11
239.364860
 21
208.497637
 31
0.0
 11
238.947030
 21
208.146335
 31
0.0
 11
238.433988
 21
207.960003
 31
0.0
 11
237.895992
 21
207.960003
 31
0.0
 11
237.382950
 21
208.146335
 31
0.0
 11
236.965120
 21
208.497637
 31
0.0
 11
236.696122
 21
208.963725
 31
0.0
 11
236.600910
 21
209.501359
 31
0.0
 11
236.696122
 21
210.038993
 31
0.0
 11
236.965120
 21
210.505081
 31
0.0
 11
237.382950
 21
210.856383
 31
0.0
 11
237.895992
 21
211.042715
 31
0.0
 11
238.433988
 21
211.042715
 31
0.0
 11
238.947030
 21
210.856383
 31
0.0
 11
239.364860
 21
210.505081
 31
0.0
 11
239.633858
 21
210.038993
 31
0.0
 11
239.729070
 21
209.501359
 31
0.0
  0
SPLINE
  5
142
100
AcDbEntity
  8
Layer_1
 62
6
100
AcDbSpline
 70
0
 71
3
 72
13
 73
9
 74
7
 40
0.000000
 40
0.000000
 40
0.000000
 40
0.000000
 40
0.817192
 40
1.610176
 40
2.427368
 40
3.244559
 40
4.037544
 40
4.854735
 40
4.854735
 40
4.854735
 40
4.854735
 10
101.854090
 20
181.006360
 30
0.0
 10
101.810810
 20
180.730897
 30
0.0
 10
101.725531
 20
180.188131
 30
0.0
 10
101.103462
 20
179.590895
 30
0.0
 10
100.289988
 20
179.369616
 30
0.0
 10
99.476515
 20
179.590895
 30
0.0
 10
98.854446
 20
180.188131
 30
0.0
 10
98.769167
 20
180.730897
 30
0.0
 10
98.725887
 20
181.006360
 30
0.0
 11
101.854090
 21
181.006360
 31
0.0
 11
101.639929
 21
180.217730
 31
0.0
 11
101.078871
 21
179.657338
 31
0.0
 11
100.289989
 21
179.444112
 31
0.0
 11
99.501106
 21
179.657338
 31
0.0
 11
98.940048
 21
180.217730
 31
0.0
 11
98.725887
 21
181.006360
 31
0.0
  0
LINE
  5
143
100
AcDbEntity
  8
Layer_1
 62
6
100
AcDbLine
 10
101.854090
 20
181.006360
 30
0.0
 11
101.854090
 21
181.006360
 31
0.0
  0
SPLINE
  5
144
100
AcDbEntity
  8
Layer_1
 62
6
100
AcDbSpline
 70
0
 71
3
 72
13
 73
9
 74
7
 40
0.000000
 40
0.000000
 40
0.000000
 40
0.000000
 40
0.817192
 40
1.610176
 40
2.427368
 40
3.244559
 40
4.037544
 40
4.854735
 40
4.854735
 40
4.854735
 40
4.854735
 10
98.725887
 20
181.006360
 30
0.0
 10
98.769167
 20
181.281823
 30
0.0
 10
98.854446
 20
181.824589
 30
0.0
 10
99.476515
 20
182.421825
 30
0.0
 10
100.289989
 20
182.643104
 30
0.0
 10
101.103462
 20
182.421825
 30
0.0
 10
101.725531
 20
181.824589
 30
0.0
 10
101.810810
 20
181.281823
 30
0.0
 10
101.854090
 20
181.006360
 30
0.0
 11
98.725887
 21
181.006360
 31
0.0
 11
98.940048
 21
181.794990
 31
0.0
 11
99.501106
 21
182.355382
 31
0.0
 11
100.289989
 21
182.568608
 31
0.0
 11
101.078871
 21
182.355382
 31
0.0
 11
101.639929
 21
181.794990
 31
0.0
 11
101.854090
 21
181.006360
 31
0.0
  0
LINE
  5
145
100
AcDbEntity
  8
Layer_1
 62
6
100
AcDbLine
 10
377.604060
 20
181.006360
 30
0.0
 11
377.604060
 21
181.006360
 31
0.0
  0
SPLINE
  5
146
100
AcDbEntity
  8
Layer_1
 62
6
100
AcDbSpline
 70
0
 71
3
 72
25
 73
21
 74
19
 40
0.000000
 40
0.000000
 40
0.000000
 40
0.000000
 40
0.546000
 40
1.084143
 40
1.630032
 40
2.175863
 40
2.713860
 40
3.259691
 40
3.805580
 40
4.343723
 40
4.889723
 40
5.435723
 40
5.973866
 40
6.519755
 40
7.065586
 40
7.603583
 40
8.149414
 40
8.695303
 40
9.233446
 40
9.779446
 40
9.779446
 40
9.779446
 40
9.779446
 10
377.604060
 20
181.006360
 30
0.0
 10
377.585374
 20
180.823432
 30
0.0
 10
377.548270
 20
180.460209
 30
0.0
 10
377.260393
 20
179.980184
 30
0.0
 10
376.838870
 20
179.623282
 30
0.0
 10
376.316873
 20
179.433985
 30
0.0
 10
375.762967
 20
179.433985
 30
0.0
 10
375.241701
 20
179.623282
 30
0.0
 10
374.817260
 20
179.980184
 30
0.0
 10
374.540227
 20
180.460209
 30
0.0
 10
374.443504
 20
181.006360
 30
0.0
 10
374.540227
 20
181.552511
 30
0.0
 10
374.817260
 20
182.032536
 30
0.0
 10
375.241701
 20
182.389438
 30
0.0
 10
375.762967
 20
182.578735
 30
0.0
 10
376.316873
 20
182.578735
 30
0.0
 10
376.838870
 20
182.389438
 30
0.0
 10
377.260393
 20
182.032536
 30
0.0
 10
377.548270
 20
181.552511
 30
0.0
 10
377.585374
 20
181.189288
 30
0.0
 10
377.604060
 20
181.006360
 30
0.0
 11
377.604060
 21
181.006360
 31
0.0
 11
377.508848
 21
180.468726
 31
0.0
 11
377.239850
 21
180.002638
 31
0.0
 11
376.822020
 21
179.651336
 31
0.0
 11
376.308978
 21
179.465004
 31
0.0
 11
375.770982
 21
179.465004
 31
0.0
 11
375.257940
 21
179.651336
 31
0.0
 11
374.840110
 21
180.002638
 31
0.0
 11
374.571112
 21
180.468726
 31
0.0
 11
374.475900
 21
181.006360
 31
0.0
 11
374.571112
 21
181.543994
 31
0.0
 11
374.840110
 21
182.010082
 31
0.0
 11
375.257940
 21
182.361384
 31
0.0
 11
375.770982
 21
182.547716
 31
0.0
 11
376.308978
 21
182.547716
 31
0.0
 11
376.822020
 21
182.361384
 31
0.0
 11
377.239850
 21
182.010082
 31
0.0
 11
377.508848
 21
181.543994
 31
0.0
 11
377.604060
 21
181.006360
 31
0.0
  0
ENDSEC
  0
SECTION
  2
OBJECTS
  0
DICTIONARY
  5
C
330
0
100
AcDbDictionary
  3
ACAD_GROUP
350
D
  3
ACAD_MLINESTYLE
350
17
  0
DICTIONARY
  5
D
330
C
100
AcDbDictionary
  0
DICTIONARY
  5
1A
330
C
100
AcDbDictionary
  0
DICTIONARY
  5
17
330
C
100
AcDbDictionary
  3
STANDARD
350
18
  0
DICTIONARY
  5
19
330
C
100
AcDbDictionary
  0
ENDSEC
  0
EOF
