  0
SECTION
  2
HEADER
  9
$ACADVER
  1
AC1014
  9
$HANDSEED
  5
FFFF
  9
$INSUNITS
 70
     4
  9
$MEASUREMENT
 70
     1
  0
ENDSEC
  0
SECTION
  2
TABLES
  0
TABLE
  2
VPORT
  5
8
330
0
100
AcDbSymbolTable
 70
     4
  0
VPORT
  5
2E
330
8
100
AcDbSymbolTableRecord
100
AcDbViewportTableRecord
  2
*ACTIVE
 70
     0
 10
0.0
 20
0.0
 11
1.0
 21
1.0
 12
210.0
 22
148.5
 13
0.0
 23
0.0
 14
10.0
 24
10.0
 15
10.0
 25
10.0
 16
0.0
 26
0.0
 36
1.0
 17
0.0
 27
0.0
 37
0.0
 40
341.0
 41
1.24
 42
50.0
 43
0.0
 44
0.0
 50
0.0
 51
0.0
 71
     0
 72
   100
 73
     1
 74
     3
 75
     0
 76
     0
 77
     0
 78
     0
  0
ENDTAB
  0
TABLE
  2
LTYPE
  5
5
330
0
100
AcDbSymbolTable
 70
     1
  0
LTYPE
  5
14
330
5
100
AcDbSymbolTableRecord
100
AcDbLinetypeTableRecord
  2
BYBLOCK
 70
     0
  3

 72
    65
 73
     0
 40
0.0
  0
LTYPE
  5
15
330
5
100
AcDbSymbolTableRecord
100
AcDbLinetypeTableRecord
  2
BYLAYER
 70
     0
  3

 72
    65
 73
     0
 40
0.0
  0
LTYPE
  5
16
330
5
100
AcDbSymbolTableRecord
100
AcDbLinetypeTableRecord
  2
CONTINUOUS
 70
     0
  3
Solid line
 72
    65
 73
     0
 40
0.0
  0
ENDTAB
  0
TABLE
  2
LAYER
  5
2
100
AcDbSymbolTable
 70
2
  0
LAYER
  5
50
100
AcDbSymbolTableRecord
100
AcDbLayerTableRecord
  2
0
 70
0
  6
CONTINUOUS
  0
LAYER
  5
51
100
AcDbSymbolTableRecord
100
AcDbLayerTableRecord
  2
Layer_1
 70
0
  6
CONTINUOUS
  0
ENDTAB
  0
TABLE
  2
STYLE
  5
3
330
0
100
AcDbSymbolTable
 70
     1
  0
STYLE
  5
11
330
3
100
AcDbSymbolTableRecord
100
AcDbTextStyleTableRecord
  2
STANDARD
 70
     0
 40
0.0
 41
1.0
 50
0.0
 71
     0
 42
2.5
  3
txt
  4

  0
ENDTAB
  0
TABLE
  2
VIEW
  5
6
330
0
100
AcDbSymbolTable
 70
     0
  0
ENDTAB
  0
TABLE
  2
UCS
  5
7
330
0
100
AcDbSymbolTable
 70
     0
  0
ENDTAB
  0
TABLE
  2
APPID
  5
9
330
0
100
AcDbSymbolTable
 70
     2
  0
APPID
  5
12
330
9
100
AcDbSymbolTableRecord
100
AcDbRegAppTableRecord
  2
ACAD
 70
     0
  0
ENDTAB
  0
TABLE
  2
DIMSTYLE
  5
A
330
0
100
AcDbSymbolTable
 70
     1
  0
DIMSTYLE
105
27
330
A
100
AcDbSymbolTableRecord
100
AcDbDimStyleTableRecord
  2
ISO-25
 70
     0
  3

  4

  5

  6

  7

 40
1.0
 41
2.5
 42
0.625
 43
3.75
 44
1.25
 45
0.0
 46
0.0
 47
0.0
 48
0.0
140
2.5
141
2.5
142
0.0
143
0.03937007874016
144
1.0
145
0.0
146
1.0
147
0.625
 71
     0
 72
     0
 73
     0
 74
     0
 75
     0
 76
     0
 77
     1
 78
     8
170
     0
171
     3
172
     1
173
     0
174
     0
175
     0
176
     0
177
     0
178
     0
270
     2
271
     2
272
     2
273
     2
274
     3
340
11
275
     0
280
     0
281
     0
282
     0
283
     0
284
     8
285
     0
286
     0
287
     3
288
     0
  0
ENDTAB
  0
TABLE
  2
BLOCK_RECORD
  5
1
330
0
100
AcDbSymbolTable
 70
     1
  0
BLOCK_RECORD
  5
1F
330
1
100
AcDbSymbolTableRecord
100
AcDbBlockTableRecord
  2
*MODEL_SPACE
  0
BLOCK_RECORD
  5
1B
330
1
100
AcDbSymbolTableRecord
100
AcDbBlockTableRecord
  2
*PAPER_SPACE
  0
ENDTAB
  0
ENDSEC
  0
SECTION
  2
BLOCKS
  0
BLOCK
  5
20
330
1F
100
AcDbEntity
  8
0
100
AcDbBlockBegin
  2
*MODEL_SPACE
 70
     0
 10
0.0
 20
0.0
 30
0.0
  3
*MODEL_SPACE
  1

  0
ENDBLK
  5
21
330
1F
100
AcDbEntity
  8
0
100
AcDbBlockEnd
  0
BLOCK
  5
1C
330
1B
100
AcDbEntity
 67
     1
  8
0
100
AcDbBlockBegin
  2
*PAPER_SPACE
  1

  0
ENDBLK
  5
1D
330
1B
100
AcDbEntity
 67
     1
  8
0
100
AcDbBlockEnd
  0
ENDSEC
  0
SECTION
  2
ENTITIES
  0
LINE
  5
100
100
AcDbEntity
  8
Layer_1
 62
2
100
AcDbLine
 10
310.443520
 20
93.671870
 30
0.0
 11
310.443520
 21
93.671870
 31
0.0
  0
SPLINE
  5
101
100
AcDbEntity
  8
Layer_1
 62
2
100
AcDbSpline
 70
0
 71
3
 72
25
 73
21
 74
19
 40
0.000000
 40
0.000000
 40
0.000000
 40
0.000000
 40
0.546000
 40
1.084143
 40
1.630032
 40
2.175863
 40
2.713860
 40
3.259691
 40
3.805580
 40
4.343723
 40
4.889723
 40
5.435723
 40
5.973866
 40
6.519755
 40
7.065586
 40
7.603583
 40
8.149414
 40
8.695303
 40
9.233446
 40
9.779446
 40
9.779446
 40
9.779446
 40
9.779446
 10
310.443520
 20
93.671870
 30
0.0
 10
310.424834
 20
93.488942
 30
0.0
 10
310.387730
 20
93.125719
 30
0.0
 10
310.099853
 20
92.645694
 30
0.0
 10
309.678330
 20
92.288792
 30
0.0
 10
309.156333
 20
92.099495
 30
0.0
 10
308.602427
 20
92.099495
 30
0.0
 10
308.081161
 20
92.288792
 30
0.0
 10
307.656720
 20
92.645694
 30
0.0
 10
307.379687
 20
93.125719
 30
0.0
 10
307.282964
 20
93.671870
 30
0.0
 10
307.379687
 20
94.218021
 30
0.0
 10
307.656720
 20
94.698046
 30
0.0
 10
308.081161
 20
95.054948
 30
0.0
 10
308.602427
 20
95.244245
 30
0.0
 10
309.156333
 20
95.244245
 30
0.0
 10
309.678330
 20
95.054948
 30
0.0
 10
310.099853
 20
94.698046
 30
0.0
 10
310.387730
 20
94.218021
 30
0.0
 10
310.424834
 20
93.854798
 30
0.0
 10
310.443520
 20
93.671870
 30
0.0
 11
310.443520
 21
93.671870
 31
0.0
 11
310.348308
 21
93.134236
 31
0.0
 11
310.079310
 21
92.668148
 31
0.0
 11
309.661480
 21
92.316846
 31
0.0
 11
309.148438
 21
92.130514
 31
0.0
 11
308.610442
 21
92.130514
 31
0.0
 11
308.097400
 21
92.316846
 31
0.0
 11
307.679570
 21
92.668148
 31
0.0
 11
307.410572
 21
93.134236
 31
0.0
 11
307.315360
 21
93.671870
 31
0.0
 11
307.410572
 21
94.209504
 31
0.0
 11
307.679570
 21
94.675592
 31
0.0
 11
308.097400
 21
95.026894
 31
0.0
 11
308.610442
 21
95.213226
 31
0.0
 11
309.148438
 21
95.213226
 31
0.0
 11
309.661480
 21
95.026894
 31
0.0
 11
310.079310
 21
94.675592
 31
0.0
 11
310.348308
 21
94.209504
 31
0.0
 11
310.443520
 21
93.671870
 31
0.0
  0
LINE
  5
102
100
AcDbEntity
  8
Layer_1
 62
2
100
AcDbLine
 10
169.006210
 20
93.671870
 30
0.0
 11
169.006210
 21
93.671870
 31
0.0
  0
SPLINE
  5
103
100
AcDbEntity
  8
Layer_1
 62
2
100
AcDbSpline
 70
0
 71
3
 72
25
 73
21
 74
19
 40
0.000000
 40
0.000000
 40
0.000000
 40
0.000000
 40
0.546000
 40
1.084143
 40
1.630032
 40
2.175863
 40
2.713860
 40
3.259691
 40
3.805580
 40
4.343723
 40
4.889723
 40
5.435723
 40
5.973866
 40
6.519755
 40
7.065586
 40
7.603583
 40
8.149414
 40
8.695303
 40
9.233446
 40
9.779446
 40
9.779446
 40
9.779446
 40
9.779446
 10
169.006210
 20
93.671870
 30
0.0
 10
168.987524
 20
93.488942
 30
0.0
 10
168.950420
 20
93.125719
 30
0.0
 10
168.662543
 20
92.645694
 30
0.0
 10
168.241020
 20
92.288792
 30
0.0
 10
167.719023
 20
92.099495
 30
0.0
 10
167.165117
 20
92.099495
 30
0.0
 10
166.643851
 20
92.288792
 30
0.0
 10
166.219410
 20
92.645694
 30
0.0
 10
165.942377
 20
93.125719
 30
0.0
 10
165.845654
 20
93.671870
 30
0.0
 10
165.942377
 20
94.218021
 30
0.0
 10
166.219410
 20
94.698046
 30
0.0
 10
166.643851
 20
95.054948
 30
0.0
 10
167.165117
 20
95.244245
 30
0.0
 10
167.719023
 20
95.244245
 30
0.0
 10
168.241020
 20
95.054948
 30
0.0
 10
168.662543
 20
94.698046
 30
0.0
 10
168.950420
 20
94.218021
 30
0.0
 10
168.987524
 20
93.854798
 30
0.0
 10
169.006210
 20
93.671870
 30
0.0
 11
169.006210
 21
93.671870
 31
0.0
 11
168.910998
 21
93.134236
 31
0.0
 11
168.642000
 21
92.668148
 31
0.0
 11
168.224170
 21
92.316846
 31
0.0
 11
167.711128
 21
92.130514
 31
0.0
 11
167.173132
 21
92.130514
 31
0.0
 11
166.660090
 21
92.316846
 31
0.0
 11
166.242260
 21
92.668148
 31
0.0
 11
165.973262
 21
93.134236
 31
0.0
 11
165.878050
 21
93.671870
 31
0.0
 11
165.973262
 21
94.209504
 31
0.0
 11
166.242260
 21
94.675592
 31
0.0
 11
166.660090
 21
95.026894
 31
0.0
 11
167.173132
 21
95.213226
 31
0.0
 11
167.711128
 21
95.213226
 31
0.0
 11
168.224170
 21
95.026894
 31
0.0
 11
168.642000
 21
94.675592
 31
0.0
 11
168.910998
 21
94.209504
 31
0.0
 11
169.006210
 21
93.671870
 31
0.0
  0
LINE
  5
104
100
AcDbEntity
  8
Layer_1
 62
2
100
AcDbLine
 10
125.431400
 20
209.496877
 30
0.0
 11
125.431400
 21
209.496877
 31
0.0
  0
SPLINE
  5
105
100
AcDbEntity
  8
Layer_1
 62
2
100
AcDbSpline
 70
0
 71
3
 72
25
 73
21
 74
19
 40
0.000000
 40
0.000000
 40
0.000000
 40
0.000000
 40
0.546609
 40
1.085211
 40
1.631347
 40
2.177230
 40
2.715202
 40
3.261085
 40
3.807221
 40
4.345823
 40
4.892432
 40
5.439041
 40
5.977644
 40
6.523780
 40
7.069662
 40
7.607635
 40
8.153517
 40
8.699653
 40
9.238255
 40
9.784865
 40
9.784865
 40
9.784865
 40
9.784865
 10
125.431400
 20
209.496877
 30
0.0
 10
125.412719
 20
209.313747
 30
0.0
 10
125.375630
 20
208.950169
 30
0.0
 10
125.087823
 20
208.469607
 30
0.0
 10
124.666334
 20
208.112254
 30
0.0
 10
124.144311
 20
207.922691
 30
0.0
 10
123.590349
 20
207.922691
 30
0.0
 10
123.069056
 20
208.112254
 30
0.0
 10
122.644652
 20
208.469607
 30
0.0
 10
122.367683
 20
208.950169
 30
0.0
 10
122.270991
 20
209.496877
 30
0.0
 10
122.367683
 20
210.043585
 30
0.0
 10
122.644652
 20
210.524147
 30
0.0
 10
123.069056
 20
210.881500
 30
0.0
 10
123.590349
 20
211.071063
 30
0.0
 10
124.144311
 20
211.071063
 30
0.0
 10
124.666334
 20
210.881500
 30
0.0
 10
125.087823
 20
210.524147
 30
0.0
 10
125.375630
 20
210.043585
 30
0.0
 10
125.412719
 20
209.680007
 30
0.0
 10
125.431400
 20
209.496877
 30
0.0
 11
125.431400
 21
209.496877
 31
0.0
 11
125.336193
 21
208.958623
 31
0.0
 11
125.067207
 21
208.491998
 31
0.0
 11
124.649395
 21
208.140291
 31
0.0
 11
124.136376
 21
207.953745
 31
0.0
 11
123.598404
 21
207.953745
 31
0.0
 11
123.085385
 21
208.140291
 31
0.0
 11
122.667573
 21
208.491998
 31
0.0
 11
122.398587
 21
208.958623
 31
0.0
 11
122.303380
 21
209.496877
 31
0.0
 11
122.398587
 21
210.035131
 31
0.0
 11
122.667573
 21
210.501756
 31
0.0
 11
123.085385
 21
210.853463
 31
0.0
 11
123.598404
 21
211.040009
 31
0.0
 11
124.136376
 21
211.040009
 31
0.0
 11
124.649395
 21
210.853463
 31
0.0
 11
125.067207
 21
210.501756
 31
0.0
 11
125.336193
 21
210.035131
 31
0.0
 11
125.431400
 21
209.496877
 31
0.0
  0
LINE
  5
106
100
AcDbEntity
  8
Layer_1
 62
2
100
AcDbLine
 10
349.268970
 20
93.671870
 30
0.0
 11
349.268970
 21
93.671870
 31
0.0
  0
SPLINE
  5
107
100
AcDbEntity
  8
Layer_1
 62
2
100
AcDbSpline
 70
0
 71
3
 72
25
 73
21
 74
19
 40
0.000000
 40
0.000000
 40
0.000000
 40
0.000000
 40
0.546000
 40
1.084143
 40
1.630032
 40
2.175863
 40
2.713860
 40
3.259691
 40
3.805580
 40
4.343723
 40
4.889723
 40
5.435723
 40
5.973866
 40
6.519755
 40
7.065586
 40
7.603583
 40
8.149414
 40
8.695303
 40
9.233446
 40
9.779446
 40
9.779446
 40
9.779446
 40
9.779446
 10
349.268970
 20
93.671870
 30
0.0
 10
349.250284
 20
93.488942
 30
0.0
 10
349.213180
 20
93.125719
 30
0.0
 10
348.925303
 20
92.645694
 30
0.0
 10
348.503780
 20
92.288792
 30
0.0
 10
347.981783
 20
92.099495
 30
0.0
 10
347.427877
 20
92.099495
 30
0.0
 10
346.906611
 20
92.288792
 30
0.0
 10
346.482170
 20
92.645694
 30
0.0
 10
346.205137
 20
93.125719
 30
0.0
 10
346.108414
 20
93.671870
 30
0.0
 10
346.205137
 20
94.218021
 30
0.0
 10
346.482170
 20
94.698046
 30
0.0
 10
346.906611
 20
95.054948
 30
0.0
 10
347.427877
 20
95.244245
 30
0.0
 10
347.981783
 20
95.244245
 30
0.0
 10
348.503780
 20
95.054948
 30
0.0
 10
348.925303
 20
94.698046
 30
0.0
 10
349.213180
 20
94.218021
 30
0.0
 10
349.250284
 20
93.854798
 30
0.0
 10
349.268970
 20
93.671870
 30
0.0
 11
349.268970
 21
93.671870
 31
0.0
 11
349.173758
 21
93.134236
 31
0.0
 11
348.904760
 21
92.668148
 31
0.0
 11
348.486930
 21
92.316846
 31
0.0
 11
347.973888
 21
92.130514
 31
0.0
 11
347.435892
 21
92.130514
 31
0.0
 11
346.922850
 21
92.316846
 31
0.0
 11
346.505020
 21
92.668148
 31
0.0
 11
346.236022
 21
93.134236
 31
0.0
 11
346.140810
 21
93.671870
 31
0.0
 11
346.236022
 21
94.209504
 31
0.0
 11
346.505020
 21
94.675592
 31
0.0
 11
346.922850
 21
95.026894
 31
0.0
 11
347.435892
 21
95.213226
 31
0.0
 11
347.973888
 21
95.213226
 31
0.0
 11
348.486930
 21
95.026894
 31
0.0
 11
348.904760
 21
94.675592
 31
0.0
 11
349.173758
 21
94.209504
 31
0.0
 11
349.268970
 21
93.671870
 31
0.0
  0
LINE
  5
108
100
AcDbEntity
  8
Layer_1
 62
2
100
AcDbLine
 10
130.193970
 20
93.671870
 30
0.0
 11
130.193970
 21
93.671870
 31
0.0
  0
SPLINE
  5
109
100
AcDbEntity
  8
Layer_1
 62
2
100
AcDbSpline
 70
0
 71
3
 72
19
 73
15
 74
13
 40
0.000000
 40
0.000000
 40
0.000000
 40
0.000000
 40
0.818070
 40
1.611752
 40
2.429566
 40
3.247379
 40
4.041061
 40
4.859131
 40
5.677201
 40
6.470883
 40
7.288697
 40
8.106510
 40
8.900192
 40
9.718262
 40
9.718262
 40
9.718262
 40
9.718262
 10
130.193970
 20
93.671870
 30
0.0
 10
130.150988
 20
93.396056
 30
0.0
 10
130.066305
 20
92.852650
 30
0.0
 10
129.443660
 20
92.254310
 30
0.0
 10
128.631325
 20
92.032577
 30
0.0
 10
127.810466
 20
92.254310
 30
0.0
 10
127.212890
 20
92.852650
 30
0.0
 10
126.991157
 20
93.671870
 30
0.0
 10
127.212890
 20
94.491090
 30
0.0
 10
127.810466
 20
95.089430
 30
0.0
 10
128.631325
 20
95.311163
 30
0.0
 10
129.443660
 20
95.089430
 30
0.0
 10
130.066305
 20
94.491090
 30
0.0
 10
130.150988
 20
93.947684
 30
0.0
 10
130.193970
 20
93.671870
 30
0.0
 11
130.193970
 21
93.671870
 31
0.0
 11
129.980427
 21
92.882163
 31
0.0
 11
129.419311
 21
92.320843
 31
0.0
 11
128.629890
 21
92.107223
 31
0.0
 11
127.840469
 21
92.320843
 31
0.0
 11
127.279353
 21
92.882163
 31
0.0
 11
127.065810
 21
93.671870
 31
0.0
 11
127.279353
 21
94.461577
 31
0.0
 11
127.840469
 21
95.022897
 31
0.0
 11
128.629890
 21
95.236517
 31
0.0
 11
129.419311
 21
95.022897
 31
0.0
 11
129.980427
 21
94.461577
 31
0.0
 11
130.193970
 21
93.671870
 31
0.0
  0
LINE
  5
10a
100
AcDbEntity
  8
Layer_1
 62
2
100
AcDbLine
 10
354.031470
 20
209.496877
 30
0.0
 11
354.031470
 21
209.496877
 31
0.0
  0
SPLINE
  5
10b
100
AcDbEntity
  8
Layer_1
 62
2
100
AcDbSpline
 70
0
 71
3
 72
22
 73
18
 74
16
 40
0.000000
 40
0.000000
 40
0.000000
 40
0.000000
 40
0.818070
 40
1.611752
 40
2.429565
 40
3.247379
 40
4.041061
 40
4.859131
 40
5.405131
 40
5.943274
 40
6.489163
 40
7.034994
 40
7.572991
 40
8.118822
 40
8.664711
 40
9.202854
 40
9.748854
 40
9.748854
 40
9.748854
 40
9.748854
 10
354.031470
 20
209.496877
 30
0.0
 10
353.988488
 20
209.221062
 30
0.0
 10
353.903804
 20
208.677655
 30
0.0
 10
353.281164
 20
208.079326
 30
0.0
 10
352.468810
 20
207.857550
 30
0.0
 10
351.648021
 20
208.079445
 30
0.0
 10
351.050190
 20
208.677190
 30
0.0
 10
350.854148
 20
209.406698
 30
0.0
 10
350.967772
 20
210.042816
 30
0.0
 10
351.244634
 20
210.523110
 30
0.0
 10
351.669121
 20
210.879940
 30
0.0
 10
352.190374
 20
211.069256
 30
0.0
 10
352.744284
 20
211.069251
 30
0.0
 10
353.266280
 20
210.879956
 30
0.0
 10
353.687803
 20
210.523053
 30
0.0
 10
353.975680
 20
210.043028
 30
0.0
 10
354.012784
 20
209.679805
 30
0.0
 10
354.031470
 20
209.496877
 30
0.0
 11
354.031470
 21
209.496877
 31
0.0
 11
353.817927
 21
208.707170
 31
0.0
 11
353.256811
 21
208.145850
 31
0.0
 11
352.467390
 21
207.932230
 31
0.0
 11
351.677969
 21
208.145850
 31
0.0
 11
351.116853
 21
208.707170
 31
0.0
 11
350.903310
 21
209.496877
 31
0.0
 11
350.998522
 21
210.034511
 31
0.0
 11
351.267520
 21
210.500599
 31
0.0
 11
351.685350
 21
210.851901
 31
0.0
 11
352.198392
 21
211.038233
 31
0.0
 11
352.736388
 21
211.038233
 31
0.0
 11
353.249430
 21
210.851901
 31
0.0
 11
353.667260
 21
210.500599
 31
0.0
 11
353.936258
 21
210.034511
 31
0.0
 11
354.031470
 21
209.496877
 31
0.0
  0
LINE
  5
10c
100
AcDbEntity
  8
Layer_1
 62
2
100
AcDbLine
 10
101.856490
 20
209.496877
 30
0.0
 11
101.856490
 21
209.496877
 31
0.0
  0
SPLINE
  5
10d
100
AcDbEntity
  8
Layer_1
 62
2
100
AcDbSpline
 70
0
 71
3
 72
25
 73
21
 74
19
 40
0.000000
 40
0.000000
 40
0.000000
 40
0.000000
 40
0.545816
 40
1.083821
 40
1.629636
 40
2.175452
 40
2.713457
 40
3.259273
 40
3.805088
 40
4.343093
 40
4.888909
 40
5.434725
 40
5.972730
 40
6.518546
 40
7.064361
 40
7.602366
 40
8.148182
 40
8.693997
 40
9.232002
 40
9.777818
 40
9.777818
 40
9.777818
 40
9.777818
 10
101.856490
 20
209.496877
 30
0.0
 10
101.837802
 20
209.314010
 30
0.0
 10
101.800694
 20
208.950894
 30
0.0
 10
101.512795
 20
208.471031
 30
0.0
 10
101.091262
 20
208.114265
 30
0.0
 10
100.569272
 20
207.925048
 30
0.0
 10
100.015382
 20
207.925048
 30
0.0
 10
99.494124
 20
208.114265
 30
0.0
 10
99.069671
 20
208.471031
 30
0.0
 10
98.792618
 20
208.950894
 30
0.0
 10
98.695885
 20
209.496877
 30
0.0
 10
98.792618
 20
210.042860
 30
0.0
 10
99.069671
 20
210.522723
 30
0.0
 10
99.494124
 20
210.879489
 30
0.0
 10
100.015382
 20
211.068706
 30
0.0
 10
100.569272
 20
211.068706
 30
0.0
 10
101.091262
 20
210.879489
 30
0.0
 10
101.512795
 20
210.522723
 30
0.0
 10
101.800694
 20
210.042860
 30
0.0
 10
101.837802
 20
209.679744
 30
0.0
 10
101.856490
 20
209.496877
 30
0.0
 11
101.856490
 21
209.496877
 31
0.0
 11
101.761277
 21
208.959430
 31
0.0
 11
101.492275
 21
208.493504
 31
0.0
 11
101.074438
 21
208.142323
 31
0.0
 11
100.561389
 21
207.956057
 31
0.0
 11
100.023385
 21
207.956057
 31
0.0
 11
99.510335
 21
208.142323
 31
0.0
 11
99.092499
 21
208.493504
 31
0.0
 11
98.823497
 21
208.959430
 31
0.0
 11
98.728284
 21
209.496877
 31
0.0
 11
98.823497
 21
210.034324
 31
0.0
 11
99.092499
 21
210.500250
 31
0.0
 11
99.510335
 21
210.851431
 31
0.0
 11
100.023385
 21
211.037697
 31
0.0
 11
100.561389
 21
211.037697
 31
0.0
 11
101.074438
 21
210.851431
 31
0.0
 11
101.492275
 21
210.500250
 31
0.0
 11
101.761277
 21
210.034324
 31
0.0
 11
101.856490
 21
209.496877
 31
0.0
  0
LINE
  5
10e
100
AcDbEntity
  8
Layer_1
 62
2
100
AcDbLine
 10
377.606470
 20
93.671870
 30
0.0
 11
377.606470
 21
93.671870
 31
0.0
  0
SPLINE
  5
10f
100
AcDbEntity
  8
Layer_1
 62
2
100
AcDbSpline
 70
0
 71
3
 72
25
 73
21
 74
19
 40
0.000000
 40
0.000000
 40
0.000000
 40
0.000000
 40
0.546000
 40
1.084143
 40
1.630032
 40
2.175863
 40
2.713860
 40
3.259691
 40
3.805580
 40
4.343723
 40
4.889723
 40
5.435723
 40
5.973866
 40
6.519755
 40
7.065586
 40
7.603583
 40
8.149414
 40
8.695303
 40
9.233446
 40
9.779446
 40
9.779446
 40
9.779446
 40
9.779446
 10
377.606470
 20
93.671870
 30
0.0
 10
377.587784
 20
93.488942
 30
0.0
 10
377.550680
 20
93.125719
 30
0.0
 10
377.262803
 20
92.645694
 30
0.0
 10
376.841280
 20
92.288792
 30
0.0
 10
376.319283
 20
92.099495
 30
0.0
 10
375.765377
 20
92.099495
 30
0.0
 10
375.244111
 20
92.288792
 30
0.0
 10
374.819670
 20
92.645694
 30
0.0
 10
374.542637
 20
93.125719
 30
0.0
 10
374.445914
 20
93.671870
 30
0.0
 10
374.542637
 20
94.218021
 30
0.0
 10
374.819670
 20
94.698046
 30
0.0
 10
375.244111
 20
95.054948
 30
0.0
 10
375.765377
 20
95.244245
 30
0.0
 10
376.319283
 20
95.244245
 30
0.0
 10
376.841280
 20
95.054948
 30
0.0
 10
377.262803
 20
94.698046
 30
0.0
 10
377.550680
 20
94.218021
 30
0.0
 10
377.587784
 20
93.854798
 30
0.0
 10
377.606470
 20
93.671870
 30
0.0
 11
377.606470
 21
93.671870
 31
0.0
 11
377.511258
 21
93.134236
 31
0.0
 11
377.242260
 21
92.668148
 31
0.0
 11
376.824430
 21
92.316846
 31
0.0
 11
376.311388
 21
92.130514
 31
0.0
 11
375.773392
 21
92.130514
 31
0.0
 11
375.260350
 21
92.316846
 31
0.0
 11
374.842520
 21
92.668148
 31
0.0
 11
374.573522
 21
93.134236
 31
0.0
 11
374.478310
 21
93.671870
 31
0.0
 11
374.573522
 21
94.209504
 31
0.0
 11
374.842520
 21
94.675592
 31
0.0
 11
375.260350
 21
95.026894
 31
0.0
 11
375.773392
 21
95.213226
 31
0.0
 11
376.311388
 21
95.213226
 31
0.0
 11
376.824430
 21
95.026894
 31
0.0
 11
377.242260
 21
94.675592
 31
0.0
 11
377.511258
 21
94.209504
 31
0.0
 11
377.606470
 21
93.671870
 31
0.0
  0
LINE
  5
110
100
AcDbEntity
  8
Layer_1
 62
2
100
AcDbLine
 10
101.856490
 20
93.671870
 30
0.0
 11
101.856490
 21
93.671870
 31
0.0
  0
SPLINE
  5
111
100
AcDbEntity
  8
Layer_1
 62
2
100
AcDbSpline
 70
0
 71
3
 72
25
 73
21
 74
19
 40
0.000000
 40
0.000000
 40
0.000000
 40
0.000000
 40
0.545816
 40
1.083821
 40
1.629637
 40
2.175452
 40
2.713457
 40
3.259273
 40
3.805089
 40
4.343093
 40
4.888909
 40
5.434725
 40
5.972730
 40
6.518546
 40
7.064362
 40
7.602366
 40
8.148182
 40
8.693998
 40
9.232002
 40
9.777818
 40
9.777818
 40
9.777818
 40
9.777818
 10
101.856490
 20
93.671870
 30
0.0
 10
101.837802
 20
93.489003
 30
0.0
 10
101.800694
 20
93.125887
 30
0.0
 10
101.512795
 20
92.646024
 30
0.0
 10
101.091262
 20
92.289258
 30
0.0
 10
100.569272
 20
92.100041
 30
0.0
 10
100.015382
 20
92.100041
 30
0.0
 10
99.494124
 20
92.289258
 30
0.0
 10
99.069671
 20
92.646024
 30
0.0
 10
98.792618
 20
93.125887
 30
0.0
 10
98.695885
 20
93.671870
 30
0.0
 10
98.792618
 20
94.217853
 30
0.0
 10
99.069671
 20
94.697716
 30
0.0
 10
99.494124
 20
95.054482
 30
0.0
 10
100.015382
 20
95.243699
 30
0.0
 10
100.569272
 20
95.243699
 30
0.0
 10
101.091262
 20
95.054482
 30
0.0
 10
101.512795
 20
94.697716
 30
0.0
 10
101.800694
 20
94.217853
 30
0.0
 10
101.837802
 20
93.854737
 30
0.0
 10
101.856490
 20
93.671870
 30
0.0
 11
101.856490
 21
93.671870
 31
0.0
 11
101.761277
 21
93.134423
 31
0.0
 11
101.492275
 21
92.668497
 31
0.0
 11
101.074438
 21
92.317316
 31
0.0
 11
100.561389
 21
92.131050
 31
0.0
 11
100.023385
 21
92.131050
 31
0.0
 11
99.510335
 21
92.317316
 31
0.0
 11
99.092499
 21
92.668497
 31
0.0
 11
98.823497
 21
93.134423
 31
0.0
 11
98.728284
 21
93.671870
 31
0.0
 11
98.823497
 21
94.209317
 31
0.0
 11
99.092499
 21
94.675243
 31
0.0
 11
99.510335
 21
95.026424
 31
0.0
 11
100.023385
 21
95.212690
 31
0.0
 11
100.561389
 21
95.212690
 31
0.0
 11
101.074438
 21
95.026424
 31
0.0
 11
101.492275
 21
94.675243
 31
0.0
 11
101.761277
 21
94.209317
 31
0.0
 11
101.856490
 21
93.671870
 31
0.0
  0
LINE
  5
112
100
AcDbEntity
  8
Layer_1
 62
2
100
AcDbLine
 10
377.606470
 20
209.496877
 30
0.0
 11
377.606470
 21
209.496877
 31
0.0
  0
SPLINE
  5
113
100
AcDbEntity
  8
Layer_1
 62
2
100
AcDbSpline
 70
0
 71
3
 72
25
 73
21
 74
19
 40
0.000000
 40
0.000000
 40
0.000000
 40
0.000000
 40
0.546000
 40
1.084143
 40
1.630032
 40
2.175863
 40
2.713860
 40
3.259691
 40
3.805580
 40
4.343723
 40
4.889723
 40
5.435723
 40
5.973866
 40
6.519755
 40
7.065586
 40
7.603583
 40
8.149414
 40
8.695303
 40
9.233446
 40
9.779446
 40
9.779446
 40
9.779446
 40
9.779446
 10
377.606470
 20
209.496877
 30
0.0
 10
377.587784
 20
209.313949
 30
0.0
 10
377.550680
 20
208.950726
 30
0.0
 10
377.262803
 20
208.470701
 30
0.0
 10
376.841280
 20
208.113799
 30
0.0
 10
376.319283
 20
207.924502
 30
0.0
 10
375.765377
 20
207.924502
 30
0.0
 10
375.244111
 20
208.113799
 30
0.0
 10
374.819670
 20
208.470701
 30
0.0
 10
374.542637
 20
208.950726
 30
0.0
 10
374.445914
 20
209.496877
 30
0.0
 10
374.542637
 20
210.043028
 30
0.0
 10
374.819670
 20
210.523053
 30
0.0
 10
375.244111
 20
210.879955
 30
0.0
 10
375.765377
 20
211.069252
 30
0.0
 10
376.319283
 20
211.069252
 30
0.0
 10
376.841280
 20
210.879955
 30
0.0
 10
377.262803
 20
210.523053
 30
0.0
 10
377.550680
 20
210.043028
 30
0.0
 10
377.587784
 20
209.679805
 30
0.0
 10
377.606470
 20
209.496877
 30
0.0
 11
377.606470
 21
209.496877
 31
0.0
 11
377.511258
 21
208.959243
 31
0.0
 11
377.242260
 21
208.493155
 31
0.0
 11
376.824430
 21
208.141853
 31
0.0
 11
376.311388
 21
207.955521
 31
0.0
 11
375.773392
 21
207.955521
 31
0.0
 11
375.260350
 21
208.141853
 31
0.0
 11
374.842520
 21
208.493155
 31
0.0
 11
374.573522
 21
208.959243
 31
0.0
 11
374.478310
 21
209.496877
 31
0.0
 11
374.573522
 21
210.034511
 31
0.0
 11
374.842520
 21
210.500599
 31
0.0
 11
375.260350
 21
210.851901
 31
0.0
 11
375.773392
 21
211.038233
 31
0.0
 11
376.311388
 21
211.038233
 31
0.0
 11
376.824430
 21
210.851901
 31
0.0
 11
377.242260
 21
210.500599
 31
0.0
 11
377.511258
 21
210.034511
 31
0.0
 11
377.606470
 21
209.496877
 31
0.0
  0
LINE
  5
114
100
AcDbEntity
  8
Layer_1
 62
2
100
AcDbLine
 10
239.731470
 20
209.496877
 30
0.0
 11
239.731470
 21
209.496877
 31
0.0
  0
SPLINE
  5
115
100
AcDbEntity
  8
Layer_1
 62
2
100
AcDbSpline
 70
0
 71
3
 72
25
 73
21
 74
19
 40
0.000000
 40
0.000000
 40
0.000000
 40
0.000000
 40
0.546000
 40
1.084143
 40
1.630032
 40
2.175863
 40
2.713860
 40
3.259691
 40
3.805580
 40
4.343723
 40
4.889723
 40
5.435723
 40
5.973866
 40
6.519755
 40
7.065586
 40
7.603583
 40
8.149414
 40
8.695303
 40
9.233446
 40
9.779446
 40
9.779446
 40
9.779446
 40
9.779446
 10
239.731470
 20
209.496877
 30
0.0
 10
239.712784
 20
209.313949
 30
0.0
 10
239.675680
 20
208.950726
 30
0.0
 10
239.387803
 20
208.470701
 30
0.0
 10
238.966280
 20
208.113799
 30
0.0
 10
238.444283
 20
207.924502
 30
0.0
 10
237.890377
 20
207.924502
 30
0.0
 10
237.369111
 20
208.113799
 30
0.0
 10
236.944670
 20
208.470701
 30
0.0
 10
236.667637
 20
208.950726
 30
0.0
 10
236.570914
 20
209.496877
 30
0.0
 10
236.667637
 20
210.043028
 30
0.0
 10
236.944670
 20
210.523053
 30
0.0
 10
237.369111
 20
210.879955
 30
0.0
 10
237.890377
 20
211.069252
 30
0.0
 10
238.444283
 20
211.069252
 30
0.0
 10
238.966280
 20
210.879955
 30
0.0
 10
239.387803
 20
210.523053
 30
0.0
 10
239.675680
 20
210.043028
 30
0.0
 10
239.712784
 20
209.679805
 30
0.0
 10
239.731470
 20
209.496877
 30
0.0
 11
239.731470
 21
209.496877
 31
0.0
 11
239.636258
 21
208.959243
 31
0.0
 11
239.367260
 21
208.493155
 31
0.0
 11
238.949430
 21
208.141853
 31
0.0
 11
238.436388
 21
207.955521
 31
0.0
 11
237.898392
 21
207.955521
 31
0.0
 11
237.385350
 21
208.141853
 31
0.0
 11
236.967520
 21
208.493155
 31
0.0
 11
236.698522
 21
208.959243
 31
0.0
 11
236.603310
 21
209.496877
 31
0.0
 11
236.698522
 21
210.034511
 31
0.0
 11
236.967520
 21
210.500599
 31
0.0
 11
237.385350
 21
210.851901
 31
0.0
 11
237.898392
 21
211.038233
 31
0.0
 11
238.436388
 21
211.038233
 31
0.0
 11
238.949430
 21
210.851901
 31
0.0
 11
239.367260
 21
210.500599
 31
0.0
 11
239.636258
 21
210.034511
 31
0.0
 11
239.731470
 21
209.496877
 31
0.0
  0
LINE
  5
116
100
AcDbEntity
  8
Layer_1
 62
2
100
AcDbLine
 10
101.856490
 20
181.001870
 30
0.0
 11
101.856490
 21
181.001870
 31
0.0
  0
SPLINE
  5
117
100
AcDbEntity
  8
Layer_1
 62
2
100
AcDbSpline
 70
0
 71
3
 72
25
 73
21
 74
19
 40
0.000000
 40
0.000000
 40
0.000000
 40
0.000000
 40
0.545816
 40
1.083821
 40
1.629637
 40
2.175452
 40
2.713457
 40
3.259273
 40
3.805089
 40
4.343093
 40
4.888909
 40
5.434725
 40
5.972730
 40
6.518546
 40
7.064362
 40
7.602366
 40
8.148182
 40
8.693998
 40
9.232002
 40
9.777818
 40
9.777818
 40
9.777818
 40
9.777818
 10
101.856490
 20
181.001870
 30
0.0
 10
101.837802
 20
180.819003
 30
0.0
 10
101.800694
 20
180.455887
 30
0.0
 10
101.512795
 20
179.976024
 30
0.0
 10
101.091262
 20
179.619258
 30
0.0
 10
100.569272
 20
179.430041
 30
0.0
 10
100.015382
 20
179.430041
 30
0.0
 10
99.494124
 20
179.619258
 30
0.0
 10
99.069671
 20
179.976024
 30
0.0
 10
98.792618
 20
180.455887
 30
0.0
 10
98.695885
 20
181.001870
 30
0.0
 10
98.792618
 20
181.547853
 30
0.0
 10
99.069671
 20
182.027716
 30
0.0
 10
99.494124
 20
182.384482
 30
0.0
 10
100.015382
 20
182.573699
 30
0.0
 10
100.569272
 20
182.573699
 30
0.0
 10
101.091262
 20
182.384482
 30
0.0
 10
101.512795
 20
182.027716
 30
0.0
 10
101.800694
 20
181.547853
 30
0.0
 10
101.837802
 20
181.184737
 30
0.0
 10
101.856490
 20
181.001870
 30
0.0
 11
101.856490
 21
181.001870
 31
0.0
 11
101.761277
 21
180.464423
 31
0.0
 11
101.492275
 21
179.998497
 31
0.0
 11
101.074438
 21
179.647316
 31
0.0
 11
100.561389
 21
179.461050
 31
0.0
 11
100.023385
 21
179.461050
 31
0.0
 11
99.510335
 21
179.647316
 31
0.0
 11
99.092499
 21
179.998497
 31
0.0
 11
98.823497
 21
180.464423
 31
0.0
 11
98.728284
 21
181.001870
 31
0.0
 11
98.823497
 21
181.539317
 31
0.0
 11
99.092499
 21
182.005243
 31
0.0
 11
99.510335
 21
182.356424
 31
0.0
 11
100.023385
 21
182.542690
 31
0.0
 11
100.561389
 21
182.542690
 31
0.0
 11
101.074438
 21
182.356424
 31
0.0
 11
101.492275
 21
182.005243
 31
0.0
 11
101.761277
 21
181.539317
 31
0.0
 11
101.856490
 21
181.001870
 31
0.0
  0
LINE
  5
118
100
AcDbEntity
  8
Layer_1
 62
2
100
AcDbLine
 10
377.606470
 20
181.001870
 30
0.0
 11
377.606470
 21
181.001870
 31
0.0
  0
LINE
  5
119
100
AcDbEntity
  8
Layer_1
 62
2
100
AcDbLine
 10
366.359870
 20
99.675050
 30
0.0
 11
371.102260
 21
99.675050
 31
0.0
  0
SPLINE
  5
11a
100
AcDbEntity
  8
Layer_1
 62
2
100
AcDbSpline
 70
0
 71
3
 72
25
 73
21
 74
19
 40
0.000000
 40
0.000000
 40
0.000000
 40
0.000000
 40
0.546000
 40
1.084143
 40
1.630032
 40
2.175863
 40
2.713860
 40
3.259691
 40
3.805580
 40
4.343723
 40
4.889723
 40
5.435723
 40
5.973866
 40
6.519755
 40
7.065586
 40
7.603583
 40
8.149414
 40
8.695303
 40
9.233446
 40
9.779446
 40
9.779446
 40
9.779446
 40
9.779446
 10
377.606470
 20
181.001870
 30
0.0
 10
377.587784
 20
180.818942
 30
0.0
 10
377.550680
 20
180.455719
 30
0.0
 10
377.262803
 20
179.975694
 30
0.0
 10
376.841280
 20
179.618792
 30
0.0
 10
376.319283
 20
179.429495
 30
0.0
 10
375.765377
 20
179.429495
 30
0.0
 10
375.244111
 20
179.618792
 30
0.0
 10
374.819670
 20
179.975694
 30
0.0
 10
374.542637
 20
180.455719
 30
0.0
 10
374.445914
 20
181.001870
 30
0.0
 10
374.542637
 20
181.548021
 30
0.0
 10
374.819670
 20
182.028046
 30
0.0
 10
375.244111
 20
182.384948
 30
0.0
 10
375.765377
 20
182.574245
 30
0.0
 10
376.319283
 20
182.574245
 30
0.0
 10
376.841280
 20
182.384948
 30
0.0
 10
377.262803
 20
182.028046
 30
0.0
 10
377.550680
 20
181.548021
 30
0.0
 10
377.587784
 20
181.184798
 30
0.0
 10
377.606470
 20
181.001870
 30
0.0
 11
377.606470
 21
181.001870
 31
0.0
 11
377.511258
 21
180.464236
 31
0.0
 11
377.242260
 21
179.998148
 31
0.0
 11
376.824430
 21
179.646846
 31
0.0
 11
376.311388
 21
179.460514
 31
0.0
 11
375.773392
 21
179.460514
 31
0.0
 11
375.260350
 21
179.646846
 31
0.0
 11
374.842520
 21
179.998148
 31
0.0
 11
374.573522
 21
180.464236
 31
0.0
 11
374.478310
 21
181.001870
 31
0.0
 11
374.573522
 21
181.539504
 31
0.0
 11
374.842520
 21
182.005592
 31
0.0
 11
375.260350
 21
182.356894
 31
0.0
 11
375.773392
 21
182.543226
 31
0.0
 11
376.311388
 21
182.543226
 31
0.0
 11
376.824430
 21
182.356894
 31
0.0
 11
377.242260
 21
182.005592
 31
0.0
 11
377.511258
 21
181.539504
 31
0.0
 11
377.606470
 21
181.001870
 31
0.0
  0
LINE
  5
11b
100
AcDbEntity
  8
Layer_1
 62
2
100
AcDbLine
 10
362.539550
 20
99.671880
 30
0.0
 11
366.279960
 21
99.671880
 31
0.0
  0
LINE
  5
11c
100
AcDbEntity
  8
Layer_1
 62
2
100
AcDbLine
 10
309.594310
 20
99.578740
 30
0.0
 11
362.539550
 21
99.671840
 31
0.0
  0
SPLINE
  5
11d
100
AcDbEntity
  8
Layer_1
 62
2
100
AcDbSpline
 70
0
 71
3
 72
10
 73
6
 74
4
 40
0.000000
 40
0.000000
 40
0.000000
 40
0.000000
 40
0.026659
 40
0.053316
 40
0.079975
 40
0.079975
 40
0.079975
 40
0.079975
 10
366.359820
 20
99.675070
 30
0.0
 10
366.350955
 20
99.674453
 30
0.0
 10
366.333225
 20
99.673218
 30
0.0
 10
366.306579
 20
99.672218
 30
0.0
 10
366.288807
 20
99.672119
 30
0.0
 10
366.279920
 20
99.672070
 30
0.0
 11
366.359820
 21
99.675070
 31
0.0
 11
366.333216
 21
99.673360
 31
0.0
 11
366.306578
 21
99.672360
 31
0.0
 11
366.279920
 21
99.672070
 31
0.0
  0
LINE
  5
11e
100
AcDbEntity
  8
Layer_1
 62
2
100
AcDbLine
 10
307.738780
 20
97.026310
 30
0.0
 11
307.738780
 21
97.723750
 31
0.0
  0
SPLINE
  5
11f
100
AcDbEntity
  8
Layer_1
 62
2
100
AcDbSpline
 70
0
 71
3
 72
13
 73
9
 74
7
 40
0.000000
 40
0.000000
 40
0.000000
 40
0.000000
 40
0.485698
 40
0.967375
 40
1.453072
 40
1.938770
 40
2.420447
 40
2.906144
 40
2.906144
 40
2.906144
 40
2.906144
 10
307.738690
 20
97.723680
 30
0.0
 10
307.751060
 20
97.886052
 30
0.0
 10
307.775697
 20
98.209453
 30
0.0
 10
307.970405
 20
98.661867
 30
0.0
 10
308.266630
 20
99.051176
 30
0.0
 10
308.656015
 20
99.347303
 30
0.0
 10
309.108477
 20
99.541896
 30
0.0
 10
309.431884
 20
99.566451
 30
0.0
 10
309.594260
 20
99.578780
 30
0.0
 11
307.738690
 21
97.723680
 31
0.0
 11
307.802265
 21
98.205199
 31
0.0
 11
307.986622
 21
98.650199
 31
0.0
 11
308.282199
 21
99.035603
 31
0.0
 11
308.667678
 21
99.331083
 31
0.0
 11
309.112725
 21
99.515327
 31
0.0
 11
309.594260
 21
99.578780
 31
0.0
  0
LINE
  5
120
100
AcDbEntity
  8
Layer_1
 62
2
100
AcDbLine
 10
171.490010
 20
94.119070
 30
0.0
 11
304.831540
 21
94.119070
 31
0.0
  0
SPLINE
  5
121
100
AcDbEntity
  8
Layer_1
 62
2
100
AcDbSpline
 70
0
 71
3
 72
10
 73
6
 74
4
 40
0.000000
 40
0.000000
 40
0.000000
 40
0.000000
 40
1.520002
 40
2.994922
 40
4.514925
 40
4.514925
 40
4.514925
 40
4.514925
 10
307.738690
 20
97.026270
 30
0.0
 10
307.658728
 20
96.516872
 30
0.0
 10
307.501177
 20
95.513184
 30
0.0
 10
306.344676
 20
94.356683
 30
0.0
 10
305.340988
 20
94.199132
 30
0.0
 10
304.831590
 20
94.119170
 30
0.0
 11
307.738690
 21
97.026270
 31
0.0
 11
307.341783
 21
95.559003
 31
0.0
 11
306.298857
 21
94.516077
 31
0.0
 11
304.831590
 21
94.119170
 31
0.0
  0
LINE
  5
122
100
AcDbEntity
  8
Layer_1
 62
2
100
AcDbLine
 10
168.582770
 20
97.820060
 30
0.0
 11
168.582770
 21
97.026310
 31
0.0
  0
SPLINE
  5
123
100
AcDbEntity
  8
Layer_1
 62
2
100
AcDbSpline
 70
0
 71
3
 72
13
 73
9
 74
7
 40
0.000000
 40
0.000000
 40
0.000000
 40
0.000000
 40
0.761006
 40
1.515715
 40
2.276722
 40
3.037728
 40
3.792437
 40
4.553444
 40
4.553444
 40
4.553444
 40
4.553444
 10
171.489990
 20
94.119170
 30
0.0
 10
171.235580
 20
94.138549
 30
0.0
 10
170.728865
 20
94.177146
 30
0.0
 10
170.019993
 20
94.482173
 30
0.0
 10
169.409963
 20
94.946243
 30
0.0
 10
168.945893
 20
95.556273
 30
0.0
 10
168.640866
 20
96.265145
 30
0.0
 10
168.602269
 20
96.771860
 30
0.0
 10
168.582890
 20
97.026270
 30
0.0
 11
171.489990
 21
94.119170
 31
0.0
 11
170.735529
 21
94.218767
 31
0.0
 11
170.038269
 21
94.507580
 31
0.0
 11
169.434357
 21
94.970637
 31
0.0
 11
168.971300
 21
95.574549
 31
0.0
 11
168.682487
 21
96.271809
 31
0.0
 11
168.582890
 21
97.026270
 31
0.0
  0
LINE
  5
124
100
AcDbEntity
  8
Layer_1
 62
2
100
AcDbLine
 10
105.219290
 20
99.675050
 30
0.0
 11
166.727770
 21
99.675050
 31
0.0
  0
SPLINE
  5
125
100
AcDbEntity
  8
Layer_1
 62
2
100
AcDbSpline
 70
0
 71
3
 72
13
 73
9
 74
7
 40
0.000000
 40
0.000000
 40
0.000000
 40
0.000000
 40
0.485619
 40
0.967220
 40
1.452839
 40
1.938458
 40
2.420059
 40
2.905678
 40
2.905678
 40
2.905678
 40
2.905678
 10
166.727790
 20
99.675070
 30
0.0
 10
166.890136
 20
99.662704
 30
0.0
 10
167.213485
 20
99.638075
 30
0.0
 10
167.665836
 20
99.443429
 30
0.0
 10
168.055113
 20
99.147293
 30
0.0
 10
168.351249
 20
98.758016
 30
0.0
 10
168.545895
 20
98.305665
 30
0.0
 10
168.570524
 20
97.982316
 30
0.0
 10
168.582890
 20
97.819970
 30
0.0
 11
166.727790
 21
99.675070
 31
0.0
 11
167.209233
 21
99.611515
 31
0.0
 11
167.654174
 21
99.427216
 31
0.0
 11
168.039547
 21
99.131727
 31
0.0
 11
168.335036
 21
98.746354
 31
0.0
 11
168.519335
 21
98.301413
 31
0.0
 11
168.582890
 21
97.819970
 31
0.0
  0
LINE
  5
126
100
AcDbEntity
  8
Layer_1
 62
2
100
AcDbLine
 10
104.316320
 20
126.919510
 30
0.0
 11
104.316320
 21
100.600960
 31
0.0
  0
SPLINE
  5
127
100
AcDbEntity
  8
Layer_1
 62
2
100
AcDbSpline
 70
0
 71
3
 72
10
 73
6
 74
4
 40
0.000000
 40
0.000000
 40
0.000000
 40
0.000000
 40
0.484168
 40
0.953975
 40
1.438142
 40
1.438142
 40
1.438142
 40
1.438142
 10
105.219190
 20
99.675070
 30
0.0
 10
105.056931
 20
99.700540
 30
0.0
 10
104.737225
 20
99.750724
 30
0.0
 10
104.368844
 20
100.119105
 30
0.0
 10
104.318660
 20
100.438811
 30
0.0
 10
104.293190
 20
100.601070
 30
0.0
 11
105.219190
 21
99.675070
 31
0.0
 11
104.751820
 21
99.801496
 31
0.0
 11
104.419616
 21
100.133700
 31
0.0
 11
104.293190
 21
100.601070
 31
0.0
  0
LINE
  5
128
100
AcDbEntity
  8
Layer_1
 62
2
100
AcDbLine
 10
104.315530
 20
204.495967
 30
0.0
 11
104.315530
 21
126.974260
 31
0.0
  0
SPLINE
  5
129
100
AcDbEntity
  8
Layer_1
 62
2
100
AcDbSpline
 70
0
 71
3
 72
10
 73
6
 74
4
 40
0.000000
 40
0.000000
 40
0.000000
 40
0.000000
 40
0.018400
 40
0.036803
 40
0.055207
 40
0.055207
 40
0.055207
 40
0.055207
 10
104.316260
 20
146.628700
 30
0.0
 10
104.316101
 20
146.634831
 30
0.0
 10
104.315783
 20
146.647095
 30
0.0
 10
104.315520
 20
146.665496
 30
0.0
 10
104.315487
 20
146.677765
 30
0.0
 10
104.315470
 20
146.683900
 30
0.0
 11
104.316260
 21
146.628700
 31
0.0
 11
104.315819
 21
146.647095
 31
0.0
 11
104.315555
 21
146.665496
 31
0.0
 11
104.315470
 21
146.683900
 31
0.0
  0
SPLINE
  5
12a
100
AcDbEntity
  8
Layer_1
 62
2
100
AcDbSpline
 70
0
 71
3
 72
10
 73
6
 74
4
 40
0.000000
 40
0.000000
 40
0.000000
 40
0.000000
 40
0.107101
 40
0.214049
 40
0.321150
 40
0.321150
 40
0.321150
 40
0.321150
 10
104.292390
 20
204.496867
 30
0.0
 10
104.293540
 20
204.532571
 30
0.0
 10
104.295838
 20
204.603928
 30
0.0
 10
104.313035
 20
204.710001
 30
0.0
 10
104.333400
 20
204.778429
 30
0.0
 10
104.343590
 20
204.812667
 30
0.0
 11
104.292390
 21
204.496867
 31
0.0
 11
104.298134
 21
204.603814
 31
0.0
 11
104.315249
 21
204.709384
 31
0.0
 11
104.343590
 21
204.812667
 31
0.0
  0
LINE
  5
12b
100
AcDbEntity
  8
Layer_1
 62
2
100
AcDbLine
 10
132.416870
 20
205.495957
 30
0.0
 11
105.237550
 21
205.495957
 31
0.0
  0
SPLINE
  5
12c
100
AcDbEntity
  8
Layer_1
 62
2
100
AcDbSpline
 70
0
 71
3
 72
10
 73
6
 74
4
 40
0.000000
 40
0.000000
 40
0.000000
 40
0.000000
 40
0.403171
 40
0.797671
 40
1.200842
 40
1.200842
 40
1.200842
 40
1.200842
 10
104.343560
 20
204.812667
 30
0.0
 10
104.395693
 20
204.938230
 30
0.0
 10
104.498838
 20
205.186654
 30
0.0
 10
104.836015
 20
205.444861
 30
0.0
 10
105.102738
 20
205.479679
 30
0.0
 10
105.237550
 20
205.497277
 30
0.0
 11
104.343560
 21
204.812667
 31
0.0
 11
104.530827
 21
205.169707
 31
0.0
 11
104.844037
 21
205.409561
 31
0.0
 11
105.237550
 21
205.497277
 31
0.0
  0
LINE
  5
12d
100
AcDbEntity
  8
Layer_1
 62
2
100
AcDbLine
 10
134.490680
 20
214.497077
 30
0.0
 11
134.490680
 21
207.570287
 31
0.0
  0
SPLINE
  5
12e
100
AcDbEntity
  8
Layer_1
 62
2
100
AcDbSpline
 70
0
 71
3
 72
10
 73
6
 74
4
 40
0.000000
 40
0.000000
 40
0.000000
 40
0.000000
 40
1.084407
 40
2.136650
 40
3.221057
 40
3.221057
 40
3.221057
 40
3.221057
 10
134.490790
 20
207.571267
 30
0.0
 10
134.433743
 20
207.207850
 30
0.0
 10
134.321341
 20
206.491795
 30
0.0
 10
133.496263
 20
205.666721
 30
0.0
 10
132.780207
 20
205.554322
 30
0.0
 10
132.416790
 20
205.497277
 30
0.0
 11
134.490790
 21
207.571267
 31
0.0
 11
134.207625
 21
206.524484
 31
0.0
 11
133.463575
 21
205.780437
 31
0.0
 11
132.416790
 21
205.497277
 31
0.0
  0
LINE
  5
12f
100
AcDbEntity
  8
Layer_1
 62
2
100
AcDbLine
 10
100.292480
 20
216.497327
 30
0.0
 11
132.490690
 21
216.497327
 31
0.0
  0
SPLINE
  5
130
100
AcDbEntity
  8
Layer_1
 62
2
100
AcDbSpline
 70
0
 71
3
 72
13
 73
9
 74
7
 40
0.000000
 40
0.000000
 40
0.000000
 40
0.000000
 40
0.523551
 40
1.042770
 40
1.566322
 40
2.089873
 40
2.609092
 40
3.132643
 40
3.132643
 40
3.132643
 40
3.132643
 10
132.490790
 20
216.496877
 30
0.0
 10
132.665817
 20
216.483544
 30
0.0
 10
133.014423
 20
216.456990
 30
0.0
 10
133.502106
 20
216.247138
 30
0.0
 10
133.921790
 20
215.927869
 30
0.0
 10
134.241056
 20
215.508185
 30
0.0
 10
134.450905
 20
215.020500
 30
0.0
 10
134.477458
 20
214.671894
 30
0.0
 10
134.490790
 20
214.496867
 30
0.0
 11
132.490790
 21
216.496877
 31
0.0
 11
133.009838
 21
216.428356
 31
0.0
 11
133.489533
 21
216.229658
 31
0.0
 11
133.905007
 21
215.911087
 31
0.0
 11
134.223576
 21
215.495612
 31
0.0
 11
134.422271
 21
215.015915
 31
0.0
 11
134.490790
 21
214.496867
 31
0.0
  0
LINE
  5
131
100
AcDbEntity
  8
Layer_1
 62
2
100
AcDbLine
 10
93.312519
 20
93.671690
 30
0.0
 11
93.312519
 21
209.496697
 31
0.0
  0
SPLINE
  5
132
100
AcDbEntity
  8
Layer_1
 62
2
100
AcDbSpline
 70
0
 71
3
 72
13
 73
9
 74
7
 40
0.000000
 40
0.000000
 40
0.000000
 40
0.000000
 40
1.832425
 40
3.649686
 40
5.482112
 40
7.314537
 40
9.131798
 40
10.964223
 40
10.964223
 40
10.964223
 40
10.964223
 10
93.292384
 20
209.496877
 30
0.0
 10
93.339048
 20
210.109470
 30
0.0
 10
93.431989
 20
211.329587
 30
0.0
 10
94.166466
 20
213.036476
 30
0.0
 10
95.283901
 20
214.505365
 30
0.0
 10
96.752791
 20
215.622798
 30
0.0
 10
98.459680
 20
216.357273
 30
0.0
 10
99.679797
 20
216.450214
 30
0.0
 10
100.292390
 20
216.496877
 30
0.0
 11
93.292384
 21
209.496877
 31
0.0
 11
93.532208
 21
211.313541
 31
0.0
 11
94.227644
 21
212.992471
 31
0.0
 11
95.342639
 21
214.446627
 31
0.0
 11
96.796795
 21
215.561620
 31
0.0
 11
98.475726
 21
216.257055
 31
0.0
 11
100.292390
 21
216.496877
 31
0.0
  0
LINE
  5
133
100
AcDbEntity
  8
Layer_1
 62
2
100
AcDbLine
 10
376.042290
 20
86.671840
 30
0.0
 11
100.292480
 21
86.671840
 31
0.0
  0
SPLINE
  5
134
100
AcDbEntity
  8
Layer_1
 62
2
100
AcDbSpline
 70
0
 71
3
 72
13
 73
9
 74
7
 40
0.000000
 40
0.000000
 40
0.000000
 40
0.000000
 40
1.832425
 40
3.649686
 40
5.482112
 40
7.314537
 40
9.131798
 40
10.964223
 40
10.964223
 40
10.964223
 40
10.964223
 10
100.292390
 20
86.671870
 30
0.0
 10
99.679797
 20
86.718533
 30
0.0
 10
98.459680
 20
86.811474
 30
0.0
 10
96.752791
 20
87.545949
 30
0.0
 10
95.283901
 20
88.663382
 30
0.0
 10
94.166466
 20
90.132271
 30
0.0
 10
93.431989
 20
91.839160
 30
0.0
 10
93.339048
 20
93.059277
 30
0.0
 10
93.292384
 20
93.671870
 30
0.0
 11
100.292390
 21
86.671870
 31
0.0
 11
98.475726
 21
86.911692
 31
0.0
 11
96.796795
 21
87.607127
 31
0.0
 11
95.342639
 21
88.722120
 31
0.0
 11
94.227644
 21
90.176276
 31
0.0
 11
93.532208
 21
91.855206
 31
0.0
 11
93.292384
 21
93.671870
 31
0.0
  0
LINE
  5
135
100
AcDbEntity
  8
Layer_1
 62
2
100
AcDbLine
 10
383.022250
 20
209.496697
 30
0.0
 11
383.022250
 21
93.671690
 31
0.0
  0
SPLINE
  5
136
100
AcDbEntity
  8
Layer_1
 62
2
100
AcDbSpline
 70
0
 71
3
 72
13
 73
9
 74
7
 40
0.000000
 40
0.000000
 40
0.000000
 40
0.000000
 40
1.832424
 40
3.649684
 40
5.482109
 40
7.314533
 40
9.131793
 40
10.964217
 40
10.964217
 40
10.964217
 40
10.964217
 10
383.042390
 20
93.671870
 30
0.0
 10
382.995726
 20
93.059277
 30
0.0
 10
382.902785
 20
91.839161
 30
0.0
 10
382.168309
 20
90.132273
 30
0.0
 10
381.050875
 20
88.663385
 30
0.0
 10
379.581987
 20
87.545951
 30
0.0
 10
377.875099
 20
86.811475
 30
0.0
 10
376.654983
 20
86.718534
 30
0.0
 10
376.042390
 20
86.671870
 30
0.0
 11
383.042390
 21
93.671870
 31
0.0
 11
382.802566
 21
91.855207
 31
0.0
 11
382.107131
 21
90.176278
 31
0.0
 11
380.992137
 21
88.722122
 31
0.0
 11
379.537982
 21
87.607129
 31
0.0
 11
377.859053
 21
86.911694
 31
0.0
 11
376.042390
 21
86.671870
 31
0.0
  0
LINE
  5
137
100
AcDbEntity
  8
Layer_1
 62
2
100
AcDbLine
 10
153.342770
 20
216.497327
 30
0.0
 11
376.042290
 21
216.497327
 31
0.0
  0
SPLINE
  5
138
100
AcDbEntity
  8
Layer_1
 62
2
100
AcDbSpline
 70
0
 71
3
 72
13
 73
9
 74
7
 40
0.000000
 40
0.000000
 40
0.000000
 40
0.000000
 40
1.832424
 40
3.649684
 40
5.482109
 40
7.314533
 40
9.131793
 40
10.964217
 40
10.964217
 40
10.964217
 40
10.964217
 10
376.042390
 20
216.496877
 30
0.0
 10
376.654983
 20
216.450213
 30
0.0
 10
377.875099
 20
216.357272
 30
0.0
 10
379.581987
 20
215.622796
 30
0.0
 10
381.050875
 20
214.505362
 30
0.0
 10
382.168309
 20
213.036474
 30
0.0
 10
382.902785
 20
211.329586
 30
0.0
 10
382.995726
 20
210.109470
 30
0.0
 10
383.042390
 20
209.496877
 30
0.0
 11
376.042390
 21
216.496877
 31
0.0
 11
377.859053
 21
216.257053
 31
0.0
 11
379.537982
 21
215.561618
 31
0.0
 11
380.992137
 21
214.446625
 31
0.0
 11
382.107131
 21
212.992469
 31
0.0
 11
382.802566
 21
211.313540
 31
0.0
 11
383.042390
 21
209.496877
 31
0.0
  0
LINE
  5
139
100
AcDbEntity
  8
Layer_1
 62
2
100
AcDbLine
 10
151.342780
 20
207.570287
 30
0.0
 11
151.342780
 21
214.497077
 31
0.0
  0
SPLINE
  5
13a
100
AcDbEntity
  8
Layer_1
 62
2
100
AcDbSpline
 70
0
 71
3
 72
13
 73
9
 74
7
 40
0.000000
 40
0.000000
 40
0.000000
 40
0.000000
 40
0.523551
 40
1.042770
 40
1.566322
 40
2.089873
 40
2.609092
 40
3.132643
 40
3.132643
 40
3.132643
 40
3.132643
 10
151.342790
 20
214.496867
 30
0.0
 10
151.356122
 20
214.671894
 30
0.0
 10
151.382675
 20
215.020500
 30
0.0
 10
151.592524
 20
215.508185
 30
0.0
 10
151.911790
 20
215.927869
 30
0.0
 10
152.331474
 20
216.247138
 30
0.0
 10
152.819157
 20
216.456990
 30
0.0
 10
153.167763
 20
216.483544
 30
0.0
 10
153.342790
 20
216.496877
 30
0.0
 11
151.342790
 21
214.496867
 31
0.0
 11
151.411309
 21
215.015915
 31
0.0
 11
151.610004
 21
215.495612
 31
0.0
 11
151.928573
 21
215.911087
 31
0.0
 11
152.344047
 21
216.229658
 31
0.0
 11
152.823742
 21
216.428356
 31
0.0
 11
153.342790
 21
216.496877
 31
0.0
  0
LINE
  5
13b
100
AcDbEntity
  8
Layer_1
 62
2
100
AcDbLine
 10
371.102260
 20
205.495957
 30
0.0
 11
153.416850
 21
205.495957
 31
0.0
  0
SPLINE
  5
13c
100
AcDbEntity
  8
Layer_1
 62
2
100
AcDbSpline
 70
0
 71
3
 72
10
 73
6
 74
4
 40
0.000000
 40
0.000000
 40
0.000000
 40
0.000000
 40
1.084407
 40
2.136650
 40
3.221057
 40
3.221057
 40
3.221057
 40
3.221057
 10
153.416790
 20
205.497277
 30
0.0
 10
153.053373
 20
205.554322
 30
0.0
 10
152.337317
 20
205.666721
 30
0.0
 10
151.512239
 20
206.491795
 30
0.0
 10
151.399837
 20
207.207850
 30
0.0
 10
151.342790
 20
207.571267
 30
0.0
 11
153.416790
 21
205.497277
 31
0.0
 11
152.370005
 21
205.780437
 31
0.0
 11
151.625955
 21
206.524484
 31
0.0
 11
151.342790
 21
207.571267
 31
0.0
  0
SPLINE
  5
13d
100
AcDbEntity
  8
Layer_1
 62
2
100
AcDbSpline
 70
0
 71
3
 72
10
 73
6
 74
4
 40
0.000000
 40
0.000000
 40
0.000000
 40
0.000000
 40
0.430512
 40
0.850614
 40
1.281126
 40
1.281126
 40
1.281126
 40
1.281126
 10
371.102390
 20
205.497277
 30
0.0
 10
371.246439
 20
205.477191
 30
0.0
 10
371.531054
 20
205.437504
 30
0.0
 10
371.880869
 20
205.144053
 30
0.0
 10
371.969448
 20
204.870678
 30
0.0
 10
372.014280
 20
204.732317
 30
0.0
 11
371.102390
 21
205.497277
 31
0.0
 11
371.521127
 21
205.397275
 31
0.0
 11
371.842979
 21
205.127281
 31
0.0
 11
372.014280
 21
204.732317
 31
0.0
  0
LINE
  5
13e
100
AcDbEntity
  8
Layer_1
 62
2
100
AcDbLine
 10
372.019250
 20
126.974260
 30
0.0
 11
372.019250
 21
204.495967
 31
0.0
  0
SPLINE
  5
13f
100
AcDbEntity
  8
Layer_1
 62
2
100
AcDbSpline
 70
0
 71
3
 72
10
 73
6
 74
4
 40
0.000000
 40
0.000000
 40
0.000000
 40
0.000000
 40
0.079227
 40
0.158391
 40
0.237618
 40
0.237618
 40
0.237618
 40
0.237618
 10
372.014280
 20
204.732317
 30
0.0
 10
372.019887
 20
204.706501
 30
0.0
 10
372.031096
 20
204.654889
 30
0.0
 10
372.040502
 20
204.576077
 30
0.0
 10
372.041754
 20
204.523277
 30
0.0
 10
372.042380
 20
204.496867
 30
0.0
 11
372.014280
 21
204.732317
 31
0.0
 11
372.029865
 21
204.654638
 31
0.0
 11
372.039246
 21
204.576032
 31
0.0
 11
372.042380
 21
204.496867
 31
0.0
  0
LINE
  5
140
100
AcDbEntity
  8
Layer_1
 62
2
100
AcDbLine
 10
372.005230
 20
100.600960
 30
0.0
 11
372.005230
 21
126.744330
 31
0.0
  0
SPLINE
  5
141
100
AcDbEntity
  8
Layer_1
 62
2
100
AcDbSpline
 70
0
 71
3
 72
10
 73
6
 74
4
 40
0.000000
 40
0.000000
 40
0.000000
 40
0.000000
 40
0.077006
 40
0.153867
 40
0.230533
 40
0.230533
 40
0.230533
 40
0.230533
 10
372.019320
 20
146.683870
 30
0.0
 10
372.019008
 20
146.658201
 30
0.0
 10
372.018384
 20
146.606911
 30
0.0
 10
372.013718
 20
146.530167
 30
0.0
 10
372.008117
 20
146.479294
 30
0.0
 10
372.005320
 20
146.453890
 30
0.0
 11
372.019320
 21
146.683870
 31
0.0
 11
372.017760
 21
146.606880
 31
0.0
 11
372.013089
 21
146.530160
 31
0.0
 11
372.005320
 21
146.453890
 31
0.0
  0
SPLINE
  5
142
100
AcDbEntity
  8
Layer_1
 62
2
100
AcDbSpline
 70
0
 71
3
 72
10
 73
6
 74
4
 40
0.000000
 40
0.000000
 40
0.000000
 40
0.000000
 40
0.484168
 40
0.953975
 40
1.438142
 40
1.438142
 40
1.438142
 40
1.438142
 10
372.028390
 20
100.601070
 30
0.0
 10
372.002920
 20
100.438811
 30
0.0
 10
371.952736
 20
100.119105
 30
0.0
 10
371.584355
 20
99.750724
 30
0.0
 10
371.264649
 20
99.700540
 30
0.0
 10
371.102390
 20
99.675070
 30
0.0
 11
372.028390
 21
100.601070
 31
0.0
 11
371.901964
 21
100.133700
 31
0.0
 11
371.569760
 21
99.801496
 31
0.0
 11
371.102390
 21
99.675070
 31
0.0
  0
ENDSEC
  0
SECTION
  2
OBJECTS
  0
DICTIONARY
  5
C
330
0
100
AcDbDictionary
  3
ACAD_GROUP
350
D
  3
ACAD_MLINESTYLE
350
17
  0
DICTIONARY
  5
D
330
C
100
AcDbDictionary
  0
DICTIONARY
  5
1A
330
C
100
AcDbDictionary
  0
DICTIONARY
  5
17
330
C
100
AcDbDictionary
  3
STANDARD
350
18
  0
DICTIONARY
  5
19
330
C
100
AcDbDictionary
  0
ENDSEC
  0
EOF
