  0
SECTION
  2
HEADER
  9
$ACADVER
  1
AC1014
  9
$HANDSEED
  5
FFFF
  9
$INSUNITS
 70
     4
  9
$MEASUREMENT
 70
     1
  0
ENDSEC
  0
SECTION
  2
TABLES
  0
TABLE
  2
VPORT
  5
8
330
0
100
AcDbSymbolTable
 70
     4
  0
VPORT
  5
2E
330
8
100
AcDbSymbolTableRecord
100
AcDbViewportTableRecord
  2
*ACTIVE
 70
     0
 10
0.0
 20
0.0
 11
1.0
 21
1.0
 12
210.0
 22
148.5
 13
0.0
 23
0.0
 14
10.0
 24
10.0
 15
10.0
 25
10.0
 16
0.0
 26
0.0
 36
1.0
 17
0.0
 27
0.0
 37
0.0
 40
341.0
 41
1.24
 42
50.0
 43
0.0
 44
0.0
 50
0.0
 51
0.0
 71
     0
 72
   100
 73
     1
 74
     3
 75
     0
 76
     0
 77
     0
 78
     0
  0
ENDTAB
  0
TABLE
  2
LTYPE
  5
5
330
0
100
AcDbSymbolTable
 70
     1
  0
LTYPE
  5
14
330
5
100
AcDbSymbolTableRecord
100
AcDbLinetypeTableRecord
  2
BYBLOCK
 70
     0
  3

 72
    65
 73
     0
 40
0.0
  0
LTYPE
  5
15
330
5
100
AcDbSymbolTableRecord
100
AcDbLinetypeTableRecord
  2
BYLAYER
 70
     0
  3

 72
    65
 73
     0
 40
0.0
  0
LTYPE
  5
16
330
5
100
AcDbSymbolTableRecord
100
AcDbLinetypeTableRecord
  2
CONTINUOUS
 70
     0
  3
Solid line
 72
    65
 73
     0
 40
0.0
  0
ENDTAB
  0
TABLE
  2
LAYER
  5
2
100
AcDbSymbolTable
 70
2
  0
LAYER
  5
50
100
AcDbSymbolTableRecord
100
AcDbLayerTableRecord
  2
0
 70
0
  6
CONTINUOUS
  0
LAYER
  5
51
100
AcDbSymbolTableRecord
100
AcDbLayerTableRecord
  2
Layer_1
 70
0
  6
CONTINUOUS
  0
ENDTAB
  0
TABLE
  2
STYLE
  5
3
330
0
100
AcDbSymbolTable
 70
     1
  0
STYLE
  5
11
330
3
100
AcDbSymbolTableRecord
100
AcDbTextStyleTableRecord
  2
STANDARD
 70
     0
 40
0.0
 41
1.0
 50
0.0
 71
     0
 42
2.5
  3
txt
  4

  0
ENDTAB
  0
TABLE
  2
VIEW
  5
6
330
0
100
AcDbSymbolTable
 70
     0
  0
ENDTAB
  0
TABLE
  2
UCS
  5
7
330
0
100
AcDbSymbolTable
 70
     0
  0
ENDTAB
  0
TABLE
  2
APPID
  5
9
330
0
100
AcDbSymbolTable
 70
     2
  0
APPID
  5
12
330
9
100
AcDbSymbolTableRecord
100
AcDbRegAppTableRecord
  2
ACAD
 70
     0
  0
ENDTAB
  0
TABLE
  2
DIMSTYLE
  5
A
330
0
100
AcDbSymbolTable
 70
     1
  0
DIMSTYLE
105
27
330
A
100
AcDbSymbolTableRecord
100
AcDbDimStyleTableRecord
  2
ISO-25
 70
     0
  3

  4

  5

  6

  7

 40
1.0
 41
2.5
 42
0.625
 43
3.75
 44
1.25
 45
0.0
 46
0.0
 47
0.0
 48
0.0
140
2.5
141
2.5
142
0.0
143
0.03937007874016
144
1.0
145
0.0
146
1.0
147
0.625
 71
     0
 72
     0
 73
     0
 74
     0
 75
     0
 76
     0
 77
     1
 78
     8
170
     0
171
     3
172
     1
173
     0
174
     0
175
     0
176
     0
177
     0
178
     0
270
     2
271
     2
272
     2
273
     2
274
     3
340
11
275
     0
280
     0
281
     0
282
     0
283
     0
284
     8
285
     0
286
     0
287
     3
288
     0
  0
ENDTAB
  0
TABLE
  2
BLOCK_RECORD
  5
1
330
0
100
AcDbSymbolTable
 70
     1
  0
BLOCK_RECORD
  5
1F
330
1
100
AcDbSymbolTableRecord
100
AcDbBlockTableRecord
  2
*MODEL_SPACE
  0
BLOCK_RECORD
  5
1B
330
1
100
AcDbSymbolTableRecord
100
AcDbBlockTableRecord
  2
*PAPER_SPACE
  0
ENDTAB
  0
ENDSEC
  0
SECTION
  2
BLOCKS
  0
BLOCK
  5
20
330
1F
100
AcDbEntity
  8
0
100
AcDbBlockBegin
  2
*MODEL_SPACE
 70
     0
 10
0.0
 20
0.0
 30
0.0
  3
*MODEL_SPACE
  1

  0
ENDBLK
  5
21
330
1F
100
AcDbEntity
  8
0
100
AcDbBlockEnd
  0
BLOCK
  5
1C
330
1B
100
AcDbEntity
 67
     1
  8
0
100
AcDbBlockBegin
  2
*PAPER_SPACE
  1

  0
ENDBLK
  5
1D
330
1B
100
AcDbEntity
 67
     1
  8
0
100
AcDbBlockEnd
  0
ENDSEC
  0
SECTION
  2
ENTITIES
  0
LINE
  5
100
100
AcDbEntity
  8
Layer_1
 62
4
100
AcDbLine
 10
310.439510
 20
93.670640
 30
0.0
 11
310.439510
 21
93.670640
 31
0.0
  0
SPLINE
  5
101
100
AcDbEntity
  8
Layer_1
 62
4
100
AcDbSpline
 70
0
 71
3
 72
19
 73
15
 74
13
 40
0.000000
 40
0.000000
 40
0.000000
 40
0.000000
 40
0.818070
 40
1.611752
 40
2.429565
 40
3.247379
 40
4.041061
 40
4.859131
 40
5.677201
 40
6.470883
 40
7.288696
 40
8.106510
 40
8.900192
 40
9.718262
 40
9.718262
 40
9.718262
 40
9.718262
 10
310.439510
 20
93.670640
 30
0.0
 10
310.396528
 20
93.394826
 30
0.0
 10
310.311845
 20
92.851420
 30
0.0
 10
309.689200
 20
92.253081
 30
0.0
 10
308.876865
 20
92.031348
 30
0.0
 10
308.056006
 20
92.253081
 30
0.0
 10
307.458430
 20
92.851420
 30
0.0
 10
307.236697
 20
93.670640
 30
0.0
 10
307.458430
 20
94.489860
 30
0.0
 10
308.056006
 20
95.088199
 30
0.0
 10
308.876865
 20
95.309932
 30
0.0
 10
309.689200
 20
95.088199
 30
0.0
 10
310.311845
 20
94.489860
 30
0.0
 10
310.396528
 20
93.946454
 30
0.0
 10
310.439510
 20
93.670640
 30
0.0
 11
310.439510
 21
93.670640
 31
0.0
 11
310.225967
 21
92.880933
 31
0.0
 11
309.664851
 21
92.319613
 31
0.0
 11
308.875430
 21
92.105993
 31
0.0
 11
308.086009
 21
92.319613
 31
0.0
 11
307.524893
 21
92.880933
 31
0.0
 11
307.311350
 21
93.670640
 31
0.0
 11
307.524893
 21
94.460347
 31
0.0
 11
308.086009
 21
95.021667
 31
0.0
 11
308.875430
 21
95.235287
 31
0.0
 11
309.664851
 21
95.021667
 31
0.0
 11
310.225967
 21
94.460347
 31
0.0
 11
310.439510
 21
93.670640
 31
0.0
  0
LINE
  5
102
100
AcDbEntity
  8
Layer_1
 62
4
100
AcDbLine
 10
169.002200
 20
93.670640
 30
0.0
 11
169.002200
 21
93.670640
 31
0.0
  0
SPLINE
  5
103
100
AcDbEntity
  8
Layer_1
 62
4
100
AcDbSpline
 70
0
 71
3
 72
25
 73
21
 74
19
 40
0.000000
 40
0.000000
 40
0.000000
 40
0.000000
 40
0.546000
 40
1.084143
 40
1.630032
 40
2.175863
 40
2.713860
 40
3.259691
 40
3.805580
 40
4.343723
 40
4.889723
 40
5.435723
 40
5.973866
 40
6.519755
 40
7.065586
 40
7.603583
 40
8.149414
 40
8.695303
 40
9.233446
 40
9.779446
 40
9.779446
 40
9.779446
 40
9.779446
 10
169.002200
 20
93.670640
 30
0.0
 10
168.983514
 20
93.487712
 30
0.0
 10
168.946410
 20
93.124489
 30
0.0
 10
168.658533
 20
92.644464
 30
0.0
 10
168.237010
 20
92.287562
 30
0.0
 10
167.715013
 20
92.098265
 30
0.0
 10
167.161107
 20
92.098265
 30
0.0
 10
166.639841
 20
92.287562
 30
0.0
 10
166.215400
 20
92.644464
 30
0.0
 10
165.938367
 20
93.124489
 30
0.0
 10
165.841644
 20
93.670640
 30
0.0
 10
165.938367
 20
94.216791
 30
0.0
 10
166.215400
 20
94.696816
 30
0.0
 10
166.639841
 20
95.053718
 30
0.0
 10
167.161107
 20
95.243015
 30
0.0
 10
167.715013
 20
95.243015
 30
0.0
 10
168.237010
 20
95.053718
 30
0.0
 10
168.658533
 20
94.696816
 30
0.0
 10
168.946410
 20
94.216791
 30
0.0
 10
168.983514
 20
93.853568
 30
0.0
 10
169.002200
 20
93.670640
 30
0.0
 11
169.002200
 21
93.670640
 31
0.0
 11
168.906988
 21
93.133006
 31
0.0
 11
168.637990
 21
92.666918
 31
0.0
 11
168.220160
 21
92.315616
 31
0.0
 11
167.707118
 21
92.129284
 31
0.0
 11
167.169122
 21
92.129284
 31
0.0
 11
166.656080
 21
92.315616
 31
0.0
 11
166.238250
 21
92.666918
 31
0.0
 11
165.969252
 21
93.133006
 31
0.0
 11
165.874040
 21
93.670640
 31
0.0
 11
165.969252
 21
94.208274
 31
0.0
 11
166.238250
 21
94.674362
 31
0.0
 11
166.656080
 21
95.025664
 31
0.0
 11
167.169122
 21
95.211996
 31
0.0
 11
167.707118
 21
95.211996
 31
0.0
 11
168.220160
 21
95.025664
 31
0.0
 11
168.637990
 21
94.674362
 31
0.0
 11
168.906988
 21
94.208274
 31
0.0
 11
169.002200
 21
93.670640
 31
0.0
  0
SPLINE
  5
104
100
AcDbEntity
  8
Layer_1
 62
4
100
AcDbSpline
 70
0
 71
3
 72
13
 73
9
 74
7
 40
0.000000
 40
0.000000
 40
0.000000
 40
0.000000
 40
0.816862
 40
1.609543
 40
2.426404
 40
3.243265
 40
4.035946
 40
4.852808
 40
4.852808
 40
4.852808
 40
4.852808
 10
125.427480
 20
209.495636
 30
0.0
 10
125.384061
 20
209.220314
 30
0.0
 10
125.298507
 20
208.677821
 30
0.0
 10
124.676526
 20
208.081049
 30
0.0
 10
123.863380
 20
207.859950
 30
0.0
 10
123.050234
 20
208.081049
 30
0.0
 10
122.428253
 20
208.677821
 30
0.0
 10
122.342699
 20
209.220314
 30
0.0
 10
122.299280
 20
209.495636
 30
0.0
 11
125.427480
 21
209.495636
 31
0.0
 11
125.212988
 21
208.707438
 31
0.0
 11
124.651967
 21
208.147439
 31
0.0
 11
123.863380
 21
207.934385
 31
0.0
 11
123.074793
 21
208.147439
 31
0.0
 11
122.513772
 21
208.707438
 31
0.0
 11
122.299280
 21
209.495636
 31
0.0
  0
LINE
  5
105
100
AcDbEntity
  8
Layer_1
 62
4
100
AcDbLine
 10
125.427480
 20
209.495636
 30
0.0
 11
125.427480
 21
209.495636
 31
0.0
  0
SPLINE
  5
106
100
AcDbEntity
  8
Layer_1
 62
4
100
AcDbSpline
 70
0
 71
3
 72
13
 73
9
 74
7
 40
0.000000
 40
0.000000
 40
0.000000
 40
0.000000
 40
0.816862
 40
1.609543
 40
2.426404
 40
3.243265
 40
4.035946
 40
4.852808
 40
4.852808
 40
4.852808
 40
4.852808
 10
122.299280
 20
209.495636
 30
0.0
 10
122.342699
 20
209.770958
 30
0.0
 10
122.428253
 20
210.313451
 30
0.0
 10
123.050234
 20
210.910223
 30
0.0
 10
123.863380
 20
211.131322
 30
0.0
 10
124.676526
 20
210.910223
 30
0.0
 10
125.298507
 20
210.313451
 30
0.0
 10
125.384061
 20
209.770958
 30
0.0
 10
125.427480
 20
209.495636
 30
0.0
 11
122.299280
 21
209.495636
 31
0.0
 11
122.513772
 21
210.283834
 31
0.0
 11
123.074793
 21
210.843833
 31
0.0
 11
123.863380
 21
211.056887
 31
0.0
 11
124.651967
 21
210.843833
 31
0.0
 11
125.212988
 21
210.283834
 31
0.0
 11
125.427480
 21
209.495636
 31
0.0
  0
LINE
  5
107
100
AcDbEntity
  8
Layer_1
 62
4
100
AcDbLine
 10
349.264960
 20
93.670640
 30
0.0
 11
349.264960
 21
93.670640
 31
0.0
  0
SPLINE
  5
108
100
AcDbEntity
  8
Layer_1
 62
4
100
AcDbSpline
 70
0
 71
3
 72
25
 73
21
 74
19
 40
0.000000
 40
0.000000
 40
0.000000
 40
0.000000
 40
0.546000
 40
1.084143
 40
1.630032
 40
2.175863
 40
2.713860
 40
3.259691
 40
3.805580
 40
4.343723
 40
4.889723
 40
5.435723
 40
5.973866
 40
6.519755
 40
7.065586
 40
7.603583
 40
8.149414
 40
8.695303
 40
9.233446
 40
9.779446
 40
9.779446
 40
9.779446
 40
9.779446
 10
349.264960
 20
93.670640
 30
0.0
 10
349.246274
 20
93.487712
 30
0.0
 10
349.209170
 20
93.124489
 30
0.0
 10
348.921293
 20
92.644464
 30
0.0
 10
348.499770
 20
92.287562
 30
0.0
 10
347.977773
 20
92.098265
 30
0.0
 10
347.423867
 20
92.098265
 30
0.0
 10
346.902601
 20
92.287562
 30
0.0
 10
346.478160
 20
92.644464
 30
0.0
 10
346.201127
 20
93.124489
 30
0.0
 10
346.104404
 20
93.670640
 30
0.0
 10
346.201127
 20
94.216791
 30
0.0
 10
346.478160
 20
94.696816
 30
0.0
 10
346.902601
 20
95.053718
 30
0.0
 10
347.423867
 20
95.243015
 30
0.0
 10
347.977773
 20
95.243015
 30
0.0
 10
348.499770
 20
95.053718
 30
0.0
 10
348.921293
 20
94.696816
 30
0.0
 10
349.209170
 20
94.216791
 30
0.0
 10
349.246274
 20
93.853568
 30
0.0
 10
349.264960
 20
93.670640
 30
0.0
 11
349.264960
 21
93.670640
 31
0.0
 11
349.169748
 21
93.133006
 31
0.0
 11
348.900750
 21
92.666918
 31
0.0
 11
348.482920
 21
92.315616
 31
0.0
 11
347.969878
 21
92.129284
 31
0.0
 11
347.431882
 21
92.129284
 31
0.0
 11
346.918840
 21
92.315616
 31
0.0
 11
346.501010
 21
92.666918
 31
0.0
 11
346.232012
 21
93.133006
 31
0.0
 11
346.136800
 21
93.670640
 31
0.0
 11
346.232012
 21
94.208274
 31
0.0
 11
346.501010
 21
94.674362
 31
0.0
 11
346.918840
 21
95.025664
 31
0.0
 11
347.431882
 21
95.211996
 31
0.0
 11
347.969878
 21
95.211996
 31
0.0
 11
348.482920
 21
95.025664
 31
0.0
 11
348.900750
 21
94.674362
 31
0.0
 11
349.169748
 21
94.208274
 31
0.0
 11
349.264960
 21
93.670640
 31
0.0
  0
LINE
  5
109
100
AcDbEntity
  8
Layer_1
 62
4
100
AcDbLine
 10
130.189960
 20
93.670640
 30
0.0
 11
130.189960
 21
93.670640
 31
0.0
  0
SPLINE
  5
10a
100
AcDbEntity
  8
Layer_1
 62
4
100
AcDbSpline
 70
0
 71
3
 72
25
 73
21
 74
19
 40
0.000000
 40
0.000000
 40
0.000000
 40
0.000000
 40
0.546000
 40
1.084143
 40
1.630032
 40
2.175863
 40
2.713860
 40
3.259691
 40
3.805580
 40
4.343723
 40
4.889723
 40
5.435723
 40
5.973866
 40
6.519755
 40
7.065586
 40
7.603583
 40
8.149414
 40
8.695303
 40
9.233446
 40
9.779446
 40
9.779446
 40
9.779446
 40
9.779446
 10
130.189960
 20
93.670640
 30
0.0
 10
130.171274
 20
93.487712
 30
0.0
 10
130.134170
 20
93.124489
 30
0.0
 10
129.846293
 20
92.644464
 30
0.0
 10
129.424770
 20
92.287562
 30
0.0
 10
128.902773
 20
92.098265
 30
0.0
 10
128.348867
 20
92.098265
 30
0.0
 10
127.827601
 20
92.287562
 30
0.0
 10
127.403160
 20
92.644464
 30
0.0
 10
127.126127
 20
93.124489
 30
0.0
 10
127.029404
 20
93.670640
 30
0.0
 10
127.126127
 20
94.216791
 30
0.0
 10
127.403160
 20
94.696816
 30
0.0
 10
127.827601
 20
95.053718
 30
0.0
 10
128.348867
 20
95.243015
 30
0.0
 10
128.902773
 20
95.243015
 30
0.0
 10
129.424770
 20
95.053718
 30
0.0
 10
129.846293
 20
94.696816
 30
0.0
 10
130.134170
 20
94.216791
 30
0.0
 10
130.171274
 20
93.853568
 30
0.0
 10
130.189960
 20
93.670640
 30
0.0
 11
130.189960
 21
93.670640
 31
0.0
 11
130.094748
 21
93.133006
 31
0.0
 11
129.825750
 21
92.666918
 31
0.0
 11
129.407920
 21
92.315616
 31
0.0
 11
128.894878
 21
92.129284
 31
0.0
 11
128.356882
 21
92.129284
 31
0.0
 11
127.843840
 21
92.315616
 31
0.0
 11
127.426010
 21
92.666918
 31
0.0
 11
127.157012
 21
93.133006
 31
0.0
 11
127.061800
 21
93.670640
 31
0.0
 11
127.157012
 21
94.208274
 31
0.0
 11
127.426010
 21
94.674362
 31
0.0
 11
127.843840
 21
95.025664
 31
0.0
 11
128.356882
 21
95.211996
 31
0.0
 11
128.894878
 21
95.211996
 31
0.0
 11
129.407920
 21
95.025664
 31
0.0
 11
129.825750
 21
94.674362
 31
0.0
 11
130.094748
 21
94.208274
 31
0.0
 11
130.189960
 21
93.670640
 31
0.0
  0
LINE
  5
10b
100
AcDbEntity
  8
Layer_1
 62
4
100
AcDbLine
 10
354.027460
 20
209.495636
 30
0.0
 11
354.027460
 21
209.495636
 31
0.0
  0
SPLINE
  5
10c
100
AcDbEntity
  8
Layer_1
 62
4
100
AcDbSpline
 70
0
 71
3
 72
22
 73
18
 74
16
 40
0.000000
 40
0.000000
 40
0.000000
 40
0.000000
 40
0.818070
 40
1.611752
 40
2.429565
 40
3.247379
 40
4.041061
 40
4.859131
 40
5.405131
 40
5.943274
 40
6.489163
 40
7.034994
 40
7.572991
 40
8.118822
 40
8.664711
 40
9.202854
 40
9.748854
 40
9.748854
 40
9.748854
 40
9.748854
 10
354.027460
 20
209.495636
 30
0.0
 10
353.984478
 20
209.219821
 30
0.0
 10
353.899794
 20
208.676414
 30
0.0
 10
353.277154
 20
208.078085
 30
0.0
 10
352.464800
 20
207.856309
 30
0.0
 10
351.644011
 20
208.078204
 30
0.0
 10
351.046180
 20
208.675949
 30
0.0
 10
350.850138
 20
209.405457
 30
0.0
 10
350.963762
 20
210.041575
 30
0.0
 10
351.240624
 20
210.521869
 30
0.0
 10
351.665111
 20
210.878699
 30
0.0
 10
352.186364
 20
211.068015
 30
0.0
 10
352.740274
 20
211.068010
 30
0.0
 10
353.262270
 20
210.878715
 30
0.0
 10
353.683793
 20
210.521812
 30
0.0
 10
353.971670
 20
210.041787
 30
0.0
 10
354.008774
 20
209.678564
 30
0.0
 10
354.027460
 20
209.495636
 30
0.0
 11
354.027460
 21
209.495636
 31
0.0
 11
353.813917
 21
208.705929
 31
0.0
 11
353.252801
 21
208.144609
 31
0.0
 11
352.463380
 21
207.930989
 31
0.0
 11
351.673959
 21
208.144609
 31
0.0
 11
351.112843
 21
208.705929
 31
0.0
 11
350.899300
 21
209.495636
 31
0.0
 11
350.994512
 21
210.033270
 31
0.0
 11
351.263510
 21
210.499358
 31
0.0
 11
351.681340
 21
210.850660
 31
0.0
 11
352.194382
 21
211.036992
 31
0.0
 11
352.732378
 21
211.036992
 31
0.0
 11
353.245420
 21
210.850660
 31
0.0
 11
353.663250
 21
210.499358
 31
0.0
 11
353.932248
 21
210.033270
 31
0.0
 11
354.027460
 21
209.495636
 31
0.0
  0
SPLINE
  5
10d
100
AcDbEntity
  8
Layer_1
 62
4
100
AcDbSpline
 70
0
 71
3
 72
13
 73
9
 74
7
 40
0.000000
 40
0.000000
 40
0.000000
 40
0.000000
 40
0.818193
 40
1.611398
 40
2.427975
 40
3.244552
 40
4.037757
 40
4.855950
 40
4.855950
 40
4.855950
 40
4.855950
 10
101.852340
 20
209.495636
 30
0.0
 10
101.808823
 20
209.219900
 30
0.0
 10
101.723117
 20
208.676850
 30
0.0
 10
101.101539
 20
208.079035
 30
0.0
 10
100.288382
 20
207.857369
 30
0.0
 10
99.475225
 20
208.079035
 30
0.0
 10
98.853647
 20
208.676850
 30
0.0
 10
98.767941
 20
209.219900
 30
0.0
 10
98.724424
 20
209.495636
 30
0.0
 11
101.852340
 21
209.495636
 31
0.0
 11
101.637529
 21
208.706145
 31
0.0
 11
101.076596
 21
208.145317
 31
0.0
 11
100.288382
 21
207.931970
 31
0.0
 11
99.500168
 21
208.145317
 31
0.0
 11
98.939235
 21
208.706145
 31
0.0
 11
98.724424
 21
209.495636
 31
0.0
  0
LINE
  5
10e
100
AcDbEntity
  8
Layer_1
 62
4
100
AcDbLine
 10
101.852340
 20
209.495636
 30
0.0
 11
101.852340
 21
209.495636
 31
0.0
  0
SPLINE
  5
10f
100
AcDbEntity
  8
Layer_1
 62
4
100
AcDbSpline
 70
0
 71
3
 72
13
 73
9
 74
7
 40
0.000000
 40
0.000000
 40
0.000000
 40
0.000000
 40
0.818193
 40
1.611398
 40
2.427975
 40
3.244552
 40
4.037757
 40
4.855950
 40
4.855950
 40
4.855950
 40
4.855950
 10
98.724424
 20
209.495636
 30
0.0
 10
98.767941
 20
209.771372
 30
0.0
 10
98.853647
 20
210.314422
 30
0.0
 10
99.475225
 20
210.912237
 30
0.0
 10
100.288382
 20
211.133903
 30
0.0
 10
101.101539
 20
210.912237
 30
0.0
 10
101.723117
 20
210.314422
 30
0.0
 10
101.808823
 20
209.771372
 30
0.0
 10
101.852340
 20
209.495636
 30
0.0
 11
98.724424
 21
209.495636
 31
0.0
 11
98.939235
 21
210.285127
 31
0.0
 11
99.500168
 21
210.845955
 31
0.0
 11
100.288382
 21
211.059302
 31
0.0
 11
101.076596
 21
210.845955
 31
0.0
 11
101.637529
 21
210.285127
 31
0.0
 11
101.852340
 21
209.495636
 31
0.0
  0
LINE
  5
110
100
AcDbEntity
  8
Layer_1
 62
4
100
AcDbLine
 10
377.602460
 20
93.670640
 30
0.0
 11
377.602460
 21
93.670640
 31
0.0
  0
SPLINE
  5
111
100
AcDbEntity
  8
Layer_1
 62
4
100
AcDbSpline
 70
0
 71
3
 72
22
 73
18
 74
16
 40
0.000000
 40
0.000000
 40
0.000000
 40
0.000000
 40
0.818070
 40
1.611752
 40
2.429565
 40
3.247379
 40
4.041061
 40
4.859131
 40
5.405131
 40
5.943274
 40
6.489163
 40
7.034994
 40
7.572991
 40
8.118822
 40
8.664711
 40
9.202854
 40
9.748854
 40
9.748854
 40
9.748854
 40
9.748854
 10
377.602460
 20
93.670640
 30
0.0
 10
377.559478
 20
93.394825
 30
0.0
 10
377.474794
 20
92.851418
 30
0.0
 10
376.852154
 20
92.253089
 30
0.0
 10
376.039800
 20
92.031313
 30
0.0
 10
375.219011
 20
92.253208
 30
0.0
 10
374.621180
 20
92.850953
 30
0.0
 10
374.425138
 20
93.580461
 30
0.0
 10
374.538762
 20
94.216579
 30
0.0
 10
374.815624
 20
94.696873
 30
0.0
 10
375.240111
 20
95.053703
 30
0.0
 10
375.761364
 20
95.243019
 30
0.0
 10
376.315274
 20
95.243014
 30
0.0
 10
376.837270
 20
95.053719
 30
0.0
 10
377.258793
 20
94.696816
 30
0.0
 10
377.546670
 20
94.216791
 30
0.0
 10
377.583774
 20
93.853568
 30
0.0
 10
377.602460
 20
93.670640
 30
0.0
 11
377.602460
 21
93.670640
 31
0.0
 11
377.388917
 21
92.880933
 31
0.0
 11
376.827801
 21
92.319613
 31
0.0
 11
376.038380
 21
92.105993
 31
0.0
 11
375.248959
 21
92.319613
 31
0.0
 11
374.687843
 21
92.880933
 31
0.0
 11
374.474300
 21
93.670640
 31
0.0
 11
374.569512
 21
94.208274
 31
0.0
 11
374.838510
 21
94.674362
 31
0.0
 11
375.256340
 21
95.025664
 31
0.0
 11
375.769382
 21
95.211996
 31
0.0
 11
376.307378
 21
95.211996
 31
0.0
 11
376.820420
 21
95.025664
 31
0.0
 11
377.238250
 21
94.674362
 31
0.0
 11
377.507248
 21
94.208274
 31
0.0
 11
377.602460
 21
93.670640
 31
0.0
  0
SPLINE
  5
112
100
AcDbEntity
  8
Layer_1
 62
4
100
AcDbSpline
 70
0
 71
3
 72
13
 73
9
 74
7
 40
0.000000
 40
0.000000
 40
0.000000
 40
0.000000
 40
0.818193
 40
1.611398
 40
2.427975
 40
3.244552
 40
4.037757
 40
4.855950
 40
4.855950
 40
4.855950
 40
4.855950
 10
101.852340
 20
93.670640
 30
0.0
 10
101.808823
 20
93.394904
 30
0.0
 10
101.723117
 20
92.851854
 30
0.0
 10
101.101539
 20
92.254039
 30
0.0
 10
100.288382
 20
92.032373
 30
0.0
 10
99.475225
 20
92.254039
 30
0.0
 10
98.853647
 20
92.851854
 30
0.0
 10
98.767941
 20
93.394904
 30
0.0
 10
98.724424
 20
93.670640
 30
0.0
 11
101.852340
 21
93.670640
 31
0.0
 11
101.637529
 21
92.881149
 31
0.0
 11
101.076596
 21
92.320321
 31
0.0
 11
100.288382
 21
92.106974
 31
0.0
 11
99.500168
 21
92.320321
 31
0.0
 11
98.939235
 21
92.881149
 31
0.0
 11
98.724424
 21
93.670640
 31
0.0
  0
LINE
  5
113
100
AcDbEntity
  8
Layer_1
 62
4
100
AcDbLine
 10
101.852340
 20
93.670640
 30
0.0
 11
101.852340
 21
93.670640
 31
0.0
  0
SPLINE
  5
114
100
AcDbEntity
  8
Layer_1
 62
4
100
AcDbSpline
 70
0
 71
3
 72
13
 73
9
 74
7
 40
0.000000
 40
0.000000
 40
0.000000
 40
0.000000
 40
0.818193
 40
1.611398
 40
2.427975
 40
3.244552
 40
4.037757
 40
4.855950
 40
4.855950
 40
4.855950
 40
4.855950
 10
98.724424
 20
93.670640
 30
0.0
 10
98.767941
 20
93.946376
 30
0.0
 10
98.853647
 20
94.489426
 30
0.0
 10
99.475225
 20
95.087241
 30
0.0
 10
100.288382
 20
95.308907
 30
0.0
 10
101.101539
 20
95.087241
 30
0.0
 10
101.723117
 20
94.489426
 30
0.0
 10
101.808823
 20
93.946376
 30
0.0
 10
101.852340
 20
93.670640
 30
0.0
 11
98.724424
 21
93.670640
 31
0.0
 11
98.939235
 21
94.460131
 31
0.0
 11
99.500168
 21
95.020959
 31
0.0
 11
100.288382
 21
95.234306
 31
0.0
 11
101.076596
 21
95.020959
 31
0.0
 11
101.637529
 21
94.460131
 31
0.0
 11
101.852340
 21
93.670640
 31
0.0
  0
LINE
  5
115
100
AcDbEntity
  8
Layer_1
 62
4
100
AcDbLine
 10
377.602460
 20
209.495636
 30
0.0
 11
377.602460
 21
209.495636
 31
0.0
  0
SPLINE
  5
116
100
AcDbEntity
  8
Layer_1
 62
4
100
AcDbSpline
 70
0
 71
3
 72
22
 73
18
 74
16
 40
0.000000
 40
0.000000
 40
0.000000
 40
0.000000
 40
0.818070
 40
1.611752
 40
2.429565
 40
3.247379
 40
4.041061
 40
4.859131
 40
5.405131
 40
5.943274
 40
6.489163
 40
7.034994
 40
7.572991
 40
8.118822
 40
8.664711
 40
9.202854
 40
9.748854
 40
9.748854
 40
9.748854
 40
9.748854
 10
377.602460
 20
209.495636
 30
0.0
 10
377.559478
 20
209.219821
 30
0.0
 10
377.474794
 20
208.676414
 30
0.0
 10
376.852154
 20
208.078085
 30
0.0
 10
376.039800
 20
207.856309
 30
0.0
 10
375.219011
 20
208.078204
 30
0.0
 10
374.621180
 20
208.675949
 30
0.0
 10
374.425138
 20
209.405457
 30
0.0
 10
374.538762
 20
210.041575
 30
0.0
 10
374.815624
 20
210.521869
 30
0.0
 10
375.240111
 20
210.878699
 30
0.0
 10
375.761364
 20
211.068015
 30
0.0
 10
376.315274
 20
211.068010
 30
0.0
 10
376.837270
 20
210.878715
 30
0.0
 10
377.258793
 20
210.521812
 30
0.0
 10
377.546670
 20
210.041787
 30
0.0
 10
377.583774
 20
209.678564
 30
0.0
 10
377.602460
 20
209.495636
 30
0.0
 11
377.602460
 21
209.495636
 31
0.0
 11
377.388917
 21
208.705929
 31
0.0
 11
376.827801
 21
208.144609
 31
0.0
 11
376.038380
 21
207.930989
 31
0.0
 11
375.248959
 21
208.144609
 31
0.0
 11
374.687843
 21
208.705929
 31
0.0
 11
374.474300
 21
209.495636
 31
0.0
 11
374.569512
 21
210.033270
 31
0.0
 11
374.838510
 21
210.499358
 31
0.0
 11
375.256340
 21
210.850660
 31
0.0
 11
375.769382
 21
211.036992
 31
0.0
 11
376.307378
 21
211.036992
 31
0.0
 11
376.820420
 21
210.850660
 31
0.0
 11
377.238250
 21
210.499358
 31
0.0
 11
377.507248
 21
210.033270
 31
0.0
 11
377.602460
 21
209.495636
 31
0.0
  0
LINE
  5
117
100
AcDbEntity
  8
Layer_1
 62
4
100
AcDbLine
 10
239.727460
 20
209.495636
 30
0.0
 11
239.727460
 21
209.495636
 31
0.0
  0
SPLINE
  5
118
100
AcDbEntity
  8
Layer_1
 62
4
100
AcDbSpline
 70
0
 71
3
 72
25
 73
21
 74
19
 40
0.000000
 40
0.000000
 40
0.000000
 40
0.000000
 40
0.546000
 40
1.084143
 40
1.630032
 40
2.175863
 40
2.713860
 40
3.259691
 40
3.805580
 40
4.343723
 40
4.889723
 40
5.435723
 40
5.973866
 40
6.519755
 40
7.065586
 40
7.603583
 40
8.149414
 40
8.695303
 40
9.233446
 40
9.779446
 40
9.779446
 40
9.779446
 40
9.779446
 10
239.727460
 20
209.495636
 30
0.0
 10
239.708774
 20
209.312708
 30
0.0
 10
239.671670
 20
208.949485
 30
0.0
 10
239.383793
 20
208.469460
 30
0.0
 10
238.962270
 20
208.112558
 30
0.0
 10
238.440273
 20
207.923261
 30
0.0
 10
237.886367
 20
207.923261
 30
0.0
 10
237.365101
 20
208.112558
 30
0.0
 10
236.940660
 20
208.469460
 30
0.0
 10
236.663627
 20
208.949485
 30
0.0
 10
236.566904
 20
209.495636
 30
0.0
 10
236.663627
 20
210.041787
 30
0.0
 10
236.940660
 20
210.521812
 30
0.0
 10
237.365101
 20
210.878714
 30
0.0
 10
237.886367
 20
211.068011
 30
0.0
 10
238.440273
 20
211.068011
 30
0.0
 10
238.962270
 20
210.878714
 30
0.0
 10
239.383793
 20
210.521812
 30
0.0
 10
239.671670
 20
210.041787
 30
0.0
 10
239.708774
 20
209.678564
 30
0.0
 10
239.727460
 20
209.495636
 30
0.0
 11
239.727460
 21
209.495636
 31
0.0
 11
239.632248
 21
208.958002
 31
0.0
 11
239.363250
 21
208.491914
 31
0.0
 11
238.945420
 21
208.140612
 31
0.0
 11
238.432378
 21
207.954280
 31
0.0
 11
237.894382
 21
207.954280
 31
0.0
 11
237.381340
 21
208.140612
 31
0.0
 11
236.963510
 21
208.491914
 31
0.0
 11
236.694512
 21
208.958002
 31
0.0
 11
236.599300
 21
209.495636
 31
0.0
 11
236.694512
 21
210.033270
 31
0.0
 11
236.963510
 21
210.499358
 31
0.0
 11
237.381340
 21
210.850660
 31
0.0
 11
237.894382
 21
211.036992
 31
0.0
 11
238.432378
 21
211.036992
 31
0.0
 11
238.945420
 21
210.850660
 31
0.0
 11
239.363250
 21
210.499358
 31
0.0
 11
239.632248
 21
210.033270
 31
0.0
 11
239.727460
 21
209.495636
 31
0.0
  0
SPLINE
  5
119
100
AcDbEntity
  8
Layer_1
 62
4
100
AcDbSpline
 70
0
 71
3
 72
13
 73
9
 74
7
 40
0.000000
 40
0.000000
 40
0.000000
 40
0.000000
 40
0.818193
 40
1.611398
 40
2.427975
 40
3.244552
 40
4.037757
 40
4.855950
 40
4.855950
 40
4.855950
 40
4.855950
 10
101.852340
 20
181.000640
 30
0.0
 10
101.808823
 20
180.724904
 30
0.0
 10
101.723117
 20
180.181854
 30
0.0
 10
101.101539
 20
179.584039
 30
0.0
 10
100.288382
 20
179.362373
 30
0.0
 10
99.475225
 20
179.584039
 30
0.0
 10
98.853647
 20
180.181854
 30
0.0
 10
98.767941
 20
180.724904
 30
0.0
 10
98.724424
 20
181.000640
 30
0.0
 11
101.852340
 21
181.000640
 31
0.0
 11
101.637529
 21
180.211149
 31
0.0
 11
101.076596
 21
179.650321
 31
0.0
 11
100.288382
 21
179.436974
 31
0.0
 11
99.500168
 21
179.650321
 31
0.0
 11
98.939235
 21
180.211149
 31
0.0
 11
98.724424
 21
181.000640
 31
0.0
  0
LINE
  5
11a
100
AcDbEntity
  8
Layer_1
 62
4
100
AcDbLine
 10
101.852340
 20
181.000640
 30
0.0
 11
101.852340
 21
181.000640
 31
0.0
  0
SPLINE
  5
11b
100
AcDbEntity
  8
Layer_1
 62
4
100
AcDbSpline
 70
0
 71
3
 72
13
 73
9
 74
7
 40
0.000000
 40
0.000000
 40
0.000000
 40
0.000000
 40
0.818193
 40
1.611398
 40
2.427975
 40
3.244552
 40
4.037757
 40
4.855950
 40
4.855950
 40
4.855950
 40
4.855950
 10
98.724424
 20
181.000640
 30
0.0
 10
98.767941
 20
181.276376
 30
0.0
 10
98.853647
 20
181.819426
 30
0.0
 10
99.475225
 20
182.417241
 30
0.0
 10
100.288382
 20
182.638907
 30
0.0
 10
101.101539
 20
182.417241
 30
0.0
 10
101.723117
 20
181.819426
 30
0.0
 10
101.808823
 20
181.276376
 30
0.0
 10
101.852340
 20
181.000640
 30
0.0
 11
98.724424
 21
181.000640
 31
0.0
 11
98.939235
 21
181.790131
 31
0.0
 11
99.500168
 21
182.350959
 31
0.0
 11
100.288382
 21
182.564306
 31
0.0
 11
101.076596
 21
182.350959
 31
0.0
 11
101.637529
 21
181.790131
 31
0.0
 11
101.852340
 21
181.000640
 31
0.0
  0
LINE
  5
11c
100
AcDbEntity
  8
Layer_1
 62
4
100
AcDbLine
 10
377.602460
 20
181.000640
 30
0.0
 11
377.602460
 21
181.000640
 31
0.0
  0
SPLINE
  5
11d
100
AcDbEntity
  8
Layer_1
 62
4
100
AcDbSpline
 70
0
 71
3
 72
22
 73
18
 74
16
 40
0.000000
 40
0.000000
 40
0.000000
 40
0.000000
 40
0.818070
 40
1.611752
 40
2.429565
 40
3.247379
 40
4.041061
 40
4.859131
 40
5.405131
 40
5.943274
 40
6.489163
 40
7.034994
 40
7.572991
 40
8.118822
 40
8.664711
 40
9.202854
 40
9.748854
 40
9.748854
 40
9.748854
 40
9.748854
 10
377.602460
 20
181.000640
 30
0.0
 10
377.559478
 20
180.724825
 30
0.0
 10
377.474794
 20
180.181418
 30
0.0
 10
376.852154
 20
179.583089
 30
0.0
 10
376.039800
 20
179.361313
 30
0.0
 10
375.219011
 20
179.583208
 30
0.0
 10
374.621180
 20
180.180953
 30
0.0
 10
374.425138
 20
180.910461
 30
0.0
 10
374.538762
 20
181.546579
 30
0.0
 10
374.815624
 20
182.026873
 30
0.0
 10
375.240111
 20
182.383703
 30
0.0
 10
375.761364
 20
182.573019
 30
0.0
 10
376.315274
 20
182.573014
 30
0.0
 10
376.837270
 20
182.383719
 30
0.0
 10
377.258793
 20
182.026816
 30
0.0
 10
377.546670
 20
181.546791
 30
0.0
 10
377.583774
 20
181.183568
 30
0.0
 10
377.602460
 20
181.000640
 30
0.0
 11
377.602460
 21
181.000640
 31
0.0
 11
377.388917
 21
180.210933
 31
0.0
 11
376.827801
 21
179.649613
 31
0.0
 11
376.038380
 21
179.435993
 31
0.0
 11
375.248959
 21
179.649613
 31
0.0
 11
374.687843
 21
180.210933
 31
0.0
 11
374.474300
 21
181.000640
 31
0.0
 11
374.569512
 21
181.538274
 31
0.0
 11
374.838510
 21
182.004362
 31
0.0
 11
375.256340
 21
182.355664
 31
0.0
 11
375.769382
 21
182.541996
 31
0.0
 11
376.307378
 21
182.541996
 31
0.0
 11
376.820420
 21
182.355664
 31
0.0
 11
377.238250
 21
182.004362
 31
0.0
 11
377.507248
 21
181.538274
 31
0.0
 11
377.602460
 21
181.000640
 31
0.0
  0
LINE
  5
11e
100
AcDbEntity
  8
Layer_1
 62
4
100
AcDbLine
 10
371.098250
 20
205.494716
 30
0.0
 11
153.412840
 21
205.494716
 31
0.0
  0
SPLINE
  5
11f
100
AcDbEntity
  8
Layer_1
 62
4
100
AcDbSpline
 70
0
 71
3
 72
10
 73
6
 74
4
 40
0.000000
 40
0.000000
 40
0.000000
 40
0.000000
 40
0.430512
 40
0.850614
 40
1.281126
 40
1.281126
 40
1.281126
 40
1.281126
 10
371.098380
 20
205.496036
 30
0.0
 10
371.242429
 20
205.475950
 30
0.0
 10
371.527044
 20
205.436263
 30
0.0
 10
371.876859
 20
205.142812
 30
0.0
 10
371.965438
 20
204.869437
 30
0.0
 10
372.010270
 20
204.731076
 30
0.0
 11
371.098380
 21
205.496036
 31
0.0
 11
371.517117
 21
205.396034
 31
0.0
 11
371.838969
 21
205.126040
 31
0.0
 11
372.010270
 21
204.731076
 31
0.0
  0
LINE
  5
120
100
AcDbEntity
  8
Layer_1
 62
4
100
AcDbLine
 10
151.338770
 20
207.569046
 30
0.0
 11
151.338770
 21
213.069736
 31
0.0
  0
SPLINE
  5
121
100
AcDbEntity
  8
Layer_1
 62
4
100
AcDbSpline
 70
0
 71
3
 72
10
 73
6
 74
4
 40
0.000000
 40
0.000000
 40
0.000000
 40
0.000000
 40
1.084407
 40
2.136650
 40
3.221057
 40
3.221057
 40
3.221057
 40
3.221057
 10
153.412780
 20
205.496036
 30
0.0
 10
153.049363
 20
205.553081
 30
0.0
 10
152.333307
 20
205.665480
 30
0.0
 10
151.508229
 20
206.490554
 30
0.0
 10
151.395827
 20
207.206609
 30
0.0
 10
151.338780
 20
207.570026
 30
0.0
 11
153.412780
 21
205.496036
 31
0.0
 11
152.365995
 21
205.779196
 31
0.0
 11
151.621945
 21
206.523243
 31
0.0
 11
151.338780
 21
207.570026
 31
0.0
  0
LINE
  5
122
100
AcDbEntity
  8
Layer_1
 62
4
100
AcDbLine
 10
153.338760
 20
215.069986
 30
0.0
 11
376.038280
 21
215.069986
 31
0.0
  0
SPLINE
  5
123
100
AcDbEntity
  8
Layer_1
 62
4
100
AcDbSpline
 70
0
 71
3
 72
13
 73
9
 74
7
 40
0.000000
 40
0.000000
 40
0.000000
 40
0.000000
 40
0.523553
 40
1.042774
 40
1.566327
 40
2.089880
 40
2.609100
 40
3.132653
 40
3.132653
 40
3.132653
 40
3.132653
 10
151.338780
 20
213.069626
 30
0.0
 10
151.352111
 20
213.244654
 30
0.0
 10
151.378662
 20
213.593261
 30
0.0
 10
151.588511
 20
214.080948
 30
0.0
 10
151.907777
 20
214.500635
 30
0.0
 10
152.327461
 20
214.819905
 30
0.0
 10
152.815146
 20
215.029758
 30
0.0
 10
153.163752
 20
215.056313
 30
0.0
 10
153.338780
 20
215.069646
 30
0.0
 11
151.338780
 21
213.069626
 31
0.0
 11
151.407297
 21
213.588676
 31
0.0
 11
151.605990
 21
214.068375
 31
0.0
 11
151.924559
 21
214.483853
 31
0.0
 11
152.340034
 21
214.802426
 31
0.0
 11
152.819730
 21
215.001124
 31
0.0
 11
153.338780
 21
215.069646
 31
0.0
  0
LINE
  5
124
100
AcDbEntity
  8
Layer_1
 62
4
100
AcDbLine
 10
381.592140
 20
209.495456
 30
0.0
 11
381.592140
 21
93.670460
 31
0.0
  0
SPLINE
  5
125
100
AcDbEntity
  8
Layer_1
 62
4
100
AcDbSpline
 70
0
 71
3
 72
13
 73
9
 74
7
 40
0.000000
 40
0.000000
 40
0.000000
 40
0.000000
 40
1.459135
 40
2.906195
 40
4.365330
 40
5.824465
 40
7.271524
 40
8.730659
 40
8.730659
 40
8.730659
 40
8.730659
 10
376.038380
 20
215.069646
 30
0.0
 10
376.526179
 20
215.032488
 30
0.0
 10
377.497741
 20
214.958480
 30
0.0
 10
378.856913
 20
214.373626
 30
0.0
 10
380.026569
 20
213.483828
 30
0.0
 10
380.916365
 20
212.314171
 30
0.0
 10
381.501217
 20
210.954998
 30
0.0
 10
381.575223
 20
209.983435
 30
0.0
 10
381.612380
 20
209.495636
 30
0.0
 11
376.038380
 21
215.069646
 31
0.0
 11
377.484964
 21
214.878677
 31
0.0
 11
378.821873
 21
214.324911
 31
0.0
 11
379.979797
 21
213.437056
 31
0.0
 11
380.867650
 21
212.279130
 31
0.0
 11
381.421414
 21
210.942220
 31
0.0
 11
381.612380
 21
209.495636
 31
0.0
  0
LINE
  5
126
100
AcDbEntity
  8
Layer_1
 62
4
100
AcDbLine
 10
376.038280
 20
88.096720
 30
0.0
 11
100.288480
 21
88.096720
 31
0.0
  0
SPLINE
  5
127
100
AcDbEntity
  8
Layer_1
 62
4
100
AcDbSpline
 70
0
 71
3
 72
13
 73
9
 74
7
 40
0.000000
 40
0.000000
 40
0.000000
 40
0.000000
 40
1.459133
 40
2.906192
 40
4.365325
 40
5.824458
 40
7.271516
 40
8.730649
 40
8.730649
 40
8.730649
 40
8.730649
 10
381.612380
 20
93.670640
 30
0.0
 10
381.575222
 20
93.182841
 30
0.0
 10
381.501215
 20
92.211280
 30
0.0
 10
380.916361
 20
90.852110
 30
0.0
 10
380.026565
 20
89.682455
 30
0.0
 10
378.856910
 20
88.792659
 30
0.0
 10
377.497740
 20
88.207805
 30
0.0
 10
376.526179
 20
88.133798
 30
0.0
 10
376.038380
 20
88.096640
 30
0.0
 11
381.612380
 21
93.670640
 31
0.0
 11
381.421412
 21
92.224058
 31
0.0
 11
380.867647
 21
90.887150
 31
0.0
 11
379.979793
 21
89.729227
 31
0.0
 11
378.821870
 21
88.841373
 31
0.0
 11
377.484962
 21
88.287608
 31
0.0
 11
376.038380
 21
88.096640
 31
0.0
  0
LINE
  5
128
100
AcDbEntity
  8
Layer_1
 62
4
100
AcDbLine
 10
94.734625
 20
93.670460
 30
0.0
 11
94.734625
 21
209.495456
 31
0.0
  0
SPLINE
  5
129
100
AcDbEntity
  8
Layer_1
 62
4
100
AcDbSpline
 70
0
 71
3
 72
10
 73
6
 74
4
 40
0.000000
 40
0.000000
 40
0.000000
 40
0.000000
 40
2.914415
 40
5.742390
 40
8.656805
 40
8.656805
 40
8.656805
 40
8.656805
 10
100.288380
 20
88.096640
 30
0.0
 10
99.311672
 20
88.249954
 30
0.0
 10
97.387225
 20
88.552036
 30
0.0
 10
95.169779
 20
90.769484
 30
0.0
 10
94.867699
 20
92.693932
 30
0.0
 10
94.714385
 20
93.670640
 30
0.0
 11
100.288380
 21
88.096640
 31
0.0
 11
97.475078
 21
88.857656
 31
0.0
 11
95.475399
 21
90.857337
 31
0.0
 11
94.714385
 21
93.670640
 31
0.0
  0
LINE
  5
12a
100
AcDbEntity
  8
Layer_1
 62
4
100
AcDbLine
 10
100.288480
 20
215.069986
 30
0.0
 11
132.486680
 21
215.069986
 31
0.0
  0
SPLINE
  5
12b
100
AcDbEntity
  8
Layer_1
 62
4
100
AcDbSpline
 70
0
 71
3
 72
13
 73
9
 74
7
 40
0.000000
 40
0.000000
 40
0.000000
 40
0.000000
 40
1.459134
 40
2.906193
 40
4.365327
 40
5.824461
 40
7.271520
 40
8.730654
 40
8.730654
 40
8.730654
 40
8.730654
 10
94.714385
 20
209.495636
 30
0.0
 10
94.751542
 20
209.983435
 30
0.0
 10
94.825548
 20
210.954997
 30
0.0
 10
95.410399
 20
212.314169
 30
0.0
 10
96.300194
 20
213.483826
 30
0.0
 10
97.469849
 20
214.373624
 30
0.0
 10
98.829020
 20
214.958479
 30
0.0
 10
99.800581
 20
215.032488
 30
0.0
 10
100.288380
 20
215.069646
 30
0.0
 11
94.714385
 21
209.495636
 31
0.0
 11
94.905351
 21
210.942220
 31
0.0
 11
95.459114
 21
212.279129
 31
0.0
 11
96.346966
 21
213.437054
 31
0.0
 11
97.504889
 21
214.324909
 31
0.0
 11
98.841797
 21
214.878676
 31
0.0
 11
100.288380
 21
215.069646
 31
0.0
  0
LINE
  5
12c
100
AcDbEntity
  8
Layer_1
 62
4
100
AcDbLine
 10
134.486670
 20
213.069736
 30
0.0
 11
134.486670
 21
207.569046
 31
0.0
  0
SPLINE
  5
12d
100
AcDbEntity
  8
Layer_1
 62
4
100
AcDbSpline
 70
0
 71
3
 72
13
 73
9
 74
7
 40
0.000000
 40
0.000000
 40
0.000000
 40
0.000000
 40
0.523553
 40
1.042774
 40
1.566327
 40
2.089880
 40
2.609100
 40
3.132653
 40
3.132653
 40
3.132653
 40
3.132653
 10
132.486780
 20
215.069646
 30
0.0
 10
132.661808
 20
215.056313
 30
0.0
 10
133.010414
 20
215.029758
 30
0.0
 10
133.498099
 20
214.819905
 30
0.0
 10
133.917783
 20
214.500635
 30
0.0
 10
134.237049
 20
214.080948
 30
0.0
 10
134.446898
 20
213.593261
 30
0.0
 10
134.473449
 20
213.244654
 30
0.0
 10
134.486780
 20
213.069626
 30
0.0
 11
132.486780
 21
215.069646
 31
0.0
 11
133.005830
 21
215.001124
 31
0.0
 11
133.485526
 21
214.802426
 31
0.0
 11
133.901001
 21
214.483853
 31
0.0
 11
134.219570
 21
214.068375
 31
0.0
 11
134.418263
 21
213.588676
 31
0.0
 11
134.486780
 21
213.069626
 31
0.0
  0
LINE
  5
12e
100
AcDbEntity
  8
Layer_1
 62
4
100
AcDbLine
 10
132.412860
 20
205.494716
 30
0.0
 11
105.233540
 21
205.494716
 31
0.0
  0
SPLINE
  5
12f
100
AcDbEntity
  8
Layer_1
 62
4
100
AcDbSpline
 70
0
 71
3
 72
10
 73
6
 74
4
 40
0.000000
 40
0.000000
 40
0.000000
 40
0.000000
 40
1.084407
 40
2.136650
 40
3.221057
 40
3.221057
 40
3.221057
 40
3.221057
 10
134.486780
 20
207.570026
 30
0.0
 10
134.429733
 20
207.206609
 30
0.0
 10
134.317331
 20
206.490554
 30
0.0
 10
133.492253
 20
205.665480
 30
0.0
 10
132.776197
 20
205.553081
 30
0.0
 10
132.412780
 20
205.496036
 30
0.0
 11
134.486780
 21
207.570026
 31
0.0
 11
134.203615
 21
206.523243
 31
0.0
 11
133.459565
 21
205.779196
 31
0.0
 11
132.412780
 21
205.496036
 31
0.0
  0
SPLINE
  5
130
100
AcDbEntity
  8
Layer_1
 62
4
100
AcDbSpline
 70
0
 71
3
 72
10
 73
6
 74
4
 40
0.000000
 40
0.000000
 40
0.000000
 40
0.000000
 40
0.403168
 40
0.797664
 40
1.200832
 40
1.200832
 40
1.200832
 40
1.200832
 10
104.339560
 20
204.811426
 30
0.0
 10
104.391693
 20
204.936988
 30
0.0
 10
104.494837
 20
205.185410
 30
0.0
 10
104.832009
 20
205.443617
 30
0.0
 10
105.098730
 20
205.478437
 30
0.0
 10
105.233540
 20
205.496036
 30
0.0
 11
104.339560
 21
204.811426
 31
0.0
 11
104.526825
 21
205.168464
 31
0.0
 11
104.840031
 21
205.408317
 31
0.0
 11
105.233540
 21
205.496036
 31
0.0
  0
LINE
  5
131
100
AcDbEntity
  8
Layer_1
 62
4
100
AcDbLine
 10
104.311520
 20
204.494726
 30
0.0
 11
104.311520
 21
126.973030
 31
0.0
  0
SPLINE
  5
132
100
AcDbEntity
  8
Layer_1
 62
4
100
AcDbSpline
 70
0
 71
3
 72
10
 73
6
 74
4
 40
0.000000
 40
0.000000
 40
0.000000
 40
0.000000
 40
0.107101
 40
0.214049
 40
0.321150
 40
0.321150
 40
0.321150
 40
0.321150
 10
104.288380
 20
204.495626
 30
0.0
 10
104.289530
 20
204.531330
 30
0.0
 10
104.291828
 20
204.602687
 30
0.0
 10
104.309025
 20
204.708760
 30
0.0
 10
104.329390
 20
204.777188
 30
0.0
 10
104.339580
 20
204.811426
 30
0.0
 11
104.288380
 21
204.495626
 31
0.0
 11
104.294124
 21
204.602573
 31
0.0
 11
104.311239
 21
204.708143
 31
0.0
 11
104.339580
 21
204.811426
 31
0.0
  0
LINE
  5
133
100
AcDbEntity
  8
Layer_1
 62
4
100
AcDbLine
 10
104.312310
 20
126.918280
 30
0.0
 11
104.312310
 21
100.599730
 31
0.0
  0
SPLINE
  5
134
100
AcDbEntity
  8
Layer_1
 62
4
100
AcDbSpline
 70
0
 71
3
 72
10
 73
6
 74
4
 40
0.000000
 40
0.000000
 40
0.000000
 40
0.000000
 40
0.013337
 40
0.026673
 40
0.040010
 40
0.040010
 40
0.040010
 40
0.040010
 10
104.289180
 20
148.255640
 30
0.0
 10
104.289021
 20
148.260083
 30
0.0
 10
104.288703
 20
148.268968
 30
0.0
 10
104.288440
 20
148.282303
 30
0.0
 10
104.288407
 20
148.291194
 30
0.0
 10
104.288390
 20
148.295640
 30
0.0
 11
104.289180
 21
148.255640
 31
0.0
 11
104.288739
 21
148.268970
 31
0.0
 11
104.288475
 21
148.282303
 31
0.0
 11
104.288390
 21
148.295640
 31
0.0
  0
LINE
  5
135
100
AcDbEntity
  8
Layer_1
 62
4
100
AcDbLine
 10
105.215280
 20
99.673830
 30
0.0
 11
166.723760
 21
99.673830
 31
0.0
  0
SPLINE
  5
136
100
AcDbEntity
  8
Layer_1
 62
4
100
AcDbSpline
 70
0
 71
3
 72
10
 73
6
 74
4
 40
0.000000
 40
0.000000
 40
0.000000
 40
0.000000
 40
0.484168
 40
0.953975
 40
1.438142
 40
1.438142
 40
1.438142
 40
1.438142
 10
105.215180
 20
99.673840
 30
0.0
 10
105.052921
 20
99.699310
 30
0.0
 10
104.733215
 20
99.749494
 30
0.0
 10
104.364834
 20
100.117875
 30
0.0
 10
104.314650
 20
100.437581
 30
0.0
 10
104.289180
 20
100.599840
 30
0.0
 11
105.215180
 21
99.673840
 31
0.0
 11
104.747810
 21
99.800266
 31
0.0
 11
104.415606
 21
100.132470
 31
0.0
 11
104.289180
 21
100.599840
 31
0.0
  0
LINE
  5
137
100
AcDbEntity
  8
Layer_1
 62
4
100
AcDbLine
 10
168.578760
 20
97.818830
 30
0.0
 11
168.578760
 21
97.025080
 31
0.0
  0
SPLINE
  5
138
100
AcDbEntity
  8
Layer_1
 62
4
100
AcDbSpline
 70
0
 71
3
 72
13
 73
9
 74
7
 40
0.000000
 40
0.000000
 40
0.000000
 40
0.000000
 40
0.485619
 40
0.967220
 40
1.452839
 40
1.938458
 40
2.420059
 40
2.905678
 40
2.905678
 40
2.905678
 40
2.905678
 10
166.723780
 20
99.673840
 30
0.0
 10
166.886126
 20
99.661474
 30
0.0
 10
167.209475
 20
99.636845
 30
0.0
 10
167.661826
 20
99.442199
 30
0.0
 10
168.051103
 20
99.146063
 30
0.0
 10
168.347239
 20
98.756786
 30
0.0
 10
168.541885
 20
98.304435
 30
0.0
 10
168.566514
 20
97.981086
 30
0.0
 10
168.578880
 20
97.818740
 30
0.0
 11
166.723780
 21
99.673840
 31
0.0
 11
167.205223
 21
99.610285
 31
0.0
 11
167.650164
 21
99.425986
 31
0.0
 11
168.035537
 21
99.130497
 31
0.0
 11
168.331026
 21
98.745124
 31
0.0
 11
168.515325
 21
98.300183
 31
0.0
 11
168.578880
 21
97.818740
 31
0.0
  0
LINE
  5
139
100
AcDbEntity
  8
Layer_1
 62
4
100
AcDbLine
 10
171.486000
 20
94.117840
 30
0.0
 11
304.827530
 21
94.117840
 31
0.0
  0
SPLINE
  5
13a
100
AcDbEntity
  8
Layer_1
 62
4
100
AcDbSpline
 70
0
 71
3
 72
13
 73
9
 74
7
 40
0.000000
 40
0.000000
 40
0.000000
 40
0.000000
 40
0.761006
 40
1.515715
 40
2.276722
 40
3.037728
 40
3.792437
 40
4.553444
 40
4.553444
 40
4.553444
 40
4.553444
 10
171.485980
 20
94.117940
 30
0.0
 10
171.231570
 20
94.137319
 30
0.0
 10
170.724855
 20
94.175916
 30
0.0
 10
170.015983
 20
94.480943
 30
0.0
 10
169.405953
 20
94.945013
 30
0.0
 10
168.941883
 20
95.555043
 30
0.0
 10
168.636856
 20
96.263915
 30
0.0
 10
168.598259
 20
96.770630
 30
0.0
 10
168.578880
 20
97.025040
 30
0.0
 11
171.485980
 21
94.117940
 31
0.0
 11
170.731519
 21
94.217537
 31
0.0
 11
170.034259
 21
94.506350
 31
0.0
 11
169.430347
 21
94.969407
 31
0.0
 11
168.967290
 21
95.573319
 31
0.0
 11
168.678477
 21
96.270579
 31
0.0
 11
168.578880
 21
97.025040
 31
0.0
  0
LINE
  5
13b
100
AcDbEntity
  8
Layer_1
 62
4
100
AcDbLine
 10
307.734770
 20
97.025080
 30
0.0
 11
307.734770
 21
97.722520
 31
0.0
  0
SPLINE
  5
13c
100
AcDbEntity
  8
Layer_1
 62
4
100
AcDbSpline
 70
0
 71
3
 72
10
 73
6
 74
4
 40
0.000000
 40
0.000000
 40
0.000000
 40
0.000000
 40
1.520002
 40
2.994922
 40
4.514925
 40
4.514925
 40
4.514925
 40
4.514925
 10
307.734680
 20
97.025040
 30
0.0
 10
307.654718
 20
96.515642
 30
0.0
 10
307.497167
 20
95.511954
 30
0.0
 10
306.340666
 20
94.355453
 30
0.0
 10
305.336978
 20
94.197902
 30
0.0
 10
304.827580
 20
94.117940
 30
0.0
 11
307.734680
 21
97.025040
 31
0.0
 11
307.337773
 21
95.557773
 31
0.0
 11
306.294847
 21
94.514847
 31
0.0
 11
304.827580
 21
94.117940
 31
0.0
  0
LINE
  5
13d
100
AcDbEntity
  8
Layer_1
 62
4
100
AcDbLine
 10
309.590300
 20
99.577520
 30
0.0
 11
362.535540
 21
99.670620
 31
0.0
  0
LINE
  5
13e
100
AcDbEntity
  8
Layer_1
 62
4
100
AcDbLine
 10
362.535540
 20
99.670650
 30
0.0
 11
366.275950
 21
99.670650
 31
0.0
  0
SPLINE
  5
13f
100
AcDbEntity
  8
Layer_1
 62
4
100
AcDbSpline
 70
0
 71
3
 72
13
 73
9
 74
7
 40
0.000000
 40
0.000000
 40
0.000000
 40
0.000000
 40
0.485698
 40
0.967375
 40
1.453072
 40
1.938770
 40
2.420447
 40
2.906144
 40
2.906144
 40
2.906144
 40
2.906144
 10
307.734680
 20
97.722450
 30
0.0
 10
307.747050
 20
97.884822
 30
0.0
 10
307.771687
 20
98.208223
 30
0.0
 10
307.966395
 20
98.660637
 30
0.0
 10
308.262620
 20
99.049946
 30
0.0
 10
308.652005
 20
99.346073
 30
0.0
 10
309.104467
 20
99.540666
 30
0.0
 10
309.427874
 20
99.565221
 30
0.0
 10
309.590250
 20
99.577550
 30
0.0
 11
307.734680
 21
97.722450
 31
0.0
 11
307.798255
 21
98.203969
 31
0.0
 11
307.982612
 21
98.648969
 31
0.0
 11
308.278189
 21
99.034373
 31
0.0
 11
308.663668
 21
99.329853
 31
0.0
 11
309.108715
 21
99.514097
 31
0.0
 11
309.590250
 21
99.577550
 31
0.0
  0
LINE
  5
140
100
AcDbEntity
  8
Layer_1
 62
4
100
AcDbLine
 10
366.355860
 20
99.673830
 30
0.0
 11
371.098250
 21
99.673830
 31
0.0
  0
SPLINE
  5
141
100
AcDbEntity
  8
Layer_1
 62
4
100
AcDbSpline
 70
0
 71
3
 72
10
 73
6
 74
4
 40
0.000000
 40
0.000000
 40
0.000000
 40
0.000000
 40
0.026659
 40
0.053316
 40
0.079975
 40
0.079975
 40
0.079975
 40
0.079975
 10
366.355810
 20
99.673840
 30
0.0
 10
366.346945
 20
99.673223
 30
0.0
 10
366.329215
 20
99.671988
 30
0.0
 10
366.302569
 20
99.670988
 30
0.0
 10
366.284797
 20
99.670889
 30
0.0
 10
366.275910
 20
99.670840
 30
0.0
 11
366.355810
 21
99.673840
 31
0.0
 11
366.329206
 21
99.672130
 31
0.0
 11
366.302568
 21
99.671130
 31
0.0
 11
366.275910
 21
99.670840
 31
0.0
  0
LINE
  5
142
100
AcDbEntity
  8
Layer_1
 62
4
100
AcDbLine
 10
372.001220
 20
100.599730
 30
0.0
 11
372.001220
 21
126.743100
 31
0.0
  0
SPLINE
  5
143
100
AcDbEntity
  8
Layer_1
 62
4
100
AcDbSpline
 70
0
 71
3
 72
10
 73
6
 74
4
 40
0.000000
 40
0.000000
 40
0.000000
 40
0.000000
 40
0.484168
 40
0.953975
 40
1.438142
 40
1.438142
 40
1.438142
 40
1.438142
 10
372.024380
 20
100.599840
 30
0.0
 10
371.998910
 20
100.437581
 30
0.0
 10
371.948726
 20
100.117875
 30
0.0
 10
371.580345
 20
99.749494
 30
0.0
 10
371.260639
 20
99.699310
 30
0.0
 10
371.098380
 20
99.673840
 30
0.0
 11
372.024380
 21
100.599840
 31
0.0
 11
371.897954
 21
100.132470
 31
0.0
 11
371.565750
 21
99.800266
 31
0.0
 11
371.098380
 21
99.673840
 31
0.0
  0
LINE
  5
144
100
AcDbEntity
  8
Layer_1
 62
4
100
AcDbLine
 10
372.015240
 20
126.973030
 30
0.0
 11
372.015240
 21
204.494726
 31
0.0
  0
SPLINE
  5
145
100
AcDbEntity
  8
Layer_1
 62
4
100
AcDbSpline
 70
0
 71
3
 72
10
 73
6
 74
4
 40
0.000000
 40
0.000000
 40
0.000000
 40
0.000000
 40
0.055841
 40
0.111660
 40
0.167501
 40
0.167501
 40
0.167501
 40
0.167501
 10
372.038380
 20
148.295640
 30
0.0
 10
372.038068
 20
148.277026
 30
0.0
 10
372.037444
 20
148.239805
 30
0.0
 10
372.032768
 20
148.184109
 30
0.0
 10
372.027176
 20
148.147305
 30
0.0
 10
372.024380
 20
148.128900
 30
0.0
 11
372.038380
 21
148.295640
 31
0.0
 11
372.036821
 21
148.239821
 31
0.0
 11
372.032150
 21
148.184198
 31
0.0
 11
372.024380
 21
148.128900
 31
0.0
  0
SPLINE
  5
146
100
AcDbEntity
  8
Layer_1
 62
4
100
AcDbSpline
 70
0
 71
3
 72
10
 73
6
 74
4
 40
0.000000
 40
0.000000
 40
0.000000
 40
0.000000
 40
0.079227
 40
0.158391
 40
0.237618
 40
0.237618
 40
0.237618
 40
0.237618
 10
372.010270
 20
204.731076
 30
0.0
 10
372.015877
 20
204.705260
 30
0.0
 10
372.027086
 20
204.653648
 30
0.0
 10
372.036492
 20
204.574836
 30
0.0
 10
372.037744
 20
204.522036
 30
0.0
 10
372.038370
 20
204.495626
 30
0.0
 11
372.010270
 21
204.731076
 31
0.0
 11
372.025855
 21
204.653397
 31
0.0
 11
372.035236
 21
204.574791
 31
0.0
 11
372.038370
 21
204.495626
 31
0.0
  0
ENDSEC
  0
SECTION
  2
OBJECTS
  0
DICTIONARY
  5
C
330
0
100
AcDbDictionary
  3
ACAD_GROUP
350
D
  3
ACAD_MLINESTYLE
350
17
  0
DICTIONARY
  5
D
330
C
100
AcDbDictionary
  0
DICTIONARY
  5
1A
330
C
100
AcDbDictionary
  0
DICTIONARY
  5
17
330
C
100
AcDbDictionary
  3
STANDARD
350
18
  0
DICTIONARY
  5
19
330
C
100
AcDbDictionary
  0
ENDSEC
  0
EOF
