  0
SECTION
  2
HEADER
  9
$ACADVER
  1
AC1014
  9
$HANDSEED
  5
FFFF
  9
$INSUNITS
 70
     4
  9
$MEASUREMENT
 70
     1
  0
ENDSEC
  0
SECTION
  2
TABLES
  0
TABLE
  2
VPORT
  5
8
330
0
100
AcDbSymbolTable
 70
     4
  0
VPORT
  5
2E
330
8
100
AcDbSymbolTableRecord
100
AcDbViewportTableRecord
  2
*ACTIVE
 70
     0
 10
0.0
 20
0.0
 11
1.0
 21
1.0
 12
210.0
 22
148.5
 13
0.0
 23
0.0
 14
10.0
 24
10.0
 15
10.0
 25
10.0
 16
0.0
 26
0.0
 36
1.0
 17
0.0
 27
0.0
 37
0.0
 40
341.0
 41
1.24
 42
50.0
 43
0.0
 44
0.0
 50
0.0
 51
0.0
 71
     0
 72
   100
 73
     1
 74
     3
 75
     0
 76
     0
 77
     0
 78
     0
  0
ENDTAB
  0
TABLE
  2
LTYPE
  5
5
330
0
100
AcDbSymbolTable
 70
     1
  0
LTYPE
  5
14
330
5
100
AcDbSymbolTableRecord
100
AcDbLinetypeTableRecord
  2
BYBLOCK
 70
     0
  3

 72
    65
 73
     0
 40
0.0
  0
LTYPE
  5
15
330
5
100
AcDbSymbolTableRecord
100
AcDbLinetypeTableRecord
  2
BYLAYER
 70
     0
  3

 72
    65
 73
     0
 40
0.0
  0
LTYPE
  5
16
330
5
100
AcDbSymbolTableRecord
100
AcDbLinetypeTableRecord
  2
CONTINUOUS
 70
     0
  3
Solid line
 72
    65
 73
     0
 40
0.0
  0
ENDTAB
  0
TABLE
  2
LAYER
  5
2
100
AcDbSymbolTable
 70
2
  0
LAYER
  5
50
100
AcDbSymbolTableRecord
100
AcDbLayerTableRecord
  2
0
 70
0
  6
CONTINUOUS
  0
LAYER
  5
51
100
AcDbSymbolTableRecord
100
AcDbLayerTableRecord
  2
Layer_1
 70
0
  6
CONTINUOUS
  0
ENDTAB
  0
TABLE
  2
STYLE
  5
3
330
0
100
AcDbSymbolTable
 70
     1
  0
STYLE
  5
11
330
3
100
AcDbSymbolTableRecord
100
AcDbTextStyleTableRecord
  2
STANDARD
 70
     0
 40
0.0
 41
1.0
 50
0.0
 71
     0
 42
2.5
  3
txt
  4

  0
ENDTAB
  0
TABLE
  2
VIEW
  5
6
330
0
100
AcDbSymbolTable
 70
     0
  0
ENDTAB
  0
TABLE
  2
UCS
  5
7
330
0
100
AcDbSymbolTable
 70
     0
  0
ENDTAB
  0
TABLE
  2
APPID
  5
9
330
0
100
AcDbSymbolTable
 70
     2
  0
APPID
  5
12
330
9
100
AcDbSymbolTableRecord
100
AcDbRegAppTableRecord
  2
ACAD
 70
     0
  0
ENDTAB
  0
TABLE
  2
DIMSTYLE
  5
A
330
0
100
AcDbSymbolTable
 70
     1
  0
DIMSTYLE
105
27
330
A
100
AcDbSymbolTableRecord
100
AcDbDimStyleTableRecord
  2
ISO-25
 70
     0
  3

  4

  5

  6

  7

 40
1.0
 41
2.5
 42
0.625
 43
3.75
 44
1.25
 45
0.0
 46
0.0
 47
0.0
 48
0.0
140
2.5
141
2.5
142
0.0
143
0.03937007874016
144
1.0
145
0.0
146
1.0
147
0.625
 71
     0
 72
     0
 73
     0
 74
     0
 75
     0
 76
     0
 77
     1
 78
     8
170
     0
171
     3
172
     1
173
     0
174
     0
175
     0
176
     0
177
     0
178
     0
270
     2
271
     2
272
     2
273
     2
274
     3
340
11
275
     0
280
     0
281
     0
282
     0
283
     0
284
     8
285
     0
286
     0
287
     3
288
     0
  0
ENDTAB
  0
TABLE
  2
BLOCK_RECORD
  5
1
330
0
100
AcDbSymbolTable
 70
     1
  0
BLOCK_RECORD
  5
1F
330
1
100
AcDbSymbolTableRecord
100
AcDbBlockTableRecord
  2
*MODEL_SPACE
  0
BLOCK_RECORD
  5
1B
330
1
100
AcDbSymbolTableRecord
100
AcDbBlockTableRecord
  2
*PAPER_SPACE
  0
ENDTAB
  0
ENDSEC
  0
SECTION
  2
BLOCKS
  0
BLOCK
  5
20
330
1F
100
AcDbEntity
  8
0
100
AcDbBlockBegin
  2
*MODEL_SPACE
 70
     0
 10
0.0
 20
0.0
 30
0.0
  3
*MODEL_SPACE
  1

  0
ENDBLK
  5
21
330
1F
100
AcDbEntity
  8
0
100
AcDbBlockEnd
  0
BLOCK
  5
1C
330
1B
100
AcDbEntity
 67
     1
  8
0
100
AcDbBlockBegin
  2
*PAPER_SPACE
  1

  0
ENDBLK
  5
1D
330
1B
100
AcDbEntity
 67
     1
  8
0
100
AcDbBlockEnd
  0
ENDSEC
  0
SECTION
  2
ENTITIES
  0
LINE
  5
100
100
AcDbEntity
  8
Layer_1
 62
3
100
AcDbLine
 10
309.822890
 20
93.673550
 30
0.0
 11
309.822890
 21
93.673550
 31
0.0
  0
SPLINE
  5
101
100
AcDbEntity
  8
Layer_1
 62
3
100
AcDbSpline
 70
0
 71
3
 72
25
 73
21
 74
19
 40
0.000000
 40
0.000000
 40
0.000000
 40
0.000000
 40
0.331516
 40
0.658287
 40
0.989803
 40
1.321319
 40
1.648091
 40
1.979606
 40
2.311122
 40
2.637894
 40
2.969410
 40
3.300926
 40
3.627697
 40
3.959213
 40
4.290729
 40
4.617500
 40
4.949016
 40
5.280532
 40
5.607303
 40
5.938819
 40
5.938819
 40
5.938819
 40
5.938819
 10
309.822890
 20
93.673550
 30
0.0
 10
309.811539
 20
93.562481
 30
0.0
 10
309.789001
 20
93.341933
 30
0.0
 10
309.614137
 20
93.050475
 30
0.0
 10
309.358108
 20
92.833784
 30
0.0
 10
309.041064
 20
92.718858
 30
0.0
 10
308.704644
 20
92.718858
 30
0.0
 10
308.388043
 20
92.833784
 30
0.0
 10
308.130241
 20
93.050475
 30
0.0
 10
307.961965
 20
93.341933
 30
0.0
 10
307.903212
 20
93.673550
 30
0.0
 10
307.961965
 20
94.005167
 30
0.0
 10
308.130241
 20
94.296625
 30
0.0
 10
308.388043
 20
94.513316
 30
0.0
 10
308.704644
 20
94.628242
 30
0.0
 10
309.041064
 20
94.628242
 30
0.0
 10
309.358108
 20
94.513316
 30
0.0
 10
309.614137
 20
94.296625
 30
0.0
 10
309.789001
 20
94.005167
 30
0.0
 10
309.811539
 20
93.784619
 30
0.0
 10
309.822890
 20
93.673550
 30
0.0
 11
309.822890
 21
93.673550
 31
0.0
 11
309.765060
 21
93.347117
 31
0.0
 11
309.601674
 21
93.064125
 31
0.0
 11
309.347890
 21
92.850826
 31
0.0
 11
309.036276
 21
92.737692
 31
0.0
 11
308.709504
 21
92.737692
 31
0.0
 11
308.397890
 21
92.850826
 31
0.0
 11
308.144106
 21
93.064125
 31
0.0
 11
307.980720
 21
93.347117
 31
0.0
 11
307.922890
 21
93.673550
 31
0.0
 11
307.980720
 21
93.999983
 31
0.0
 11
308.144106
 21
94.282975
 31
0.0
 11
308.397890
 21
94.496274
 31
0.0
 11
308.709504
 21
94.609408
 31
0.0
 11
309.036276
 21
94.609408
 31
0.0
 11
309.347890
 21
94.496274
 31
0.0
 11
309.601674
 21
94.282975
 31
0.0
 11
309.765060
 21
93.999983
 31
0.0
 11
309.822890
 21
93.673550
 31
0.0
  0
LINE
  5
102
100
AcDbEntity
  8
Layer_1
 62
3
100
AcDbLine
 10
168.385580
 20
93.673550
 30
0.0
 11
168.385580
 21
93.673550
 31
0.0
  0
SPLINE
  5
103
100
AcDbEntity
  8
Layer_1
 62
3
100
AcDbSpline
 70
0
 71
3
 72
25
 73
21
 74
19
 40
0.000000
 40
0.000000
 40
0.000000
 40
0.000000
 40
0.331516
 40
0.658287
 40
0.989803
 40
1.321319
 40
1.648091
 40
1.979606
 40
2.311122
 40
2.637894
 40
2.969410
 40
3.300926
 40
3.627697
 40
3.959213
 40
4.290729
 40
4.617500
 40
4.949016
 40
5.280532
 40
5.607303
 40
5.938819
 40
5.938819
 40
5.938819
 40
5.938819
 10
168.385580
 20
93.673550
 30
0.0
 10
168.374229
 20
93.562481
 30
0.0
 10
168.351691
 20
93.341933
 30
0.0
 10
168.176827
 20
93.050475
 30
0.0
 10
167.920798
 20
92.833784
 30
0.0
 10
167.603754
 20
92.718858
 30
0.0
 10
167.267334
 20
92.718858
 30
0.0
 10
166.950733
 20
92.833784
 30
0.0
 10
166.692931
 20
93.050475
 30
0.0
 10
166.524655
 20
93.341933
 30
0.0
 10
166.465902
 20
93.673550
 30
0.0
 10
166.524655
 20
94.005167
 30
0.0
 10
166.692931
 20
94.296625
 30
0.0
 10
166.950733
 20
94.513316
 30
0.0
 10
167.267334
 20
94.628242
 30
0.0
 10
167.603754
 20
94.628242
 30
0.0
 10
167.920798
 20
94.513316
 30
0.0
 10
168.176827
 20
94.296625
 30
0.0
 10
168.351691
 20
94.005167
 30
0.0
 10
168.374229
 20
93.784619
 30
0.0
 10
168.385580
 20
93.673550
 30
0.0
 11
168.385580
 21
93.673550
 31
0.0
 11
168.327750
 21
93.347117
 31
0.0
 11
168.164364
 21
93.064125
 31
0.0
 11
167.910580
 21
92.850826
 31
0.0
 11
167.598966
 21
92.737692
 31
0.0
 11
167.272194
 21
92.737692
 31
0.0
 11
166.960580
 21
92.850826
 31
0.0
 11
166.706796
 21
93.064125
 31
0.0
 11
166.543410
 21
93.347117
 31
0.0
 11
166.485580
 21
93.673550
 31
0.0
 11
166.543410
 21
93.999983
 31
0.0
 11
166.706796
 21
94.282975
 31
0.0
 11
166.960580
 21
94.496274
 31
0.0
 11
167.272194
 21
94.609408
 31
0.0
 11
167.598966
 21
94.609408
 31
0.0
 11
167.910580
 21
94.496274
 31
0.0
 11
168.164364
 21
94.282975
 31
0.0
 11
168.327750
 21
93.999983
 31
0.0
 11
168.385580
 21
93.673550
 31
0.0
  0
SPLINE
  5
104
100
AcDbEntity
  8
Layer_1
 62
3
100
AcDbSpline
 70
0
 71
3
 72
13
 73
9
 74
7
 40
0.000000
 40
0.000000
 40
0.000000
 40
0.000000
 40
0.817941
 40
1.610930
 40
2.427314
 40
3.243699
 40
4.036688
 40
4.854629
 40
4.854629
 40
4.854629
 40
4.854629
 10
101.849440
 20
209.498553
 30
0.0
 10
101.805931
 20
209.222902
 30
0.0
 10
101.720241
 20
208.680009
 30
0.0
 10
101.098796
 20
208.082390
 30
0.0
 10
100.285842
 20
207.860803
 30
0.0
 10
99.472888
 20
208.082390
 30
0.0
 10
98.851443
 20
208.680009
 30
0.0
 10
98.765753
 20
209.222902
 30
0.0
 10
98.722244
 20
209.498553
 30
0.0
 11
101.849440
 21
209.498553
 31
0.0
 11
101.634678
 21
208.709310
 31
0.0
 11
101.073874
 21
208.148657
 31
0.0
 11
100.285842
 21
207.935377
 31
0.0
 11
99.497810
 21
208.148657
 31
0.0
 11
98.937006
 21
208.709310
 31
0.0
 11
98.722244
 21
209.498553
 31
0.0
  0
LINE
  5
105
100
AcDbEntity
  8
Layer_1
 62
3
100
AcDbLine
 10
101.849440
 20
209.498553
 30
0.0
 11
101.849440
 21
209.498553
 31
0.0
  0
SPLINE
  5
106
100
AcDbEntity
  8
Layer_1
 62
3
100
AcDbSpline
 70
0
 71
3
 72
13
 73
9
 74
7
 40
0.000000
 40
0.000000
 40
0.000000
 40
0.000000
 40
0.817941
 40
1.610930
 40
2.427314
 40
3.243699
 40
4.036688
 40
4.854629
 40
4.854629
 40
4.854629
 40
4.854629
 10
98.722244
 20
209.498553
 30
0.0
 10
98.765753
 20
209.774204
 30
0.0
 10
98.851443
 20
210.317097
 30
0.0
 10
99.472888
 20
210.914716
 30
0.0
 10
100.285842
 20
211.136303
 30
0.0
 10
101.098796
 20
210.914716
 30
0.0
 10
101.720241
 20
210.317097
 30
0.0
 10
101.805931
 20
209.774204
 30
0.0
 10
101.849440
 20
209.498553
 30
0.0
 11
98.722244
 21
209.498553
 31
0.0
 11
98.937006
 21
210.287796
 31
0.0
 11
99.497810
 21
210.848449
 31
0.0
 11
100.285842
 21
211.061729
 31
0.0
 11
101.073874
 21
210.848449
 31
0.0
 11
101.634678
 21
210.287796
 31
0.0
 11
101.849440
 21
209.498553
 31
0.0
  0
SPLINE
  5
107
100
AcDbEntity
  8
Layer_1
 62
3
100
AcDbSpline
 70
0
 71
3
 72
13
 73
9
 74
7
 40
0.000000
 40
0.000000
 40
0.000000
 40
0.000000
 40
0.816887
 40
1.609578
 40
2.426464
 40
3.243350
 40
4.036042
 40
4.852928
 40
4.852928
 40
4.852928
 40
4.852928
 10
377.599460
 20
209.498553
 30
0.0
 10
377.556171
 20
209.223198
 30
0.0
 10
377.470874
 20
208.680643
 30
0.0
 10
376.849010
 20
208.083666
 30
0.0
 10
376.035840
 20
207.862485
 30
0.0
 10
375.222670
 20
208.083666
 30
0.0
 10
374.600806
 20
208.680643
 30
0.0
 10
374.515509
 20
209.223198
 30
0.0
 10
374.472220
 20
209.498553
 30
0.0
 11
377.599460
 21
209.498553
 31
0.0
 11
377.385311
 21
208.710236
 31
0.0
 11
376.824432
 21
208.150080
 31
0.0
 11
376.035840
 21
207.936947
 31
0.0
 11
375.247248
 21
208.150080
 31
0.0
 11
374.686369
 21
208.710236
 31
0.0
 11
374.472220
 21
209.498553
 31
0.0
  0
LINE
  5
108
100
AcDbEntity
  8
Layer_1
 62
3
100
AcDbLine
 10
377.599460
 20
209.498553
 30
0.0
 11
377.599460
 21
209.498553
 31
0.0
  0
SPLINE
  5
109
100
AcDbEntity
  8
Layer_1
 62
3
100
AcDbSpline
 70
0
 71
3
 72
13
 73
9
 74
7
 40
0.000000
 40
0.000000
 40
0.000000
 40
0.000000
 40
0.816887
 40
1.609578
 40
2.426464
 40
3.243350
 40
4.036042
 40
4.852928
 40
4.852928
 40
4.852928
 40
4.852928
 10
374.472220
 20
209.498553
 30
0.0
 10
374.515509
 20
209.773908
 30
0.0
 10
374.600806
 20
210.316463
 30
0.0
 10
375.222670
 20
210.913440
 30
0.0
 10
376.035840
 20
211.134621
 30
0.0
 10
376.849010
 20
210.913440
 30
0.0
 10
377.470874
 20
210.316463
 30
0.0
 10
377.556171
 20
209.773908
 30
0.0
 10
377.599460
 20
209.498553
 30
0.0
 11
374.472220
 21
209.498553
 31
0.0
 11
374.686369
 21
210.286870
 31
0.0
 11
375.247248
 21
210.847026
 31
0.0
 11
376.035840
 21
211.060159
 31
0.0
 11
376.824432
 21
210.847026
 31
0.0
 11
377.385311
 21
210.286870
 31
0.0
 11
377.599460
 21
209.498553
 31
0.0
  0
LINE
  5
10a
100
AcDbEntity
  8
Layer_1
 62
3
100
AcDbLine
 10
353.451610
 20
209.498553
 30
0.0
 11
353.451610
 21
209.498553
 31
0.0
  0
SPLINE
  5
10b
100
AcDbEntity
  8
Layer_1
 62
3
100
AcDbSpline
 70
0
 71
3
 72
25
 73
21
 74
19
 40
0.000000
 40
0.000000
 40
0.000000
 40
0.000000
 40
0.345743
 40
0.686538
 40
1.032282
 40
1.378025
 40
1.718820
 40
2.064563
 40
2.410306
 40
2.751102
 40
3.096845
 40
3.442588
 40
3.783383
 40
4.129127
 40
4.474870
 40
4.815665
 40
5.161408
 40
5.507151
 40
5.847946
 40
6.193690
 40
6.193690
 40
6.193690
 40
6.193690
 10
353.451610
 20
209.498553
 30
0.0
 10
353.439772
 20
209.382717
 30
0.0
 10
353.416266
 20
209.152704
 30
0.0
 10
353.233899
 20
208.848738
 30
0.0
 10
352.966881
 20
208.622747
 30
0.0
 10
352.636231
 20
208.502889
 30
0.0
 10
352.285373
 20
208.502889
 30
0.0
 10
351.955186
 20
208.622747
 30
0.0
 10
351.686319
 20
208.848738
 30
0.0
 10
351.510822
 20
209.152704
 30
0.0
 10
351.449547
 20
209.498553
 30
0.0
 10
351.510822
 20
209.844402
 30
0.0
 10
351.686319
 20
210.148368
 30
0.0
 10
351.955186
 20
210.374359
 30
0.0
 10
352.285373
 20
210.494217
 30
0.0
 10
352.636231
 20
210.494217
 30
0.0
 10
352.966881
 20
210.374359
 30
0.0
 10
353.233899
 20
210.148368
 30
0.0
 10
353.416266
 20
209.844402
 30
0.0
 10
353.439772
 20
209.614389
 30
0.0
 10
353.451610
 20
209.498553
 30
0.0
 11
353.451610
 21
209.498553
 31
0.0
 11
353.391298
 21
209.158111
 31
0.0
 11
353.220901
 21
208.862973
 31
0.0
 11
352.956225
 21
208.640521
 31
0.0
 11
352.631238
 21
208.522531
 31
0.0
 11
352.290442
 21
208.522531
 31
0.0
 11
351.965455
 21
208.640521
 31
0.0
 11
351.700779
 21
208.862973
 31
0.0
 11
351.530382
 21
209.158111
 31
0.0
 11
351.470070
 21
209.498553
 31
0.0
 11
351.530382
 21
209.838995
 31
0.0
 11
351.700779
 21
210.134133
 31
0.0
 11
351.965455
 21
210.356585
 31
0.0
 11
352.290442
 21
210.474575
 31
0.0
 11
352.631238
 21
210.474575
 31
0.0
 11
352.956225
 21
210.356585
 31
0.0
 11
353.220901
 21
210.134133
 31
0.0
 11
353.391298
 21
209.838995
 31
0.0
 11
353.451610
 21
209.498553
 31
0.0
  0
LINE
  5
10c
100
AcDbEntity
  8
Layer_1
 62
3
100
AcDbLine
 10
129.573340
 20
93.673550
 30
0.0
 11
129.573340
 21
93.673550
 31
0.0
  0
SPLINE
  5
10d
100
AcDbEntity
  8
Layer_1
 62
3
100
AcDbSpline
 70
0
 71
3
 72
25
 73
21
 74
19
 40
0.000000
 40
0.000000
 40
0.000000
 40
0.000000
 40
0.331516
 40
0.658287
 40
0.989803
 40
1.321319
 40
1.648091
 40
1.979606
 40
2.311122
 40
2.637894
 40
2.969410
 40
3.300926
 40
3.627697
 40
3.959213
 40
4.290729
 40
4.617500
 40
4.949016
 40
5.280532
 40
5.607303
 40
5.938819
 40
5.938819
 40
5.938819
 40
5.938819
 10
129.573340
 20
93.673550
 30
0.0
 10
129.561989
 20
93.562481
 30
0.0
 10
129.539451
 20
93.341933
 30
0.0
 10
129.364587
 20
93.050475
 30
0.0
 10
129.108558
 20
92.833784
 30
0.0
 10
128.791514
 20
92.718858
 30
0.0
 10
128.455094
 20
92.718858
 30
0.0
 10
128.138493
 20
92.833784
 30
0.0
 10
127.880691
 20
93.050475
 30
0.0
 10
127.712415
 20
93.341933
 30
0.0
 10
127.653662
 20
93.673550
 30
0.0
 10
127.712415
 20
94.005167
 30
0.0
 10
127.880691
 20
94.296625
 30
0.0
 10
128.138493
 20
94.513316
 30
0.0
 10
128.455094
 20
94.628242
 30
0.0
 10
128.791514
 20
94.628242
 30
0.0
 10
129.108558
 20
94.513316
 30
0.0
 10
129.364587
 20
94.296625
 30
0.0
 10
129.539451
 20
94.005167
 30
0.0
 10
129.561989
 20
93.784619
 30
0.0
 10
129.573340
 20
93.673550
 30
0.0
 11
129.573340
 21
93.673550
 31
0.0
 11
129.515510
 21
93.347117
 31
0.0
 11
129.352124
 21
93.064125
 31
0.0
 11
129.098340
 21
92.850826
 31
0.0
 11
128.786726
 21
92.737692
 31
0.0
 11
128.459954
 21
92.737692
 31
0.0
 11
128.148340
 21
92.850826
 31
0.0
 11
127.894556
 21
93.064125
 31
0.0
 11
127.731170
 21
93.347117
 31
0.0
 11
127.673340
 21
93.673550
 31
0.0
 11
127.731170
 21
93.999983
 31
0.0
 11
127.894556
 21
94.282975
 31
0.0
 11
128.148340
 21
94.496274
 31
0.0
 11
128.459954
 21
94.609408
 31
0.0
 11
128.786726
 21
94.609408
 31
0.0
 11
129.098340
 21
94.496274
 31
0.0
 11
129.352124
 21
94.282975
 31
0.0
 11
129.515510
 21
93.999983
 31
0.0
 11
129.573340
 21
93.673550
 31
0.0
  0
SPLINE
  5
10e
100
AcDbEntity
  8
Layer_1
 62
3
100
AcDbSpline
 70
0
 71
3
 72
13
 73
9
 74
7
 40
0.000000
 40
0.000000
 40
0.000000
 40
0.000000
 40
0.495926
 40
0.977183
 40
1.473109
 40
1.969035
 40
2.450292
 40
2.946218
 40
2.946218
 40
2.946218
 40
2.946218
 10
101.235840
 20
93.673550
 30
0.0
 10
101.209377
 20
93.506419
 30
0.0
 10
101.157233
 20
93.177101
 30
0.0
 10
100.779513
 20
92.814940
 30
0.0
 10
100.285842
 20
92.680768
 30
0.0
 10
99.792172
 20
92.814940
 30
0.0
 10
99.414452
 20
93.177101
 30
0.0
 10
99.362308
 20
93.506419
 30
0.0
 10
99.335845
 20
93.673550
 30
0.0
 11
101.235840
 21
93.673550
 31
0.0
 11
101.105346
 21
93.195101
 31
0.0
 11
100.764618
 21
92.855228
 31
0.0
 11
100.285843
 21
92.725937
 31
0.0
 11
99.807067
 21
92.855228
 31
0.0
 11
99.466339
 21
93.195101
 31
0.0
 11
99.335845
 21
93.673550
 31
0.0
  0
LINE
  5
10f
100
AcDbEntity
  8
Layer_1
 62
3
100
AcDbLine
 10
101.235840
 20
93.673550
 30
0.0
 11
101.235840
 21
93.673550
 31
0.0
  0
SPLINE
  5
110
100
AcDbEntity
  8
Layer_1
 62
3
100
AcDbSpline
 70
0
 71
3
 72
13
 73
9
 74
7
 40
0.000000
 40
0.000000
 40
0.000000
 40
0.000000
 40
0.495926
 40
0.977183
 40
1.473109
 40
1.969035
 40
2.450292
 40
2.946218
 40
2.946218
 40
2.946218
 40
2.946218
 10
99.335845
 20
93.673550
 30
0.0
 10
99.362308
 20
93.840681
 30
0.0
 10
99.414452
 20
94.169999
 30
0.0
 10
99.792172
 20
94.532160
 30
0.0
 10
100.285842
 20
94.666332
 30
0.0
 10
100.779513
 20
94.532160
 30
0.0
 10
101.157233
 20
94.169999
 30
0.0
 10
101.209377
 20
93.840681
 30
0.0
 10
101.235840
 20
93.673550
 30
0.0
 11
99.335845
 21
93.673550
 31
0.0
 11
99.466339
 21
94.151999
 31
0.0
 11
99.807067
 21
94.491872
 31
0.0
 11
100.285843
 21
94.621163
 31
0.0
 11
100.764618
 21
94.491872
 31
0.0
 11
101.105346
 21
94.151999
 31
0.0
 11
101.235840
 21
93.673550
 31
0.0
  0
LINE
  5
111
100
AcDbEntity
  8
Layer_1
 62
3
100
AcDbLine
 10
376.985840
 20
93.673550
 30
0.0
 11
376.985840
 21
93.673550
 31
0.0
  0
SPLINE
  5
112
100
AcDbEntity
  8
Layer_1
 62
3
100
AcDbSpline
 70
0
 71
3
 72
22
 73
18
 74
16
 40
0.000000
 40
0.000000
 40
0.000000
 40
0.000000
 40
0.496716
 40
0.978700
 40
1.475416
 40
1.972132
 40
2.454116
 40
2.950832
 40
3.282348
 40
3.609119
 40
3.940635
 40
4.272151
 40
4.598922
 40
4.930438
 40
5.261954
 40
5.588725
 40
5.920241
 40
5.920241
 40
5.920241
 40
5.920241
 10
376.985840
 20
93.673550
 30
0.0
 10
376.959729
 20
93.506080
 30
0.0
 10
376.908282
 20
93.176108
 30
0.0
 10
376.530074
 20
92.812843
 30
0.0
 10
376.036703
 20
92.678213
 30
0.0
 10
375.538206
 20
92.812915
 30
0.0
 10
375.175072
 20
93.175826
 30
0.0
 10
375.055977
 20
93.618793
 30
0.0
 10
375.124998
 20
94.005039
 30
0.0
 10
375.293169
 20
94.296660
 30
0.0
 10
375.550999
 20
94.513307
 30
0.0
 10
375.867592
 20
94.628245
 30
0.0
 10
376.204014
 20
94.628242
 30
0.0
 10
376.521058
 20
94.513317
 30
0.0
 10
376.777087
 20
94.296625
 30
0.0
 10
376.951951
 20
94.005167
 30
0.0
 10
376.974489
 20
93.784619
 30
0.0
 10
376.985840
 20
93.673550
 30
0.0
 11
376.985840
 21
93.673550
 31
0.0
 11
376.856137
 21
93.194067
 31
0.0
 11
376.515323
 21
92.853253
 31
0.0
 11
376.035840
 21
92.723550
 31
0.0
 11
375.556357
 21
92.853253
 31
0.0
 11
375.215543
 21
93.194067
 31
0.0
 11
375.085840
 21
93.673550
 31
0.0
 11
375.143670
 21
93.999983
 31
0.0
 11
375.307056
 21
94.282975
 31
0.0
 11
375.560840
 21
94.496274
 31
0.0
 11
375.872454
 21
94.609408
 31
0.0
 11
376.199226
 21
94.609408
 31
0.0
 11
376.510840
 21
94.496274
 31
0.0
 11
376.764624
 21
94.282975
 31
0.0
 11
376.928010
 21
93.999983
 31
0.0
 11
376.985840
 21
93.673550
 31
0.0
  0
LINE
  5
113
100
AcDbEntity
  8
Layer_1
 62
3
100
AcDbLine
 10
124.851610
 20
209.498553
 30
0.0
 11
124.851610
 21
209.498553
 31
0.0
  0
SPLINE
  5
114
100
AcDbEntity
  8
Layer_1
 62
3
100
AcDbSpline
 70
0
 71
3
 72
25
 73
21
 74
19
 40
0.000000
 40
0.000000
 40
0.000000
 40
0.000000
 40
0.345743
 40
0.686538
 40
1.032282
 40
1.378025
 40
1.718820
 40
2.064563
 40
2.410306
 40
2.751102
 40
3.096845
 40
3.442588
 40
3.783383
 40
4.129127
 40
4.474870
 40
4.815665
 40
5.161408
 40
5.507151
 40
5.847946
 40
6.193690
 40
6.193690
 40
6.193690
 40
6.193690
 10
124.851610
 20
209.498553
 30
0.0
 10
124.839772
 20
209.382717
 30
0.0
 10
124.816266
 20
209.152704
 30
0.0
 10
124.633899
 20
208.848738
 30
0.0
 10
124.366881
 20
208.622747
 30
0.0
 10
124.036231
 20
208.502889
 30
0.0
 10
123.685373
 20
208.502889
 30
0.0
 10
123.355186
 20
208.622747
 30
0.0
 10
123.086319
 20
208.848738
 30
0.0
 10
122.910822
 20
209.152704
 30
0.0
 10
122.849547
 20
209.498553
 30
0.0
 10
122.910822
 20
209.844402
 30
0.0
 10
123.086319
 20
210.148368
 30
0.0
 10
123.355186
 20
210.374359
 30
0.0
 10
123.685373
 20
210.494217
 30
0.0
 10
124.036231
 20
210.494217
 30
0.0
 10
124.366881
 20
210.374359
 30
0.0
 10
124.633899
 20
210.148368
 30
0.0
 10
124.816266
 20
209.844402
 30
0.0
 10
124.839772
 20
209.614389
 30
0.0
 10
124.851610
 20
209.498553
 30
0.0
 11
124.851610
 21
209.498553
 31
0.0
 11
124.791298
 21
209.158111
 31
0.0
 11
124.620901
 21
208.862973
 31
0.0
 11
124.356225
 21
208.640521
 31
0.0
 11
124.031238
 21
208.522531
 31
0.0
 11
123.690442
 21
208.522531
 31
0.0
 11
123.365455
 21
208.640521
 31
0.0
 11
123.100779
 21
208.862973
 31
0.0
 11
122.930382
 21
209.158111
 31
0.0
 11
122.870070
 21
209.498553
 31
0.0
 11
122.930382
 21
209.838995
 31
0.0
 11
123.100779
 21
210.134133
 31
0.0
 11
123.365455
 21
210.356585
 31
0.0
 11
123.690442
 21
210.474575
 31
0.0
 11
124.031238
 21
210.474575
 31
0.0
 11
124.356225
 21
210.356585
 31
0.0
 11
124.620901
 21
210.134133
 31
0.0
 11
124.791298
 21
209.838995
 31
0.0
 11
124.851610
 21
209.498553
 31
0.0
  0
LINE
  5
115
100
AcDbEntity
  8
Layer_1
 62
3
100
AcDbLine
 10
348.648340
 20
93.673550
 30
0.0
 11
348.648340
 21
93.673550
 31
0.0
  0
SPLINE
  5
116
100
AcDbEntity
  8
Layer_1
 62
3
100
AcDbSpline
 70
0
 71
3
 72
25
 73
21
 74
19
 40
0.000000
 40
0.000000
 40
0.000000
 40
0.000000
 40
0.331516
 40
0.658287
 40
0.989803
 40
1.321319
 40
1.648091
 40
1.979606
 40
2.311122
 40
2.637894
 40
2.969410
 40
3.300926
 40
3.627697
 40
3.959213
 40
4.290729
 40
4.617500
 40
4.949016
 40
5.280532
 40
5.607303
 40
5.938819
 40
5.938819
 40
5.938819
 40
5.938819
 10
348.648340
 20
93.673550
 30
0.0
 10
348.636989
 20
93.562481
 30
0.0
 10
348.614451
 20
93.341933
 30
0.0
 10
348.439587
 20
93.050475
 30
0.0
 10
348.183558
 20
92.833784
 30
0.0
 10
347.866514
 20
92.718858
 30
0.0
 10
347.530094
 20
92.718858
 30
0.0
 10
347.213493
 20
92.833784
 30
0.0
 10
346.955691
 20
93.050475
 30
0.0
 10
346.787415
 20
93.341933
 30
0.0
 10
346.728662
 20
93.673550
 30
0.0
 10
346.787415
 20
94.005167
 30
0.0
 10
346.955691
 20
94.296625
 30
0.0
 10
347.213493
 20
94.513316
 30
0.0
 10
347.530094
 20
94.628242
 30
0.0
 10
347.866514
 20
94.628242
 30
0.0
 10
348.183558
 20
94.513316
 30
0.0
 10
348.439587
 20
94.296625
 30
0.0
 10
348.614451
 20
94.005167
 30
0.0
 10
348.636989
 20
93.784619
 30
0.0
 10
348.648340
 20
93.673550
 30
0.0
 11
348.648340
 21
93.673550
 31
0.0
 11
348.590510
 21
93.347117
 31
0.0
 11
348.427124
 21
93.064125
 31
0.0
 11
348.173340
 21
92.850826
 31
0.0
 11
347.861726
 21
92.737692
 31
0.0
 11
347.534954
 21
92.737692
 31
0.0
 11
347.223340
 21
92.850826
 31
0.0
 11
346.969556
 21
93.064125
 31
0.0
 11
346.806170
 21
93.347117
 31
0.0
 11
346.748340
 21
93.673550
 31
0.0
 11
346.806170
 21
93.999983
 31
0.0
 11
346.969556
 21
94.282975
 31
0.0
 11
347.223340
 21
94.496274
 31
0.0
 11
347.534954
 21
94.609408
 31
0.0
 11
347.861726
 21
94.609408
 31
0.0
 11
348.173340
 21
94.496274
 31
0.0
 11
348.427124
 21
94.282975
 31
0.0
 11
348.590510
 21
93.999983
 31
0.0
 11
348.648340
 21
93.673550
 31
0.0
  0
SPLINE
  5
117
100
AcDbEntity
  8
Layer_1
 62
3
100
AcDbSpline
 70
0
 71
3
 72
13
 73
9
 74
7
 40
0.000000
 40
0.000000
 40
0.000000
 40
0.000000
 40
0.817731
 40
1.610804
 40
2.427625
 40
3.244445
 40
4.037519
 40
4.855250
 40
4.855250
 40
4.855250
 40
4.855250
 10
239.724380
 20
209.498553
 30
0.0
 10
239.681075
 20
209.222924
 30
0.0
 10
239.595772
 20
208.679978
 30
0.0
 10
238.974111
 20
208.082281
 30
0.0
 10
238.160840
 20
207.860728
 30
0.0
 10
237.347569
 20
208.082281
 30
0.0
 10
236.725908
 20
208.679978
 30
0.0
 10
236.640605
 20
209.222924
 30
0.0
 10
236.597300
 20
209.498553
 30
0.0
 11
239.724380
 21
209.498553
 31
0.0
 11
239.510146
 21
208.709384
 31
0.0
 11
238.949306
 21
208.148648
 31
0.0
 11
238.160840
 21
207.935302
 31
0.0
 11
237.372374
 21
208.148648
 31
0.0
 11
236.811534
 21
208.709384
 31
0.0
 11
236.597300
 21
209.498553
 31
0.0
  0
LINE
  5
118
100
AcDbEntity
  8
Layer_1
 62
3
100
AcDbLine
 10
239.724380
 20
209.498553
 30
0.0
 11
239.724380
 21
209.498553
 31
0.0
  0
SPLINE
  5
119
100
AcDbEntity
  8
Layer_1
 62
3
100
AcDbSpline
 70
0
 71
3
 72
13
 73
9
 74
7
 40
0.000000
 40
0.000000
 40
0.000000
 40
0.000000
 40
0.817731
 40
1.610804
 40
2.427625
 40
3.244445
 40
4.037519
 40
4.855250
 40
4.855250
 40
4.855250
 40
4.855250
 10
236.597300
 20
209.498553
 30
0.0
 10
236.640605
 20
209.774182
 30
0.0
 10
236.725908
 20
210.317128
 30
0.0
 10
237.347569
 20
210.914825
 30
0.0
 10
238.160840
 20
211.136378
 30
0.0
 10
238.974111
 20
210.914825
 30
0.0
 10
239.595772
 20
210.317128
 30
0.0
 10
239.681075
 20
209.774182
 30
0.0
 10
239.724380
 20
209.498553
 30
0.0
 11
236.597300
 21
209.498553
 31
0.0
 11
236.811534
 21
210.287722
 31
0.0
 11
237.372374
 21
210.848458
 31
0.0
 11
238.160840
 21
211.061804
 31
0.0
 11
238.949306
 21
210.848458
 31
0.0
 11
239.510146
 21
210.287722
 31
0.0
 11
239.724380
 21
209.498553
 31
0.0
  0
LINE
  5
11a
100
AcDbEntity
  8
Layer_1
 62
3
100
AcDbLine
 10
377.593920
 20
181.003540
 30
0.0
 11
377.593920
 21
181.003540
 31
0.0
  0
SPLINE
  5
11b
100
AcDbEntity
  8
Layer_1
 62
3
100
AcDbSpline
 70
0
 71
3
 72
25
 73
21
 74
19
 40
0.000000
 40
0.000000
 40
0.000000
 40
0.000000
 40
0.543714
 40
1.079647
 40
1.623361
 40
2.167075
 40
2.703008
 40
3.246722
 40
3.790436
 40
4.326369
 40
4.870083
 40
5.413797
 40
5.949730
 40
6.493444
 40
7.037158
 40
7.573091
 40
8.116805
 40
8.660519
 40
9.196451
 40
9.740166
 40
9.740166
 40
9.740166
 40
9.740166
 10
377.593920
 20
181.003540
 30
0.0
 10
377.575304
 20
180.821378
 30
0.0
 10
377.538339
 20
180.459660
 30
0.0
 10
377.251548
 20
179.981644
 30
0.0
 10
376.831638
 20
179.626252
 30
0.0
 10
376.311659
 20
179.437764
 30
0.0
 10
375.759902
 20
179.437764
 30
0.0
 10
375.240651
 20
179.626252
 30
0.0
 10
374.817833
 20
179.981644
 30
0.0
 10
374.541846
 20
180.459660
 30
0.0
 10
374.445486
 20
181.003540
 30
0.0
 10
374.541846
 20
181.547420
 30
0.0
 10
374.817833
 20
182.025436
 30
0.0
 10
375.240651
 20
182.380828
 30
0.0
 10
375.759902
 20
182.569316
 30
0.0
 10
376.311659
 20
182.569316
 30
0.0
 10
376.831638
 20
182.380828
 30
0.0
 10
377.251548
 20
182.025436
 30
0.0
 10
377.538339
 20
181.547420
 30
0.0
 10
377.575304
 20
181.185702
 30
0.0
 10
377.593920
 20
181.003540
 30
0.0
 11
377.593920
 21
181.003540
 31
0.0
 11
377.499074
 21
180.468162
 31
0.0
 11
377.231107
 21
180.004031
 31
0.0
 11
376.814880
 21
179.654203
 31
0.0
 11
376.303806
 21
179.468653
 31
0.0
 11
375.767874
 21
179.468653
 31
0.0
 11
375.256800
 21
179.654203
 31
0.0
 11
374.840573
 21
180.004031
 31
0.0
 11
374.572606
 21
180.468162
 31
0.0
 11
374.477760
 21
181.003540
 31
0.0
 11
374.572606
 21
181.538918
 31
0.0
 11
374.840573
 21
182.003049
 31
0.0
 11
375.256800
 21
182.352877
 31
0.0
 11
375.767874
 21
182.538427
 31
0.0
 11
376.303806
 21
182.538427
 31
0.0
 11
376.814880
 21
182.352877
 31
0.0
 11
377.231107
 21
182.003049
 31
0.0
 11
377.499074
 21
181.538918
 31
0.0
 11
377.593920
 21
181.003540
 31
0.0
  0
SPLINE
  5
11c
100
AcDbEntity
  8
Layer_1
 62
3
100
AcDbSpline
 70
0
 71
3
 72
13
 73
9
 74
7
 40
0.000000
 40
0.000000
 40
0.000000
 40
0.000000
 40
0.815067
 40
1.605343
 40
2.419031
 40
3.232718
 40
4.022994
 40
4.838061
 40
4.838061
 40
4.838061
 40
4.838061
 10
101.843890
 20
181.003540
 30
0.0
 10
101.800623
 20
180.728838
 30
0.0
 10
101.715404
 20
180.187788
 30
0.0
 10
101.096082
 20
179.592154
 30
0.0
 10
100.285844
 20
179.371318
 30
0.0
 10
99.475606
 20
179.592154
 30
0.0
 10
98.856284
 20
180.187788
 30
0.0
 10
98.771065
 20
180.728838
 30
0.0
 10
98.727798
 20
181.003540
 30
0.0
 11
101.843890
 21
181.003540
 31
0.0
 11
101.630107
 21
180.217009
 31
0.0
 11
101.071271
 21
179.658226
 31
0.0
 11
100.285844
 21
179.445643
 31
0.0
 11
99.500417
 21
179.658226
 31
0.0
 11
98.941581
 21
180.217009
 31
0.0
 11
98.727798
 21
181.003540
 31
0.0
  0
LINE
  5
11d
100
AcDbEntity
  8
Layer_1
 62
3
100
AcDbLine
 10
101.843890
 20
181.003540
 30
0.0
 11
101.843890
 21
181.003540
 31
0.0
  0
LINE
  5
11e
100
AcDbEntity
  8
Layer_1
 62
3
100
AcDbLine
 10
151.410320
 20
207.452903
 30
0.0
 11
151.410320
 21
211.498383
 31
0.0
  0
SPLINE
  5
11f
100
AcDbEntity
  8
Layer_1
 62
3
100
AcDbSpline
 70
0
 71
3
 72
13
 73
9
 74
7
 40
0.000000
 40
0.000000
 40
0.000000
 40
0.000000
 40
0.815067
 40
1.605343
 40
2.419031
 40
3.232718
 40
4.022994
 40
4.838061
 40
4.838061
 40
4.838061
 40
4.838061
 10
98.727798
 20
181.003540
 30
0.0
 10
98.771065
 20
181.278242
 30
0.0
 10
98.856284
 20
181.819292
 30
0.0
 10
99.475606
 20
182.414926
 30
0.0
 10
100.285844
 20
182.635762
 30
0.0
 10
101.096082
 20
182.414926
 30
0.0
 10
101.715404
 20
181.819292
 30
0.0
 10
101.800623
 20
181.278242
 30
0.0
 10
101.843890
 20
181.003540
 30
0.0
 11
98.727798
 21
181.003540
 31
0.0
 11
98.941581
 21
181.790071
 31
0.0
 11
99.500417
 21
182.348854
 31
0.0
 11
100.285844
 21
182.561437
 31
0.0
 11
101.071271
 21
182.348854
 31
0.0
 11
101.630107
 21
181.790071
 31
0.0
 11
101.843890
 21
181.003540
 31
0.0
  0
LINE
  5
120
100
AcDbEntity
  8
Layer_1
 62
3
100
AcDbLine
 10
153.410300
 20
213.498633
 30
0.0
 11
376.035740
 21
213.498633
 31
0.0
  0
SPLINE
  5
121
100
AcDbEntity
  8
Layer_1
 62
3
100
AcDbSpline
 70
0
 71
3
 72
13
 73
9
 74
7
 40
0.000000
 40
0.000000
 40
0.000000
 40
0.000000
 40
0.523551
 40
1.042770
 40
1.566322
 40
2.089873
 40
2.609092
 40
3.132643
 40
3.132643
 40
3.132643
 40
3.132643
 10
151.410240
 20
211.498543
 30
0.0
 10
151.423572
 20
211.673570
 30
0.0
 10
151.450125
 20
212.022176
 30
0.0
 10
151.659974
 20
212.509861
 30
0.0
 10
151.979240
 20
212.929545
 30
0.0
 10
152.398924
 20
213.248814
 30
0.0
 10
152.886607
 20
213.458666
 30
0.0
 10
153.235213
 20
213.485220
 30
0.0
 10
153.410240
 20
213.498553
 30
0.0
 11
151.410240
 21
211.498543
 31
0.0
 11
151.478759
 21
212.017591
 31
0.0
 11
151.677454
 21
212.497288
 31
0.0
 11
151.996023
 21
212.912763
 31
0.0
 11
152.411497
 21
213.231334
 31
0.0
 11
152.891192
 21
213.430032
 31
0.0
 11
153.410240
 21
213.498553
 31
0.0
  0
LINE
  5
122
100
AcDbEntity
  8
Layer_1
 62
3
100
AcDbLine
 10
380.015590
 20
209.498373
 30
0.0
 11
380.015590
 21
93.673370
 31
0.0
  0
SPLINE
  5
123
100
AcDbEntity
  8
Layer_1
 62
3
100
AcDbSpline
 70
0
 71
3
 72
13
 73
9
 74
7
 40
0.000000
 40
0.000000
 40
0.000000
 40
0.000000
 40
1.047100
 40
2.085534
 40
3.132633
 40
4.179733
 40
5.218167
 40
6.265267
 40
6.265267
 40
6.265267
 40
6.265267
 10
376.035840
 20
213.498553
 30
0.0
 10
376.385893
 20
213.471888
 30
0.0
 10
377.083102
 20
213.418779
 30
0.0
 10
378.058467
 20
212.999078
 30
0.0
 10
378.897832
 20
212.360545
 30
0.0
 10
379.536365
 20
211.521180
 30
0.0
 10
379.956066
 20
210.545815
 30
0.0
 10
380.009175
 20
209.848606
 30
0.0
 10
380.035840
 20
209.498553
 30
0.0
 11
376.035840
 21
213.498553
 31
0.0
 11
377.073933
 21
213.361511
 31
0.0
 11
378.033321
 21
212.964119
 31
0.0
 11
378.864267
 21
212.326980
 31
0.0
 11
379.501406
 21
211.496034
 31
0.0
 11
379.898798
 21
210.536646
 31
0.0
 11
380.035840
 21
209.498553
 31
0.0
  0
LINE
  5
124
100
AcDbEntity
  8
Layer_1
 62
3
100
AcDbLine
 10
376.035740
 20
89.673640
 30
0.0
 11
100.285940
 21
89.673640
 31
0.0
  0
SPLINE
  5
125
100
AcDbEntity
  8
Layer_1
 62
3
100
AcDbSpline
 70
0
 71
3
 72
13
 73
9
 74
7
 40
0.000000
 40
0.000000
 40
0.000000
 40
0.000000
 40
1.047100
 40
2.085534
 40
3.132633
 40
4.179733
 40
5.218167
 40
6.265267
 40
6.265267
 40
6.265267
 40
6.265267
 10
380.035840
 20
93.673550
 30
0.0
 10
380.009175
 20
93.323497
 30
0.0
 10
379.956066
 20
92.626288
 30
0.0
 10
379.536365
 20
91.650923
 30
0.0
 10
378.897832
 20
90.811558
 30
0.0
 10
378.058467
 20
90.173025
 30
0.0
 10
377.083102
 20
89.753324
 30
0.0
 10
376.385893
 20
89.700215
 30
0.0
 10
376.035840
 20
89.673550
 30
0.0
 11
380.035840
 21
93.673550
 31
0.0
 11
379.898798
 21
92.635457
 31
0.0
 11
379.501406
 21
91.676069
 31
0.0
 11
378.864267
 21
90.845123
 31
0.0
 11
378.033321
 21
90.207984
 31
0.0
 11
377.073933
 21
89.810592
 31
0.0
 11
376.035840
 21
89.673550
 31
0.0
  0
LINE
  5
126
100
AcDbEntity
  8
Layer_1
 62
3
100
AcDbLine
 10
96.306093
 20
93.673370
 30
0.0
 11
96.306093
 21
209.498373
 31
0.0
  0
SPLINE
  5
127
100
AcDbEntity
  8
Layer_1
 62
3
100
AcDbSpline
 70
0
 71
3
 72
10
 73
6
 74
4
 40
0.000000
 40
0.000000
 40
0.000000
 40
0.000000
 40
2.091434
 40
4.120837
 40
6.212271
 40
6.212271
 40
6.212271
 40
6.212271
 10
100.285840
 20
89.673550
 30
0.0
 10
99.584938
 20
89.783572
 30
0.0
 10
98.203921
 20
90.000352
 30
0.0
 10
96.612645
 20
91.591631
 30
0.0
 10
96.395867
 20
92.972647
 30
0.0
 10
96.285847
 20
93.673550
 30
0.0
 11
100.285840
 21
89.673550
 31
0.0
 11
98.266966
 21
90.219670
 31
0.0
 11
96.831963
 21
91.654675
 31
0.0
 11
96.285847
 21
93.673550
 31
0.0
  0
LINE
  5
128
100
AcDbEntity
  8
Layer_1
 62
3
100
AcDbLine
 10
100.285940
 20
213.498633
 30
0.0
 11
132.410320
 21
213.498633
 31
0.0
  0
SPLINE
  5
129
100
AcDbEntity
  8
Layer_1
 62
3
100
AcDbSpline
 70
0
 71
3
 72
10
 73
6
 74
4
 40
0.000000
 40
0.000000
 40
0.000000
 40
0.000000
 40
2.091434
 40
4.120837
 40
6.212271
 40
6.212271
 40
6.212271
 40
6.212271
 10
96.285847
 20
209.498553
 30
0.0
 10
96.395867
 20
210.199456
 30
0.0
 10
96.612645
 20
211.580472
 30
0.0
 10
98.203921
 20
213.171751
 30
0.0
 10
99.584938
 20
213.388531
 30
0.0
 10
100.285840
 20
213.498553
 30
0.0
 11
96.285847
 21
209.498553
 31
0.0
 11
96.831963
 21
211.517428
 31
0.0
 11
98.266966
 21
212.952433
 31
0.0
 11
100.285840
 21
213.498553
 31
0.0
  0
LINE
  5
12a
100
AcDbEntity
  8
Layer_1
 62
3
100
AcDbLine
 10
134.410310
 20
211.498383
 30
0.0
 11
134.410310
 21
207.452903
 31
0.0
  0
LINE
  5
12b
100
AcDbEntity
  8
Layer_1
 62
3
100
AcDbLine
 10
104.199427
 20
150.332476
 30
0.0
 11
104.199427
 21
202.338447
 31
0.0
  0
SPLINE
  5
12c
100
AcDbEntity
  8
Layer_1
 62
3
100
AcDbSpline
 70
0
 71
3
 72
13
 73
9
 74
7
 40
0.000000
 40
0.000000
 40
0.000000
 40
0.000000
 40
0.523551
 40
1.042770
 40
1.566322
 40
2.089873
 40
2.609092
 40
3.132643
 40
3.132643
 40
3.132643
 40
3.132643
 10
132.410240
 20
213.498553
 30
0.0
 10
132.585267
 20
213.485220
 30
0.0
 10
132.933873
 20
213.458666
 30
0.0
 10
133.421556
 20
213.248814
 30
0.0
 10
133.841240
 20
212.929545
 30
0.0
 10
134.160506
 20
212.509861
 30
0.0
 10
134.370355
 20
212.022176
 30
0.0
 10
134.396908
 20
211.673570
 30
0.0
 10
134.410240
 20
211.498543
 30
0.0
 11
132.410240
 21
213.498553
 31
0.0
 11
132.929288
 21
213.430032
 31
0.0
 11
133.408983
 21
213.231334
 31
0.0
 11
133.824457
 21
212.912763
 31
0.0
 11
134.143026
 21
212.497288
 31
0.0
 11
134.341721
 21
212.017591
 31
0.0
 11
134.410240
 21
211.498543
 31
0.0
  0
LINE
  5
12d
100
AcDbEntity
  8
Layer_1
 62
3
100
AcDbLine
 10
107.977426
 20
205.557118
 30
0.0
 11
119.342821
 21
205.557118
 31
0.0
  0
LINE
  5
12e
100
AcDbEntity
  8
Layer_1
 62
3
100
AcDbLine
 10
119.342821
 20
205.557118
 30
0.0
 11
132.342321
 21
205.557118
 31
0.0
  0
LINE
  5
12f
100
AcDbEntity
  8
Layer_1
 62
3
100
AcDbLine
 10
153.439013
 20
205.557118
 30
0.0
 11
368.210552
 21
205.557118
 31
0.0
  0
SPLINE
  5
130
100
AcDbEntity
  8
Layer_1
 62
3
100
AcDbSpline
 70
0
 71
3
 72
10
 73
6
 74
4
 40
0.000000
 40
0.000000
 40
0.000000
 40
0.000000
 40
1.703808
 40
3.483266
 40
5.438527
 40
5.438527
 40
5.438527
 40
5.438527
 10
104.202422
 20
202.339445
 30
0.0
 10
104.313914
 20
202.910864
 30
0.0
 10
104.541850
 20
204.079073
 30
0.0
 10
106.078281
 20
205.313968
 30
0.0
 10
107.324759
 20
205.473522
 30
0.0
 10
107.977336
 20
205.557054
 30
0.0
 11
104.202422
 21
202.339445
 31
0.0
 11
104.717808
 21
203.963433
 31
0.0
 11
106.072064
 21
205.117756
 31
0.0
 11
107.977336
 21
205.557054
 31
0.0
  0
LINE
  5
131
100
AcDbEntity
  8
Layer_1
 62
3
100
AcDbLine
 10
371.941645
 20
202.339408
 30
0.0
 11
371.941645
 21
150.333436
 31
0.0
  0
SPLINE
  5
132
100
AcDbEntity
  8
Layer_1
 62
3
100
AcDbSpline
 70
0
 71
3
 72
10
 73
6
 74
4
 40
0.000000
 40
0.000000
 40
0.000000
 40
0.000000
 40
1.955261
 40
3.734719
 40
5.438527
 40
5.438527
 40
5.438527
 40
5.438527
 10
368.210641
 20
205.557054
 30
0.0
 10
368.863218
 20
205.473522
 30
0.0
 10
370.109696
 20
205.313968
 30
0.0
 10
371.646127
 20
204.079073
 30
0.0
 10
371.874063
 20
202.910864
 30
0.0
 10
371.985556
 20
202.339445
 30
0.0
 11
368.210641
 21
205.557054
 31
0.0
 11
370.115913
 21
205.117756
 31
0.0
 11
371.470170
 21
203.963433
 31
0.0
 11
371.985556
 21
202.339445
 31
0.0
  0
LINE
  5
133
100
AcDbEntity
  8
Layer_1
 62
3
100
AcDbLine
 10
364.435725
 20
143.897722
 30
0.0
 11
111.752253
 21
143.897722
 31
0.0
  0
SPLINE
  5
134
100
AcDbEntity
  8
Layer_1
 62
3
100
AcDbSpline
 70
0
 71
3
 72
10
 73
6
 74
4
 40
0.000000
 40
0.000000
 40
0.000000
 40
0.000000
 40
3.407615
 40
6.966530
 40
10.877051
 40
10.877051
 40
10.877051
 40
10.877051
 10
371.985556
 20
150.332936
 30
0.0
 10
371.762569
 20
149.190099
 30
0.0
 10
371.306695
 20
146.853681
 30
0.0
 10
368.233833
 20
144.383892
 30
0.0
 10
365.740877
 20
144.064786
 30
0.0
 10
364.435725
 20
143.897722
 30
0.0
 11
371.985556
 21
150.332936
 31
0.0
 11
370.954781
 21
147.084961
 31
0.0
 11
368.246268
 21
144.776318
 31
0.0
 11
364.435725
 21
143.897722
 31
0.0
  0
SPLINE
  5
135
100
AcDbEntity
  8
Layer_1
 62
3
100
AcDbSpline
 70
0
 71
3
 72
10
 73
6
 74
4
 40
0.000000
 40
0.000000
 40
0.000000
 40
0.000000
 40
3.910521
 40
7.469436
 40
10.877051
 40
10.877051
 40
10.877051
 40
10.877051
 10
111.752253
 20
143.897722
 30
0.0
 10
110.447100
 20
144.064786
 30
0.0
 10
107.954144
 20
144.383892
 30
0.0
 10
104.881282
 20
146.853681
 30
0.0
 10
104.425408
 20
149.190099
 30
0.0
 10
104.202422
 20
150.332936
 30
0.0
 11
111.752253
 21
143.897722
 31
0.0
 11
107.941709
 21
144.776318
 31
0.0
 11
105.233196
 21
147.084961
 31
0.0
 11
104.202422
 21
150.332936
 31
0.0
  0
SPLINE
  5
136
100
AcDbEntity
  8
Layer_1
 62
3
100
AcDbSpline
 70
0
 71
3
 72
10
 73
6
 74
4
 40
0.000000
 40
0.000000
 40
0.000000
 40
0.000000
 40
1.084407
 40
2.136650
 40
3.221057
 40
3.221057
 40
3.221057
 40
3.221057
 10
134.412980
 20
207.632133
 30
0.0
 10
134.355933
 20
207.268716
 30
0.0
 10
134.243531
 20
206.552661
 30
0.0
 10
133.418453
 20
205.727587
 30
0.0
 10
132.702397
 20
205.615188
 30
0.0
 10
132.338980
 20
205.558143
 30
0.0
 11
134.412980
 21
207.632133
 31
0.0
 11
134.129815
 21
206.585350
 31
0.0
 11
133.385765
 21
205.841303
 31
0.0
 11
132.338980
 21
205.558143
 31
0.0
  0
SPLINE
  5
137
100
AcDbEntity
  8
Layer_1
 62
3
100
AcDbSpline
 70
0
 71
3
 72
10
 73
6
 74
4
 40
0.000000
 40
0.000000
 40
0.000000
 40
0.000000
 40
1.084407
 40
2.136650
 40
3.221057
 40
3.221057
 40
3.221057
 40
3.221057
 10
151.395870
 20
207.624113
 30
0.0
 10
151.452917
 20
207.260696
 30
0.0
 10
151.565319
 20
206.544641
 30
0.0
 10
152.390397
 20
205.719567
 30
0.0
 10
153.106453
 20
205.607168
 30
0.0
 10
153.469870
 20
205.550123
 30
0.0
 11
151.395870
 21
207.624113
 31
0.0
 11
151.679035
 21
206.577330
 31
0.0
 11
152.423085
 21
205.833283
 31
0.0
 11
153.469870
 21
205.550123
 31
0.0
  0
ENDSEC
  0
SECTION
  2
OBJECTS
  0
DICTIONARY
  5
C
330
0
100
AcDbDictionary
  3
ACAD_GROUP
350
D
  3
ACAD_MLINESTYLE
350
17
  0
DICTIONARY
  5
D
330
C
100
AcDbDictionary
  0
DICTIONARY
  5
1A
330
C
100
AcDbDictionary
  0
DICTIONARY
  5
17
330
C
100
AcDbDictionary
  3
STANDARD
350
18
  0
DICTIONARY
  5
19
330
C
100
AcDbDictionary
  0
ENDSEC
  0
EOF
