  0
SECTION
  2
HEADER
  9
$ACADVER
  1
AC1014
  9
$HANDSEED
  5
FFFF
  9
$INSUNITS
 70
     4
  9
$MEASUREMENT
 70
     1
  0
ENDSEC
  0
SECTION
  2
TABLES
  0
TABLE
  2
VPORT
  5
8
330
0
100
AcDbSymbolTable
 70
     4
  0
VPORT
  5
2E
330
8
100
AcDbSymbolTableRecord
100
AcDbViewportTableRecord
  2
*ACTIVE
 70
     0
 10
0.0
 20
0.0
 11
1.0
 21
1.0
 12
210.0
 22
148.5
 13
0.0
 23
0.0
 14
10.0
 24
10.0
 15
10.0
 25
10.0
 16
0.0
 26
0.0
 36
1.0
 17
0.0
 27
0.0
 37
0.0
 40
341.0
 41
1.24
 42
50.0
 43
0.0
 44
0.0
 50
0.0
 51
0.0
 71
     0
 72
   100
 73
     1
 74
     3
 75
     0
 76
     0
 77
     0
 78
     0
  0
ENDTAB
  0
TABLE
  2
LTYPE
  5
5
330
0
100
AcDbSymbolTable
 70
     1
  0
LTYPE
  5
14
330
5
100
AcDbSymbolTableRecord
100
AcDbLinetypeTableRecord
  2
BYBLOCK
 70
     0
  3

 72
    65
 73
     0
 40
0.0
  0
LTYPE
  5
15
330
5
100
AcDbSymbolTableRecord
100
AcDbLinetypeTableRecord
  2
BYLAYER
 70
     0
  3

 72
    65
 73
     0
 40
0.0
  0
LTYPE
  5
16
330
5
100
AcDbSymbolTableRecord
100
AcDbLinetypeTableRecord
  2
CONTINUOUS
 70
     0
  3
Solid line
 72
    65
 73
     0
 40
0.0
  0
ENDTAB
  0
TABLE
  2
LAYER
  5
2
100
AcDbSymbolTable
 70
2
  0
LAYER
  5
50
100
AcDbSymbolTableRecord
100
AcDbLayerTableRecord
  2
0
 70
0
  6
CONTINUOUS
  0
LAYER
  5
51
100
AcDbSymbolTableRecord
100
AcDbLayerTableRecord
  2
Layer_1
 70
0
  6
CONTINUOUS
  0
ENDTAB
  0
TABLE
  2
STYLE
  5
3
330
0
100
AcDbSymbolTable
 70
     1
  0
STYLE
  5
11
330
3
100
AcDbSymbolTableRecord
100
AcDbTextStyleTableRecord
  2
STANDARD
 70
     0
 40
0.0
 41
1.0
 50
0.0
 71
     0
 42
2.5
  3
txt
  4

  0
ENDTAB
  0
TABLE
  2
VIEW
  5
6
330
0
100
AcDbSymbolTable
 70
     0
  0
ENDTAB
  0
TABLE
  2
UCS
  5
7
330
0
100
AcDbSymbolTable
 70
     0
  0
ENDTAB
  0
TABLE
  2
APPID
  5
9
330
0
100
AcDbSymbolTable
 70
     2
  0
APPID
  5
12
330
9
100
AcDbSymbolTableRecord
100
AcDbRegAppTableRecord
  2
ACAD
 70
     0
  0
ENDTAB
  0
TABLE
  2
DIMSTYLE
  5
A
330
0
100
AcDbSymbolTable
 70
     1
  0
DIMSTYLE
105
27
330
A
100
AcDbSymbolTableRecord
100
AcDbDimStyleTableRecord
  2
ISO-25
 70
     0
  3

  4

  5

  6

  7

 40
1.0
 41
2.5
 42
0.625
 43
3.75
 44
1.25
 45
0.0
 46
0.0
 47
0.0
 48
0.0
140
2.5
141
2.5
142
0.0
143
0.03937007874016
144
1.0
145
0.0
146
1.0
147
0.625
 71
     0
 72
     0
 73
     0
 74
     0
 75
     0
 76
     0
 77
     1
 78
     8
170
     0
171
     3
172
     1
173
     0
174
     0
175
     0
176
     0
177
     0
178
     0
270
     2
271
     2
272
     2
273
     2
274
     3
340
11
275
     0
280
     0
281
     0
282
     0
283
     0
284
     8
285
     0
286
     0
287
     3
288
     0
  0
ENDTAB
  0
TABLE
  2
BLOCK_RECORD
  5
1
330
0
100
AcDbSymbolTable
 70
     1
  0
BLOCK_RECORD
  5
1F
330
1
100
AcDbSymbolTableRecord
100
AcDbBlockTableRecord
  2
*MODEL_SPACE
  0
BLOCK_RECORD
  5
1B
330
1
100
AcDbSymbolTableRecord
100
AcDbBlockTableRecord
  2
*PAPER_SPACE
  0
ENDTAB
  0
ENDSEC
  0
SECTION
  2
BLOCKS
  0
BLOCK
  5
20
330
1F
100
AcDbEntity
  8
0
100
AcDbBlockBegin
  2
*MODEL_SPACE
 70
     0
 10
0.0
 20
0.0
 30
0.0
  3
*MODEL_SPACE
  1

  0
ENDBLK
  5
21
330
1F
100
AcDbEntity
  8
0
100
AcDbBlockEnd
  0
BLOCK
  5
1C
330
1B
100
AcDbEntity
 67
     1
  8
0
100
AcDbBlockBegin
  2
*PAPER_SPACE
  1

  0
ENDBLK
  5
1D
330
1B
100
AcDbEntity
 67
     1
  8
0
100
AcDbBlockEnd
  0
ENDSEC
  0
SECTION
  2
ENTITIES
  0
LINE
  5
100
100
AcDbEntity
  8
Layer_1
 62
1
100
AcDbLine
 10
153.333650
 20
205.522705
 30
0.0
 11
315.849447
 21
205.522705
 31
0.0
  0
SPLINE
  5
101
100
AcDbEntity
  8
Layer_1
 62
1
100
AcDbSpline
 70
0
 71
3
 72
10
 73
6
 74
4
 40
0.000000
 40
0.000000
 40
0.000000
 40
0.000000
 40
1.194112
 40
2.444910
 40
3.822334
 40
3.822334
 40
3.822334
 40
3.822334
 10
315.849503
 20
205.522653
 30
0.0
 10
316.249956
 20
205.443865
 30
0.0
 10
317.069873
 20
205.282550
 30
0.0
 10
317.933461
 20
204.199173
 30
0.0
 10
318.044907
 20
203.322165
 30
0.0
 10
318.103315
 20
202.862535
 30
0.0
 11
315.849503
 21
205.522653
 31
0.0
 11
316.987045
 21
205.159469
 31
0.0
 11
317.795603
 21
204.205147
 31
0.0
 11
318.103315
 21
202.862535
 31
0.0
  0
LINE
  5
102
100
AcDbEntity
  8
Layer_1
 62
1
100
AcDbLine
 10
377.593860
 20
181.003110
 30
0.0
 11
377.593860
 21
181.003110
 31
0.0
  0
SPLINE
  5
103
100
AcDbEntity
  8
Layer_1
 62
1
100
AcDbSpline
 70
0
 71
3
 72
22
 73
18
 74
16
 40
0.000000
 40
0.000000
 40
0.000000
 40
0.000000
 40
0.543714
 40
1.079647
 40
1.623361
 40
2.167075
 40
2.703008
 40
3.246722
 40
3.790436
 40
4.326369
 40
4.870083
 40
5.684740
 40
6.475234
 40
7.289890
 40
8.104546
 40
8.895040
 40
9.709697
 40
9.709697
 40
9.709697
 40
9.709697
 10
377.593860
 20
181.003110
 30
0.0
 10
377.575244
 20
180.820948
 30
0.0
 10
377.538279
 20
180.459230
 30
0.0
 10
377.251488
 20
179.981214
 30
0.0
 10
376.831578
 20
179.625822
 30
0.0
 10
376.311599
 20
179.437335
 30
0.0
 10
375.759839
 20
179.437330
 30
0.0
 10
375.240601
 20
179.625837
 30
0.0
 10
374.817736
 20
179.981157
 30
0.0
 10
374.541922
 20
180.459441
 30
0.0
 10
374.428721
 20
181.092916
 30
0.0
 10
374.624048
 20
181.819420
 30
0.0
 10
375.219618
 20
182.414624
 30
0.0
 10
376.037195
 20
182.635547
 30
0.0
 10
376.846365
 20
182.414743
 30
0.0
 10
377.466658
 20
181.818957
 30
0.0
 10
377.551036
 20
181.277775
 30
0.0
 10
377.593860
 20
181.003110
 30
0.0
 11
377.593860
 21
181.003110
 31
0.0
 11
377.499014
 21
180.467732
 31
0.0
 11
377.231047
 21
180.003601
 31
0.0
 11
376.814820
 21
179.653773
 31
0.0
 11
376.303746
 21
179.468223
 31
0.0
 11
375.767814
 21
179.468223
 31
0.0
 11
375.256740
 21
179.653773
 31
0.0
 11
374.840513
 21
180.003601
 31
0.0
 11
374.572546
 21
180.467732
 31
0.0
 11
374.477700
 21
181.003110
 31
0.0
 11
374.690424
 21
181.789503
 31
0.0
 11
375.249387
 21
182.348467
 31
0.0
 11
376.035780
 21
182.561191
 31
0.0
 11
376.822173
 21
182.348467
 31
0.0
 11
377.381136
 21
181.789503
 31
0.0
 11
377.593860
 21
181.003110
 31
0.0
  0
LINE
  5
104
100
AcDbEntity
  8
Layer_1
 62
1
100
AcDbLine
 10
354.713460
 20
209.499120
 30
0.0
 11
354.713460
 21
209.499120
 31
0.0
  0
SPLINE
  5
105
100
AcDbEntity
  8
Layer_1
 62
1
100
AcDbSpline
 70
0
 71
3
 72
25
 73
21
 74
19
 40
0.000000
 40
0.000000
 40
0.000000
 40
0.000000
 40
0.785171
 40
1.559105
 40
2.344276
 40
3.129447
 40
3.903381
 40
4.688552
 40
5.473723
 40
6.247657
 40
7.032828
 40
7.817999
 40
8.591933
 40
9.377104
 40
10.162275
 40
10.936209
 40
11.721380
 40
12.506551
 40
13.280485
 40
14.065656
 40
14.065656
 40
14.065656
 40
14.065656
 10
354.713460
 20
209.499120
 30
0.0
 10
354.686577
 20
209.236061
 30
0.0
 10
354.633196
 20
208.713709
 30
0.0
 10
354.219045
 20
208.023413
 30
0.0
 10
353.612658
 20
207.510195
 30
0.0
 10
352.861762
 20
207.238002
 30
0.0
 10
352.064976
 20
207.238002
 30
0.0
 10
351.315132
 20
207.510195
 30
0.0
 10
350.704545
 20
208.023413
 30
0.0
 10
350.305997
 20
208.713709
 30
0.0
 10
350.166843
 20
209.499120
 30
0.0
 10
350.305997
 20
210.284531
 30
0.0
 10
350.704545
 20
210.974827
 30
0.0
 10
351.315132
 20
211.488045
 30
0.0
 10
352.064976
 20
211.760238
 30
0.0
 10
352.861762
 20
211.760238
 30
0.0
 10
353.612658
 20
211.488045
 30
0.0
 10
354.219045
 20
210.974827
 30
0.0
 10
354.633196
 20
210.284531
 30
0.0
 10
354.686577
 20
209.762179
 30
0.0
 10
354.713460
 20
209.499120
 30
0.0
 11
354.713460
 21
209.499120
 31
0.0
 11
354.576494
 21
208.725988
 31
0.0
 11
354.189527
 21
208.055741
 31
0.0
 11
353.588458
 21
207.550559
 31
0.0
 11
352.850422
 21
207.282609
 31
0.0
 11
352.076488
 21
207.282609
 31
0.0
 11
351.338453
 21
207.550559
 31
0.0
 11
350.737383
 21
208.055741
 31
0.0
 11
350.350416
 21
208.725988
 31
0.0
 11
350.213450
 21
209.499120
 31
0.0
 11
350.350416
 21
210.272252
 31
0.0
 11
350.737383
 21
210.942499
 31
0.0
 11
351.338453
 21
211.447681
 31
0.0
 11
352.076488
 21
211.715631
 31
0.0
 11
352.850422
 21
211.715631
 31
0.0
 11
353.588458
 21
211.447681
 31
0.0
 11
354.189527
 21
210.942499
 31
0.0
 11
354.576494
 21
210.272252
 31
0.0
 11
354.713460
 21
209.499120
 31
0.0
  0
LINE
  5
106
100
AcDbEntity
  8
Layer_1
 62
1
100
AcDbLine
 10
101.846480
 20
209.499120
 30
0.0
 11
101.846480
 21
209.499120
 31
0.0
  0
SPLINE
  5
107
100
AcDbEntity
  8
Layer_1
 62
1
100
AcDbSpline
 70
0
 71
3
 72
25
 73
21
 74
19
 40
0.000000
 40
0.000000
 40
0.000000
 40
0.000000
 40
0.544375
 40
1.080807
 40
1.624791
 40
2.168566
 40
2.704478
 40
3.248253
 40
3.792237
 40
4.328669
 40
4.873044
 40
5.417418
 40
5.953850
 40
6.497835
 40
7.041610
 40
7.577521
 40
8.121296
 40
8.665281
 40
9.201713
 40
9.746087
 40
9.746087
 40
9.746087
 40
9.746087
 10
101.846480
 20
209.499120
 30
0.0
 10
101.827869
 20
209.316738
 30
0.0
 10
101.790919
 20
208.954635
 30
0.0
 10
101.504202
 20
208.476038
 30
0.0
 10
101.084324
 20
208.120157
 30
0.0
 10
100.564312
 20
207.931381
 30
0.0
 10
100.012489
 20
207.931381
 30
0.0
 10
99.493204
 20
208.120157
 30
0.0
 10
99.070421
 20
208.476038
 30
0.0
 10
98.794501
 20
208.954635
 30
0.0
 10
98.698174
 20
209.499120
 30
0.0
 10
98.794501
 20
210.043605
 30
0.0
 10
99.070421
 20
210.522202
 30
0.0
 10
99.493204
 20
210.878083
 30
0.0
 10
100.012489
 20
211.066859
 30
0.0
 10
100.564312
 20
211.066859
 30
0.0
 10
101.084324
 20
210.878083
 30
0.0
 10
101.504202
 20
210.522202
 30
0.0
 10
101.790919
 20
210.043605
 30
0.0
 10
101.827869
 20
209.681502
 30
0.0
 10
101.846480
 20
209.499120
 30
0.0
 11
101.846480
 21
209.499120
 31
0.0
 11
101.751637
 21
208.963071
 31
0.0
 11
101.483681
 21
208.498357
 31
0.0
 11
101.067470
 21
208.148090
 31
0.0
 11
100.556416
 21
207.962308
 31
0.0
 11
100.020504
 21
207.962308
 31
0.0
 11
99.509450
 21
208.148090
 31
0.0
 11
99.093239
 21
208.498357
 31
0.0
 11
98.825283
 21
208.963071
 31
0.0
 11
98.730440
 21
209.499120
 31
0.0
 11
98.825283
 21
210.035169
 31
0.0
 11
99.093239
 21
210.499883
 31
0.0
 11
99.509450
 21
210.850150
 31
0.0
 11
100.020504
 21
211.035932
 31
0.0
 11
100.556416
 21
211.035932
 31
0.0
 11
101.067470
 21
210.850150
 31
0.0
 11
101.483681
 21
210.499883
 31
0.0
 11
101.751637
 21
210.035169
 31
0.0
 11
101.846480
 21
209.499120
 31
0.0
  0
SPLINE
  5
108
100
AcDbEntity
  8
Layer_1
 62
1
100
AcDbSpline
 70
0
 71
3
 72
13
 73
9
 74
7
 40
0.000000
 40
0.000000
 40
0.000000
 40
0.000000
 40
0.814790
 40
1.604815
 40
2.418227
 40
3.231639
 40
4.021664
 40
4.836454
 40
4.836454
 40
4.836454
 40
4.836454
 10
377.596610
 20
209.499120
 30
0.0
 10
377.553199
 20
209.224541
 30
0.0
 10
377.467697
 20
208.683729
 30
0.0
 10
376.848418
 20
208.088522
 30
0.0
 10
376.038455
 20
207.867853
 30
0.0
 10
375.228492
 20
208.088522
 30
0.0
 10
374.609213
 20
208.683729
 30
0.0
 10
374.523711
 20
209.224541
 30
0.0
 10
374.480300
 20
209.499120
 30
0.0
 11
377.596610
 21
209.499120
 31
0.0
 11
377.382479
 21
208.712970
 31
0.0
 11
376.823639
 21
208.154546
 31
0.0
 11
376.038455
 21
207.942121
 31
0.0
 11
375.253271
 21
208.154546
 31
0.0
 11
374.694431
 21
208.712970
 31
0.0
 11
374.480300
 21
209.499120
 31
0.0
  0
LINE
  5
109
100
AcDbEntity
  8
Layer_1
 62
1
100
AcDbLine
 10
377.596610
 20
209.499120
 30
0.0
 11
377.596610
 21
209.499120
 31
0.0
  0
SPLINE
  5
10a
100
AcDbEntity
  8
Layer_1
 62
1
100
AcDbSpline
 70
0
 71
3
 72
13
 73
9
 74
7
 40
0.000000
 40
0.000000
 40
0.000000
 40
0.000000
 40
0.814790
 40
1.604815
 40
2.418227
 40
3.231639
 40
4.021664
 40
4.836454
 40
4.836454
 40
4.836454
 40
4.836454
 10
374.480300
 20
209.499120
 30
0.0
 10
374.523711
 20
209.773699
 30
0.0
 10
374.609213
 20
210.314511
 30
0.0
 10
375.228492
 20
210.909718
 30
0.0
 10
376.038455
 20
211.130387
 30
0.0
 10
376.848418
 20
210.909718
 30
0.0
 10
377.467697
 20
210.314511
 30
0.0
 10
377.553199
 20
209.773699
 30
0.0
 10
377.596610
 20
209.499120
 30
0.0
 11
374.480300
 21
209.499120
 31
0.0
 11
374.694431
 21
210.285270
 31
0.0
 11
375.253271
 21
210.843694
 31
0.0
 11
376.038455
 21
211.056119
 31
0.0
 11
376.823639
 21
210.843694
 31
0.0
 11
377.382479
 21
210.285270
 31
0.0
 11
377.596610
 21
209.499120
 31
0.0
  0
SPLINE
  5
10b
100
AcDbEntity
  8
Layer_1
 62
1
100
AcDbSpline
 70
0
 71
3
 72
13
 73
9
 74
7
 40
0.000000
 40
0.000000
 40
0.000000
 40
0.000000
 40
1.176049
 40
2.317236
 40
3.493285
 40
4.669333
 40
5.810520
 40
6.986569
 40
6.986569
 40
6.986569
 40
6.986569
 10
126.113459
 20
209.499120
 30
0.0
 10
126.051410
 20
209.102647
 30
0.0
 10
125.929151
 20
208.321452
 30
0.0
 10
125.034157
 20
207.461613
 30
0.0
 10
123.863458
 20
207.143026
 30
0.0
 10
122.692760
 20
207.461613
 30
0.0
 10
121.797766
 20
208.321452
 30
0.0
 10
121.675507
 20
209.102647
 30
0.0
 10
121.613458
 20
209.499120
 30
0.0
 11
126.113459
 21
209.499120
 31
0.0
 11
125.805882
 21
208.364004
 31
0.0
 11
124.998733
 21
207.557272
 31
0.0
 11
123.863458
 21
207.250281
 31
0.0
 11
122.728184
 21
207.557272
 31
0.0
 11
121.921035
 21
208.364004
 31
0.0
 11
121.613458
 21
209.499120
 31
0.0
  0
LINE
  5
10c
100
AcDbEntity
  8
Layer_1
 62
1
100
AcDbLine
 10
126.113459
 20
209.499120
 30
0.0
 11
126.113459
 21
209.499120
 31
0.0
  0
SPLINE
  5
10d
100
AcDbEntity
  8
Layer_1
 62
1
100
AcDbSpline
 70
0
 71
3
 72
13
 73
9
 74
7
 40
0.000000
 40
0.000000
 40
0.000000
 40
0.000000
 40
1.176049
 40
2.317236
 40
3.493285
 40
4.669333
 40
5.810520
 40
6.986569
 40
6.986569
 40
6.986569
 40
6.986569
 10
121.613458
 20
209.499120
 30
0.0
 10
121.675507
 20
209.895593
 30
0.0
 10
121.797766
 20
210.676788
 30
0.0
 10
122.692760
 20
211.536627
 30
0.0
 10
123.863458
 20
211.855214
 30
0.0
 10
125.034157
 20
211.536627
 30
0.0
 10
125.929151
 20
210.676788
 30
0.0
 10
126.051410
 20
209.895593
 30
0.0
 10
126.113459
 20
209.499120
 30
0.0
 11
121.613458
 21
209.499120
 31
0.0
 11
121.921035
 21
210.634236
 31
0.0
 11
122.728184
 21
211.440968
 31
0.0
 11
123.863458
 21
211.747959
 31
0.0
 11
124.998733
 21
211.440968
 31
0.0
 11
125.805882
 21
210.634236
 31
0.0
 11
126.113459
 21
209.499120
 31
0.0
  0
LINE
  5
10e
100
AcDbEntity
  8
Layer_1
 62
1
100
AcDbLine
 10
239.721534
 20
209.499120
 30
0.0
 11
239.721534
 21
209.499120
 31
0.0
  0
SPLINE
  5
10f
100
AcDbEntity
  8
Layer_1
 62
1
100
AcDbSpline
 70
0
 71
3
 72
19
 73
15
 74
13
 40
0.000000
 40
0.000000
 40
0.000000
 40
0.000000
 40
0.814752
 40
1.605221
 40
2.419712
 40
3.234202
 40
4.024672
 40
4.839424
 40
5.654175
 40
6.444645
 40
7.259135
 40
8.073626
 40
8.864095
 40
9.678847
 40
9.678847
 40
9.678847
 40
9.678847
 10
239.721534
 20
209.499120
 30
0.0
 10
239.678639
 20
209.224441
 30
0.0
 10
239.594128
 20
208.683271
 30
0.0
 10
238.973921
 20
208.087481
 30
0.0
 10
238.164889
 20
207.866697
 30
0.0
 10
237.347351
 20
208.087481
 30
0.0
 10
236.752162
 20
208.683271
 30
0.0
 10
236.530879
 20
209.499120
 30
0.0
 10
236.752162
 20
210.314969
 30
0.0
 10
237.347351
 20
210.910759
 30
0.0
 10
238.164889
 20
211.131543
 30
0.0
 10
238.973921
 20
210.910759
 30
0.0
 10
239.594128
 20
210.314969
 30
0.0
 10
239.678639
 20
209.773799
 30
0.0
 10
239.721534
 20
209.499120
 30
0.0
 11
239.721534
 21
209.499120
 31
0.0
 11
239.508625
 21
208.712678
 31
0.0
 11
238.949683
 21
208.153728
 31
0.0
 11
238.163457
 21
207.941023
 31
0.0
 11
237.377231
 21
208.153728
 31
0.0
 11
236.818289
 21
208.712678
 31
0.0
 11
236.605380
 21
209.499120
 31
0.0
 11
236.818289
 21
210.285562
 31
0.0
 11
237.377231
 21
210.844512
 31
0.0
 11
238.163457
 21
211.057217
 31
0.0
 11
238.949683
 21
210.844512
 31
0.0
 11
239.508625
 21
210.285562
 31
0.0
 11
239.721534
 21
209.499120
 31
0.0
  0
LINE
  5
110
100
AcDbEntity
  8
Layer_1
 62
1
100
AcDbLine
 10
101.844010
 20
181.003110
 30
0.0
 11
101.844010
 21
181.003110
 31
0.0
  0
LINE
  5
111
100
AcDbEntity
  8
Layer_1
 62
1
100
AcDbLine
 10
96.288726
 20
135.853920
 30
0.0
 11
96.288726
 21
209.501445
 31
0.0
  0
SPLINE
  5
112
100
AcDbEntity
  8
Layer_1
 62
1
100
AcDbSpline
 70
0
 71
3
 72
25
 73
21
 74
19
 40
0.000000
 40
0.000000
 40
0.000000
 40
0.000000
 40
0.543765
 40
1.079748
 40
1.623512
 40
2.167277
 40
2.703259
 40
3.247024
 40
3.790789
 40
4.326771
 40
4.870536
 40
5.414301
 40
5.950284
 40
6.494048
 40
7.037813
 40
7.573796
 40
8.117560
 40
8.661325
 40
9.197308
 40
9.741072
 40
9.741072
 40
9.741072
 40
9.741072
 10
101.844010
 20
181.003110
 30
0.0
 10
101.825392
 20
180.820931
 30
0.0
 10
101.788424
 20
180.459179
 30
0.0
 10
101.501606
 20
179.981119
 30
0.0
 10
101.081657
 20
179.625694
 30
0.0
 10
100.561629
 20
179.437188
 30
0.0
 10
100.009821
 20
179.437188
 30
0.0
 10
99.490522
 20
179.625694
 30
0.0
 10
99.067665
 20
179.981119
 30
0.0
 10
98.791652
 20
180.459179
 30
0.0
 10
98.695283
 20
181.003110
 30
0.0
 10
98.791652
 20
181.547041
 30
0.0
 10
99.067665
 20
182.025101
 30
0.0
 10
99.490522
 20
182.380526
 30
0.0
 10
100.009821
 20
182.569032
 30
0.0
 10
100.561629
 20
182.569032
 30
0.0
 10
101.081657
 20
182.380526
 30
0.0
 10
101.501606
 20
182.025101
 30
0.0
 10
101.788424
 20
181.547041
 30
0.0
 10
101.825392
 20
181.185289
 30
0.0
 10
101.844010
 20
181.003110
 30
0.0
 11
101.844010
 21
181.003110
 31
0.0
 11
101.749155
 21
180.467682
 31
0.0
 11
101.481164
 21
180.003508
 31
0.0
 11
101.064898
 21
179.653647
 31
0.0
 11
100.553776
 21
179.468080
 31
0.0
 11
100.017794
 21
179.468080
 31
0.0
 11
99.506673
 21
179.653647
 31
0.0
 11
99.090406
 21
180.003508
 31
0.0
 11
98.822415
 21
180.467682
 31
0.0
 11
98.727560
 21
181.003110
 31
0.0
 11
98.822415
 21
181.538538
 31
0.0
 11
99.090406
 21
182.002712
 31
0.0
 11
99.506673
 21
182.352573
 31
0.0
 11
100.017794
 21
182.538140
 31
0.0
 11
100.553776
 21
182.538140
 31
0.0
 11
101.064898
 21
182.352573
 31
0.0
 11
101.481164
 21
182.002712
 31
0.0
 11
101.749155
 21
181.538538
 31
0.0
 11
101.844010
 21
181.003110
 31
0.0
  0
LINE
  5
113
100
AcDbEntity
  8
Layer_1
 62
1
100
AcDbLine
 10
100.288510
 20
213.499548
 30
0.0
 11
132.405410
 21
213.501148
 31
0.0
  0
SPLINE
  5
114
100
AcDbEntity
  8
Layer_1
 62
1
100
AcDbSpline
 70
0
 71
3
 72
10
 73
6
 74
4
 40
0.000000
 40
0.000000
 40
0.000000
 40
0.000000
 40
2.091435
 40
4.120838
 40
6.212273
 40
6.212273
 40
6.212273
 40
6.212273
 10
96.288516
 20
209.499548
 30
0.0
 10
96.398536
 20
210.200451
 30
0.0
 10
96.615314
 20
211.581468
 30
0.0
 10
98.206591
 20
213.172747
 30
0.0
 10
99.587607
 20
213.389527
 30
0.0
 10
100.288510
 20
213.499548
 30
0.0
 11
96.288516
 21
209.499548
 31
0.0
 11
96.834632
 21
211.518423
 31
0.0
 11
98.269636
 21
212.953429
 31
0.0
 11
100.288510
 21
213.499548
 31
0.0
  0
SPLINE
  5
115
100
AcDbEntity
  8
Layer_1
 62
1
100
AcDbSpline
 70
0
 71
3
 72
10
 73
6
 74
4
 40
0.000000
 40
0.000000
 40
0.000000
 40
0.000000
 40
1.045721
 40
2.060429
 40
3.106148
 40
3.106148
 40
3.106148
 40
3.106148
 10
132.405410
 20
213.501148
 30
0.0
 10
132.755862
 20
213.446137
 30
0.0
 10
133.446374
 20
213.337746
 30
0.0
 10
134.242016
 20
212.542103
 30
0.0
 10
134.350401
 20
211.851591
 30
0.0
 10
134.405410
 20
211.501138
 30
0.0
 11
132.405410
 21
213.501148
 31
0.0
 11
133.414851
 21
213.228087
 31
0.0
 11
134.132356
 21
212.510579
 31
0.0
 11
134.405410
 21
211.501138
 31
0.0
  0
LINE
  5
116
100
AcDbEntity
  8
Layer_1
 62
1
100
AcDbLine
 10
100.288510
 20
213.499549
 30
0.0
 11
132.405410
 21
213.501149
 31
0.0
  0
SPLINE
  5
117
100
AcDbEntity
  8
Layer_1
 62
1
100
AcDbSpline
 70
0
 71
3
 72
10
 73
6
 74
4
 40
0.000000
 40
0.000000
 40
0.000000
 40
0.000000
 40
2.091435
 40
4.120838
 40
6.212274
 40
6.212274
 40
6.212274
 40
6.212274
 10
96.288515
 20
209.499549
 30
0.0
 10
96.398535
 20
210.200452
 30
0.0
 10
96.615313
 20
211.581469
 30
0.0
 10
98.206590
 20
213.172748
 30
0.0
 10
99.587607
 20
213.389528
 30
0.0
 10
100.288510
 20
213.499549
 30
0.0
 11
96.288515
 21
209.499549
 31
0.0
 11
96.834631
 21
211.518424
 31
0.0
 11
98.269635
 21
212.953430
 31
0.0
 11
100.288510
 21
213.499549
 31
0.0
  0
SPLINE
  5
118
100
AcDbEntity
  8
Layer_1
 62
1
100
AcDbSpline
 70
0
 71
3
 72
10
 73
6
 74
4
 40
0.000000
 40
0.000000
 40
0.000000
 40
0.000000
 40
1.045721
 40
2.060429
 40
3.106148
 40
3.106148
 40
3.106148
 40
3.106148
 10
132.405410
 20
213.501149
 30
0.0
 10
132.755862
 20
213.446138
 30
0.0
 10
133.446374
 20
213.337747
 30
0.0
 10
134.242016
 20
212.542104
 30
0.0
 10
134.350401
 20
211.851592
 30
0.0
 10
134.405410
 20
211.501139
 30
0.0
 11
132.405410
 21
213.501149
 31
0.0
 11
133.414851
 21
213.228088
 31
0.0
 11
134.132356
 21
212.510580
 31
0.0
 11
134.405410
 21
211.501139
 31
0.0
  0
LINE
  5
119
100
AcDbEntity
  8
Layer_1
 62
1
100
AcDbLine
 10
100.288510
 20
131.875690
 30
0.0
 11
132.405410
 21
131.873690
 31
0.0
  0
LINE
  5
11a
100
AcDbEntity
  8
Layer_1
 62
1
100
AcDbLine
 10
380.037450
 20
209.499378
 30
0.0
 11
380.037450
 21
139.875380
 31
0.0
  0
LINE
  5
11b
100
AcDbEntity
  8
Layer_1
 62
1
100
AcDbLine
 10
380.037450
 20
139.875380
 30
0.0
 11
380.038450
 21
135.875050
 31
0.0
  0
SPLINE
  5
11c
100
AcDbEntity
  8
Layer_1
 62
1
100
AcDbSpline
 70
0
 71
3
 72
10
 73
6
 74
4
 40
0.000000
 40
0.000000
 40
0.000000
 40
0.000000
 40
2.091437
 40
4.120840
 40
6.212274
 40
6.212274
 40
6.212274
 40
6.212274
 10
96.288516
 20
135.875690
 30
0.0
 10
96.398536
 20
135.174787
 30
0.0
 10
96.615314
 20
133.793769
 30
0.0
 10
98.206591
 20
132.202489
 30
0.0
 10
99.587607
 20
131.985711
 30
0.0
 10
100.288510
 20
131.875690
 30
0.0
 11
96.288516
 21
135.875690
 31
0.0
 11
96.834632
 21
133.856813
 31
0.0
 11
98.269636
 21
132.421807
 31
0.0
 11
100.288510
 21
131.875690
 31
0.0
  0
LINE
  5
11d
100
AcDbEntity
  8
Layer_1
 62
1
100
AcDbLine
 10
376.038450
 20
131.875070
 30
0.0
 11
153.405350
 21
131.873070
 31
0.0
  0
LINE
  5
11e
100
AcDbEntity
  8
Layer_1
 62
1
100
AcDbLine
 10
153.405350
 20
131.873070
 30
0.0
 11
132.405350
 21
131.873290
 31
0.0
  0
LINE
  5
11f
100
AcDbEntity
  8
Layer_1
 62
1
100
AcDbLine
 10
132.405350
 20
131.873290
 30
0.0
 11
100.288450
 21
131.875290
 31
0.0
  0
SPLINE
  5
120
100
AcDbEntity
  8
Layer_1
 62
1
100
AcDbSpline
 70
0
 71
3
 72
10
 73
6
 74
4
 40
0.000000
 40
0.000000
 40
0.000000
 40
0.000000
 40
2.091428
 40
4.120827
 40
6.212263
 40
6.212263
 40
6.212263
 40
6.212263
 10
380.038450
 20
135.875050
 30
0.0
 10
379.928429
 20
135.174150
 30
0.0
 10
379.711651
 20
133.793136
 30
0.0
 10
378.120369
 20
132.201866
 30
0.0
 10
376.739353
 20
131.985090
 30
0.0
 10
376.038450
 20
131.875070
 30
0.0
 11
380.038450
 21
135.875050
 31
0.0
 11
379.492333
 21
133.856183
 31
0.0
 11
378.057327
 21
132.421184
 31
0.0
 11
376.038450
 21
131.875070
 31
0.0
  0
LINE
  5
121
100
AcDbEntity
  8
Layer_1
 62
1
100
AcDbLine
 10
151.405743
 20
207.455810
 30
0.0
 11
151.405743
 21
211.501290
 31
0.0
  0
SPLINE
  5
122
100
AcDbEntity
  8
Layer_1
 62
1
100
AcDbSpline
 70
0
 71
3
 72
10
 73
6
 74
4
 40
0.000000
 40
0.000000
 40
0.000000
 40
0.000000
 40
2.091435
 40
4.120838
 40
6.212275
 40
6.212275
 40
6.212275
 40
6.212275
 10
100.288450
 20
131.875290
 30
0.0
 10
99.587547
 20
131.985311
 30
0.0
 10
98.206530
 20
132.202089
 30
0.0
 10
96.615253
 20
133.793369
 30
0.0
 10
96.398475
 20
135.174387
 30
0.0
 10
96.288455
 20
135.875290
 30
0.0
 11
100.288450
 21
131.875290
 31
0.0
 11
98.269575
 21
132.421407
 31
0.0
 11
96.834571
 21
133.856413
 31
0.0
 11
96.288455
 21
135.875290
 31
0.0
  0
LINE
  5
123
100
AcDbEntity
  8
Layer_1
 62
1
100
AcDbLine
 10
153.405668
 20
213.501460
 30
0.0
 11
376.038770
 21
213.499460
 31
0.0
  0
SPLINE
  5
124
100
AcDbEntity
  8
Layer_1
 62
1
100
AcDbSpline
 70
0
 71
3
 72
10
 73
6
 74
4
 40
0.000000
 40
0.000000
 40
0.000000
 40
0.000000
 40
1.045720
 40
2.060426
 40
3.106147
 40
3.106147
 40
3.106147
 40
3.106147
 10
151.405669
 20
211.501450
 30
0.0
 10
151.460678
 20
211.851902
 30
0.0
 10
151.569064
 20
212.542414
 30
0.0
 10
152.364704
 20
213.338059
 30
0.0
 10
153.055215
 20
213.446449
 30
0.0
 10
153.405668
 20
213.501460
 30
0.0
 11
151.405669
 21
211.501450
 31
0.0
 11
151.678724
 21
212.510891
 31
0.0
 11
152.396227
 21
213.228399
 31
0.0
 11
153.405668
 21
213.501460
 31
0.0
  0
LINE
  5
125
100
AcDbEntity
  8
Layer_1
 62
1
100
AcDbLine
 10
134.405735
 20
211.501290
 30
0.0
 11
134.405735
 21
207.455810
 31
0.0
  0
SPLINE
  5
126
100
AcDbEntity
  8
Layer_1
 62
1
100
AcDbSpline
 70
0
 71
3
 72
10
 73
6
 74
4
 40
0.000000
 40
0.000000
 40
0.000000
 40
0.000000
 40
2.091437
 40
4.120842
 40
6.212279
 40
6.212279
 40
6.212279
 40
6.212279
 10
376.038770
 20
213.499460
 30
0.0
 10
376.739673
 20
213.389439
 30
0.0
 10
378.120692
 20
213.172662
 30
0.0
 10
379.711972
 20
211.581382
 30
0.0
 10
379.928749
 20
210.200363
 30
0.0
 10
380.038770
 20
209.499460
 30
0.0
 11
376.038770
 21
213.499460
 31
0.0
 11
378.057647
 21
212.953343
 31
0.0
 11
379.492653
 21
211.518337
 31
0.0
 11
380.038770
 21
209.499460
 31
0.0
  0
SPLINE
  5
127
100
AcDbEntity
  8
Layer_1
 62
1
100
AcDbSpline
 70
0
 71
3
 72
10
 73
6
 74
4
 40
0.000000
 40
0.000000
 40
0.000000
 40
0.000000
 40
0.883261
 40
1.747033
 40
2.630293
 40
2.630293
 40
2.630293
 40
2.630293
 10
132.891206
 20
205.519457
 30
0.0
 10
133.168286
 20
205.629035
 30
0.0
 10
133.716331
 20
205.845774
 30
0.0
 10
134.289730
 20
206.580150
 30
0.0
 10
134.367092
 20
207.164397
 30
0.0
 10
134.406205
 20
207.459779
 30
0.0
 11
132.891206
 21
205.519457
 31
0.0
 11
133.679708
 21
205.917470
 31
0.0
 11
134.211293
 21
206.598293
 31
0.0
 11
134.406205
 21
207.459779
 31
0.0
  0
LINE
  5
128
100
AcDbEntity
  8
Layer_1
 62
1
100
AcDbLine
 10
131.377935
 20
203.578431
 30
0.0
 11
131.382235
 21
175.848510
 31
0.0
  0
SPLINE
  5
129
100
AcDbEntity
  8
Layer_1
 62
1
100
AcDbSpline
 70
0
 71
3
 72
10
 73
6
 74
4
 40
0.000000
 40
0.000000
 40
0.000000
 40
0.000000
 40
0.883261
 40
1.747032
 40
2.630293
 40
2.630293
 40
2.630293
 40
2.630293
 10
132.892934
 20
205.518753
 30
0.0
 10
132.615855
 20
205.409175
 30
0.0
 10
132.067809
 20
205.192436
 30
0.0
 10
131.494410
 20
204.458060
 30
0.0
 10
131.417048
 20
203.873813
 30
0.0
 10
131.377935
 20
203.578431
 30
0.0
 11
132.892934
 21
205.518753
 31
0.0
 11
132.104432
 21
205.120740
 31
0.0
 11
131.572847
 21
204.439917
 31
0.0
 11
131.377935
 21
203.578431
 31
0.0
  0
LINE
  5
12a
100
AcDbEntity
  8
Layer_1
 62
1
100
AcDbLine
 10
133.382225
 20
173.848500
 30
0.0
 11
160.449435
 21
173.851300
 31
0.0
  0
LINE
  5
12b
100
AcDbEntity
  8
Layer_1
 62
1
100
AcDbLine
 10
160.449435
 20
173.851300
 30
0.0
 11
313.596080
 21
173.851300
 31
0.0
  0
LINE
  5
12c
100
AcDbEntity
  8
Layer_1
 62
1
100
AcDbLine
 10
313.596080
 20
173.851300
 30
0.0
 11
315.849900
 21
173.855500
 31
0.0
  0
SPLINE
  5
12d
100
AcDbEntity
  8
Layer_1
 62
1
100
AcDbSpline
 70
0
 71
3
 72
10
 73
6
 74
4
 40
0.000000
 40
0.000000
 40
0.000000
 40
0.000000
 40
1.045719
 40
2.060423
 40
3.106142
 40
3.106142
 40
3.106142
 40
3.106142
 10
131.382235
 20
175.848510
 30
0.0
 10
131.437243
 20
175.498058
 30
0.0
 10
131.545627
 20
174.807547
 30
0.0
 10
132.341264
 20
174.011901
 30
0.0
 10
133.031773
 20
173.903511
 30
0.0
 10
133.382225
 20
173.848500
 30
0.0
 11
131.382235
 21
175.848510
 31
0.0
 11
131.655286
 21
174.839069
 31
0.0
 11
132.372787
 21
174.121561
 31
0.0
 11
133.382225
 21
173.848500
 31
0.0
  0
LINE
  5
12e
100
AcDbEntity
  8
Layer_1
 62
1
100
AcDbLine
 10
318.103710
 20
176.515619
 30
0.0
 11
318.103640
 21
179.172272
 31
0.0
  0
LINE
  5
12f
100
AcDbEntity
  8
Layer_1
 62
1
100
AcDbLine
 10
318.103640
 20
179.172272
 30
0.0
 11
318.103640
 21
202.862990
 31
0.0
  0
SPLINE
  5
130
100
AcDbEntity
  8
Layer_1
 62
1
100
AcDbSpline
 70
0
 71
3
 72
10
 73
6
 74
4
 40
0.000000
 40
0.000000
 40
0.000000
 40
0.000000
 40
1.194110
 40
2.444908
 40
3.822332
 40
3.822332
 40
3.822332
 40
3.822332
 10
315.849900
 20
173.855500
 30
0.0
 10
316.250352
 20
173.934288
 30
0.0
 10
317.070267
 20
174.095604
 30
0.0
 10
317.933855
 20
175.178981
 30
0.0
 10
318.045302
 20
176.055988
 30
0.0
 10
318.103710
 20
176.515619
 30
0.0
 11
315.849900
 21
173.855500
 31
0.0
 11
316.987439
 21
174.218684
 31
0.0
 11
317.795998
 21
175.173006
 31
0.0
 11
318.103710
 21
176.515619
 31
0.0
  0
SPLINE
  5
131
100
AcDbEntity
  8
Layer_1
 62
1
100
AcDbSpline
 70
0
 71
3
 72
10
 73
6
 74
4
 40
0.000000
 40
0.000000
 40
0.000000
 40
0.000000
 40
1.045719
 40
2.060423
 40
3.106142
 40
3.106142
 40
3.106142
 40
3.106142
 10
151.406500
 20
207.522966
 30
0.0
 10
151.461508
 20
207.172514
 30
0.0
 10
151.569892
 20
206.482003
 30
0.0
 10
152.365529
 20
205.686357
 30
0.0
 10
153.056038
 20
205.577967
 30
0.0
 10
153.406490
 20
205.522956
 30
0.0
 11
151.406500
 21
207.522966
 31
0.0
 11
151.679551
 21
206.513525
 31
0.0
 11
152.397052
 21
205.796017
 31
0.0
 11
153.406490
 21
205.522956
 31
0.0
  0
ENDSEC
  0
SECTION
  2
OBJECTS
  0
DICTIONARY
  5
C
330
0
100
AcDbDictionary
  3
ACAD_GROUP
350
D
  3
ACAD_MLINESTYLE
350
17
  0
DICTIONARY
  5
D
330
C
100
AcDbDictionary
  0
DICTIONARY
  5
1A
330
C
100
AcDbDictionary
  0
DICTIONARY
  5
17
330
C
100
AcDbDictionary
  3
STANDARD
350
18
  0
DICTIONARY
  5
19
330
C
100
AcDbDictionary
  0
ENDSEC
  0
EOF
