  0
SECTION
  2
HEADER
  9
$ACADVER
  1
AC1014
  9
$HANDSEED
  5
FFFF
  9
$INSUNITS
 70
     4
  9
$MEASUREMENT
 70
     1
  0
ENDSEC
  0
SECTION
  2
TABLES
  0
TABLE
  2
VPORT
  5
8
330
0
100
AcDbSymbolTable
 70
     4
  0
VPORT
  5
2E
330
8
100
AcDbSymbolTableRecord
100
AcDbViewportTableRecord
  2
*ACTIVE
 70
     0
 10
0.0
 20
0.0
 11
1.0
 21
1.0
 12
210.0
 22
148.5
 13
0.0
 23
0.0
 14
10.0
 24
10.0
 15
10.0
 25
10.0
 16
0.0
 26
0.0
 36
1.0
 17
0.0
 27
0.0
 37
0.0
 40
341.0
 41
1.24
 42
50.0
 43
0.0
 44
0.0
 50
0.0
 51
0.0
 71
     0
 72
   100
 73
     1
 74
     3
 75
     0
 76
     0
 77
     0
 78
     0
  0
ENDTAB
  0
TABLE
  2
LTYPE
  5
5
330
0
100
AcDbSymbolTable
 70
     1
  0
LTYPE
  5
14
330
5
100
AcDbSymbolTableRecord
100
AcDbLinetypeTableRecord
  2
BYBLOCK
 70
     0
  3

 72
    65
 73
     0
 40
0.0
  0
LTYPE
  5
15
330
5
100
AcDbSymbolTableRecord
100
AcDbLinetypeTableRecord
  2
BYLAYER
 70
     0
  3

 72
    65
 73
     0
 40
0.0
  0
LTYPE
  5
16
330
5
100
AcDbSymbolTableRecord
100
AcDbLinetypeTableRecord
  2
CONTINUOUS
 70
     0
  3
Solid line
 72
    65
 73
     0
 40
0.0
  0
ENDTAB
  0
TABLE
  2
LAYER
  5
2
100
AcDbSymbolTable
 70
2
  0
LAYER
  5
50
100
AcDbSymbolTableRecord
100
AcDbLayerTableRecord
  2
0
 70
0
  6
CONTINUOUS
  0
LAYER
  5
51
100
AcDbSymbolTableRecord
100
AcDbLayerTableRecord
  2
Layer_1
 70
0
  6
CONTINUOUS
  0
ENDTAB
  0
TABLE
  2
STYLE
  5
3
330
0
100
AcDbSymbolTable
 70
     1
  0
STYLE
  5
11
330
3
100
AcDbSymbolTableRecord
100
AcDbTextStyleTableRecord
  2
STANDARD
 70
     0
 40
0.0
 41
1.0
 50
0.0
 71
     0
 42
2.5
  3
txt
  4

  0
ENDTAB
  0
TABLE
  2
VIEW
  5
6
330
0
100
AcDbSymbolTable
 70
     0
  0
ENDTAB
  0
TABLE
  2
UCS
  5
7
330
0
100
AcDbSymbolTable
 70
     0
  0
ENDTAB
  0
TABLE
  2
APPID
  5
9
330
0
100
AcDbSymbolTable
 70
     2
  0
APPID
  5
12
330
9
100
AcDbSymbolTableRecord
100
AcDbRegAppTableRecord
  2
ACAD
 70
     0
  0
ENDTAB
  0
TABLE
  2
DIMSTYLE
  5
A
330
0
100
AcDbSymbolTable
 70
     1
  0
DIMSTYLE
105
27
330
A
100
AcDbSymbolTableRecord
100
AcDbDimStyleTableRecord
  2
ISO-25
 70
     0
  3

  4

  5

  6

  7

 40
1.0
 41
2.5
 42
0.625
 43
3.75
 44
1.25
 45
0.0
 46
0.0
 47
0.0
 48
0.0
140
2.5
141
2.5
142
0.0
143
0.03937007874016
144
1.0
145
0.0
146
1.0
147
0.625
 71
     0
 72
     0
 73
     0
 74
     0
 75
     0
 76
     0
 77
     1
 78
     8
170
     0
171
     3
172
     1
173
     0
174
     0
175
     0
176
     0
177
     0
178
     0
270
     2
271
     2
272
     2
273
     2
274
     3
340
11
275
     0
280
     0
281
     0
282
     0
283
     0
284
     8
285
     0
286
     0
287
     3
288
     0
  0
ENDTAB
  0
TABLE
  2
BLOCK_RECORD
  5
1
330
0
100
AcDbSymbolTable
 70
     1
  0
BLOCK_RECORD
  5
1F
330
1
100
AcDbSymbolTableRecord
100
AcDbBlockTableRecord
  2
*MODEL_SPACE
  0
BLOCK_RECORD
  5
1B
330
1
100
AcDbSymbolTableRecord
100
AcDbBlockTableRecord
  2
*PAPER_SPACE
  0
ENDTAB
  0
ENDSEC
  0
SECTION
  2
BLOCKS
  0
BLOCK
  5
20
330
1F
100
AcDbEntity
  8
0
100
AcDbBlockBegin
  2
*MODEL_SPACE
 70
     0
 10
0.0
 20
0.0
 30
0.0
  3
*MODEL_SPACE
  1

  0
ENDBLK
  5
21
330
1F
100
AcDbEntity
  8
0
100
AcDbBlockEnd
  0
BLOCK
  5
1C
330
1B
100
AcDbEntity
 67
     1
  8
0
100
AcDbBlockBegin
  2
*PAPER_SPACE
  1

  0
ENDBLK
  5
1D
330
1B
100
AcDbEntity
 67
     1
  8
0
100
AcDbBlockEnd
  0
ENDSEC
  0
SECTION
  2
ENTITIES
  0
SPLINE
  5
100
100
AcDbEntity
  8
Layer_1
 62
5
100
AcDbSpline
 70
0
 71
3
 72
10
 73
6
 74
4
 40
0.000000
 40
0.000000
 40
0.000000
 40
0.000000
 40
2.091441
 40
4.120851
 40
6.212292
 40
6.212292
 40
6.212292
 40
6.212292
 10
96.296606
 20
209.486636
 30
0.0
 10
96.406627
 20
210.187541
 30
0.0
 10
96.623406
 20
211.568562
 30
0.0
 10
98.214693
 20
213.159843
 30
0.0
 10
99.595715
 20
213.376617
 30
0.0
 10
100.296620
 20
213.486636
 30
0.0
 11
96.296606
 21
209.486636
 31
0.0
 11
96.842726
 21
211.505517
 31
0.0
 11
98.277738
 21
212.940523
 31
0.0
 11
100.296620
 21
213.486636
 31
0.0
  0
LINE
  5
101
100
AcDbEntity
  8
Layer_1
 62
5
100
AcDbLine
 10
380.046490
 20
209.486216
 30
0.0
 11
380.046490
 21
173.862720
 31
0.0
  0
LINE
  5
102
100
AcDbEntity
  8
Layer_1
 62
5
100
AcDbLine
 10
380.046490
 20
173.862720
 30
0.0
 11
380.046620
 21
169.861880
 31
0.0
  0
SPLINE
  5
103
100
AcDbEntity
  8
Layer_1
 62
5
100
AcDbSpline
 70
0
 71
3
 72
10
 73
6
 74
4
 40
0.000000
 40
0.000000
 40
0.000000
 40
0.000000
 40
2.091437
 40
4.120842
 40
6.212278
 40
6.212278
 40
6.212278
 40
6.212278
 10
376.046620
 20
213.486636
 30
0.0
 10
376.747523
 20
213.376615
 30
0.0
 10
378.128542
 20
213.159837
 30
0.0
 10
379.719821
 20
211.568557
 30
0.0
 10
379.936599
 20
210.187539
 30
0.0
 10
380.046620
 20
209.486636
 30
0.0
 11
376.046620
 21
213.486636
 31
0.0
 11
378.065497
 21
212.940519
 31
0.0
 11
379.500503
 21
211.505513
 31
0.0
 11
380.046620
 21
209.486636
 31
0.0
  0
LINE
  5
104
100
AcDbEntity
  8
Layer_1
 62
5
100
AcDbLine
 10
376.046620
 20
165.861860
 30
0.0
 11
100.296620
 21
165.858860
 31
0.0
  0
SPLINE
  5
105
100
AcDbEntity
  8
Layer_1
 62
5
100
AcDbSpline
 70
0
 71
3
 72
10
 73
6
 74
4
 40
0.000000
 40
0.000000
 40
0.000000
 40
0.000000
 40
2.091444
 40
4.120855
 40
6.212299
 40
6.212299
 40
6.212299
 40
6.212299
 10
380.046620
 20
169.861880
 30
0.0
 10
379.936602
 20
169.160973
 30
0.0
 10
379.719830
 20
167.779950
 30
0.0
 10
378.128549
 20
166.188660
 30
0.0
 10
376.747526
 20
165.971881
 30
0.0
 10
376.046620
 20
165.861860
 30
0.0
 11
380.046620
 21
169.861880
 31
0.0
 11
379.500510
 21
167.842993
 31
0.0
 11
378.065504
 21
166.407980
 31
0.0
 11
376.046620
 21
165.861860
 31
0.0
  0
LINE
  5
106
100
AcDbEntity
  8
Layer_1
 62
5
100
AcDbLine
 10
96.296606
 20
169.858880
 30
0.0
 11
96.296736
 21
173.862250
 31
0.0
  0
LINE
  5
107
100
AcDbEntity
  8
Layer_1
 62
5
100
AcDbLine
 10
96.296736
 20
173.862250
 30
0.0
 11
96.296736
 21
209.486216
 31
0.0
  0
SPLINE
  5
108
100
AcDbEntity
  8
Layer_1
 62
5
100
AcDbSpline
 70
0
 71
3
 72
10
 73
6
 74
4
 40
0.000000
 40
0.000000
 40
0.000000
 40
0.000000
 40
2.091448
 40
4.120864
 40
6.212311
 40
6.212311
 40
6.212311
 40
6.212311
 10
100.296620
 20
165.858860
 30
0.0
 10
99.595712
 20
165.968879
 30
0.0
 10
98.214686
 20
166.185654
 30
0.0
 10
96.623398
 20
167.776946
 30
0.0
 10
96.406625
 20
169.157973
 30
0.0
 10
96.296606
 20
169.858880
 30
0.0
 11
100.296620
 21
165.858860
 31
0.0
 11
98.277732
 21
166.404976
 31
0.0
 11
96.842719
 21
167.839991
 31
0.0
 11
96.296606
 21
169.858880
 31
0.0
  0
SPLINE
  5
109
100
AcDbEntity
  8
Layer_1
 62
5
100
AcDbSpline
 70
0
 71
3
 72
10
 73
6
 74
4
 40
0.000000
 40
0.000000
 40
0.000000
 40
0.000000
 40
2.314906
 40
4.481468
 40
6.794515
 40
6.794515
 40
6.794515
 40
6.794515
 10
354.721620
 20
209.486636
 30
0.0
 10
354.462326
 20
208.682034
 30
0.0
 10
353.960353
 20
207.124392
 30
0.0
 10
350.979400
 20
207.123682
 30
0.0
 10
350.479661
 20
208.681999
 30
0.0
 10
350.221620
 20
209.486636
 30
0.0
 11
354.721620
 21
209.486636
 31
0.0
 11
353.553058
 21
207.488324
 31
0.0
 11
351.386496
 21
207.488324
 31
0.0
 11
350.221620
 21
209.486636
 31
0.0
  0
LINE
  5
10a
100
AcDbEntity
  8
Layer_1
 62
5
100
AcDbLine
 10
354.721620
 20
209.486636
 30
0.0
 11
354.721620
 21
209.486636
 31
0.0
  0
SPLINE
  5
10b
100
AcDbEntity
  8
Layer_1
 62
5
100
AcDbSpline
 70
0
 71
3
 72
10
 73
6
 74
4
 40
0.000000
 40
0.000000
 40
0.000000
 40
0.000000
 40
2.314906
 40
4.481468
 40
6.794515
 40
6.794515
 40
6.794515
 40
6.794515
 10
350.221620
 20
209.486636
 30
0.0
 10
350.480914
 20
210.291238
 30
0.0
 10
350.982887
 20
211.848880
 30
0.0
 10
353.963840
 20
211.849590
 30
0.0
 10
354.463579
 20
210.291273
 30
0.0
 10
354.721620
 20
209.486636
 30
0.0
 11
350.221620
 21
209.486636
 31
0.0
 11
351.390182
 21
211.484948
 31
0.0
 11
353.556744
 21
211.484948
 31
0.0
 11
354.721620
 21
209.486636
 31
0.0
  0
LINE
  5
10c
100
AcDbEntity
  8
Layer_1
 62
5
100
AcDbLine
 10
101.246620
 20
209.486636
 30
0.0
 11
101.246620
 21
209.486636
 31
0.0
  0
SPLINE
  5
10d
100
AcDbEntity
  8
Layer_1
 62
5
100
AcDbSpline
 70
0
 71
3
 72
13
 73
9
 74
7
 40
0.000000
 40
0.000000
 40
0.000000
 40
0.000000
 40
0.977623
 40
1.892445
 40
2.870068
 40
3.847691
 40
4.762512
 40
5.740135
 40
5.740135
 40
5.740135
 40
5.740135
 10
101.246620
 20
209.486636
 30
0.0
 10
101.133299
 20
209.146599
 30
0.0
 10
100.913938
 20
208.488369
 30
0.0
 10
99.713844
 20
208.488369
 30
0.0
 10
99.156893
 20
209.486636
 30
0.0
 10
99.713844
 20
210.484903
 30
0.0
 10
100.913938
 20
210.484903
 30
0.0
 10
101.133299
 20
209.826673
 30
0.0
 10
101.246620
 20
209.486636
 30
0.0
 11
101.246620
 21
209.486636
 31
0.0
 11
100.754024
 21
208.642186
 31
0.0
 11
99.839202
 21
208.642186
 31
0.0
 11
99.346606
 21
209.486636
 31
0.0
 11
99.839202
 21
210.331086
 31
0.0
 11
100.754024
 21
210.331086
 31
0.0
 11
101.246620
 21
209.486636
 31
0.0
  0
LINE
  5
10e
100
AcDbEntity
  8
Layer_1
 62
5
100
AcDbLine
 10
376.996620
 20
209.486636
 30
0.0
 11
376.996620
 21
209.486636
 31
0.0
  0
SPLINE
  5
10f
100
AcDbEntity
  8
Layer_1
 62
5
100
AcDbSpline
 70
0
 71
3
 72
13
 73
9
 74
7
 40
0.000000
 40
0.000000
 40
0.000000
 40
0.000000
 40
0.977616
 40
1.892431
 40
2.870047
 40
3.847663
 40
4.762478
 40
5.740094
 40
5.740094
 40
5.740094
 40
5.740094
 10
376.996620
 20
209.486636
 30
0.0
 10
376.883300
 20
209.146602
 30
0.0
 10
376.663940
 20
208.488376
 30
0.0
 10
375.463856
 20
208.488376
 30
0.0
 10
374.906909
 20
209.486636
 30
0.0
 10
375.463856
 20
210.484896
 30
0.0
 10
376.663940
 20
210.484896
 30
0.0
 10
376.883300
 20
209.826670
 30
0.0
 10
376.996620
 20
209.486636
 30
0.0
 11
376.996620
 21
209.486636
 31
0.0
 11
376.504027
 21
208.642192
 31
0.0
 11
375.589213
 21
208.642192
 31
0.0
 11
375.096620
 21
209.486636
 31
0.0
 11
375.589213
 21
210.331080
 31
0.0
 11
376.504027
 21
210.331080
 31
0.0
 11
376.996620
 21
209.486636
 31
0.0
  0
SPLINE
  5
110
100
AcDbEntity
  8
Layer_1
 62
5
100
AcDbSpline
 70
0
 71
3
 72
10
 73
6
 74
4
 40
0.000000
 40
0.000000
 40
0.000000
 40
0.000000
 40
2.314906
 40
4.481468
 40
6.794515
 40
6.794515
 40
6.794515
 40
6.794515
 10
126.121620
 20
209.486636
 30
0.0
 10
125.862326
 20
208.682034
 30
0.0
 10
125.360353
 20
207.124392
 30
0.0
 10
122.379400
 20
207.123682
 30
0.0
 10
121.879661
 20
208.681999
 30
0.0
 10
121.621620
 20
209.486636
 30
0.0
 11
126.121620
 21
209.486636
 31
0.0
 11
124.953058
 21
207.488324
 31
0.0
 11
122.786496
 21
207.488324
 31
0.0
 11
121.621620
 21
209.486636
 31
0.0
  0
LINE
  5
111
100
AcDbEntity
  8
Layer_1
 62
5
100
AcDbLine
 10
126.121620
 20
209.486636
 30
0.0
 11
126.121620
 21
209.486636
 31
0.0
  0
SPLINE
  5
112
100
AcDbEntity
  8
Layer_1
 62
5
100
AcDbSpline
 70
0
 71
3
 72
10
 73
6
 74
4
 40
0.000000
 40
0.000000
 40
0.000000
 40
0.000000
 40
2.314906
 40
4.481468
 40
6.794515
 40
6.794515
 40
6.794515
 40
6.794515
 10
121.621620
 20
209.486636
 30
0.0
 10
121.880914
 20
210.291238
 30
0.0
 10
122.382887
 20
211.848880
 30
0.0
 10
125.363840
 20
211.849590
 30
0.0
 10
125.863579
 20
210.291273
 30
0.0
 10
126.121620
 20
209.486636
 30
0.0
 11
121.621620
 21
209.486636
 31
0.0
 11
122.790182
 21
211.484948
 31
0.0
 11
124.956744
 21
211.484948
 31
0.0
 11
126.121620
 21
209.486636
 31
0.0
  0
LINE
  5
113
100
AcDbEntity
  8
Layer_1
 62
5
100
AcDbLine
 10
239.121620
 20
209.486636
 30
0.0
 11
239.121620
 21
209.486636
 31
0.0
  0
SPLINE
  5
114
100
AcDbEntity
  8
Layer_1
 62
5
100
AcDbSpline
 70
0
 71
3
 72
13
 73
9
 74
7
 40
0.000000
 40
0.000000
 40
0.000000
 40
0.000000
 40
0.977616
 40
1.892431
 40
2.870047
 40
3.847663
 40
4.762478
 40
5.740094
 40
5.740094
 40
5.740094
 40
5.740094
 10
239.121620
 20
209.486636
 30
0.0
 10
239.008300
 20
209.146602
 30
0.0
 10
238.788940
 20
208.488376
 30
0.0
 10
237.588856
 20
208.488376
 30
0.0
 10
237.031909
 20
209.486636
 30
0.0
 10
237.588856
 20
210.484896
 30
0.0
 10
238.788940
 20
210.484896
 30
0.0
 10
239.008300
 20
209.826670
 30
0.0
 10
239.121620
 20
209.486636
 30
0.0
 11
239.121620
 21
209.486636
 31
0.0
 11
238.629027
 21
208.642192
 31
0.0
 11
237.714213
 21
208.642192
 31
0.0
 11
237.221620
 21
209.486636
 31
0.0
 11
237.714213
 21
210.331080
 31
0.0
 11
238.629027
 21
210.331080
 31
0.0
 11
239.121620
 21
209.486636
 31
0.0
  0
LINE
  5
115
100
AcDbEntity
  8
Layer_1
 62
5
100
AcDbLine
 10
376.985840
 20
181.003540
 30
0.0
 11
376.985840
 21
181.003540
 31
0.0
  0
SPLINE
  5
116
100
AcDbEntity
  8
Layer_1
 62
5
100
AcDbSpline
 70
0
 71
3
 72
13
 73
9
 74
7
 40
0.000000
 40
0.000000
 40
0.000000
 40
0.000000
 40
0.977618
 40
1.892433
 40
2.870052
 40
3.847670
 40
4.762485
 40
5.740103
 40
5.740103
 40
5.740103
 40
5.740103
 10
376.985840
 20
181.003540
 30
0.0
 10
376.872521
 20
180.663504
 30
0.0
 10
376.653162
 20
180.005278
 30
0.0
 10
375.453074
 20
180.005278
 30
0.0
 10
374.896129
 20
181.003540
 30
0.0
 10
375.453074
 20
182.001802
 30
0.0
 10
376.653162
 20
182.001802
 30
0.0
 10
376.872521
 20
181.343576
 30
0.0
 10
376.985840
 20
181.003540
 30
0.0
 11
376.985840
 21
181.003540
 31
0.0
 11
376.493247
 21
180.159093
 31
0.0
 11
375.578433
 21
180.159093
 31
0.0
 11
375.085840
 21
181.003540
 31
0.0
 11
375.578433
 21
181.847987
 31
0.0
 11
376.493247
 21
181.847987
 31
0.0
 11
376.985840
 21
181.003540
 31
0.0
  0
SPLINE
  5
117
100
AcDbEntity
  8
Layer_1
 62
5
100
AcDbSpline
 70
0
 71
3
 72
10
 73
6
 74
4
 40
0.000000
 40
0.000000
 40
0.000000
 40
0.000000
 40
0.976098
 40
1.889539
 40
2.865696
 40
2.865696
 40
2.865696
 40
2.865696
 10
101.235840
 20
181.003540
 30
0.0
 10
101.126258
 20
180.664361
 30
0.0
 10
100.914127
 20
180.007776
 30
0.0
 10
99.657668
 20
180.007798
 30
0.0
 10
99.445467
 20
180.664362
 30
0.0
 10
99.335845
 20
181.003540
 30
0.0
 11
101.235840
 21
181.003540
 31
0.0
 11
100.742621
 21
180.161220
 31
0.0
 11
99.829181
 21
180.161220
 31
0.0
 11
99.335845
 21
181.003540
 31
0.0
  0
LINE
  5
118
100
AcDbEntity
  8
Layer_1
 62
5
100
AcDbLine
 10
101.235840
 20
181.003540
 30
0.0
 11
101.235840
 21
181.003540
 31
0.0
  0
SPLINE
  5
119
100
AcDbEntity
  8
Layer_1
 62
5
100
AcDbSpline
 70
0
 71
3
 72
10
 73
6
 74
4
 40
0.000000
 40
0.000000
 40
0.000000
 40
0.000000
 40
0.976143
 40
1.889537
 40
2.865673
 40
2.865673
 40
2.865673
 40
2.865673
 10
99.335845
 20
181.003540
 30
0.0
 10
99.445457
 20
181.342721
 30
0.0
 10
99.657636
 20
181.999279
 30
0.0
 10
100.914062
 20
181.999281
 30
0.0
 10
101.126232
 20
181.342721
 30
0.0
 10
101.235840
 20
181.003540
 30
0.0
 11
99.335845
 21
181.003540
 31
0.0
 11
99.829152
 21
181.845860
 31
0.0
 11
100.742546
 21
181.845860
 31
0.0
 11
101.235840
 21
181.003540
 31
0.0
  0
LINE
  5
11a
100
AcDbEntity
  8
Layer_1
 62
1
100
AcDbLine
 10
136.842540
 20
202.502198
 30
0.0
 11
136.842540
 21
202.502198
 31
0.0
  0
SPLINE
  5
11b
100
AcDbEntity
  8
Layer_1
 62
1
100
AcDbSpline
 70
0
 71
3
 72
25
 73
21
 74
19
 40
0.000000
 40
0.000000
 40
0.000000
 40
0.000000
 40
0.331516
 40
0.658287
 40
0.989803
 40
1.321319
 40
1.648091
 40
1.979606
 40
2.311122
 40
2.637894
 40
2.969410
 40
3.300926
 40
3.627697
 40
3.959213
 40
4.290729
 40
4.617500
 40
4.949016
 40
5.280532
 40
5.607303
 40
5.938819
 40
5.938819
 40
5.938819
 40
5.938819
 10
136.842540
 20
202.502198
 30
0.0
 10
136.831189
 20
202.391129
 30
0.0
 10
136.808651
 20
202.170581
 30
0.0
 10
136.633787
 20
201.879123
 30
0.0
 10
136.377758
 20
201.662432
 30
0.0
 10
136.060714
 20
201.547506
 30
0.0
 10
135.724294
 20
201.547506
 30
0.0
 10
135.407693
 20
201.662432
 30
0.0
 10
135.149891
 20
201.879123
 30
0.0
 10
134.981615
 20
202.170581
 30
0.0
 10
134.922862
 20
202.502198
 30
0.0
 10
134.981615
 20
202.833815
 30
0.0
 10
135.149891
 20
203.125273
 30
0.0
 10
135.407693
 20
203.341964
 30
0.0
 10
135.724294
 20
203.456890
 30
0.0
 10
136.060714
 20
203.456890
 30
0.0
 10
136.377758
 20
203.341964
 30
0.0
 10
136.633787
 20
203.125273
 30
0.0
 10
136.808651
 20
202.833815
 30
0.0
 10
136.831189
 20
202.613267
 30
0.0
 10
136.842540
 20
202.502198
 30
0.0
 11
136.842540
 21
202.502198
 31
0.0
 11
136.784710
 21
202.175765
 31
0.0
 11
136.621324
 21
201.892773
 31
0.0
 11
136.367540
 21
201.679474
 31
0.0
 11
136.055926
 21
201.566340
 31
0.0
 11
135.729154
 21
201.566340
 31
0.0
 11
135.417540
 21
201.679474
 31
0.0
 11
135.163756
 21
201.892773
 31
0.0
 11
135.000370
 21
202.175765
 31
0.0
 11
134.942540
 21
202.502198
 31
0.0
 11
135.000370
 21
202.828631
 31
0.0
 11
135.163756
 21
203.111623
 31
0.0
 11
135.417540
 21
203.324922
 31
0.0
 11
135.729154
 21
203.438056
 31
0.0
 11
136.055926
 21
203.438056
 31
0.0
 11
136.367540
 21
203.324922
 31
0.0
 11
136.621324
 21
203.111623
 31
0.0
 11
136.784710
 21
202.828631
 31
0.0
 11
136.842540
 21
202.502198
 31
0.0
  0
LINE
  5
11c
100
AcDbEntity
  8
Layer_1
 62
1
100
AcDbLine
 10
136.842540
 20
188.502200
 30
0.0
 11
136.842540
 21
188.502200
 31
0.0
  0
SPLINE
  5
11d
100
AcDbEntity
  8
Layer_1
 62
1
100
AcDbSpline
 70
0
 71
3
 72
25
 73
21
 74
19
 40
0.000000
 40
0.000000
 40
0.000000
 40
0.000000
 40
0.331516
 40
0.658287
 40
0.989803
 40
1.321319
 40
1.648091
 40
1.979606
 40
2.311122
 40
2.637894
 40
2.969410
 40
3.300926
 40
3.627697
 40
3.959213
 40
4.290729
 40
4.617500
 40
4.949016
 40
5.280532
 40
5.607303
 40
5.938819
 40
5.938819
 40
5.938819
 40
5.938819
 10
136.842540
 20
188.502200
 30
0.0
 10
136.831189
 20
188.391131
 30
0.0
 10
136.808651
 20
188.170583
 30
0.0
 10
136.633787
 20
187.879125
 30
0.0
 10
136.377758
 20
187.662434
 30
0.0
 10
136.060714
 20
187.547508
 30
0.0
 10
135.724294
 20
187.547508
 30
0.0
 10
135.407693
 20
187.662434
 30
0.0
 10
135.149891
 20
187.879125
 30
0.0
 10
134.981615
 20
188.170583
 30
0.0
 10
134.922862
 20
188.502200
 30
0.0
 10
134.981615
 20
188.833817
 30
0.0
 10
135.149891
 20
189.125275
 30
0.0
 10
135.407693
 20
189.341966
 30
0.0
 10
135.724294
 20
189.456892
 30
0.0
 10
136.060714
 20
189.456892
 30
0.0
 10
136.377758
 20
189.341966
 30
0.0
 10
136.633787
 20
189.125275
 30
0.0
 10
136.808651
 20
188.833817
 30
0.0
 10
136.831189
 20
188.613269
 30
0.0
 10
136.842540
 20
188.502200
 30
0.0
 11
136.842540
 21
188.502200
 31
0.0
 11
136.784710
 21
188.175767
 31
0.0
 11
136.621324
 21
187.892775
 31
0.0
 11
136.367540
 21
187.679476
 31
0.0
 11
136.055926
 21
187.566342
 31
0.0
 11
135.729154
 21
187.566342
 31
0.0
 11
135.417540
 21
187.679476
 31
0.0
 11
135.163756
 21
187.892775
 31
0.0
 11
135.000370
 21
188.175767
 31
0.0
 11
134.942540
 21
188.502200
 31
0.0
 11
135.000370
 21
188.828633
 31
0.0
 11
135.163756
 21
189.111625
 31
0.0
 11
135.417540
 21
189.324924
 31
0.0
 11
135.729154
 21
189.438058
 31
0.0
 11
136.055926
 21
189.438058
 31
0.0
 11
136.367540
 21
189.324924
 31
0.0
 11
136.621324
 21
189.111625
 31
0.0
 11
136.784710
 21
188.828633
 31
0.0
 11
136.842540
 21
188.502200
 31
0.0
  0
LINE
  5
11e
100
AcDbEntity
  8
Layer_1
 62
1
100
AcDbLine
 10
150.842540
 20
202.502198
 30
0.0
 11
150.842540
 21
202.502198
 31
0.0
  0
SPLINE
  5
11f
100
AcDbEntity
  8
Layer_1
 62
1
100
AcDbSpline
 70
0
 71
3
 72
25
 73
21
 74
19
 40
0.000000
 40
0.000000
 40
0.000000
 40
0.000000
 40
0.331516
 40
0.658287
 40
0.989803
 40
1.321319
 40
1.648091
 40
1.979606
 40
2.311122
 40
2.637894
 40
2.969410
 40
3.300926
 40
3.627697
 40
3.959213
 40
4.290729
 40
4.617500
 40
4.949016
 40
5.280532
 40
5.607303
 40
5.938819
 40
5.938819
 40
5.938819
 40
5.938819
 10
150.842540
 20
202.502198
 30
0.0
 10
150.831189
 20
202.391129
 30
0.0
 10
150.808651
 20
202.170581
 30
0.0
 10
150.633787
 20
201.879123
 30
0.0
 10
150.377758
 20
201.662432
 30
0.0
 10
150.060714
 20
201.547506
 30
0.0
 10
149.724294
 20
201.547506
 30
0.0
 10
149.407693
 20
201.662432
 30
0.0
 10
149.149891
 20
201.879123
 30
0.0
 10
148.981615
 20
202.170581
 30
0.0
 10
148.922862
 20
202.502198
 30
0.0
 10
148.981615
 20
202.833815
 30
0.0
 10
149.149891
 20
203.125273
 30
0.0
 10
149.407693
 20
203.341964
 30
0.0
 10
149.724294
 20
203.456890
 30
0.0
 10
150.060714
 20
203.456890
 30
0.0
 10
150.377758
 20
203.341964
 30
0.0
 10
150.633787
 20
203.125273
 30
0.0
 10
150.808651
 20
202.833815
 30
0.0
 10
150.831189
 20
202.613267
 30
0.0
 10
150.842540
 20
202.502198
 30
0.0
 11
150.842540
 21
202.502198
 31
0.0
 11
150.784710
 21
202.175765
 31
0.0
 11
150.621324
 21
201.892773
 31
0.0
 11
150.367540
 21
201.679474
 31
0.0
 11
150.055926
 21
201.566340
 31
0.0
 11
149.729154
 21
201.566340
 31
0.0
 11
149.417540
 21
201.679474
 31
0.0
 11
149.163756
 21
201.892773
 31
0.0
 11
149.000370
 21
202.175765
 31
0.0
 11
148.942540
 21
202.502198
 31
0.0
 11
149.000370
 21
202.828631
 31
0.0
 11
149.163756
 21
203.111623
 31
0.0
 11
149.417540
 21
203.324922
 31
0.0
 11
149.729154
 21
203.438056
 31
0.0
 11
150.055926
 21
203.438056
 31
0.0
 11
150.367540
 21
203.324922
 31
0.0
 11
150.621324
 21
203.111623
 31
0.0
 11
150.784710
 21
202.828631
 31
0.0
 11
150.842540
 21
202.502198
 31
0.0
  0
LINE
  5
120
100
AcDbEntity
  8
Layer_1
 62
1
100
AcDbLine
 10
150.842540
 20
188.502200
 30
0.0
 11
150.842540
 21
188.502200
 31
0.0
  0
SPLINE
  5
121
100
AcDbEntity
  8
Layer_1
 62
1
100
AcDbSpline
 70
0
 71
3
 72
25
 73
21
 74
19
 40
0.000000
 40
0.000000
 40
0.000000
 40
0.000000
 40
0.331516
 40
0.658287
 40
0.989803
 40
1.321319
 40
1.648091
 40
1.979606
 40
2.311122
 40
2.637894
 40
2.969410
 40
3.300926
 40
3.627697
 40
3.959213
 40
4.290729
 40
4.617500
 40
4.949016
 40
5.280532
 40
5.607303
 40
5.938819
 40
5.938819
 40
5.938819
 40
5.938819
 10
150.842540
 20
188.502200
 30
0.0
 10
150.831189
 20
188.391131
 30
0.0
 10
150.808651
 20
188.170583
 30
0.0
 10
150.633787
 20
187.879125
 30
0.0
 10
150.377758
 20
187.662434
 30
0.0
 10
150.060714
 20
187.547508
 30
0.0
 10
149.724294
 20
187.547508
 30
0.0
 10
149.407693
 20
187.662434
 30
0.0
 10
149.149891
 20
187.879125
 30
0.0
 10
148.981615
 20
188.170583
 30
0.0
 10
148.922862
 20
188.502200
 30
0.0
 10
148.981615
 20
188.833817
 30
0.0
 10
149.149891
 20
189.125275
 30
0.0
 10
149.407693
 20
189.341966
 30
0.0
 10
149.724294
 20
189.456892
 30
0.0
 10
150.060714
 20
189.456892
 30
0.0
 10
150.377758
 20
189.341966
 30
0.0
 10
150.633787
 20
189.125275
 30
0.0
 10
150.808651
 20
188.833817
 30
0.0
 10
150.831189
 20
188.613269
 30
0.0
 10
150.842540
 20
188.502200
 30
0.0
 11
150.842540
 21
188.502200
 31
0.0
 11
150.784710
 21
188.175767
 31
0.0
 11
150.621324
 21
187.892775
 31
0.0
 11
150.367540
 21
187.679476
 31
0.0
 11
150.055926
 21
187.566342
 31
0.0
 11
149.729154
 21
187.566342
 31
0.0
 11
149.417540
 21
187.679476
 31
0.0
 11
149.163756
 21
187.892775
 31
0.0
 11
149.000370
 21
188.175767
 31
0.0
 11
148.942540
 21
188.502200
 31
0.0
 11
149.000370
 21
188.828633
 31
0.0
 11
149.163756
 21
189.111625
 31
0.0
 11
149.417540
 21
189.324924
 31
0.0
 11
149.729154
 21
189.438058
 31
0.0
 11
150.055926
 21
189.438058
 31
0.0
 11
150.367540
 21
189.324924
 31
0.0
 11
150.621324
 21
189.111625
 31
0.0
 11
150.784710
 21
188.828633
 31
0.0
 11
150.842540
 21
188.502200
 31
0.0
  0
LINE
  5
122
100
AcDbEntity
  8
Layer_1
 62
1
100
AcDbLine
 10
132.405410
 20
213.501149
 30
0.0
 11
100.296720
 21
213.486719
 31
0.0
  0
LINE
  5
123
100
AcDbEntity
  8
Layer_1
 62
1
100
AcDbLine
 10
100.296720
 20
213.486719
 30
0.0
 11
131.721160
 21
213.486719
 31
0.0
  0
SPLINE
  5
124
100
AcDbEntity
  8
Layer_1
 62
1
100
AcDbSpline
 70
0
 71
3
 72
13
 73
9
 74
7
 40
0.000000
 40
0.000000
 40
0.000000
 40
0.000000
 40
1.045721
 40
2.060429
 40
3.106148
 40
4.151869
 40
5.166577
 40
6.212298
 40
6.212298
 40
6.212298
 40
6.212298
 10
132.405410
 20
213.501148
 30
0.0
 10
132.757978
 20
213.432661
 30
0.0
 10
133.452657
 20
213.297717
 30
0.0
 10
134.217443
 20
212.698656
 30
0.0
 10
134.500808
 20
210.893366
 30
0.0
 10
134.217443
 20
212.698657
 30
0.0
 10
133.452657
 20
213.297718
 30
0.0
 10
132.757978
 20
213.432662
 30
0.0
 10
132.405410
 20
213.501149
 30
0.0
 11
132.405410
 21
213.501148
 31
0.0
 11
133.414851
 21
213.228087
 31
0.0
 11
134.132356
 21
212.510579
 31
0.0
 11
134.405410
 21
211.501138
 31
0.0
 11
134.132356
 21
212.510580
 31
0.0
 11
133.414851
 21
213.228088
 31
0.0
 11
132.405410
 21
213.501149
 31
0.0
  0
LINE
  5
125
100
AcDbEntity
  8
Layer_1
 62
1
100
AcDbLine
 10
136.406080
 20
205.778899
 30
0.0
 11
149.404640
 21
205.778899
 31
0.0
  0
SPLINE
  5
126
100
AcDbEntity
  8
Layer_1
 62
1
100
AcDbSpline
 70
0
 71
3
 72
13
 73
9
 74
7
 40
0.000000
 40
0.000000
 40
0.000000
 40
0.000000
 40
1.045721
 40
2.060429
 40
3.106148
 40
4.151869
 40
5.166577
 40
6.212298
 40
6.212298
 40
6.212298
 40
6.212298
 10
136.406080
 20
205.778900
 30
0.0
 10
136.053512
 20
205.847387
 30
0.0
 10
135.358833
 20
205.982331
 30
0.0
 10
134.594047
 20
206.581392
 30
0.0
 10
134.310682
 20
208.386682
 30
0.0
 10
134.594047
 20
206.581391
 30
0.0
 10
135.358833
 20
205.982330
 30
0.0
 10
136.053512
 20
205.847386
 30
0.0
 10
136.406080
 20
205.778899
 30
0.0
 11
136.406080
 21
205.778900
 31
0.0
 11
135.396639
 21
206.051961
 31
0.0
 11
134.679134
 21
206.769469
 31
0.0
 11
134.406080
 21
207.778910
 31
0.0
 11
134.679134
 21
206.769468
 31
0.0
 11
135.396639
 21
206.051960
 31
0.0
 11
136.406080
 21
205.778899
 31
0.0
  0
SPLINE
  5
127
100
AcDbEntity
  8
Layer_1
 62
1
100
AcDbSpline
 70
0
 71
3
 72
10
 73
6
 74
4
 40
0.000000
 40
0.000000
 40
0.000000
 40
0.000000
 40
1.045721
 40
2.060429
 40
3.106148
 40
3.106148
 40
3.106148
 40
3.106148
 10
149.404640
 20
205.778899
 30
0.0
 10
149.755092
 20
205.833910
 30
0.0
 10
150.445604
 20
205.942301
 30
0.0
 10
151.241246
 20
206.737944
 30
0.0
 10
151.349631
 20
207.428456
 30
0.0
 10
151.404640
 20
207.778909
 30
0.0
 11
149.404640
 21
205.778899
 31
0.0
 11
150.414081
 21
206.051960
 31
0.0
 11
151.131586
 21
206.769468
 31
0.0
 11
151.404640
 21
207.778909
 31
0.0
  0
LINE
  5
128
100
AcDbEntity
  8
Layer_1
 62
1
100
AcDbLine
 10
151.405743
 20
207.774137
 30
0.0
 11
151.405743
 21
211.501290
 31
0.0
  0
SPLINE
  5
129
100
AcDbEntity
  8
Layer_1
 62
1
100
AcDbSpline
 70
0
 71
3
 72
10
 73
6
 74
4
 40
0.000000
 40
0.000000
 40
0.000000
 40
0.000000
 40
1.045721
 40
2.060429
 40
3.106148
 40
3.106148
 40
3.106148
 40
3.106148
 10
149.404640
 20
205.778900
 30
0.0
 10
149.755092
 20
205.833911
 30
0.0
 10
150.445604
 20
205.942302
 30
0.0
 10
151.241246
 20
206.737945
 30
0.0
 10
151.349631
 20
207.428457
 30
0.0
 10
151.404640
 20
207.778910
 30
0.0
 11
149.404640
 21
205.778900
 31
0.0
 11
150.414081
 21
206.051961
 31
0.0
 11
151.131586
 21
206.769469
 31
0.0
 11
151.404640
 21
207.778910
 31
0.0
  0
LINE
  5
12a
100
AcDbEntity
  8
Layer_1
 62
1
100
AcDbLine
 10
153.405668
 20
213.501460
 30
0.0
 11
154.376370
 21
213.486960
 31
0.0
  0
LINE
  5
12b
100
AcDbEntity
  8
Layer_1
 62
1
100
AcDbLine
 10
154.376370
 20
213.486960
 30
0.0
 11
376.046780
 21
213.486960
 31
0.0
  0
LINE
  5
12c
100
AcDbEntity
  8
Layer_1
 62
1
100
AcDbLine
 10
134.405735
 20
211.513690
 30
0.0
 11
134.405735
 21
207.742290
 31
0.0
  0
SPLINE
  5
12d
100
AcDbEntity
  8
Layer_1
 62
1
100
AcDbSpline
 70
0
 71
3
 72
10
 73
6
 74
4
 40
0.000000
 40
0.000000
 40
0.000000
 40
0.000000
 40
1.045720
 40
2.060426
 40
3.106147
 40
3.106147
 40
3.106147
 40
3.106147
 10
151.405669
 20
211.501450
 30
0.0
 10
151.460678
 20
211.851902
 30
0.0
 10
151.569064
 20
212.542414
 30
0.0
 10
152.364704
 20
213.338059
 30
0.0
 10
153.055215
 20
213.446449
 30
0.0
 10
153.405668
 20
213.501460
 30
0.0
 11
151.405669
 21
211.501450
 31
0.0
 11
151.678724
 21
212.510891
 31
0.0
 11
152.396227
 21
213.228399
 31
0.0
 11
153.405668
 21
213.501460
 31
0.0
  0
ENDSEC
  0
SECTION
  2
OBJECTS
  0
DICTIONARY
  5
C
330
0
100
AcDbDictionary
  3
ACAD_GROUP
350
D
  3
ACAD_MLINESTYLE
350
17
  0
DICTIONARY
  5
D
330
C
100
AcDbDictionary
  0
DICTIONARY
  5
1A
330
C
100
AcDbDictionary
  0
DICTIONARY
  5
17
330
C
100
AcDbDictionary
  3
STANDARD
350
18
  0
DICTIONARY
  5
19
330
C
100
AcDbDictionary
  0
ENDSEC
  0
EOF
