  0
SECTION
  2
HEADER
  9
$ACADVER
  1
AC1014
  9
$HANDSEED
  5
FFFF
  9
$INSUNITS
 70
     4
  9
$MEASUREMENT
 70
     1
  0
ENDSEC
  0
SECTION
  2
TABLES
  0
TABLE
  2
VPORT
  5
8
330
0
100
AcDbSymbolTable
 70
     4
  0
VPORT
  5
2E
330
8
100
AcDbSymbolTableRecord
100
AcDbViewportTableRecord
  2
*ACTIVE
 70
     0
 10
0.0
 20
0.0
 11
1.0
 21
1.0
 12
210.0
 22
148.5
 13
0.0
 23
0.0
 14
10.0
 24
10.0
 15
10.0
 25
10.0
 16
0.0
 26
0.0
 36
1.0
 17
0.0
 27
0.0
 37
0.0
 40
341.0
 41
1.24
 42
50.0
 43
0.0
 44
0.0
 50
0.0
 51
0.0
 71
     0
 72
   100
 73
     1
 74
     3
 75
     0
 76
     0
 77
     0
 78
     0
  0
ENDTAB
  0
TABLE
  2
LTYPE
  5
5
330
0
100
AcDbSymbolTable
 70
     1
  0
LTYPE
  5
14
330
5
100
AcDbSymbolTableRecord
100
AcDbLinetypeTableRecord
  2
BYBLOCK
 70
     0
  3

 72
    65
 73
     0
 40
0.0
  0
LTYPE
  5
15
330
5
100
AcDbSymbolTableRecord
100
AcDbLinetypeTableRecord
  2
BYLAYER
 70
     0
  3

 72
    65
 73
     0
 40
0.0
  0
LTYPE
  5
16
330
5
100
AcDbSymbolTableRecord
100
AcDbLinetypeTableRecord
  2
CONTINUOUS
 70
     0
  3
Solid line
 72
    65
 73
     0
 40
0.0
  0
ENDTAB
  0
TABLE
  2
LAYER
  5
2
100
AcDbSymbolTable
 70
2
  0
LAYER
  5
50
100
AcDbSymbolTableRecord
100
AcDbLayerTableRecord
  2
0
 70
0
  6
CONTINUOUS
  0
LAYER
  5
51
100
AcDbSymbolTableRecord
100
AcDbLayerTableRecord
  2
Layer_1
 70
0
  6
CONTINUOUS
  0
ENDTAB
  0
TABLE
  2
STYLE
  5
3
330
0
100
AcDbSymbolTable
 70
     1
  0
STYLE
  5
11
330
3
100
AcDbSymbolTableRecord
100
AcDbTextStyleTableRecord
  2
STANDARD
 70
     0
 40
0.0
 41
1.0
 50
0.0
 71
     0
 42
2.5
  3
txt
  4

  0
ENDTAB
  0
TABLE
  2
VIEW
  5
6
330
0
100
AcDbSymbolTable
 70
     0
  0
ENDTAB
  0
TABLE
  2
UCS
  5
7
330
0
100
AcDbSymbolTable
 70
     0
  0
ENDTAB
  0
TABLE
  2
APPID
  5
9
330
0
100
AcDbSymbolTable
 70
     2
  0
APPID
  5
12
330
9
100
AcDbSymbolTableRecord
100
AcDbRegAppTableRecord
  2
ACAD
 70
     0
  0
ENDTAB
  0
TABLE
  2
DIMSTYLE
  5
A
330
0
100
AcDbSymbolTable
 70
     1
  0
DIMSTYLE
105
27
330
A
100
AcDbSymbolTableRecord
100
AcDbDimStyleTableRecord
  2
ISO-25
 70
     0
  3

  4

  5

  6

  7

 40
1.0
 41
2.5
 42
0.625
 43
3.75
 44
1.25
 45
0.0
 46
0.0
 47
0.0
 48
0.0
140
2.5
141
2.5
142
0.0
143
0.03937007874016
144
1.0
145
0.0
146
1.0
147
0.625
 71
     0
 72
     0
 73
     0
 74
     0
 75
     0
 76
     0
 77
     1
 78
     8
170
     0
171
     3
172
     1
173
     0
174
     0
175
     0
176
     0
177
     0
178
     0
270
     2
271
     2
272
     2
273
     2
274
     3
340
11
275
     0
280
     0
281
     0
282
     0
283
     0
284
     8
285
     0
286
     0
287
     3
288
     0
  0
ENDTAB
  0
TABLE
  2
BLOCK_RECORD
  5
1
330
0
100
AcDbSymbolTable
 70
     1
  0
BLOCK_RECORD
  5
1F
330
1
100
AcDbSymbolTableRecord
100
AcDbBlockTableRecord
  2
*MODEL_SPACE
  0
BLOCK_RECORD
  5
1B
330
1
100
AcDbSymbolTableRecord
100
AcDbBlockTableRecord
  2
*PAPER_SPACE
  0
ENDTAB
  0
ENDSEC
  0
SECTION
  2
BLOCKS
  0
BLOCK
  5
20
330
1F
100
AcDbEntity
  8
0
100
AcDbBlockBegin
  2
*MODEL_SPACE
 70
     0
 10
0.0
 20
0.0
 30
0.0
  3
*MODEL_SPACE
  1

  0
ENDBLK
  5
21
330
1F
100
AcDbEntity
  8
0
100
AcDbBlockEnd
  0
BLOCK
  5
1C
330
1B
100
AcDbEntity
 67
     1
  8
0
100
AcDbBlockBegin
  2
*PAPER_SPACE
  1

  0
ENDBLK
  5
1D
330
1B
100
AcDbEntity
 67
     1
  8
0
100
AcDbBlockEnd
  0
ENDSEC
  0
SECTION
  2
ENTITIES
  0
LINE
  5
100
100
AcDbEntity
  8
Layer_1
 62
5
100
AcDbLine
 10
100.296720
 20
213.486716
 30
0.0
 11
376.046520
 21
213.486716
 31
0.0
  0
SPLINE
  5
101
100
AcDbEntity
  8
Layer_1
 62
5
100
AcDbSpline
 70
0
 71
3
 72
10
 73
6
 74
4
 40
0.000000
 40
0.000000
 40
0.000000
 40
0.000000
 40
2.091441
 40
4.120851
 40
6.212292
 40
6.212292
 40
6.212292
 40
6.212292
 10
96.296606
 20
209.486636
 30
0.0
 10
96.406627
 20
210.187541
 30
0.0
 10
96.623406
 20
211.568562
 30
0.0
 10
98.214693
 20
213.159843
 30
0.0
 10
99.595715
 20
213.376617
 30
0.0
 10
100.296620
 20
213.486636
 30
0.0
 11
96.296606
 21
209.486636
 31
0.0
 11
96.842726
 21
211.505517
 31
0.0
 11
98.277738
 21
212.940523
 31
0.0
 11
100.296620
 21
213.486636
 31
0.0
  0
LINE
  5
102
100
AcDbEntity
  8
Layer_1
 62
5
100
AcDbLine
 10
380.046490
 20
209.486216
 30
0.0
 11
380.046490
 21
173.862720
 31
0.0
  0
LINE
  5
103
100
AcDbEntity
  8
Layer_1
 62
5
100
AcDbLine
 10
380.046490
 20
173.862720
 30
0.0
 11
380.046620
 21
169.861880
 31
0.0
  0
SPLINE
  5
104
100
AcDbEntity
  8
Layer_1
 62
5
100
AcDbSpline
 70
0
 71
3
 72
10
 73
6
 74
4
 40
0.000000
 40
0.000000
 40
0.000000
 40
0.000000
 40
2.091437
 40
4.120842
 40
6.212278
 40
6.212278
 40
6.212278
 40
6.212278
 10
376.046620
 20
213.486636
 30
0.0
 10
376.747523
 20
213.376615
 30
0.0
 10
378.128542
 20
213.159837
 30
0.0
 10
379.719821
 20
211.568557
 30
0.0
 10
379.936599
 20
210.187539
 30
0.0
 10
380.046620
 20
209.486636
 30
0.0
 11
376.046620
 21
213.486636
 31
0.0
 11
378.065497
 21
212.940519
 31
0.0
 11
379.500503
 21
211.505513
 31
0.0
 11
380.046620
 21
209.486636
 31
0.0
  0
LINE
  5
105
100
AcDbEntity
  8
Layer_1
 62
5
100
AcDbLine
 10
376.046620
 20
165.861860
 30
0.0
 11
100.296620
 21
165.858860
 31
0.0
  0
SPLINE
  5
106
100
AcDbEntity
  8
Layer_1
 62
5
100
AcDbSpline
 70
0
 71
3
 72
10
 73
6
 74
4
 40
0.000000
 40
0.000000
 40
0.000000
 40
0.000000
 40
2.091444
 40
4.120855
 40
6.212299
 40
6.212299
 40
6.212299
 40
6.212299
 10
380.046620
 20
169.861880
 30
0.0
 10
379.936602
 20
169.160973
 30
0.0
 10
379.719830
 20
167.779950
 30
0.0
 10
378.128549
 20
166.188660
 30
0.0
 10
376.747526
 20
165.971881
 30
0.0
 10
376.046620
 20
165.861860
 30
0.0
 11
380.046620
 21
169.861880
 31
0.0
 11
379.500510
 21
167.842993
 31
0.0
 11
378.065504
 21
166.407980
 31
0.0
 11
376.046620
 21
165.861860
 31
0.0
  0
LINE
  5
107
100
AcDbEntity
  8
Layer_1
 62
5
100
AcDbLine
 10
96.296606
 20
169.858880
 30
0.0
 11
96.296736
 21
173.862250
 31
0.0
  0
LINE
  5
108
100
AcDbEntity
  8
Layer_1
 62
5
100
AcDbLine
 10
96.296736
 20
173.862250
 30
0.0
 11
96.296736
 21
209.486216
 31
0.0
  0
SPLINE
  5
109
100
AcDbEntity
  8
Layer_1
 62
5
100
AcDbSpline
 70
0
 71
3
 72
10
 73
6
 74
4
 40
0.000000
 40
0.000000
 40
0.000000
 40
0.000000
 40
2.091448
 40
4.120864
 40
6.212311
 40
6.212311
 40
6.212311
 40
6.212311
 10
100.296620
 20
165.858860
 30
0.0
 10
99.595712
 20
165.968879
 30
0.0
 10
98.214686
 20
166.185654
 30
0.0
 10
96.623398
 20
167.776946
 30
0.0
 10
96.406625
 20
169.157973
 30
0.0
 10
96.296606
 20
169.858880
 30
0.0
 11
100.296620
 21
165.858860
 31
0.0
 11
98.277732
 21
166.404976
 31
0.0
 11
96.842719
 21
167.839991
 31
0.0
 11
96.296606
 21
169.858880
 31
0.0
  0
SPLINE
  5
10a
100
AcDbEntity
  8
Layer_1
 62
5
100
AcDbSpline
 70
0
 71
3
 72
10
 73
6
 74
4
 40
0.000000
 40
0.000000
 40
0.000000
 40
0.000000
 40
2.314906
 40
4.481468
 40
6.794515
 40
6.794515
 40
6.794515
 40
6.794515
 10
354.721620
 20
209.486636
 30
0.0
 10
354.462326
 20
208.682034
 30
0.0
 10
353.960353
 20
207.124392
 30
0.0
 10
350.979400
 20
207.123682
 30
0.0
 10
350.479661
 20
208.681999
 30
0.0
 10
350.221620
 20
209.486636
 30
0.0
 11
354.721620
 21
209.486636
 31
0.0
 11
353.553058
 21
207.488324
 31
0.0
 11
351.386496
 21
207.488324
 31
0.0
 11
350.221620
 21
209.486636
 31
0.0
  0
LINE
  5
10b
100
AcDbEntity
  8
Layer_1
 62
5
100
AcDbLine
 10
354.721620
 20
209.486636
 30
0.0
 11
354.721620
 21
209.486636
 31
0.0
  0
SPLINE
  5
10c
100
AcDbEntity
  8
Layer_1
 62
5
100
AcDbSpline
 70
0
 71
3
 72
10
 73
6
 74
4
 40
0.000000
 40
0.000000
 40
0.000000
 40
0.000000
 40
2.314906
 40
4.481468
 40
6.794515
 40
6.794515
 40
6.794515
 40
6.794515
 10
350.221620
 20
209.486636
 30
0.0
 10
350.480914
 20
210.291238
 30
0.0
 10
350.982887
 20
211.848880
 30
0.0
 10
353.963840
 20
211.849590
 30
0.0
 10
354.463579
 20
210.291273
 30
0.0
 10
354.721620
 20
209.486636
 30
0.0
 11
350.221620
 21
209.486636
 31
0.0
 11
351.390182
 21
211.484948
 31
0.0
 11
353.556744
 21
211.484948
 31
0.0
 11
354.721620
 21
209.486636
 31
0.0
  0
LINE
  5
10d
100
AcDbEntity
  8
Layer_1
 62
5
100
AcDbLine
 10
101.246620
 20
209.486636
 30
0.0
 11
101.246620
 21
209.486636
 31
0.0
  0
SPLINE
  5
10e
100
AcDbEntity
  8
Layer_1
 62
5
100
AcDbSpline
 70
0
 71
3
 72
13
 73
9
 74
7
 40
0.000000
 40
0.000000
 40
0.000000
 40
0.000000
 40
0.977623
 40
1.892445
 40
2.870068
 40
3.847691
 40
4.762512
 40
5.740135
 40
5.740135
 40
5.740135
 40
5.740135
 10
101.246620
 20
209.486636
 30
0.0
 10
101.133299
 20
209.146599
 30
0.0
 10
100.913938
 20
208.488369
 30
0.0
 10
99.713844
 20
208.488369
 30
0.0
 10
99.156893
 20
209.486636
 30
0.0
 10
99.713844
 20
210.484903
 30
0.0
 10
100.913938
 20
210.484903
 30
0.0
 10
101.133299
 20
209.826673
 30
0.0
 10
101.246620
 20
209.486636
 30
0.0
 11
101.246620
 21
209.486636
 31
0.0
 11
100.754024
 21
208.642186
 31
0.0
 11
99.839202
 21
208.642186
 31
0.0
 11
99.346606
 21
209.486636
 31
0.0
 11
99.839202
 21
210.331086
 31
0.0
 11
100.754024
 21
210.331086
 31
0.0
 11
101.246620
 21
209.486636
 31
0.0
  0
LINE
  5
10f
100
AcDbEntity
  8
Layer_1
 62
5
100
AcDbLine
 10
376.996620
 20
209.486636
 30
0.0
 11
376.996620
 21
209.486636
 31
0.0
  0
SPLINE
  5
110
100
AcDbEntity
  8
Layer_1
 62
5
100
AcDbSpline
 70
0
 71
3
 72
13
 73
9
 74
7
 40
0.000000
 40
0.000000
 40
0.000000
 40
0.000000
 40
0.977616
 40
1.892431
 40
2.870047
 40
3.847663
 40
4.762478
 40
5.740094
 40
5.740094
 40
5.740094
 40
5.740094
 10
376.996620
 20
209.486636
 30
0.0
 10
376.883300
 20
209.146602
 30
0.0
 10
376.663940
 20
208.488376
 30
0.0
 10
375.463856
 20
208.488376
 30
0.0
 10
374.906909
 20
209.486636
 30
0.0
 10
375.463856
 20
210.484896
 30
0.0
 10
376.663940
 20
210.484896
 30
0.0
 10
376.883300
 20
209.826670
 30
0.0
 10
376.996620
 20
209.486636
 30
0.0
 11
376.996620
 21
209.486636
 31
0.0
 11
376.504027
 21
208.642192
 31
0.0
 11
375.589213
 21
208.642192
 31
0.0
 11
375.096620
 21
209.486636
 31
0.0
 11
375.589213
 21
210.331080
 31
0.0
 11
376.504027
 21
210.331080
 31
0.0
 11
376.996620
 21
209.486636
 31
0.0
  0
SPLINE
  5
111
100
AcDbEntity
  8
Layer_1
 62
5
100
AcDbSpline
 70
0
 71
3
 72
10
 73
6
 74
4
 40
0.000000
 40
0.000000
 40
0.000000
 40
0.000000
 40
2.314906
 40
4.481468
 40
6.794515
 40
6.794515
 40
6.794515
 40
6.794515
 10
126.121620
 20
209.486636
 30
0.0
 10
125.862326
 20
208.682034
 30
0.0
 10
125.360353
 20
207.124392
 30
0.0
 10
122.379400
 20
207.123682
 30
0.0
 10
121.879661
 20
208.681999
 30
0.0
 10
121.621620
 20
209.486636
 30
0.0
 11
126.121620
 21
209.486636
 31
0.0
 11
124.953058
 21
207.488324
 31
0.0
 11
122.786496
 21
207.488324
 31
0.0
 11
121.621620
 21
209.486636
 31
0.0
  0
LINE
  5
112
100
AcDbEntity
  8
Layer_1
 62
5
100
AcDbLine
 10
126.121620
 20
209.486636
 30
0.0
 11
126.121620
 21
209.486636
 31
0.0
  0
SPLINE
  5
113
100
AcDbEntity
  8
Layer_1
 62
5
100
AcDbSpline
 70
0
 71
3
 72
10
 73
6
 74
4
 40
0.000000
 40
0.000000
 40
0.000000
 40
0.000000
 40
2.314906
 40
4.481468
 40
6.794515
 40
6.794515
 40
6.794515
 40
6.794515
 10
121.621620
 20
209.486636
 30
0.0
 10
121.880914
 20
210.291238
 30
0.0
 10
122.382887
 20
211.848880
 30
0.0
 10
125.363840
 20
211.849590
 30
0.0
 10
125.863579
 20
210.291273
 30
0.0
 10
126.121620
 20
209.486636
 30
0.0
 11
121.621620
 21
209.486636
 31
0.0
 11
122.790182
 21
211.484948
 31
0.0
 11
124.956744
 21
211.484948
 31
0.0
 11
126.121620
 21
209.486636
 31
0.0
  0
LINE
  5
114
100
AcDbEntity
  8
Layer_1
 62
5
100
AcDbLine
 10
239.121620
 20
209.486636
 30
0.0
 11
239.121620
 21
209.486636
 31
0.0
  0
SPLINE
  5
115
100
AcDbEntity
  8
Layer_1
 62
5
100
AcDbSpline
 70
0
 71
3
 72
13
 73
9
 74
7
 40
0.000000
 40
0.000000
 40
0.000000
 40
0.000000
 40
0.977616
 40
1.892431
 40
2.870047
 40
3.847663
 40
4.762478
 40
5.740094
 40
5.740094
 40
5.740094
 40
5.740094
 10
239.121620
 20
209.486636
 30
0.0
 10
239.008300
 20
209.146602
 30
0.0
 10
238.788940
 20
208.488376
 30
0.0
 10
237.588856
 20
208.488376
 30
0.0
 10
237.031909
 20
209.486636
 30
0.0
 10
237.588856
 20
210.484896
 30
0.0
 10
238.788940
 20
210.484896
 30
0.0
 10
239.008300
 20
209.826670
 30
0.0
 10
239.121620
 20
209.486636
 30
0.0
 11
239.121620
 21
209.486636
 31
0.0
 11
238.629027
 21
208.642192
 31
0.0
 11
237.714213
 21
208.642192
 31
0.0
 11
237.221620
 21
209.486636
 31
0.0
 11
237.714213
 21
210.331080
 31
0.0
 11
238.629027
 21
210.331080
 31
0.0
 11
239.121620
 21
209.486636
 31
0.0
  0
LINE
  5
116
100
AcDbEntity
  8
Layer_1
 62
5
100
AcDbLine
 10
376.985840
 20
181.003540
 30
0.0
 11
376.985840
 21
181.003540
 31
0.0
  0
SPLINE
  5
117
100
AcDbEntity
  8
Layer_1
 62
5
100
AcDbSpline
 70
0
 71
3
 72
13
 73
9
 74
7
 40
0.000000
 40
0.000000
 40
0.000000
 40
0.000000
 40
0.977618
 40
1.892433
 40
2.870052
 40
3.847670
 40
4.762485
 40
5.740103
 40
5.740103
 40
5.740103
 40
5.740103
 10
376.985840
 20
181.003540
 30
0.0
 10
376.872521
 20
180.663504
 30
0.0
 10
376.653162
 20
180.005278
 30
0.0
 10
375.453074
 20
180.005278
 30
0.0
 10
374.896129
 20
181.003540
 30
0.0
 10
375.453074
 20
182.001802
 30
0.0
 10
376.653162
 20
182.001802
 30
0.0
 10
376.872521
 20
181.343576
 30
0.0
 10
376.985840
 20
181.003540
 30
0.0
 11
376.985840
 21
181.003540
 31
0.0
 11
376.493247
 21
180.159093
 31
0.0
 11
375.578433
 21
180.159093
 31
0.0
 11
375.085840
 21
181.003540
 31
0.0
 11
375.578433
 21
181.847987
 31
0.0
 11
376.493247
 21
181.847987
 31
0.0
 11
376.985840
 21
181.003540
 31
0.0
  0
SPLINE
  5
118
100
AcDbEntity
  8
Layer_1
 62
5
100
AcDbSpline
 70
0
 71
3
 72
10
 73
6
 74
4
 40
0.000000
 40
0.000000
 40
0.000000
 40
0.000000
 40
0.976098
 40
1.889539
 40
2.865696
 40
2.865696
 40
2.865696
 40
2.865696
 10
101.235840
 20
181.003540
 30
0.0
 10
101.126258
 20
180.664361
 30
0.0
 10
100.914127
 20
180.007776
 30
0.0
 10
99.657668
 20
180.007798
 30
0.0
 10
99.445467
 20
180.664362
 30
0.0
 10
99.335845
 20
181.003540
 30
0.0
 11
101.235840
 21
181.003540
 31
0.0
 11
100.742621
 21
180.161220
 31
0.0
 11
99.829181
 21
180.161220
 31
0.0
 11
99.335845
 21
181.003540
 31
0.0
  0
LINE
  5
119
100
AcDbEntity
  8
Layer_1
 62
5
100
AcDbLine
 10
101.235840
 20
181.003540
 30
0.0
 11
101.235840
 21
181.003540
 31
0.0
  0
SPLINE
  5
11a
100
AcDbEntity
  8
Layer_1
 62
5
100
AcDbSpline
 70
0
 71
3
 72
10
 73
6
 74
4
 40
0.000000
 40
0.000000
 40
0.000000
 40
0.000000
 40
0.976143
 40
1.889537
 40
2.865673
 40
2.865673
 40
2.865673
 40
2.865673
 10
99.335845
 20
181.003540
 30
0.0
 10
99.445457
 20
181.342721
 30
0.0
 10
99.657636
 20
181.999279
 30
0.0
 10
100.914062
 20
181.999281
 30
0.0
 10
101.126232
 20
181.342721
 30
0.0
 10
101.235840
 20
181.003540
 30
0.0
 11
99.335845
 21
181.003540
 31
0.0
 11
99.829152
 21
181.845860
 31
0.0
 11
100.742546
 21
181.845860
 31
0.0
 11
101.235840
 21
181.003540
 31
0.0
  0
ENDSEC
  0
SECTION
  2
OBJECTS
  0
DICTIONARY
  5
C
330
0
100
AcDbDictionary
  3
ACAD_GROUP
350
D
  3
ACAD_MLINESTYLE
350
17
  0
DICTIONARY
  5
D
330
C
100
AcDbDictionary
  0
DICTIONARY
  5
1A
330
C
100
AcDbDictionary
  0
DICTIONARY
  5
17
330
C
100
AcDbDictionary
  3
STANDARD
350
18
  0
DICTIONARY
  5
19
330
C
100
AcDbDictionary
  0
ENDSEC
  0
EOF
